%TF.GenerationSoftware,KiCad,Pcbnew,6.0.4-6f826c9f35~116~ubuntu20.04.1*%
%TF.CreationDate,2022-04-05T19:49:32+00:00*%
%TF.ProjectId,TTLLVDS01A,54544c4c-5644-4533-9031-412e6b696361,rev?*%
%TF.SameCoordinates,Original*%
%TF.FileFunction,Legend,Top*%
%TF.FilePolarity,Positive*%
%FSLAX46Y46*%
G04 Gerber Fmt 4.6, Leading zero omitted, Abs format (unit mm)*
G04 Created by KiCad (PCBNEW 6.0.4-6f826c9f35~116~ubuntu20.04.1) date 2022-04-05 19:49:32*
%MOMM*%
%LPD*%
G01*
G04 APERTURE LIST*
%ADD10C,0.200000*%
%ADD11C,0.150000*%
%ADD12C,0.120000*%
%ADD13R,1.524000X1.524000*%
G04 APERTURE END LIST*
D10*
X17995476Y13699048D02*
X17995476Y12973334D01*
X16725476Y13336191D02*
X17995476Y13336191D01*
X17995476Y12731429D02*
X17995476Y12005715D01*
X16725476Y12368572D02*
X17995476Y12368572D01*
X16725476Y10977620D02*
X16725476Y11582381D01*
X17995476Y11582381D01*
X16725476Y9889048D02*
X16725476Y10614762D01*
X16725476Y10251905D02*
X17995476Y10251905D01*
X17814047Y10372858D01*
X17693095Y10493810D01*
X17632619Y10614762D01*
X23555476Y6582858D02*
X23555476Y7187620D01*
X24825476Y7187620D01*
X24825476Y6340953D02*
X23555476Y5917620D01*
X24825476Y5494286D01*
X23555476Y5070953D02*
X24825476Y5070953D01*
X24825476Y4768572D01*
X24765000Y4587143D01*
X24644047Y4466191D01*
X24523095Y4405715D01*
X24281190Y4345239D01*
X24099761Y4345239D01*
X23857857Y4405715D01*
X23736904Y4466191D01*
X23615952Y4587143D01*
X23555476Y4768572D01*
X23555476Y5070953D01*
X23615952Y3861429D02*
X23555476Y3680000D01*
X23555476Y3377620D01*
X23615952Y3256667D01*
X23676428Y3196191D01*
X23797380Y3135715D01*
X23918333Y3135715D01*
X24039285Y3196191D01*
X24099761Y3256667D01*
X24160238Y3377620D01*
X24220714Y3619524D01*
X24281190Y3740477D01*
X24341666Y3800953D01*
X24462619Y3861429D01*
X24583571Y3861429D01*
X24704523Y3800953D01*
X24765000Y3740477D01*
X24825476Y3619524D01*
X24825476Y3317143D01*
X24765000Y3135715D01*
X24825476Y2349524D02*
X24825476Y2228572D01*
X24765000Y2107620D01*
X24704523Y2047143D01*
X24583571Y1986667D01*
X24341666Y1926191D01*
X24039285Y1926191D01*
X23797380Y1986667D01*
X23676428Y2047143D01*
X23615952Y2107620D01*
X23555476Y2228572D01*
X23555476Y2349524D01*
X23615952Y2470477D01*
X23676428Y2530953D01*
X23797380Y2591429D01*
X24039285Y2651905D01*
X24341666Y2651905D01*
X24583571Y2591429D01*
X24704523Y2530953D01*
X24765000Y2470477D01*
X24825476Y2349524D01*
X23555476Y13059858D02*
X23555476Y13664620D01*
X24825476Y13664620D01*
X24825476Y12817953D02*
X23555476Y12394620D01*
X24825476Y11971286D01*
X23555476Y11547953D02*
X24825476Y11547953D01*
X24825476Y11245572D01*
X24765000Y11064143D01*
X24644047Y10943191D01*
X24523095Y10882715D01*
X24281190Y10822239D01*
X24099761Y10822239D01*
X23857857Y10882715D01*
X23736904Y10943191D01*
X23615952Y11064143D01*
X23555476Y11245572D01*
X23555476Y11547953D01*
X23615952Y10338429D02*
X23555476Y10157000D01*
X23555476Y9854620D01*
X23615952Y9733667D01*
X23676428Y9673191D01*
X23797380Y9612715D01*
X23918333Y9612715D01*
X24039285Y9673191D01*
X24099761Y9733667D01*
X24160238Y9854620D01*
X24220714Y10096524D01*
X24281190Y10217477D01*
X24341666Y10277953D01*
X24462619Y10338429D01*
X24583571Y10338429D01*
X24704523Y10277953D01*
X24765000Y10217477D01*
X24825476Y10096524D01*
X24825476Y9794143D01*
X24765000Y9612715D01*
X23555476Y8403191D02*
X23555476Y9128905D01*
X23555476Y8766048D02*
X24825476Y8766048D01*
X24644047Y8887000D01*
X24523095Y9007953D01*
X24462619Y9128905D01*
X33588476Y10825239D02*
X34858476Y10825239D01*
X33588476Y10220477D02*
X34858476Y10220477D01*
X33588476Y9494762D01*
X34858476Y9494762D01*
X32826476Y11557000D02*
X32826476Y11315096D01*
X32766000Y11194143D01*
X32645047Y11073191D01*
X32403142Y11012715D01*
X31979809Y11012715D01*
X31737904Y11073191D01*
X31616952Y11194143D01*
X31556476Y11315096D01*
X31556476Y11557000D01*
X31616952Y11677953D01*
X31737904Y11798905D01*
X31979809Y11859381D01*
X32403142Y11859381D01*
X32645047Y11798905D01*
X32766000Y11677953D01*
X32826476Y11557000D01*
X32826476Y10468429D02*
X31798380Y10468429D01*
X31677428Y10407953D01*
X31616952Y10347477D01*
X31556476Y10226524D01*
X31556476Y9984620D01*
X31616952Y9863667D01*
X31677428Y9803191D01*
X31798380Y9742715D01*
X32826476Y9742715D01*
X32826476Y9319381D02*
X32826476Y8593667D01*
X31556476Y8956524D02*
X32826476Y8956524D01*
X38661904Y13995239D02*
X39961904Y13995239D01*
X39033333Y13561905D01*
X39961904Y13128572D01*
X38661904Y13128572D01*
X38661904Y11890477D02*
X38661904Y12509524D01*
X39961904Y12509524D01*
X39033333Y11519048D02*
X39033333Y10900000D01*
X38661904Y11642858D02*
X39961904Y11209524D01*
X38661904Y10776191D01*
X39342857Y9909524D02*
X39280952Y9723810D01*
X39219047Y9661905D01*
X39095238Y9600000D01*
X38909523Y9600000D01*
X38785714Y9661905D01*
X38723809Y9723810D01*
X38661904Y9847620D01*
X38661904Y10342858D01*
X39961904Y10342858D01*
X39961904Y9909524D01*
X39900000Y9785715D01*
X39838095Y9723810D01*
X39714285Y9661905D01*
X39590476Y9661905D01*
X39466666Y9723810D01*
X39404761Y9785715D01*
X39342857Y9909524D01*
X39342857Y10342858D01*
X38785714Y9042858D02*
X38723809Y8980953D01*
X38661904Y9042858D01*
X38723809Y9104762D01*
X38785714Y9042858D01*
X38661904Y9042858D01*
X38785714Y7680953D02*
X38723809Y7742858D01*
X38661904Y7928572D01*
X38661904Y8052381D01*
X38723809Y8238096D01*
X38847619Y8361905D01*
X38971428Y8423810D01*
X39219047Y8485715D01*
X39404761Y8485715D01*
X39652380Y8423810D01*
X39776190Y8361905D01*
X39900000Y8238096D01*
X39961904Y8052381D01*
X39961904Y7928572D01*
X39900000Y7742858D01*
X39838095Y7680953D01*
X39961904Y7247620D02*
X39961904Y6380953D01*
X38661904Y7247620D01*
X38661904Y6380953D01*
X17465826Y7843762D02*
X18735826Y7843762D01*
X18735826Y7359953D01*
X18675350Y7239000D01*
X18614873Y7178524D01*
X18493921Y7118048D01*
X18312492Y7118048D01*
X18191540Y7178524D01*
X18131064Y7239000D01*
X18070588Y7359953D01*
X18070588Y7843762D01*
X17465826Y6392334D02*
X17526302Y6513286D01*
X17586778Y6573762D01*
X17707730Y6634239D01*
X18070588Y6634239D01*
X18191540Y6573762D01*
X18252016Y6513286D01*
X18312492Y6392334D01*
X18312492Y6210905D01*
X18252016Y6089953D01*
X18191540Y6029477D01*
X18070588Y5969000D01*
X17707730Y5969000D01*
X17586778Y6029477D01*
X17526302Y6089953D01*
X17465826Y6210905D01*
X17465826Y6392334D01*
X18312492Y5545667D02*
X17465826Y5303762D01*
X18070588Y5061858D01*
X17465826Y4819953D01*
X18312492Y4578048D01*
X17526302Y3610429D02*
X17465826Y3731381D01*
X17465826Y3973286D01*
X17526302Y4094239D01*
X17647254Y4154715D01*
X18131064Y4154715D01*
X18252016Y4094239D01*
X18312492Y3973286D01*
X18312492Y3731381D01*
X18252016Y3610429D01*
X18131064Y3549953D01*
X18010111Y3549953D01*
X17889159Y4154715D01*
X17465826Y3005667D02*
X18312492Y3005667D01*
X18070588Y3005667D02*
X18191540Y2945191D01*
X18252016Y2884715D01*
X18312492Y2763762D01*
X18312492Y2642810D01*
X16691126Y6906381D02*
X16691126Y6120191D01*
X16207316Y6543524D01*
X16207316Y6362096D01*
X16146840Y6241143D01*
X16086364Y6180667D01*
X15965411Y6120191D01*
X15663030Y6120191D01*
X15542078Y6180667D01*
X15481602Y6241143D01*
X15421126Y6362096D01*
X15421126Y6724953D01*
X15481602Y6845905D01*
X15542078Y6906381D01*
X16691126Y5757334D02*
X15421126Y5334000D01*
X16691126Y4910667D01*
X16691126Y4608286D02*
X16691126Y3822096D01*
X16207316Y4245429D01*
X16207316Y4064000D01*
X16146840Y3943048D01*
X16086364Y3882572D01*
X15965411Y3822096D01*
X15663030Y3822096D01*
X15542078Y3882572D01*
X15481602Y3943048D01*
X15421126Y4064000D01*
X15421126Y4426858D01*
X15481602Y4547810D01*
X15542078Y4608286D01*
X25135000Y17702381D02*
X25195476Y17823334D01*
X25195476Y18004762D01*
X25135000Y18186191D01*
X25014047Y18307143D01*
X24893095Y18367620D01*
X24651190Y18428096D01*
X24469761Y18428096D01*
X24227857Y18367620D01*
X24106904Y18307143D01*
X23985952Y18186191D01*
X23925476Y18004762D01*
X23925476Y17883810D01*
X23985952Y17702381D01*
X24046428Y17641905D01*
X24469761Y17641905D01*
X24469761Y17883810D01*
X23925476Y17097620D02*
X25195476Y17097620D01*
X23925476Y16371905D01*
X25195476Y16371905D01*
X23925476Y15767143D02*
X25195476Y15767143D01*
X25195476Y15464762D01*
X25135000Y15283334D01*
X25014047Y15162381D01*
X24893095Y15101905D01*
X24651190Y15041429D01*
X24469761Y15041429D01*
X24227857Y15101905D01*
X24106904Y15162381D01*
X23985952Y15283334D01*
X23925476Y15464762D01*
X23925476Y15767143D01*
X20507476Y13699048D02*
X20507476Y12973334D01*
X19237476Y13336191D02*
X20507476Y13336191D01*
X20507476Y12731429D02*
X20507476Y12005715D01*
X19237476Y12368572D02*
X20507476Y12368572D01*
X19237476Y10977620D02*
X19237476Y11582381D01*
X20507476Y11582381D01*
X20507476Y10312381D02*
X20507476Y10191429D01*
X20447000Y10070477D01*
X20386523Y10010000D01*
X20265571Y9949524D01*
X20023666Y9889048D01*
X19721285Y9889048D01*
X19479380Y9949524D01*
X19358428Y10010000D01*
X19297952Y10070477D01*
X19237476Y10191429D01*
X19237476Y10312381D01*
X19297952Y10433334D01*
X19358428Y10493810D01*
X19479380Y10554286D01*
X19721285Y10614762D01*
X20023666Y10614762D01*
X20265571Y10554286D01*
X20386523Y10493810D01*
X20447000Y10433334D01*
X20507476Y10312381D01*
X859523Y11011905D02*
X1602380Y11011905D01*
X1230952Y9711905D02*
X1230952Y11011905D01*
X1850000Y11011905D02*
X2592857Y11011905D01*
X2221428Y9711905D02*
X2221428Y11011905D01*
X3645238Y9711905D02*
X3026190Y9711905D01*
X3026190Y11011905D01*
X4697619Y9711905D02*
X4078571Y9711905D01*
X4078571Y11011905D01*
X4945238Y11011905D02*
X5378571Y9711905D01*
X5811904Y11011905D01*
X6245238Y9711905D02*
X6245238Y11011905D01*
X6554761Y11011905D01*
X6740476Y10950000D01*
X6864285Y10826191D01*
X6926190Y10702381D01*
X6988095Y10454762D01*
X6988095Y10269048D01*
X6926190Y10021429D01*
X6864285Y9897620D01*
X6740476Y9773810D01*
X6554761Y9711905D01*
X6245238Y9711905D01*
X7483333Y9773810D02*
X7669047Y9711905D01*
X7978571Y9711905D01*
X8102380Y9773810D01*
X8164285Y9835715D01*
X8226190Y9959524D01*
X8226190Y10083334D01*
X8164285Y10207143D01*
X8102380Y10269048D01*
X7978571Y10330953D01*
X7730952Y10392858D01*
X7607142Y10454762D01*
X7545238Y10516667D01*
X7483333Y10640477D01*
X7483333Y10764286D01*
X7545238Y10888096D01*
X7607142Y10950000D01*
X7730952Y11011905D01*
X8040476Y11011905D01*
X8226190Y10950000D01*
X9030952Y11011905D02*
X9154761Y11011905D01*
X9278571Y10950000D01*
X9340476Y10888096D01*
X9402380Y10764286D01*
X9464285Y10516667D01*
X9464285Y10207143D01*
X9402380Y9959524D01*
X9340476Y9835715D01*
X9278571Y9773810D01*
X9154761Y9711905D01*
X9030952Y9711905D01*
X8907142Y9773810D01*
X8845238Y9835715D01*
X8783333Y9959524D01*
X8721428Y10207143D01*
X8721428Y10516667D01*
X8783333Y10764286D01*
X8845238Y10888096D01*
X8907142Y10950000D01*
X9030952Y11011905D01*
X10702380Y9711905D02*
X9959523Y9711905D01*
X10330952Y9711905D02*
X10330952Y11011905D01*
X10207142Y10826191D01*
X10083333Y10702381D01*
X9959523Y10640477D01*
X11197619Y10083334D02*
X11816666Y10083334D01*
X11073809Y9711905D02*
X11507142Y11011905D01*
X11940476Y9711905D01*
X13035000Y17652381D02*
X13095476Y17773334D01*
X13095476Y17954762D01*
X13035000Y18136191D01*
X12914047Y18257143D01*
X12793095Y18317620D01*
X12551190Y18378096D01*
X12369761Y18378096D01*
X12127857Y18317620D01*
X12006904Y18257143D01*
X11885952Y18136191D01*
X11825476Y17954762D01*
X11825476Y17833810D01*
X11885952Y17652381D01*
X11946428Y17591905D01*
X12369761Y17591905D01*
X12369761Y17833810D01*
X11825476Y17047620D02*
X13095476Y17047620D01*
X11825476Y16321905D01*
X13095476Y16321905D01*
X11825476Y15717143D02*
X13095476Y15717143D01*
X13095476Y15414762D01*
X13035000Y15233334D01*
X12914047Y15112381D01*
X12793095Y15051905D01*
X12551190Y14991429D01*
X12369761Y14991429D01*
X12127857Y15051905D01*
X12006904Y15112381D01*
X11885952Y15233334D01*
X11825476Y15414762D01*
X11825476Y15717143D01*
D11*
%TO.C,J6*%
X31252380Y1466667D02*
X31966666Y1466667D01*
X32109523Y1419048D01*
X32204761Y1323810D01*
X32252380Y1180953D01*
X32252380Y1085715D01*
X31252380Y2371429D02*
X31252380Y2180953D01*
X31300000Y2085715D01*
X31347619Y2038096D01*
X31490476Y1942858D01*
X31680952Y1895239D01*
X32061904Y1895239D01*
X32157142Y1942858D01*
X32204761Y1990477D01*
X32252380Y2085715D01*
X32252380Y2276191D01*
X32204761Y2371429D01*
X32157142Y2419048D01*
X32061904Y2466667D01*
X31823809Y2466667D01*
X31728571Y2419048D01*
X31680952Y2371429D01*
X31633333Y2276191D01*
X31633333Y2085715D01*
X31680952Y1990477D01*
X31728571Y1942858D01*
X31823809Y1895239D01*
D12*
X25644600Y1072600D02*
X25644600Y17672600D01*
X30644600Y1072600D02*
X25644600Y1072600D01*
X25644600Y17672600D02*
X30644600Y17672600D01*
X30644600Y17672600D02*
X30644600Y1072600D01*
D11*
%TO.C,J1*%
X14732000Y9398000D02*
X14732000Y1778000D01*
X9652000Y1778000D02*
X9652000Y9398000D01*
X9652000Y9398000D02*
X14732000Y9398000D01*
X14732000Y1778000D02*
X9652000Y1778000D01*
%TO.C,J2*%
X18542000Y19304000D02*
X21082000Y19304000D01*
X21082000Y19304000D02*
X21082000Y14224000D01*
X21082000Y14224000D02*
X18542000Y14224000D01*
X18542000Y14224000D02*
X18542000Y19304000D01*
%TO.C,J3*%
X16002000Y14224000D02*
X13462000Y14224000D01*
X13462000Y14224000D02*
X13462000Y19304000D01*
X13462000Y19304000D02*
X16002000Y19304000D01*
X16002000Y19304000D02*
X16002000Y14224000D01*
%TO.C,J4*%
X16002000Y14224000D02*
X16002000Y19304000D01*
X16002000Y19304000D02*
X18542000Y19304000D01*
X18542000Y14224000D02*
X16002000Y14224000D01*
X18542000Y19304000D02*
X18542000Y14224000D01*
%TO.C,J5*%
X21082000Y19304000D02*
X23622000Y19304000D01*
X21082000Y14224000D02*
X21082000Y19304000D01*
X23622000Y14224000D02*
X21082000Y14224000D01*
X23622000Y19304000D02*
X23622000Y14224000D01*
%TD*%
D13*
%TO.C,J1*%
X10922000Y8128000D03*
X13462000Y8128000D03*
X10922000Y5588000D03*
X13462000Y5588000D03*
X10922000Y3048000D03*
X13462000Y3048000D03*
%TD*%
%TO.C,J2*%
X19812000Y15494000D03*
X19812000Y18034000D03*
%TD*%
%TO.C,J3*%
X14732000Y18034000D03*
X14732000Y15494000D03*
%TD*%
%TO.C,J4*%
X17272000Y18034000D03*
X17272000Y15494000D03*
%TD*%
%TO.C,J5*%
X22352000Y18034000D03*
X22352000Y15494000D03*
%TD*%
M02*
