%TF.GenerationSoftware,KiCad,Pcbnew,6.0.4-6f826c9f35~116~ubuntu20.04.1*%
%TF.CreationDate,2023-07-05T12:09:41+00:00*%
%TF.ProjectId,TTLLVDS01,54544c4c-5644-4533-9031-2e6b69636164,rev?*%
%TF.SameCoordinates,Original*%
%TF.FileFunction,Copper,L1,Top*%
%TF.FilePolarity,Positive*%
%FSLAX46Y46*%
G04 Gerber Fmt 4.6, Leading zero omitted, Abs format (unit mm)*
G04 Created by KiCad (PCBNEW 6.0.4-6f826c9f35~116~ubuntu20.04.1) date 2023-07-05 12:09:41*
%MOMM*%
%LPD*%
G01*
G04 APERTURE LIST*
%TA.AperFunction,ComponentPad*%
%ADD10O,1.300000X1.100000*%
%TD*%
%TA.AperFunction,ComponentPad*%
%ADD11C,2.500000*%
%TD*%
%TA.AperFunction,ComponentPad*%
%ADD12R,1.524000X1.524000*%
%TD*%
%TA.AperFunction,ComponentPad*%
%ADD13C,6.000000*%
%TD*%
%TA.AperFunction,ViaPad*%
%ADD14C,0.800000*%
%TD*%
G04 APERTURE END LIST*
D10*
%TO.P,J6,1,1*%
%TO.N,GND*%
X26644600Y5562600D03*
%TO.P,J6,2,2*%
%TO.N,/1+*%
X28144600Y6832600D03*
%TO.P,J6,3,3*%
%TO.N,/1-*%
X28144600Y8102600D03*
%TO.P,J6,4,4*%
%TO.N,GND*%
X26644600Y9372600D03*
%TO.P,J6,5,5*%
%TO.N,/2+*%
X28144600Y10642600D03*
%TO.P,J6,6,6*%
%TO.N,/2-*%
X28144600Y11912600D03*
%TO.P,J6,7,7*%
%TO.N,GND*%
X26644600Y13182600D03*
D11*
%TO.P,J6,8*%
%TO.N,N/C*%
X29144600Y15932600D03*
%TO.P,J6,9*%
X28144600Y3102600D03*
%TD*%
D12*
%TO.P,J1,1,2*%
%TO.N,GND*%
X10922000Y8128000D03*
%TO.P,J1,2,2*%
X13462000Y8128000D03*
%TO.P,J1,3,4*%
%TO.N,VCC*%
X10922000Y5588000D03*
%TO.P,J1,4,4*%
X13462000Y5588000D03*
%TO.P,J1,5,6*%
%TO.N,GND*%
X10922000Y3048000D03*
%TO.P,J1,6,6*%
X13462000Y3048000D03*
%TD*%
%TO.P,J2,1*%
%TO.N,/1A*%
X19812000Y15494000D03*
%TO.P,J2,2*%
X19812000Y18034000D03*
%TD*%
%TO.P,J3,1*%
%TO.N,GND*%
X14732000Y18034000D03*
%TO.P,J3,2*%
X14732000Y15494000D03*
%TD*%
%TO.P,J4,1*%
%TO.N,/2A*%
X17272000Y18034000D03*
%TO.P,J4,2*%
X17272000Y15494000D03*
%TD*%
%TO.P,J5,1*%
%TO.N,GND*%
X22352000Y18034000D03*
%TO.P,J5,2*%
X22352000Y15494000D03*
%TD*%
D13*
%TO.P,M1,1*%
%TO.N,GND*%
X35560000Y15240000D03*
%TD*%
%TO.P,M2,1*%
%TO.N,GND*%
X5080000Y5080000D03*
%TD*%
%TO.P,M3,1*%
%TO.N,GND*%
X5080000Y15240000D03*
%TD*%
%TO.P,M4,1*%
%TO.N,GND*%
X35560000Y5080000D03*
%TD*%
D14*
%TO.N,GND*%
X22225000Y11176000D03*
X20320000Y3556000D03*
X15621000Y12065000D03*
X15621000Y11049000D03*
X22225000Y13208000D03*
X21463000Y3556000D03*
X15621000Y13081000D03*
X22225000Y12192000D03*
X22479000Y3556000D03*
%TD*%
%TA.AperFunction,Conductor*%
%TO.N,GND*%
G36*
X40028121Y19745998D02*
G01*
X40074614Y19692342D01*
X40086000Y19640000D01*
X40086000Y680000D01*
X40065998Y611879D01*
X40012342Y565386D01*
X39960000Y554000D01*
X680000Y554000D01*
X611879Y574002D01*
X565386Y627658D01*
X554000Y680000D01*
X554000Y2241331D01*
X9652001Y2241331D01*
X9652371Y2234510D01*
X9657895Y2183648D01*
X9661521Y2168396D01*
X9706676Y2047946D01*
X9715214Y2032351D01*
X9791715Y1930276D01*
X9804276Y1917715D01*
X9906351Y1841214D01*
X9921946Y1832676D01*
X10042394Y1787522D01*
X10057649Y1783895D01*
X10108514Y1778369D01*
X10115328Y1778000D01*
X10649885Y1778000D01*
X10665124Y1782475D01*
X10666329Y1783865D01*
X10668000Y1791548D01*
X10668000Y1796116D01*
X11176000Y1796116D01*
X11180475Y1780877D01*
X11181865Y1779672D01*
X11189548Y1778001D01*
X11728669Y1778001D01*
X11735490Y1778371D01*
X11786352Y1783895D01*
X11801604Y1787521D01*
X11922054Y1832676D01*
X11937649Y1841214D01*
X12039724Y1917715D01*
X12052284Y1930275D01*
X12091173Y1982165D01*
X12148032Y2024681D01*
X12218851Y2029707D01*
X12281144Y1995647D01*
X12292827Y1982165D01*
X12331716Y1930275D01*
X12344276Y1917715D01*
X12446351Y1841214D01*
X12461946Y1832676D01*
X12582394Y1787522D01*
X12597649Y1783895D01*
X12648514Y1778369D01*
X12655328Y1778000D01*
X13189885Y1778000D01*
X13205124Y1782475D01*
X13206329Y1783865D01*
X13208000Y1791548D01*
X13208000Y1796116D01*
X13716000Y1796116D01*
X13720475Y1780877D01*
X13721865Y1779672D01*
X13729548Y1778001D01*
X14268669Y1778001D01*
X14275490Y1778371D01*
X14326352Y1783895D01*
X14341604Y1787521D01*
X14462054Y1832676D01*
X14477649Y1841214D01*
X14579724Y1917715D01*
X14592285Y1930276D01*
X14668786Y2032351D01*
X14677324Y2047946D01*
X14722478Y2168394D01*
X14726105Y2183649D01*
X14731631Y2234514D01*
X14732000Y2241328D01*
X14732000Y2775885D01*
X14727525Y2791124D01*
X14726135Y2792329D01*
X14718452Y2794000D01*
X13734115Y2794000D01*
X13718876Y2789525D01*
X13717671Y2788135D01*
X13716000Y2780452D01*
X13716000Y1796116D01*
X13208000Y1796116D01*
X13208000Y2775885D01*
X13203525Y2791124D01*
X13202135Y2792329D01*
X13194452Y2794000D01*
X11194115Y2794000D01*
X11178876Y2789525D01*
X11177671Y2788135D01*
X11176000Y2780452D01*
X11176000Y1796116D01*
X10668000Y1796116D01*
X10668000Y2775885D01*
X10663525Y2791124D01*
X10662135Y2792329D01*
X10654452Y2794000D01*
X9670116Y2794000D01*
X9654877Y2789525D01*
X9653672Y2788135D01*
X9652001Y2780452D01*
X9652001Y2241331D01*
X554000Y2241331D01*
X554000Y3102600D01*
X26589306Y3102600D01*
X26608454Y2859298D01*
X26665428Y2621988D01*
X26667318Y2617425D01*
X26667320Y2617419D01*
X26756928Y2401085D01*
X26758823Y2396511D01*
X26886341Y2188421D01*
X27044841Y2002841D01*
X27230421Y1844341D01*
X27438511Y1716823D01*
X27443081Y1714930D01*
X27443085Y1714928D01*
X27659419Y1625320D01*
X27659425Y1625318D01*
X27663988Y1623428D01*
X27668788Y1622276D01*
X27668793Y1622274D01*
X27777302Y1596223D01*
X27901298Y1566454D01*
X28144600Y1547306D01*
X28387902Y1566454D01*
X28511898Y1596223D01*
X28620407Y1622274D01*
X28620412Y1622276D01*
X28625212Y1623428D01*
X28629775Y1625318D01*
X28629781Y1625320D01*
X28846115Y1714928D01*
X28846119Y1714930D01*
X28850689Y1716823D01*
X29058779Y1844341D01*
X29244359Y2002841D01*
X29402859Y2188421D01*
X29530377Y2396511D01*
X29532272Y2401085D01*
X29621880Y2617419D01*
X29621882Y2617425D01*
X29623772Y2621988D01*
X29680746Y2859298D01*
X29699894Y3102600D01*
X29680746Y3345902D01*
X29623772Y3583212D01*
X29621882Y3587775D01*
X29621880Y3587781D01*
X29532272Y3804115D01*
X29532270Y3804119D01*
X29530377Y3808689D01*
X29402859Y4016779D01*
X29244359Y4202359D01*
X29058779Y4360859D01*
X28850689Y4488377D01*
X28846119Y4490270D01*
X28846115Y4490272D01*
X28629781Y4579880D01*
X28629775Y4579882D01*
X28625212Y4581772D01*
X28620412Y4582924D01*
X28620407Y4582926D01*
X28511898Y4608977D01*
X28387902Y4638746D01*
X28144600Y4657894D01*
X27901298Y4638746D01*
X27777302Y4608977D01*
X27668793Y4582926D01*
X27668788Y4582924D01*
X27663988Y4581772D01*
X27546842Y4533249D01*
X27476253Y4525660D01*
X27412766Y4557439D01*
X27376539Y4618497D01*
X27379073Y4689449D01*
X27418989Y4747301D01*
X27488935Y4804347D01*
X27497639Y4812991D01*
X27622038Y4963363D01*
X27628897Y4973531D01*
X27721721Y5145207D01*
X27726471Y5156507D01*
X27768195Y5291293D01*
X27768401Y5305395D01*
X27761645Y5308600D01*
X26916715Y5308600D01*
X26901476Y5304125D01*
X26900271Y5302735D01*
X26898600Y5295052D01*
X26898600Y4532696D01*
X26902836Y4518269D01*
X26915189Y4516208D01*
X26944961Y4519127D01*
X26956996Y4521510D01*
X27095998Y4563477D01*
X27166993Y4564018D01*
X27227009Y4526090D01*
X27256993Y4461736D01*
X27247425Y4391387D01*
X27214247Y4347045D01*
X27044841Y4202359D01*
X26886341Y4016779D01*
X26758823Y3808689D01*
X26756930Y3804119D01*
X26756928Y3804115D01*
X26667320Y3587781D01*
X26667318Y3587775D01*
X26665428Y3583212D01*
X26608454Y3345902D01*
X26589306Y3102600D01*
X554000Y3102600D01*
X554000Y3320115D01*
X9652000Y3320115D01*
X9656475Y3304876D01*
X9657865Y3303671D01*
X9665548Y3302000D01*
X14713884Y3302000D01*
X14729123Y3306475D01*
X14730328Y3307865D01*
X14731999Y3315548D01*
X14731999Y3854669D01*
X14731629Y3861490D01*
X14726105Y3912352D01*
X14722479Y3927604D01*
X14677324Y4048054D01*
X14668786Y4063649D01*
X14592285Y4165724D01*
X14579724Y4178285D01*
X14477649Y4254786D01*
X14462054Y4263324D01*
X14335863Y4310631D01*
X14279099Y4353273D01*
X14254399Y4419834D01*
X14269606Y4489183D01*
X14319892Y4539301D01*
X14328939Y4543761D01*
X14397153Y4574061D01*
X14406664Y4583588D01*
X14461725Y4638746D01*
X14476241Y4653287D01*
X14492229Y4689449D01*
X14517675Y4747008D01*
X14521506Y4755673D01*
X14524500Y4781354D01*
X14524500Y5296832D01*
X25519902Y5296832D01*
X25557154Y5170258D01*
X25561747Y5158890D01*
X25652166Y4985934D01*
X25658882Y4975672D01*
X25781168Y4823580D01*
X25789752Y4814814D01*
X25939256Y4689364D01*
X25949367Y4682440D01*
X26120398Y4588416D01*
X26131662Y4583588D01*
X26317695Y4524575D01*
X26329683Y4522027D01*
X26372596Y4517213D01*
X26387127Y4519766D01*
X26390600Y4532313D01*
X26390600Y5290485D01*
X26386125Y5305724D01*
X26384735Y5306929D01*
X26377052Y5308600D01*
X25534553Y5308600D01*
X25521022Y5304627D01*
X25519902Y5296832D01*
X14524500Y5296832D01*
X14524500Y5819805D01*
X25520799Y5819805D01*
X25527555Y5816600D01*
X26372485Y5816600D01*
X26387724Y5821075D01*
X26388929Y5822465D01*
X26390600Y5830148D01*
X26390600Y5834715D01*
X26898600Y5834715D01*
X26903075Y5819476D01*
X26904465Y5818271D01*
X26912148Y5816600D01*
X27754647Y5816600D01*
X27768178Y5820573D01*
X27769298Y5828368D01*
X27768490Y5831115D01*
X27768445Y5902112D01*
X27806791Y5961862D01*
X27871353Y5991396D01*
X27916849Y5989656D01*
X27944197Y5983543D01*
X27944204Y5983542D01*
X27949237Y5982417D01*
X27954907Y5982100D01*
X28290764Y5982100D01*
X28428309Y5997042D01*
X28603448Y6055983D01*
X28761844Y6151157D01*
X28773138Y6161837D01*
X28891149Y6273435D01*
X28891151Y6273437D01*
X28896107Y6278124D01*
X28999975Y6430960D01*
X29007986Y6450988D01*
X29066066Y6596198D01*
X29066067Y6596203D01*
X29068600Y6602535D01*
X29085893Y6706996D01*
X29097666Y6778106D01*
X29097666Y6778110D01*
X29098781Y6784844D01*
X29097243Y6814201D01*
X29089467Y6962568D01*
X29089110Y6969381D01*
X29063416Y7062665D01*
X29041851Y7140954D01*
X29040038Y7147536D01*
X28953854Y7310998D01*
X28893023Y7382982D01*
X28864332Y7447923D01*
X28875305Y7518066D01*
X28892489Y7544703D01*
X28896107Y7548124D01*
X28999975Y7700960D01*
X29032239Y7781625D01*
X29066066Y7866198D01*
X29066067Y7866203D01*
X29068600Y7872535D01*
X29098781Y8054844D01*
X29093423Y8157093D01*
X29089467Y8232568D01*
X29089110Y8239381D01*
X29063734Y8331510D01*
X29041851Y8410954D01*
X29040038Y8417536D01*
X28953854Y8580998D01*
X28834580Y8722140D01*
X28829155Y8726288D01*
X28693201Y8830233D01*
X28693197Y8830236D01*
X28687780Y8834377D01*
X28681600Y8837259D01*
X28681598Y8837260D01*
X28526480Y8909593D01*
X28526477Y8909594D01*
X28520303Y8912473D01*
X28513658Y8913958D01*
X28513653Y8913960D01*
X28373729Y8945235D01*
X28339963Y8952783D01*
X28334293Y8953100D01*
X27998436Y8953100D01*
X27995042Y8952731D01*
X27995037Y8952731D01*
X27903407Y8942777D01*
X27833525Y8955305D01*
X27781509Y9003626D01*
X27763875Y9072398D01*
X27768141Y9097643D01*
X27768401Y9115395D01*
X27761645Y9118600D01*
X26916715Y9118600D01*
X26901476Y9114125D01*
X26900271Y9112735D01*
X26898600Y9105052D01*
X26898600Y8342696D01*
X26902836Y8328269D01*
X26915189Y8326208D01*
X26944961Y8329127D01*
X26956996Y8331510D01*
X27040480Y8356715D01*
X27111475Y8357256D01*
X27171491Y8319328D01*
X27201475Y8254974D01*
X27201206Y8215515D01*
X27190419Y8150356D01*
X27190776Y8143539D01*
X27190776Y8143535D01*
X27198902Y7988489D01*
X27200090Y7965819D01*
X27201901Y7959246D01*
X27201901Y7959243D01*
X27227530Y7866198D01*
X27249162Y7787664D01*
X27335346Y7624202D01*
X27339754Y7618986D01*
X27396177Y7552218D01*
X27424868Y7487277D01*
X27413895Y7417134D01*
X27396711Y7390497D01*
X27393093Y7387076D01*
X27289225Y7234240D01*
X27286692Y7227906D01*
X27286690Y7227903D01*
X27223134Y7069002D01*
X27223133Y7068997D01*
X27220600Y7062665D01*
X27219486Y7055933D01*
X27195770Y6912676D01*
X27190419Y6880356D01*
X27190776Y6873539D01*
X27190776Y6873535D01*
X27199504Y6706996D01*
X27183095Y6637922D01*
X27131946Y6588685D01*
X27062297Y6574917D01*
X27035579Y6580300D01*
X26971508Y6600624D01*
X26959517Y6603173D01*
X26916604Y6607987D01*
X26902073Y6605434D01*
X26898600Y6592887D01*
X26898600Y5834715D01*
X26390600Y5834715D01*
X26390600Y6592504D01*
X26386364Y6606931D01*
X26374011Y6608992D01*
X26344239Y6606073D01*
X26332204Y6603690D01*
X26145377Y6547283D01*
X26134035Y6542608D01*
X25961721Y6450988D01*
X25951505Y6444201D01*
X25800265Y6320853D01*
X25791561Y6312209D01*
X25667162Y6161837D01*
X25660303Y6151669D01*
X25567479Y5979993D01*
X25562729Y5968693D01*
X25521005Y5833907D01*
X25520799Y5819805D01*
X14524500Y5819805D01*
X14524500Y6394646D01*
X14521382Y6420846D01*
X14507994Y6450988D01*
X14480663Y6512518D01*
X14475939Y6523153D01*
X14396713Y6602241D01*
X14386076Y6606944D01*
X14386074Y6606945D01*
X14329104Y6632131D01*
X14274888Y6677969D01*
X14254061Y6745842D01*
X14273235Y6814201D01*
X14326323Y6861341D01*
X14335822Y6865353D01*
X14462054Y6912676D01*
X14477649Y6921214D01*
X14579724Y6997715D01*
X14592285Y7010276D01*
X14668786Y7112351D01*
X14677324Y7127946D01*
X14722478Y7248394D01*
X14726105Y7263649D01*
X14731631Y7314514D01*
X14732000Y7321328D01*
X14732000Y7855885D01*
X14727525Y7871124D01*
X14726135Y7872329D01*
X14718452Y7874000D01*
X9670116Y7874000D01*
X9654877Y7869525D01*
X9653672Y7868135D01*
X9652001Y7860452D01*
X9652001Y7321331D01*
X9652371Y7314510D01*
X9657895Y7263648D01*
X9661521Y7248396D01*
X9706676Y7127946D01*
X9715214Y7112351D01*
X9791715Y7010276D01*
X9804276Y6997715D01*
X9906351Y6921214D01*
X9921946Y6912676D01*
X10048137Y6865369D01*
X10104901Y6822727D01*
X10129601Y6756166D01*
X10114394Y6686817D01*
X10064108Y6636699D01*
X10055061Y6632239D01*
X9986847Y6601939D01*
X9978628Y6593706D01*
X9978627Y6593705D01*
X9959872Y6574917D01*
X9907759Y6522713D01*
X9862494Y6420327D01*
X9859500Y6394646D01*
X9859500Y4781354D01*
X9862618Y4755154D01*
X9908061Y4652847D01*
X9916294Y4644628D01*
X9916295Y4644627D01*
X9942471Y4618497D01*
X9987287Y4573759D01*
X9997924Y4569056D01*
X9997926Y4569055D01*
X10054896Y4543869D01*
X10109112Y4498031D01*
X10129939Y4430158D01*
X10110765Y4361799D01*
X10057677Y4314659D01*
X10048178Y4310647D01*
X9921946Y4263324D01*
X9906351Y4254786D01*
X9804276Y4178285D01*
X9791715Y4165724D01*
X9715214Y4063649D01*
X9706676Y4048054D01*
X9661522Y3927606D01*
X9657895Y3912351D01*
X9652369Y3861486D01*
X9652000Y3854672D01*
X9652000Y3320115D01*
X554000Y3320115D01*
X554000Y8400115D01*
X9652000Y8400115D01*
X9656475Y8384876D01*
X9657865Y8383671D01*
X9665548Y8382000D01*
X10649885Y8382000D01*
X10665124Y8386475D01*
X10666329Y8387865D01*
X10668000Y8395548D01*
X10668000Y8400115D01*
X11176000Y8400115D01*
X11180475Y8384876D01*
X11181865Y8383671D01*
X11189548Y8382000D01*
X13189885Y8382000D01*
X13205124Y8386475D01*
X13206329Y8387865D01*
X13208000Y8395548D01*
X13208000Y8400115D01*
X13716000Y8400115D01*
X13720475Y8384876D01*
X13721865Y8383671D01*
X13729548Y8382000D01*
X14713884Y8382000D01*
X14729123Y8386475D01*
X14730328Y8387865D01*
X14731999Y8395548D01*
X14731999Y8934669D01*
X14731629Y8941490D01*
X14726105Y8992352D01*
X14722479Y9007604D01*
X14685280Y9106832D01*
X25519902Y9106832D01*
X25557154Y8980258D01*
X25561747Y8968890D01*
X25652166Y8795934D01*
X25658882Y8785672D01*
X25781168Y8633580D01*
X25789752Y8624814D01*
X25939256Y8499364D01*
X25949367Y8492440D01*
X26120398Y8398416D01*
X26131662Y8393588D01*
X26317695Y8334575D01*
X26329683Y8332027D01*
X26372596Y8327213D01*
X26387127Y8329766D01*
X26390600Y8342313D01*
X26390600Y9100485D01*
X26386125Y9115724D01*
X26384735Y9116929D01*
X26377052Y9118600D01*
X25534553Y9118600D01*
X25521022Y9114627D01*
X25519902Y9106832D01*
X14685280Y9106832D01*
X14677324Y9128054D01*
X14668786Y9143649D01*
X14592285Y9245724D01*
X14579724Y9258285D01*
X14477649Y9334786D01*
X14462054Y9343324D01*
X14341606Y9388478D01*
X14326351Y9392105D01*
X14275486Y9397631D01*
X14268672Y9398000D01*
X13734115Y9398000D01*
X13718876Y9393525D01*
X13717671Y9392135D01*
X13716000Y9384452D01*
X13716000Y8400115D01*
X13208000Y8400115D01*
X13208000Y9379884D01*
X13203525Y9395123D01*
X13202135Y9396328D01*
X13194452Y9397999D01*
X12655331Y9397999D01*
X12648510Y9397629D01*
X12597648Y9392105D01*
X12582396Y9388479D01*
X12461946Y9343324D01*
X12446351Y9334786D01*
X12344276Y9258285D01*
X12331716Y9245725D01*
X12292827Y9193835D01*
X12235968Y9151319D01*
X12165149Y9146293D01*
X12102856Y9180353D01*
X12091173Y9193835D01*
X12052284Y9245725D01*
X12039724Y9258285D01*
X11937649Y9334786D01*
X11922054Y9343324D01*
X11801606Y9388478D01*
X11786351Y9392105D01*
X11735486Y9397631D01*
X11728672Y9398000D01*
X11194115Y9398000D01*
X11178876Y9393525D01*
X11177671Y9392135D01*
X11176000Y9384452D01*
X11176000Y8400115D01*
X10668000Y8400115D01*
X10668000Y9379884D01*
X10663525Y9395123D01*
X10662135Y9396328D01*
X10654452Y9397999D01*
X10115331Y9397999D01*
X10108510Y9397629D01*
X10057648Y9392105D01*
X10042396Y9388479D01*
X9921946Y9343324D01*
X9906351Y9334786D01*
X9804276Y9258285D01*
X9791715Y9245724D01*
X9715214Y9143649D01*
X9706676Y9128054D01*
X9661522Y9007606D01*
X9657895Y8992351D01*
X9652369Y8941486D01*
X9652000Y8934672D01*
X9652000Y8400115D01*
X554000Y8400115D01*
X554000Y9629805D01*
X25520799Y9629805D01*
X25527555Y9626600D01*
X26372485Y9626600D01*
X26387724Y9631075D01*
X26388929Y9632465D01*
X26390600Y9640148D01*
X26390600Y9644715D01*
X26898600Y9644715D01*
X26903075Y9629476D01*
X26904465Y9628271D01*
X26912148Y9626600D01*
X27754647Y9626600D01*
X27768178Y9630573D01*
X27769298Y9638368D01*
X27768490Y9641115D01*
X27768445Y9712112D01*
X27806791Y9771862D01*
X27871353Y9801396D01*
X27916849Y9799656D01*
X27944197Y9793543D01*
X27944204Y9793542D01*
X27949237Y9792417D01*
X27954907Y9792100D01*
X28290764Y9792100D01*
X28428309Y9807042D01*
X28603448Y9865983D01*
X28761844Y9961157D01*
X28773138Y9971837D01*
X28891149Y10083435D01*
X28891151Y10083437D01*
X28896107Y10088124D01*
X28999975Y10240960D01*
X29007986Y10260988D01*
X29066066Y10406198D01*
X29066067Y10406203D01*
X29068600Y10412535D01*
X29098781Y10594844D01*
X29093423Y10697094D01*
X29089467Y10772568D01*
X29089110Y10779381D01*
X29063416Y10872665D01*
X29041851Y10950954D01*
X29040038Y10957536D01*
X28953854Y11120998D01*
X28893023Y11192982D01*
X28864332Y11257923D01*
X28875305Y11328066D01*
X28892489Y11354703D01*
X28896107Y11358124D01*
X28999975Y11510960D01*
X29032239Y11591625D01*
X29066066Y11676198D01*
X29066067Y11676203D01*
X29068600Y11682535D01*
X29098781Y11864844D01*
X29093423Y11967093D01*
X29089467Y12042568D01*
X29089110Y12049381D01*
X29063734Y12141510D01*
X29041851Y12220954D01*
X29040038Y12227536D01*
X28953854Y12390998D01*
X28834580Y12532140D01*
X28829155Y12536288D01*
X28693201Y12640233D01*
X28693197Y12640236D01*
X28687780Y12644377D01*
X28681600Y12647259D01*
X28681598Y12647260D01*
X28526480Y12719593D01*
X28526477Y12719594D01*
X28520303Y12722473D01*
X28513658Y12723958D01*
X28513653Y12723960D01*
X28373729Y12755235D01*
X28339963Y12762783D01*
X28334293Y12763100D01*
X27998436Y12763100D01*
X27995042Y12762731D01*
X27995037Y12762731D01*
X27903407Y12752777D01*
X27833525Y12765305D01*
X27781509Y12813626D01*
X27763875Y12882398D01*
X27768141Y12907643D01*
X27768401Y12925395D01*
X27761645Y12928600D01*
X26916715Y12928600D01*
X26901476Y12924125D01*
X26900271Y12922735D01*
X26898600Y12915052D01*
X26898600Y12152696D01*
X26902836Y12138269D01*
X26915189Y12136208D01*
X26944961Y12139127D01*
X26956996Y12141510D01*
X27040480Y12166715D01*
X27111475Y12167256D01*
X27171491Y12129328D01*
X27201475Y12064974D01*
X27201206Y12025515D01*
X27190419Y11960356D01*
X27190776Y11953539D01*
X27190776Y11953535D01*
X27198902Y11798489D01*
X27200090Y11775819D01*
X27201901Y11769246D01*
X27201901Y11769243D01*
X27227530Y11676198D01*
X27249162Y11597664D01*
X27335346Y11434202D01*
X27339754Y11428986D01*
X27396177Y11362218D01*
X27424868Y11297277D01*
X27413895Y11227134D01*
X27396711Y11200497D01*
X27393093Y11197076D01*
X27289225Y11044240D01*
X27286692Y11037906D01*
X27286690Y11037903D01*
X27223134Y10879002D01*
X27223133Y10878997D01*
X27220600Y10872665D01*
X27190419Y10690356D01*
X27190776Y10683539D01*
X27190776Y10683535D01*
X27199504Y10516996D01*
X27183095Y10447922D01*
X27131946Y10398685D01*
X27062297Y10384917D01*
X27035579Y10390300D01*
X26971508Y10410624D01*
X26959517Y10413173D01*
X26916604Y10417987D01*
X26902073Y10415434D01*
X26898600Y10402887D01*
X26898600Y9644715D01*
X26390600Y9644715D01*
X26390600Y10402504D01*
X26386364Y10416931D01*
X26374011Y10418992D01*
X26344239Y10416073D01*
X26332204Y10413690D01*
X26145377Y10357283D01*
X26134035Y10352608D01*
X25961721Y10260988D01*
X25951505Y10254201D01*
X25800265Y10130853D01*
X25791561Y10122209D01*
X25667162Y9971837D01*
X25660303Y9961669D01*
X25567479Y9789993D01*
X25562729Y9778693D01*
X25521005Y9643907D01*
X25520799Y9629805D01*
X554000Y9629805D01*
X554000Y12916832D01*
X25519902Y12916832D01*
X25557154Y12790258D01*
X25561747Y12778890D01*
X25652166Y12605934D01*
X25658882Y12595672D01*
X25781168Y12443580D01*
X25789752Y12434814D01*
X25939256Y12309364D01*
X25949367Y12302440D01*
X26120398Y12208416D01*
X26131662Y12203588D01*
X26317695Y12144575D01*
X26329683Y12142027D01*
X26372596Y12137213D01*
X26387127Y12139766D01*
X26390600Y12152313D01*
X26390600Y12910485D01*
X26386125Y12925724D01*
X26384735Y12926929D01*
X26377052Y12928600D01*
X25534553Y12928600D01*
X25521022Y12924627D01*
X25519902Y12916832D01*
X554000Y12916832D01*
X554000Y13439805D01*
X25520799Y13439805D01*
X25527555Y13436600D01*
X26372485Y13436600D01*
X26387724Y13441075D01*
X26388929Y13442465D01*
X26390600Y13450148D01*
X26390600Y13454715D01*
X26898600Y13454715D01*
X26903075Y13439476D01*
X26904465Y13438271D01*
X26912148Y13436600D01*
X27754647Y13436600D01*
X27768178Y13440573D01*
X27769298Y13448368D01*
X27732046Y13574942D01*
X27727453Y13586310D01*
X27637034Y13759266D01*
X27630318Y13769528D01*
X27508032Y13921620D01*
X27499448Y13930386D01*
X27349944Y14055836D01*
X27339833Y14062760D01*
X27168802Y14156784D01*
X27157538Y14161612D01*
X26971505Y14220625D01*
X26959517Y14223173D01*
X26916604Y14227987D01*
X26902073Y14225434D01*
X26898600Y14212887D01*
X26898600Y13454715D01*
X26390600Y13454715D01*
X26390600Y14212504D01*
X26386364Y14226931D01*
X26374011Y14228992D01*
X26344239Y14226073D01*
X26332204Y14223690D01*
X26145377Y14167283D01*
X26134035Y14162608D01*
X25961721Y14070988D01*
X25951505Y14064201D01*
X25800265Y13940853D01*
X25791561Y13932209D01*
X25667162Y13781837D01*
X25660303Y13771669D01*
X25567479Y13599993D01*
X25562729Y13588693D01*
X25521005Y13453907D01*
X25520799Y13439805D01*
X554000Y13439805D01*
X554000Y14687331D01*
X13462001Y14687331D01*
X13462371Y14680510D01*
X13467895Y14629648D01*
X13471521Y14614396D01*
X13516676Y14493946D01*
X13525214Y14478351D01*
X13601715Y14376276D01*
X13614276Y14363715D01*
X13716351Y14287214D01*
X13731946Y14278676D01*
X13852394Y14233522D01*
X13867649Y14229895D01*
X13918514Y14224369D01*
X13925328Y14224000D01*
X14459885Y14224000D01*
X14475124Y14228475D01*
X14476329Y14229865D01*
X14478000Y14237548D01*
X14478000Y14242116D01*
X14986000Y14242116D01*
X14990475Y14226877D01*
X14991865Y14225672D01*
X14999548Y14224001D01*
X15538669Y14224001D01*
X15545490Y14224371D01*
X15596352Y14229895D01*
X15611604Y14233521D01*
X15732054Y14278676D01*
X15747649Y14287214D01*
X15849724Y14363715D01*
X15862285Y14376276D01*
X15938786Y14478351D01*
X15947324Y14493946D01*
X15994631Y14620137D01*
X16037273Y14676901D01*
X16103834Y14701601D01*
X16173183Y14686394D01*
X16223301Y14636108D01*
X16227761Y14627061D01*
X16258061Y14558847D01*
X16337287Y14479759D01*
X16347924Y14475056D01*
X16347926Y14475055D01*
X16392566Y14455320D01*
X16439673Y14434494D01*
X16465354Y14431500D01*
X18078646Y14431500D01*
X18082350Y14431941D01*
X18082353Y14431941D01*
X18089746Y14432821D01*
X18104846Y14434618D01*
X18144596Y14452274D01*
X18196518Y14475337D01*
X18207153Y14480061D01*
X18286241Y14559287D01*
X18331506Y14661673D01*
X18334500Y14687354D01*
X18749500Y14687354D01*
X18752618Y14661154D01*
X18756456Y14652514D01*
X18756456Y14652513D01*
X18766612Y14629649D01*
X18798061Y14558847D01*
X18877287Y14479759D01*
X18887924Y14475056D01*
X18887926Y14475055D01*
X18932566Y14455320D01*
X18979673Y14434494D01*
X19005354Y14431500D01*
X20618646Y14431500D01*
X20622350Y14431941D01*
X20622353Y14431941D01*
X20629746Y14432821D01*
X20644846Y14434618D01*
X20684596Y14452274D01*
X20736518Y14475337D01*
X20747153Y14480061D01*
X20826241Y14559287D01*
X20856131Y14626896D01*
X20901969Y14681112D01*
X20969842Y14701939D01*
X21038201Y14682765D01*
X21085341Y14629677D01*
X21089353Y14620178D01*
X21136676Y14493946D01*
X21145214Y14478351D01*
X21221715Y14376276D01*
X21234276Y14363715D01*
X21336351Y14287214D01*
X21351946Y14278676D01*
X21472394Y14233522D01*
X21487649Y14229895D01*
X21538514Y14224369D01*
X21545328Y14224000D01*
X22079885Y14224000D01*
X22095124Y14228475D01*
X22096329Y14229865D01*
X22098000Y14237548D01*
X22098000Y14242116D01*
X22606000Y14242116D01*
X22610475Y14226877D01*
X22611865Y14225672D01*
X22619548Y14224001D01*
X23158669Y14224001D01*
X23165490Y14224371D01*
X23216352Y14229895D01*
X23231604Y14233521D01*
X23352054Y14278676D01*
X23367649Y14287214D01*
X23469724Y14363715D01*
X23482285Y14376276D01*
X23558786Y14478351D01*
X23567324Y14493946D01*
X23612478Y14614394D01*
X23616105Y14629649D01*
X23621631Y14680514D01*
X23622000Y14687328D01*
X23622000Y15221885D01*
X23617525Y15237124D01*
X23616135Y15238329D01*
X23608452Y15240000D01*
X22624115Y15240000D01*
X22608876Y15235525D01*
X22607671Y15234135D01*
X22606000Y15226452D01*
X22606000Y14242116D01*
X22098000Y14242116D01*
X22098000Y15766115D01*
X22606000Y15766115D01*
X22610475Y15750876D01*
X22611865Y15749671D01*
X22619548Y15748000D01*
X23603884Y15748000D01*
X23619123Y15752475D01*
X23620328Y15753865D01*
X23621999Y15761548D01*
X23621999Y15932600D01*
X27589306Y15932600D01*
X27608454Y15689298D01*
X27665428Y15451988D01*
X27667318Y15447425D01*
X27667320Y15447419D01*
X27754427Y15237124D01*
X27758823Y15226511D01*
X27886341Y15018421D01*
X28044841Y14832841D01*
X28230421Y14674341D01*
X28438511Y14546823D01*
X28443081Y14544930D01*
X28443085Y14544928D01*
X28659419Y14455320D01*
X28659425Y14455318D01*
X28663988Y14453428D01*
X28668788Y14452276D01*
X28668793Y14452274D01*
X28753486Y14431941D01*
X28901298Y14396454D01*
X29144600Y14377306D01*
X29387902Y14396454D01*
X29535714Y14431941D01*
X29620407Y14452274D01*
X29620412Y14452276D01*
X29625212Y14453428D01*
X29629775Y14455318D01*
X29629781Y14455320D01*
X29846115Y14544928D01*
X29846119Y14544930D01*
X29850689Y14546823D01*
X30058779Y14674341D01*
X30244359Y14832841D01*
X30402859Y15018421D01*
X30530377Y15226511D01*
X30534773Y15237124D01*
X30621880Y15447419D01*
X30621882Y15447425D01*
X30623772Y15451988D01*
X30680746Y15689298D01*
X30699894Y15932600D01*
X30680746Y16175902D01*
X30642551Y16334992D01*
X30624926Y16408407D01*
X30624924Y16408412D01*
X30623772Y16413212D01*
X30621882Y16417775D01*
X30621880Y16417781D01*
X30532272Y16634115D01*
X30532270Y16634119D01*
X30530377Y16638689D01*
X30402859Y16846779D01*
X30244359Y17032359D01*
X30058779Y17190859D01*
X29850689Y17318377D01*
X29846119Y17320270D01*
X29846115Y17320272D01*
X29629781Y17409880D01*
X29629775Y17409882D01*
X29625212Y17411772D01*
X29620412Y17412924D01*
X29620407Y17412926D01*
X29511898Y17438977D01*
X29387902Y17468746D01*
X29144600Y17487894D01*
X28901298Y17468746D01*
X28777302Y17438977D01*
X28668793Y17412926D01*
X28668788Y17412924D01*
X28663988Y17411772D01*
X28659425Y17409882D01*
X28659419Y17409880D01*
X28443085Y17320272D01*
X28443081Y17320270D01*
X28438511Y17318377D01*
X28230421Y17190859D01*
X28044841Y17032359D01*
X27886341Y16846779D01*
X27758823Y16638689D01*
X27756930Y16634119D01*
X27756928Y16634115D01*
X27667320Y16417781D01*
X27667318Y16417775D01*
X27665428Y16413212D01*
X27664276Y16408412D01*
X27664274Y16408407D01*
X27646649Y16334992D01*
X27608454Y16175902D01*
X27589306Y15932600D01*
X23621999Y15932600D01*
X23621999Y16300669D01*
X23621629Y16307490D01*
X23616105Y16358352D01*
X23612479Y16373604D01*
X23567324Y16494054D01*
X23558786Y16509649D01*
X23482285Y16611724D01*
X23469725Y16624284D01*
X23417835Y16663173D01*
X23375319Y16720032D01*
X23370293Y16790851D01*
X23404353Y16853144D01*
X23417835Y16864827D01*
X23469725Y16903716D01*
X23482285Y16916276D01*
X23558786Y17018351D01*
X23567324Y17033946D01*
X23612478Y17154394D01*
X23616105Y17169649D01*
X23621631Y17220514D01*
X23622000Y17227328D01*
X23622000Y17761885D01*
X23617525Y17777124D01*
X23616135Y17778329D01*
X23608452Y17780000D01*
X22624115Y17780000D01*
X22608876Y17775525D01*
X22607671Y17774135D01*
X22606000Y17766452D01*
X22606000Y15766115D01*
X22098000Y15766115D01*
X22098000Y18306115D01*
X22606000Y18306115D01*
X22610475Y18290876D01*
X22611865Y18289671D01*
X22619548Y18288000D01*
X23603884Y18288000D01*
X23619123Y18292475D01*
X23620328Y18293865D01*
X23621999Y18301548D01*
X23621999Y18840669D01*
X23621629Y18847490D01*
X23616105Y18898352D01*
X23612479Y18913604D01*
X23567324Y19034054D01*
X23558786Y19049649D01*
X23482285Y19151724D01*
X23469724Y19164285D01*
X23367649Y19240786D01*
X23352054Y19249324D01*
X23231606Y19294478D01*
X23216351Y19298105D01*
X23165486Y19303631D01*
X23158672Y19304000D01*
X22624115Y19304000D01*
X22608876Y19299525D01*
X22607671Y19298135D01*
X22606000Y19290452D01*
X22606000Y18306115D01*
X22098000Y18306115D01*
X22098000Y19285884D01*
X22093525Y19301123D01*
X22092135Y19302328D01*
X22084452Y19303999D01*
X21545331Y19303999D01*
X21538510Y19303629D01*
X21487648Y19298105D01*
X21472396Y19294479D01*
X21351946Y19249324D01*
X21336351Y19240786D01*
X21234276Y19164285D01*
X21221715Y19151724D01*
X21145214Y19049649D01*
X21136676Y19034054D01*
X21089369Y18907863D01*
X21046727Y18851099D01*
X20980166Y18826399D01*
X20910817Y18841606D01*
X20860699Y18891892D01*
X20856236Y18900944D01*
X20853163Y18907863D01*
X20825939Y18969153D01*
X20746713Y19048241D01*
X20736076Y19052944D01*
X20736074Y19052945D01*
X20676538Y19079265D01*
X20644327Y19093506D01*
X20618646Y19096500D01*
X19005354Y19096500D01*
X19001650Y19096059D01*
X19001647Y19096059D01*
X18994254Y19095179D01*
X18979154Y19093382D01*
X18876847Y19047939D01*
X18797759Y18968713D01*
X18752494Y18866327D01*
X18749500Y18840646D01*
X18749500Y17227354D01*
X18752618Y17201154D01*
X18756456Y17192514D01*
X18756456Y17192513D01*
X18766612Y17169649D01*
X18798061Y17098847D01*
X18877287Y17019759D01*
X18887924Y17015056D01*
X18887926Y17015055D01*
X18947462Y16988735D01*
X18979673Y16974494D01*
X19005354Y16971500D01*
X20618646Y16971500D01*
X20622350Y16971941D01*
X20622353Y16971941D01*
X20629746Y16972821D01*
X20644846Y16974618D01*
X20747153Y17020061D01*
X20826241Y17099287D01*
X20856131Y17166896D01*
X20901969Y17221112D01*
X20969842Y17241939D01*
X21038201Y17222765D01*
X21085341Y17169677D01*
X21089353Y17160178D01*
X21136676Y17033946D01*
X21145214Y17018351D01*
X21221715Y16916276D01*
X21234275Y16903716D01*
X21286165Y16864827D01*
X21328681Y16807968D01*
X21333707Y16737149D01*
X21299647Y16674856D01*
X21286165Y16663173D01*
X21234275Y16624284D01*
X21221715Y16611724D01*
X21145214Y16509649D01*
X21136676Y16494054D01*
X21089369Y16367863D01*
X21046727Y16311099D01*
X20980166Y16286399D01*
X20910817Y16301606D01*
X20860699Y16351892D01*
X20856236Y16360944D01*
X20853163Y16367863D01*
X20825939Y16429153D01*
X20746713Y16508241D01*
X20736076Y16512944D01*
X20736074Y16512945D01*
X20676538Y16539265D01*
X20644327Y16553506D01*
X20618646Y16556500D01*
X19005354Y16556500D01*
X19001650Y16556059D01*
X19001647Y16556059D01*
X18994254Y16555179D01*
X18979154Y16553382D01*
X18876847Y16507939D01*
X18797759Y16428713D01*
X18793056Y16418076D01*
X18793055Y16418074D01*
X18773396Y16373606D01*
X18752494Y16326327D01*
X18749500Y16300646D01*
X18749500Y14687354D01*
X18334500Y14687354D01*
X18334500Y16300646D01*
X18331382Y16326846D01*
X18317401Y16358323D01*
X18290663Y16418518D01*
X18290662Y16418520D01*
X18285939Y16429153D01*
X18206713Y16508241D01*
X18196076Y16512944D01*
X18196074Y16512945D01*
X18136538Y16539265D01*
X18104327Y16553506D01*
X18078646Y16556500D01*
X16465354Y16556500D01*
X16461650Y16556059D01*
X16461647Y16556059D01*
X16454254Y16555179D01*
X16439154Y16553382D01*
X16336847Y16507939D01*
X16257759Y16428713D01*
X16253056Y16418076D01*
X16253055Y16418074D01*
X16227869Y16361104D01*
X16182031Y16306888D01*
X16114158Y16286061D01*
X16045799Y16305235D01*
X15998659Y16358323D01*
X15994647Y16367822D01*
X15947324Y16494054D01*
X15938786Y16509649D01*
X15862285Y16611724D01*
X15849725Y16624284D01*
X15797835Y16663173D01*
X15755319Y16720032D01*
X15750293Y16790851D01*
X15784353Y16853144D01*
X15797835Y16864827D01*
X15849725Y16903716D01*
X15862285Y16916276D01*
X15938786Y17018351D01*
X15947324Y17033946D01*
X15994631Y17160137D01*
X16037273Y17216901D01*
X16103834Y17241601D01*
X16173183Y17226394D01*
X16223301Y17176108D01*
X16227761Y17167061D01*
X16258061Y17098847D01*
X16337287Y17019759D01*
X16347924Y17015056D01*
X16347926Y17015055D01*
X16407462Y16988735D01*
X16439673Y16974494D01*
X16465354Y16971500D01*
X18078646Y16971500D01*
X18082350Y16971941D01*
X18082353Y16971941D01*
X18089746Y16972821D01*
X18104846Y16974618D01*
X18207153Y17020061D01*
X18286241Y17099287D01*
X18331506Y17201673D01*
X18334500Y17227354D01*
X18334500Y18840646D01*
X18331382Y18866846D01*
X18317401Y18898323D01*
X18290663Y18958518D01*
X18290662Y18958520D01*
X18285939Y18969153D01*
X18206713Y19048241D01*
X18196076Y19052944D01*
X18196074Y19052945D01*
X18136538Y19079265D01*
X18104327Y19093506D01*
X18078646Y19096500D01*
X16465354Y19096500D01*
X16461650Y19096059D01*
X16461647Y19096059D01*
X16454254Y19095179D01*
X16439154Y19093382D01*
X16336847Y19047939D01*
X16257759Y18968713D01*
X16253056Y18958076D01*
X16253055Y18958074D01*
X16227869Y18901104D01*
X16182031Y18846888D01*
X16114158Y18826061D01*
X16045799Y18845235D01*
X15998659Y18898323D01*
X15994647Y18907822D01*
X15947324Y19034054D01*
X15938786Y19049649D01*
X15862285Y19151724D01*
X15849724Y19164285D01*
X15747649Y19240786D01*
X15732054Y19249324D01*
X15611606Y19294478D01*
X15596351Y19298105D01*
X15545486Y19303631D01*
X15538672Y19304000D01*
X15004115Y19304000D01*
X14988876Y19299525D01*
X14987671Y19298135D01*
X14986000Y19290452D01*
X14986000Y14242116D01*
X14478000Y14242116D01*
X14478000Y15221885D01*
X14473525Y15237124D01*
X14472135Y15238329D01*
X14464452Y15240000D01*
X13480116Y15240000D01*
X13464877Y15235525D01*
X13463672Y15234135D01*
X13462001Y15226452D01*
X13462001Y14687331D01*
X554000Y14687331D01*
X554000Y15766115D01*
X13462000Y15766115D01*
X13466475Y15750876D01*
X13467865Y15749671D01*
X13475548Y15748000D01*
X14459885Y15748000D01*
X14475124Y15752475D01*
X14476329Y15753865D01*
X14478000Y15761548D01*
X14478000Y17761885D01*
X14473525Y17777124D01*
X14472135Y17778329D01*
X14464452Y17780000D01*
X13480116Y17780000D01*
X13464877Y17775525D01*
X13463672Y17774135D01*
X13462001Y17766452D01*
X13462001Y17227331D01*
X13462371Y17220510D01*
X13467895Y17169648D01*
X13471521Y17154396D01*
X13516676Y17033946D01*
X13525214Y17018351D01*
X13601715Y16916276D01*
X13614275Y16903716D01*
X13666165Y16864827D01*
X13708681Y16807968D01*
X13713707Y16737149D01*
X13679647Y16674856D01*
X13666165Y16663173D01*
X13614275Y16624284D01*
X13601715Y16611724D01*
X13525214Y16509649D01*
X13516676Y16494054D01*
X13471522Y16373606D01*
X13467895Y16358351D01*
X13462369Y16307486D01*
X13462000Y16300672D01*
X13462000Y15766115D01*
X554000Y15766115D01*
X554000Y18306115D01*
X13462000Y18306115D01*
X13466475Y18290876D01*
X13467865Y18289671D01*
X13475548Y18288000D01*
X14459885Y18288000D01*
X14475124Y18292475D01*
X14476329Y18293865D01*
X14478000Y18301548D01*
X14478000Y19285884D01*
X14473525Y19301123D01*
X14472135Y19302328D01*
X14464452Y19303999D01*
X13925331Y19303999D01*
X13918510Y19303629D01*
X13867648Y19298105D01*
X13852396Y19294479D01*
X13731946Y19249324D01*
X13716351Y19240786D01*
X13614276Y19164285D01*
X13601715Y19151724D01*
X13525214Y19049649D01*
X13516676Y19034054D01*
X13471522Y18913606D01*
X13467895Y18898351D01*
X13462369Y18847486D01*
X13462000Y18840672D01*
X13462000Y18306115D01*
X554000Y18306115D01*
X554000Y19640000D01*
X574002Y19708121D01*
X627658Y19754614D01*
X680000Y19766000D01*
X39960000Y19766000D01*
X40028121Y19745998D01*
G37*
%TD.AperFunction*%
%TD*%
M02*
