M48
; DRILL file {KiCad 6.0.4-6f826c9f35~116~ubuntu20.04.1} date Wed Jul  5 12:09:41 2023
; FORMAT={-:-/ absolute / metric / decimal}
; #@! TF.CreationDate,2023-07-05T12:09:41+00:00
; #@! TF.GenerationSoftware,Kicad,Pcbnew,6.0.4-6f826c9f35~116~ubuntu20.04.1
; #@! TF.FileFunction,Plated,1,2,PTH
FMAT,2
METRIC
; #@! TA.AperFunction,Plated,PTH,ViaDrill
T1C0.400
; #@! TA.AperFunction,Plated,PTH,ComponentDrill
T2C0.740
; #@! TA.AperFunction,Plated,PTH,ComponentDrill
T3C0.889
; #@! TA.AperFunction,Plated,PTH,ComponentDrill
T4C1.350
; #@! TA.AperFunction,Plated,PTH,ComponentDrill
T5C3.000
%
G90
G05
T1
X15.621Y13.081
X15.621Y12.065
X15.621Y11.049
X20.32Y3.556
X21.463Y3.556
X22.225Y13.208
X22.225Y12.192
X22.225Y11.176
X22.479Y3.556
T2
X26.645Y13.183
X26.645Y9.373
X26.645Y5.563
X28.145Y11.913
X28.145Y10.643
X28.145Y8.103
X28.145Y6.833
T3
X10.922Y8.128
X10.922Y5.588
X10.922Y3.048
X13.462Y8.128
X13.462Y5.588
X13.462Y3.048
X14.732Y18.034
X14.732Y15.494
X17.272Y18.034
X17.272Y15.494
X19.812Y18.034
X19.812Y15.494
X22.352Y18.034
X22.352Y15.494
T4
X28.145Y3.103
X29.145Y15.933
T5
X5.08Y15.24
X5.08Y5.08
X35.56Y15.24
X35.56Y5.08
T0
M30
