%TF.GenerationSoftware,KiCad,Pcbnew,6.0.4-6f826c9f35~116~ubuntu20.04.1*%
%TF.CreationDate,2022-04-04T17:49:38+00:00*%
%TF.ProjectId,TTLLVDS01A,54544c4c-5644-4533-9031-412e6b696361,rev?*%
%TF.SameCoordinates,Original*%
%TF.FileFunction,Copper,L2,Bot*%
%TF.FilePolarity,Positive*%
%FSLAX46Y46*%
G04 Gerber Fmt 4.6, Leading zero omitted, Abs format (unit mm)*
G04 Created by KiCad (PCBNEW 6.0.4-6f826c9f35~116~ubuntu20.04.1) date 2022-04-04 17:49:38*
%MOMM*%
%LPD*%
G01*
G04 APERTURE LIST*
%ADD10C,0.200000*%
%TA.AperFunction,NonConductor*%
%ADD11C,0.200000*%
%TD*%
%TA.AperFunction,ComponentPad*%
%ADD12O,1.300000X1.100000*%
%TD*%
%TA.AperFunction,ComponentPad*%
%ADD13C,2.500000*%
%TD*%
%TA.AperFunction,ComponentPad*%
%ADD14R,1.524000X1.524000*%
%TD*%
%TA.AperFunction,ComponentPad*%
%ADD15C,6.000000*%
%TD*%
%TA.AperFunction,SMDPad,CuDef*%
%ADD16R,1.550000X0.600000*%
%TD*%
%TA.AperFunction,SMDPad,CuDef*%
%ADD17R,1.397000X0.889000*%
%TD*%
%TA.AperFunction,SMDPad,CuDef*%
%ADD18R,1.300000X1.700000*%
%TD*%
%TA.AperFunction,ViaPad*%
%ADD19C,0.800000*%
%TD*%
%TA.AperFunction,Conductor*%
%ADD20C,1.000000*%
%TD*%
%TA.AperFunction,Conductor*%
%ADD21C,0.500000*%
%TD*%
%TA.AperFunction,Conductor*%
%ADD22C,0.300000*%
%TD*%
%TA.AperFunction,Conductor*%
%ADD23C,0.400000*%
%TD*%
G04 APERTURE END LIST*
D10*
D11*
X8190238Y9698905D02*
X8190238Y10998905D01*
X7756904Y10070334D01*
X7323571Y10998905D01*
X7323571Y9698905D01*
X6085476Y9698905D02*
X6704523Y9698905D01*
X6704523Y10998905D01*
X5714047Y10070334D02*
X5095000Y10070334D01*
X5837857Y9698905D02*
X5404523Y10998905D01*
X4971190Y9698905D01*
X4104523Y10379858D02*
X3918809Y10317953D01*
X3856904Y10256048D01*
X3795000Y10132239D01*
X3795000Y9946524D01*
X3856904Y9822715D01*
X3918809Y9760810D01*
X4042619Y9698905D01*
X4537857Y9698905D01*
X4537857Y10998905D01*
X4104523Y10998905D01*
X3980714Y10937000D01*
X3918809Y10875096D01*
X3856904Y10751286D01*
X3856904Y10627477D01*
X3918809Y10503667D01*
X3980714Y10441762D01*
X4104523Y10379858D01*
X4537857Y10379858D01*
X3237857Y9822715D02*
X3175952Y9760810D01*
X3237857Y9698905D01*
X3299761Y9760810D01*
X3237857Y9822715D01*
X3237857Y9698905D01*
X1875952Y9822715D02*
X1937857Y9760810D01*
X2123571Y9698905D01*
X2247380Y9698905D01*
X2433095Y9760810D01*
X2556904Y9884620D01*
X2618809Y10008429D01*
X2680714Y10256048D01*
X2680714Y10441762D01*
X2618809Y10689381D01*
X2556904Y10813191D01*
X2433095Y10937000D01*
X2247380Y10998905D01*
X2123571Y10998905D01*
X1937857Y10937000D01*
X1875952Y10875096D01*
X1442619Y10998905D02*
X575952Y10998905D01*
X1442619Y9698905D01*
X575952Y9698905D01*
D12*
%TO.P,J6,1*%
%TO.N,GND*%
X26644600Y5562600D03*
%TO.P,J6,2*%
%TO.N,/1+*%
X28144600Y6832600D03*
%TO.P,J6,3*%
%TO.N,/1-*%
X28144600Y8102600D03*
%TO.P,J6,4*%
%TO.N,GND*%
X26644600Y9372600D03*
%TO.P,J6,5*%
%TO.N,/2+*%
X28144600Y10642600D03*
%TO.P,J6,6*%
%TO.N,/2-*%
X28144600Y11912600D03*
%TO.P,J6,7*%
%TO.N,GND*%
X26644600Y13182600D03*
D13*
%TO.P,J6,8*%
%TO.N,N/C*%
X29144600Y15932600D03*
%TO.P,J6,9*%
X28144600Y3102600D03*
%TD*%
D14*
%TO.P,J1,1*%
%TO.N,GND*%
X10922000Y8128000D03*
%TO.P,J1,2*%
X13462000Y8128000D03*
%TO.P,J1,3*%
%TO.N,VCC*%
X10922000Y5588000D03*
%TO.P,J1,4*%
X13462000Y5588000D03*
%TO.P,J1,5*%
%TO.N,GND*%
X10922000Y3048000D03*
%TO.P,J1,6*%
X13462000Y3048000D03*
%TD*%
%TO.P,J2,1*%
%TO.N,/1A*%
X19812000Y15494000D03*
%TO.P,J2,2*%
X19812000Y18034000D03*
%TD*%
%TO.P,J3,1*%
%TO.N,GND*%
X14732000Y18034000D03*
%TO.P,J3,2*%
X14732000Y15494000D03*
%TD*%
%TO.P,J4,1*%
%TO.N,/2A*%
X17272000Y18034000D03*
%TO.P,J4,2*%
X17272000Y15494000D03*
%TD*%
%TO.P,J5,1*%
%TO.N,GND*%
X22352000Y18034000D03*
%TO.P,J5,2*%
X22352000Y15494000D03*
%TD*%
D15*
%TO.P,M1,1*%
%TO.N,GND*%
X35560000Y15240000D03*
%TD*%
%TO.P,M2,1*%
%TO.N,GND*%
X5080000Y5080000D03*
%TD*%
%TO.P,M3,1*%
%TO.N,GND*%
X5080000Y15240000D03*
%TD*%
%TO.P,M4,1*%
%TO.N,GND*%
X35560000Y5080000D03*
%TD*%
D16*
%TO.P,U1,1*%
%TO.N,VCC*%
X16096000Y5207000D03*
%TO.P,U1,2*%
%TO.N,Net-(R1-Pad1)*%
X16096000Y6477000D03*
%TO.P,U1,3*%
%TO.N,Net-(R2-Pad1)*%
X16096000Y7747000D03*
%TO.P,U1,4*%
%TO.N,GND*%
X16096000Y9017000D03*
%TO.P,U1,5*%
%TO.N,/2-*%
X21496000Y9017000D03*
%TO.P,U1,6*%
%TO.N,/2+*%
X21496000Y7747000D03*
%TO.P,U1,7*%
%TO.N,/1-*%
X21496000Y6477000D03*
%TO.P,U1,8*%
%TO.N,/1+*%
X21496000Y5207000D03*
%TD*%
D17*
%TO.P,C2,1*%
%TO.N,VCC*%
X16764000Y3429000D03*
%TO.P,C2,2*%
%TO.N,GND*%
X16764000Y1524000D03*
%TD*%
D18*
%TO.P,D1,1*%
%TO.N,VCC*%
X9708000Y11684000D03*
%TO.P,D1,2*%
%TO.N,GND*%
X13208000Y11684000D03*
%TD*%
D17*
%TO.P,R1,1*%
%TO.N,Net-(R1-Pad1)*%
X20066000Y10795000D03*
%TO.P,R1,2*%
%TO.N,/1A*%
X20066000Y12700000D03*
%TD*%
%TO.P,R2,1*%
%TO.N,Net-(R2-Pad1)*%
X17780000Y10795000D03*
%TO.P,R2,2*%
%TO.N,/2A*%
X17780000Y12700000D03*
%TD*%
%TO.P,R3,1*%
%TO.N,/1+*%
X24066500Y4889500D03*
%TO.P,R3,2*%
%TO.N,/1-*%
X24066500Y6794500D03*
%TD*%
%TO.P,R4,1*%
%TO.N,/2+*%
X24066500Y8445500D03*
%TO.P,R4,2*%
%TO.N,/2-*%
X24066500Y10350500D03*
%TD*%
D19*
%TO.N,GND*%
X22225000Y11176000D03*
X20320000Y3556000D03*
X15621000Y12065000D03*
X15621000Y11049000D03*
X22225000Y13208000D03*
X21463000Y3556000D03*
X15621000Y13081000D03*
X22225000Y12192000D03*
X22479000Y3556000D03*
%TD*%
D20*
%TO.N,VCC*%
X10160000Y5588000D02*
X9459999Y6288001D01*
D21*
X13843000Y5207000D02*
X13462000Y5588000D01*
X16096000Y5207000D02*
X13843000Y5207000D01*
X16096000Y4097000D02*
X16764000Y3429000D01*
D20*
X13462000Y5588000D02*
X10922000Y5588000D01*
X9708000Y9590001D02*
X9459999Y9342000D01*
X9459999Y9342000D02*
X9459999Y6288001D01*
D21*
X16096000Y5207000D02*
X16096000Y4097000D01*
D20*
X10922000Y5588000D02*
X10160000Y5588000D01*
X9708000Y11684000D02*
X9708000Y9590001D01*
D21*
%TO.N,/1A*%
X19812000Y15494000D02*
X19812000Y12954000D01*
D22*
X19812000Y18034000D02*
X19812000Y15494000D01*
D21*
X19812000Y12954000D02*
X20066000Y12700000D01*
%TO.N,/2A*%
X17272000Y13208000D02*
X17780000Y12700000D01*
X17272000Y15494000D02*
X17272000Y13208000D01*
D22*
X17272000Y18034000D02*
X17272000Y15494000D01*
D21*
%TO.N,Net-(R1-Pad1)*%
X19812000Y9850500D02*
X19812000Y10795000D01*
X16096000Y6477000D02*
X17371000Y6477000D01*
X17371000Y6477000D02*
X19812000Y8918000D01*
X19812000Y8918000D02*
X19812000Y9850500D01*
%TO.N,Net-(R2-Pad1)*%
X16096000Y7747000D02*
X17371000Y7747000D01*
X17780000Y8156000D02*
X17780000Y9850500D01*
X17371000Y7747000D02*
X17780000Y8156000D01*
X17780000Y9850500D02*
X17780000Y10795000D01*
D23*
%TO.N,/1-*%
X21971000Y6477000D02*
X22281000Y6167000D01*
X24066500Y6794500D02*
X25052261Y6794500D01*
X26050361Y7792600D02*
X27184600Y7792600D01*
X27494600Y8102600D02*
X28144600Y8102600D01*
X23018749Y6794500D02*
X24066500Y6794500D01*
X22281000Y6167000D02*
X22391249Y6167000D01*
X22391249Y6167000D02*
X23018749Y6794500D01*
X25052261Y6794500D02*
X26050361Y7792600D01*
X27184600Y7792600D02*
X27494600Y8102600D01*
X21496000Y6477000D02*
X21971000Y6477000D01*
%TO.N,/1+*%
X22391249Y5517000D02*
X23018749Y4889500D01*
X21496000Y5207000D02*
X21971000Y5207000D01*
X27494600Y6832600D02*
X28144600Y6832600D01*
X21971000Y5207000D02*
X22281000Y5517000D01*
X24066500Y4889500D02*
X26319600Y7142600D01*
X26319600Y7142600D02*
X27184600Y7142600D01*
X27184600Y7142600D02*
X27494600Y6832600D01*
X22281000Y5517000D02*
X22391249Y5517000D01*
X23018749Y4889500D02*
X24066500Y4889500D01*
%TO.N,/2-*%
X22281000Y8707000D02*
X22423000Y8707000D01*
X26614361Y11912600D02*
X27524600Y11912600D01*
X24066500Y10350500D02*
X25052261Y10350500D01*
X22423000Y8707000D02*
X22621119Y8905119D01*
X21971000Y9017000D02*
X22281000Y8707000D01*
X25052261Y10350500D02*
X26614361Y11912600D01*
X27524600Y11912600D02*
X28144600Y11912600D01*
X22621119Y8905119D02*
X24066500Y10350500D01*
X21496000Y9017000D02*
X21971000Y9017000D01*
%TO.N,/2+*%
X26883600Y11262600D02*
X27351083Y11262600D01*
X27824610Y10962590D02*
X28144600Y10642600D01*
X24066500Y8445500D02*
X26883600Y11262600D01*
X21496000Y7747000D02*
X21971000Y7747000D01*
X23080739Y8445500D02*
X24066500Y8445500D01*
X21971000Y7747000D02*
X22281000Y8057000D01*
X22281000Y8057000D02*
X22692239Y8057000D01*
X27351083Y11262600D02*
X27651093Y10962590D01*
X27651093Y10962590D02*
X27824610Y10962590D01*
X22692239Y8057000D02*
X23080739Y8445500D01*
%TD*%
%TA.AperFunction,Conductor*%
%TO.N,GND*%
G36*
X40027621Y19745498D02*
G01*
X40074114Y19691842D01*
X40085500Y19639500D01*
X40085500Y680500D01*
X40065498Y612379D01*
X40011842Y565886D01*
X39959500Y554500D01*
X680500Y554500D01*
X612379Y574502D01*
X565886Y628158D01*
X554500Y680500D01*
X554500Y2241331D01*
X9652001Y2241331D01*
X9652371Y2234510D01*
X9657895Y2183648D01*
X9661521Y2168396D01*
X9706676Y2047946D01*
X9715214Y2032351D01*
X9791715Y1930276D01*
X9804276Y1917715D01*
X9906351Y1841214D01*
X9921946Y1832676D01*
X10042394Y1787522D01*
X10057649Y1783895D01*
X10108514Y1778369D01*
X10115328Y1778000D01*
X10649885Y1778000D01*
X10665124Y1782475D01*
X10666329Y1783865D01*
X10668000Y1791548D01*
X10668000Y1796116D01*
X11176000Y1796116D01*
X11180475Y1780877D01*
X11181865Y1779672D01*
X11189548Y1778001D01*
X11728669Y1778001D01*
X11735490Y1778371D01*
X11786352Y1783895D01*
X11801604Y1787521D01*
X11922054Y1832676D01*
X11937649Y1841214D01*
X12039724Y1917715D01*
X12052284Y1930275D01*
X12091173Y1982165D01*
X12148032Y2024681D01*
X12218851Y2029707D01*
X12281144Y1995647D01*
X12292827Y1982165D01*
X12331716Y1930275D01*
X12344276Y1917715D01*
X12446351Y1841214D01*
X12461946Y1832676D01*
X12582394Y1787522D01*
X12597649Y1783895D01*
X12648514Y1778369D01*
X12655328Y1778000D01*
X13189885Y1778000D01*
X13205124Y1782475D01*
X13206329Y1783865D01*
X13208000Y1791548D01*
X13208000Y1796116D01*
X13716000Y1796116D01*
X13720475Y1780877D01*
X13721865Y1779672D01*
X13729548Y1778001D01*
X14268669Y1778001D01*
X14275490Y1778371D01*
X14326352Y1783895D01*
X14341604Y1787521D01*
X14462054Y1832676D01*
X14477649Y1841214D01*
X14579724Y1917715D01*
X14592285Y1930276D01*
X14668786Y2032351D01*
X14677324Y2047946D01*
X14722478Y2168394D01*
X14726105Y2183649D01*
X14731631Y2234514D01*
X14732000Y2241328D01*
X14732000Y2775885D01*
X14727525Y2791124D01*
X14726135Y2792329D01*
X14718452Y2794000D01*
X13734115Y2794000D01*
X13718876Y2789525D01*
X13717671Y2788135D01*
X13716000Y2780452D01*
X13716000Y1796116D01*
X13208000Y1796116D01*
X13208000Y2775885D01*
X13203525Y2791124D01*
X13202135Y2792329D01*
X13194452Y2794000D01*
X11194115Y2794000D01*
X11178876Y2789525D01*
X11177671Y2788135D01*
X11176000Y2780452D01*
X11176000Y1796116D01*
X10668000Y1796116D01*
X10668000Y2775885D01*
X10663525Y2791124D01*
X10662135Y2792329D01*
X10654452Y2794000D01*
X9670116Y2794000D01*
X9654877Y2789525D01*
X9653672Y2788135D01*
X9652001Y2780452D01*
X9652001Y2241331D01*
X554500Y2241331D01*
X554500Y8664000D01*
X574502Y8732121D01*
X628158Y8778614D01*
X680500Y8790000D01*
X8533499Y8790000D01*
X8601620Y8769998D01*
X8648113Y8716342D01*
X8659499Y8664000D01*
X8659499Y6297084D01*
X8659492Y6295764D01*
X8658558Y6206594D01*
X8667614Y6164709D01*
X8669675Y6152127D01*
X8673215Y6120569D01*
X8674453Y6109529D01*
X8685349Y6078242D01*
X8689510Y6063437D01*
X8694678Y6039534D01*
X8696510Y6031059D01*
X8714629Y5992202D01*
X8719413Y5980419D01*
X8733514Y5939928D01*
X8742372Y5925752D01*
X8751069Y5911834D01*
X8758410Y5898314D01*
X8768582Y5876500D01*
X8772408Y5868294D01*
X8776727Y5862727D01*
X8776727Y5862726D01*
X8798673Y5834434D01*
X8805968Y5823977D01*
X8824949Y5793601D01*
X8828683Y5787626D01*
X8833645Y5782629D01*
X8833646Y5782628D01*
X8857002Y5759108D01*
X8857584Y5758486D01*
X8858098Y5757824D01*
X8883958Y5731964D01*
X8955229Y5660194D01*
X8956256Y5659542D01*
X8957464Y5658458D01*
X9587481Y5028441D01*
X9588410Y5027503D01*
X9650859Y4963732D01*
X9656779Y4959917D01*
X9656785Y4959912D01*
X9686891Y4940510D01*
X9697245Y4933070D01*
X9730734Y4906336D01*
X9760510Y4891942D01*
X9760559Y4891918D01*
X9773975Y4884389D01*
X9801817Y4866446D01*
X9800335Y4864146D01*
X9843326Y4824394D01*
X9860301Y4774622D01*
X9862618Y4755154D01*
X9866456Y4746514D01*
X9866456Y4746513D01*
X9891803Y4689449D01*
X9908061Y4652847D01*
X9916294Y4644628D01*
X9916295Y4644627D01*
X9941448Y4619518D01*
X9987287Y4573759D01*
X9997924Y4569056D01*
X9997926Y4569055D01*
X10054896Y4543869D01*
X10109112Y4498031D01*
X10129939Y4430158D01*
X10110765Y4361799D01*
X10057677Y4314659D01*
X10048178Y4310647D01*
X9921946Y4263324D01*
X9906351Y4254786D01*
X9804276Y4178285D01*
X9791715Y4165724D01*
X9715214Y4063649D01*
X9706676Y4048054D01*
X9661522Y3927606D01*
X9657895Y3912351D01*
X9652369Y3861486D01*
X9652000Y3854672D01*
X9652000Y3320115D01*
X9656475Y3304876D01*
X9657865Y3303671D01*
X9665548Y3302000D01*
X14713884Y3302000D01*
X14729123Y3306475D01*
X14730328Y3307865D01*
X14731999Y3315548D01*
X14731999Y3854669D01*
X14731629Y3861490D01*
X14726105Y3912352D01*
X14722479Y3927604D01*
X14677324Y4048054D01*
X14668786Y4063649D01*
X14592285Y4165724D01*
X14579724Y4178285D01*
X14477649Y4254786D01*
X14462054Y4263324D01*
X14335863Y4310631D01*
X14279099Y4353273D01*
X14254399Y4419834D01*
X14269606Y4489183D01*
X14319892Y4539301D01*
X14328939Y4543761D01*
X14397153Y4574061D01*
X14406664Y4583588D01*
X14442531Y4619518D01*
X14504814Y4653597D01*
X14531704Y4656500D01*
X15117739Y4656500D01*
X15168687Y4645740D01*
X15242007Y4613325D01*
X15242008Y4613325D01*
X15250673Y4609494D01*
X15276354Y4606500D01*
X15419500Y4606500D01*
X15487621Y4586498D01*
X15534114Y4532842D01*
X15545500Y4480500D01*
X15545500Y4111993D01*
X15545389Y4106717D01*
X15542790Y4044706D01*
X15544752Y4036341D01*
X15552727Y4002338D01*
X15554890Y3990667D01*
X15560794Y3947568D01*
X15564206Y3939684D01*
X15564206Y3939683D01*
X15566765Y3933770D01*
X15573799Y3912501D01*
X15577232Y3897864D01*
X15581369Y3890339D01*
X15581370Y3890336D01*
X15598195Y3859732D01*
X15603411Y3849087D01*
X15620695Y3809145D01*
X15630158Y3797459D01*
X15642645Y3778875D01*
X15649893Y3765692D01*
X15656897Y3757578D01*
X15681433Y3733042D01*
X15690258Y3723241D01*
X15710206Y3698607D01*
X15710210Y3698603D01*
X15715614Y3691930D01*
X15722613Y3686956D01*
X15725254Y3684476D01*
X15761219Y3623263D01*
X15765000Y3592627D01*
X15765000Y2939854D01*
X15768118Y2913654D01*
X15813561Y2811347D01*
X15821794Y2803128D01*
X15821795Y2803127D01*
X15844510Y2780452D01*
X15892787Y2732259D01*
X15903424Y2727556D01*
X15903426Y2727555D01*
X15962962Y2701235D01*
X15995173Y2686994D01*
X16020854Y2684000D01*
X17507146Y2684000D01*
X17510850Y2684441D01*
X17510853Y2684441D01*
X17518246Y2685321D01*
X17533346Y2687118D01*
X17635653Y2732561D01*
X17714741Y2811787D01*
X17760006Y2914173D01*
X17763000Y2939854D01*
X17763000Y3102600D01*
X26589306Y3102600D01*
X26608454Y2859298D01*
X26625205Y2789525D01*
X26650085Y2685897D01*
X26665428Y2621988D01*
X26667318Y2617425D01*
X26667320Y2617419D01*
X26756928Y2401085D01*
X26758823Y2396511D01*
X26886341Y2188421D01*
X27044841Y2002841D01*
X27230421Y1844341D01*
X27438511Y1716823D01*
X27443081Y1714930D01*
X27443085Y1714928D01*
X27659419Y1625320D01*
X27659425Y1625318D01*
X27663988Y1623428D01*
X27668788Y1622276D01*
X27668793Y1622274D01*
X27777302Y1596223D01*
X27901298Y1566454D01*
X28144600Y1547306D01*
X28387902Y1566454D01*
X28511898Y1596223D01*
X28620407Y1622274D01*
X28620412Y1622276D01*
X28625212Y1623428D01*
X28629775Y1625318D01*
X28629781Y1625320D01*
X28846115Y1714928D01*
X28846119Y1714930D01*
X28850689Y1716823D01*
X29058779Y1844341D01*
X29244359Y2002841D01*
X29402859Y2188421D01*
X29530377Y2396511D01*
X29532272Y2401085D01*
X29621880Y2617419D01*
X29621882Y2617425D01*
X29623772Y2621988D01*
X29639116Y2685897D01*
X29663995Y2789525D01*
X29680746Y2859298D01*
X29699894Y3102600D01*
X29680746Y3345902D01*
X29623772Y3583212D01*
X29621882Y3587775D01*
X29621880Y3587781D01*
X29532272Y3804115D01*
X29532270Y3804119D01*
X29530377Y3808689D01*
X29402859Y4016779D01*
X29244359Y4202359D01*
X29058779Y4360859D01*
X28850689Y4488377D01*
X28846119Y4490270D01*
X28846115Y4490272D01*
X28629781Y4579880D01*
X28629775Y4579882D01*
X28625212Y4581772D01*
X28620412Y4582924D01*
X28620407Y4582926D01*
X28493786Y4613325D01*
X28387902Y4638746D01*
X28144600Y4657894D01*
X27901298Y4638746D01*
X27795414Y4613325D01*
X27668793Y4582926D01*
X27668788Y4582924D01*
X27663988Y4581772D01*
X27546842Y4533249D01*
X27476253Y4525660D01*
X27412766Y4557439D01*
X27376539Y4618497D01*
X27379073Y4689449D01*
X27418989Y4747301D01*
X27488935Y4804347D01*
X27497639Y4812991D01*
X27622038Y4963363D01*
X27628897Y4973531D01*
X27721721Y5145207D01*
X27726471Y5156507D01*
X27768195Y5291293D01*
X27768401Y5305395D01*
X27761645Y5308600D01*
X26916715Y5308600D01*
X26901476Y5304125D01*
X26900271Y5302735D01*
X26898600Y5295052D01*
X26898600Y4532696D01*
X26902836Y4518269D01*
X26915189Y4516208D01*
X26944961Y4519127D01*
X26956996Y4521510D01*
X27095998Y4563477D01*
X27166993Y4564018D01*
X27227009Y4526090D01*
X27256993Y4461736D01*
X27247425Y4391387D01*
X27214247Y4347045D01*
X27044841Y4202359D01*
X26886341Y4016779D01*
X26758823Y3808689D01*
X26756930Y3804119D01*
X26756928Y3804115D01*
X26667320Y3587781D01*
X26667318Y3587775D01*
X26665428Y3583212D01*
X26608454Y3345902D01*
X26589306Y3102600D01*
X17763000Y3102600D01*
X17763000Y3918146D01*
X17759882Y3944346D01*
X17714439Y4046653D01*
X17697414Y4063649D01*
X17654270Y4106717D01*
X17635213Y4125741D01*
X17624576Y4130444D01*
X17624574Y4130445D01*
X17541492Y4167175D01*
X17541493Y4167175D01*
X17532827Y4171006D01*
X17507146Y4174000D01*
X16849714Y4174000D01*
X16781593Y4194002D01*
X16760619Y4210905D01*
X16683405Y4288119D01*
X16649379Y4350431D01*
X16646500Y4377214D01*
X16646500Y4480500D01*
X16666502Y4548621D01*
X16720158Y4595114D01*
X16772500Y4606500D01*
X16915646Y4606500D01*
X16919350Y4606941D01*
X16919353Y4606941D01*
X16926746Y4607821D01*
X16941846Y4609618D01*
X16964135Y4619518D01*
X17033518Y4650337D01*
X17044153Y4655061D01*
X17052558Y4663480D01*
X17101440Y4712448D01*
X17123241Y4734287D01*
X17128647Y4746513D01*
X17158842Y4814814D01*
X17168506Y4836673D01*
X17171500Y4862354D01*
X17171500Y5551646D01*
X17168382Y5577846D01*
X17162690Y5590662D01*
X17127663Y5669518D01*
X17122939Y5680153D01*
X17091711Y5711327D01*
X17057632Y5773610D01*
X17062635Y5844430D01*
X17105133Y5901303D01*
X17171632Y5926171D01*
X17180729Y5926500D01*
X17356007Y5926500D01*
X17361284Y5926389D01*
X17423294Y5923790D01*
X17434848Y5926500D01*
X17465662Y5933727D01*
X17477333Y5935890D01*
X17492229Y5937931D01*
X17520432Y5941794D01*
X17534230Y5947765D01*
X17555499Y5954799D01*
X17561775Y5956271D01*
X17570136Y5958232D01*
X17577661Y5962369D01*
X17577664Y5962370D01*
X17608268Y5979195D01*
X17618913Y5984411D01*
X17658855Y6001695D01*
X17670541Y6011158D01*
X17689126Y6023646D01*
X17702308Y6030893D01*
X17710422Y6037897D01*
X17734958Y6062433D01*
X17744759Y6071258D01*
X17769392Y6091206D01*
X17769393Y6091207D01*
X17776070Y6096614D01*
X17781043Y6103612D01*
X17781048Y6103617D01*
X17786968Y6111948D01*
X17800579Y6128054D01*
X20190642Y8518118D01*
X20194451Y8521771D01*
X20233833Y8557985D01*
X20240156Y8563799D01*
X20244681Y8571098D01*
X20250160Y8577720D01*
X20251931Y8576255D01*
X20295725Y8615458D01*
X20365827Y8626695D01*
X20430875Y8598248D01*
X20457004Y8563552D01*
X20457751Y8564065D01*
X20464337Y8554481D01*
X20469061Y8543847D01*
X20477294Y8535628D01*
X20477295Y8535627D01*
X20541803Y8471231D01*
X20575882Y8408948D01*
X20570879Y8338128D01*
X20541958Y8293040D01*
X20525375Y8276428D01*
X20468759Y8219713D01*
X20464056Y8209076D01*
X20464055Y8209074D01*
X20453373Y8184912D01*
X20423494Y8117327D01*
X20420500Y8091646D01*
X20420500Y7402354D01*
X20423618Y7376154D01*
X20427456Y7367514D01*
X20427456Y7367513D01*
X20463741Y7285824D01*
X20469061Y7273847D01*
X20477294Y7265628D01*
X20477295Y7265627D01*
X20541803Y7201231D01*
X20575882Y7138948D01*
X20570879Y7068128D01*
X20541958Y7023040D01*
X20516677Y6997715D01*
X20468759Y6949713D01*
X20464056Y6939076D01*
X20464055Y6939074D01*
X20452385Y6912676D01*
X20423494Y6847327D01*
X20420500Y6821646D01*
X20420500Y6132354D01*
X20423618Y6106154D01*
X20427456Y6097514D01*
X20427456Y6097513D01*
X20454608Y6036386D01*
X20469061Y6003847D01*
X20477294Y5995628D01*
X20477295Y5995627D01*
X20541803Y5931231D01*
X20575882Y5868948D01*
X20570879Y5798128D01*
X20541958Y5753040D01*
X20520919Y5731964D01*
X20468759Y5679713D01*
X20464056Y5669076D01*
X20464055Y5669074D01*
X20447392Y5631382D01*
X20423494Y5577327D01*
X20420500Y5551646D01*
X20420500Y4862354D01*
X20423618Y4836154D01*
X20427456Y4827514D01*
X20427456Y4827513D01*
X20437746Y4804347D01*
X20469061Y4733847D01*
X20548287Y4654759D01*
X20558924Y4650056D01*
X20558926Y4650055D01*
X20615561Y4625017D01*
X20650673Y4609494D01*
X20676354Y4606500D01*
X22315646Y4606500D01*
X22319350Y4606941D01*
X22319353Y4606941D01*
X22326746Y4607821D01*
X22341846Y4609618D01*
X22364135Y4619518D01*
X22435175Y4651073D01*
X22505550Y4660446D01*
X22569821Y4630284D01*
X22575418Y4625017D01*
X22615215Y4585220D01*
X22622681Y4575876D01*
X22623071Y4576208D01*
X22628889Y4569372D01*
X22633679Y4561780D01*
X22640407Y4555838D01*
X22640408Y4555837D01*
X22673349Y4526745D01*
X22679037Y4521398D01*
X22690255Y4510180D01*
X22693843Y4507491D01*
X22693844Y4507490D01*
X22698433Y4504050D01*
X22706272Y4497668D01*
X22725712Y4480500D01*
X22741137Y4466877D01*
X22749260Y4463063D01*
X22752413Y4460992D01*
X22765425Y4453173D01*
X22768744Y4451356D01*
X22775925Y4445974D01*
X22784326Y4442825D01*
X22784327Y4442824D01*
X22819485Y4429644D01*
X22828802Y4425717D01*
X22862783Y4409763D01*
X22862786Y4409762D01*
X22870912Y4405947D01*
X22879786Y4404565D01*
X22883399Y4403461D01*
X22898056Y4399615D01*
X22901759Y4398801D01*
X22910169Y4395648D01*
X22956592Y4392198D01*
X22966605Y4391048D01*
X22979758Y4389000D01*
X22984624Y4389000D01*
X22989481Y4388624D01*
X22989346Y4386879D01*
X23050242Y4368998D01*
X23097271Y4314149D01*
X23116061Y4271847D01*
X23195287Y4192759D01*
X23205924Y4188056D01*
X23205926Y4188055D01*
X23253156Y4167175D01*
X23297673Y4147494D01*
X23323354Y4144500D01*
X24809646Y4144500D01*
X24813350Y4144941D01*
X24813353Y4144941D01*
X24820746Y4145821D01*
X24835846Y4147618D01*
X24879876Y4167175D01*
X24927518Y4188337D01*
X24938153Y4193061D01*
X24950643Y4205572D01*
X24999770Y4254786D01*
X25017241Y4272287D01*
X25024241Y4288119D01*
X25058675Y4366008D01*
X25062506Y4374673D01*
X25065500Y4400354D01*
X25065500Y5128496D01*
X25085502Y5196617D01*
X25102405Y5217591D01*
X25292931Y5408117D01*
X25355243Y5442143D01*
X25426058Y5437078D01*
X25482894Y5394531D01*
X25502900Y5354597D01*
X25557154Y5170258D01*
X25561747Y5158890D01*
X25652166Y4985934D01*
X25658882Y4975672D01*
X25781168Y4823580D01*
X25789752Y4814814D01*
X25939256Y4689364D01*
X25949367Y4682440D01*
X26120398Y4588416D01*
X26131662Y4583588D01*
X26317695Y4524575D01*
X26329683Y4522027D01*
X26372596Y4517213D01*
X26387127Y4519766D01*
X26390600Y4532313D01*
X26390600Y5690600D01*
X26410602Y5758721D01*
X26464258Y5805214D01*
X26516600Y5816600D01*
X27754647Y5816600D01*
X27768178Y5820573D01*
X27769298Y5828368D01*
X27768490Y5831115D01*
X27768445Y5902112D01*
X27806791Y5961862D01*
X27871353Y5991396D01*
X27916849Y5989656D01*
X27944197Y5983543D01*
X27944204Y5983542D01*
X27949237Y5982417D01*
X27954907Y5982100D01*
X28290764Y5982100D01*
X28428309Y5997042D01*
X28603448Y6055983D01*
X28761844Y6151157D01*
X28776175Y6164709D01*
X28891149Y6273435D01*
X28891151Y6273437D01*
X28896107Y6278124D01*
X28999975Y6430960D01*
X29005239Y6444120D01*
X29066066Y6596198D01*
X29066067Y6596203D01*
X29068600Y6602535D01*
X29083790Y6694289D01*
X29097666Y6778106D01*
X29097666Y6778110D01*
X29098781Y6784844D01*
X29097243Y6814201D01*
X29089467Y6962568D01*
X29089110Y6969381D01*
X29086653Y6978304D01*
X29041851Y7140954D01*
X29040038Y7147536D01*
X28953854Y7310998D01*
X28893023Y7382982D01*
X28864332Y7447923D01*
X28875305Y7518066D01*
X28892489Y7544703D01*
X28896107Y7548124D01*
X28999975Y7700960D01*
X29002510Y7707297D01*
X29066066Y7866198D01*
X29066067Y7866203D01*
X29068600Y7872535D01*
X29098781Y8054844D01*
X29097045Y8087983D01*
X29089467Y8232568D01*
X29089110Y8239381D01*
X29079518Y8274207D01*
X29041851Y8410954D01*
X29040038Y8417536D01*
X28953854Y8580998D01*
X28834580Y8722140D01*
X28829155Y8726288D01*
X28693201Y8830233D01*
X28693197Y8830236D01*
X28687780Y8834377D01*
X28681600Y8837259D01*
X28681598Y8837260D01*
X28526480Y8909593D01*
X28526477Y8909594D01*
X28520303Y8912473D01*
X28513658Y8913958D01*
X28513653Y8913960D01*
X28373729Y8945235D01*
X28339963Y8952783D01*
X28334293Y8953100D01*
X27998436Y8953100D01*
X27995042Y8952731D01*
X27995037Y8952731D01*
X27903407Y8942777D01*
X27833525Y8955305D01*
X27781509Y9003626D01*
X27763875Y9072398D01*
X27768141Y9097643D01*
X27768401Y9115395D01*
X27761645Y9118600D01*
X26516600Y9118600D01*
X26448479Y9138602D01*
X26401986Y9192258D01*
X26390600Y9244600D01*
X26390600Y9500600D01*
X26410602Y9568721D01*
X26464258Y9615214D01*
X26516600Y9626600D01*
X27754647Y9626600D01*
X27768178Y9630573D01*
X27769298Y9638368D01*
X27768490Y9641115D01*
X27768445Y9712112D01*
X27806791Y9771862D01*
X27871353Y9801396D01*
X27916849Y9799656D01*
X27944197Y9793543D01*
X27944204Y9793542D01*
X27949237Y9792417D01*
X27954907Y9792100D01*
X28290764Y9792100D01*
X28428309Y9807042D01*
X28603448Y9865983D01*
X28761844Y9961157D01*
X28777902Y9976342D01*
X28891149Y10083435D01*
X28891151Y10083437D01*
X28896107Y10088124D01*
X28999975Y10240960D01*
X29002510Y10247297D01*
X29066066Y10406198D01*
X29066067Y10406203D01*
X29068600Y10412535D01*
X29095556Y10575363D01*
X29097666Y10588106D01*
X29097666Y10588110D01*
X29098781Y10594844D01*
X29095731Y10653055D01*
X29089467Y10772568D01*
X29089110Y10779381D01*
X29072511Y10839646D01*
X29041851Y10950954D01*
X29040038Y10957536D01*
X28953854Y11120998D01*
X28893023Y11192982D01*
X28864332Y11257923D01*
X28875305Y11328066D01*
X28892489Y11354703D01*
X28896107Y11358124D01*
X28999975Y11510960D01*
X29008808Y11533044D01*
X29066066Y11676198D01*
X29066067Y11676203D01*
X29068600Y11682535D01*
X29088709Y11804002D01*
X29097666Y11858106D01*
X29097666Y11858110D01*
X29098781Y11864844D01*
X29093952Y11957001D01*
X29089467Y12042568D01*
X29089110Y12049381D01*
X29079909Y12082787D01*
X29041851Y12220954D01*
X29040038Y12227536D01*
X28953854Y12390998D01*
X28834580Y12532140D01*
X28773753Y12578646D01*
X28693201Y12640233D01*
X28693197Y12640236D01*
X28687780Y12644377D01*
X28681600Y12647259D01*
X28681598Y12647260D01*
X28526480Y12719593D01*
X28526477Y12719594D01*
X28520303Y12722473D01*
X28513658Y12723958D01*
X28513653Y12723960D01*
X28373729Y12755235D01*
X28339963Y12762783D01*
X28334293Y12763100D01*
X27998436Y12763100D01*
X27995042Y12762731D01*
X27995037Y12762731D01*
X27903407Y12752777D01*
X27833525Y12765305D01*
X27781509Y12813626D01*
X27763875Y12882398D01*
X27768141Y12907643D01*
X27768401Y12925395D01*
X27761645Y12928600D01*
X25534553Y12928600D01*
X25521022Y12924627D01*
X25519902Y12916832D01*
X25557154Y12790258D01*
X25561747Y12778890D01*
X25652166Y12605934D01*
X25658882Y12595672D01*
X25781168Y12443580D01*
X25789752Y12434814D01*
X25939256Y12309364D01*
X25949371Y12302438D01*
X26026228Y12260186D01*
X26076287Y12209841D01*
X26091181Y12140424D01*
X26066181Y12073975D01*
X26054623Y12060676D01*
X25070528Y11076581D01*
X25008216Y11042555D01*
X24937401Y11047620D01*
X24930500Y11050430D01*
X24835327Y11092506D01*
X24809646Y11095500D01*
X23323354Y11095500D01*
X23319650Y11095059D01*
X23319647Y11095059D01*
X23312254Y11094179D01*
X23297154Y11092382D01*
X23288514Y11088544D01*
X23288513Y11088544D01*
X23205482Y11051663D01*
X23194847Y11046939D01*
X23115759Y10967713D01*
X23111056Y10957076D01*
X23111055Y10957074D01*
X23084735Y10897538D01*
X23070494Y10865327D01*
X23067500Y10839646D01*
X23067500Y10111504D01*
X23047498Y10043383D01*
X23030595Y10022408D01*
X22595518Y9587332D01*
X22533206Y9553307D01*
X22462390Y9558372D01*
X22446168Y9566791D01*
X22443713Y9569241D01*
X22341327Y9614506D01*
X22315646Y9617500D01*
X20676354Y9617500D01*
X20672650Y9617059D01*
X20672647Y9617059D01*
X20665254Y9616179D01*
X20650154Y9614382D01*
X20641514Y9610544D01*
X20641513Y9610544D01*
X20551138Y9570401D01*
X20547847Y9568939D01*
X20547173Y9570457D01*
X20492398Y9552515D01*
X20423691Y9570401D01*
X20375560Y9622592D01*
X20362500Y9678455D01*
X20362500Y9924000D01*
X20382502Y9992121D01*
X20436158Y10038614D01*
X20488500Y10050000D01*
X20809146Y10050000D01*
X20812850Y10050441D01*
X20812853Y10050441D01*
X20820246Y10051321D01*
X20835346Y10053118D01*
X20870573Y10068765D01*
X20927018Y10093837D01*
X20937653Y10098561D01*
X20950574Y10111504D01*
X20977358Y10138335D01*
X21016741Y10177787D01*
X21062006Y10280173D01*
X21065000Y10305854D01*
X21065000Y11284146D01*
X21061882Y11310346D01*
X21016439Y11412653D01*
X20937213Y11491741D01*
X20926576Y11496444D01*
X20926574Y11496445D01*
X20867038Y11522765D01*
X20834827Y11537006D01*
X20809146Y11540000D01*
X19322854Y11540000D01*
X19319150Y11539559D01*
X19319147Y11539559D01*
X19311754Y11538679D01*
X19296654Y11536882D01*
X19288014Y11533044D01*
X19288013Y11533044D01*
X19238295Y11510960D01*
X19194347Y11491439D01*
X19115259Y11412213D01*
X19069994Y11309827D01*
X19067000Y11284146D01*
X19067000Y10305854D01*
X19070118Y10279654D01*
X19115561Y10177347D01*
X19123794Y10169128D01*
X19123795Y10169127D01*
X19186553Y10106478D01*
X19186555Y10106477D01*
X19194787Y10098259D01*
X19205427Y10093555D01*
X19206685Y10092694D01*
X19251592Y10037704D01*
X19261500Y9988729D01*
X19261500Y9198214D01*
X19241498Y9130093D01*
X19224595Y9109119D01*
X18545595Y8430119D01*
X18483283Y8396093D01*
X18412468Y8401158D01*
X18355632Y8443705D01*
X18330821Y8510225D01*
X18330500Y8519214D01*
X18330500Y9924000D01*
X18350502Y9992121D01*
X18404158Y10038614D01*
X18456500Y10050000D01*
X18523146Y10050000D01*
X18526850Y10050441D01*
X18526853Y10050441D01*
X18534246Y10051321D01*
X18549346Y10053118D01*
X18584573Y10068765D01*
X18641018Y10093837D01*
X18651653Y10098561D01*
X18664574Y10111504D01*
X18691358Y10138335D01*
X18730741Y10177787D01*
X18776006Y10280173D01*
X18779000Y10305854D01*
X18779000Y11284146D01*
X18775882Y11310346D01*
X18730439Y11412653D01*
X18651213Y11491741D01*
X18640576Y11496444D01*
X18640574Y11496445D01*
X18581038Y11522765D01*
X18548827Y11537006D01*
X18523146Y11540000D01*
X17036854Y11540000D01*
X17033150Y11539559D01*
X17033147Y11539559D01*
X17025754Y11538679D01*
X17010654Y11536882D01*
X17002014Y11533044D01*
X17002013Y11533044D01*
X16952295Y11510960D01*
X16908347Y11491439D01*
X16829259Y11412213D01*
X16783994Y11309827D01*
X16781000Y11284146D01*
X16781000Y10305854D01*
X16784118Y10279654D01*
X16829561Y10177347D01*
X16908787Y10098259D01*
X16919424Y10093556D01*
X16919426Y10093555D01*
X16975500Y10068765D01*
X17011173Y10052994D01*
X17036854Y10050000D01*
X17103500Y10050000D01*
X17171621Y10029998D01*
X17218114Y9976342D01*
X17229500Y9924000D01*
X17229500Y8436214D01*
X17209498Y8368093D01*
X17192595Y8347119D01*
X17179881Y8334405D01*
X17117569Y8300379D01*
X17090786Y8297500D01*
X17074261Y8297500D01*
X17023313Y8308260D01*
X16949993Y8340675D01*
X16949992Y8340675D01*
X16941327Y8344506D01*
X16915646Y8347500D01*
X15276354Y8347500D01*
X15272650Y8347059D01*
X15272647Y8347059D01*
X15265254Y8346179D01*
X15250154Y8344382D01*
X15241514Y8340544D01*
X15241513Y8340544D01*
X15158482Y8303663D01*
X15147847Y8298939D01*
X15139628Y8290706D01*
X15139627Y8290705D01*
X15125375Y8276428D01*
X15068759Y8219713D01*
X15064056Y8209076D01*
X15064055Y8209074D01*
X15053373Y8184912D01*
X15023494Y8117327D01*
X15020500Y8091646D01*
X15020500Y7402354D01*
X15023618Y7376154D01*
X15027456Y7367514D01*
X15027456Y7367513D01*
X15063741Y7285824D01*
X15069061Y7273847D01*
X15077294Y7265628D01*
X15077295Y7265627D01*
X15141803Y7201231D01*
X15175882Y7138948D01*
X15170879Y7068128D01*
X15141958Y7023040D01*
X15116677Y6997715D01*
X15068759Y6949713D01*
X15064056Y6939076D01*
X15064055Y6939074D01*
X15052385Y6912676D01*
X15023494Y6847327D01*
X15020500Y6821646D01*
X15020500Y6132354D01*
X15023618Y6106154D01*
X15027456Y6097514D01*
X15027456Y6097513D01*
X15054608Y6036386D01*
X15069061Y6003847D01*
X15077294Y5995628D01*
X15077295Y5995627D01*
X15100289Y5972673D01*
X15134368Y5910390D01*
X15129365Y5839570D01*
X15086867Y5782697D01*
X15020368Y5757829D01*
X15011271Y5757500D01*
X14650500Y5757500D01*
X14582379Y5777502D01*
X14535886Y5831158D01*
X14524500Y5883500D01*
X14524500Y6394646D01*
X14521382Y6420846D01*
X14506976Y6453280D01*
X14480663Y6512518D01*
X14480662Y6512520D01*
X14475939Y6523153D01*
X14396713Y6602241D01*
X14386076Y6606944D01*
X14386074Y6606945D01*
X14329104Y6632131D01*
X14274888Y6677969D01*
X14254061Y6745842D01*
X14273235Y6814201D01*
X14326323Y6861341D01*
X14335822Y6865353D01*
X14462054Y6912676D01*
X14477649Y6921214D01*
X14579724Y6997715D01*
X14592285Y7010276D01*
X14668786Y7112351D01*
X14677324Y7127946D01*
X14722478Y7248394D01*
X14726105Y7263649D01*
X14731631Y7314514D01*
X14732000Y7321328D01*
X14732000Y7855885D01*
X14727525Y7871124D01*
X14726135Y7872329D01*
X14718452Y7874000D01*
X10794000Y7874000D01*
X10725879Y7894002D01*
X10679386Y7947658D01*
X10668000Y8000000D01*
X10668000Y8400115D01*
X11176000Y8400115D01*
X11180475Y8384876D01*
X11181865Y8383671D01*
X11189548Y8382000D01*
X13189885Y8382000D01*
X13205124Y8386475D01*
X13206329Y8387865D01*
X13208000Y8395548D01*
X13208000Y8400115D01*
X13716000Y8400115D01*
X13720475Y8384876D01*
X13721865Y8383671D01*
X13729548Y8382000D01*
X14713884Y8382000D01*
X14729123Y8386475D01*
X14730328Y8387865D01*
X14731999Y8395548D01*
X14731999Y8934669D01*
X14731629Y8941490D01*
X14726105Y8992352D01*
X14722479Y9007604D01*
X14677324Y9128054D01*
X14668786Y9143649D01*
X14592285Y9245724D01*
X14579724Y9258285D01*
X14477649Y9334786D01*
X14462054Y9343324D01*
X14341606Y9388478D01*
X14326351Y9392105D01*
X14275486Y9397631D01*
X14268672Y9398000D01*
X13734115Y9398000D01*
X13718876Y9393525D01*
X13717671Y9392135D01*
X13716000Y9384452D01*
X13716000Y8400115D01*
X13208000Y8400115D01*
X13208000Y9379884D01*
X13203525Y9395123D01*
X13202135Y9396328D01*
X13194452Y9397999D01*
X12655331Y9397999D01*
X12648510Y9397629D01*
X12597648Y9392105D01*
X12582396Y9388479D01*
X12461946Y9343324D01*
X12446351Y9334786D01*
X12344276Y9258285D01*
X12331716Y9245725D01*
X12292827Y9193835D01*
X12235968Y9151319D01*
X12165149Y9146293D01*
X12102856Y9180353D01*
X12091173Y9193835D01*
X12052284Y9245725D01*
X12039724Y9258285D01*
X11937649Y9334786D01*
X11922054Y9343324D01*
X11801606Y9388478D01*
X11786351Y9392105D01*
X11735486Y9397631D01*
X11728672Y9398000D01*
X11194115Y9398000D01*
X11178876Y9393525D01*
X11177671Y9392135D01*
X11176000Y9384452D01*
X11176000Y8400115D01*
X10668000Y8400115D01*
X10668000Y9379884D01*
X10663525Y9395123D01*
X10662135Y9396328D01*
X10654452Y9397999D01*
X10634320Y9397999D01*
X10566199Y9418001D01*
X10519706Y9471657D01*
X10508321Y9524440D01*
X10508367Y9537582D01*
X10508396Y9538457D01*
X10508500Y9539284D01*
X10508500Y9575892D01*
X10508621Y9610544D01*
X10508841Y9673508D01*
X10508841Y9673511D01*
X10508853Y9677001D01*
X10508587Y9678189D01*
X10508500Y9679801D01*
X10508500Y10507242D01*
X10528502Y10575363D01*
X10545327Y10596260D01*
X10602023Y10653055D01*
X10610241Y10661287D01*
X10621606Y10686992D01*
X10651675Y10755008D01*
X10655506Y10763673D01*
X10658500Y10789354D01*
X10658500Y12578646D01*
X10655382Y12604846D01*
X10636543Y12647260D01*
X10614663Y12696518D01*
X10609939Y12707153D01*
X10597478Y12719593D01*
X10554212Y12762783D01*
X10530713Y12786241D01*
X10520076Y12790944D01*
X10520074Y12790945D01*
X10460538Y12817265D01*
X10428327Y12831506D01*
X10402646Y12834500D01*
X9013354Y12834500D01*
X9009650Y12834059D01*
X9009647Y12834059D01*
X9002254Y12833179D01*
X8987154Y12831382D01*
X8884847Y12785939D01*
X8805759Y12706713D01*
X8760494Y12604327D01*
X8757500Y12578646D01*
X8757500Y11910000D01*
X8737498Y11841879D01*
X8683842Y11795386D01*
X8631500Y11784000D01*
X680500Y11784000D01*
X612379Y11804002D01*
X565886Y11857658D01*
X554500Y11910000D01*
X554500Y14687331D01*
X13462001Y14687331D01*
X13462371Y14680510D01*
X13467895Y14629648D01*
X13471521Y14614396D01*
X13516676Y14493946D01*
X13525214Y14478351D01*
X13601715Y14376276D01*
X13614276Y14363715D01*
X13716351Y14287214D01*
X13731946Y14278676D01*
X13852394Y14233522D01*
X13867649Y14229895D01*
X13918514Y14224369D01*
X13925328Y14224000D01*
X14459885Y14224000D01*
X14475124Y14228475D01*
X14476329Y14229865D01*
X14478000Y14237548D01*
X14478000Y14242116D01*
X14986000Y14242116D01*
X14990475Y14226877D01*
X14991865Y14225672D01*
X14999548Y14224001D01*
X15538669Y14224001D01*
X15545490Y14224371D01*
X15596352Y14229895D01*
X15611604Y14233521D01*
X15732054Y14278676D01*
X15747649Y14287214D01*
X15849724Y14363715D01*
X15862285Y14376276D01*
X15938786Y14478351D01*
X15947324Y14493946D01*
X15994631Y14620137D01*
X16037273Y14676901D01*
X16103834Y14701601D01*
X16173183Y14686394D01*
X16223301Y14636108D01*
X16227761Y14627061D01*
X16258061Y14558847D01*
X16337287Y14479759D01*
X16347924Y14475056D01*
X16347926Y14475055D01*
X16392566Y14455320D01*
X16439673Y14434494D01*
X16465354Y14431500D01*
X16595500Y14431500D01*
X16663621Y14411498D01*
X16710114Y14357842D01*
X16721500Y14305500D01*
X16721500Y13222993D01*
X16721389Y13217717D01*
X16718790Y13155706D01*
X16720752Y13147341D01*
X16728727Y13113338D01*
X16730890Y13101667D01*
X16736794Y13058568D01*
X16740206Y13050684D01*
X16740206Y13050683D01*
X16742765Y13044770D01*
X16749799Y13023501D01*
X16753232Y13008864D01*
X16765416Y12986702D01*
X16781000Y12926003D01*
X16781000Y12210854D01*
X16784118Y12184654D01*
X16829561Y12082347D01*
X16837794Y12074128D01*
X16837795Y12074127D01*
X16869335Y12042642D01*
X16908787Y12003259D01*
X16919424Y11998556D01*
X16919426Y11998555D01*
X16978962Y11972235D01*
X17011173Y11957994D01*
X17036854Y11955000D01*
X18523146Y11955000D01*
X18526850Y11955441D01*
X18526853Y11955441D01*
X18534246Y11956321D01*
X18549346Y11958118D01*
X18651653Y12003561D01*
X18730741Y12082787D01*
X18756223Y12140424D01*
X18772175Y12176508D01*
X18776006Y12185173D01*
X18779000Y12210854D01*
X18779000Y13189146D01*
X18775882Y13215346D01*
X18730439Y13317653D01*
X18651213Y13396741D01*
X18640576Y13401444D01*
X18640574Y13401445D01*
X18557492Y13438175D01*
X18557493Y13438175D01*
X18548827Y13442006D01*
X18523146Y13445000D01*
X17948500Y13445000D01*
X17880379Y13465002D01*
X17833886Y13518658D01*
X17822500Y13571000D01*
X17822500Y14305500D01*
X17842502Y14373621D01*
X17896158Y14420114D01*
X17948500Y14431500D01*
X18078646Y14431500D01*
X18082350Y14431941D01*
X18082353Y14431941D01*
X18089746Y14432821D01*
X18104846Y14434618D01*
X18144596Y14452274D01*
X18196518Y14475337D01*
X18207153Y14480061D01*
X18286241Y14559287D01*
X18331506Y14661673D01*
X18334500Y14687354D01*
X18749500Y14687354D01*
X18752618Y14661154D01*
X18756456Y14652514D01*
X18756456Y14652513D01*
X18766612Y14629649D01*
X18798061Y14558847D01*
X18877287Y14479759D01*
X18887924Y14475056D01*
X18887926Y14475055D01*
X18932566Y14455320D01*
X18979673Y14434494D01*
X19005354Y14431500D01*
X19135500Y14431500D01*
X19203621Y14411498D01*
X19250114Y14357842D01*
X19261500Y14305500D01*
X19261500Y13506300D01*
X19241498Y13438179D01*
X19206868Y13402461D01*
X19204974Y13401159D01*
X19194347Y13396439D01*
X19115259Y13317213D01*
X19069994Y13214827D01*
X19067000Y13189146D01*
X19067000Y12210854D01*
X19070118Y12184654D01*
X19115561Y12082347D01*
X19123794Y12074128D01*
X19123795Y12074127D01*
X19155335Y12042642D01*
X19194787Y12003259D01*
X19205424Y11998556D01*
X19205426Y11998555D01*
X19264962Y11972235D01*
X19297173Y11957994D01*
X19322854Y11955000D01*
X20809146Y11955000D01*
X20812850Y11955441D01*
X20812853Y11955441D01*
X20820246Y11956321D01*
X20835346Y11958118D01*
X20937653Y12003561D01*
X21016741Y12082787D01*
X21042223Y12140424D01*
X21058175Y12176508D01*
X21062006Y12185173D01*
X21065000Y12210854D01*
X21065000Y13189146D01*
X21061882Y13215346D01*
X21016439Y13317653D01*
X20937213Y13396741D01*
X20926576Y13401444D01*
X20926574Y13401445D01*
X20843492Y13438175D01*
X20843493Y13438175D01*
X20839806Y13439805D01*
X25520799Y13439805D01*
X25527555Y13436600D01*
X26372485Y13436600D01*
X26387724Y13441075D01*
X26388929Y13442465D01*
X26390600Y13450148D01*
X26390600Y13454715D01*
X26898600Y13454715D01*
X26903075Y13439476D01*
X26904465Y13438271D01*
X26912148Y13436600D01*
X27754647Y13436600D01*
X27768178Y13440573D01*
X27769298Y13448368D01*
X27732046Y13574942D01*
X27727453Y13586310D01*
X27637034Y13759266D01*
X27630318Y13769528D01*
X27508032Y13921620D01*
X27499448Y13930386D01*
X27349944Y14055836D01*
X27339833Y14062760D01*
X27168802Y14156784D01*
X27157538Y14161612D01*
X26971505Y14220625D01*
X26959517Y14223173D01*
X26916604Y14227987D01*
X26902073Y14225434D01*
X26898600Y14212887D01*
X26898600Y13454715D01*
X26390600Y13454715D01*
X26390600Y14212504D01*
X26386364Y14226931D01*
X26374011Y14228992D01*
X26344239Y14226073D01*
X26332204Y14223690D01*
X26145377Y14167283D01*
X26134035Y14162608D01*
X25961721Y14070988D01*
X25951505Y14064201D01*
X25800265Y13940853D01*
X25791561Y13932209D01*
X25667162Y13781837D01*
X25660303Y13771669D01*
X25567479Y13599993D01*
X25562729Y13588693D01*
X25521005Y13453907D01*
X25520799Y13439805D01*
X20839806Y13439805D01*
X20834827Y13442006D01*
X20809146Y13445000D01*
X20488500Y13445000D01*
X20420379Y13465002D01*
X20373886Y13518658D01*
X20362500Y13571000D01*
X20362500Y14305500D01*
X20382502Y14373621D01*
X20436158Y14420114D01*
X20488500Y14431500D01*
X20618646Y14431500D01*
X20622350Y14431941D01*
X20622353Y14431941D01*
X20629746Y14432821D01*
X20644846Y14434618D01*
X20684596Y14452274D01*
X20736518Y14475337D01*
X20747153Y14480061D01*
X20826241Y14559287D01*
X20856131Y14626896D01*
X20901969Y14681112D01*
X20969842Y14701939D01*
X21038201Y14682765D01*
X21085341Y14629677D01*
X21089353Y14620178D01*
X21136676Y14493946D01*
X21145214Y14478351D01*
X21221715Y14376276D01*
X21234276Y14363715D01*
X21336351Y14287214D01*
X21351946Y14278676D01*
X21472394Y14233522D01*
X21487649Y14229895D01*
X21538514Y14224369D01*
X21545328Y14224000D01*
X22079885Y14224000D01*
X22095124Y14228475D01*
X22096329Y14229865D01*
X22098000Y14237548D01*
X22098000Y14242116D01*
X22606000Y14242116D01*
X22610475Y14226877D01*
X22611865Y14225672D01*
X22619548Y14224001D01*
X23158669Y14224001D01*
X23165490Y14224371D01*
X23216352Y14229895D01*
X23231604Y14233521D01*
X23352054Y14278676D01*
X23367649Y14287214D01*
X23469724Y14363715D01*
X23482285Y14376276D01*
X23558786Y14478351D01*
X23567324Y14493946D01*
X23612478Y14614394D01*
X23616105Y14629649D01*
X23621631Y14680514D01*
X23622000Y14687328D01*
X23622000Y15221885D01*
X23617525Y15237124D01*
X23616135Y15238329D01*
X23608452Y15240000D01*
X22624115Y15240000D01*
X22608876Y15235525D01*
X22607671Y15234135D01*
X22606000Y15226452D01*
X22606000Y14242116D01*
X22098000Y14242116D01*
X22098000Y15766115D01*
X22606000Y15766115D01*
X22610475Y15750876D01*
X22611865Y15749671D01*
X22619548Y15748000D01*
X23603884Y15748000D01*
X23619123Y15752475D01*
X23620328Y15753865D01*
X23621999Y15761548D01*
X23621999Y15932600D01*
X27589306Y15932600D01*
X27608454Y15689298D01*
X27665428Y15451988D01*
X27667318Y15447425D01*
X27667320Y15447419D01*
X27754427Y15237124D01*
X27758823Y15226511D01*
X27886341Y15018421D01*
X28044841Y14832841D01*
X28230421Y14674341D01*
X28438511Y14546823D01*
X28443081Y14544930D01*
X28443085Y14544928D01*
X28659419Y14455320D01*
X28659425Y14455318D01*
X28663988Y14453428D01*
X28668788Y14452276D01*
X28668793Y14452274D01*
X28753486Y14431941D01*
X28901298Y14396454D01*
X29144600Y14377306D01*
X29387902Y14396454D01*
X29535714Y14431941D01*
X29620407Y14452274D01*
X29620412Y14452276D01*
X29625212Y14453428D01*
X29629775Y14455318D01*
X29629781Y14455320D01*
X29846115Y14544928D01*
X29846119Y14544930D01*
X29850689Y14546823D01*
X30058779Y14674341D01*
X30244359Y14832841D01*
X30402859Y15018421D01*
X30530377Y15226511D01*
X30534773Y15237124D01*
X30621880Y15447419D01*
X30621882Y15447425D01*
X30623772Y15451988D01*
X30680746Y15689298D01*
X30699894Y15932600D01*
X30680746Y16175902D01*
X30642551Y16334992D01*
X30624926Y16408407D01*
X30624924Y16408412D01*
X30623772Y16413212D01*
X30621882Y16417775D01*
X30621880Y16417781D01*
X30532272Y16634115D01*
X30532270Y16634119D01*
X30530377Y16638689D01*
X30402859Y16846779D01*
X30244359Y17032359D01*
X30058779Y17190859D01*
X29850689Y17318377D01*
X29846119Y17320270D01*
X29846115Y17320272D01*
X29629781Y17409880D01*
X29629775Y17409882D01*
X29625212Y17411772D01*
X29620412Y17412924D01*
X29620407Y17412926D01*
X29511898Y17438977D01*
X29387902Y17468746D01*
X29144600Y17487894D01*
X28901298Y17468746D01*
X28777302Y17438977D01*
X28668793Y17412926D01*
X28668788Y17412924D01*
X28663988Y17411772D01*
X28659425Y17409882D01*
X28659419Y17409880D01*
X28443085Y17320272D01*
X28443081Y17320270D01*
X28438511Y17318377D01*
X28230421Y17190859D01*
X28044841Y17032359D01*
X27886341Y16846779D01*
X27758823Y16638689D01*
X27756930Y16634119D01*
X27756928Y16634115D01*
X27667320Y16417781D01*
X27667318Y16417775D01*
X27665428Y16413212D01*
X27664276Y16408412D01*
X27664274Y16408407D01*
X27646649Y16334992D01*
X27608454Y16175902D01*
X27589306Y15932600D01*
X23621999Y15932600D01*
X23621999Y16300669D01*
X23621629Y16307490D01*
X23616105Y16358352D01*
X23612479Y16373604D01*
X23567324Y16494054D01*
X23558786Y16509649D01*
X23482285Y16611724D01*
X23469725Y16624284D01*
X23417835Y16663173D01*
X23375319Y16720032D01*
X23370293Y16790851D01*
X23404353Y16853144D01*
X23417835Y16864827D01*
X23469725Y16903716D01*
X23482285Y16916276D01*
X23558786Y17018351D01*
X23567324Y17033946D01*
X23612478Y17154394D01*
X23616105Y17169649D01*
X23621631Y17220514D01*
X23622000Y17227328D01*
X23622000Y17761885D01*
X23617525Y17777124D01*
X23616135Y17778329D01*
X23608452Y17780000D01*
X22624115Y17780000D01*
X22608876Y17775525D01*
X22607671Y17774135D01*
X22606000Y17766452D01*
X22606000Y15766115D01*
X22098000Y15766115D01*
X22098000Y18306115D01*
X22606000Y18306115D01*
X22610475Y18290876D01*
X22611865Y18289671D01*
X22619548Y18288000D01*
X23603884Y18288000D01*
X23619123Y18292475D01*
X23620328Y18293865D01*
X23621999Y18301548D01*
X23621999Y18840669D01*
X23621629Y18847490D01*
X23616105Y18898352D01*
X23612479Y18913604D01*
X23567324Y19034054D01*
X23558786Y19049649D01*
X23482285Y19151724D01*
X23469724Y19164285D01*
X23367649Y19240786D01*
X23352054Y19249324D01*
X23231606Y19294478D01*
X23216351Y19298105D01*
X23165486Y19303631D01*
X23158672Y19304000D01*
X22624115Y19304000D01*
X22608876Y19299525D01*
X22607671Y19298135D01*
X22606000Y19290452D01*
X22606000Y18306115D01*
X22098000Y18306115D01*
X22098000Y19285884D01*
X22093525Y19301123D01*
X22092135Y19302328D01*
X22084452Y19303999D01*
X21545331Y19303999D01*
X21538510Y19303629D01*
X21487648Y19298105D01*
X21472396Y19294479D01*
X21351946Y19249324D01*
X21336351Y19240786D01*
X21234276Y19164285D01*
X21221715Y19151724D01*
X21145214Y19049649D01*
X21136676Y19034054D01*
X21089369Y18907863D01*
X21046727Y18851099D01*
X20980166Y18826399D01*
X20910817Y18841606D01*
X20860699Y18891892D01*
X20856236Y18900944D01*
X20853163Y18907863D01*
X20825939Y18969153D01*
X20746713Y19048241D01*
X20736076Y19052944D01*
X20736074Y19052945D01*
X20676538Y19079265D01*
X20644327Y19093506D01*
X20618646Y19096500D01*
X19005354Y19096500D01*
X19001650Y19096059D01*
X19001647Y19096059D01*
X18994254Y19095179D01*
X18979154Y19093382D01*
X18876847Y19047939D01*
X18797759Y18968713D01*
X18752494Y18866327D01*
X18749500Y18840646D01*
X18749500Y17227354D01*
X18752618Y17201154D01*
X18756456Y17192514D01*
X18756456Y17192513D01*
X18766612Y17169649D01*
X18798061Y17098847D01*
X18877287Y17019759D01*
X18887924Y17015056D01*
X18887926Y17015055D01*
X18947462Y16988735D01*
X18979673Y16974494D01*
X19005354Y16971500D01*
X19235500Y16971500D01*
X19303621Y16951498D01*
X19350114Y16897842D01*
X19361500Y16845500D01*
X19361500Y16682500D01*
X19341498Y16614379D01*
X19287842Y16567886D01*
X19235500Y16556500D01*
X19005354Y16556500D01*
X19001650Y16556059D01*
X19001647Y16556059D01*
X18994254Y16555179D01*
X18979154Y16553382D01*
X18876847Y16507939D01*
X18797759Y16428713D01*
X18793056Y16418076D01*
X18793055Y16418074D01*
X18773396Y16373606D01*
X18752494Y16326327D01*
X18749500Y16300646D01*
X18749500Y14687354D01*
X18334500Y14687354D01*
X18334500Y16300646D01*
X18331382Y16326846D01*
X18317401Y16358323D01*
X18290663Y16418518D01*
X18290662Y16418520D01*
X18285939Y16429153D01*
X18206713Y16508241D01*
X18196076Y16512944D01*
X18196074Y16512945D01*
X18136538Y16539265D01*
X18104327Y16553506D01*
X18078646Y16556500D01*
X17848500Y16556500D01*
X17780379Y16576502D01*
X17733886Y16630158D01*
X17722500Y16682500D01*
X17722500Y16845500D01*
X17742502Y16913621D01*
X17796158Y16960114D01*
X17848500Y16971500D01*
X18078646Y16971500D01*
X18082350Y16971941D01*
X18082353Y16971941D01*
X18089746Y16972821D01*
X18104846Y16974618D01*
X18207153Y17020061D01*
X18286241Y17099287D01*
X18331506Y17201673D01*
X18334500Y17227354D01*
X18334500Y18840646D01*
X18331382Y18866846D01*
X18317401Y18898323D01*
X18290663Y18958518D01*
X18290662Y18958520D01*
X18285939Y18969153D01*
X18206713Y19048241D01*
X18196076Y19052944D01*
X18196074Y19052945D01*
X18136538Y19079265D01*
X18104327Y19093506D01*
X18078646Y19096500D01*
X16465354Y19096500D01*
X16461650Y19096059D01*
X16461647Y19096059D01*
X16454254Y19095179D01*
X16439154Y19093382D01*
X16336847Y19047939D01*
X16257759Y18968713D01*
X16253056Y18958076D01*
X16253055Y18958074D01*
X16227869Y18901104D01*
X16182031Y18846888D01*
X16114158Y18826061D01*
X16045799Y18845235D01*
X15998659Y18898323D01*
X15994647Y18907822D01*
X15947324Y19034054D01*
X15938786Y19049649D01*
X15862285Y19151724D01*
X15849724Y19164285D01*
X15747649Y19240786D01*
X15732054Y19249324D01*
X15611606Y19294478D01*
X15596351Y19298105D01*
X15545486Y19303631D01*
X15538672Y19304000D01*
X15004115Y19304000D01*
X14988876Y19299525D01*
X14987671Y19298135D01*
X14986000Y19290452D01*
X14986000Y14242116D01*
X14478000Y14242116D01*
X14478000Y15221885D01*
X14473525Y15237124D01*
X14472135Y15238329D01*
X14464452Y15240000D01*
X13480116Y15240000D01*
X13464877Y15235525D01*
X13463672Y15234135D01*
X13462001Y15226452D01*
X13462001Y14687331D01*
X554500Y14687331D01*
X554500Y15766115D01*
X13462000Y15766115D01*
X13466475Y15750876D01*
X13467865Y15749671D01*
X13475548Y15748000D01*
X14459885Y15748000D01*
X14475124Y15752475D01*
X14476329Y15753865D01*
X14478000Y15761548D01*
X14478000Y17761885D01*
X14473525Y17777124D01*
X14472135Y17778329D01*
X14464452Y17780000D01*
X13480116Y17780000D01*
X13464877Y17775525D01*
X13463672Y17774135D01*
X13462001Y17766452D01*
X13462001Y17227331D01*
X13462371Y17220510D01*
X13467895Y17169648D01*
X13471521Y17154396D01*
X13516676Y17033946D01*
X13525214Y17018351D01*
X13601715Y16916276D01*
X13614275Y16903716D01*
X13666165Y16864827D01*
X13708681Y16807968D01*
X13713707Y16737149D01*
X13679647Y16674856D01*
X13666165Y16663173D01*
X13614275Y16624284D01*
X13601715Y16611724D01*
X13525214Y16509649D01*
X13516676Y16494054D01*
X13471522Y16373606D01*
X13467895Y16358351D01*
X13462369Y16307486D01*
X13462000Y16300672D01*
X13462000Y15766115D01*
X554500Y15766115D01*
X554500Y18306115D01*
X13462000Y18306115D01*
X13466475Y18290876D01*
X13467865Y18289671D01*
X13475548Y18288000D01*
X14459885Y18288000D01*
X14475124Y18292475D01*
X14476329Y18293865D01*
X14478000Y18301548D01*
X14478000Y19285884D01*
X14473525Y19301123D01*
X14472135Y19302328D01*
X14464452Y19303999D01*
X13925331Y19303999D01*
X13918510Y19303629D01*
X13867648Y19298105D01*
X13852396Y19294479D01*
X13731946Y19249324D01*
X13716351Y19240786D01*
X13614276Y19164285D01*
X13601715Y19151724D01*
X13525214Y19049649D01*
X13516676Y19034054D01*
X13471522Y18913606D01*
X13467895Y18898351D01*
X13462369Y18847486D01*
X13462000Y18840672D01*
X13462000Y18306115D01*
X554500Y18306115D01*
X554500Y19639500D01*
X574502Y19707621D01*
X628158Y19754114D01*
X680500Y19765500D01*
X39959500Y19765500D01*
X40027621Y19745498D01*
G37*
%TD.AperFunction*%
%TD*%
M02*
