  0
SECTION
  2
HEADER
  9
$ANGBASE
  50
0.0
  9
$ANGDIR
  70
1
  9
$MEASUREMENT
  70
0
  0
ENDSEC
  0
SECTION
  2
TABLES
  0
TABLE
  2
LTYPE
  70
4
  0
LTYPE
  5
40F
  2
CONTINUOUS
  70
0
  3
Solid line
  72
65
  73
0
  40
0.0
  0
LTYPE
  5
410
  2
DASHDOT
 70
0
  3
Dash Dot ____ _ ____ _
 72
65
 73
4
 40
2.0
 49
1.25
 49
-0.25
 49
0.25
 49
-0.25
  0
LTYPE
  5
411
  2
DASHED
 70
0
  3
Dashed __ __ __ __ __
 72
65
 73
2
 40
0.75
 49
0.5
 49
-0.25
  0
LTYPE
  5
43B
  2
DOTTED
 70
0
  3
Dotted .  .  .  .
 72
65
 73
2
 40
0.2
 49
0.0
 49
-0.2
  0
ENDTAB
  0
TABLE
  2
STYLE
  70
4
  0
STYLE
  2
KICAD
  70
0
  40
0
  41
1
  42
1
  50
0
  71
0
  3
isocp.shx
  0
STYLE
  2
KICADB
  70
0
  40
0
  41
1
  42
1
  50
0
  71
0
  3
isocp.shx
  0
STYLE
  2
KICADI
  70
0
  40
0
  41
1
  42
1
  50
15
  71
0
  3
isocp.shx
  0
STYLE
  2
KICADBI
  70
0
  40
0
  41
1
  42
1
  50
15
  71
0
  3
isocp.shx
  0
ENDTAB
  0
TABLE
  2
LAYER
  70
1
  0
LAYER
  2
BLACK
  70
0
  62
7
  6
CONTINUOUS
  0
ENDTAB
  0
ENDSEC
  0
SECTION
  2
ENTITIES
0
LINE
8
BLACK
6
CONTINUOUS
10
0.6875
20
0.0425
11
0.6325
21
0.0425
0
LINE
8
BLACK
6
CONTINUOUS
10
0.6325
20
0.0425
11
0.6325
21
0.0775
0
LINE
8
BLACK
6
CONTINUOUS
10
0.6325
20
0.0775
11
0.6875
21
0.0775
0
LINE
8
BLACK
6
CONTINUOUS
10
0.6875
20
0.0775
11
0.6875
21
0.0425
0
LINE
8
BLACK
6
CONTINUOUS
10
0.6875
20
0.1175
11
0.6325
21
0.1175
0
LINE
8
BLACK
6
CONTINUOUS
10
0.6325
20
0.1175
11
0.6325
21
0.1525
0
LINE
8
BLACK
6
CONTINUOUS
10
0.6325
20
0.1525
11
0.6875
21
0.1525
0
LINE
8
BLACK
6
CONTINUOUS
10
0.6875
20
0.1525
11
0.6875
21
0.1175
0
LINE
8
BLACK
6
CONTINUOUS
10
0.975
20
0.175
11
0.92
21
0.175
0
LINE
8
BLACK
6
CONTINUOUS
10
0.92
20
0.175
11
0.92
21
0.21
0
LINE
8
BLACK
6
CONTINUOUS
10
0.92
20
0.21
11
0.975
21
0.21
0
LINE
8
BLACK
6
CONTINUOUS
10
0.975
20
0.21
11
0.975
21
0.175
0
LINE
8
BLACK
6
CONTINUOUS
10
0.876811
20
0.193189
11
0.815787
21
0.193189
0
LINE
8
BLACK
6
CONTINUOUS
10
0.815787
20
0.193189
11
0.815787
21
0.216811
0
LINE
8
BLACK
6
CONTINUOUS
10
0.815787
20
0.216811
11
0.876811
21
0.216811
0
LINE
8
BLACK
6
CONTINUOUS
10
0.876811
20
0.216811
11
0.876811
21
0.193189
0
LINE
8
BLACK
6
CONTINUOUS
10
0.664213
20
0.193189
11
0.603189
21
0.193189
0
LINE
8
BLACK
6
CONTINUOUS
10
0.603189
20
0.193189
11
0.603189
21
0.216811
0
LINE
8
BLACK
6
CONTINUOUS
10
0.603189
20
0.216811
11
0.664213
21
0.216811
0
LINE
8
BLACK
6
CONTINUOUS
10
0.664213
20
0.216811
11
0.664213
21
0.193189
0
LINE
8
BLACK
6
CONTINUOUS
10
0.664213
20
0.243189
11
0.603189
21
0.243189
0
LINE
8
BLACK
6
CONTINUOUS
10
0.603189
20
0.243189
11
0.603189
21
0.266811
0
LINE
8
BLACK
6
CONTINUOUS
10
0.603189
20
0.266811
11
0.664213
21
0.266811
0
LINE
8
BLACK
6
CONTINUOUS
10
0.664213
20
0.266811
11
0.664213
21
0.243189
0
LINE
8
BLACK
6
CONTINUOUS
10
0.876811
20
0.243189
11
0.815787
21
0.243189
0
LINE
8
BLACK
6
CONTINUOUS
10
0.815787
20
0.243189
11
0.815787
21
0.266811
0
LINE
8
BLACK
6
CONTINUOUS
10
0.815787
20
0.266811
11
0.876811
21
0.266811
0
LINE
8
BLACK
6
CONTINUOUS
10
0.876811
20
0.266811
11
0.876811
21
0.243189
0
LINE
8
BLACK
6
CONTINUOUS
10
0.975
20
0.25
11
0.92
21
0.25
0
LINE
8
BLACK
6
CONTINUOUS
10
0.92
20
0.25
11
0.92
21
0.285
0
LINE
8
BLACK
6
CONTINUOUS
10
0.92
20
0.285
11
0.975
21
0.285
0
LINE
8
BLACK
6
CONTINUOUS
10
0.975
20
0.285
11
0.975
21
0.25
0
LINE
8
BLACK
6
CONTINUOUS
10
0.664213
20
0.293189
11
0.603189
21
0.293189
0
LINE
8
BLACK
6
CONTINUOUS
10
0.603189
20
0.293189
11
0.603189
21
0.316811
0
LINE
8
BLACK
6
CONTINUOUS
10
0.603189
20
0.316811
11
0.664213
21
0.316811
0
LINE
8
BLACK
6
CONTINUOUS
10
0.664213
20
0.316811
11
0.664213
21
0.293189
0
LINE
8
BLACK
6
CONTINUOUS
10
0.876811
20
0.293189
11
0.815787
21
0.293189
0
LINE
8
BLACK
6
CONTINUOUS
10
0.815787
20
0.293189
11
0.815787
21
0.316811
0
LINE
8
BLACK
6
CONTINUOUS
10
0.815787
20
0.316811
11
0.876811
21
0.316811
0
LINE
8
BLACK
6
CONTINUOUS
10
0.876811
20
0.316811
11
0.876811
21
0.293189
0
LINE
8
BLACK
6
CONTINUOUS
10
0.975
20
0.315
11
0.92
21
0.315
0
LINE
8
BLACK
6
CONTINUOUS
10
0.92
20
0.315
11
0.92
21
0.35
0
LINE
8
BLACK
6
CONTINUOUS
10
0.92
20
0.35
11
0.975
21
0.35
0
LINE
8
BLACK
6
CONTINUOUS
10
0.975
20
0.35
11
0.975
21
0.315
0
LINE
8
BLACK
6
CONTINUOUS
10
0.664213
20
0.343189
11
0.603189
21
0.343189
0
LINE
8
BLACK
6
CONTINUOUS
10
0.603189
20
0.343189
11
0.603189
21
0.366811
0
LINE
8
BLACK
6
CONTINUOUS
10
0.603189
20
0.366811
11
0.664213
21
0.366811
0
LINE
8
BLACK
6
CONTINUOUS
10
0.664213
20
0.366811
11
0.664213
21
0.343189
0
LINE
8
BLACK
6
CONTINUOUS
10
0.876811
20
0.343189
11
0.815787
21
0.343189
0
LINE
8
BLACK
6
CONTINUOUS
10
0.815787
20
0.343189
11
0.815787
21
0.366811
0
LINE
8
BLACK
6
CONTINUOUS
10
0.815787
20
0.366811
11
0.876811
21
0.366811
0
LINE
8
BLACK
6
CONTINUOUS
10
0.876811
20
0.366811
11
0.876811
21
0.343189
0
LINE
8
BLACK
6
CONTINUOUS
10
0.975
20
0.39
11
0.92
21
0.39
0
LINE
8
BLACK
6
CONTINUOUS
10
0.92
20
0.39
11
0.92
21
0.425
0
LINE
8
BLACK
6
CONTINUOUS
10
0.92
20
0.425
11
0.975
21
0.425
0
LINE
8
BLACK
6
CONTINUOUS
10
0.975
20
0.425
11
0.975
21
0.39
0
LINE
8
BLACK
6
CONTINUOUS
10
0.7275
20
0.4075
11
0.6725
21
0.4075
0
LINE
8
BLACK
6
CONTINUOUS
10
0.6725
20
0.4075
11
0.6725
21
0.4425
0
LINE
8
BLACK
6
CONTINUOUS
10
0.6725
20
0.4425
11
0.7275
21
0.4425
0
LINE
8
BLACK
6
CONTINUOUS
10
0.7275
20
0.4425
11
0.7275
21
0.4075
0
LINE
8
BLACK
6
CONTINUOUS
10
0.8175
20
0.4075
11
0.7625
21
0.4075
0
LINE
8
BLACK
6
CONTINUOUS
10
0.7625
20
0.4075
11
0.7625
21
0.4425
0
LINE
8
BLACK
6
CONTINUOUS
10
0.7625
20
0.4425
11
0.8175
21
0.4425
0
LINE
8
BLACK
6
CONTINUOUS
10
0.8175
20
0.4425
11
0.8175
21
0.4075
0
LINE
8
BLACK
6
CONTINUOUS
10
0.545591
20
0.426535
11
0.494409
21
0.426535
0
LINE
8
BLACK
6
CONTINUOUS
10
0.494409
20
0.426535
11
0.494409
21
0.493465
0
LINE
8
BLACK
6
CONTINUOUS
10
0.494409
20
0.493465
11
0.545591
21
0.493465
0
LINE
8
BLACK
6
CONTINUOUS
10
0.545591
20
0.493465
11
0.545591
21
0.426535
0
LINE
8
BLACK
6
CONTINUOUS
10
0.407795
20
0.426535
11
0.356614
21
0.426535
0
LINE
8
BLACK
6
CONTINUOUS
10
0.356614
20
0.426535
11
0.356614
21
0.493465
0
LINE
8
BLACK
6
CONTINUOUS
10
0.356614
20
0.493465
11
0.407795
21
0.493465
0
LINE
8
BLACK
6
CONTINUOUS
10
0.407795
20
0.493465
11
0.407795
21
0.426535
0
LINE
8
BLACK
6
CONTINUOUS
10
0.7275
20
0.4825
11
0.6725
21
0.4825
0
LINE
8
BLACK
6
CONTINUOUS
10
0.6725
20
0.4825
11
0.6725
21
0.5175
0
LINE
8
BLACK
6
CONTINUOUS
10
0.6725
20
0.5175
11
0.7275
21
0.5175
0
LINE
8
BLACK
6
CONTINUOUS
10
0.7275
20
0.5175
11
0.7275
21
0.4825
0
LINE
8
BLACK
6
CONTINUOUS
10
0.8175
20
0.4825
11
0.7625
21
0.4825
0
LINE
8
BLACK
6
CONTINUOUS
10
0.7625
20
0.4825
11
0.7625
21
0.5175
0
LINE
8
BLACK
6
CONTINUOUS
10
0.7625
20
0.5175
11
0.8175
21
0.5175
0
LINE
8
BLACK
6
CONTINUOUS
10
0.8175
20
0.5175
11
0.8175
21
0.4825
  0
ENDSEC
  0
EOF
