  0
SECTION
  2
HEADER
  9
$ANGBASE
  50
0.0
  9
$ANGDIR
  70
1
  9
$MEASUREMENT
  70
0
  0
ENDSEC
  0
SECTION
  2
TABLES
  0
TABLE
  2
LTYPE
  70
4
  0
LTYPE
  5
40F
  2
CONTINUOUS
  70
0
  3
Solid line
  72
65
  73
0
  40
0.0
  0
LTYPE
  5
410
  2
DASHDOT
 70
0
  3
Dash Dot ____ _ ____ _
 72
65
 73
4
 40
2.0
 49
1.25
 49
-0.25
 49
0.25
 49
-0.25
  0
LTYPE
  5
411
  2
DASHED
 70
0
  3
Dashed __ __ __ __ __
 72
65
 73
2
 40
0.75
 49
0.5
 49
-0.25
  0
LTYPE
  5
43B
  2
DOTTED
 70
0
  3
Dotted .  .  .  .
 72
65
 73
2
 40
0.2
 49
0.0
 49
-0.2
  0
ENDTAB
  0
TABLE
  2
STYLE
  70
4
  0
STYLE
  2
KICAD
  70
0
  40
0
  41
1
  42
1
  50
0
  71
0
  3
isocp.shx
  0
STYLE
  2
KICADB
  70
0
  40
0
  41
1
  42
1
  50
0
  71
0
  3
isocp.shx
  0
STYLE
  2
KICADI
  70
0
  40
0
  41
1
  42
1
  50
15
  71
0
  3
isocp.shx
  0
STYLE
  2
KICADBI
  70
0
  40
0
  41
1
  42
1
  50
15
  71
0
  3
isocp.shx
  0
ENDTAB
  0
TABLE
  2
LAYER
  70
1
  0
LAYER
  2
BLACK
  70
0
  62
7
  6
CONTINUOUS
  0
ENDTAB
  0
ENDSEC
  0
SECTION
  2
ENTITIES
0
LINE
8
BLACK
6
CONTINUOUS
10
0.621902
20
0.0306623
11
0.621614
21
0.0313583
0
LINE
8
BLACK
6
CONTINUOUS
10
0.621614
20
0.0313583
11
0.621614
21
0.163642
0
LINE
8
BLACK
6
CONTINUOUS
10
0.621614
20
0.163642
11
0.621902
21
0.164338
0
LINE
8
BLACK
6
CONTINUOUS
10
0.621902
20
0.164338
11
0.622598
21
0.164626
0
LINE
8
BLACK
6
CONTINUOUS
10
0.622598
20
0.164626
11
0.697402
21
0.164626
0
LINE
8
BLACK
6
CONTINUOUS
10
0.697402
20
0.164626
11
0.698098
21
0.164338
0
LINE
8
BLACK
6
CONTINUOUS
10
0.698098
20
0.164338
11
0.698386
21
0.163642
0
LINE
8
BLACK
6
CONTINUOUS
10
0.698386
20
0.163642
11
0.698386
21
0.0313583
0
LINE
8
BLACK
6
CONTINUOUS
10
0.698386
20
0.0313583
11
0.698098
21
0.0306623
0
LINE
8
BLACK
6
CONTINUOUS
10
0.698098
20
0.0306623
11
0.697402
21
0.030374
0
LINE
8
BLACK
6
CONTINUOUS
10
0.697402
20
0.030374
11
0.622598
21
0.030374
0
LINE
8
BLACK
6
CONTINUOUS
10
0.622598
20
0.030374
11
0.621902
21
0.0306623
0
LINE
8
BLACK
6
CONTINUOUS
10
0.623583
20
0.162657
11
0.623583
21
0.0323425
0
LINE
8
BLACK
6
CONTINUOUS
10
0.623583
20
0.0323425
11
0.696417
21
0.0323425
0
LINE
8
BLACK
6
CONTINUOUS
10
0.696417
20
0.0323425
11
0.696417
21
0.162657
0
LINE
8
BLACK
6
CONTINUOUS
10
0.696417
20
0.162657
11
0.623583
21
0.162657
0
LINE
8
BLACK
6
CONTINUOUS
10
0.909402
20
0.163162
11
0.909114
21
0.163858
0
LINE
8
BLACK
6
CONTINUOUS
10
0.909114
20
0.163858
11
0.909114
21
0.296142
0
LINE
8
BLACK
6
CONTINUOUS
10
0.909114
20
0.296142
11
0.909402
21
0.296838
0
LINE
8
BLACK
6
CONTINUOUS
10
0.909402
20
0.296838
11
0.910098
21
0.297126
0
LINE
8
BLACK
6
CONTINUOUS
10
0.910098
20
0.297126
11
0.984902
21
0.297126
0
LINE
8
BLACK
6
CONTINUOUS
10
0.984902
20
0.297126
11
0.985598
21
0.296838
0
LINE
8
BLACK
6
CONTINUOUS
10
0.985598
20
0.296838
11
0.985886
21
0.296142
0
LINE
8
BLACK
6
CONTINUOUS
10
0.985886
20
0.296142
11
0.985886
21
0.163858
0
LINE
8
BLACK
6
CONTINUOUS
10
0.985886
20
0.163858
11
0.985598
21
0.163162
0
LINE
8
BLACK
6
CONTINUOUS
10
0.985598
20
0.163162
11
0.984902
21
0.162874
0
LINE
8
BLACK
6
CONTINUOUS
10
0.984902
20
0.162874
11
0.910098
21
0.162874
0
LINE
8
BLACK
6
CONTINUOUS
10
0.910098
20
0.162874
11
0.909402
21
0.163162
0
LINE
8
BLACK
6
CONTINUOUS
10
0.911083
20
0.295157
11
0.911083
21
0.164843
0
LINE
8
BLACK
6
CONTINUOUS
10
0.911083
20
0.164843
11
0.983917
21
0.164843
0
LINE
8
BLACK
6
CONTINUOUS
10
0.983917
20
0.164843
11
0.983917
21
0.295157
0
LINE
8
BLACK
6
CONTINUOUS
10
0.983917
20
0.295157
11
0.911083
21
0.295157
0
LINE
8
BLACK
6
CONTINUOUS
10
0.593635
20
0.173005
11
0.593346
21
0.173701
0
LINE
8
BLACK
6
CONTINUOUS
10
0.593346
20
0.173701
11
0.593346
21
0.386299
0
LINE
8
BLACK
6
CONTINUOUS
10
0.593346
20
0.386299
11
0.593635
21
0.386995
0
LINE
8
BLACK
6
CONTINUOUS
10
0.593635
20
0.386995
11
0.594331
21
0.387283
0
LINE
8
BLACK
6
CONTINUOUS
10
0.594331
20
0.387283
11
0.885669
21
0.387283
0
LINE
8
BLACK
6
CONTINUOUS
10
0.885669
20
0.387283
11
0.886365
21
0.386995
0
LINE
8
BLACK
6
CONTINUOUS
10
0.886365
20
0.386995
11
0.886654
21
0.386299
0
LINE
8
BLACK
6
CONTINUOUS
10
0.886654
20
0.386299
11
0.886654
21
0.173701
0
LINE
8
BLACK
6
CONTINUOUS
10
0.886654
20
0.173701
11
0.886365
21
0.173005
0
LINE
8
BLACK
6
CONTINUOUS
10
0.886365
20
0.173005
11
0.885669
21
0.172717
0
LINE
8
BLACK
6
CONTINUOUS
10
0.885669
20
0.172717
11
0.594331
21
0.172717
0
LINE
8
BLACK
6
CONTINUOUS
10
0.594331
20
0.172717
11
0.593635
21
0.173005
0
LINE
8
BLACK
6
CONTINUOUS
10
0.595315
20
0.385315
11
0.595315
21
0.174685
0
LINE
8
BLACK
6
CONTINUOUS
10
0.595315
20
0.174685
11
0.884685
21
0.174685
0
LINE
8
BLACK
6
CONTINUOUS
10
0.884685
20
0.174685
11
0.884685
21
0.385315
0
LINE
8
BLACK
6
CONTINUOUS
10
0.884685
20
0.385315
11
0.595315
21
0.385315
0
LINE
8
BLACK
6
CONTINUOUS
10
0.909402
20
0.303162
11
0.909114
21
0.303858
0
LINE
8
BLACK
6
CONTINUOUS
10
0.909114
20
0.303858
11
0.909114
21
0.436142
0
LINE
8
BLACK
6
CONTINUOUS
10
0.909114
20
0.436142
11
0.909402
21
0.436838
0
LINE
8
BLACK
6
CONTINUOUS
10
0.909402
20
0.436838
11
0.910098
21
0.437126
0
LINE
8
BLACK
6
CONTINUOUS
10
0.910098
20
0.437126
11
0.984902
21
0.437126
0
LINE
8
BLACK
6
CONTINUOUS
10
0.984902
20
0.437126
11
0.985598
21
0.436838
0
LINE
8
BLACK
6
CONTINUOUS
10
0.985598
20
0.436838
11
0.985886
21
0.436142
0
LINE
8
BLACK
6
CONTINUOUS
10
0.985886
20
0.436142
11
0.985886
21
0.303858
0
LINE
8
BLACK
6
CONTINUOUS
10
0.985886
20
0.303858
11
0.985598
21
0.303162
0
LINE
8
BLACK
6
CONTINUOUS
10
0.985598
20
0.303162
11
0.984902
21
0.302874
0
LINE
8
BLACK
6
CONTINUOUS
10
0.984902
20
0.302874
11
0.910098
21
0.302874
0
LINE
8
BLACK
6
CONTINUOUS
10
0.910098
20
0.302874
11
0.909402
21
0.303162
0
LINE
8
BLACK
6
CONTINUOUS
10
0.911083
20
0.435157
11
0.911083
21
0.304843
0
LINE
8
BLACK
6
CONTINUOUS
10
0.911083
20
0.304843
11
0.983917
21
0.304843
0
LINE
8
BLACK
6
CONTINUOUS
10
0.983917
20
0.304843
11
0.983917
21
0.435157
0
LINE
8
BLACK
6
CONTINUOUS
10
0.983917
20
0.435157
11
0.911083
21
0.435157
0
LINE
8
BLACK
6
CONTINUOUS
10
0.751902
20
0.395662
11
0.751614
21
0.396358
0
LINE
8
BLACK
6
CONTINUOUS
10
0.751614
20
0.396358
11
0.751614
21
0.528642
0
LINE
8
BLACK
6
CONTINUOUS
10
0.751614
20
0.528642
11
0.751902
21
0.529338
0
LINE
8
BLACK
6
CONTINUOUS
10
0.751902
20
0.529338
11
0.752598
21
0.529626
0
LINE
8
BLACK
6
CONTINUOUS
10
0.752598
20
0.529626
11
0.827402
21
0.529626
0
LINE
8
BLACK
6
CONTINUOUS
10
0.827402
20
0.529626
11
0.828098
21
0.529338
0
LINE
8
BLACK
6
CONTINUOUS
10
0.828098
20
0.529338
11
0.828386
21
0.528642
0
LINE
8
BLACK
6
CONTINUOUS
10
0.828386
20
0.528642
11
0.828386
21
0.396358
0
LINE
8
BLACK
6
CONTINUOUS
10
0.828386
20
0.396358
11
0.828098
21
0.395662
0
LINE
8
BLACK
6
CONTINUOUS
10
0.828098
20
0.395662
11
0.827402
21
0.395374
0
LINE
8
BLACK
6
CONTINUOUS
10
0.827402
20
0.395374
11
0.752598
21
0.395374
0
LINE
8
BLACK
6
CONTINUOUS
10
0.752598
20
0.395374
11
0.751902
21
0.395662
0
LINE
8
BLACK
6
CONTINUOUS
10
0.753583
20
0.527657
11
0.753583
21
0.397343
0
LINE
8
BLACK
6
CONTINUOUS
10
0.753583
20
0.397343
11
0.826417
21
0.397343
0
LINE
8
BLACK
6
CONTINUOUS
10
0.826417
20
0.397343
11
0.826417
21
0.527657
0
LINE
8
BLACK
6
CONTINUOUS
10
0.826417
20
0.527657
11
0.753583
21
0.527657
0
LINE
8
BLACK
6
CONTINUOUS
10
0.661902
20
0.395662
11
0.661614
21
0.396358
0
LINE
8
BLACK
6
CONTINUOUS
10
0.661614
20
0.396358
11
0.661614
21
0.528642
0
LINE
8
BLACK
6
CONTINUOUS
10
0.661614
20
0.528642
11
0.661902
21
0.529338
0
LINE
8
BLACK
6
CONTINUOUS
10
0.661902
20
0.529338
11
0.662598
21
0.529626
0
LINE
8
BLACK
6
CONTINUOUS
10
0.662598
20
0.529626
11
0.737402
21
0.529626
0
LINE
8
BLACK
6
CONTINUOUS
10
0.737402
20
0.529626
11
0.738098
21
0.529338
0
LINE
8
BLACK
6
CONTINUOUS
10
0.738098
20
0.529338
11
0.738386
21
0.528642
0
LINE
8
BLACK
6
CONTINUOUS
10
0.738386
20
0.528642
11
0.738386
21
0.396358
0
LINE
8
BLACK
6
CONTINUOUS
10
0.738386
20
0.396358
11
0.738098
21
0.395662
0
LINE
8
BLACK
6
CONTINUOUS
10
0.738098
20
0.395662
11
0.737402
21
0.395374
0
LINE
8
BLACK
6
CONTINUOUS
10
0.737402
20
0.395374
11
0.662598
21
0.395374
0
LINE
8
BLACK
6
CONTINUOUS
10
0.662598
20
0.395374
11
0.661902
21
0.395662
0
LINE
8
BLACK
6
CONTINUOUS
10
0.663583
20
0.527657
11
0.663583
21
0.397343
0
LINE
8
BLACK
6
CONTINUOUS
10
0.663583
20
0.397343
11
0.736417
21
0.397343
0
LINE
8
BLACK
6
CONTINUOUS
10
0.736417
20
0.397343
11
0.736417
21
0.527657
0
LINE
8
BLACK
6
CONTINUOUS
10
0.736417
20
0.527657
11
0.663583
21
0.527657
0
LINE
8
BLACK
6
CONTINUOUS
10
0.346076
20
0.415997
11
0.345787
21
0.416693
0
LINE
8
BLACK
6
CONTINUOUS
10
0.345787
20
0.416693
11
0.345787
21
0.503307
0
LINE
8
BLACK
6
CONTINUOUS
10
0.345787
20
0.503307
11
0.346076
21
0.504003
0
LINE
8
BLACK
6
CONTINUOUS
10
0.346076
20
0.504003
11
0.346772
21
0.504291
0
LINE
8
BLACK
6
CONTINUOUS
10
0.346772
20
0.504291
11
0.555433
21
0.504291
0
LINE
8
BLACK
6
CONTINUOUS
10
0.555433
20
0.504291
11
0.556129
21
0.504003
0
LINE
8
BLACK
6
CONTINUOUS
10
0.556129
20
0.504003
11
0.556417
21
0.503307
0
LINE
8
BLACK
6
CONTINUOUS
10
0.556417
20
0.503307
11
0.556417
21
0.416693
0
LINE
8
BLACK
6
CONTINUOUS
10
0.556417
20
0.416693
11
0.556129
21
0.415997
0
LINE
8
BLACK
6
CONTINUOUS
10
0.556129
20
0.415997
11
0.555433
21
0.415709
0
LINE
8
BLACK
6
CONTINUOUS
10
0.555433
20
0.415709
11
0.346772
21
0.415709
0
LINE
8
BLACK
6
CONTINUOUS
10
0.346772
20
0.415709
11
0.346076
21
0.415997
0
LINE
8
BLACK
6
CONTINUOUS
10
0.347756
20
0.502323
11
0.347756
21
0.417677
0
LINE
8
BLACK
6
CONTINUOUS
10
0.347756
20
0.417677
11
0.554449
21
0.417677
0
LINE
8
BLACK
6
CONTINUOUS
10
0.554449
20
0.417677
11
0.554449
21
0.502323
0
LINE
8
BLACK
6
CONTINUOUS
10
0.554449
20
0.502323
11
0.347756
21
0.502323
  0
ENDSEC
  0
EOF
