  0
SECTION
  2
HEADER
  9
$ANGBASE
  50
0.0
  9
$ANGDIR
  70
1
  9
$MEASUREMENT
  70
0
  0
ENDSEC
  0
SECTION
  2
TABLES
  0
TABLE
  2
LTYPE
  70
4
  0
LTYPE
  5
40F
  2
CONTINUOUS
  70
0
  3
Solid line
  72
65
  73
0
  40
0.0
  0
LTYPE
  5
410
  2
DASHDOT
 70
0
  3
Dash Dot ____ _ ____ _
 72
65
 73
4
 40
2.0
 49
1.25
 49
-0.25
 49
0.25
 49
-0.25
  0
LTYPE
  5
411
  2
DASHED
 70
0
  3
Dashed __ __ __ __ __
 72
65
 73
2
 40
0.75
 49
0.5
 49
-0.25
  0
LTYPE
  5
43B
  2
DOTTED
 70
0
  3
Dotted .  .  .  .
 72
65
 73
2
 40
0.2
 49
0.0
 49
-0.2
  0
ENDTAB
  0
TABLE
  2
STYLE
  70
4
  0
STYLE
  2
KICAD
  70
0
  40
0
  41
1
  42
1
  50
0
  71
0
  3
isocp.shx
  0
STYLE
  2
KICADB
  70
0
  40
0
  41
1
  42
1
  50
0
  71
0
  3
isocp.shx
  0
STYLE
  2
KICADI
  70
0
  40
0
  41
1
  42
1
  50
15
  71
0
  3
isocp.shx
  0
STYLE
  2
KICADBI
  70
0
  40
0
  41
1
  42
1
  50
15
  71
0
  3
isocp.shx
  0
ENDTAB
  0
TABLE
  2
LAYER
  70
1
  0
LAYER
  2
BLACK
  70
0
  62
7
  6
CONTINUOUS
  0
ENDTAB
  0
ENDSEC
  0
SECTION
  2
ENTITIES
0
LINE
8
BLACK
6
CONTINUOUS
10
1.00261
20
0.0376081
11
1.00203
21
0.039
0
LINE
8
BLACK
6
CONTINUOUS
10
1.00203
20
0.039
11
1.00203
21
0.699
0
LINE
8
BLACK
6
CONTINUOUS
10
1.00203
20
0.699
11
1.00261
21
0.700392
0
LINE
8
BLACK
6
CONTINUOUS
10
1.00261
20
0.700392
11
1.004
21
0.700969
0
LINE
8
BLACK
6
CONTINUOUS
10
1.004
20
0.700969
11
1.209
21
0.700969
0
LINE
8
BLACK
6
CONTINUOUS
10
1.209
20
0.700969
11
1.21039
21
0.700392
0
LINE
8
BLACK
6
CONTINUOUS
10
1.21039
20
0.700392
11
1.21097
21
0.699
0
LINE
8
BLACK
6
CONTINUOUS
10
1.21097
20
0.699
11
1.21097
21
0.039
0
LINE
8
BLACK
6
CONTINUOUS
10
1.21097
20
0.039
11
1.21039
21
0.0376081
0
LINE
8
BLACK
6
CONTINUOUS
10
1.21039
20
0.0376081
11
1.209
21
0.0370315
0
LINE
8
BLACK
6
CONTINUOUS
10
1.209
20
0.0370315
11
1.004
21
0.0370315
0
LINE
8
BLACK
6
CONTINUOUS
10
1.004
20
0.0370315
11
1.00261
21
0.0376081
0
LINE
8
BLACK
6
CONTINUOUS
10
1.00597
20
0.697031
11
1.00597
21
0.0409685
0
LINE
8
BLACK
6
CONTINUOUS
10
1.00597
20
0.0409685
11
1.20703
21
0.0409685
0
LINE
8
BLACK
6
CONTINUOUS
10
1.20703
20
0.0409685
11
1.20703
21
0.697031
0
LINE
8
BLACK
6
CONTINUOUS
10
1.20703
20
0.697031
11
1.00597
21
0.697031
0
LINE
8
BLACK
6
CONTINUOUS
10
1.17143
20
0.358676
11
1.1715
21
0.358678
0
LINE
8
BLACK
6
CONTINUOUS
10
1.1715
20
0.358678
11
1.17712
21
0.356803
0
LINE
8
BLACK
6
CONTINUOUS
10
1.17712
20
0.356803
11
1.17802
21
0.356315
0
LINE
8
BLACK
6
CONTINUOUS
10
1.17802
20
0.356315
11
1.17811
21
0.356164
0
LINE
8
BLACK
6
CONTINUOUS
10
1.17811
20
0.356164
11
1.17827
21
0.35609
0
LINE
8
BLACK
6
CONTINUOUS
10
1.17827
20
0.35609
11
1.18202
21
0.35234
0
LINE
8
BLACK
6
CONTINUOUS
10
1.18202
20
0.35234
11
1.18261
21
0.3515
0
LINE
8
BLACK
6
CONTINUOUS
10
1.18261
20
0.3515
11
1.18263
21
0.351324
0
LINE
8
BLACK
6
CONTINUOUS
10
1.18263
20
0.351324
11
1.18274
21
0.351186
0
LINE
8
BLACK
6
CONTINUOUS
10
1.18274
20
0.351186
11
1.18461
21
0.345562
0
LINE
8
BLACK
6
CONTINUOUS
10
1.18461
20
0.345562
11
1.18474
21
0.344689
0
LINE
8
BLACK
6
CONTINUOUS
10
1.18474
20
0.344689
11
1.18476
21
0.344628
0
LINE
8
BLACK
6
CONTINUOUS
10
1.18476
20
0.344628
11
1.18476
21
0.340879
0
LINE
8
BLACK
6
CONTINUOUS
10
1.18476
20
0.340879
11
1.18458
21
0.339869
0
LINE
8
BLACK
6
CONTINUOUS
10
1.18458
20
0.339869
11
1.18329
21
0.338321
0
LINE
8
BLACK
6
CONTINUOUS
10
1.18329
20
0.338321
11
1.1813
21
0.337971
0
LINE
8
BLACK
6
CONTINUOUS
10
1.1813
20
0.337971
11
1.17955
21
0.338981
0
LINE
8
BLACK
6
CONTINUOUS
10
1.17955
20
0.338981
11
1.17886
21
0.340879
0
LINE
8
BLACK
6
CONTINUOUS
10
1.17886
20
0.340879
11
1.17886
21
0.344149
0
LINE
8
BLACK
6
CONTINUOUS
10
1.17886
20
0.344149
11
1.17735
21
0.348657
0
LINE
8
BLACK
6
CONTINUOUS
10
1.17735
20
0.348657
11
1.17459
21
0.351421
0
LINE
8
BLACK
6
CONTINUOUS
10
1.17459
20
0.351421
11
1.17008
21
0.352924
0
LINE
8
BLACK
6
CONTINUOUS
10
1.17008
20
0.352924
11
1.14244
21
0.352924
0
LINE
8
BLACK
6
CONTINUOUS
10
1.14244
20
0.352924
11
1.14143
21
0.353102
0
LINE
8
BLACK
6
CONTINUOUS
10
1.14143
20
0.353102
11
1.13988
21
0.3544
0
LINE
8
BLACK
6
CONTINUOUS
10
1.13988
20
0.3544
11
1.13953
21
0.356389
0
LINE
8
BLACK
6
CONTINUOUS
10
1.13953
20
0.356389
11
1.14054
21
0.358139
0
LINE
8
BLACK
6
CONTINUOUS
10
1.14054
20
0.358139
11
1.14244
21
0.358829
0
LINE
8
BLACK
6
CONTINUOUS
10
1.14244
20
0.358829
11
1.17056
21
0.358829
0
LINE
8
BLACK
6
CONTINUOUS
10
1.17056
20
0.358829
11
1.17143
21
0.358676
0
LINE
8
BLACK
6
CONTINUOUS
10
1.17532
20
0.398021
11
1.17546
21
0.397908
0
LINE
8
BLACK
6
CONTINUOUS
10
1.17546
20
0.397908
11
1.17563
21
0.397888
0
LINE
8
BLACK
6
CONTINUOUS
10
1.17563
20
0.397888
11
1.17938
21
0.396013
0
LINE
8
BLACK
6
CONTINUOUS
10
1.17938
20
0.396013
11
1.18009
21
0.395487
0
LINE
8
BLACK
6
CONTINUOUS
10
1.18009
20
0.395487
11
1.18015
21
0.39546
0
LINE
8
BLACK
6
CONTINUOUS
10
1.18015
20
0.39546
11
1.18202
21
0.393585
0
LINE
8
BLACK
6
CONTINUOUS
10
1.18202
20
0.393585
11
1.18253
21
0.392862
0
LINE
8
BLACK
6
CONTINUOUS
10
1.18253
20
0.392862
11
1.18258
21
0.392818
0
LINE
8
BLACK
6
CONTINUOUS
10
1.18258
20
0.392818
11
1.18445
21
0.389068
0
LINE
8
BLACK
6
CONTINUOUS
10
1.18445
20
0.389068
11
1.18474
21
0.388085
0
LINE
8
BLACK
6
CONTINUOUS
10
1.18474
20
0.388085
11
1.1847
21
0.387914
0
LINE
8
BLACK
6
CONTINUOUS
10
1.1847
20
0.387914
11
1.18476
21
0.387748
0
LINE
8
BLACK
6
CONTINUOUS
10
1.18476
20
0.387748
11
1.18476
21
0.380249
0
LINE
8
BLACK
6
CONTINUOUS
10
1.18476
20
0.380249
11
1.18458
21
0.379239
0
LINE
8
BLACK
6
CONTINUOUS
10
1.18458
20
0.379239
11
1.18447
21
0.379103
0
LINE
8
BLACK
6
CONTINUOUS
10
1.18447
20
0.379103
11
1.18445
21
0.378928
0
LINE
8
BLACK
6
CONTINUOUS
10
1.18445
20
0.378928
11
1.18258
21
0.375179
0
LINE
8
BLACK
6
CONTINUOUS
10
1.18258
20
0.375179
11
1.18205
21
0.37447
0
LINE
8
BLACK
6
CONTINUOUS
10
1.18205
20
0.37447
11
1.18202
21
0.374411
0
LINE
8
BLACK
6
CONTINUOUS
10
1.18202
20
0.374411
11
1.18015
21
0.372536
0
LINE
8
BLACK
6
CONTINUOUS
10
1.18015
20
0.372536
11
1.17943
21
0.37203
0
LINE
8
BLACK
6
CONTINUOUS
10
1.17943
20
0.37203
11
1.17938
21
0.371983
0
LINE
8
BLACK
6
CONTINUOUS
10
1.17938
20
0.371983
11
1.17563
21
0.370109
0
LINE
8
BLACK
6
CONTINUOUS
10
1.17563
20
0.370109
11
1.17465
21
0.369816
0
LINE
8
BLACK
6
CONTINUOUS
10
1.17465
20
0.369816
11
1.17448
21
0.369857
0
LINE
8
BLACK
6
CONTINUOUS
10
1.17448
20
0.369857
11
1.17431
21
0.369797
0
LINE
8
BLACK
6
CONTINUOUS
10
1.17431
20
0.369797
11
1.15931
21
0.369797
0
LINE
8
BLACK
6
CONTINUOUS
10
1.15931
20
0.369797
11
1.15873
21
0.369899
0
LINE
8
BLACK
6
CONTINUOUS
10
1.15873
20
0.369899
11
1.1586
21
0.369885
0
LINE
8
BLACK
6
CONTINUOUS
10
1.1586
20
0.369885
11
1.1511
21
0.37176
0
LINE
8
BLACK
6
CONTINUOUS
10
1.1511
20
0.37176
11
1.15019
21
0.372163
0
LINE
8
BLACK
6
CONTINUOUS
10
1.15019
20
0.372163
11
1.15018
21
0.372167
0
LINE
8
BLACK
6
CONTINUOUS
10
1.15018
20
0.372167
11
1.14455
21
0.375917
0
LINE
8
BLACK
6
CONTINUOUS
10
1.14455
20
0.375917
11
1.14423
21
0.376228
0
LINE
8
BLACK
6
CONTINUOUS
10
1.14423
20
0.376228
11
1.1441
21
0.376286
0
LINE
8
BLACK
6
CONTINUOUS
10
1.1441
20
0.376286
11
1.14223
21
0.378161
0
LINE
8
BLACK
6
CONTINUOUS
10
1.14223
20
0.378161
11
1.14172
21
0.378884
0
LINE
8
BLACK
6
CONTINUOUS
10
1.14172
20
0.378884
11
1.14167
21
0.378928
0
LINE
8
BLACK
6
CONTINUOUS
10
1.14167
20
0.378928
11
1.1398
21
0.382678
0
LINE
8
BLACK
6
CONTINUOUS
10
1.1398
20
0.382678
11
1.13951
21
0.383661
0
LINE
8
BLACK
6
CONTINUOUS
10
1.13951
20
0.383661
11
1.13955
21
0.383832
0
LINE
8
BLACK
6
CONTINUOUS
10
1.13955
20
0.383832
11
1.13949
21
0.383998
0
LINE
8
BLACK
6
CONTINUOUS
10
1.13949
20
0.383998
11
1.13949
21
0.391497
0
LINE
8
BLACK
6
CONTINUOUS
10
1.13949
20
0.391497
11
1.13967
21
0.392507
0
LINE
8
BLACK
6
CONTINUOUS
10
1.13967
20
0.392507
11
1.14096
21
0.394054
0
LINE
8
BLACK
6
CONTINUOUS
10
1.14096
20
0.394054
11
1.14295
21
0.394405
0
LINE
8
BLACK
6
CONTINUOUS
10
1.14295
20
0.394405
11
1.1447
21
0.393395
0
LINE
8
BLACK
6
CONTINUOUS
10
1.1447
20
0.393395
11
1.14539
21
0.391497
0
LINE
8
BLACK
6
CONTINUOUS
10
1.14539
20
0.391497
11
1.14539
21
0.384695
0
LINE
8
BLACK
6
CONTINUOUS
10
1.14539
20
0.384695
11
1.14674
21
0.381998
0
LINE
8
BLACK
6
CONTINUOUS
10
1.14674
20
0.381998
11
1.14807
21
0.380669
0
LINE
8
BLACK
6
CONTINUOUS
10
1.14807
20
0.380669
11
1.15303
21
0.377365
0
LINE
8
BLACK
6
CONTINUOUS
10
1.15303
20
0.377365
11
1.15594
21
0.376636
0
LINE
8
BLACK
6
CONTINUOUS
10
1.15594
20
0.376636
11
1.1548
21
0.378928
0
LINE
8
BLACK
6
CONTINUOUS
10
1.1548
20
0.378928
11
1.1545
21
0.379911
0
LINE
8
BLACK
6
CONTINUOUS
10
1.1545
20
0.379911
11
1.15455
21
0.380083
0
LINE
8
BLACK
6
CONTINUOUS
10
1.15455
20
0.380083
11
1.15449
21
0.380249
0
LINE
8
BLACK
6
CONTINUOUS
10
1.15449
20
0.380249
11
1.15449
21
0.387748
0
LINE
8
BLACK
6
CONTINUOUS
10
1.15449
20
0.387748
11
1.15466
21
0.388758
0
LINE
8
BLACK
6
CONTINUOUS
10
1.15466
20
0.388758
11
1.15478
21
0.388893
0
LINE
8
BLACK
6
CONTINUOUS
10
1.15478
20
0.388893
11
1.1548
21
0.389068
0
LINE
8
BLACK
6
CONTINUOUS
10
1.1548
20
0.389068
11
1.15667
21
0.392818
0
LINE
8
BLACK
6
CONTINUOUS
10
1.15667
20
0.392818
11
1.1572
21
0.393527
0
LINE
8
BLACK
6
CONTINUOUS
10
1.1572
20
0.393527
11
1.15723
21
0.393585
0
LINE
8
BLACK
6
CONTINUOUS
10
1.15723
20
0.393585
11
1.1591
21
0.39546
0
LINE
8
BLACK
6
CONTINUOUS
10
1.1591
20
0.39546
11
1.15982
21
0.395966
0
LINE
8
BLACK
6
CONTINUOUS
10
1.15982
20
0.395966
11
1.15987
21
0.396013
0
LINE
8
BLACK
6
CONTINUOUS
10
1.15987
20
0.396013
11
1.16362
21
0.397888
0
LINE
8
BLACK
6
CONTINUOUS
10
1.16362
20
0.397888
11
1.1646
21
0.39818
0
LINE
8
BLACK
6
CONTINUOUS
10
1.1646
20
0.39818
11
1.16477
21
0.398139
0
LINE
8
BLACK
6
CONTINUOUS
10
1.16477
20
0.398139
11
1.16494
21
0.398199
0
LINE
8
BLACK
6
CONTINUOUS
10
1.16494
20
0.398199
11
1.17431
21
0.398199
0
LINE
8
BLACK
6
CONTINUOUS
10
1.17431
20
0.398199
11
1.17532
21
0.398021
0
LINE
8
BLACK
6
CONTINUOUS
10
1.16563
20
0.392294
11
1.16294
21
0.390945
0
LINE
8
BLACK
6
CONTINUOUS
10
1.16294
20
0.390945
11
1.16174
21
0.389748
0
LINE
8
BLACK
6
CONTINUOUS
10
1.16174
20
0.389748
11
1.16039
21
0.387051
0
LINE
8
BLACK
6
CONTINUOUS
10
1.16039
20
0.387051
11
1.16039
21
0.380946
0
LINE
8
BLACK
6
CONTINUOUS
10
1.16039
20
0.380946
11
1.16174
21
0.378248
0
LINE
8
BLACK
6
CONTINUOUS
10
1.16174
20
0.378248
11
1.16294
21
0.377051
0
LINE
8
BLACK
6
CONTINUOUS
10
1.16294
20
0.377051
11
1.16563
21
0.375702
0
LINE
8
BLACK
6
CONTINUOUS
10
1.16563
20
0.375702
11
1.17361
21
0.375702
0
LINE
8
BLACK
6
CONTINUOUS
10
1.17361
20
0.375702
11
1.17631
21
0.377051
0
LINE
8
BLACK
6
CONTINUOUS
10
1.17631
20
0.377051
11
1.17751
21
0.378248
0
LINE
8
BLACK
6
CONTINUOUS
10
1.17751
20
0.378248
11
1.17886
21
0.380946
0
LINE
8
BLACK
6
CONTINUOUS
10
1.17886
20
0.380946
11
1.17886
21
0.387051
0
LINE
8
BLACK
6
CONTINUOUS
10
1.17886
20
0.387051
11
1.17751
21
0.389748
0
LINE
8
BLACK
6
CONTINUOUS
10
1.17751
20
0.389748
11
1.17631
21
0.390945
0
LINE
8
BLACK
6
CONTINUOUS
10
1.17631
20
0.390945
11
1.17361
21
0.392294
0
LINE
8
BLACK
6
CONTINUOUS
10
1.17361
20
0.392294
11
1.16563
21
0.392294
  0
ENDSEC
  0
EOF
