  0
SECTION
  2
HEADER
  9
$ANGBASE
  50
0.0
  9
$ANGDIR
  70
1
  9
$MEASUREMENT
  70
0
  0
ENDSEC
  0
SECTION
  2
TABLES
  0
TABLE
  2
LTYPE
  70
4
  0
LTYPE
  5
40F
  2
CONTINUOUS
  70
0
  3
Solid line
  72
65
  73
0
  40
0.0
  0
LTYPE
  5
410
  2
DASHDOT
 70
0
  3
Dash Dot ____ _ ____ _
 72
65
 73
4
 40
2.0
 49
1.25
 49
-0.25
 49
0.25
 49
-0.25
  0
LTYPE
  5
411
  2
DASHED
 70
0
  3
Dashed __ __ __ __ __
 72
65
 73
2
 40
0.75
 49
0.5
 49
-0.25
  0
LTYPE
  5
43B
  2
DOTTED
 70
0
  3
Dotted .  .  .  .
 72
65
 73
2
 40
0.2
 49
0.0
 49
-0.2
  0
ENDTAB
  0
TABLE
  2
STYLE
  70
4
  0
STYLE
  2
KICAD
  70
0
  40
0
  41
1
  42
1
  50
0
  71
0
  3
isocp.shx
  0
STYLE
  2
KICADB
  70
0
  40
0
  41
1
  42
1
  50
0
  71
0
  3
isocp.shx
  0
STYLE
  2
KICADI
  70
0
  40
0
  41
1
  42
1
  50
15
  71
0
  3
isocp.shx
  0
STYLE
  2
KICADBI
  70
0
  40
0
  41
1
  42
1
  50
15
  71
0
  3
isocp.shx
  0
ENDTAB
  0
TABLE
  2
LAYER
  70
1
  0
LAYER
  2
BLACK
  70
0
  62
7
  6
CONTINUOUS
  0
ENDTAB
  0
ENDSEC
  0
SECTION
  2
ENTITIES
0
LINE
8
BLACK
6
CONTINUOUS
10
0.592454
20
0.173005
11
0.592165
21
0.173701
0
LINE
8
BLACK
6
CONTINUOUS
10
0.592165
20
0.173701
11
0.592165
21
0.386299
0
LINE
8
BLACK
6
CONTINUOUS
10
0.592165
20
0.386299
11
0.592454
21
0.386995
0
LINE
8
BLACK
6
CONTINUOUS
10
0.592454
20
0.386995
11
0.59315
21
0.387283
0
LINE
8
BLACK
6
CONTINUOUS
10
0.59315
20
0.387283
11
0.88685
21
0.387283
0
LINE
8
BLACK
6
CONTINUOUS
10
0.88685
20
0.387283
11
0.887546
21
0.386995
0
LINE
8
BLACK
6
CONTINUOUS
10
0.887546
20
0.386995
11
0.887835
21
0.386299
0
LINE
8
BLACK
6
CONTINUOUS
10
0.887835
20
0.386299
11
0.887835
21
0.173701
0
LINE
8
BLACK
6
CONTINUOUS
10
0.887835
20
0.173701
11
0.887546
21
0.173005
0
LINE
8
BLACK
6
CONTINUOUS
10
0.887546
20
0.173005
11
0.88685
21
0.172717
0
LINE
8
BLACK
6
CONTINUOUS
10
0.88685
20
0.172717
11
0.59315
21
0.172717
0
LINE
8
BLACK
6
CONTINUOUS
10
0.59315
20
0.172717
11
0.592454
21
0.173005
0
LINE
8
BLACK
6
CONTINUOUS
10
0.594134
20
0.385315
11
0.594134
21
0.174685
0
LINE
8
BLACK
6
CONTINUOUS
10
0.594134
20
0.174685
11
0.885866
21
0.174685
0
LINE
8
BLACK
6
CONTINUOUS
10
0.885866
20
0.174685
11
0.885866
21
0.385315
0
LINE
8
BLACK
6
CONTINUOUS
10
0.885866
20
0.385315
11
0.594134
21
0.385315
0
LINE
8
BLACK
6
CONTINUOUS
10
0.346076
20
0.415997
11
0.345787
21
0.416693
0
LINE
8
BLACK
6
CONTINUOUS
10
0.345787
20
0.416693
11
0.345787
21
0.503307
0
LINE
8
BLACK
6
CONTINUOUS
10
0.345787
20
0.503307
11
0.346076
21
0.504003
0
LINE
8
BLACK
6
CONTINUOUS
10
0.346076
20
0.504003
11
0.346772
21
0.504291
0
LINE
8
BLACK
6
CONTINUOUS
10
0.346772
20
0.504291
11
0.555433
21
0.504291
0
LINE
8
BLACK
6
CONTINUOUS
10
0.555433
20
0.504291
11
0.556129
21
0.504003
0
LINE
8
BLACK
6
CONTINUOUS
10
0.556129
20
0.504003
11
0.556417
21
0.503307
0
LINE
8
BLACK
6
CONTINUOUS
10
0.556417
20
0.503307
11
0.556417
21
0.416693
0
LINE
8
BLACK
6
CONTINUOUS
10
0.556417
20
0.416693
11
0.556129
21
0.415997
0
LINE
8
BLACK
6
CONTINUOUS
10
0.556129
20
0.415997
11
0.555433
21
0.415709
0
LINE
8
BLACK
6
CONTINUOUS
10
0.555433
20
0.415709
11
0.346772
21
0.415709
0
LINE
8
BLACK
6
CONTINUOUS
10
0.346772
20
0.415709
11
0.346076
21
0.415997
0
LINE
8
BLACK
6
CONTINUOUS
10
0.347756
20
0.502323
11
0.347756
21
0.417677
0
LINE
8
BLACK
6
CONTINUOUS
10
0.347756
20
0.417677
11
0.554449
21
0.417677
0
LINE
8
BLACK
6
CONTINUOUS
10
0.554449
20
0.417677
11
0.554449
21
0.502323
0
LINE
8
BLACK
6
CONTINUOUS
10
0.554449
20
0.502323
11
0.347756
21
0.502323
  0
ENDSEC
  0
EOF
