  0
SECTION
  2
HEADER
  9
$ANGBASE
  50
0.0
  9
$ANGDIR
  70
1
  9
$MEASUREMENT
  70
0
  0
ENDSEC
  0
SECTION
  2
TABLES
  0
TABLE
  2
LTYPE
  70
4
  0
LTYPE
  5
40F
  2
CONTINUOUS
  70
0
  3
Solid line
  72
65
  73
0
  40
0.0
  0
LTYPE
  5
410
  2
DASHDOT
 70
0
  3
Dash Dot ____ _ ____ _
 72
65
 73
4
 40
2.0
 49
1.25
 49
-0.25
 49
0.25
 49
-0.25
  0
LTYPE
  5
411
  2
DASHED
 70
0
  3
Dashed __ __ __ __ __
 72
65
 73
2
 40
0.75
 49
0.5
 49
-0.25
  0
LTYPE
  5
43B
  2
DOTTED
 70
0
  3
Dotted .  .  .  .
 72
65
 73
2
 40
0.2
 49
0.0
 49
-0.2
  0
ENDTAB
  0
TABLE
  2
STYLE
  70
4
  0
STYLE
  2
KICAD
  70
0
  40
0
  41
1
  42
1
  50
0
  71
0
  3
isocp.shx
  0
STYLE
  2
KICADB
  70
0
  40
0
  41
1
  42
1
  50
0
  71
0
  3
isocp.shx
  0
STYLE
  2
KICADI
  70
0
  40
0
  41
1
  42
1
  50
15
  71
0
  3
isocp.shx
  0
STYLE
  2
KICADBI
  70
0
  40
0
  41
1
  42
1
  50
15
  71
0
  3
isocp.shx
  0
ENDTAB
  0
TABLE
  2
LAYER
  70
1
  0
LAYER
  2
BLACK
  70
0
  62
7
  6
CONTINUOUS
  0
ENDTAB
  0
ENDSEC
  0
SECTION
  2
ENTITIES
0
LINE
8
BLACK
6
CONTINUOUS
10
1.1166
20
0.170615
11
1.12489
21
0.168394
0
LINE
8
BLACK
6
CONTINUOUS
10
1.12489
20
0.168394
11
1.13266
21
0.164769
0
LINE
8
BLACK
6
CONTINUOUS
10
1.13266
20
0.164769
11
1.13969
21
0.159849
0
LINE
8
BLACK
6
CONTINUOUS
10
1.13969
20
0.159849
11
1.14575
21
0.153783
0
LINE
8
BLACK
6
CONTINUOUS
10
1.14575
20
0.153783
11
1.15067
21
0.146756
0
LINE
8
BLACK
6
CONTINUOUS
10
1.15067
20
0.146756
11
1.1543
21
0.138981
0
LINE
8
BLACK
6
CONTINUOUS
10
1.1543
20
0.138981
11
1.15652
21
0.130695
0
LINE
8
BLACK
6
CONTINUOUS
10
1.15652
20
0.130695
11
1.15727
21
0.12215
0
LINE
8
BLACK
6
CONTINUOUS
10
1.15727
20
0.12215
11
1.15652
21
0.113604
0
LINE
8
BLACK
6
CONTINUOUS
10
1.15652
20
0.113604
11
1.1543
21
0.105318
0
LINE
8
BLACK
6
CONTINUOUS
10
1.1543
20
0.105318
11
1.15067
21
0.0975433
0
LINE
8
BLACK
6
CONTINUOUS
10
1.15067
20
0.0975433
11
1.14575
21
0.0905163
0
LINE
8
BLACK
6
CONTINUOUS
10
1.14575
20
0.0905163
11
1.13969
21
0.0844506
0
LINE
8
BLACK
6
CONTINUOUS
10
1.13969
20
0.0844506
11
1.13266
21
0.0795302
0
LINE
8
BLACK
6
CONTINUOUS
10
1.13266
20
0.0795302
11
1.12489
21
0.0759049
0
LINE
8
BLACK
6
CONTINUOUS
10
1.12489
20
0.0759049
11
1.1166
21
0.0736846
0
LINE
8
BLACK
6
CONTINUOUS
10
1.1166
20
0.0736846
11
1.10806
21
0.072937
0
LINE
8
BLACK
6
CONTINUOUS
10
1.10806
20
0.072937
11
1.09951
21
0.0736846
0
LINE
8
BLACK
6
CONTINUOUS
10
1.09951
20
0.0736846
11
1.09122
21
0.0759049
0
LINE
8
BLACK
6
CONTINUOUS
10
1.09122
20
0.0759049
11
1.08345
21
0.0795302
0
LINE
8
BLACK
6
CONTINUOUS
10
1.08345
20
0.0795302
11
1.07642
21
0.0844506
0
LINE
8
BLACK
6
CONTINUOUS
10
1.07642
20
0.0844506
11
1.07036
21
0.0905163
0
LINE
8
BLACK
6
CONTINUOUS
10
1.07036
20
0.0905163
11
1.06544
21
0.0975433
0
LINE
8
BLACK
6
CONTINUOUS
10
1.06544
20
0.0975433
11
1.06181
21
0.105318
0
LINE
8
BLACK
6
CONTINUOUS
10
1.06181
20
0.105318
11
1.05959
21
0.113604
0
LINE
8
BLACK
6
CONTINUOUS
10
1.05959
20
0.113604
11
1.05884
21
0.12215
0
LINE
8
BLACK
6
CONTINUOUS
10
1.05884
20
0.12215
11
1.05959
21
0.130695
0
LINE
8
BLACK
6
CONTINUOUS
10
1.05959
20
0.130695
11
1.06181
21
0.138981
0
LINE
8
BLACK
6
CONTINUOUS
10
1.06181
20
0.138981
11
1.06544
21
0.146756
0
LINE
8
BLACK
6
CONTINUOUS
10
1.06544
20
0.146756
11
1.07036
21
0.153783
0
LINE
8
BLACK
6
CONTINUOUS
10
1.07036
20
0.153783
11
1.07642
21
0.159849
0
LINE
8
BLACK
6
CONTINUOUS
10
1.07642
20
0.159849
11
1.08345
21
0.164769
0
LINE
8
BLACK
6
CONTINUOUS
10
1.08345
20
0.164769
11
1.09122
21
0.168394
0
LINE
8
BLACK
6
CONTINUOUS
10
1.09122
20
0.168394
11
1.09951
21
0.170615
0
LINE
8
BLACK
6
CONTINUOUS
10
1.09951
20
0.170615
11
1.10806
21
0.171362
0
LINE
8
BLACK
6
CONTINUOUS
10
1.10806
20
0.171362
11
1.1166
21
0.170615
0
LINE
8
BLACK
6
CONTINUOUS
10
1.40865
20
0.317793
11
1.42213
21
0.316018
0
LINE
8
BLACK
6
CONTINUOUS
10
1.42213
20
0.316018
11
1.43532
21
0.312706
0
LINE
8
BLACK
6
CONTINUOUS
10
1.43532
20
0.312706
11
1.44804
21
0.307899
0
LINE
8
BLACK
6
CONTINUOUS
10
1.44804
20
0.307899
11
1.46012
21
0.301662
0
LINE
8
BLACK
6
CONTINUOUS
10
1.46012
20
0.301662
11
1.47141
21
0.294078
0
LINE
8
BLACK
6
CONTINUOUS
10
1.47141
20
0.294078
11
1.48175
21
0.285247
0
LINE
8
BLACK
6
CONTINUOUS
10
1.48175
20
0.285247
11
1.49101
21
0.275286
0
LINE
8
BLACK
6
CONTINUOUS
10
1.49101
20
0.275286
11
1.49906
21
0.264327
0
LINE
8
BLACK
6
CONTINUOUS
10
1.49906
20
0.264327
11
1.50579
21
0.252516
0
LINE
8
BLACK
6
CONTINUOUS
10
1.50579
20
0.252516
11
1.51113
21
0.240008
0
LINE
8
BLACK
6
CONTINUOUS
10
1.51113
20
0.240008
11
1.51499
21
0.226971
0
LINE
8
BLACK
6
CONTINUOUS
10
1.51499
20
0.226971
11
1.51733
21
0.213575
0
LINE
8
BLACK
6
CONTINUOUS
10
1.51733
20
0.213575
11
1.51811
21
0.2
0
LINE
8
BLACK
6
CONTINUOUS
10
1.51811
20
0.2
11
1.51788
21
0.192584
0
LINE
8
BLACK
6
CONTINUOUS
10
1.51788
20
0.192584
11
1.51624
21
0.179084
0
LINE
8
BLACK
6
CONTINUOUS
10
1.51624
20
0.179084
11
1.51307
21
0.165862
0
LINE
8
BLACK
6
CONTINUOUS
10
1.51307
20
0.165862
11
1.5084
21
0.153093
0
LINE
8
BLACK
6
CONTINUOUS
10
1.5084
20
0.153093
11
1.50229
21
0.140945
0
LINE
8
BLACK
6
CONTINUOUS
10
1.50229
20
0.140945
11
1.49482
21
0.12958
0
LINE
8
BLACK
6
CONTINUOUS
10
1.49482
20
0.12958
11
1.4861
21
0.119148
0
LINE
8
BLACK
6
CONTINUOUS
10
1.4861
20
0.119148
11
1.47624
21
0.109788
0
LINE
8
BLACK
6
CONTINUOUS
10
1.47624
20
0.109788
11
1.46536
21
0.101623
0
LINE
8
BLACK
6
CONTINUOUS
10
1.46536
20
0.101623
11
1.45362
21
0.094763
0
LINE
8
BLACK
6
CONTINUOUS
10
1.45362
20
0.094763
11
1.44117
21
0.0892974
0
LINE
8
BLACK
6
CONTINUOUS
10
1.44117
20
0.0892974
11
1.42817
21
0.0852991
0
LINE
8
BLACK
6
CONTINUOUS
10
1.42817
20
0.0852991
11
1.4148
21
0.0828211
0
LINE
8
BLACK
6
CONTINUOUS
10
1.4148
20
0.0828211
11
1.40124
21
0.0818962
0
LINE
8
BLACK
6
CONTINUOUS
10
1.40124
20
0.0818962
11
1.38765
21
0.0825368
0
LINE
8
BLACK
6
CONTINUOUS
10
1.38765
20
0.0825368
11
1.37424
21
0.0847343
0
LINE
8
BLACK
6
CONTINUOUS
10
1.37424
20
0.0847343
11
1.36116
21
0.0884595
0
LINE
8
BLACK
6
CONTINUOUS
10
1.36116
20
0.0884595
11
1.34859
21
0.0936631
0
LINE
8
BLACK
6
CONTINUOUS
10
1.34859
20
0.0936631
11
1.33671
21
0.100276
0
LINE
8
BLACK
6
CONTINUOUS
10
1.33671
20
0.100276
11
1.32567
21
0.108211
0
LINE
8
BLACK
6
CONTINUOUS
10
1.32567
20
0.108211
11
1.31561
21
0.117363
0
LINE
8
BLACK
6
CONTINUOUS
10
1.31561
20
0.117363
11
1.30667
21
0.127609
0
LINE
8
BLACK
6
CONTINUOUS
10
1.30667
20
0.127609
11
1.29897
21
0.138816
0
LINE
8
BLACK
6
CONTINUOUS
10
1.29897
20
0.138816
11
1.29261
21
0.150833
0
LINE
8
BLACK
6
CONTINUOUS
10
1.29261
20
0.150833
11
1.28767
21
0.163502
0
LINE
8
BLACK
6
CONTINUOUS
10
1.28767
20
0.163502
11
1.28422
21
0.176655
0
LINE
8
BLACK
6
CONTINUOUS
10
1.28422
20
0.176655
11
1.2823
21
0.190117
0
LINE
8
BLACK
6
CONTINUOUS
10
1.2823
20
0.190117
11
1.28195
21
0.20371
0
LINE
8
BLACK
6
CONTINUOUS
10
1.28195
20
0.20371
11
1.28316
21
0.217254
0
LINE
8
BLACK
6
CONTINUOUS
10
1.28316
20
0.217254
11
1.28591
21
0.230569
0
LINE
8
BLACK
6
CONTINUOUS
10
1.28591
20
0.230569
11
1.29018
21
0.243479
0
LINE
8
BLACK
6
CONTINUOUS
10
1.29018
20
0.243479
11
1.29591
21
0.255813
0
LINE
8
BLACK
6
CONTINUOUS
10
1.29591
20
0.255813
11
1.30301
21
0.267407
0
LINE
8
BLACK
6
CONTINUOUS
10
1.30301
20
0.267407
11
1.3114
21
0.278108
0
LINE
8
BLACK
6
CONTINUOUS
10
1.3114
20
0.278108
11
1.32097
21
0.287773
0
LINE
8
BLACK
6
CONTINUOUS
10
1.32097
20
0.287773
11
1.33158
21
0.296275
0
LINE
8
BLACK
6
CONTINUOUS
10
1.33158
20
0.296275
11
1.3431
21
0.303501
0
LINE
8
BLACK
6
CONTINUOUS
10
1.3431
20
0.303501
11
1.35537
21
0.309355
0
LINE
8
BLACK
6
CONTINUOUS
10
1.35537
20
0.309355
11
1.36824
21
0.313759
0
LINE
8
BLACK
6
CONTINUOUS
10
1.36824
20
0.313759
11
1.38152
21
0.316656
0
LINE
8
BLACK
6
CONTINUOUS
10
1.38152
20
0.316656
11
1.39505
21
0.318007
0
LINE
8
BLACK
6
CONTINUOUS
10
1.39505
20
0.318007
11
1.40865
21
0.317793
0
LINE
8
BLACK
6
CONTINUOUS
10
0.20865
20
0.317793
11
0.222132
21
0.316018
0
LINE
8
BLACK
6
CONTINUOUS
10
0.222132
20
0.316018
11
0.23532
21
0.312706
0
LINE
8
BLACK
6
CONTINUOUS
10
0.23532
20
0.312706
11
0.24804
21
0.307899
0
LINE
8
BLACK
6
CONTINUOUS
10
0.24804
20
0.307899
11
0.260123
21
0.301662
0
LINE
8
BLACK
6
CONTINUOUS
10
0.260123
20
0.301662
11
0.271409
21
0.294078
0
LINE
8
BLACK
6
CONTINUOUS
10
0.271409
20
0.294078
11
0.281749
21
0.285247
0
LINE
8
BLACK
6
CONTINUOUS
10
0.281749
20
0.285247
11
0.291006
21
0.275286
0
LINE
8
BLACK
6
CONTINUOUS
10
0.291006
20
0.275286
11
0.299056
21
0.264327
0
LINE
8
BLACK
6
CONTINUOUS
10
0.299056
20
0.264327
11
0.305793
21
0.252516
0
LINE
8
BLACK
6
CONTINUOUS
10
0.305793
20
0.252516
11
0.311128
21
0.240008
0
LINE
8
BLACK
6
CONTINUOUS
10
0.311128
20
0.240008
11
0.31499
21
0.226971
0
LINE
8
BLACK
6
CONTINUOUS
10
0.31499
20
0.226971
11
0.317327
21
0.213575
0
LINE
8
BLACK
6
CONTINUOUS
10
0.317327
20
0.213575
11
0.31811
21
0.2
0
LINE
8
BLACK
6
CONTINUOUS
10
0.31811
20
0.2
11
0.317877
21
0.192584
0
LINE
8
BLACK
6
CONTINUOUS
10
0.317877
20
0.192584
11
0.316244
21
0.179084
0
LINE
8
BLACK
6
CONTINUOUS
10
0.316244
20
0.179084
11
0.313069
21
0.165862
0
LINE
8
BLACK
6
CONTINUOUS
10
0.313069
20
0.165862
11
0.308396
21
0.153093
0
LINE
8
BLACK
6
CONTINUOUS
10
0.308396
20
0.153093
11
0.302286
21
0.140945
0
LINE
8
BLACK
6
CONTINUOUS
10
0.302286
20
0.140945
11
0.294821
21
0.12958
0
LINE
8
BLACK
6
CONTINUOUS
10
0.294821
20
0.12958
11
0.286099
21
0.119148
0
LINE
8
BLACK
6
CONTINUOUS
10
0.286099
20
0.119148
11
0.276235
21
0.109788
0
LINE
8
BLACK
6
CONTINUOUS
10
0.276235
20
0.109788
11
0.265361
21
0.101623
0
LINE
8
BLACK
6
CONTINUOUS
10
0.265361
20
0.101623
11
0.253621
21
0.094763
0
LINE
8
BLACK
6
CONTINUOUS
10
0.253621
20
0.094763
11
0.24117
21
0.0892974
0
LINE
8
BLACK
6
CONTINUOUS
10
0.24117
20
0.0892974
11
0.228173
21
0.0852991
0
LINE
8
BLACK
6
CONTINUOUS
10
0.228173
20
0.0852991
11
0.214803
21
0.0828211
0
LINE
8
BLACK
6
CONTINUOUS
10
0.214803
20
0.0828211
11
0.201237
21
0.0818962
0
LINE
8
BLACK
6
CONTINUOUS
10
0.201237
20
0.0818962
11
0.187654
21
0.0825368
0
LINE
8
BLACK
6
CONTINUOUS
10
0.187654
20
0.0825368
11
0.174235
21
0.0847343
0
LINE
8
BLACK
6
CONTINUOUS
10
0.174235
20
0.0847343
11
0.161157
21
0.0884595
0
LINE
8
BLACK
6
CONTINUOUS
10
0.161157
20
0.0884595
11
0.148595
21
0.0936631
0
LINE
8
BLACK
6
CONTINUOUS
10
0.148595
20
0.0936631
11
0.136713
21
0.100276
0
LINE
8
BLACK
6
CONTINUOUS
10
0.136713
20
0.100276
11
0.125671
21
0.108211
0
LINE
8
BLACK
6
CONTINUOUS
10
0.125671
20
0.108211
11
0.115613
21
0.117363
0
LINE
8
BLACK
6
CONTINUOUS
10
0.115613
20
0.117363
11
0.106675
21
0.127609
0
LINE
8
BLACK
6
CONTINUOUS
10
0.106675
20
0.127609
11
0.0989727
21
0.138816
0
LINE
8
BLACK
6
CONTINUOUS
10
0.0989727
20
0.138816
11
0.0926099
21
0.150833
0
LINE
8
BLACK
6
CONTINUOUS
10
0.0926099
20
0.150833
11
0.0876705
21
0.163502
0
LINE
8
BLACK
6
CONTINUOUS
10
0.0876705
20
0.163502
11
0.0842199
21
0.176655
0
LINE
8
BLACK
6
CONTINUOUS
10
0.0842199
20
0.176655
11
0.082304
21
0.190117
0
LINE
8
BLACK
6
CONTINUOUS
10
0.082304
20
0.190117
11
0.081948
21
0.20371
0
LINE
8
BLACK
6
CONTINUOUS
10
0.081948
20
0.20371
11
0.0831568
21
0.217254
0
LINE
8
BLACK
6
CONTINUOUS
10
0.0831568
20
0.217254
11
0.0859143
21
0.230569
0
LINE
8
BLACK
6
CONTINUOUS
10
0.0859143
20
0.230569
11
0.0901839
21
0.243479
0
LINE
8
BLACK
6
CONTINUOUS
10
0.0901839
20
0.243479
11
0.0959091
21
0.255813
0
LINE
8
BLACK
6
CONTINUOUS
10
0.0959091
20
0.255813
11
0.103014
21
0.267407
0
LINE
8
BLACK
6
CONTINUOUS
10
0.103014
20
0.267407
11
0.111404
21
0.278108
0
LINE
8
BLACK
6
CONTINUOUS
10
0.111404
20
0.278108
11
0.120969
21
0.287773
0
LINE
8
BLACK
6
CONTINUOUS
10
0.120969
20
0.287773
11
0.131581
21
0.296275
0
LINE
8
BLACK
6
CONTINUOUS
10
0.131581
20
0.296275
11
0.1431
21
0.303501
0
LINE
8
BLACK
6
CONTINUOUS
10
0.1431
20
0.303501
11
0.155373
21
0.309355
0
LINE
8
BLACK
6
CONTINUOUS
10
0.155373
20
0.309355
11
0.168238
21
0.313759
0
LINE
8
BLACK
6
CONTINUOUS
10
0.168238
20
0.313759
11
0.181524
21
0.316656
0
LINE
8
BLACK
6
CONTINUOUS
10
0.181524
20
0.316656
11
0.195054
21
0.318007
0
LINE
8
BLACK
6
CONTINUOUS
10
0.195054
20
0.318007
11
0.20865
21
0.317793
0
LINE
8
BLACK
6
CONTINUOUS
10
0.56
20
0.09
11
0.5
21
0.09
0
LINE
8
BLACK
6
CONTINUOUS
10
0.5
20
0.09
11
0.5
21
0.15
0
LINE
8
BLACK
6
CONTINUOUS
10
0.5
20
0.15
11
0.56
21
0.15
0
LINE
8
BLACK
6
CONTINUOUS
10
0.56
20
0.15
11
0.56
21
0.09
0
LINE
8
BLACK
6
CONTINUOUS
10
0.46
20
0.09
11
0.4
21
0.09
0
LINE
8
BLACK
6
CONTINUOUS
10
0.4
20
0.09
11
0.4
21
0.15
0
LINE
8
BLACK
6
CONTINUOUS
10
0.4
20
0.15
11
0.46
21
0.15
0
LINE
8
BLACK
6
CONTINUOUS
10
0.46
20
0.15
11
0.46
21
0.09
0
LINE
8
BLACK
6
CONTINUOUS
10
0.804866
20
0.154977
11
0.809256
21
0.15274
0
LINE
8
BLACK
6
CONTINUOUS
10
0.809256
20
0.15274
11
0.81274
21
0.149256
0
LINE
8
BLACK
6
CONTINUOUS
10
0.81274
20
0.149256
11
0.814977
21
0.144866
0
LINE
8
BLACK
6
CONTINUOUS
10
0.814977
20
0.144866
11
0.815748
21
0.14
0
LINE
8
BLACK
6
CONTINUOUS
10
0.815748
20
0.14
11
0.814977
21
0.135134
0
LINE
8
BLACK
6
CONTINUOUS
10
0.814977
20
0.135134
11
0.81274
21
0.130744
0
LINE
8
BLACK
6
CONTINUOUS
10
0.81274
20
0.130744
11
0.809256
21
0.12726
0
LINE
8
BLACK
6
CONTINUOUS
10
0.809256
20
0.12726
11
0.804866
21
0.125023
0
LINE
8
BLACK
6
CONTINUOUS
10
0.804866
20
0.125023
11
0.8
21
0.124252
0
LINE
8
BLACK
6
CONTINUOUS
10
0.8
20
0.124252
11
0.795134
21
0.125023
0
LINE
8
BLACK
6
CONTINUOUS
10
0.795134
20
0.125023
11
0.790744
21
0.12726
0
LINE
8
BLACK
6
CONTINUOUS
10
0.790744
20
0.12726
11
0.78726
21
0.130744
0
LINE
8
BLACK
6
CONTINUOUS
10
0.78726
20
0.130744
11
0.785023
21
0.135134
0
LINE
8
BLACK
6
CONTINUOUS
10
0.785023
20
0.135134
11
0.784252
21
0.14
0
LINE
8
BLACK
6
CONTINUOUS
10
0.784252
20
0.14
11
0.785023
21
0.144866
0
LINE
8
BLACK
6
CONTINUOUS
10
0.785023
20
0.144866
11
0.78726
21
0.149256
0
LINE
8
BLACK
6
CONTINUOUS
10
0.78726
20
0.149256
11
0.790744
21
0.15274
0
LINE
8
BLACK
6
CONTINUOUS
10
0.790744
20
0.15274
11
0.795134
21
0.154977
0
LINE
8
BLACK
6
CONTINUOUS
10
0.795134
20
0.154977
11
0.8
21
0.155748
0
LINE
8
BLACK
6
CONTINUOUS
10
0.8
20
0.155748
11
0.804866
21
0.154977
0
LINE
8
BLACK
6
CONTINUOUS
10
0.889866
20
0.154977
11
0.894256
21
0.15274
0
LINE
8
BLACK
6
CONTINUOUS
10
0.894256
20
0.15274
11
0.89774
21
0.149256
0
LINE
8
BLACK
6
CONTINUOUS
10
0.89774
20
0.149256
11
0.899977
21
0.144866
0
LINE
8
BLACK
6
CONTINUOUS
10
0.899977
20
0.144866
11
0.900748
21
0.14
0
LINE
8
BLACK
6
CONTINUOUS
10
0.900748
20
0.14
11
0.899977
21
0.135134
0
LINE
8
BLACK
6
CONTINUOUS
10
0.899977
20
0.135134
11
0.89774
21
0.130744
0
LINE
8
BLACK
6
CONTINUOUS
10
0.89774
20
0.130744
11
0.894256
21
0.12726
0
LINE
8
BLACK
6
CONTINUOUS
10
0.894256
20
0.12726
11
0.889866
21
0.125023
0
LINE
8
BLACK
6
CONTINUOUS
10
0.889866
20
0.125023
11
0.885
21
0.124252
0
LINE
8
BLACK
6
CONTINUOUS
10
0.885
20
0.124252
11
0.880134
21
0.125023
0
LINE
8
BLACK
6
CONTINUOUS
10
0.880134
20
0.125023
11
0.875744
21
0.12726
0
LINE
8
BLACK
6
CONTINUOUS
10
0.875744
20
0.12726
11
0.87226
21
0.130744
0
LINE
8
BLACK
6
CONTINUOUS
10
0.87226
20
0.130744
11
0.870023
21
0.135134
0
LINE
8
BLACK
6
CONTINUOUS
10
0.870023
20
0.135134
11
0.869252
21
0.14
0
LINE
8
BLACK
6
CONTINUOUS
10
0.869252
20
0.14
11
0.870023
21
0.144866
0
LINE
8
BLACK
6
CONTINUOUS
10
0.870023
20
0.144866
11
0.87226
21
0.149256
0
LINE
8
BLACK
6
CONTINUOUS
10
0.87226
20
0.149256
11
0.875744
21
0.15274
0
LINE
8
BLACK
6
CONTINUOUS
10
0.875744
20
0.15274
11
0.880134
21
0.154977
0
LINE
8
BLACK
6
CONTINUOUS
10
0.880134
20
0.154977
11
0.885
21
0.155748
0
LINE
8
BLACK
6
CONTINUOUS
10
0.885
20
0.155748
11
0.889866
21
0.154977
0
LINE
8
BLACK
6
CONTINUOUS
10
0.849866
20
0.154977
11
0.854256
21
0.15274
0
LINE
8
BLACK
6
CONTINUOUS
10
0.854256
20
0.15274
11
0.85774
21
0.149256
0
LINE
8
BLACK
6
CONTINUOUS
10
0.85774
20
0.149256
11
0.859977
21
0.144866
0
LINE
8
BLACK
6
CONTINUOUS
10
0.859977
20
0.144866
11
0.860748
21
0.14
0
LINE
8
BLACK
6
CONTINUOUS
10
0.860748
20
0.14
11
0.859977
21
0.135134
0
LINE
8
BLACK
6
CONTINUOUS
10
0.859977
20
0.135134
11
0.85774
21
0.130744
0
LINE
8
BLACK
6
CONTINUOUS
10
0.85774
20
0.130744
11
0.854256
21
0.12726
0
LINE
8
BLACK
6
CONTINUOUS
10
0.854256
20
0.12726
11
0.849866
21
0.125023
0
LINE
8
BLACK
6
CONTINUOUS
10
0.849866
20
0.125023
11
0.845
21
0.124252
0
LINE
8
BLACK
6
CONTINUOUS
10
0.845
20
0.124252
11
0.840134
21
0.125023
0
LINE
8
BLACK
6
CONTINUOUS
10
0.840134
20
0.125023
11
0.835744
21
0.12726
0
LINE
8
BLACK
6
CONTINUOUS
10
0.835744
20
0.12726
11
0.83226
21
0.130744
0
LINE
8
BLACK
6
CONTINUOUS
10
0.83226
20
0.130744
11
0.830023
21
0.135134
0
LINE
8
BLACK
6
CONTINUOUS
10
0.830023
20
0.135134
11
0.829252
21
0.14
0
LINE
8
BLACK
6
CONTINUOUS
10
0.829252
20
0.14
11
0.830023
21
0.144866
0
LINE
8
BLACK
6
CONTINUOUS
10
0.830023
20
0.144866
11
0.83226
21
0.149256
0
LINE
8
BLACK
6
CONTINUOUS
10
0.83226
20
0.149256
11
0.835744
21
0.15274
0
LINE
8
BLACK
6
CONTINUOUS
10
0.835744
20
0.15274
11
0.840134
21
0.154977
0
LINE
8
BLACK
6
CONTINUOUS
10
0.840134
20
0.154977
11
0.845
21
0.155748
0
LINE
8
BLACK
6
CONTINUOUS
10
0.845
20
0.155748
11
0.849866
21
0.154977
0
LINE
8
BLACK
6
CONTINUOUS
10
0.56
20
0.19
11
0.5
21
0.19
0
LINE
8
BLACK
6
CONTINUOUS
10
0.5
20
0.19
11
0.5
21
0.25
0
LINE
8
BLACK
6
CONTINUOUS
10
0.5
20
0.25
11
0.56
21
0.25
0
LINE
8
BLACK
6
CONTINUOUS
10
0.56
20
0.25
11
0.56
21
0.19
0
LINE
8
BLACK
6
CONTINUOUS
10
0.46
20
0.19
11
0.4
21
0.19
0
LINE
8
BLACK
6
CONTINUOUS
10
0.4
20
0.19
11
0.4
21
0.25
0
LINE
8
BLACK
6
CONTINUOUS
10
0.4
20
0.25
11
0.46
21
0.25
0
LINE
8
BLACK
6
CONTINUOUS
10
0.46
20
0.25
11
0.46
21
0.19
0
LINE
8
BLACK
6
CONTINUOUS
10
1.0561
20
0.240421
11
1.06174
21
0.238781
0
LINE
8
BLACK
6
CONTINUOUS
10
1.06174
20
0.238781
11
1.06674
21
0.235684
0
LINE
8
BLACK
6
CONTINUOUS
10
1.06674
20
0.235684
11
1.07072
21
0.231358
0
LINE
8
BLACK
6
CONTINUOUS
10
1.07072
20
0.231358
11
1.07339
21
0.226121
0
LINE
8
BLACK
6
CONTINUOUS
10
1.07339
20
0.226121
11
1.07455
21
0.22036
0
LINE
8
BLACK
6
CONTINUOUS
10
1.07455
20
0.22036
11
1.07412
21
0.214498
0
LINE
8
BLACK
6
CONTINUOUS
10
1.07412
20
0.214498
11
1.07213
21
0.208968
0
LINE
8
BLACK
6
CONTINUOUS
10
1.07213
20
0.208968
11
1.06872
21
0.204177
0
LINE
8
BLACK
6
CONTINUOUS
10
1.06872
20
0.204177
11
1.06415
21
0.200478
0
LINE
8
BLACK
6
CONTINUOUS
10
1.06415
20
0.200478
11
1.05876
21
0.198144
0
LINE
8
BLACK
6
CONTINUOUS
10
1.05876
20
0.198144
11
1.05294
21
0.197346
0
LINE
8
BLACK
6
CONTINUOUS
10
1.05294
20
0.197346
11
1.04506
21
0.197346
0
LINE
8
BLACK
6
CONTINUOUS
10
1.04506
20
0.197346
11
1.0419
21
0.197579
0
LINE
8
BLACK
6
CONTINUOUS
10
1.0419
20
0.197579
11
1.03626
21
0.199219
0
LINE
8
BLACK
6
CONTINUOUS
10
1.03626
20
0.199219
11
1.03126
21
0.202316
0
LINE
8
BLACK
6
CONTINUOUS
10
1.03126
20
0.202316
11
1.02728
21
0.206642
0
LINE
8
BLACK
6
CONTINUOUS
10
1.02728
20
0.206642
11
1.02461
21
0.211879
0
LINE
8
BLACK
6
CONTINUOUS
10
1.02461
20
0.211879
11
1.02345
21
0.21764
0
LINE
8
BLACK
6
CONTINUOUS
10
1.02345
20
0.21764
11
1.02388
21
0.223502
0
LINE
8
BLACK
6
CONTINUOUS
10
1.02388
20
0.223502
11
1.02587
21
0.229032
0
LINE
8
BLACK
6
CONTINUOUS
10
1.02587
20
0.229032
11
1.02928
21
0.233823
0
LINE
8
BLACK
6
CONTINUOUS
10
1.02928
20
0.233823
11
1.03385
21
0.237522
0
LINE
8
BLACK
6
CONTINUOUS
10
1.03385
20
0.237522
11
1.03924
21
0.239856
0
LINE
8
BLACK
6
CONTINUOUS
10
1.03924
20
0.239856
11
1.04506
21
0.240654
0
LINE
8
BLACK
6
CONTINUOUS
10
1.04506
20
0.240654
11
1.05294
21
0.240654
0
LINE
8
BLACK
6
CONTINUOUS
10
1.05294
20
0.240654
11
1.0561
21
0.240421
0
LINE
8
BLACK
6
CONTINUOUS
10
1.11516
20
0.290421
11
1.1208
21
0.288781
0
LINE
8
BLACK
6
CONTINUOUS
10
1.1208
20
0.288781
11
1.12579
21
0.285684
0
LINE
8
BLACK
6
CONTINUOUS
10
1.12579
20
0.285684
11
1.12977
21
0.281358
0
LINE
8
BLACK
6
CONTINUOUS
10
1.12977
20
0.281358
11
1.13244
21
0.276121
0
LINE
8
BLACK
6
CONTINUOUS
10
1.13244
20
0.276121
11
1.1336
21
0.27036
0
LINE
8
BLACK
6
CONTINUOUS
10
1.1336
20
0.27036
11
1.13317
21
0.264498
0
LINE
8
BLACK
6
CONTINUOUS
10
1.13317
20
0.264498
11
1.13118
21
0.258968
0
LINE
8
BLACK
6
CONTINUOUS
10
1.13118
20
0.258968
11
1.12778
21
0.254177
0
LINE
8
BLACK
6
CONTINUOUS
10
1.12778
20
0.254177
11
1.12321
21
0.250478
0
LINE
8
BLACK
6
CONTINUOUS
10
1.12321
20
0.250478
11
1.11782
21
0.248144
0
LINE
8
BLACK
6
CONTINUOUS
10
1.11782
20
0.248144
11
1.11199
21
0.247346
0
LINE
8
BLACK
6
CONTINUOUS
10
1.11199
20
0.247346
11
1.10412
21
0.247346
0
LINE
8
BLACK
6
CONTINUOUS
10
1.10412
20
0.247346
11
1.10095
21
0.247579
0
LINE
8
BLACK
6
CONTINUOUS
10
1.10095
20
0.247579
11
1.09531
21
0.249219
0
LINE
8
BLACK
6
CONTINUOUS
10
1.09531
20
0.249219
11
1.09032
21
0.252316
0
LINE
8
BLACK
6
CONTINUOUS
10
1.09032
20
0.252316
11
1.08634
21
0.256642
0
LINE
8
BLACK
6
CONTINUOUS
10
1.08634
20
0.256642
11
1.08367
21
0.261879
0
LINE
8
BLACK
6
CONTINUOUS
10
1.08367
20
0.261879
11
1.08251
21
0.26764
0
LINE
8
BLACK
6
CONTINUOUS
10
1.08251
20
0.26764
11
1.08294
21
0.273502
0
LINE
8
BLACK
6
CONTINUOUS
10
1.08294
20
0.273502
11
1.08493
21
0.279032
0
LINE
8
BLACK
6
CONTINUOUS
10
1.08493
20
0.279032
11
1.08833
21
0.283823
0
LINE
8
BLACK
6
CONTINUOUS
10
1.08833
20
0.283823
11
1.0929
21
0.287522
0
LINE
8
BLACK
6
CONTINUOUS
10
1.0929
20
0.287522
11
1.0983
21
0.289856
0
LINE
8
BLACK
6
CONTINUOUS
10
1.0983
20
0.289856
11
1.10412
21
0.290654
0
LINE
8
BLACK
6
CONTINUOUS
10
1.10412
20
0.290654
11
1.11199
21
0.290654
0
LINE
8
BLACK
6
CONTINUOUS
10
1.11199
20
0.290654
11
1.11516
21
0.290421
0
LINE
8
BLACK
6
CONTINUOUS
10
0.56
20
0.29
11
0.5
21
0.29
0
LINE
8
BLACK
6
CONTINUOUS
10
0.5
20
0.29
11
0.5
21
0.35
0
LINE
8
BLACK
6
CONTINUOUS
10
0.5
20
0.35
11
0.56
21
0.35
0
LINE
8
BLACK
6
CONTINUOUS
10
0.56
20
0.35
11
0.56
21
0.29
0
LINE
8
BLACK
6
CONTINUOUS
10
0.46
20
0.29
11
0.4
21
0.29
0
LINE
8
BLACK
6
CONTINUOUS
10
0.4
20
0.29
11
0.4
21
0.35
0
LINE
8
BLACK
6
CONTINUOUS
10
0.4
20
0.35
11
0.46
21
0.35
0
LINE
8
BLACK
6
CONTINUOUS
10
0.46
20
0.35
11
0.46
21
0.29
0
LINE
8
BLACK
6
CONTINUOUS
10
1.11516
20
0.340421
11
1.1208
21
0.338781
0
LINE
8
BLACK
6
CONTINUOUS
10
1.1208
20
0.338781
11
1.12579
21
0.335684
0
LINE
8
BLACK
6
CONTINUOUS
10
1.12579
20
0.335684
11
1.12977
21
0.331358
0
LINE
8
BLACK
6
CONTINUOUS
10
1.12977
20
0.331358
11
1.13244
21
0.326121
0
LINE
8
BLACK
6
CONTINUOUS
10
1.13244
20
0.326121
11
1.1336
21
0.32036
0
LINE
8
BLACK
6
CONTINUOUS
10
1.1336
20
0.32036
11
1.13317
21
0.314498
0
LINE
8
BLACK
6
CONTINUOUS
10
1.13317
20
0.314498
11
1.13118
21
0.308968
0
LINE
8
BLACK
6
CONTINUOUS
10
1.13118
20
0.308968
11
1.12778
21
0.304177
0
LINE
8
BLACK
6
CONTINUOUS
10
1.12778
20
0.304177
11
1.12321
21
0.300478
0
LINE
8
BLACK
6
CONTINUOUS
10
1.12321
20
0.300478
11
1.11782
21
0.298144
0
LINE
8
BLACK
6
CONTINUOUS
10
1.11782
20
0.298144
11
1.11199
21
0.297346
0
LINE
8
BLACK
6
CONTINUOUS
10
1.11199
20
0.297346
11
1.10412
21
0.297346
0
LINE
8
BLACK
6
CONTINUOUS
10
1.10412
20
0.297346
11
1.10095
21
0.297579
0
LINE
8
BLACK
6
CONTINUOUS
10
1.10095
20
0.297579
11
1.09531
21
0.299219
0
LINE
8
BLACK
6
CONTINUOUS
10
1.09531
20
0.299219
11
1.09032
21
0.302316
0
LINE
8
BLACK
6
CONTINUOUS
10
1.09032
20
0.302316
11
1.08634
21
0.306642
0
LINE
8
BLACK
6
CONTINUOUS
10
1.08634
20
0.306642
11
1.08367
21
0.311879
0
LINE
8
BLACK
6
CONTINUOUS
10
1.08367
20
0.311879
11
1.08251
21
0.31764
0
LINE
8
BLACK
6
CONTINUOUS
10
1.08251
20
0.31764
11
1.08294
21
0.323502
0
LINE
8
BLACK
6
CONTINUOUS
10
1.08294
20
0.323502
11
1.08493
21
0.329032
0
LINE
8
BLACK
6
CONTINUOUS
10
1.08493
20
0.329032
11
1.08833
21
0.333823
0
LINE
8
BLACK
6
CONTINUOUS
10
1.08833
20
0.333823
11
1.0929
21
0.337522
0
LINE
8
BLACK
6
CONTINUOUS
10
1.0929
20
0.337522
11
1.0983
21
0.339856
0
LINE
8
BLACK
6
CONTINUOUS
10
1.0983
20
0.339856
11
1.10412
21
0.340654
0
LINE
8
BLACK
6
CONTINUOUS
10
1.10412
20
0.340654
11
1.11199
21
0.340654
0
LINE
8
BLACK
6
CONTINUOUS
10
1.11199
20
0.340654
11
1.11516
21
0.340421
0
LINE
8
BLACK
6
CONTINUOUS
10
1.0561
20
0.390421
11
1.06174
21
0.388781
0
LINE
8
BLACK
6
CONTINUOUS
10
1.06174
20
0.388781
11
1.06674
21
0.385684
0
LINE
8
BLACK
6
CONTINUOUS
10
1.06674
20
0.385684
11
1.07072
21
0.381358
0
LINE
8
BLACK
6
CONTINUOUS
10
1.07072
20
0.381358
11
1.07339
21
0.376121
0
LINE
8
BLACK
6
CONTINUOUS
10
1.07339
20
0.376121
11
1.07455
21
0.37036
0
LINE
8
BLACK
6
CONTINUOUS
10
1.07455
20
0.37036
11
1.07412
21
0.364498
0
LINE
8
BLACK
6
CONTINUOUS
10
1.07412
20
0.364498
11
1.07213
21
0.358968
0
LINE
8
BLACK
6
CONTINUOUS
10
1.07213
20
0.358968
11
1.06872
21
0.354177
0
LINE
8
BLACK
6
CONTINUOUS
10
1.06872
20
0.354177
11
1.06415
21
0.350478
0
LINE
8
BLACK
6
CONTINUOUS
10
1.06415
20
0.350478
11
1.05876
21
0.348144
0
LINE
8
BLACK
6
CONTINUOUS
10
1.05876
20
0.348144
11
1.05294
21
0.347346
0
LINE
8
BLACK
6
CONTINUOUS
10
1.05294
20
0.347346
11
1.04506
21
0.347346
0
LINE
8
BLACK
6
CONTINUOUS
10
1.04506
20
0.347346
11
1.0419
21
0.347579
0
LINE
8
BLACK
6
CONTINUOUS
10
1.0419
20
0.347579
11
1.03626
21
0.349219
0
LINE
8
BLACK
6
CONTINUOUS
10
1.03626
20
0.349219
11
1.03126
21
0.352316
0
LINE
8
BLACK
6
CONTINUOUS
10
1.03126
20
0.352316
11
1.02728
21
0.356642
0
LINE
8
BLACK
6
CONTINUOUS
10
1.02728
20
0.356642
11
1.02461
21
0.361879
0
LINE
8
BLACK
6
CONTINUOUS
10
1.02461
20
0.361879
11
1.02345
21
0.36764
0
LINE
8
BLACK
6
CONTINUOUS
10
1.02345
20
0.36764
11
1.02388
21
0.373502
0
LINE
8
BLACK
6
CONTINUOUS
10
1.02388
20
0.373502
11
1.02587
21
0.379032
0
LINE
8
BLACK
6
CONTINUOUS
10
1.02587
20
0.379032
11
1.02928
21
0.383823
0
LINE
8
BLACK
6
CONTINUOUS
10
1.02928
20
0.383823
11
1.03385
21
0.387522
0
LINE
8
BLACK
6
CONTINUOUS
10
1.03385
20
0.387522
11
1.03924
21
0.389856
0
LINE
8
BLACK
6
CONTINUOUS
10
1.03924
20
0.389856
11
1.04506
21
0.390654
0
LINE
8
BLACK
6
CONTINUOUS
10
1.04506
20
0.390654
11
1.05294
21
0.390654
0
LINE
8
BLACK
6
CONTINUOUS
10
1.05294
20
0.390654
11
1.0561
21
0.390421
0
LINE
8
BLACK
6
CONTINUOUS
10
1.11516
20
0.440421
11
1.1208
21
0.438781
0
LINE
8
BLACK
6
CONTINUOUS
10
1.1208
20
0.438781
11
1.12579
21
0.435684
0
LINE
8
BLACK
6
CONTINUOUS
10
1.12579
20
0.435684
11
1.12977
21
0.431358
0
LINE
8
BLACK
6
CONTINUOUS
10
1.12977
20
0.431358
11
1.13244
21
0.426121
0
LINE
8
BLACK
6
CONTINUOUS
10
1.13244
20
0.426121
11
1.1336
21
0.42036
0
LINE
8
BLACK
6
CONTINUOUS
10
1.1336
20
0.42036
11
1.13317
21
0.414498
0
LINE
8
BLACK
6
CONTINUOUS
10
1.13317
20
0.414498
11
1.13118
21
0.408968
0
LINE
8
BLACK
6
CONTINUOUS
10
1.13118
20
0.408968
11
1.12778
21
0.404177
0
LINE
8
BLACK
6
CONTINUOUS
10
1.12778
20
0.404177
11
1.12321
21
0.400478
0
LINE
8
BLACK
6
CONTINUOUS
10
1.12321
20
0.400478
11
1.11782
21
0.398144
0
LINE
8
BLACK
6
CONTINUOUS
10
1.11782
20
0.398144
11
1.11199
21
0.397346
0
LINE
8
BLACK
6
CONTINUOUS
10
1.11199
20
0.397346
11
1.10412
21
0.397346
0
LINE
8
BLACK
6
CONTINUOUS
10
1.10412
20
0.397346
11
1.10095
21
0.397579
0
LINE
8
BLACK
6
CONTINUOUS
10
1.10095
20
0.397579
11
1.09531
21
0.399219
0
LINE
8
BLACK
6
CONTINUOUS
10
1.09531
20
0.399219
11
1.09032
21
0.402316
0
LINE
8
BLACK
6
CONTINUOUS
10
1.09032
20
0.402316
11
1.08634
21
0.406642
0
LINE
8
BLACK
6
CONTINUOUS
10
1.08634
20
0.406642
11
1.08367
21
0.411879
0
LINE
8
BLACK
6
CONTINUOUS
10
1.08367
20
0.411879
11
1.08251
21
0.41764
0
LINE
8
BLACK
6
CONTINUOUS
10
1.08251
20
0.41764
11
1.08294
21
0.423502
0
LINE
8
BLACK
6
CONTINUOUS
10
1.08294
20
0.423502
11
1.08493
21
0.429032
0
LINE
8
BLACK
6
CONTINUOUS
10
1.08493
20
0.429032
11
1.08833
21
0.433823
0
LINE
8
BLACK
6
CONTINUOUS
10
1.08833
20
0.433823
11
1.0929
21
0.437522
0
LINE
8
BLACK
6
CONTINUOUS
10
1.0929
20
0.437522
11
1.0983
21
0.439856
0
LINE
8
BLACK
6
CONTINUOUS
10
1.0983
20
0.439856
11
1.10412
21
0.440654
0
LINE
8
BLACK
6
CONTINUOUS
10
1.10412
20
0.440654
11
1.11199
21
0.440654
0
LINE
8
BLACK
6
CONTINUOUS
10
1.11199
20
0.440654
11
1.11516
21
0.440421
0
LINE
8
BLACK
6
CONTINUOUS
10
0.619866
20
0.449977
11
0.624256
21
0.44774
0
LINE
8
BLACK
6
CONTINUOUS
10
0.624256
20
0.44774
11
0.62774
21
0.444256
0
LINE
8
BLACK
6
CONTINUOUS
10
0.62774
20
0.444256
11
0.629977
21
0.439866
0
LINE
8
BLACK
6
CONTINUOUS
10
0.629977
20
0.439866
11
0.630748
21
0.435
0
LINE
8
BLACK
6
CONTINUOUS
10
0.630748
20
0.435
11
0.629977
21
0.430134
0
LINE
8
BLACK
6
CONTINUOUS
10
0.629977
20
0.430134
11
0.62774
21
0.425744
0
LINE
8
BLACK
6
CONTINUOUS
10
0.62774
20
0.425744
11
0.624256
21
0.42226
0
LINE
8
BLACK
6
CONTINUOUS
10
0.624256
20
0.42226
11
0.619866
21
0.420023
0
LINE
8
BLACK
6
CONTINUOUS
10
0.619866
20
0.420023
11
0.615
21
0.419252
0
LINE
8
BLACK
6
CONTINUOUS
10
0.615
20
0.419252
11
0.610134
21
0.420023
0
LINE
8
BLACK
6
CONTINUOUS
10
0.610134
20
0.420023
11
0.605744
21
0.42226
0
LINE
8
BLACK
6
CONTINUOUS
10
0.605744
20
0.42226
11
0.60226
21
0.425744
0
LINE
8
BLACK
6
CONTINUOUS
10
0.60226
20
0.425744
11
0.600023
21
0.430134
0
LINE
8
BLACK
6
CONTINUOUS
10
0.600023
20
0.430134
11
0.599252
21
0.435
0
LINE
8
BLACK
6
CONTINUOUS
10
0.599252
20
0.435
11
0.600023
21
0.439866
0
LINE
8
BLACK
6
CONTINUOUS
10
0.600023
20
0.439866
11
0.60226
21
0.444256
0
LINE
8
BLACK
6
CONTINUOUS
10
0.60226
20
0.444256
11
0.605744
21
0.44774
0
LINE
8
BLACK
6
CONTINUOUS
10
0.605744
20
0.44774
11
0.610134
21
0.449977
0
LINE
8
BLACK
6
CONTINUOUS
10
0.610134
20
0.449977
11
0.615
21
0.450748
0
LINE
8
BLACK
6
CONTINUOUS
10
0.615
20
0.450748
11
0.619866
21
0.449977
0
LINE
8
BLACK
6
CONTINUOUS
10
0.879866
20
0.454977
11
0.884256
21
0.45274
0
LINE
8
BLACK
6
CONTINUOUS
10
0.884256
20
0.45274
11
0.88774
21
0.449256
0
LINE
8
BLACK
6
CONTINUOUS
10
0.88774
20
0.449256
11
0.889977
21
0.444866
0
LINE
8
BLACK
6
CONTINUOUS
10
0.889977
20
0.444866
11
0.890748
21
0.44
0
LINE
8
BLACK
6
CONTINUOUS
10
0.890748
20
0.44
11
0.889977
21
0.435134
0
LINE
8
BLACK
6
CONTINUOUS
10
0.889977
20
0.435134
11
0.88774
21
0.430744
0
LINE
8
BLACK
6
CONTINUOUS
10
0.88774
20
0.430744
11
0.884256
21
0.42726
0
LINE
8
BLACK
6
CONTINUOUS
10
0.884256
20
0.42726
11
0.879866
21
0.425023
0
LINE
8
BLACK
6
CONTINUOUS
10
0.879866
20
0.425023
11
0.875
21
0.424252
0
LINE
8
BLACK
6
CONTINUOUS
10
0.875
20
0.424252
11
0.870134
21
0.425023
0
LINE
8
BLACK
6
CONTINUOUS
10
0.870134
20
0.425023
11
0.865744
21
0.42726
0
LINE
8
BLACK
6
CONTINUOUS
10
0.865744
20
0.42726
11
0.86226
21
0.430744
0
LINE
8
BLACK
6
CONTINUOUS
10
0.86226
20
0.430744
11
0.860023
21
0.435134
0
LINE
8
BLACK
6
CONTINUOUS
10
0.860023
20
0.435134
11
0.859252
21
0.44
0
LINE
8
BLACK
6
CONTINUOUS
10
0.859252
20
0.44
11
0.860023
21
0.444866
0
LINE
8
BLACK
6
CONTINUOUS
10
0.860023
20
0.444866
11
0.86226
21
0.449256
0
LINE
8
BLACK
6
CONTINUOUS
10
0.86226
20
0.449256
11
0.865744
21
0.45274
0
LINE
8
BLACK
6
CONTINUOUS
10
0.865744
20
0.45274
11
0.870134
21
0.454977
0
LINE
8
BLACK
6
CONTINUOUS
10
0.870134
20
0.454977
11
0.875
21
0.455748
0
LINE
8
BLACK
6
CONTINUOUS
10
0.875
20
0.455748
11
0.879866
21
0.454977
0
LINE
8
BLACK
6
CONTINUOUS
10
1.11516
20
0.490421
11
1.1208
21
0.488781
0
LINE
8
BLACK
6
CONTINUOUS
10
1.1208
20
0.488781
11
1.12579
21
0.485684
0
LINE
8
BLACK
6
CONTINUOUS
10
1.12579
20
0.485684
11
1.12977
21
0.481358
0
LINE
8
BLACK
6
CONTINUOUS
10
1.12977
20
0.481358
11
1.13244
21
0.476121
0
LINE
8
BLACK
6
CONTINUOUS
10
1.13244
20
0.476121
11
1.1336
21
0.47036
0
LINE
8
BLACK
6
CONTINUOUS
10
1.1336
20
0.47036
11
1.13317
21
0.464498
0
LINE
8
BLACK
6
CONTINUOUS
10
1.13317
20
0.464498
11
1.13118
21
0.458968
0
LINE
8
BLACK
6
CONTINUOUS
10
1.13118
20
0.458968
11
1.12778
21
0.454177
0
LINE
8
BLACK
6
CONTINUOUS
10
1.12778
20
0.454177
11
1.12321
21
0.450478
0
LINE
8
BLACK
6
CONTINUOUS
10
1.12321
20
0.450478
11
1.11782
21
0.448144
0
LINE
8
BLACK
6
CONTINUOUS
10
1.11782
20
0.448144
11
1.11199
21
0.447346
0
LINE
8
BLACK
6
CONTINUOUS
10
1.11199
20
0.447346
11
1.10412
21
0.447346
0
LINE
8
BLACK
6
CONTINUOUS
10
1.10412
20
0.447346
11
1.10095
21
0.447579
0
LINE
8
BLACK
6
CONTINUOUS
10
1.10095
20
0.447579
11
1.09531
21
0.449219
0
LINE
8
BLACK
6
CONTINUOUS
10
1.09531
20
0.449219
11
1.09032
21
0.452316
0
LINE
8
BLACK
6
CONTINUOUS
10
1.09032
20
0.452316
11
1.08634
21
0.456642
0
LINE
8
BLACK
6
CONTINUOUS
10
1.08634
20
0.456642
11
1.08367
21
0.461879
0
LINE
8
BLACK
6
CONTINUOUS
10
1.08367
20
0.461879
11
1.08251
21
0.46764
0
LINE
8
BLACK
6
CONTINUOUS
10
1.08251
20
0.46764
11
1.08294
21
0.473502
0
LINE
8
BLACK
6
CONTINUOUS
10
1.08294
20
0.473502
11
1.08493
21
0.479032
0
LINE
8
BLACK
6
CONTINUOUS
10
1.08493
20
0.479032
11
1.08833
21
0.483823
0
LINE
8
BLACK
6
CONTINUOUS
10
1.08833
20
0.483823
11
1.0929
21
0.487522
0
LINE
8
BLACK
6
CONTINUOUS
10
1.0929
20
0.487522
11
1.0983
21
0.489856
0
LINE
8
BLACK
6
CONTINUOUS
10
1.0983
20
0.489856
11
1.10412
21
0.490654
0
LINE
8
BLACK
6
CONTINUOUS
10
1.10412
20
0.490654
11
1.11199
21
0.490654
0
LINE
8
BLACK
6
CONTINUOUS
10
1.11199
20
0.490654
11
1.11516
21
0.490421
0
LINE
8
BLACK
6
CONTINUOUS
10
0.619866
20
0.489977
11
0.624256
21
0.48774
0
LINE
8
BLACK
6
CONTINUOUS
10
0.624256
20
0.48774
11
0.62774
21
0.484256
0
LINE
8
BLACK
6
CONTINUOUS
10
0.62774
20
0.484256
11
0.629977
21
0.479866
0
LINE
8
BLACK
6
CONTINUOUS
10
0.629977
20
0.479866
11
0.630748
21
0.475
0
LINE
8
BLACK
6
CONTINUOUS
10
0.630748
20
0.475
11
0.629977
21
0.470134
0
LINE
8
BLACK
6
CONTINUOUS
10
0.629977
20
0.470134
11
0.62774
21
0.465744
0
LINE
8
BLACK
6
CONTINUOUS
10
0.62774
20
0.465744
11
0.624256
21
0.46226
0
LINE
8
BLACK
6
CONTINUOUS
10
0.624256
20
0.46226
11
0.619866
21
0.460023
0
LINE
8
BLACK
6
CONTINUOUS
10
0.619866
20
0.460023
11
0.615
21
0.459252
0
LINE
8
BLACK
6
CONTINUOUS
10
0.615
20
0.459252
11
0.610134
21
0.460023
0
LINE
8
BLACK
6
CONTINUOUS
10
0.610134
20
0.460023
11
0.605744
21
0.46226
0
LINE
8
BLACK
6
CONTINUOUS
10
0.605744
20
0.46226
11
0.60226
21
0.465744
0
LINE
8
BLACK
6
CONTINUOUS
10
0.60226
20
0.465744
11
0.600023
21
0.470134
0
LINE
8
BLACK
6
CONTINUOUS
10
0.600023
20
0.470134
11
0.599252
21
0.475
0
LINE
8
BLACK
6
CONTINUOUS
10
0.599252
20
0.475
11
0.600023
21
0.479866
0
LINE
8
BLACK
6
CONTINUOUS
10
0.600023
20
0.479866
11
0.60226
21
0.484256
0
LINE
8
BLACK
6
CONTINUOUS
10
0.60226
20
0.484256
11
0.605744
21
0.48774
0
LINE
8
BLACK
6
CONTINUOUS
10
0.605744
20
0.48774
11
0.610134
21
0.489977
0
LINE
8
BLACK
6
CONTINUOUS
10
0.610134
20
0.489977
11
0.615
21
0.490748
0
LINE
8
BLACK
6
CONTINUOUS
10
0.615
20
0.490748
11
0.619866
21
0.489977
0
LINE
8
BLACK
6
CONTINUOUS
10
0.879866
20
0.494977
11
0.884256
21
0.49274
0
LINE
8
BLACK
6
CONTINUOUS
10
0.884256
20
0.49274
11
0.88774
21
0.489256
0
LINE
8
BLACK
6
CONTINUOUS
10
0.88774
20
0.489256
11
0.889977
21
0.484866
0
LINE
8
BLACK
6
CONTINUOUS
10
0.889977
20
0.484866
11
0.890748
21
0.48
0
LINE
8
BLACK
6
CONTINUOUS
10
0.890748
20
0.48
11
0.889977
21
0.475134
0
LINE
8
BLACK
6
CONTINUOUS
10
0.889977
20
0.475134
11
0.88774
21
0.470744
0
LINE
8
BLACK
6
CONTINUOUS
10
0.88774
20
0.470744
11
0.884256
21
0.46726
0
LINE
8
BLACK
6
CONTINUOUS
10
0.884256
20
0.46726
11
0.879866
21
0.465023
0
LINE
8
BLACK
6
CONTINUOUS
10
0.879866
20
0.465023
11
0.875
21
0.464252
0
LINE
8
BLACK
6
CONTINUOUS
10
0.875
20
0.464252
11
0.870134
21
0.465023
0
LINE
8
BLACK
6
CONTINUOUS
10
0.870134
20
0.465023
11
0.865744
21
0.46726
0
LINE
8
BLACK
6
CONTINUOUS
10
0.865744
20
0.46726
11
0.86226
21
0.470744
0
LINE
8
BLACK
6
CONTINUOUS
10
0.86226
20
0.470744
11
0.860023
21
0.475134
0
LINE
8
BLACK
6
CONTINUOUS
10
0.860023
20
0.475134
11
0.859252
21
0.48
0
LINE
8
BLACK
6
CONTINUOUS
10
0.859252
20
0.48
11
0.860023
21
0.484866
0
LINE
8
BLACK
6
CONTINUOUS
10
0.860023
20
0.484866
11
0.86226
21
0.489256
0
LINE
8
BLACK
6
CONTINUOUS
10
0.86226
20
0.489256
11
0.865744
21
0.49274
0
LINE
8
BLACK
6
CONTINUOUS
10
0.865744
20
0.49274
11
0.870134
21
0.494977
0
LINE
8
BLACK
6
CONTINUOUS
10
0.870134
20
0.494977
11
0.875
21
0.495748
0
LINE
8
BLACK
6
CONTINUOUS
10
0.875
20
0.495748
11
0.879866
21
0.494977
0
LINE
8
BLACK
6
CONTINUOUS
10
0.20865
20
0.717793
11
0.222132
21
0.716018
0
LINE
8
BLACK
6
CONTINUOUS
10
0.222132
20
0.716018
11
0.23532
21
0.712706
0
LINE
8
BLACK
6
CONTINUOUS
10
0.23532
20
0.712706
11
0.24804
21
0.707899
0
LINE
8
BLACK
6
CONTINUOUS
10
0.24804
20
0.707899
11
0.260123
21
0.701662
0
LINE
8
BLACK
6
CONTINUOUS
10
0.260123
20
0.701662
11
0.271409
21
0.694078
0
LINE
8
BLACK
6
CONTINUOUS
10
0.271409
20
0.694078
11
0.281749
21
0.685247
0
LINE
8
BLACK
6
CONTINUOUS
10
0.281749
20
0.685247
11
0.291006
21
0.675286
0
LINE
8
BLACK
6
CONTINUOUS
10
0.291006
20
0.675286
11
0.299056
21
0.664327
0
LINE
8
BLACK
6
CONTINUOUS
10
0.299056
20
0.664327
11
0.305793
21
0.652516
0
LINE
8
BLACK
6
CONTINUOUS
10
0.305793
20
0.652516
11
0.311128
21
0.640008
0
LINE
8
BLACK
6
CONTINUOUS
10
0.311128
20
0.640008
11
0.31499
21
0.626971
0
LINE
8
BLACK
6
CONTINUOUS
10
0.31499
20
0.626971
11
0.317327
21
0.613575
0
LINE
8
BLACK
6
CONTINUOUS
10
0.317327
20
0.613575
11
0.31811
21
0.6
0
LINE
8
BLACK
6
CONTINUOUS
10
0.31811
20
0.6
11
0.317877
21
0.592584
0
LINE
8
BLACK
6
CONTINUOUS
10
0.317877
20
0.592584
11
0.316244
21
0.579084
0
LINE
8
BLACK
6
CONTINUOUS
10
0.316244
20
0.579084
11
0.313069
21
0.565862
0
LINE
8
BLACK
6
CONTINUOUS
10
0.313069
20
0.565862
11
0.308396
21
0.553093
0
LINE
8
BLACK
6
CONTINUOUS
10
0.308396
20
0.553093
11
0.302286
21
0.540945
0
LINE
8
BLACK
6
CONTINUOUS
10
0.302286
20
0.540945
11
0.294821
21
0.52958
0
LINE
8
BLACK
6
CONTINUOUS
10
0.294821
20
0.52958
11
0.286099
21
0.519148
0
LINE
8
BLACK
6
CONTINUOUS
10
0.286099
20
0.519148
11
0.276235
21
0.509788
0
LINE
8
BLACK
6
CONTINUOUS
10
0.276235
20
0.509788
11
0.265361
21
0.501623
0
LINE
8
BLACK
6
CONTINUOUS
10
0.265361
20
0.501623
11
0.253621
21
0.494763
0
LINE
8
BLACK
6
CONTINUOUS
10
0.253621
20
0.494763
11
0.24117
21
0.489297
0
LINE
8
BLACK
6
CONTINUOUS
10
0.24117
20
0.489297
11
0.228173
21
0.485299
0
LINE
8
BLACK
6
CONTINUOUS
10
0.228173
20
0.485299
11
0.214803
21
0.482821
0
LINE
8
BLACK
6
CONTINUOUS
10
0.214803
20
0.482821
11
0.201237
21
0.481896
0
LINE
8
BLACK
6
CONTINUOUS
10
0.201237
20
0.481896
11
0.187654
21
0.482537
0
LINE
8
BLACK
6
CONTINUOUS
10
0.187654
20
0.482537
11
0.174235
21
0.484734
0
LINE
8
BLACK
6
CONTINUOUS
10
0.174235
20
0.484734
11
0.161157
21
0.488459
0
LINE
8
BLACK
6
CONTINUOUS
10
0.161157
20
0.488459
11
0.148595
21
0.493663
0
LINE
8
BLACK
6
CONTINUOUS
10
0.148595
20
0.493663
11
0.136713
21
0.500276
0
LINE
8
BLACK
6
CONTINUOUS
10
0.136713
20
0.500276
11
0.125671
21
0.508211
0
LINE
8
BLACK
6
CONTINUOUS
10
0.125671
20
0.508211
11
0.115613
21
0.517363
0
LINE
8
BLACK
6
CONTINUOUS
10
0.115613
20
0.517363
11
0.106675
21
0.527609
0
LINE
8
BLACK
6
CONTINUOUS
10
0.106675
20
0.527609
11
0.0989727
21
0.538816
0
LINE
8
BLACK
6
CONTINUOUS
10
0.0989727
20
0.538816
11
0.0926099
21
0.550833
0
LINE
8
BLACK
6
CONTINUOUS
10
0.0926099
20
0.550833
11
0.0876705
21
0.563502
0
LINE
8
BLACK
6
CONTINUOUS
10
0.0876705
20
0.563502
11
0.0842199
21
0.576655
0
LINE
8
BLACK
6
CONTINUOUS
10
0.0842199
20
0.576655
11
0.082304
21
0.590117
0
LINE
8
BLACK
6
CONTINUOUS
10
0.082304
20
0.590117
11
0.081948
21
0.60371
0
LINE
8
BLACK
6
CONTINUOUS
10
0.081948
20
0.60371
11
0.0831568
21
0.617254
0
LINE
8
BLACK
6
CONTINUOUS
10
0.0831568
20
0.617254
11
0.0859143
21
0.630569
0
LINE
8
BLACK
6
CONTINUOUS
10
0.0859143
20
0.630569
11
0.0901839
21
0.643479
0
LINE
8
BLACK
6
CONTINUOUS
10
0.0901839
20
0.643479
11
0.0959091
21
0.655813
0
LINE
8
BLACK
6
CONTINUOUS
10
0.0959091
20
0.655813
11
0.103014
21
0.667407
0
LINE
8
BLACK
6
CONTINUOUS
10
0.103014
20
0.667407
11
0.111404
21
0.678108
0
LINE
8
BLACK
6
CONTINUOUS
10
0.111404
20
0.678108
11
0.120969
21
0.687773
0
LINE
8
BLACK
6
CONTINUOUS
10
0.120969
20
0.687773
11
0.131581
21
0.696275
0
LINE
8
BLACK
6
CONTINUOUS
10
0.131581
20
0.696275
11
0.1431
21
0.703501
0
LINE
8
BLACK
6
CONTINUOUS
10
0.1431
20
0.703501
11
0.155373
21
0.709355
0
LINE
8
BLACK
6
CONTINUOUS
10
0.155373
20
0.709355
11
0.168238
21
0.713759
0
LINE
8
BLACK
6
CONTINUOUS
10
0.168238
20
0.713759
11
0.181524
21
0.716656
0
LINE
8
BLACK
6
CONTINUOUS
10
0.181524
20
0.716656
11
0.195054
21
0.718007
0
LINE
8
BLACK
6
CONTINUOUS
10
0.195054
20
0.718007
11
0.20865
21
0.717793
0
LINE
8
BLACK
6
CONTINUOUS
10
1.40865
20
0.717793
11
1.42213
21
0.716018
0
LINE
8
BLACK
6
CONTINUOUS
10
1.42213
20
0.716018
11
1.43532
21
0.712706
0
LINE
8
BLACK
6
CONTINUOUS
10
1.43532
20
0.712706
11
1.44804
21
0.707899
0
LINE
8
BLACK
6
CONTINUOUS
10
1.44804
20
0.707899
11
1.46012
21
0.701662
0
LINE
8
BLACK
6
CONTINUOUS
10
1.46012
20
0.701662
11
1.47141
21
0.694078
0
LINE
8
BLACK
6
CONTINUOUS
10
1.47141
20
0.694078
11
1.48175
21
0.685247
0
LINE
8
BLACK
6
CONTINUOUS
10
1.48175
20
0.685247
11
1.49101
21
0.675286
0
LINE
8
BLACK
6
CONTINUOUS
10
1.49101
20
0.675286
11
1.49906
21
0.664327
0
LINE
8
BLACK
6
CONTINUOUS
10
1.49906
20
0.664327
11
1.50579
21
0.652516
0
LINE
8
BLACK
6
CONTINUOUS
10
1.50579
20
0.652516
11
1.51113
21
0.640008
0
LINE
8
BLACK
6
CONTINUOUS
10
1.51113
20
0.640008
11
1.51499
21
0.626971
0
LINE
8
BLACK
6
CONTINUOUS
10
1.51499
20
0.626971
11
1.51733
21
0.613575
0
LINE
8
BLACK
6
CONTINUOUS
10
1.51733
20
0.613575
11
1.51811
21
0.6
0
LINE
8
BLACK
6
CONTINUOUS
10
1.51811
20
0.6
11
1.51788
21
0.592584
0
LINE
8
BLACK
6
CONTINUOUS
10
1.51788
20
0.592584
11
1.51624
21
0.579084
0
LINE
8
BLACK
6
CONTINUOUS
10
1.51624
20
0.579084
11
1.51307
21
0.565862
0
LINE
8
BLACK
6
CONTINUOUS
10
1.51307
20
0.565862
11
1.5084
21
0.553093
0
LINE
8
BLACK
6
CONTINUOUS
10
1.5084
20
0.553093
11
1.50229
21
0.540945
0
LINE
8
BLACK
6
CONTINUOUS
10
1.50229
20
0.540945
11
1.49482
21
0.52958
0
LINE
8
BLACK
6
CONTINUOUS
10
1.49482
20
0.52958
11
1.4861
21
0.519148
0
LINE
8
BLACK
6
CONTINUOUS
10
1.4861
20
0.519148
11
1.47624
21
0.509788
0
LINE
8
BLACK
6
CONTINUOUS
10
1.47624
20
0.509788
11
1.46536
21
0.501623
0
LINE
8
BLACK
6
CONTINUOUS
10
1.46536
20
0.501623
11
1.45362
21
0.494763
0
LINE
8
BLACK
6
CONTINUOUS
10
1.45362
20
0.494763
11
1.44117
21
0.489297
0
LINE
8
BLACK
6
CONTINUOUS
10
1.44117
20
0.489297
11
1.42817
21
0.485299
0
LINE
8
BLACK
6
CONTINUOUS
10
1.42817
20
0.485299
11
1.4148
21
0.482821
0
LINE
8
BLACK
6
CONTINUOUS
10
1.4148
20
0.482821
11
1.40124
21
0.481896
0
LINE
8
BLACK
6
CONTINUOUS
10
1.40124
20
0.481896
11
1.38765
21
0.482537
0
LINE
8
BLACK
6
CONTINUOUS
10
1.38765
20
0.482537
11
1.37424
21
0.484734
0
LINE
8
BLACK
6
CONTINUOUS
10
1.37424
20
0.484734
11
1.36116
21
0.488459
0
LINE
8
BLACK
6
CONTINUOUS
10
1.36116
20
0.488459
11
1.34859
21
0.493663
0
LINE
8
BLACK
6
CONTINUOUS
10
1.34859
20
0.493663
11
1.33671
21
0.500276
0
LINE
8
BLACK
6
CONTINUOUS
10
1.33671
20
0.500276
11
1.32567
21
0.508211
0
LINE
8
BLACK
6
CONTINUOUS
10
1.32567
20
0.508211
11
1.31561
21
0.517363
0
LINE
8
BLACK
6
CONTINUOUS
10
1.31561
20
0.517363
11
1.30667
21
0.527609
0
LINE
8
BLACK
6
CONTINUOUS
10
1.30667
20
0.527609
11
1.29897
21
0.538816
0
LINE
8
BLACK
6
CONTINUOUS
10
1.29897
20
0.538816
11
1.29261
21
0.550833
0
LINE
8
BLACK
6
CONTINUOUS
10
1.29261
20
0.550833
11
1.28767
21
0.563502
0
LINE
8
BLACK
6
CONTINUOUS
10
1.28767
20
0.563502
11
1.28422
21
0.576655
0
LINE
8
BLACK
6
CONTINUOUS
10
1.28422
20
0.576655
11
1.2823
21
0.590117
0
LINE
8
BLACK
6
CONTINUOUS
10
1.2823
20
0.590117
11
1.28195
21
0.60371
0
LINE
8
BLACK
6
CONTINUOUS
10
1.28195
20
0.60371
11
1.28316
21
0.617254
0
LINE
8
BLACK
6
CONTINUOUS
10
1.28316
20
0.617254
11
1.28591
21
0.630569
0
LINE
8
BLACK
6
CONTINUOUS
10
1.28591
20
0.630569
11
1.29018
21
0.643479
0
LINE
8
BLACK
6
CONTINUOUS
10
1.29018
20
0.643479
11
1.29591
21
0.655813
0
LINE
8
BLACK
6
CONTINUOUS
10
1.29591
20
0.655813
11
1.30301
21
0.667407
0
LINE
8
BLACK
6
CONTINUOUS
10
1.30301
20
0.667407
11
1.3114
21
0.678108
0
LINE
8
BLACK
6
CONTINUOUS
10
1.3114
20
0.678108
11
1.32097
21
0.687773
0
LINE
8
BLACK
6
CONTINUOUS
10
1.32097
20
0.687773
11
1.33158
21
0.696275
0
LINE
8
BLACK
6
CONTINUOUS
10
1.33158
20
0.696275
11
1.3431
21
0.703501
0
LINE
8
BLACK
6
CONTINUOUS
10
1.3431
20
0.703501
11
1.35537
21
0.709355
0
LINE
8
BLACK
6
CONTINUOUS
10
1.35537
20
0.709355
11
1.36824
21
0.713759
0
LINE
8
BLACK
6
CONTINUOUS
10
1.36824
20
0.713759
11
1.38152
21
0.716656
0
LINE
8
BLACK
6
CONTINUOUS
10
1.38152
20
0.716656
11
1.39505
21
0.718007
0
LINE
8
BLACK
6
CONTINUOUS
10
1.39505
20
0.718007
11
1.40865
21
0.717793
0
LINE
8
BLACK
6
CONTINUOUS
10
1.0561
20
0.540421
11
1.06174
21
0.538781
0
LINE
8
BLACK
6
CONTINUOUS
10
1.06174
20
0.538781
11
1.06674
21
0.535684
0
LINE
8
BLACK
6
CONTINUOUS
10
1.06674
20
0.535684
11
1.07072
21
0.531358
0
LINE
8
BLACK
6
CONTINUOUS
10
1.07072
20
0.531358
11
1.07339
21
0.526121
0
LINE
8
BLACK
6
CONTINUOUS
10
1.07339
20
0.526121
11
1.07455
21
0.52036
0
LINE
8
BLACK
6
CONTINUOUS
10
1.07455
20
0.52036
11
1.07412
21
0.514498
0
LINE
8
BLACK
6
CONTINUOUS
10
1.07412
20
0.514498
11
1.07213
21
0.508968
0
LINE
8
BLACK
6
CONTINUOUS
10
1.07213
20
0.508968
11
1.06872
21
0.504177
0
LINE
8
BLACK
6
CONTINUOUS
10
1.06872
20
0.504177
11
1.06415
21
0.500478
0
LINE
8
BLACK
6
CONTINUOUS
10
1.06415
20
0.500478
11
1.05876
21
0.498144
0
LINE
8
BLACK
6
CONTINUOUS
10
1.05876
20
0.498144
11
1.05294
21
0.497346
0
LINE
8
BLACK
6
CONTINUOUS
10
1.05294
20
0.497346
11
1.04506
21
0.497346
0
LINE
8
BLACK
6
CONTINUOUS
10
1.04506
20
0.497346
11
1.0419
21
0.497579
0
LINE
8
BLACK
6
CONTINUOUS
10
1.0419
20
0.497579
11
1.03626
21
0.499219
0
LINE
8
BLACK
6
CONTINUOUS
10
1.03626
20
0.499219
11
1.03126
21
0.502316
0
LINE
8
BLACK
6
CONTINUOUS
10
1.03126
20
0.502316
11
1.02728
21
0.506642
0
LINE
8
BLACK
6
CONTINUOUS
10
1.02728
20
0.506642
11
1.02461
21
0.511879
0
LINE
8
BLACK
6
CONTINUOUS
10
1.02461
20
0.511879
11
1.02345
21
0.51764
0
LINE
8
BLACK
6
CONTINUOUS
10
1.02345
20
0.51764
11
1.02388
21
0.523502
0
LINE
8
BLACK
6
CONTINUOUS
10
1.02388
20
0.523502
11
1.02587
21
0.529032
0
LINE
8
BLACK
6
CONTINUOUS
10
1.02587
20
0.529032
11
1.02928
21
0.533823
0
LINE
8
BLACK
6
CONTINUOUS
10
1.02928
20
0.533823
11
1.03385
21
0.537522
0
LINE
8
BLACK
6
CONTINUOUS
10
1.03385
20
0.537522
11
1.03924
21
0.539856
0
LINE
8
BLACK
6
CONTINUOUS
10
1.03924
20
0.539856
11
1.04506
21
0.540654
0
LINE
8
BLACK
6
CONTINUOUS
10
1.04506
20
0.540654
11
1.05294
21
0.540654
0
LINE
8
BLACK
6
CONTINUOUS
10
1.05294
20
0.540654
11
1.0561
21
0.540421
0
LINE
8
BLACK
6
CONTINUOUS
10
0.619866
20
0.529977
11
0.624256
21
0.52774
0
LINE
8
BLACK
6
CONTINUOUS
10
0.624256
20
0.52774
11
0.62774
21
0.524256
0
LINE
8
BLACK
6
CONTINUOUS
10
0.62774
20
0.524256
11
0.629977
21
0.519866
0
LINE
8
BLACK
6
CONTINUOUS
10
0.629977
20
0.519866
11
0.630748
21
0.515
0
LINE
8
BLACK
6
CONTINUOUS
10
0.630748
20
0.515
11
0.629977
21
0.510134
0
LINE
8
BLACK
6
CONTINUOUS
10
0.629977
20
0.510134
11
0.62774
21
0.505744
0
LINE
8
BLACK
6
CONTINUOUS
10
0.62774
20
0.505744
11
0.624256
21
0.50226
0
LINE
8
BLACK
6
CONTINUOUS
10
0.624256
20
0.50226
11
0.619866
21
0.500023
0
LINE
8
BLACK
6
CONTINUOUS
10
0.619866
20
0.500023
11
0.615
21
0.499252
0
LINE
8
BLACK
6
CONTINUOUS
10
0.615
20
0.499252
11
0.610134
21
0.500023
0
LINE
8
BLACK
6
CONTINUOUS
10
0.610134
20
0.500023
11
0.605744
21
0.50226
0
LINE
8
BLACK
6
CONTINUOUS
10
0.605744
20
0.50226
11
0.60226
21
0.505744
0
LINE
8
BLACK
6
CONTINUOUS
10
0.60226
20
0.505744
11
0.600023
21
0.510134
0
LINE
8
BLACK
6
CONTINUOUS
10
0.600023
20
0.510134
11
0.599252
21
0.515
0
LINE
8
BLACK
6
CONTINUOUS
10
0.599252
20
0.515
11
0.600023
21
0.519866
0
LINE
8
BLACK
6
CONTINUOUS
10
0.600023
20
0.519866
11
0.60226
21
0.524256
0
LINE
8
BLACK
6
CONTINUOUS
10
0.60226
20
0.524256
11
0.605744
21
0.52774
0
LINE
8
BLACK
6
CONTINUOUS
10
0.605744
20
0.52774
11
0.610134
21
0.529977
0
LINE
8
BLACK
6
CONTINUOUS
10
0.610134
20
0.529977
11
0.615
21
0.530748
0
LINE
8
BLACK
6
CONTINUOUS
10
0.615
20
0.530748
11
0.619866
21
0.529977
0
LINE
8
BLACK
6
CONTINUOUS
10
0.879866
20
0.534977
11
0.884256
21
0.53274
0
LINE
8
BLACK
6
CONTINUOUS
10
0.884256
20
0.53274
11
0.88774
21
0.529256
0
LINE
8
BLACK
6
CONTINUOUS
10
0.88774
20
0.529256
11
0.889977
21
0.524866
0
LINE
8
BLACK
6
CONTINUOUS
10
0.889977
20
0.524866
11
0.890748
21
0.52
0
LINE
8
BLACK
6
CONTINUOUS
10
0.890748
20
0.52
11
0.889977
21
0.515134
0
LINE
8
BLACK
6
CONTINUOUS
10
0.889977
20
0.515134
11
0.88774
21
0.510744
0
LINE
8
BLACK
6
CONTINUOUS
10
0.88774
20
0.510744
11
0.884256
21
0.50726
0
LINE
8
BLACK
6
CONTINUOUS
10
0.884256
20
0.50726
11
0.879866
21
0.505023
0
LINE
8
BLACK
6
CONTINUOUS
10
0.879866
20
0.505023
11
0.875
21
0.504252
0
LINE
8
BLACK
6
CONTINUOUS
10
0.875
20
0.504252
11
0.870134
21
0.505023
0
LINE
8
BLACK
6
CONTINUOUS
10
0.870134
20
0.505023
11
0.865744
21
0.50726
0
LINE
8
BLACK
6
CONTINUOUS
10
0.865744
20
0.50726
11
0.86226
21
0.510744
0
LINE
8
BLACK
6
CONTINUOUS
10
0.86226
20
0.510744
11
0.860023
21
0.515134
0
LINE
8
BLACK
6
CONTINUOUS
10
0.860023
20
0.515134
11
0.859252
21
0.52
0
LINE
8
BLACK
6
CONTINUOUS
10
0.859252
20
0.52
11
0.860023
21
0.524866
0
LINE
8
BLACK
6
CONTINUOUS
10
0.860023
20
0.524866
11
0.86226
21
0.529256
0
LINE
8
BLACK
6
CONTINUOUS
10
0.86226
20
0.529256
11
0.865744
21
0.53274
0
LINE
8
BLACK
6
CONTINUOUS
10
0.865744
20
0.53274
11
0.870134
21
0.534977
0
LINE
8
BLACK
6
CONTINUOUS
10
0.870134
20
0.534977
11
0.875
21
0.535748
0
LINE
8
BLACK
6
CONTINUOUS
10
0.875
20
0.535748
11
0.879866
21
0.534977
0
LINE
8
BLACK
6
CONTINUOUS
10
1.15597
20
0.675733
11
1.16426
21
0.673512
0
LINE
8
BLACK
6
CONTINUOUS
10
1.16426
20
0.673512
11
1.17203
21
0.669887
0
LINE
8
BLACK
6
CONTINUOUS
10
1.17203
20
0.669887
11
1.17906
21
0.664967
0
LINE
8
BLACK
6
CONTINUOUS
10
1.17906
20
0.664967
11
1.18512
21
0.658901
0
LINE
8
BLACK
6
CONTINUOUS
10
1.18512
20
0.658901
11
1.19004
21
0.651874
0
LINE
8
BLACK
6
CONTINUOUS
10
1.19004
20
0.651874
11
1.19367
21
0.644099
0
LINE
8
BLACK
6
CONTINUOUS
10
1.19367
20
0.644099
11
1.19589
21
0.635813
0
LINE
8
BLACK
6
CONTINUOUS
10
1.19589
20
0.635813
11
1.19664
21
0.627268
0
LINE
8
BLACK
6
CONTINUOUS
10
1.19664
20
0.627268
11
1.19589
21
0.618722
0
LINE
8
BLACK
6
CONTINUOUS
10
1.19589
20
0.618722
11
1.19367
21
0.610436
0
LINE
8
BLACK
6
CONTINUOUS
10
1.19367
20
0.610436
11
1.19004
21
0.602661
0
LINE
8
BLACK
6
CONTINUOUS
10
1.19004
20
0.602661
11
1.18512
21
0.595634
0
LINE
8
BLACK
6
CONTINUOUS
10
1.18512
20
0.595634
11
1.17906
21
0.589569
0
LINE
8
BLACK
6
CONTINUOUS
10
1.17906
20
0.589569
11
1.17203
21
0.584648
0
LINE
8
BLACK
6
CONTINUOUS
10
1.17203
20
0.584648
11
1.16426
21
0.581023
0
LINE
8
BLACK
6
CONTINUOUS
10
1.16426
20
0.581023
11
1.15597
21
0.578803
0
LINE
8
BLACK
6
CONTINUOUS
10
1.15597
20
0.578803
11
1.14743
21
0.578055
0
LINE
8
BLACK
6
CONTINUOUS
10
1.14743
20
0.578055
11
1.13888
21
0.578803
0
LINE
8
BLACK
6
CONTINUOUS
10
1.13888
20
0.578803
11
1.13059
21
0.581023
0
LINE
8
BLACK
6
CONTINUOUS
10
1.13059
20
0.581023
11
1.12282
21
0.584648
0
LINE
8
BLACK
6
CONTINUOUS
10
1.12282
20
0.584648
11
1.11579
21
0.589569
0
LINE
8
BLACK
6
CONTINUOUS
10
1.11579
20
0.589569
11
1.10973
21
0.595634
0
LINE
8
BLACK
6
CONTINUOUS
10
1.10973
20
0.595634
11
1.10481
21
0.602661
0
LINE
8
BLACK
6
CONTINUOUS
10
1.10481
20
0.602661
11
1.10118
21
0.610436
0
LINE
8
BLACK
6
CONTINUOUS
10
1.10118
20
0.610436
11
1.09896
21
0.618722
0
LINE
8
BLACK
6
CONTINUOUS
10
1.09896
20
0.618722
11
1.09821
21
0.627268
0
LINE
8
BLACK
6
CONTINUOUS
10
1.09821
20
0.627268
11
1.09896
21
0.635813
0
LINE
8
BLACK
6
CONTINUOUS
10
1.09896
20
0.635813
11
1.10118
21
0.644099
0
LINE
8
BLACK
6
CONTINUOUS
10
1.10118
20
0.644099
11
1.10481
21
0.651874
0
LINE
8
BLACK
6
CONTINUOUS
10
1.10481
20
0.651874
11
1.10973
21
0.658901
0
LINE
8
BLACK
6
CONTINUOUS
10
1.10973
20
0.658901
11
1.11579
21
0.664967
0
LINE
8
BLACK
6
CONTINUOUS
10
1.11579
20
0.664967
11
1.12282
21
0.669887
0
LINE
8
BLACK
6
CONTINUOUS
10
1.12282
20
0.669887
11
1.13059
21
0.673512
0
LINE
8
BLACK
6
CONTINUOUS
10
1.13059
20
0.673512
11
1.13888
21
0.675733
0
LINE
8
BLACK
6
CONTINUOUS
10
1.13888
20
0.675733
11
1.14743
21
0.67648
0
LINE
8
BLACK
6
CONTINUOUS
10
1.14743
20
0.67648
11
1.15597
21
0.675733
0
LINE
8
BLACK
6
CONTINUOUS
10
0.61
20
0.58
11
0.55
21
0.58
0
LINE
8
BLACK
6
CONTINUOUS
10
0.55
20
0.58
11
0.55
21
0.64
0
LINE
8
BLACK
6
CONTINUOUS
10
0.55
20
0.64
11
0.61
21
0.64
0
LINE
8
BLACK
6
CONTINUOUS
10
0.61
20
0.64
11
0.61
21
0.58
0
LINE
8
BLACK
6
CONTINUOUS
10
0.71
20
0.58
11
0.65
21
0.58
0
LINE
8
BLACK
6
CONTINUOUS
10
0.65
20
0.58
11
0.65
21
0.64
0
LINE
8
BLACK
6
CONTINUOUS
10
0.65
20
0.64
11
0.71
21
0.64
0
LINE
8
BLACK
6
CONTINUOUS
10
0.71
20
0.64
11
0.71
21
0.58
0
LINE
8
BLACK
6
CONTINUOUS
10
0.91
20
0.58
11
0.85
21
0.58
0
LINE
8
BLACK
6
CONTINUOUS
10
0.85
20
0.58
11
0.85
21
0.64
0
LINE
8
BLACK
6
CONTINUOUS
10
0.85
20
0.64
11
0.91
21
0.64
0
LINE
8
BLACK
6
CONTINUOUS
10
0.91
20
0.64
11
0.91
21
0.58
0
LINE
8
BLACK
6
CONTINUOUS
10
0.81
20
0.58
11
0.75
21
0.58
0
LINE
8
BLACK
6
CONTINUOUS
10
0.75
20
0.58
11
0.75
21
0.64
0
LINE
8
BLACK
6
CONTINUOUS
10
0.75
20
0.64
11
0.81
21
0.64
0
LINE
8
BLACK
6
CONTINUOUS
10
0.81
20
0.64
11
0.81
21
0.58
0
LINE
8
BLACK
6
CONTINUOUS
10
0.81
20
0.68
11
0.75
21
0.68
0
LINE
8
BLACK
6
CONTINUOUS
10
0.75
20
0.68
11
0.75
21
0.74
0
LINE
8
BLACK
6
CONTINUOUS
10
0.75
20
0.74
11
0.81
21
0.74
0
LINE
8
BLACK
6
CONTINUOUS
10
0.81
20
0.74
11
0.81
21
0.68
0
LINE
8
BLACK
6
CONTINUOUS
10
0.61
20
0.68
11
0.55
21
0.68
0
LINE
8
BLACK
6
CONTINUOUS
10
0.55
20
0.68
11
0.55
21
0.74
0
LINE
8
BLACK
6
CONTINUOUS
10
0.55
20
0.74
11
0.61
21
0.74
0
LINE
8
BLACK
6
CONTINUOUS
10
0.61
20
0.74
11
0.61
21
0.68
0
LINE
8
BLACK
6
CONTINUOUS
10
0.71
20
0.68
11
0.65
21
0.68
0
LINE
8
BLACK
6
CONTINUOUS
10
0.65
20
0.68
11
0.65
21
0.74
0
LINE
8
BLACK
6
CONTINUOUS
10
0.65
20
0.74
11
0.71
21
0.74
0
LINE
8
BLACK
6
CONTINUOUS
10
0.71
20
0.74
11
0.71
21
0.68
0
LINE
8
BLACK
6
CONTINUOUS
10
0.91
20
0.68
11
0.85
21
0.68
0
LINE
8
BLACK
6
CONTINUOUS
10
0.85
20
0.68
11
0.85
21
0.74
0
LINE
8
BLACK
6
CONTINUOUS
10
0.85
20
0.74
11
0.91
21
0.74
0
LINE
8
BLACK
6
CONTINUOUS
10
0.91
20
0.74
11
0.91
21
0.68
0
CIRCLE
8
BLACK
10
0.875
20
0.44
40
0.00787402
0
CIRCLE
8
BLACK
10
0.8
20
0.14
40
0.00787402
0
CIRCLE
8
BLACK
10
0.615
20
0.475
40
0.00787402
0
CIRCLE
8
BLACK
10
0.615
20
0.435
40
0.00787402
0
CIRCLE
8
BLACK
10
0.875
20
0.52
40
0.00787402
0
CIRCLE
8
BLACK
10
0.845
20
0.14
40
0.00787402
0
CIRCLE
8
BLACK
10
0.615
20
0.515
40
0.00787402
0
CIRCLE
8
BLACK
10
0.875
20
0.48
40
0.00787402
0
CIRCLE
8
BLACK
10
0.885
20
0.14
40
0.00787402
  0
ENDSEC
  0
EOF
