  0
SECTION
  2
HEADER
  9
$ANGBASE
  50
0.0
  9
$ANGDIR
  70
1
  9
$MEASUREMENT
  70
0
  0
ENDSEC
  0
SECTION
  2
TABLES
  0
TABLE
  2
LTYPE
  70
4
  0
LTYPE
  5
40F
  2
CONTINUOUS
  70
0
  3
Solid line
  72
65
  73
0
  40
0.0
  0
LTYPE
  5
410
  2
DASHDOT
 70
0
  3
Dash Dot ____ _ ____ _
 72
65
 73
4
 40
2.0
 49
1.25
 49
-0.25
 49
0.25
 49
-0.25
  0
LTYPE
  5
411
  2
DASHED
 70
0
  3
Dashed __ __ __ __ __
 72
65
 73
2
 40
0.75
 49
0.5
 49
-0.25
  0
LTYPE
  5
43B
  2
DOTTED
 70
0
  3
Dotted .  .  .  .
 72
65
 73
2
 40
0.2
 49
0.0
 49
-0.2
  0
ENDTAB
  0
TABLE
  2
STYLE
  70
4
  0
STYLE
  2
KICAD
  70
0
  40
0
  41
1
  42
1
  50
0
  71
0
  3
isocp.shx
  0
STYLE
  2
KICADB
  70
0
  40
0
  41
1
  42
1
  50
0
  71
0
  3
isocp.shx
  0
STYLE
  2
KICADI
  70
0
  40
0
  41
1
  42
1
  50
15
  71
0
  3
isocp.shx
  0
STYLE
  2
KICADBI
  70
0
  40
0
  41
1
  42
1
  50
15
  71
0
  3
isocp.shx
  0
ENDTAB
  0
TABLE
  2
LAYER
  70
1
  0
LAYER
  2
BLACK
  70
0
  62
7
  6
CONTINUOUS
  0
ENDTAB
  0
ENDSEC
  0
SECTION
  2
ENTITIES
0
LINE
8
BLACK
6
CONTINUOUS
10
0.0225985
20
0.77591
11
0.0247109
21
0.777741
0
LINE
8
BLACK
6
CONTINUOUS
10
0.0247109
20
0.777741
11
0.0267717
21
0.778189
0
LINE
8
BLACK
6
CONTINUOUS
10
0.0267717
20
0.778189
11
1.57323
21
0.778189
0
LINE
8
BLACK
6
CONTINUOUS
10
1.57323
20
0.778189
11
1.57591
21
0.777401
0
LINE
8
BLACK
6
CONTINUOUS
10
1.57591
20
0.777401
11
1.57774
21
0.775289
0
LINE
8
BLACK
6
CONTINUOUS
10
1.57774
20
0.775289
11
1.57819
21
0.773228
0
LINE
8
BLACK
6
CONTINUOUS
10
1.57819
20
0.773228
11
1.57819
21
0.0267717
0
LINE
8
BLACK
6
CONTINUOUS
10
1.57819
20
0.0267717
11
1.5774
21
0.0240897
0
LINE
8
BLACK
6
CONTINUOUS
10
1.5774
20
0.0240897
11
1.57529
21
0.0222593
0
LINE
8
BLACK
6
CONTINUOUS
10
1.57529
20
0.0222593
11
1.57323
21
0.021811
0
LINE
8
BLACK
6
CONTINUOUS
10
1.57323
20
0.021811
11
0.0267717
21
0.021811
0
LINE
8
BLACK
6
CONTINUOUS
10
0.0267717
20
0.021811
11
0.0240897
21
0.0225985
0
LINE
8
BLACK
6
CONTINUOUS
10
0.0240897
20
0.0225985
11
0.0222593
21
0.0247109
0
LINE
8
BLACK
6
CONTINUOUS
10
0.0222593
20
0.0247109
11
0.021811
21
0.0267717
0
LINE
8
BLACK
6
CONTINUOUS
10
0.021811
20
0.0267717
11
0.021811
21
0.773228
0
LINE
8
BLACK
6
CONTINUOUS
10
0.021811
20
0.773228
11
0.0225985
21
0.77591
0
LINE
8
BLACK
6
CONTINUOUS
10
0.380231
20
0.330066
11
0.380533
21
0.33
0
LINE
8
BLACK
6
CONTINUOUS
10
0.380533
20
0.33
11
0.4
21
0.33
0
LINE
8
BLACK
6
CONTINUOUS
10
0.4
20
0.33
11
0.4
21
0.35
0
LINE
8
BLACK
6
CONTINUOUS
10
0.4
20
0.35
11
0.42
21
0.35
0
LINE
8
BLACK
6
CONTINUOUS
10
0.42
20
0.35
11
0.42
21
0.369287
0
LINE
8
BLACK
6
CONTINUOUS
10
0.42
20
0.369287
11
0.419824
21
0.369887
0
LINE
8
BLACK
6
CONTINUOUS
10
0.419824
20
0.369887
11
0.419769
21
0.369934
0
LINE
8
BLACK
6
CONTINUOUS
10
0.419769
20
0.369934
11
0.419467
21
0.37
0
LINE
8
BLACK
6
CONTINUOUS
10
0.419467
20
0.37
11
0.398241
21
0.37
0
LINE
8
BLACK
6
CONTINUOUS
10
0.398241
20
0.37
11
0.397973
21
0.369985
0
LINE
8
BLACK
6
CONTINUOUS
10
0.397973
20
0.369985
11
0.39597
21
0.369768
0
LINE
8
BLACK
6
CONTINUOUS
10
0.39597
20
0.369768
11
0.39537
21
0.369625
0
LINE
8
BLACK
6
CONTINUOUS
10
0.39537
20
0.369625
11
0.390628
21
0.367847
0
LINE
8
BLACK
6
CONTINUOUS
10
0.390628
20
0.367847
11
0.390014
21
0.367511
0
LINE
8
BLACK
6
CONTINUOUS
10
0.390014
20
0.367511
11
0.385995
21
0.364499
0
LINE
8
BLACK
6
CONTINUOUS
10
0.385995
20
0.364499
11
0.385501
21
0.364005
0
LINE
8
BLACK
6
CONTINUOUS
10
0.385501
20
0.364005
11
0.382489
21
0.359986
0
LINE
8
BLACK
6
CONTINUOUS
10
0.382489
20
0.359986
11
0.382153
21
0.359372
0
LINE
8
BLACK
6
CONTINUOUS
10
0.382153
20
0.359372
11
0.380375
21
0.35463
0
LINE
8
BLACK
6
CONTINUOUS
10
0.380375
20
0.35463
11
0.380232
21
0.35403
0
LINE
8
BLACK
6
CONTINUOUS
10
0.380232
20
0.35403
11
0.380015
21
0.352027
0
LINE
8
BLACK
6
CONTINUOUS
10
0.380015
20
0.352027
11
0.38
21
0.351759
0
LINE
8
BLACK
6
CONTINUOUS
10
0.38
20
0.351759
11
0.38
21
0.330713
0
LINE
8
BLACK
6
CONTINUOUS
10
0.38
20
0.330713
11
0.380176
21
0.330113
0
LINE
8
BLACK
6
CONTINUOUS
10
0.380176
20
0.330113
11
0.380231
21
0.330066
0
LINE
8
BLACK
6
CONTINUOUS
10
1.04982
20
0.103228
11
1.04989
21
0.103048
0
LINE
8
BLACK
6
CONTINUOUS
10
1.04989
20
0.103048
11
1.04989
21
0.103048
0
LINE
8
BLACK
6
CONTINUOUS
10
1.04989
20
0.103048
11
1.05342
21
0.0945309
0
LINE
8
BLACK
6
CONTINUOUS
10
1.05342
20
0.0945309
11
1.0535
21
0.0943508
0
LINE
8
BLACK
6
CONTINUOUS
10
1.0535
20
0.0943508
11
1.05852
21
0.0861583
0
LINE
8
BLACK
6
CONTINUOUS
10
1.05852
20
0.0861583
11
1.06476
21
0.078852
0
LINE
8
BLACK
6
CONTINUOUS
10
1.06476
20
0.078852
11
1.07206
21
0.0726119
0
LINE
8
BLACK
6
CONTINUOUS
10
1.07206
20
0.0726119
11
1.08026
21
0.0675915
0
LINE
8
BLACK
6
CONTINUOUS
10
1.08026
20
0.0675915
11
1.08044
21
0.0675169
0
LINE
8
BLACK
6
CONTINUOUS
10
1.08044
20
0.0675169
11
1.08044
21
0.0675169
0
LINE
8
BLACK
6
CONTINUOUS
10
1.08044
20
0.0675169
11
1.08895
21
0.063989
0
LINE
8
BLACK
6
CONTINUOUS
10
1.08895
20
0.063989
11
1.08895
21
0.0639889
0
LINE
8
BLACK
6
CONTINUOUS
10
1.08895
20
0.0639889
11
1.08913
21
0.0639145
0
LINE
8
BLACK
6
CONTINUOUS
10
1.08913
20
0.0639145
11
1.08932
21
0.0638691
0
LINE
8
BLACK
6
CONTINUOUS
10
1.08932
20
0.0638691
11
1.08932
21
0.0638691
0
LINE
8
BLACK
6
CONTINUOUS
10
1.08932
20
0.0638691
11
1.09359
21
0.0628434
0
LINE
8
BLACK
6
CONTINUOUS
10
1.09359
20
0.0628434
11
1.09848
21
0.0616714
0
LINE
8
BLACK
6
CONTINUOUS
10
1.09848
20
0.0616714
11
1.10806
21
0.0609176
0
LINE
8
BLACK
6
CONTINUOUS
10
1.10806
20
0.0609176
11
1.11763
21
0.0616714
0
LINE
8
BLACK
6
CONTINUOUS
10
1.11763
20
0.0616714
11
1.12252
21
0.0628434
0
LINE
8
BLACK
6
CONTINUOUS
10
1.12252
20
0.0628434
11
1.12679
21
0.0638691
0
LINE
8
BLACK
6
CONTINUOUS
10
1.12679
20
0.0638691
11
1.12679
21
0.0638691
0
LINE
8
BLACK
6
CONTINUOUS
10
1.12679
20
0.0638691
11
1.12698
21
0.0639145
0
LINE
8
BLACK
6
CONTINUOUS
10
1.12698
20
0.0639145
11
1.12716
21
0.0639889
0
LINE
8
BLACK
6
CONTINUOUS
10
1.12716
20
0.0639889
11
1.12716
21
0.063989
0
LINE
8
BLACK
6
CONTINUOUS
10
1.12716
20
0.063989
11
1.13567
21
0.0675169
0
LINE
8
BLACK
6
CONTINUOUS
10
1.13567
20
0.0675169
11
1.13567
21
0.0675169
0
LINE
8
BLACK
6
CONTINUOUS
10
1.13567
20
0.0675169
11
1.13585
21
0.0675915
0
LINE
8
BLACK
6
CONTINUOUS
10
1.13585
20
0.0675915
11
1.14405
21
0.0726119
0
LINE
8
BLACK
6
CONTINUOUS
10
1.14405
20
0.0726119
11
1.15135
21
0.078852
0
LINE
8
BLACK
6
CONTINUOUS
10
1.15135
20
0.078852
11
1.15759
21
0.0861583
0
LINE
8
BLACK
6
CONTINUOUS
10
1.15759
20
0.0861583
11
1.16261
21
0.0943508
0
LINE
8
BLACK
6
CONTINUOUS
10
1.16261
20
0.0943508
11
1.16269
21
0.0945309
0
LINE
8
BLACK
6
CONTINUOUS
10
1.16269
20
0.0945309
11
1.16622
21
0.103048
0
LINE
8
BLACK
6
CONTINUOUS
10
1.16622
20
0.103048
11
1.16622
21
0.103048
0
LINE
8
BLACK
6
CONTINUOUS
10
1.16622
20
0.103048
11
1.16629
21
0.103228
0
LINE
8
BLACK
6
CONTINUOUS
10
1.16629
20
0.103228
11
1.16853
21
0.112571
0
LINE
8
BLACK
6
CONTINUOUS
10
1.16853
20
0.112571
11
1.16929
21
0.12215
0
LINE
8
BLACK
6
CONTINUOUS
10
1.16929
20
0.12215
11
1.16853
21
0.131728
0
LINE
8
BLACK
6
CONTINUOUS
10
1.16853
20
0.131728
11
1.16629
21
0.141071
0
LINE
8
BLACK
6
CONTINUOUS
10
1.16629
20
0.141071
11
1.16622
21
0.141251
0
LINE
8
BLACK
6
CONTINUOUS
10
1.16622
20
0.141251
11
1.16622
21
0.141251
0
LINE
8
BLACK
6
CONTINUOUS
10
1.16622
20
0.141251
11
1.16269
21
0.149768
0
LINE
8
BLACK
6
CONTINUOUS
10
1.16269
20
0.149768
11
1.16269
21
0.149768
0
LINE
8
BLACK
6
CONTINUOUS
10
1.16269
20
0.149768
11
1.16261
21
0.149948
0
LINE
8
BLACK
6
CONTINUOUS
10
1.16261
20
0.149948
11
1.15759
21
0.158141
0
LINE
8
BLACK
6
CONTINUOUS
10
1.15759
20
0.158141
11
1.15135
21
0.165447
0
LINE
8
BLACK
6
CONTINUOUS
10
1.15135
20
0.165447
11
1.14405
21
0.171687
0
LINE
8
BLACK
6
CONTINUOUS
10
1.14405
20
0.171687
11
1.13585
21
0.176708
0
LINE
8
BLACK
6
CONTINUOUS
10
1.13585
20
0.176708
11
1.13567
21
0.176782
0
LINE
8
BLACK
6
CONTINUOUS
10
1.13567
20
0.176782
11
1.13567
21
0.176782
0
LINE
8
BLACK
6
CONTINUOUS
10
1.13567
20
0.176782
11
1.12716
21
0.18031
0
LINE
8
BLACK
6
CONTINUOUS
10
1.12716
20
0.18031
11
1.12716
21
0.18031
0
LINE
8
BLACK
6
CONTINUOUS
10
1.12716
20
0.18031
11
1.12698
21
0.180385
0
LINE
8
BLACK
6
CONTINUOUS
10
1.12698
20
0.180385
11
1.12679
21
0.18043
0
LINE
8
BLACK
6
CONTINUOUS
10
1.12679
20
0.18043
11
1.12679
21
0.18043
0
LINE
8
BLACK
6
CONTINUOUS
10
1.12679
20
0.18043
11
1.12252
21
0.181456
0
LINE
8
BLACK
6
CONTINUOUS
10
1.12252
20
0.181456
11
1.11763
21
0.182628
0
LINE
8
BLACK
6
CONTINUOUS
10
1.11763
20
0.182628
11
1.10806
21
0.183382
0
LINE
8
BLACK
6
CONTINUOUS
10
1.10806
20
0.183382
11
1.09848
21
0.182628
0
LINE
8
BLACK
6
CONTINUOUS
10
1.09848
20
0.182628
11
1.09359
21
0.181456
0
LINE
8
BLACK
6
CONTINUOUS
10
1.09359
20
0.181456
11
1.08932
21
0.18043
0
LINE
8
BLACK
6
CONTINUOUS
10
1.08932
20
0.18043
11
1.08932
21
0.18043
0
LINE
8
BLACK
6
CONTINUOUS
10
1.08932
20
0.18043
11
1.08913
21
0.180385
0
LINE
8
BLACK
6
CONTINUOUS
10
1.08913
20
0.180385
11
1.08452
21
0.178474
0
LINE
8
BLACK
6
CONTINUOUS
10
1.08452
20
0.178474
11
1.08174
21
0.178176
0
LINE
8
BLACK
6
CONTINUOUS
10
1.08174
20
0.178176
11
1.07924
21
0.179427
0
LINE
8
BLACK
6
CONTINUOUS
10
1.07924
20
0.179427
11
1.07782
21
0.181831
0
LINE
8
BLACK
6
CONTINUOUS
10
1.07782
20
0.181831
11
1.07792
21
0.184624
0
LINE
8
BLACK
6
CONTINUOUS
10
1.07792
20
0.184624
11
1.07949
21
0.186902
0
LINE
8
BLACK
6
CONTINUOUS
10
1.07949
20
0.186902
11
1.08224
21
0.189148
0
LINE
8
BLACK
6
CONTINUOUS
10
1.08224
20
0.189148
11
1.08258
21
0.189488
0
LINE
8
BLACK
6
CONTINUOUS
10
1.08258
20
0.189488
11
1.08748
21
0.195408
0
LINE
8
BLACK
6
CONTINUOUS
10
1.08748
20
0.195408
11
1.08775
21
0.195808
0
LINE
8
BLACK
6
CONTINUOUS
10
1.08775
20
0.195808
11
1.09141
21
0.202567
0
LINE
8
BLACK
6
CONTINUOUS
10
1.09141
20
0.202567
11
1.09159
21
0.203012
0
LINE
8
BLACK
6
CONTINUOUS
10
1.09159
20
0.203012
11
1.09324
21
0.208319
0
LINE
8
BLACK
6
CONTINUOUS
10
1.09324
20
0.208319
11
1.09324
21
0.208874
0
LINE
8
BLACK
6
CONTINUOUS
10
1.09324
20
0.208874
11
1.09298
21
0.209
0
LINE
8
BLACK
6
CONTINUOUS
10
1.09298
20
0.209
11
1.07214
21
0.209
0
LINE
8
BLACK
6
CONTINUOUS
10
1.07214
20
0.209
11
1.07213
21
0.208968
0
LINE
8
BLACK
6
CONTINUOUS
10
1.07213
20
0.208968
11
1.06872
21
0.204177
0
LINE
8
BLACK
6
CONTINUOUS
10
1.06872
20
0.204177
11
1.06415
21
0.200478
0
LINE
8
BLACK
6
CONTINUOUS
10
1.06415
20
0.200478
11
1.059
21
0.198248
0
LINE
8
BLACK
6
CONTINUOUS
10
1.059
20
0.198248
11
1.059
21
0.178453
0
LINE
8
BLACK
6
CONTINUOUS
10
1.059
20
0.178453
11
1.05917
21
0.177885
0
LINE
8
BLACK
6
CONTINUOUS
10
1.05917
20
0.177885
11
1.05965
21
0.177803
0
LINE
8
BLACK
6
CONTINUOUS
10
1.05965
20
0.177803
11
1.06083
21
0.177918
0
LINE
8
BLACK
6
CONTINUOUS
10
1.06083
20
0.177918
11
1.0613
21
0.178012
0
LINE
8
BLACK
6
CONTINUOUS
10
1.0613
20
0.178012
11
1.06677
21
0.179664
0
LINE
8
BLACK
6
CONTINUOUS
10
1.06677
20
0.179664
11
1.06957
21
0.179686
0
LINE
8
BLACK
6
CONTINUOUS
10
1.06957
20
0.179686
11
1.07193
21
0.178193
0
LINE
8
BLACK
6
CONTINUOUS
10
1.07193
20
0.178193
11
1.07311
21
0.175659
0
LINE
8
BLACK
6
CONTINUOUS
10
1.07311
20
0.175659
11
1.07273
21
0.172889
0
LINE
8
BLACK
6
CONTINUOUS
10
1.07273
20
0.172889
11
1.07143
21
0.171144
0
LINE
8
BLACK
6
CONTINUOUS
10
1.07143
20
0.171144
11
1.06476
21
0.165447
0
LINE
8
BLACK
6
CONTINUOUS
10
1.06476
20
0.165447
11
1.05852
21
0.158141
0
LINE
8
BLACK
6
CONTINUOUS
10
1.05852
20
0.158141
11
1.0535
21
0.149948
0
LINE
8
BLACK
6
CONTINUOUS
10
1.0535
20
0.149948
11
1.05342
21
0.149768
0
LINE
8
BLACK
6
CONTINUOUS
10
1.05342
20
0.149768
11
1.05342
21
0.149768
0
LINE
8
BLACK
6
CONTINUOUS
10
1.05342
20
0.149768
11
1.04989
21
0.141251
0
LINE
8
BLACK
6
CONTINUOUS
10
1.04989
20
0.141251
11
1.04989
21
0.141251
0
LINE
8
BLACK
6
CONTINUOUS
10
1.04989
20
0.141251
11
1.04982
21
0.141071
0
LINE
8
BLACK
6
CONTINUOUS
10
1.04982
20
0.141071
11
1.04758
21
0.131728
0
LINE
8
BLACK
6
CONTINUOUS
10
1.04758
20
0.131728
11
1.04682
21
0.12215
0
LINE
8
BLACK
6
CONTINUOUS
10
1.04682
20
0.12215
11
1.04758
21
0.112571
0
LINE
8
BLACK
6
CONTINUOUS
10
1.04758
20
0.112571
11
1.04982
21
0.103228
0
LINE
8
BLACK
6
CONTINUOUS
10
0.540231
20
0.0700658
11
0.540533
21
0.07
0
LINE
8
BLACK
6
CONTINUOUS
10
0.540533
20
0.07
11
0.561759
21
0.07
0
LINE
8
BLACK
6
CONTINUOUS
10
0.561759
20
0.07
11
0.562027
21
0.0700146
0
LINE
8
BLACK
6
CONTINUOUS
10
0.562027
20
0.0700146
11
0.56403
21
0.0702321
0
LINE
8
BLACK
6
CONTINUOUS
10
0.56403
20
0.0702321
11
0.56463
21
0.0703748
0
LINE
8
BLACK
6
CONTINUOUS
10
0.56463
20
0.0703748
11
0.569372
21
0.0721526
0
LINE
8
BLACK
6
CONTINUOUS
10
0.569372
20
0.0721526
11
0.569986
21
0.0724887
0
LINE
8
BLACK
6
CONTINUOUS
10
0.569986
20
0.0724887
11
0.574005
21
0.0755006
0
LINE
8
BLACK
6
CONTINUOUS
10
0.574005
20
0.0755006
11
0.574499
21
0.0759951
0
LINE
8
BLACK
6
CONTINUOUS
10
0.574499
20
0.0759951
11
0.577511
21
0.0800138
0
LINE
8
BLACK
6
CONTINUOUS
10
0.577511
20
0.0800138
11
0.577847
21
0.0806278
0
LINE
8
BLACK
6
CONTINUOUS
10
0.577847
20
0.0806278
11
0.579625
21
0.0853698
0
LINE
8
BLACK
6
CONTINUOUS
10
0.579625
20
0.0853698
11
0.579768
21
0.0859704
0
LINE
8
BLACK
6
CONTINUOUS
10
0.579768
20
0.0859704
11
0.579985
21
0.087973
0
LINE
8
BLACK
6
CONTINUOUS
10
0.579985
20
0.087973
11
0.58
21
0.0882413
0
LINE
8
BLACK
6
CONTINUOUS
10
0.58
20
0.0882413
11
0.58
21
0.109287
0
LINE
8
BLACK
6
CONTINUOUS
10
0.58
20
0.109287
11
0.579824
21
0.109887
0
LINE
8
BLACK
6
CONTINUOUS
10
0.579824
20
0.109887
11
0.579769
21
0.109934
0
LINE
8
BLACK
6
CONTINUOUS
10
0.579769
20
0.109934
11
0.579467
21
0.11
0
LINE
8
BLACK
6
CONTINUOUS
10
0.579467
20
0.11
11
0.56
21
0.11
0
LINE
8
BLACK
6
CONTINUOUS
10
0.56
20
0.11
11
0.56
21
0.09
0
LINE
8
BLACK
6
CONTINUOUS
10
0.56
20
0.09
11
0.54
21
0.09
0
LINE
8
BLACK
6
CONTINUOUS
10
0.54
20
0.09
11
0.54
21
0.0707132
0
LINE
8
BLACK
6
CONTINUOUS
10
0.54
20
0.0707132
11
0.540176
21
0.0701133
0
LINE
8
BLACK
6
CONTINUOUS
10
0.540176
20
0.0701133
11
0.540231
21
0.0700658
0
LINE
8
BLACK
6
CONTINUOUS
10
1.00637
20
0.203106
11
1.00993
21
0.196297
0
LINE
8
BLACK
6
CONTINUOUS
10
1.00993
20
0.196297
11
1.01019
21
0.195893
0
LINE
8
BLACK
6
CONTINUOUS
10
1.01019
20
0.195893
11
1.01501
21
0.189905
0
LINE
8
BLACK
6
CONTINUOUS
10
1.01501
20
0.189905
11
1.01534
21
0.18956
0
LINE
8
BLACK
6
CONTINUOUS
10
1.01534
20
0.18956
11
1.02123
21
0.184621
0
LINE
8
BLACK
6
CONTINUOUS
10
1.02123
20
0.184621
11
1.02163
21
0.184348
0
LINE
8
BLACK
6
CONTINUOUS
10
1.02163
20
0.184348
11
1.02836
21
0.180646
0
LINE
8
BLACK
6
CONTINUOUS
10
1.02836
20
0.180646
11
1.02881
21
0.180456
0
LINE
8
BLACK
6
CONTINUOUS
10
1.02881
20
0.180456
11
1.03613
21
0.178133
0
LINE
8
BLACK
6
CONTINUOUS
10
1.03613
20
0.178133
11
1.0366
21
0.178033
0
LINE
8
BLACK
6
CONTINUOUS
10
1.0366
20
0.178033
11
1.03829
21
0.177843
0
LINE
8
BLACK
6
CONTINUOUS
10
1.03829
20
0.177843
11
1.03886
21
0.177944
0
LINE
8
BLACK
6
CONTINUOUS
10
1.03886
20
0.177944
11
1.039
21
0.178438
0
LINE
8
BLACK
6
CONTINUOUS
10
1.039
20
0.178438
11
1.039
21
0.198421
0
LINE
8
BLACK
6
CONTINUOUS
10
1.039
20
0.198421
11
1.03626
21
0.199219
0
LINE
8
BLACK
6
CONTINUOUS
10
1.03626
20
0.199219
11
1.03126
21
0.202316
0
LINE
8
BLACK
6
CONTINUOUS
10
1.03126
20
0.202316
11
1.02728
21
0.206642
0
LINE
8
BLACK
6
CONTINUOUS
10
1.02728
20
0.206642
11
1.02608
21
0.209
0
LINE
8
BLACK
6
CONTINUOUS
10
1.02608
20
0.209
11
1.0053
21
0.209
0
LINE
8
BLACK
6
CONTINUOUS
10
1.0053
20
0.209
11
1.00476
21
0.208844
0
LINE
8
BLACK
6
CONTINUOUS
10
1.00476
20
0.208844
11
1.00472
21
0.208537
0
LINE
8
BLACK
6
CONTINUOUS
10
1.00472
20
0.208537
11
1.00619
21
0.203553
0
LINE
8
BLACK
6
CONTINUOUS
10
1.00619
20
0.203553
11
1.00637
21
0.203106
0
LINE
8
BLACK
6
CONTINUOUS
10
1.07214
20
0.359
11
1.07213
21
0.358968
0
LINE
8
BLACK
6
CONTINUOUS
10
1.07213
20
0.358968
11
1.06872
21
0.354177
0
LINE
8
BLACK
6
CONTINUOUS
10
1.06872
20
0.354177
11
1.06415
21
0.350478
0
LINE
8
BLACK
6
CONTINUOUS
10
1.06415
20
0.350478
11
1.059
21
0.348248
0
LINE
8
BLACK
6
CONTINUOUS
10
1.059
20
0.348248
11
1.059
21
0.328453
0
LINE
8
BLACK
6
CONTINUOUS
10
1.059
20
0.328453
11
1.05917
21
0.327885
0
LINE
8
BLACK
6
CONTINUOUS
10
1.05917
20
0.327885
11
1.05965
21
0.327803
0
LINE
8
BLACK
6
CONTINUOUS
10
1.05965
20
0.327803
11
1.06083
21
0.327918
0
LINE
8
BLACK
6
CONTINUOUS
10
1.06083
20
0.327918
11
1.0613
21
0.328012
0
LINE
8
BLACK
6
CONTINUOUS
10
1.0613
20
0.328012
11
1.06459
21
0.329005
0
LINE
8
BLACK
6
CONTINUOUS
10
1.06459
20
0.329005
11
1.06738
21
0.329026
0
LINE
8
BLACK
6
CONTINUOUS
10
1.06738
20
0.329026
11
1.06974
21
0.327533
0
LINE
8
BLACK
6
CONTINUOUS
10
1.06974
20
0.327533
11
1.07092
21
0.324999
0
LINE
8
BLACK
6
CONTINUOUS
10
1.07092
20
0.324999
11
1.07091
21
0.323445
0
LINE
8
BLACK
6
CONTINUOUS
10
1.07091
20
0.323445
11
1.07049
21
0.32088
0
LINE
8
BLACK
6
CONTINUOUS
10
1.07049
20
0.32088
11
1.0705
21
0.320612
0
LINE
8
BLACK
6
CONTINUOUS
10
1.0705
20
0.320612
11
1.0705
21
0.320612
0
LINE
8
BLACK
6
CONTINUOUS
10
1.0705
20
0.320612
11
1.07082
21
0.314507
0
LINE
8
BLACK
6
CONTINUOUS
10
1.07082
20
0.314507
11
1.07087
21
0.313615
0
LINE
8
BLACK
6
CONTINUOUS
10
1.07087
20
0.313615
11
1.07094
21
0.313356
0
LINE
8
BLACK
6
CONTINUOUS
10
1.07094
20
0.313356
11
1.07094
21
0.313356
0
LINE
8
BLACK
6
CONTINUOUS
10
1.07094
20
0.313356
11
1.07195
21
0.309693
0
LINE
8
BLACK
6
CONTINUOUS
10
1.07195
20
0.309693
11
1.0728
21
0.306601
0
LINE
8
BLACK
6
CONTINUOUS
10
1.0728
20
0.306601
11
1.07619
21
0.300165
0
LINE
8
BLACK
6
CONTINUOUS
10
1.07619
20
0.300165
11
1.07637
21
0.29996
0
LINE
8
BLACK
6
CONTINUOUS
10
1.07637
20
0.29996
11
1.07859
21
0.297331
0
LINE
8
BLACK
6
CONTINUOUS
10
1.07859
20
0.297331
11
1.07972
21
0.294775
0
LINE
8
BLACK
6
CONTINUOUS
10
1.07972
20
0.294775
11
1.07929
21
0.292013
0
LINE
8
BLACK
6
CONTINUOUS
10
1.07929
20
0.292013
11
1.07861
21
0.290964
0
LINE
8
BLACK
6
CONTINUOUS
10
1.07861
20
0.290964
11
1.07847
21
0.29083
0
LINE
8
BLACK
6
CONTINUOUS
10
1.07847
20
0.29083
11
1.07438
21
0.284813
0
LINE
8
BLACK
6
CONTINUOUS
10
1.07438
20
0.284813
11
1.07428
21
0.284563
0
LINE
8
BLACK
6
CONTINUOUS
10
1.07428
20
0.284563
11
1.07428
21
0.284563
0
LINE
8
BLACK
6
CONTINUOUS
10
1.07428
20
0.284563
11
1.07178
21
0.278307
0
LINE
8
BLACK
6
CONTINUOUS
10
1.07178
20
0.278307
11
1.07178
21
0.278307
0
LINE
8
BLACK
6
CONTINUOUS
10
1.07178
20
0.278307
11
1.07168
21
0.278058
0
LINE
8
BLACK
6
CONTINUOUS
10
1.07168
20
0.278058
11
1.07163
21
0.277793
0
LINE
8
BLACK
6
CONTINUOUS
10
1.07163
20
0.277793
11
1.0707
21
0.272153
0
LINE
8
BLACK
6
CONTINUOUS
10
1.0707
20
0.272153
11
1.07049
21
0.27088
0
LINE
8
BLACK
6
CONTINUOUS
10
1.07049
20
0.27088
11
1.0705
21
0.270612
0
LINE
8
BLACK
6
CONTINUOUS
10
1.0705
20
0.270612
11
1.0705
21
0.270612
0
LINE
8
BLACK
6
CONTINUOUS
10
1.0705
20
0.270612
11
1.07085
21
0.264055
0
LINE
8
BLACK
6
CONTINUOUS
10
1.07085
20
0.264055
11
1.0702
21
0.261336
0
LINE
8
BLACK
6
CONTINUOUS
10
1.0702
20
0.261336
11
1.06819
21
0.259397
0
LINE
8
BLACK
6
CONTINUOUS
10
1.06819
20
0.259397
11
1.06544
21
0.258855
0
LINE
8
BLACK
6
CONTINUOUS
10
1.06544
20
0.258855
11
1.06439
21
0.259067
0
LINE
8
BLACK
6
CONTINUOUS
10
1.06439
20
0.259067
11
1.06187
21
0.259867
0
LINE
8
BLACK
6
CONTINUOUS
10
1.06187
20
0.259867
11
1.0614
21
0.259967
0
LINE
8
BLACK
6
CONTINUOUS
10
1.0614
20
0.259967
11
1.05971
21
0.260157
0
LINE
8
BLACK
6
CONTINUOUS
10
1.05971
20
0.260157
11
1.05914
21
0.260056
0
LINE
8
BLACK
6
CONTINUOUS
10
1.05914
20
0.260056
11
1.059
21
0.259562
0
LINE
8
BLACK
6
CONTINUOUS
10
1.059
20
0.259562
11
1.059
21
0.239579
0
LINE
8
BLACK
6
CONTINUOUS
10
1.059
20
0.239579
11
1.06174
21
0.238781
0
LINE
8
BLACK
6
CONTINUOUS
10
1.06174
20
0.238781
11
1.06674
21
0.235684
0
LINE
8
BLACK
6
CONTINUOUS
10
1.06674
20
0.235684
11
1.07072
21
0.231358
0
LINE
8
BLACK
6
CONTINUOUS
10
1.07072
20
0.231358
11
1.07192
21
0.229
0
LINE
8
BLACK
6
CONTINUOUS
10
1.07192
20
0.229
11
1.0927
21
0.229
0
LINE
8
BLACK
6
CONTINUOUS
10
1.0927
20
0.229
11
1.09324
21
0.229156
0
LINE
8
BLACK
6
CONTINUOUS
10
1.09324
20
0.229156
11
1.09328
21
0.229463
0
LINE
8
BLACK
6
CONTINUOUS
10
1.09328
20
0.229463
11
1.09325
21
0.229571
0
LINE
8
BLACK
6
CONTINUOUS
10
1.09325
20
0.229571
11
1.09325
21
0.232367
0
LINE
8
BLACK
6
CONTINUOUS
10
1.09325
20
0.232367
11
1.09476
21
0.234719
0
LINE
8
BLACK
6
CONTINUOUS
10
1.09476
20
0.234719
11
1.0973
21
0.235882
0
LINE
8
BLACK
6
CONTINUOUS
10
1.0973
20
0.235882
11
1.09909
21
0.235813
0
LINE
8
BLACK
6
CONTINUOUS
10
1.09909
20
0.235813
11
1.10017
21
0.235573
0
LINE
8
BLACK
6
CONTINUOUS
10
1.10017
20
0.235573
11
1.10017
21
0.235573
0
LINE
8
BLACK
6
CONTINUOUS
10
1.10017
20
0.235573
11
1.10036
21
0.235528
0
LINE
8
BLACK
6
CONTINUOUS
10
1.10036
20
0.235528
11
1.10059
21
0.235516
0
LINE
8
BLACK
6
CONTINUOUS
10
1.10059
20
0.235516
11
1.11381
21
0.235516
0
LINE
8
BLACK
6
CONTINUOUS
10
1.11381
20
0.235516
11
1.11922
21
0.236104
0
LINE
8
BLACK
6
CONTINUOUS
10
1.11922
20
0.236104
11
1.12612
21
0.238425
0
LINE
8
BLACK
6
CONTINUOUS
10
1.12612
20
0.238425
11
1.13236
21
0.242172
0
LINE
8
BLACK
6
CONTINUOUS
10
1.13236
20
0.242172
11
1.1328
21
0.242592
0
LINE
8
BLACK
6
CONTINUOUS
10
1.1328
20
0.242592
11
1.13745
21
0.246986
0
LINE
8
BLACK
6
CONTINUOUS
10
1.13745
20
0.246986
11
1.13745
21
0.246986
0
LINE
8
BLACK
6
CONTINUOUS
10
1.13745
20
0.246986
11
1.13764
21
0.24717
0
LINE
8
BLACK
6
CONTINUOUS
10
1.13764
20
0.24717
11
1.14173
21
0.253187
0
LINE
8
BLACK
6
CONTINUOUS
10
1.14173
20
0.253187
11
1.14205
21
0.253976
0
LINE
8
BLACK
6
CONTINUOUS
10
1.14205
20
0.253976
11
1.14433
21
0.259693
0
LINE
8
BLACK
6
CONTINUOUS
10
1.14433
20
0.259693
11
1.14433
21
0.259693
0
LINE
8
BLACK
6
CONTINUOUS
10
1.14433
20
0.259693
11
1.14443
21
0.259942
0
LINE
8
BLACK
6
CONTINUOUS
10
1.14443
20
0.259942
11
1.14511
21
0.264055
0
LINE
8
BLACK
6
CONTINUOUS
10
1.14511
20
0.264055
11
1.14558
21
0.266855
0
LINE
8
BLACK
6
CONTINUOUS
10
1.14558
20
0.266855
11
1.14558
21
0.266855
0
LINE
8
BLACK
6
CONTINUOUS
10
1.14558
20
0.266855
11
1.14562
21
0.26712
0
LINE
8
BLACK
6
CONTINUOUS
10
1.14562
20
0.26712
11
1.14556
21
0.268276
0
LINE
8
BLACK
6
CONTINUOUS
10
1.14556
20
0.268276
11
1.14525
21
0.274117
0
LINE
8
BLACK
6
CONTINUOUS
10
1.14525
20
0.274117
11
1.14524
21
0.274385
0
LINE
8
BLACK
6
CONTINUOUS
10
1.14524
20
0.274385
11
1.14423
21
0.278058
0
LINE
8
BLACK
6
CONTINUOUS
10
1.14423
20
0.278058
11
1.14338
21
0.28114
0
LINE
8
BLACK
6
CONTINUOUS
10
1.14338
20
0.28114
11
1.14331
21
0.281399
0
LINE
8
BLACK
6
CONTINUOUS
10
1.14331
20
0.281399
11
1.13992
21
0.287835
0
LINE
8
BLACK
6
CONTINUOUS
10
1.13992
20
0.287835
11
1.13752
21
0.290669
0
LINE
8
BLACK
6
CONTINUOUS
10
1.13752
20
0.290669
11
1.13639
21
0.293225
0
LINE
8
BLACK
6
CONTINUOUS
10
1.13639
20
0.293225
11
1.13682
21
0.295987
0
LINE
8
BLACK
6
CONTINUOUS
10
1.13682
20
0.295987
11
1.1375
21
0.297036
0
LINE
8
BLACK
6
CONTINUOUS
10
1.1375
20
0.297036
11
1.13764
21
0.29717
0
LINE
8
BLACK
6
CONTINUOUS
10
1.13764
20
0.29717
11
1.14173
21
0.303187
0
LINE
8
BLACK
6
CONTINUOUS
10
1.14173
20
0.303187
11
1.143
21
0.306363
0
LINE
8
BLACK
6
CONTINUOUS
10
1.143
20
0.306363
11
1.14433
21
0.309693
0
LINE
8
BLACK
6
CONTINUOUS
10
1.14433
20
0.309693
11
1.14433
21
0.309693
0
LINE
8
BLACK
6
CONTINUOUS
10
1.14433
20
0.309693
11
1.14443
21
0.309942
0
LINE
8
BLACK
6
CONTINUOUS
10
1.14443
20
0.309942
11
1.14562
21
0.31712
0
LINE
8
BLACK
6
CONTINUOUS
10
1.14562
20
0.31712
11
1.14541
21
0.321145
0
LINE
8
BLACK
6
CONTINUOUS
10
1.14541
20
0.321145
11
1.14525
21
0.324117
0
LINE
8
BLACK
6
CONTINUOUS
10
1.14525
20
0.324117
11
1.14524
21
0.324385
0
LINE
8
BLACK
6
CONTINUOUS
10
1.14524
20
0.324385
11
1.14424
21
0.328012
0
LINE
8
BLACK
6
CONTINUOUS
10
1.14424
20
0.328012
11
1.14338
21
0.33114
0
LINE
8
BLACK
6
CONTINUOUS
10
1.14338
20
0.33114
11
1.14331
21
0.331399
0
LINE
8
BLACK
6
CONTINUOUS
10
1.14331
20
0.331399
11
1.13992
21
0.337835
0
LINE
8
BLACK
6
CONTINUOUS
10
1.13992
20
0.337835
11
1.13522
21
0.343391
0
LINE
8
BLACK
6
CONTINUOUS
10
1.13522
20
0.343391
11
1.13501
21
0.343555
0
LINE
8
BLACK
6
CONTINUOUS
10
1.13501
20
0.343555
11
1.12965
21
0.347647
0
LINE
8
BLACK
6
CONTINUOUS
10
1.12965
20
0.347647
11
1.12965
21
0.347647
0
LINE
8
BLACK
6
CONTINUOUS
10
1.12965
20
0.347647
11
1.12944
21
0.34781
0
LINE
8
BLACK
6
CONTINUOUS
10
1.12944
20
0.34781
11
1.1292
21
0.347924
0
LINE
8
BLACK
6
CONTINUOUS
10
1.1292
20
0.347924
11
1.1292
21
0.347924
0
LINE
8
BLACK
6
CONTINUOUS
10
1.1292
20
0.347924
11
1.12309
21
0.350771
0
LINE
8
BLACK
6
CONTINUOUS
10
1.12309
20
0.350771
11
1.12309
21
0.350771
0
LINE
8
BLACK
6
CONTINUOUS
10
1.12309
20
0.350771
11
1.12285
21
0.350885
0
LINE
8
BLACK
6
CONTINUOUS
10
1.12285
20
0.350885
11
1.12258
21
0.350943
0
LINE
8
BLACK
6
CONTINUOUS
10
1.12258
20
0.350943
11
1.12258
21
0.350943
0
LINE
8
BLACK
6
CONTINUOUS
10
1.12258
20
0.350943
11
1.11708
21
0.352175
0
LINE
8
BLACK
6
CONTINUOUS
10
1.11708
20
0.352175
11
1.11575
21
0.352472
0
LINE
8
BLACK
6
CONTINUOUS
10
1.11575
20
0.352472
11
1.11552
21
0.352484
0
LINE
8
BLACK
6
CONTINUOUS
10
1.11552
20
0.352484
11
1.1023
21
0.352484
0
LINE
8
BLACK
6
CONTINUOUS
10
1.1023
20
0.352484
11
1.10217
21
0.35247
0
LINE
8
BLACK
6
CONTINUOUS
10
1.10217
20
0.35247
11
1.10217
21
0.35247
0
LINE
8
BLACK
6
CONTINUOUS
10
1.10217
20
0.35247
11
1.09856
21
0.352078
0
LINE
8
BLACK
6
CONTINUOUS
10
1.09856
20
0.352078
11
1.09581
21
0.352571
0
LINE
8
BLACK
6
CONTINUOUS
10
1.09581
20
0.352571
11
1.09376
21
0.354473
0
LINE
8
BLACK
6
CONTINUOUS
10
1.09376
20
0.354473
11
1.09307
21
0.357181
0
LINE
8
BLACK
6
CONTINUOUS
10
1.09307
20
0.357181
11
1.09323
21
0.358175
0
LINE
8
BLACK
6
CONTINUOUS
10
1.09323
20
0.358175
11
1.09324
21
0.358874
0
LINE
8
BLACK
6
CONTINUOUS
10
1.09324
20
0.358874
11
1.09298
21
0.359
0
LINE
8
BLACK
6
CONTINUOUS
10
1.09298
20
0.359
11
1.07214
21
0.359
0
LINE
8
BLACK
6
CONTINUOUS
10
1.00637
20
0.353106
11
1.00993
21
0.346297
0
LINE
8
BLACK
6
CONTINUOUS
10
1.00993
20
0.346297
11
1.01019
21
0.345893
0
LINE
8
BLACK
6
CONTINUOUS
10
1.01019
20
0.345893
11
1.01501
21
0.339905
0
LINE
8
BLACK
6
CONTINUOUS
10
1.01501
20
0.339905
11
1.01534
21
0.33956
0
LINE
8
BLACK
6
CONTINUOUS
10
1.01534
20
0.33956
11
1.02123
21
0.334621
0
LINE
8
BLACK
6
CONTINUOUS
10
1.02123
20
0.334621
11
1.02163
21
0.334348
0
LINE
8
BLACK
6
CONTINUOUS
10
1.02163
20
0.334348
11
1.02836
21
0.330646
0
LINE
8
BLACK
6
CONTINUOUS
10
1.02836
20
0.330646
11
1.02881
21
0.330456
0
LINE
8
BLACK
6
CONTINUOUS
10
1.02881
20
0.330456
11
1.03613
21
0.328133
0
LINE
8
BLACK
6
CONTINUOUS
10
1.03613
20
0.328133
11
1.0366
21
0.328033
0
LINE
8
BLACK
6
CONTINUOUS
10
1.0366
20
0.328033
11
1.03829
21
0.327843
0
LINE
8
BLACK
6
CONTINUOUS
10
1.03829
20
0.327843
11
1.03886
21
0.327944
0
LINE
8
BLACK
6
CONTINUOUS
10
1.03886
20
0.327944
11
1.039
21
0.328438
0
LINE
8
BLACK
6
CONTINUOUS
10
1.039
20
0.328438
11
1.039
21
0.348421
0
LINE
8
BLACK
6
CONTINUOUS
10
1.039
20
0.348421
11
1.03626
21
0.349219
0
LINE
8
BLACK
6
CONTINUOUS
10
1.03626
20
0.349219
11
1.03126
21
0.352316
0
LINE
8
BLACK
6
CONTINUOUS
10
1.03126
20
0.352316
11
1.02728
21
0.356642
0
LINE
8
BLACK
6
CONTINUOUS
10
1.02728
20
0.356642
11
1.02608
21
0.359
0
LINE
8
BLACK
6
CONTINUOUS
10
1.02608
20
0.359
11
1.0053
21
0.359
0
LINE
8
BLACK
6
CONTINUOUS
10
1.0053
20
0.359
11
1.00476
21
0.358844
0
LINE
8
BLACK
6
CONTINUOUS
10
1.00476
20
0.358844
11
1.00472
21
0.358537
0
LINE
8
BLACK
6
CONTINUOUS
10
1.00472
20
0.358537
11
1.00619
21
0.353553
0
LINE
8
BLACK
6
CONTINUOUS
10
1.00619
20
0.353553
11
1.00637
21
0.353106
0
LINE
8
BLACK
6
CONTINUOUS
10
0.440713
20
0.37
11
0.440113
21
0.369824
0
LINE
8
BLACK
6
CONTINUOUS
10
0.440113
20
0.369824
11
0.440066
21
0.369769
0
LINE
8
BLACK
6
CONTINUOUS
10
0.440066
20
0.369769
11
0.44
21
0.369467
0
LINE
8
BLACK
6
CONTINUOUS
10
0.44
20
0.369467
11
0.44
21
0.35
0
LINE
8
BLACK
6
CONTINUOUS
10
0.44
20
0.35
11
0.46
21
0.35
0
LINE
8
BLACK
6
CONTINUOUS
10
0.46
20
0.35
11
0.46
21
0.33
0
LINE
8
BLACK
6
CONTINUOUS
10
0.46
20
0.33
11
0.5
21
0.33
0
LINE
8
BLACK
6
CONTINUOUS
10
0.5
20
0.33
11
0.5
21
0.35
0
LINE
8
BLACK
6
CONTINUOUS
10
0.5
20
0.35
11
0.52
21
0.35
0
LINE
8
BLACK
6
CONTINUOUS
10
0.52
20
0.35
11
0.52
21
0.369287
0
LINE
8
BLACK
6
CONTINUOUS
10
0.52
20
0.369287
11
0.519824
21
0.369887
0
LINE
8
BLACK
6
CONTINUOUS
10
0.519824
20
0.369887
11
0.519769
21
0.369934
0
LINE
8
BLACK
6
CONTINUOUS
10
0.519769
20
0.369934
11
0.519467
21
0.37
0
LINE
8
BLACK
6
CONTINUOUS
10
0.519467
20
0.37
11
0.498241
21
0.37
0
LINE
8
BLACK
6
CONTINUOUS
10
0.498241
20
0.37
11
0.497973
21
0.369985
0
LINE
8
BLACK
6
CONTINUOUS
10
0.497973
20
0.369985
11
0.49597
21
0.369768
0
LINE
8
BLACK
6
CONTINUOUS
10
0.49597
20
0.369768
11
0.49537
21
0.369625
0
LINE
8
BLACK
6
CONTINUOUS
10
0.49537
20
0.369625
11
0.490628
21
0.367847
0
LINE
8
BLACK
6
CONTINUOUS
10
0.490628
20
0.367847
11
0.490014
21
0.367511
0
LINE
8
BLACK
6
CONTINUOUS
10
0.490014
20
0.367511
11
0.485995
21
0.364499
0
LINE
8
BLACK
6
CONTINUOUS
10
0.485995
20
0.364499
11
0.485501
21
0.364005
0
LINE
8
BLACK
6
CONTINUOUS
10
0.485501
20
0.364005
11
0.48397
21
0.361962
0
LINE
8
BLACK
6
CONTINUOUS
10
0.48397
20
0.361962
11
0.481731
21
0.360288
0
LINE
8
BLACK
6
CONTINUOUS
10
0.481731
20
0.360288
11
0.478943
21
0.36009
0
LINE
8
BLACK
6
CONTINUOUS
10
0.478943
20
0.36009
11
0.47649
21
0.361431
0
LINE
8
BLACK
6
CONTINUOUS
10
0.47649
20
0.361431
11
0.47603
21
0.361962
0
LINE
8
BLACK
6
CONTINUOUS
10
0.47603
20
0.361962
11
0.474499
21
0.364005
0
LINE
8
BLACK
6
CONTINUOUS
10
0.474499
20
0.364005
11
0.474005
21
0.364499
0
LINE
8
BLACK
6
CONTINUOUS
10
0.474005
20
0.364499
11
0.469986
21
0.367511
0
LINE
8
BLACK
6
CONTINUOUS
10
0.469986
20
0.367511
11
0.469372
21
0.367847
0
LINE
8
BLACK
6
CONTINUOUS
10
0.469372
20
0.367847
11
0.46463
21
0.369625
0
LINE
8
BLACK
6
CONTINUOUS
10
0.46463
20
0.369625
11
0.46403
21
0.369768
0
LINE
8
BLACK
6
CONTINUOUS
10
0.46403
20
0.369768
11
0.462027
21
0.369985
0
LINE
8
BLACK
6
CONTINUOUS
10
0.462027
20
0.369985
11
0.461759
21
0.37
0
LINE
8
BLACK
6
CONTINUOUS
10
0.461759
20
0.37
11
0.440713
21
0.37
0
LINE
8
BLACK
6
CONTINUOUS
10
1.07214
20
0.509
11
1.07213
21
0.508968
0
LINE
8
BLACK
6
CONTINUOUS
10
1.07213
20
0.508968
11
1.06872
21
0.504177
0
LINE
8
BLACK
6
CONTINUOUS
10
1.06872
20
0.504177
11
1.06415
21
0.500478
0
LINE
8
BLACK
6
CONTINUOUS
10
1.06415
20
0.500478
11
1.059
21
0.498248
0
LINE
8
BLACK
6
CONTINUOUS
10
1.059
20
0.498248
11
1.059
21
0.478453
0
LINE
8
BLACK
6
CONTINUOUS
10
1.059
20
0.478453
11
1.05917
21
0.477885
0
LINE
8
BLACK
6
CONTINUOUS
10
1.05917
20
0.477885
11
1.05965
21
0.477803
0
LINE
8
BLACK
6
CONTINUOUS
10
1.05965
20
0.477803
11
1.06083
21
0.477918
0
LINE
8
BLACK
6
CONTINUOUS
10
1.06083
20
0.477918
11
1.0613
21
0.478012
0
LINE
8
BLACK
6
CONTINUOUS
10
1.0613
20
0.478012
11
1.06459
21
0.479005
0
LINE
8
BLACK
6
CONTINUOUS
10
1.06459
20
0.479005
11
1.06738
21
0.479026
0
LINE
8
BLACK
6
CONTINUOUS
10
1.06738
20
0.479026
11
1.06974
21
0.477533
0
LINE
8
BLACK
6
CONTINUOUS
10
1.06974
20
0.477533
11
1.07092
21
0.474999
0
LINE
8
BLACK
6
CONTINUOUS
10
1.07092
20
0.474999
11
1.07091
21
0.473445
0
LINE
8
BLACK
6
CONTINUOUS
10
1.07091
20
0.473445
11
1.07049
21
0.47088
0
LINE
8
BLACK
6
CONTINUOUS
10
1.07049
20
0.47088
11
1.0705
21
0.470612
0
LINE
8
BLACK
6
CONTINUOUS
10
1.0705
20
0.470612
11
1.0705
21
0.470612
0
LINE
8
BLACK
6
CONTINUOUS
10
1.0705
20
0.470612
11
1.07082
21
0.464507
0
LINE
8
BLACK
6
CONTINUOUS
10
1.07082
20
0.464507
11
1.07087
21
0.463615
0
LINE
8
BLACK
6
CONTINUOUS
10
1.07087
20
0.463615
11
1.07094
21
0.463356
0
LINE
8
BLACK
6
CONTINUOUS
10
1.07094
20
0.463356
11
1.07094
21
0.463356
0
LINE
8
BLACK
6
CONTINUOUS
10
1.07094
20
0.463356
11
1.07195
21
0.459693
0
LINE
8
BLACK
6
CONTINUOUS
10
1.07195
20
0.459693
11
1.0728
21
0.456601
0
LINE
8
BLACK
6
CONTINUOUS
10
1.0728
20
0.456601
11
1.07619
21
0.450165
0
LINE
8
BLACK
6
CONTINUOUS
10
1.07619
20
0.450165
11
1.07637
21
0.44996
0
LINE
8
BLACK
6
CONTINUOUS
10
1.07637
20
0.44996
11
1.07859
21
0.447331
0
LINE
8
BLACK
6
CONTINUOUS
10
1.07859
20
0.447331
11
1.07972
21
0.444775
0
LINE
8
BLACK
6
CONTINUOUS
10
1.07972
20
0.444775
11
1.07929
21
0.442013
0
LINE
8
BLACK
6
CONTINUOUS
10
1.07929
20
0.442013
11
1.07861
21
0.440964
0
LINE
8
BLACK
6
CONTINUOUS
10
1.07861
20
0.440964
11
1.07847
21
0.44083
0
LINE
8
BLACK
6
CONTINUOUS
10
1.07847
20
0.44083
11
1.07438
21
0.434813
0
LINE
8
BLACK
6
CONTINUOUS
10
1.07438
20
0.434813
11
1.07428
21
0.434563
0
LINE
8
BLACK
6
CONTINUOUS
10
1.07428
20
0.434563
11
1.07428
21
0.434563
0
LINE
8
BLACK
6
CONTINUOUS
10
1.07428
20
0.434563
11
1.07178
21
0.428307
0
LINE
8
BLACK
6
CONTINUOUS
10
1.07178
20
0.428307
11
1.07178
21
0.428307
0
LINE
8
BLACK
6
CONTINUOUS
10
1.07178
20
0.428307
11
1.07168
21
0.428058
0
LINE
8
BLACK
6
CONTINUOUS
10
1.07168
20
0.428058
11
1.07049
21
0.42088
0
LINE
8
BLACK
6
CONTINUOUS
10
1.07049
20
0.42088
11
1.0705
21
0.420612
0
LINE
8
BLACK
6
CONTINUOUS
10
1.0705
20
0.420612
11
1.0705
21
0.420612
0
LINE
8
BLACK
6
CONTINUOUS
10
1.0705
20
0.420612
11
1.07085
21
0.414055
0
LINE
8
BLACK
6
CONTINUOUS
10
1.07085
20
0.414055
11
1.0702
21
0.411336
0
LINE
8
BLACK
6
CONTINUOUS
10
1.0702
20
0.411336
11
1.06819
21
0.409397
0
LINE
8
BLACK
6
CONTINUOUS
10
1.06819
20
0.409397
11
1.06544
21
0.408855
0
LINE
8
BLACK
6
CONTINUOUS
10
1.06544
20
0.408855
11
1.06439
21
0.409067
0
LINE
8
BLACK
6
CONTINUOUS
10
1.06439
20
0.409067
11
1.06187
21
0.409867
0
LINE
8
BLACK
6
CONTINUOUS
10
1.06187
20
0.409867
11
1.0614
21
0.409967
0
LINE
8
BLACK
6
CONTINUOUS
10
1.0614
20
0.409967
11
1.05971
21
0.410157
0
LINE
8
BLACK
6
CONTINUOUS
10
1.05971
20
0.410157
11
1.05914
21
0.410056
0
LINE
8
BLACK
6
CONTINUOUS
10
1.05914
20
0.410056
11
1.059
21
0.409562
0
LINE
8
BLACK
6
CONTINUOUS
10
1.059
20
0.409562
11
1.059
21
0.389579
0
LINE
8
BLACK
6
CONTINUOUS
10
1.059
20
0.389579
11
1.06174
21
0.388781
0
LINE
8
BLACK
6
CONTINUOUS
10
1.06174
20
0.388781
11
1.06674
21
0.385684
0
LINE
8
BLACK
6
CONTINUOUS
10
1.06674
20
0.385684
11
1.07072
21
0.381358
0
LINE
8
BLACK
6
CONTINUOUS
10
1.07072
20
0.381358
11
1.07192
21
0.379
0
LINE
8
BLACK
6
CONTINUOUS
10
1.07192
20
0.379
11
1.0927
21
0.379
0
LINE
8
BLACK
6
CONTINUOUS
10
1.0927
20
0.379
11
1.09324
21
0.379156
0
LINE
8
BLACK
6
CONTINUOUS
10
1.09324
20
0.379156
11
1.09328
21
0.379463
0
LINE
8
BLACK
6
CONTINUOUS
10
1.09328
20
0.379463
11
1.09325
21
0.379571
0
LINE
8
BLACK
6
CONTINUOUS
10
1.09325
20
0.379571
11
1.09325
21
0.382367
0
LINE
8
BLACK
6
CONTINUOUS
10
1.09325
20
0.382367
11
1.09476
21
0.384719
0
LINE
8
BLACK
6
CONTINUOUS
10
1.09476
20
0.384719
11
1.0973
21
0.385882
0
LINE
8
BLACK
6
CONTINUOUS
10
1.0973
20
0.385882
11
1.09909
21
0.385813
0
LINE
8
BLACK
6
CONTINUOUS
10
1.09909
20
0.385813
11
1.10017
21
0.385573
0
LINE
8
BLACK
6
CONTINUOUS
10
1.10017
20
0.385573
11
1.10017
21
0.385573
0
LINE
8
BLACK
6
CONTINUOUS
10
1.10017
20
0.385573
11
1.10036
21
0.385528
0
LINE
8
BLACK
6
CONTINUOUS
10
1.10036
20
0.385528
11
1.10059
21
0.385516
0
LINE
8
BLACK
6
CONTINUOUS
10
1.10059
20
0.385516
11
1.11381
21
0.385516
0
LINE
8
BLACK
6
CONTINUOUS
10
1.11381
20
0.385516
11
1.11922
21
0.386104
0
LINE
8
BLACK
6
CONTINUOUS
10
1.11922
20
0.386104
11
1.12612
21
0.388425
0
LINE
8
BLACK
6
CONTINUOUS
10
1.12612
20
0.388425
11
1.13236
21
0.392172
0
LINE
8
BLACK
6
CONTINUOUS
10
1.13236
20
0.392172
11
1.1328
21
0.392592
0
LINE
8
BLACK
6
CONTINUOUS
10
1.1328
20
0.392592
11
1.13745
21
0.396986
0
LINE
8
BLACK
6
CONTINUOUS
10
1.13745
20
0.396986
11
1.13745
21
0.396986
0
LINE
8
BLACK
6
CONTINUOUS
10
1.13745
20
0.396986
11
1.13764
21
0.39717
0
LINE
8
BLACK
6
CONTINUOUS
10
1.13764
20
0.39717
11
1.14173
21
0.403187
0
LINE
8
BLACK
6
CONTINUOUS
10
1.14173
20
0.403187
11
1.14205
21
0.403976
0
LINE
8
BLACK
6
CONTINUOUS
10
1.14205
20
0.403976
11
1.14433
21
0.409693
0
LINE
8
BLACK
6
CONTINUOUS
10
1.14433
20
0.409693
11
1.14433
21
0.409693
0
LINE
8
BLACK
6
CONTINUOUS
10
1.14433
20
0.409693
11
1.14443
21
0.409942
0
LINE
8
BLACK
6
CONTINUOUS
10
1.14443
20
0.409942
11
1.14562
21
0.41712
0
LINE
8
BLACK
6
CONTINUOUS
10
1.14562
20
0.41712
11
1.14541
21
0.421145
0
LINE
8
BLACK
6
CONTINUOUS
10
1.14541
20
0.421145
11
1.14525
21
0.424117
0
LINE
8
BLACK
6
CONTINUOUS
10
1.14525
20
0.424117
11
1.14524
21
0.424385
0
LINE
8
BLACK
6
CONTINUOUS
10
1.14524
20
0.424385
11
1.14423
21
0.428058
0
LINE
8
BLACK
6
CONTINUOUS
10
1.14423
20
0.428058
11
1.14338
21
0.43114
0
LINE
8
BLACK
6
CONTINUOUS
10
1.14338
20
0.43114
11
1.14331
21
0.431399
0
LINE
8
BLACK
6
CONTINUOUS
10
1.14331
20
0.431399
11
1.13992
21
0.437835
0
LINE
8
BLACK
6
CONTINUOUS
10
1.13992
20
0.437835
11
1.13752
21
0.440669
0
LINE
8
BLACK
6
CONTINUOUS
10
1.13752
20
0.440669
11
1.13639
21
0.443225
0
LINE
8
BLACK
6
CONTINUOUS
10
1.13639
20
0.443225
11
1.13682
21
0.445987
0
LINE
8
BLACK
6
CONTINUOUS
10
1.13682
20
0.445987
11
1.1375
21
0.447036
0
LINE
8
BLACK
6
CONTINUOUS
10
1.1375
20
0.447036
11
1.13764
21
0.44717
0
LINE
8
BLACK
6
CONTINUOUS
10
1.13764
20
0.44717
11
1.14173
21
0.453187
0
LINE
8
BLACK
6
CONTINUOUS
10
1.14173
20
0.453187
11
1.143
21
0.456363
0
LINE
8
BLACK
6
CONTINUOUS
10
1.143
20
0.456363
11
1.14433
21
0.459693
0
LINE
8
BLACK
6
CONTINUOUS
10
1.14433
20
0.459693
11
1.14433
21
0.459693
0
LINE
8
BLACK
6
CONTINUOUS
10
1.14433
20
0.459693
11
1.14443
21
0.459942
0
LINE
8
BLACK
6
CONTINUOUS
10
1.14443
20
0.459942
11
1.14562
21
0.46712
0
LINE
8
BLACK
6
CONTINUOUS
10
1.14562
20
0.46712
11
1.14541
21
0.471145
0
LINE
8
BLACK
6
CONTINUOUS
10
1.14541
20
0.471145
11
1.14525
21
0.474117
0
LINE
8
BLACK
6
CONTINUOUS
10
1.14525
20
0.474117
11
1.14524
21
0.474385
0
LINE
8
BLACK
6
CONTINUOUS
10
1.14524
20
0.474385
11
1.14424
21
0.478012
0
LINE
8
BLACK
6
CONTINUOUS
10
1.14424
20
0.478012
11
1.14338
21
0.48114
0
LINE
8
BLACK
6
CONTINUOUS
10
1.14338
20
0.48114
11
1.14331
21
0.481399
0
LINE
8
BLACK
6
CONTINUOUS
10
1.14331
20
0.481399
11
1.13992
21
0.487835
0
LINE
8
BLACK
6
CONTINUOUS
10
1.13992
20
0.487835
11
1.13522
21
0.493391
0
LINE
8
BLACK
6
CONTINUOUS
10
1.13522
20
0.493391
11
1.13501
21
0.493555
0
LINE
8
BLACK
6
CONTINUOUS
10
1.13501
20
0.493555
11
1.12965
21
0.497647
0
LINE
8
BLACK
6
CONTINUOUS
10
1.12965
20
0.497647
11
1.12965
21
0.497647
0
LINE
8
BLACK
6
CONTINUOUS
10
1.12965
20
0.497647
11
1.12944
21
0.49781
0
LINE
8
BLACK
6
CONTINUOUS
10
1.12944
20
0.49781
11
1.1292
21
0.497924
0
LINE
8
BLACK
6
CONTINUOUS
10
1.1292
20
0.497924
11
1.1292
21
0.497924
0
LINE
8
BLACK
6
CONTINUOUS
10
1.1292
20
0.497924
11
1.12309
21
0.500771
0
LINE
8
BLACK
6
CONTINUOUS
10
1.12309
20
0.500771
11
1.12309
21
0.500771
0
LINE
8
BLACK
6
CONTINUOUS
10
1.12309
20
0.500771
11
1.12285
21
0.500885
0
LINE
8
BLACK
6
CONTINUOUS
10
1.12285
20
0.500885
11
1.12258
21
0.500943
0
LINE
8
BLACK
6
CONTINUOUS
10
1.12258
20
0.500943
11
1.12258
21
0.500943
0
LINE
8
BLACK
6
CONTINUOUS
10
1.12258
20
0.500943
11
1.11708
21
0.502175
0
LINE
8
BLACK
6
CONTINUOUS
10
1.11708
20
0.502175
11
1.11575
21
0.502472
0
LINE
8
BLACK
6
CONTINUOUS
10
1.11575
20
0.502472
11
1.11552
21
0.502484
0
LINE
8
BLACK
6
CONTINUOUS
10
1.11552
20
0.502484
11
1.1023
21
0.502484
0
LINE
8
BLACK
6
CONTINUOUS
10
1.1023
20
0.502484
11
1.10217
21
0.50247
0
LINE
8
BLACK
6
CONTINUOUS
10
1.10217
20
0.50247
11
1.10217
21
0.50247
0
LINE
8
BLACK
6
CONTINUOUS
10
1.10217
20
0.50247
11
1.09856
21
0.502078
0
LINE
8
BLACK
6
CONTINUOUS
10
1.09856
20
0.502078
11
1.09581
21
0.502571
0
LINE
8
BLACK
6
CONTINUOUS
10
1.09581
20
0.502571
11
1.09376
21
0.504473
0
LINE
8
BLACK
6
CONTINUOUS
10
1.09376
20
0.504473
11
1.09307
21
0.507181
0
LINE
8
BLACK
6
CONTINUOUS
10
1.09307
20
0.507181
11
1.09323
21
0.508175
0
LINE
8
BLACK
6
CONTINUOUS
10
1.09323
20
0.508175
11
1.09324
21
0.508874
0
LINE
8
BLACK
6
CONTINUOUS
10
1.09324
20
0.508874
11
1.09298
21
0.509
0
LINE
8
BLACK
6
CONTINUOUS
10
1.09298
20
0.509
11
1.07214
21
0.509
0
LINE
8
BLACK
6
CONTINUOUS
10
1.00637
20
0.503106
11
1.00993
21
0.496297
0
LINE
8
BLACK
6
CONTINUOUS
10
1.00993
20
0.496297
11
1.01019
21
0.495893
0
LINE
8
BLACK
6
CONTINUOUS
10
1.01019
20
0.495893
11
1.01501
21
0.489905
0
LINE
8
BLACK
6
CONTINUOUS
10
1.01501
20
0.489905
11
1.01534
21
0.48956
0
LINE
8
BLACK
6
CONTINUOUS
10
1.01534
20
0.48956
11
1.02123
21
0.484621
0
LINE
8
BLACK
6
CONTINUOUS
10
1.02123
20
0.484621
11
1.02163
21
0.484348
0
LINE
8
BLACK
6
CONTINUOUS
10
1.02163
20
0.484348
11
1.02836
21
0.480646
0
LINE
8
BLACK
6
CONTINUOUS
10
1.02836
20
0.480646
11
1.02881
21
0.480456
0
LINE
8
BLACK
6
CONTINUOUS
10
1.02881
20
0.480456
11
1.03613
21
0.478133
0
LINE
8
BLACK
6
CONTINUOUS
10
1.03613
20
0.478133
11
1.0366
21
0.478033
0
LINE
8
BLACK
6
CONTINUOUS
10
1.0366
20
0.478033
11
1.03829
21
0.477843
0
LINE
8
BLACK
6
CONTINUOUS
10
1.03829
20
0.477843
11
1.03886
21
0.477944
0
LINE
8
BLACK
6
CONTINUOUS
10
1.03886
20
0.477944
11
1.039
21
0.478438
0
LINE
8
BLACK
6
CONTINUOUS
10
1.039
20
0.478438
11
1.039
21
0.498421
0
LINE
8
BLACK
6
CONTINUOUS
10
1.039
20
0.498421
11
1.03626
21
0.499219
0
LINE
8
BLACK
6
CONTINUOUS
10
1.03626
20
0.499219
11
1.03126
21
0.502316
0
LINE
8
BLACK
6
CONTINUOUS
10
1.03126
20
0.502316
11
1.02728
21
0.506642
0
LINE
8
BLACK
6
CONTINUOUS
10
1.02728
20
0.506642
11
1.02608
21
0.509
0
LINE
8
BLACK
6
CONTINUOUS
10
1.02608
20
0.509
11
1.0053
21
0.509
0
LINE
8
BLACK
6
CONTINUOUS
10
1.0053
20
0.509
11
1.00476
21
0.508844
0
LINE
8
BLACK
6
CONTINUOUS
10
1.00476
20
0.508844
11
1.00472
21
0.508537
0
LINE
8
BLACK
6
CONTINUOUS
10
1.00472
20
0.508537
11
1.00619
21
0.503553
0
LINE
8
BLACK
6
CONTINUOUS
10
1.00619
20
0.503553
11
1.00637
21
0.503106
0
LINE
8
BLACK
6
CONTINUOUS
10
1.02586
20
0.529
11
1.02587
21
0.529032
0
LINE
8
BLACK
6
CONTINUOUS
10
1.02587
20
0.529032
11
1.02928
21
0.533823
0
LINE
8
BLACK
6
CONTINUOUS
10
1.02928
20
0.533823
11
1.03385
21
0.537522
0
LINE
8
BLACK
6
CONTINUOUS
10
1.03385
20
0.537522
11
1.039
21
0.539752
0
LINE
8
BLACK
6
CONTINUOUS
10
1.039
20
0.539752
11
1.039
21
0.559547
0
LINE
8
BLACK
6
CONTINUOUS
10
1.039
20
0.559547
11
1.03883
21
0.560115
0
LINE
8
BLACK
6
CONTINUOUS
10
1.03883
20
0.560115
11
1.03835
21
0.560197
0
LINE
8
BLACK
6
CONTINUOUS
10
1.03835
20
0.560197
11
1.03717
21
0.560082
0
LINE
8
BLACK
6
CONTINUOUS
10
1.03717
20
0.560082
11
1.0367
21
0.559988
0
LINE
8
BLACK
6
CONTINUOUS
10
1.0367
20
0.559988
11
1.02935
21
0.557767
0
LINE
8
BLACK
6
CONTINUOUS
10
1.02935
20
0.557767
11
1.0289
21
0.557583
0
LINE
8
BLACK
6
CONTINUOUS
10
1.0289
20
0.557583
11
1.02211
21
0.553976
0
LINE
8
BLACK
6
CONTINUOUS
10
1.02211
20
0.553976
11
1.02171
21
0.553709
0
LINE
8
BLACK
6
CONTINUOUS
10
1.02171
20
0.553709
11
1.01576
21
0.548852
0
LINE
8
BLACK
6
CONTINUOUS
10
1.01576
20
0.548852
11
1.01542
21
0.548512
0
LINE
8
BLACK
6
CONTINUOUS
10
1.01542
20
0.548512
11
1.01052
21
0.542592
0
LINE
8
BLACK
6
CONTINUOUS
10
1.01052
20
0.542592
11
1.01025
21
0.542192
0
LINE
8
BLACK
6
CONTINUOUS
10
1.01025
20
0.542192
11
1.00659
21
0.535433
0
LINE
8
BLACK
6
CONTINUOUS
10
1.00659
20
0.535433
11
1.00641
21
0.534988
0
LINE
8
BLACK
6
CONTINUOUS
10
1.00641
20
0.534988
11
1.00476
21
0.529681
0
LINE
8
BLACK
6
CONTINUOUS
10
1.00476
20
0.529681
11
1.00476
21
0.529126
0
LINE
8
BLACK
6
CONTINUOUS
10
1.00476
20
0.529126
11
1.00502
21
0.529
0
LINE
8
BLACK
6
CONTINUOUS
10
1.00502
20
0.529
11
1.02586
21
0.529
0
LINE
8
BLACK
6
CONTINUOUS
10
1.05914
20
0.560056
11
1.059
21
0.559562
0
LINE
8
BLACK
6
CONTINUOUS
10
1.059
20
0.559562
11
1.059
21
0.539579
0
LINE
8
BLACK
6
CONTINUOUS
10
1.059
20
0.539579
11
1.06174
21
0.538781
0
LINE
8
BLACK
6
CONTINUOUS
10
1.06174
20
0.538781
11
1.06674
21
0.535684
0
LINE
8
BLACK
6
CONTINUOUS
10
1.06674
20
0.535684
11
1.07072
21
0.531358
0
LINE
8
BLACK
6
CONTINUOUS
10
1.07072
20
0.531358
11
1.07192
21
0.529
0
LINE
8
BLACK
6
CONTINUOUS
10
1.07192
20
0.529
11
1.0927
21
0.529
0
LINE
8
BLACK
6
CONTINUOUS
10
1.0927
20
0.529
11
1.09324
21
0.529156
0
LINE
8
BLACK
6
CONTINUOUS
10
1.09324
20
0.529156
11
1.09328
21
0.529463
0
LINE
8
BLACK
6
CONTINUOUS
10
1.09328
20
0.529463
11
1.09181
21
0.534447
0
LINE
8
BLACK
6
CONTINUOUS
10
1.09181
20
0.534447
11
1.09163
21
0.534894
0
LINE
8
BLACK
6
CONTINUOUS
10
1.09163
20
0.534894
11
1.08807
21
0.541703
0
LINE
8
BLACK
6
CONTINUOUS
10
1.08807
20
0.541703
11
1.08781
21
0.542107
0
LINE
8
BLACK
6
CONTINUOUS
10
1.08781
20
0.542107
11
1.08299
21
0.548095
0
LINE
8
BLACK
6
CONTINUOUS
10
1.08299
20
0.548095
11
1.08266
21
0.54844
0
LINE
8
BLACK
6
CONTINUOUS
10
1.08266
20
0.54844
11
1.07677
21
0.553379
0
LINE
8
BLACK
6
CONTINUOUS
10
1.07677
20
0.553379
11
1.07637
21
0.553652
0
LINE
8
BLACK
6
CONTINUOUS
10
1.07637
20
0.553652
11
1.06964
21
0.557354
0
LINE
8
BLACK
6
CONTINUOUS
10
1.06964
20
0.557354
11
1.06919
21
0.557544
0
LINE
8
BLACK
6
CONTINUOUS
10
1.06919
20
0.557544
11
1.06187
21
0.559867
0
LINE
8
BLACK
6
CONTINUOUS
10
1.06187
20
0.559867
11
1.0614
21
0.559967
0
LINE
8
BLACK
6
CONTINUOUS
10
1.0614
20
0.559967
11
1.05971
21
0.560157
0
LINE
8
BLACK
6
CONTINUOUS
10
1.05971
20
0.560157
11
1.05914
21
0.560056
0
LINE
8
BLACK
6
CONTINUOUS
10
0.890231
20
0.560066
11
0.890533
21
0.56
0
LINE
8
BLACK
6
CONTINUOUS
10
0.890533
20
0.56
11
0.911759
21
0.56
0
LINE
8
BLACK
6
CONTINUOUS
10
0.911759
20
0.56
11
0.912027
21
0.560015
0
LINE
8
BLACK
6
CONTINUOUS
10
0.912027
20
0.560015
11
0.91403
21
0.560232
0
LINE
8
BLACK
6
CONTINUOUS
10
0.91403
20
0.560232
11
0.91463
21
0.560375
0
LINE
8
BLACK
6
CONTINUOUS
10
0.91463
20
0.560375
11
0.919372
21
0.562153
0
LINE
8
BLACK
6
CONTINUOUS
10
0.919372
20
0.562153
11
0.919986
21
0.562489
0
LINE
8
BLACK
6
CONTINUOUS
10
0.919986
20
0.562489
11
0.924005
21
0.565501
0
LINE
8
BLACK
6
CONTINUOUS
10
0.924005
20
0.565501
11
0.924499
21
0.565995
0
LINE
8
BLACK
6
CONTINUOUS
10
0.924499
20
0.565995
11
0.927511
21
0.570014
0
LINE
8
BLACK
6
CONTINUOUS
10
0.927511
20
0.570014
11
0.927847
21
0.570628
0
LINE
8
BLACK
6
CONTINUOUS
10
0.927847
20
0.570628
11
0.929625
21
0.57537
0
LINE
8
BLACK
6
CONTINUOUS
10
0.929625
20
0.57537
11
0.929768
21
0.57597
0
LINE
8
BLACK
6
CONTINUOUS
10
0.929768
20
0.57597
11
0.929985
21
0.577973
0
LINE
8
BLACK
6
CONTINUOUS
10
0.929985
20
0.577973
11
0.93
21
0.578241
0
LINE
8
BLACK
6
CONTINUOUS
10
0.93
20
0.578241
11
0.93
21
0.599287
0
LINE
8
BLACK
6
CONTINUOUS
10
0.93
20
0.599287
11
0.929824
21
0.599887
0
LINE
8
BLACK
6
CONTINUOUS
10
0.929824
20
0.599887
11
0.929769
21
0.599934
0
LINE
8
BLACK
6
CONTINUOUS
10
0.929769
20
0.599934
11
0.929467
21
0.6
0
LINE
8
BLACK
6
CONTINUOUS
10
0.929467
20
0.6
11
0.91
21
0.6
0
LINE
8
BLACK
6
CONTINUOUS
10
0.91
20
0.6
11
0.91
21
0.58
0
LINE
8
BLACK
6
CONTINUOUS
10
0.91
20
0.58
11
0.89
21
0.58
0
LINE
8
BLACK
6
CONTINUOUS
10
0.89
20
0.58
11
0.89
21
0.560713
0
LINE
8
BLACK
6
CONTINUOUS
10
0.89
20
0.560713
11
0.890176
21
0.560113
0
LINE
8
BLACK
6
CONTINUOUS
10
0.890176
20
0.560113
11
0.890231
21
0.560066
0
LINE
8
BLACK
6
CONTINUOUS
10
1.08919
20
0.608346
11
1.08926
21
0.608166
0
LINE
8
BLACK
6
CONTINUOUS
10
1.08926
20
0.608166
11
1.08926
21
0.608166
0
LINE
8
BLACK
6
CONTINUOUS
10
1.08926
20
0.608166
11
1.09269
21
0.599887
0
LINE
8
BLACK
6
CONTINUOUS
10
1.09269
20
0.599887
11
1.09287
21
0.599469
0
LINE
8
BLACK
6
CONTINUOUS
10
1.09287
20
0.599469
11
1.09789
21
0.591276
0
LINE
8
BLACK
6
CONTINUOUS
10
1.09789
20
0.591276
11
1.10413
21
0.58397
0
LINE
8
BLACK
6
CONTINUOUS
10
1.10413
20
0.58397
11
1.11143
21
0.57773
0
LINE
8
BLACK
6
CONTINUOUS
10
1.11143
20
0.57773
11
1.11963
21
0.57271
0
LINE
8
BLACK
6
CONTINUOUS
10
1.11963
20
0.57271
11
1.11981
21
0.572635
0
LINE
8
BLACK
6
CONTINUOUS
10
1.11981
20
0.572635
11
1.11981
21
0.572635
0
LINE
8
BLACK
6
CONTINUOUS
10
1.11981
20
0.572635
11
1.12832
21
0.569107
0
LINE
8
BLACK
6
CONTINUOUS
10
1.12832
20
0.569107
11
1.12832
21
0.569107
0
LINE
8
BLACK
6
CONTINUOUS
10
1.12832
20
0.569107
11
1.1285
21
0.569033
0
LINE
8
BLACK
6
CONTINUOUS
10
1.1285
20
0.569033
11
1.12869
21
0.568987
0
LINE
8
BLACK
6
CONTINUOUS
10
1.12869
20
0.568987
11
1.12869
21
0.568987
0
LINE
8
BLACK
6
CONTINUOUS
10
1.12869
20
0.568987
11
1.13203
21
0.568187
0
LINE
8
BLACK
6
CONTINUOUS
10
1.13203
20
0.568187
11
1.13785
21
0.56679
0
LINE
8
BLACK
6
CONTINUOUS
10
1.13785
20
0.56679
11
1.14743
21
0.566036
0
LINE
8
BLACK
6
CONTINUOUS
10
1.14743
20
0.566036
11
1.157
21
0.56679
0
LINE
8
BLACK
6
CONTINUOUS
10
1.157
20
0.56679
11
1.16282
21
0.568187
0
LINE
8
BLACK
6
CONTINUOUS
10
1.16282
20
0.568187
11
1.16616
21
0.568987
0
LINE
8
BLACK
6
CONTINUOUS
10
1.16616
20
0.568987
11
1.16616
21
0.568987
0
LINE
8
BLACK
6
CONTINUOUS
10
1.16616
20
0.568987
11
1.16635
21
0.569033
0
LINE
8
BLACK
6
CONTINUOUS
10
1.16635
20
0.569033
11
1.16653
21
0.569107
0
LINE
8
BLACK
6
CONTINUOUS
10
1.16653
20
0.569107
11
1.16653
21
0.569107
0
LINE
8
BLACK
6
CONTINUOUS
10
1.16653
20
0.569107
11
1.17504
21
0.572635
0
LINE
8
BLACK
6
CONTINUOUS
10
1.17504
20
0.572635
11
1.17504
21
0.572635
0
LINE
8
BLACK
6
CONTINUOUS
10
1.17504
20
0.572635
11
1.17522
21
0.57271
0
LINE
8
BLACK
6
CONTINUOUS
10
1.17522
20
0.57271
11
1.18342
21
0.57773
0
LINE
8
BLACK
6
CONTINUOUS
10
1.18342
20
0.57773
11
1.19072
21
0.58397
0
LINE
8
BLACK
6
CONTINUOUS
10
1.19072
20
0.58397
11
1.19696
21
0.591276
0
LINE
8
BLACK
6
CONTINUOUS
10
1.19696
20
0.591276
11
1.20198
21
0.599469
0
LINE
8
BLACK
6
CONTINUOUS
10
1.20198
20
0.599469
11
1.20216
21
0.599887
0
LINE
8
BLACK
6
CONTINUOUS
10
1.20216
20
0.599887
11
1.20559
21
0.608166
0
LINE
8
BLACK
6
CONTINUOUS
10
1.20559
20
0.608166
11
1.20559
21
0.608166
0
LINE
8
BLACK
6
CONTINUOUS
10
1.20559
20
0.608166
11
1.20566
21
0.608346
0
LINE
8
BLACK
6
CONTINUOUS
10
1.20566
20
0.608346
11
1.2079
21
0.617689
0
LINE
8
BLACK
6
CONTINUOUS
10
1.2079
20
0.617689
11
1.20866
21
0.627268
0
LINE
8
BLACK
6
CONTINUOUS
10
1.20866
20
0.627268
11
1.2079
21
0.636847
0
LINE
8
BLACK
6
CONTINUOUS
10
1.2079
20
0.636847
11
1.2064
21
0.64311
0
LINE
8
BLACK
6
CONTINUOUS
10
1.2064
20
0.64311
11
1.20571
21
0.646
0
LINE
8
BLACK
6
CONTINUOUS
10
1.20571
20
0.646
11
1.20571
21
0.646
0
LINE
8
BLACK
6
CONTINUOUS
10
1.20571
20
0.646
11
1.20566
21
0.646189
0
LINE
8
BLACK
6
CONTINUOUS
10
1.20566
20
0.646189
11
1.20559
21
0.646369
0
LINE
8
BLACK
6
CONTINUOUS
10
1.20559
20
0.646369
11
1.20559
21
0.646369
0
LINE
8
BLACK
6
CONTINUOUS
10
1.20559
20
0.646369
11
1.20206
21
0.654886
0
LINE
8
BLACK
6
CONTINUOUS
10
1.20206
20
0.654886
11
1.20206
21
0.654887
0
LINE
8
BLACK
6
CONTINUOUS
10
1.20206
20
0.654887
11
1.20198
21
0.655066
0
LINE
8
BLACK
6
CONTINUOUS
10
1.20198
20
0.655066
11
1.19696
21
0.663259
0
LINE
8
BLACK
6
CONTINUOUS
10
1.19696
20
0.663259
11
1.19072
21
0.670565
0
LINE
8
BLACK
6
CONTINUOUS
10
1.19072
20
0.670565
11
1.18342
21
0.676805
0
LINE
8
BLACK
6
CONTINUOUS
10
1.18342
20
0.676805
11
1.17522
21
0.681826
0
LINE
8
BLACK
6
CONTINUOUS
10
1.17522
20
0.681826
11
1.17504
21
0.6819
0
LINE
8
BLACK
6
CONTINUOUS
10
1.17504
20
0.6819
11
1.17504
21
0.6819
0
LINE
8
BLACK
6
CONTINUOUS
10
1.17504
20
0.6819
11
1.16653
21
0.685428
0
LINE
8
BLACK
6
CONTINUOUS
10
1.16653
20
0.685428
11
1.16653
21
0.685428
0
LINE
8
BLACK
6
CONTINUOUS
10
1.16653
20
0.685428
11
1.16635
21
0.685503
0
LINE
8
BLACK
6
CONTINUOUS
10
1.16635
20
0.685503
11
1.16616
21
0.685548
0
LINE
8
BLACK
6
CONTINUOUS
10
1.16616
20
0.685548
11
1.16616
21
0.685548
0
LINE
8
BLACK
6
CONTINUOUS
10
1.16616
20
0.685548
11
1.16189
21
0.686574
0
LINE
8
BLACK
6
CONTINUOUS
10
1.16189
20
0.686574
11
1.157
21
0.687746
0
LINE
8
BLACK
6
CONTINUOUS
10
1.157
20
0.687746
11
1.14743
21
0.6885
0
LINE
8
BLACK
6
CONTINUOUS
10
1.14743
20
0.6885
11
1.13785
21
0.687746
0
LINE
8
BLACK
6
CONTINUOUS
10
1.13785
20
0.687746
11
1.13296
21
0.686574
0
LINE
8
BLACK
6
CONTINUOUS
10
1.13296
20
0.686574
11
1.12869
21
0.685548
0
LINE
8
BLACK
6
CONTINUOUS
10
1.12869
20
0.685548
11
1.12869
21
0.685548
0
LINE
8
BLACK
6
CONTINUOUS
10
1.12869
20
0.685548
11
1.1285
21
0.685503
0
LINE
8
BLACK
6
CONTINUOUS
10
1.1285
20
0.685503
11
1.12832
21
0.685428
0
LINE
8
BLACK
6
CONTINUOUS
10
1.12832
20
0.685428
11
1.12832
21
0.685428
0
LINE
8
BLACK
6
CONTINUOUS
10
1.12832
20
0.685428
11
1.11981
21
0.6819
0
LINE
8
BLACK
6
CONTINUOUS
10
1.11981
20
0.6819
11
1.11981
21
0.6819
0
LINE
8
BLACK
6
CONTINUOUS
10
1.11981
20
0.6819
11
1.11963
21
0.681826
0
LINE
8
BLACK
6
CONTINUOUS
10
1.11963
20
0.681826
11
1.11143
21
0.676805
0
LINE
8
BLACK
6
CONTINUOUS
10
1.11143
20
0.676805
11
1.10413
21
0.670565
0
LINE
8
BLACK
6
CONTINUOUS
10
1.10413
20
0.670565
11
1.09789
21
0.663259
0
LINE
8
BLACK
6
CONTINUOUS
10
1.09789
20
0.663259
11
1.09287
21
0.655066
0
LINE
8
BLACK
6
CONTINUOUS
10
1.09287
20
0.655066
11
1.09279
21
0.654887
0
LINE
8
BLACK
6
CONTINUOUS
10
1.09279
20
0.654887
11
1.09279
21
0.654886
0
LINE
8
BLACK
6
CONTINUOUS
10
1.09279
20
0.654886
11
1.08926
21
0.646369
0
LINE
8
BLACK
6
CONTINUOUS
10
1.08926
20
0.646369
11
1.08926
21
0.646369
0
LINE
8
BLACK
6
CONTINUOUS
10
1.08926
20
0.646369
11
1.08919
21
0.646189
0
LINE
8
BLACK
6
CONTINUOUS
10
1.08919
20
0.646189
11
1.08914
21
0.646
0
LINE
8
BLACK
6
CONTINUOUS
10
1.08914
20
0.646
11
1.08914
21
0.646
0
LINE
8
BLACK
6
CONTINUOUS
10
1.08914
20
0.646
11
1.08845
21
0.64311
0
LINE
8
BLACK
6
CONTINUOUS
10
1.08845
20
0.64311
11
1.08695
21
0.636847
0
LINE
8
BLACK
6
CONTINUOUS
10
1.08695
20
0.636847
11
1.08619
21
0.627268
0
LINE
8
BLACK
6
CONTINUOUS
10
1.08619
20
0.627268
11
1.08695
21
0.617689
0
LINE
8
BLACK
6
CONTINUOUS
10
1.08695
20
0.617689
11
1.08919
21
0.608346
0
LINE
8
BLACK
6
CONTINUOUS
10
0.530231
20
0.620066
11
0.530533
21
0.62
0
LINE
8
BLACK
6
CONTINUOUS
10
0.530533
20
0.62
11
0.55
21
0.62
0
LINE
8
BLACK
6
CONTINUOUS
10
0.55
20
0.62
11
0.55
21
0.64
0
LINE
8
BLACK
6
CONTINUOUS
10
0.55
20
0.64
11
0.57
21
0.64
0
LINE
8
BLACK
6
CONTINUOUS
10
0.57
20
0.64
11
0.57
21
0.68
0
LINE
8
BLACK
6
CONTINUOUS
10
0.57
20
0.68
11
0.55
21
0.68
0
LINE
8
BLACK
6
CONTINUOUS
10
0.55
20
0.68
11
0.55
21
0.7
0
LINE
8
BLACK
6
CONTINUOUS
10
0.55
20
0.7
11
0.530713
21
0.7
0
LINE
8
BLACK
6
CONTINUOUS
10
0.530713
20
0.7
11
0.530113
21
0.699824
0
LINE
8
BLACK
6
CONTINUOUS
10
0.530113
20
0.699824
11
0.530066
21
0.699769
0
LINE
8
BLACK
6
CONTINUOUS
10
0.530066
20
0.699769
11
0.53
21
0.699467
0
LINE
8
BLACK
6
CONTINUOUS
10
0.53
20
0.699467
11
0.53
21
0.678241
0
LINE
8
BLACK
6
CONTINUOUS
10
0.53
20
0.678241
11
0.530015
21
0.677973
0
LINE
8
BLACK
6
CONTINUOUS
10
0.530015
20
0.677973
11
0.530232
21
0.67597
0
LINE
8
BLACK
6
CONTINUOUS
10
0.530232
20
0.67597
11
0.530375
21
0.67537
0
LINE
8
BLACK
6
CONTINUOUS
10
0.530375
20
0.67537
11
0.532153
21
0.670628
0
LINE
8
BLACK
6
CONTINUOUS
10
0.532153
20
0.670628
11
0.532489
21
0.670014
0
LINE
8
BLACK
6
CONTINUOUS
10
0.532489
20
0.670014
11
0.535501
21
0.665995
0
LINE
8
BLACK
6
CONTINUOUS
10
0.535501
20
0.665995
11
0.535995
21
0.665501
0
LINE
8
BLACK
6
CONTINUOUS
10
0.535995
20
0.665501
11
0.538038
21
0.66397
0
LINE
8
BLACK
6
CONTINUOUS
10
0.538038
20
0.66397
11
0.539712
21
0.661731
0
LINE
8
BLACK
6
CONTINUOUS
10
0.539712
20
0.661731
11
0.53991
21
0.658943
0
LINE
8
BLACK
6
CONTINUOUS
10
0.53991
20
0.658943
11
0.538569
21
0.65649
0
LINE
8
BLACK
6
CONTINUOUS
10
0.538569
20
0.65649
11
0.538038
21
0.65603
0
LINE
8
BLACK
6
CONTINUOUS
10
0.538038
20
0.65603
11
0.535995
21
0.654499
0
LINE
8
BLACK
6
CONTINUOUS
10
0.535995
20
0.654499
11
0.535501
21
0.654005
0
LINE
8
BLACK
6
CONTINUOUS
10
0.535501
20
0.654005
11
0.532489
21
0.649986
0
LINE
8
BLACK
6
CONTINUOUS
10
0.532489
20
0.649986
11
0.532153
21
0.649372
0
LINE
8
BLACK
6
CONTINUOUS
10
0.532153
20
0.649372
11
0.530375
21
0.64463
0
LINE
8
BLACK
6
CONTINUOUS
10
0.530375
20
0.64463
11
0.530232
21
0.64403
0
LINE
8
BLACK
6
CONTINUOUS
10
0.530232
20
0.64403
11
0.530015
21
0.642027
0
LINE
8
BLACK
6
CONTINUOUS
10
0.530015
20
0.642027
11
0.53
21
0.641759
0
LINE
8
BLACK
6
CONTINUOUS
10
0.53
20
0.641759
11
0.53
21
0.620713
0
LINE
8
BLACK
6
CONTINUOUS
10
0.53
20
0.620713
11
0.530176
21
0.620113
0
LINE
8
BLACK
6
CONTINUOUS
10
0.530176
20
0.620113
11
0.530231
21
0.620066
0
LINE
8
BLACK
6
CONTINUOUS
10
0.890713
20
0.76
11
0.890113
21
0.759824
0
LINE
8
BLACK
6
CONTINUOUS
10
0.890113
20
0.759824
11
0.890066
21
0.759769
0
LINE
8
BLACK
6
CONTINUOUS
10
0.890066
20
0.759769
11
0.89
21
0.759467
0
LINE
8
BLACK
6
CONTINUOUS
10
0.89
20
0.759467
11
0.89
21
0.74
0
LINE
8
BLACK
6
CONTINUOUS
10
0.89
20
0.74
11
0.91
21
0.74
0
LINE
8
BLACK
6
CONTINUOUS
10
0.91
20
0.74
11
0.91
21
0.72
0
LINE
8
BLACK
6
CONTINUOUS
10
0.91
20
0.72
11
0.929287
21
0.72
0
LINE
8
BLACK
6
CONTINUOUS
10
0.929287
20
0.72
11
0.929887
21
0.720176
0
LINE
8
BLACK
6
CONTINUOUS
10
0.929887
20
0.720176
11
0.929934
21
0.720231
0
LINE
8
BLACK
6
CONTINUOUS
10
0.929934
20
0.720231
11
0.93
21
0.720533
0
LINE
8
BLACK
6
CONTINUOUS
10
0.93
20
0.720533
11
0.93
21
0.741759
0
LINE
8
BLACK
6
CONTINUOUS
10
0.93
20
0.741759
11
0.929985
21
0.742027
0
LINE
8
BLACK
6
CONTINUOUS
10
0.929985
20
0.742027
11
0.929768
21
0.74403
0
LINE
8
BLACK
6
CONTINUOUS
10
0.929768
20
0.74403
11
0.929625
21
0.74463
0
LINE
8
BLACK
6
CONTINUOUS
10
0.929625
20
0.74463
11
0.927847
21
0.749372
0
LINE
8
BLACK
6
CONTINUOUS
10
0.927847
20
0.749372
11
0.927511
21
0.749986
0
LINE
8
BLACK
6
CONTINUOUS
10
0.927511
20
0.749986
11
0.924499
21
0.754005
0
LINE
8
BLACK
6
CONTINUOUS
10
0.924499
20
0.754005
11
0.924005
21
0.754499
0
LINE
8
BLACK
6
CONTINUOUS
10
0.924005
20
0.754499
11
0.919986
21
0.757511
0
LINE
8
BLACK
6
CONTINUOUS
10
0.919986
20
0.757511
11
0.919372
21
0.757847
0
LINE
8
BLACK
6
CONTINUOUS
10
0.919372
20
0.757847
11
0.91463
21
0.759625
0
LINE
8
BLACK
6
CONTINUOUS
10
0.91463
20
0.759625
11
0.91403
21
0.759768
0
LINE
8
BLACK
6
CONTINUOUS
10
0.91403
20
0.759768
11
0.912027
21
0.759985
0
LINE
8
BLACK
6
CONTINUOUS
10
0.912027
20
0.759985
11
0.911759
21
0.76
0
LINE
8
BLACK
6
CONTINUOUS
10
0.911759
20
0.76
11
0.890713
21
0.76
0
LINE
8
BLACK
6
CONTINUOUS
10
0.380232
20
0.0859704
11
0.380375
21
0.0853699
0
LINE
8
BLACK
6
CONTINUOUS
10
0.380375
20
0.0853699
11
0.382153
21
0.0806278
0
LINE
8
BLACK
6
CONTINUOUS
10
0.382153
20
0.0806278
11
0.382489
21
0.0800138
0
LINE
8
BLACK
6
CONTINUOUS
10
0.382489
20
0.0800138
11
0.385501
21
0.0759951
0
LINE
8
BLACK
6
CONTINUOUS
10
0.385501
20
0.0759951
11
0.385995
21
0.0755006
0
LINE
8
BLACK
6
CONTINUOUS
10
0.385995
20
0.0755006
11
0.390014
21
0.0724887
0
LINE
8
BLACK
6
CONTINUOUS
10
0.390014
20
0.0724887
11
0.390628
21
0.0721526
0
LINE
8
BLACK
6
CONTINUOUS
10
0.390628
20
0.0721526
11
0.39537
21
0.0703749
0
LINE
8
BLACK
6
CONTINUOUS
10
0.39537
20
0.0703749
11
0.39597
21
0.0702321
0
LINE
8
BLACK
6
CONTINUOUS
10
0.39597
20
0.0702321
11
0.397973
21
0.0700145
0
LINE
8
BLACK
6
CONTINUOUS
10
0.397973
20
0.0700145
11
0.398241
21
0.07
0
LINE
8
BLACK
6
CONTINUOUS
10
0.398241
20
0.07
11
0.419287
21
0.07
0
LINE
8
BLACK
6
CONTINUOUS
10
0.419287
20
0.07
11
0.419887
21
0.0701762
0
LINE
8
BLACK
6
CONTINUOUS
10
0.419887
20
0.0701762
11
0.419934
21
0.0702309
0
LINE
8
BLACK
6
CONTINUOUS
10
0.419934
20
0.0702309
11
0.42
21
0.0705334
0
LINE
8
BLACK
6
CONTINUOUS
10
0.42
20
0.0705334
11
0.42
21
0.09
0
LINE
8
BLACK
6
CONTINUOUS
10
0.42
20
0.09
11
0.4
21
0.09
0
LINE
8
BLACK
6
CONTINUOUS
10
0.4
20
0.09
11
0.4
21
0.11
0
LINE
8
BLACK
6
CONTINUOUS
10
0.4
20
0.11
11
0.380713
21
0.11
0
LINE
8
BLACK
6
CONTINUOUS
10
0.380713
20
0.11
11
0.380113
21
0.109824
0
LINE
8
BLACK
6
CONTINUOUS
10
0.380113
20
0.109824
11
0.380066
21
0.109769
0
LINE
8
BLACK
6
CONTINUOUS
10
0.380066
20
0.109769
11
0.38
21
0.109467
0
LINE
8
BLACK
6
CONTINUOUS
10
0.38
20
0.109467
11
0.38
21
0.0882414
0
LINE
8
BLACK
6
CONTINUOUS
10
0.38
20
0.0882414
11
0.380015
21
0.0879728
0
LINE
8
BLACK
6
CONTINUOUS
10
0.380015
20
0.0879728
11
0.380232
21
0.0859704
0
LINE
8
BLACK
6
CONTINUOUS
10
0.440231
20
0.0700658
11
0.440533
21
0.07
0
LINE
8
BLACK
6
CONTINUOUS
10
0.440533
20
0.07
11
0.461759
21
0.07
0
LINE
8
BLACK
6
CONTINUOUS
10
0.461759
20
0.07
11
0.462027
21
0.0700146
0
LINE
8
BLACK
6
CONTINUOUS
10
0.462027
20
0.0700146
11
0.46403
21
0.0702321
0
LINE
8
BLACK
6
CONTINUOUS
10
0.46403
20
0.0702321
11
0.46463
21
0.0703748
0
LINE
8
BLACK
6
CONTINUOUS
10
0.46463
20
0.0703748
11
0.469372
21
0.0721526
0
LINE
8
BLACK
6
CONTINUOUS
10
0.469372
20
0.0721526
11
0.469986
21
0.0724887
0
LINE
8
BLACK
6
CONTINUOUS
10
0.469986
20
0.0724887
11
0.474005
21
0.0755006
0
LINE
8
BLACK
6
CONTINUOUS
10
0.474005
20
0.0755006
11
0.474499
21
0.0759951
0
LINE
8
BLACK
6
CONTINUOUS
10
0.474499
20
0.0759951
11
0.47603
21
0.078038
0
LINE
8
BLACK
6
CONTINUOUS
10
0.47603
20
0.078038
11
0.478269
21
0.0797119
0
LINE
8
BLACK
6
CONTINUOUS
10
0.478269
20
0.0797119
11
0.481057
21
0.0799097
0
LINE
8
BLACK
6
CONTINUOUS
10
0.481057
20
0.0799097
11
0.48351
21
0.0785688
0
LINE
8
BLACK
6
CONTINUOUS
10
0.48351
20
0.0785688
11
0.48397
21
0.078038
0
LINE
8
BLACK
6
CONTINUOUS
10
0.48397
20
0.078038
11
0.485501
21
0.0759951
0
LINE
8
BLACK
6
CONTINUOUS
10
0.485501
20
0.0759951
11
0.485995
21
0.0755006
0
LINE
8
BLACK
6
CONTINUOUS
10
0.485995
20
0.0755006
11
0.490014
21
0.0724887
0
LINE
8
BLACK
6
CONTINUOUS
10
0.490014
20
0.0724887
11
0.490628
21
0.0721526
0
LINE
8
BLACK
6
CONTINUOUS
10
0.490628
20
0.0721526
11
0.49537
21
0.0703749
0
LINE
8
BLACK
6
CONTINUOUS
10
0.49537
20
0.0703749
11
0.49597
21
0.0702321
0
LINE
8
BLACK
6
CONTINUOUS
10
0.49597
20
0.0702321
11
0.497973
21
0.0700145
0
LINE
8
BLACK
6
CONTINUOUS
10
0.497973
20
0.0700145
11
0.498241
21
0.07
0
LINE
8
BLACK
6
CONTINUOUS
10
0.498241
20
0.07
11
0.519287
21
0.07
0
LINE
8
BLACK
6
CONTINUOUS
10
0.519287
20
0.07
11
0.519887
21
0.0701762
0
LINE
8
BLACK
6
CONTINUOUS
10
0.519887
20
0.0701762
11
0.519934
21
0.0702309
0
LINE
8
BLACK
6
CONTINUOUS
10
0.519934
20
0.0702309
11
0.52
21
0.0705334
0
LINE
8
BLACK
6
CONTINUOUS
10
0.52
20
0.0705334
11
0.52
21
0.09
0
LINE
8
BLACK
6
CONTINUOUS
10
0.52
20
0.09
11
0.5
21
0.09
0
LINE
8
BLACK
6
CONTINUOUS
10
0.5
20
0.09
11
0.5
21
0.11
0
LINE
8
BLACK
6
CONTINUOUS
10
0.5
20
0.11
11
0.46
21
0.11
0
LINE
8
BLACK
6
CONTINUOUS
10
0.46
20
0.11
11
0.46
21
0.09
0
LINE
8
BLACK
6
CONTINUOUS
10
0.46
20
0.09
11
0.44
21
0.09
0
LINE
8
BLACK
6
CONTINUOUS
10
0.44
20
0.09
11
0.44
21
0.0707132
0
LINE
8
BLACK
6
CONTINUOUS
10
0.44
20
0.0707132
11
0.440176
21
0.0701133
0
LINE
8
BLACK
6
CONTINUOUS
10
0.440176
20
0.0701133
11
0.440231
21
0.0700658
0
LINE
8
BLACK
6
CONTINUOUS
10
1.02586
20
0.229
11
1.02587
21
0.229032
0
LINE
8
BLACK
6
CONTINUOUS
10
1.02587
20
0.229032
11
1.02928
21
0.233823
0
LINE
8
BLACK
6
CONTINUOUS
10
1.02928
20
0.233823
11
1.03385
21
0.237522
0
LINE
8
BLACK
6
CONTINUOUS
10
1.03385
20
0.237522
11
1.039
21
0.239752
0
LINE
8
BLACK
6
CONTINUOUS
10
1.039
20
0.239752
11
1.039
21
0.259547
0
LINE
8
BLACK
6
CONTINUOUS
10
1.039
20
0.259547
11
1.03883
21
0.260115
0
LINE
8
BLACK
6
CONTINUOUS
10
1.03883
20
0.260115
11
1.03835
21
0.260197
0
LINE
8
BLACK
6
CONTINUOUS
10
1.03835
20
0.260197
11
1.03717
21
0.260082
0
LINE
8
BLACK
6
CONTINUOUS
10
1.03717
20
0.260082
11
1.0367
21
0.259988
0
LINE
8
BLACK
6
CONTINUOUS
10
1.0367
20
0.259988
11
1.02935
21
0.257767
0
LINE
8
BLACK
6
CONTINUOUS
10
1.02935
20
0.257767
11
1.0289
21
0.257583
0
LINE
8
BLACK
6
CONTINUOUS
10
1.0289
20
0.257583
11
1.02211
21
0.253976
0
LINE
8
BLACK
6
CONTINUOUS
10
1.02211
20
0.253976
11
1.02171
21
0.253709
0
LINE
8
BLACK
6
CONTINUOUS
10
1.02171
20
0.253709
11
1.01576
21
0.248852
0
LINE
8
BLACK
6
CONTINUOUS
10
1.01576
20
0.248852
11
1.01542
21
0.248512
0
LINE
8
BLACK
6
CONTINUOUS
10
1.01542
20
0.248512
11
1.01052
21
0.242592
0
LINE
8
BLACK
6
CONTINUOUS
10
1.01052
20
0.242592
11
1.01025
21
0.242192
0
LINE
8
BLACK
6
CONTINUOUS
10
1.01025
20
0.242192
11
1.00659
21
0.235433
0
LINE
8
BLACK
6
CONTINUOUS
10
1.00659
20
0.235433
11
1.00641
21
0.234988
0
LINE
8
BLACK
6
CONTINUOUS
10
1.00641
20
0.234988
11
1.00476
21
0.229681
0
LINE
8
BLACK
6
CONTINUOUS
10
1.00476
20
0.229681
11
1.00476
21
0.229126
0
LINE
8
BLACK
6
CONTINUOUS
10
1.00476
20
0.229126
11
1.00502
21
0.229
0
LINE
8
BLACK
6
CONTINUOUS
10
1.00502
20
0.229
11
1.02586
21
0.229
0
LINE
8
BLACK
6
CONTINUOUS
10
0.380231
20
0.130066
11
0.380533
21
0.13
0
LINE
8
BLACK
6
CONTINUOUS
10
0.380533
20
0.13
11
0.4
21
0.13
0
LINE
8
BLACK
6
CONTINUOUS
10
0.4
20
0.13
11
0.4
21
0.15
0
LINE
8
BLACK
6
CONTINUOUS
10
0.4
20
0.15
11
0.46
21
0.15
0
LINE
8
BLACK
6
CONTINUOUS
10
0.46
20
0.15
11
0.46
21
0.13
0
LINE
8
BLACK
6
CONTINUOUS
10
0.46
20
0.13
11
0.5
21
0.13
0
LINE
8
BLACK
6
CONTINUOUS
10
0.5
20
0.13
11
0.5
21
0.15
0
LINE
8
BLACK
6
CONTINUOUS
10
0.5
20
0.15
11
0.56
21
0.15
0
LINE
8
BLACK
6
CONTINUOUS
10
0.56
20
0.15
11
0.56
21
0.13
0
LINE
8
BLACK
6
CONTINUOUS
10
0.56
20
0.13
11
0.579287
21
0.13
0
LINE
8
BLACK
6
CONTINUOUS
10
0.579287
20
0.13
11
0.579887
21
0.130176
0
LINE
8
BLACK
6
CONTINUOUS
10
0.579887
20
0.130176
11
0.579934
21
0.130231
0
LINE
8
BLACK
6
CONTINUOUS
10
0.579934
20
0.130231
11
0.58
21
0.130533
0
LINE
8
BLACK
6
CONTINUOUS
10
0.58
20
0.130533
11
0.58
21
0.151759
0
LINE
8
BLACK
6
CONTINUOUS
10
0.58
20
0.151759
11
0.579985
21
0.152027
0
LINE
8
BLACK
6
CONTINUOUS
10
0.579985
20
0.152027
11
0.579768
21
0.15403
0
LINE
8
BLACK
6
CONTINUOUS
10
0.579768
20
0.15403
11
0.579625
21
0.15463
0
LINE
8
BLACK
6
CONTINUOUS
10
0.579625
20
0.15463
11
0.577847
21
0.159372
0
LINE
8
BLACK
6
CONTINUOUS
10
0.577847
20
0.159372
11
0.577511
21
0.159986
0
LINE
8
BLACK
6
CONTINUOUS
10
0.577511
20
0.159986
11
0.574499
21
0.164005
0
LINE
8
BLACK
6
CONTINUOUS
10
0.574499
20
0.164005
11
0.574005
21
0.164499
0
LINE
8
BLACK
6
CONTINUOUS
10
0.574005
20
0.164499
11
0.569986
21
0.167511
0
LINE
8
BLACK
6
CONTINUOUS
10
0.569986
20
0.167511
11
0.569372
21
0.167847
0
LINE
8
BLACK
6
CONTINUOUS
10
0.569372
20
0.167847
11
0.564404
21
0.16971
0
LINE
8
BLACK
6
CONTINUOUS
10
0.564404
20
0.16971
11
0.562169
21
0.171389
0
LINE
8
BLACK
6
CONTINUOUS
10
0.562169
20
0.171389
11
0.561197
21
0.174009
0
LINE
8
BLACK
6
CONTINUOUS
10
0.561197
20
0.174009
11
0.561796
21
0.176739
0
LINE
8
BLACK
6
CONTINUOUS
10
0.561796
20
0.176739
11
0.563775
21
0.178713
0
LINE
8
BLACK
6
CONTINUOUS
10
0.563775
20
0.178713
11
0.564131
21
0.178888
0
LINE
8
BLACK
6
CONTINUOUS
10
0.564131
20
0.178888
11
0.566817
21
0.180081
0
LINE
8
BLACK
6
CONTINUOUS
10
0.566817
20
0.180081
11
0.567191
21
0.180456
0
LINE
8
BLACK
6
CONTINUOUS
10
0.567191
20
0.180456
11
0.569359
21
0.182628
0
LINE
8
BLACK
6
CONTINUOUS
10
0.569359
20
0.182628
11
0.569931
21
0.1832
0
LINE
8
BLACK
6
CONTINUOUS
10
0.569931
20
0.1832
11
0.57056
21
0.184624
0
LINE
8
BLACK
6
CONTINUOUS
10
0.57056
20
0.184624
11
0.571562
21
0.18689
0
LINE
8
BLACK
6
CONTINUOUS
10
0.571562
20
0.18689
11
0.571713
21
0.187231
0
LINE
8
BLACK
6
CONTINUOUS
10
0.571713
20
0.187231
11
0.571831
21
0.188242
0
LINE
8
BLACK
6
CONTINUOUS
10
0.571831
20
0.188242
11
0.571831
21
0.251758
0
LINE
8
BLACK
6
CONTINUOUS
10
0.571831
20
0.251758
11
0.571708
21
0.252789
0
LINE
8
BLACK
6
CONTINUOUS
10
0.571708
20
0.252789
11
0.571181
21
0.253976
0
LINE
8
BLACK
6
CONTINUOUS
10
0.571181
20
0.253976
11
0.570105
21
0.256398
0
LINE
8
BLACK
6
CONTINUOUS
10
0.570105
20
0.256398
11
0.569919
21
0.256817
0
LINE
8
BLACK
6
CONTINUOUS
10
0.569919
20
0.256817
11
0.5668
21
0.259931
0
LINE
8
BLACK
6
CONTINUOUS
10
0.5668
20
0.259931
11
0.566381
21
0.260116
0
LINE
8
BLACK
6
CONTINUOUS
10
0.566381
20
0.260116
11
0.566381
21
0.260116
0
LINE
8
BLACK
6
CONTINUOUS
10
0.566381
20
0.260116
11
0.564138
21
0.261108
0
LINE
8
BLACK
6
CONTINUOUS
10
0.564138
20
0.261108
11
0.562003
21
0.262912
0
LINE
8
BLACK
6
CONTINUOUS
10
0.562003
20
0.262912
11
0.561184
21
0.265584
0
LINE
8
BLACK
6
CONTINUOUS
10
0.561184
20
0.265584
11
0.561938
21
0.268276
0
LINE
8
BLACK
6
CONTINUOUS
10
0.561938
20
0.268276
11
0.564028
21
0.270132
0
LINE
8
BLACK
6
CONTINUOUS
10
0.564028
20
0.270132
11
0.564402
21
0.270289
0
LINE
8
BLACK
6
CONTINUOUS
10
0.564402
20
0.270289
11
0.569372
21
0.272153
0
LINE
8
BLACK
6
CONTINUOUS
10
0.569372
20
0.272153
11
0.569986
21
0.272489
0
LINE
8
BLACK
6
CONTINUOUS
10
0.569986
20
0.272489
11
0.574005
21
0.275501
0
LINE
8
BLACK
6
CONTINUOUS
10
0.574005
20
0.275501
11
0.574499
21
0.275995
0
LINE
8
BLACK
6
CONTINUOUS
10
0.574499
20
0.275995
11
0.577511
21
0.280014
0
LINE
8
BLACK
6
CONTINUOUS
10
0.577511
20
0.280014
11
0.577847
21
0.280628
0
LINE
8
BLACK
6
CONTINUOUS
10
0.577847
20
0.280628
11
0.579625
21
0.28537
0
LINE
8
BLACK
6
CONTINUOUS
10
0.579625
20
0.28537
11
0.579768
21
0.28597
0
LINE
8
BLACK
6
CONTINUOUS
10
0.579768
20
0.28597
11
0.579985
21
0.287973
0
LINE
8
BLACK
6
CONTINUOUS
10
0.579985
20
0.287973
11
0.58
21
0.288241
0
LINE
8
BLACK
6
CONTINUOUS
10
0.58
20
0.288241
11
0.58
21
0.309287
0
LINE
8
BLACK
6
CONTINUOUS
10
0.58
20
0.309287
11
0.579824
21
0.309887
0
LINE
8
BLACK
6
CONTINUOUS
10
0.579824
20
0.309887
11
0.579769
21
0.309934
0
LINE
8
BLACK
6
CONTINUOUS
10
0.579769
20
0.309934
11
0.579467
21
0.31
0
LINE
8
BLACK
6
CONTINUOUS
10
0.579467
20
0.31
11
0.56
21
0.31
0
LINE
8
BLACK
6
CONTINUOUS
10
0.56
20
0.31
11
0.56
21
0.29
0
LINE
8
BLACK
6
CONTINUOUS
10
0.56
20
0.29
11
0.5
21
0.29
0
LINE
8
BLACK
6
CONTINUOUS
10
0.5
20
0.29
11
0.5
21
0.31
0
LINE
8
BLACK
6
CONTINUOUS
10
0.5
20
0.31
11
0.46
21
0.31
0
LINE
8
BLACK
6
CONTINUOUS
10
0.46
20
0.31
11
0.46
21
0.29
0
LINE
8
BLACK
6
CONTINUOUS
10
0.46
20
0.29
11
0.4
21
0.29
0
LINE
8
BLACK
6
CONTINUOUS
10
0.4
20
0.29
11
0.4
21
0.31
0
LINE
8
BLACK
6
CONTINUOUS
10
0.4
20
0.31
11
0.380713
21
0.31
0
LINE
8
BLACK
6
CONTINUOUS
10
0.380713
20
0.31
11
0.380113
21
0.309824
0
LINE
8
BLACK
6
CONTINUOUS
10
0.380113
20
0.309824
11
0.380066
21
0.309769
0
LINE
8
BLACK
6
CONTINUOUS
10
0.380066
20
0.309769
11
0.38
21
0.309467
0
LINE
8
BLACK
6
CONTINUOUS
10
0.38
20
0.309467
11
0.38
21
0.288241
0
LINE
8
BLACK
6
CONTINUOUS
10
0.38
20
0.288241
11
0.380015
21
0.287973
0
LINE
8
BLACK
6
CONTINUOUS
10
0.380015
20
0.287973
11
0.380232
21
0.28597
0
LINE
8
BLACK
6
CONTINUOUS
10
0.380232
20
0.28597
11
0.380375
21
0.28537
0
LINE
8
BLACK
6
CONTINUOUS
10
0.380375
20
0.28537
11
0.382153
21
0.280628
0
LINE
8
BLACK
6
CONTINUOUS
10
0.382153
20
0.280628
11
0.382489
21
0.280014
0
LINE
8
BLACK
6
CONTINUOUS
10
0.382489
20
0.280014
11
0.385501
21
0.275995
0
LINE
8
BLACK
6
CONTINUOUS
10
0.385501
20
0.275995
11
0.385995
21
0.275501
0
LINE
8
BLACK
6
CONTINUOUS
10
0.385995
20
0.275501
11
0.390014
21
0.272489
0
LINE
8
BLACK
6
CONTINUOUS
10
0.390014
20
0.272489
11
0.390628
21
0.272153
0
LINE
8
BLACK
6
CONTINUOUS
10
0.390628
20
0.272153
11
0.395596
21
0.27029
0
LINE
8
BLACK
6
CONTINUOUS
10
0.395596
20
0.27029
11
0.397831
21
0.268611
0
LINE
8
BLACK
6
CONTINUOUS
10
0.397831
20
0.268611
11
0.398803
21
0.265991
0
LINE
8
BLACK
6
CONTINUOUS
10
0.398803
20
0.265991
11
0.398204
21
0.263261
0
LINE
8
BLACK
6
CONTINUOUS
10
0.398204
20
0.263261
11
0.396225
21
0.261287
0
LINE
8
BLACK
6
CONTINUOUS
10
0.396225
20
0.261287
11
0.395869
21
0.261112
0
LINE
8
BLACK
6
CONTINUOUS
10
0.395869
20
0.261112
11
0.393183
21
0.259919
0
LINE
8
BLACK
6
CONTINUOUS
10
0.393183
20
0.259919
11
0.392859
21
0.259595
0
LINE
8
BLACK
6
CONTINUOUS
10
0.392859
20
0.259595
11
0.392859
21
0.259595
0
LINE
8
BLACK
6
CONTINUOUS
10
0.392859
20
0.259595
11
0.392121
21
0.258855
0
LINE
8
BLACK
6
CONTINUOUS
10
0.392121
20
0.258855
11
0.390069
21
0.2568
0
LINE
8
BLACK
6
CONTINUOUS
10
0.390069
20
0.2568
11
0.388287
21
0.252769
0
LINE
8
BLACK
6
CONTINUOUS
10
0.388287
20
0.252769
11
0.388169
21
0.251758
0
LINE
8
BLACK
6
CONTINUOUS
10
0.388169
20
0.251758
11
0.388169
21
0.188242
0
LINE
8
BLACK
6
CONTINUOUS
10
0.388169
20
0.188242
11
0.388292
21
0.187211
0
LINE
8
BLACK
6
CONTINUOUS
10
0.388292
20
0.187211
11
0.390081
21
0.183183
0
LINE
8
BLACK
6
CONTINUOUS
10
0.390081
20
0.183183
11
0.390405
21
0.182859
0
LINE
8
BLACK
6
CONTINUOUS
10
0.390405
20
0.182859
11
0.390405
21
0.182859
0
LINE
8
BLACK
6
CONTINUOUS
10
0.390405
20
0.182859
11
0.391436
21
0.181831
0
LINE
8
BLACK
6
CONTINUOUS
10
0.391436
20
0.181831
11
0.3932
21
0.180069
0
LINE
8
BLACK
6
CONTINUOUS
10
0.3932
20
0.180069
11
0.393619
21
0.179884
0
LINE
8
BLACK
6
CONTINUOUS
10
0.393619
20
0.179884
11
0.393619
21
0.179884
0
LINE
8
BLACK
6
CONTINUOUS
10
0.393619
20
0.179884
11
0.395862
21
0.178892
0
LINE
8
BLACK
6
CONTINUOUS
10
0.395862
20
0.178892
11
0.397997
21
0.177088
0
LINE
8
BLACK
6
CONTINUOUS
10
0.397997
20
0.177088
11
0.398816
21
0.174416
0
LINE
8
BLACK
6
CONTINUOUS
10
0.398816
20
0.174416
11
0.398062
21
0.171724
0
LINE
8
BLACK
6
CONTINUOUS
10
0.398062
20
0.171724
11
0.395972
21
0.169868
0
LINE
8
BLACK
6
CONTINUOUS
10
0.395972
20
0.169868
11
0.395598
21
0.169711
0
LINE
8
BLACK
6
CONTINUOUS
10
0.395598
20
0.169711
11
0.390628
21
0.167847
0
LINE
8
BLACK
6
CONTINUOUS
10
0.390628
20
0.167847
11
0.390014
21
0.167511
0
LINE
8
BLACK
6
CONTINUOUS
10
0.390014
20
0.167511
11
0.385995
21
0.164499
0
LINE
8
BLACK
6
CONTINUOUS
10
0.385995
20
0.164499
11
0.385501
21
0.164005
0
LINE
8
BLACK
6
CONTINUOUS
10
0.385501
20
0.164005
11
0.382489
21
0.159986
0
LINE
8
BLACK
6
CONTINUOUS
10
0.382489
20
0.159986
11
0.382153
21
0.159372
0
LINE
8
BLACK
6
CONTINUOUS
10
0.382153
20
0.159372
11
0.380375
21
0.15463
0
LINE
8
BLACK
6
CONTINUOUS
10
0.380375
20
0.15463
11
0.380232
21
0.15403
0
LINE
8
BLACK
6
CONTINUOUS
10
0.380232
20
0.15403
11
0.380015
21
0.152027
0
LINE
8
BLACK
6
CONTINUOUS
10
0.380015
20
0.152027
11
0.38
21
0.151759
0
LINE
8
BLACK
6
CONTINUOUS
10
0.38
20
0.151759
11
0.38
21
0.130713
0
LINE
8
BLACK
6
CONTINUOUS
10
0.38
20
0.130713
11
0.380176
21
0.130113
0
LINE
8
BLACK
6
CONTINUOUS
10
0.380176
20
0.130113
11
0.380231
21
0.130066
0
LINE
8
BLACK
6
CONTINUOUS
10
1.02586
20
0.379
11
1.02587
21
0.379032
0
LINE
8
BLACK
6
CONTINUOUS
10
1.02587
20
0.379032
11
1.02928
21
0.383823
0
LINE
8
BLACK
6
CONTINUOUS
10
1.02928
20
0.383823
11
1.03385
21
0.387522
0
LINE
8
BLACK
6
CONTINUOUS
10
1.03385
20
0.387522
11
1.039
21
0.389752
0
LINE
8
BLACK
6
CONTINUOUS
10
1.039
20
0.389752
11
1.039
21
0.409547
0
LINE
8
BLACK
6
CONTINUOUS
10
1.039
20
0.409547
11
1.03883
21
0.410115
0
LINE
8
BLACK
6
CONTINUOUS
10
1.03883
20
0.410115
11
1.03835
21
0.410197
0
LINE
8
BLACK
6
CONTINUOUS
10
1.03835
20
0.410197
11
1.03717
21
0.410082
0
LINE
8
BLACK
6
CONTINUOUS
10
1.03717
20
0.410082
11
1.0367
21
0.409988
0
LINE
8
BLACK
6
CONTINUOUS
10
1.0367
20
0.409988
11
1.02935
21
0.407767
0
LINE
8
BLACK
6
CONTINUOUS
10
1.02935
20
0.407767
11
1.0289
21
0.407583
0
LINE
8
BLACK
6
CONTINUOUS
10
1.0289
20
0.407583
11
1.02211
21
0.403976
0
LINE
8
BLACK
6
CONTINUOUS
10
1.02211
20
0.403976
11
1.02171
21
0.403709
0
LINE
8
BLACK
6
CONTINUOUS
10
1.02171
20
0.403709
11
1.01576
21
0.398852
0
LINE
8
BLACK
6
CONTINUOUS
10
1.01576
20
0.398852
11
1.01542
21
0.398512
0
LINE
8
BLACK
6
CONTINUOUS
10
1.01542
20
0.398512
11
1.01052
21
0.392592
0
LINE
8
BLACK
6
CONTINUOUS
10
1.01052
20
0.392592
11
1.01025
21
0.392192
0
LINE
8
BLACK
6
CONTINUOUS
10
1.01025
20
0.392192
11
1.00659
21
0.385433
0
LINE
8
BLACK
6
CONTINUOUS
10
1.00659
20
0.385433
11
1.00641
21
0.384988
0
LINE
8
BLACK
6
CONTINUOUS
10
1.00641
20
0.384988
11
1.00476
21
0.379681
0
LINE
8
BLACK
6
CONTINUOUS
10
1.00476
20
0.379681
11
1.00476
21
0.379126
0
LINE
8
BLACK
6
CONTINUOUS
10
1.00476
20
0.379126
11
1.00502
21
0.379
0
LINE
8
BLACK
6
CONTINUOUS
10
1.00502
20
0.379
11
1.02586
21
0.379
0
LINE
8
BLACK
6
CONTINUOUS
10
0.577511
20
0.359986
11
0.574499
21
0.364005
0
LINE
8
BLACK
6
CONTINUOUS
10
0.574499
20
0.364005
11
0.574005
21
0.364499
0
LINE
8
BLACK
6
CONTINUOUS
10
0.574005
20
0.364499
11
0.569986
21
0.367511
0
LINE
8
BLACK
6
CONTINUOUS
10
0.569986
20
0.367511
11
0.569372
21
0.367847
0
LINE
8
BLACK
6
CONTINUOUS
10
0.569372
20
0.367847
11
0.56463
21
0.369625
0
LINE
8
BLACK
6
CONTINUOUS
10
0.56463
20
0.369625
11
0.56403
21
0.369768
0
LINE
8
BLACK
6
CONTINUOUS
10
0.56403
20
0.369768
11
0.562027
21
0.369985
0
LINE
8
BLACK
6
CONTINUOUS
10
0.562027
20
0.369985
11
0.561759
21
0.37
0
LINE
8
BLACK
6
CONTINUOUS
10
0.561759
20
0.37
11
0.540713
21
0.37
0
LINE
8
BLACK
6
CONTINUOUS
10
0.540713
20
0.37
11
0.540113
21
0.369824
0
LINE
8
BLACK
6
CONTINUOUS
10
0.540113
20
0.369824
11
0.540066
21
0.369769
0
LINE
8
BLACK
6
CONTINUOUS
10
0.540066
20
0.369769
11
0.54
21
0.369467
0
LINE
8
BLACK
6
CONTINUOUS
10
0.54
20
0.369467
11
0.54
21
0.35
0
LINE
8
BLACK
6
CONTINUOUS
10
0.54
20
0.35
11
0.56
21
0.35
0
LINE
8
BLACK
6
CONTINUOUS
10
0.56
20
0.35
11
0.56
21
0.33
0
LINE
8
BLACK
6
CONTINUOUS
10
0.56
20
0.33
11
0.579287
21
0.33
0
LINE
8
BLACK
6
CONTINUOUS
10
0.579287
20
0.33
11
0.579887
21
0.330176
0
LINE
8
BLACK
6
CONTINUOUS
10
0.579887
20
0.330176
11
0.579934
21
0.330231
0
LINE
8
BLACK
6
CONTINUOUS
10
0.579934
20
0.330231
11
0.58
21
0.330533
0
LINE
8
BLACK
6
CONTINUOUS
10
0.58
20
0.330533
11
0.58
21
0.351759
0
LINE
8
BLACK
6
CONTINUOUS
10
0.58
20
0.351759
11
0.579985
21
0.352027
0
LINE
8
BLACK
6
CONTINUOUS
10
0.579985
20
0.352027
11
0.579768
21
0.35403
0
LINE
8
BLACK
6
CONTINUOUS
10
0.579768
20
0.35403
11
0.579625
21
0.35463
0
LINE
8
BLACK
6
CONTINUOUS
10
0.579625
20
0.35463
11
0.578161
21
0.358537
0
LINE
8
BLACK
6
CONTINUOUS
10
0.578161
20
0.358537
11
0.577847
21
0.359372
0
LINE
8
BLACK
6
CONTINUOUS
10
0.577847
20
0.359372
11
0.577511
21
0.359986
0
LINE
8
BLACK
6
CONTINUOUS
10
0.530231
20
0.720066
11
0.530533
21
0.72
0
LINE
8
BLACK
6
CONTINUOUS
10
0.530533
20
0.72
11
0.55
21
0.72
0
LINE
8
BLACK
6
CONTINUOUS
10
0.55
20
0.72
11
0.55
21
0.74
0
LINE
8
BLACK
6
CONTINUOUS
10
0.55
20
0.74
11
0.57
21
0.74
0
LINE
8
BLACK
6
CONTINUOUS
10
0.57
20
0.74
11
0.57
21
0.759287
0
LINE
8
BLACK
6
CONTINUOUS
10
0.57
20
0.759287
11
0.569824
21
0.759887
0
LINE
8
BLACK
6
CONTINUOUS
10
0.569824
20
0.759887
11
0.569769
21
0.759934
0
LINE
8
BLACK
6
CONTINUOUS
10
0.569769
20
0.759934
11
0.569467
21
0.76
0
LINE
8
BLACK
6
CONTINUOUS
10
0.569467
20
0.76
11
0.548241
21
0.76
0
LINE
8
BLACK
6
CONTINUOUS
10
0.548241
20
0.76
11
0.547973
21
0.759985
0
LINE
8
BLACK
6
CONTINUOUS
10
0.547973
20
0.759985
11
0.54597
21
0.759768
0
LINE
8
BLACK
6
CONTINUOUS
10
0.54597
20
0.759768
11
0.54537
21
0.759625
0
LINE
8
BLACK
6
CONTINUOUS
10
0.54537
20
0.759625
11
0.540628
21
0.757847
0
LINE
8
BLACK
6
CONTINUOUS
10
0.540628
20
0.757847
11
0.540014
21
0.757511
0
LINE
8
BLACK
6
CONTINUOUS
10
0.540014
20
0.757511
11
0.535995
21
0.754499
0
LINE
8
BLACK
6
CONTINUOUS
10
0.535995
20
0.754499
11
0.535501
21
0.754005
0
LINE
8
BLACK
6
CONTINUOUS
10
0.535501
20
0.754005
11
0.532489
21
0.749986
0
LINE
8
BLACK
6
CONTINUOUS
10
0.532489
20
0.749986
11
0.532153
21
0.749372
0
LINE
8
BLACK
6
CONTINUOUS
10
0.532153
20
0.749372
11
0.530375
21
0.74463
0
LINE
8
BLACK
6
CONTINUOUS
10
0.530375
20
0.74463
11
0.530232
21
0.74403
0
LINE
8
BLACK
6
CONTINUOUS
10
0.530232
20
0.74403
11
0.530015
21
0.742027
0
LINE
8
BLACK
6
CONTINUOUS
10
0.530015
20
0.742027
11
0.53
21
0.741759
0
LINE
8
BLACK
6
CONTINUOUS
10
0.53
20
0.741759
11
0.53
21
0.720713
0
LINE
8
BLACK
6
CONTINUOUS
10
0.53
20
0.720713
11
0.530176
21
0.720113
0
LINE
8
BLACK
6
CONTINUOUS
10
0.530176
20
0.720113
11
0.530231
21
0.720066
0
LINE
8
BLACK
6
CONTINUOUS
10
0.530232
20
0.57597
11
0.530375
21
0.57537
0
LINE
8
BLACK
6
CONTINUOUS
10
0.530375
20
0.57537
11
0.532153
21
0.570628
0
LINE
8
BLACK
6
CONTINUOUS
10
0.532153
20
0.570628
11
0.532489
21
0.570014
0
LINE
8
BLACK
6
CONTINUOUS
10
0.532489
20
0.570014
11
0.535501
21
0.565995
0
LINE
8
BLACK
6
CONTINUOUS
10
0.535501
20
0.565995
11
0.535995
21
0.565501
0
LINE
8
BLACK
6
CONTINUOUS
10
0.535995
20
0.565501
11
0.540014
21
0.562489
0
LINE
8
BLACK
6
CONTINUOUS
10
0.540014
20
0.562489
11
0.540628
21
0.562153
0
LINE
8
BLACK
6
CONTINUOUS
10
0.540628
20
0.562153
11
0.54537
21
0.560375
0
LINE
8
BLACK
6
CONTINUOUS
10
0.54537
20
0.560375
11
0.54597
21
0.560232
0
LINE
8
BLACK
6
CONTINUOUS
10
0.54597
20
0.560232
11
0.547973
21
0.560015
0
LINE
8
BLACK
6
CONTINUOUS
10
0.547973
20
0.560015
11
0.548241
21
0.56
0
LINE
8
BLACK
6
CONTINUOUS
10
0.548241
20
0.56
11
0.569287
21
0.56
0
LINE
8
BLACK
6
CONTINUOUS
10
0.569287
20
0.56
11
0.569887
21
0.560176
0
LINE
8
BLACK
6
CONTINUOUS
10
0.569887
20
0.560176
11
0.569934
21
0.560231
0
LINE
8
BLACK
6
CONTINUOUS
10
0.569934
20
0.560231
11
0.57
21
0.560533
0
LINE
8
BLACK
6
CONTINUOUS
10
0.57
20
0.560533
11
0.57
21
0.58
0
LINE
8
BLACK
6
CONTINUOUS
10
0.57
20
0.58
11
0.55
21
0.58
0
LINE
8
BLACK
6
CONTINUOUS
10
0.55
20
0.58
11
0.55
21
0.6
0
LINE
8
BLACK
6
CONTINUOUS
10
0.55
20
0.6
11
0.530713
21
0.6
0
LINE
8
BLACK
6
CONTINUOUS
10
0.530713
20
0.6
11
0.530113
21
0.599824
0
LINE
8
BLACK
6
CONTINUOUS
10
0.530113
20
0.599824
11
0.530066
21
0.599769
0
LINE
8
BLACK
6
CONTINUOUS
10
0.530066
20
0.599769
11
0.53
21
0.599467
0
LINE
8
BLACK
6
CONTINUOUS
10
0.53
20
0.599467
11
0.53
21
0.578241
0
LINE
8
BLACK
6
CONTINUOUS
10
0.53
20
0.578241
11
0.530015
21
0.577973
0
LINE
8
BLACK
6
CONTINUOUS
10
0.530015
20
0.577973
11
0.530232
21
0.57597
0
LINE
8
BLACK
6
CONTINUOUS
10
0.85
20
0.58
11
0.85
21
0.64
0
LINE
8
BLACK
6
CONTINUOUS
10
0.85
20
0.64
11
0.87
21
0.64
0
LINE
8
BLACK
6
CONTINUOUS
10
0.87
20
0.64
11
0.87
21
0.68
0
LINE
8
BLACK
6
CONTINUOUS
10
0.87
20
0.68
11
0.85
21
0.68
0
LINE
8
BLACK
6
CONTINUOUS
10
0.85
20
0.68
11
0.85
21
0.74
0
LINE
8
BLACK
6
CONTINUOUS
10
0.85
20
0.74
11
0.87
21
0.74
0
LINE
8
BLACK
6
CONTINUOUS
10
0.87
20
0.74
11
0.87
21
0.759287
0
LINE
8
BLACK
6
CONTINUOUS
10
0.87
20
0.759287
11
0.869824
21
0.759887
0
LINE
8
BLACK
6
CONTINUOUS
10
0.869824
20
0.759887
11
0.869769
21
0.759934
0
LINE
8
BLACK
6
CONTINUOUS
10
0.869769
20
0.759934
11
0.869467
21
0.76
0
LINE
8
BLACK
6
CONTINUOUS
10
0.869467
20
0.76
11
0.848241
21
0.76
0
LINE
8
BLACK
6
CONTINUOUS
10
0.848241
20
0.76
11
0.847973
21
0.759985
0
LINE
8
BLACK
6
CONTINUOUS
10
0.847973
20
0.759985
11
0.84597
21
0.759768
0
LINE
8
BLACK
6
CONTINUOUS
10
0.84597
20
0.759768
11
0.84537
21
0.759625
0
LINE
8
BLACK
6
CONTINUOUS
10
0.84537
20
0.759625
11
0.840628
21
0.757847
0
LINE
8
BLACK
6
CONTINUOUS
10
0.840628
20
0.757847
11
0.840014
21
0.757511
0
LINE
8
BLACK
6
CONTINUOUS
10
0.840014
20
0.757511
11
0.835995
21
0.754499
0
LINE
8
BLACK
6
CONTINUOUS
10
0.835995
20
0.754499
11
0.835501
21
0.754005
0
LINE
8
BLACK
6
CONTINUOUS
10
0.835501
20
0.754005
11
0.832489
21
0.749986
0
LINE
8
BLACK
6
CONTINUOUS
10
0.832489
20
0.749986
11
0.832153
21
0.749372
0
LINE
8
BLACK
6
CONTINUOUS
10
0.832153
20
0.749372
11
0.83029
21
0.744404
0
LINE
8
BLACK
6
CONTINUOUS
10
0.83029
20
0.744404
11
0.828611
21
0.742169
0
LINE
8
BLACK
6
CONTINUOUS
10
0.828611
20
0.742169
11
0.825991
21
0.741197
0
LINE
8
BLACK
6
CONTINUOUS
10
0.825991
20
0.741197
11
0.823261
21
0.741796
0
LINE
8
BLACK
6
CONTINUOUS
10
0.823261
20
0.741796
11
0.821287
21
0.743775
0
LINE
8
BLACK
6
CONTINUOUS
10
0.821287
20
0.743775
11
0.821112
21
0.744132
0
LINE
8
BLACK
6
CONTINUOUS
10
0.821112
20
0.744132
11
0.820991
21
0.744404
0
LINE
8
BLACK
6
CONTINUOUS
10
0.820991
20
0.744404
11
0.819919
21
0.746817
0
LINE
8
BLACK
6
CONTINUOUS
10
0.819919
20
0.746817
11
0.8168
21
0.749931
0
LINE
8
BLACK
6
CONTINUOUS
10
0.8168
20
0.749931
11
0.816381
21
0.750116
0
LINE
8
BLACK
6
CONTINUOUS
10
0.816381
20
0.750116
11
0.816381
21
0.750116
0
LINE
8
BLACK
6
CONTINUOUS
10
0.816381
20
0.750116
11
0.814037
21
0.751152
0
LINE
8
BLACK
6
CONTINUOUS
10
0.814037
20
0.751152
11
0.812769
21
0.751713
0
LINE
8
BLACK
6
CONTINUOUS
10
0.812769
20
0.751713
11
0.811758
21
0.751831
0
LINE
8
BLACK
6
CONTINUOUS
10
0.811758
20
0.751831
11
0.748242
21
0.751831
0
LINE
8
BLACK
6
CONTINUOUS
10
0.748242
20
0.751831
11
0.748096
21
0.751813
0
LINE
8
BLACK
6
CONTINUOUS
10
0.748096
20
0.751813
11
0.748096
21
0.751813
0
LINE
8
BLACK
6
CONTINUOUS
10
0.748096
20
0.751813
11
0.747805
21
0.751779
0
LINE
8
BLACK
6
CONTINUOUS
10
0.747805
20
0.751779
11
0.747211
21
0.751708
0
LINE
8
BLACK
6
CONTINUOUS
10
0.747211
20
0.751708
11
0.743183
21
0.749919
0
LINE
8
BLACK
6
CONTINUOUS
10
0.743183
20
0.749919
11
0.740069
21
0.7468
0
LINE
8
BLACK
6
CONTINUOUS
10
0.740069
20
0.7468
11
0.738287
21
0.742769
0
LINE
8
BLACK
6
CONTINUOUS
10
0.738287
20
0.742769
11
0.738169
21
0.741758
0
LINE
8
BLACK
6
CONTINUOUS
10
0.738169
20
0.741758
11
0.738169
21
0.678242
0
LINE
8
BLACK
6
CONTINUOUS
10
0.738169
20
0.678242
11
0.738292
21
0.677211
0
LINE
8
BLACK
6
CONTINUOUS
10
0.738292
20
0.677211
11
0.738443
21
0.676871
0
LINE
8
BLACK
6
CONTINUOUS
10
0.738443
20
0.676871
11
0.738443
21
0.676871
0
LINE
8
BLACK
6
CONTINUOUS
10
0.738443
20
0.676871
11
0.738843
21
0.67597
0
LINE
8
BLACK
6
CONTINUOUS
10
0.738843
20
0.67597
11
0.740081
21
0.673183
0
LINE
8
BLACK
6
CONTINUOUS
10
0.740081
20
0.673183
11
0.7432
21
0.670069
0
LINE
8
BLACK
6
CONTINUOUS
10
0.7432
20
0.670069
11
0.743619
21
0.669884
0
LINE
8
BLACK
6
CONTINUOUS
10
0.743619
20
0.669884
11
0.743619
21
0.669884
0
LINE
8
BLACK
6
CONTINUOUS
10
0.743619
20
0.669884
11
0.745963
21
0.668848
0
LINE
8
BLACK
6
CONTINUOUS
10
0.745963
20
0.668848
11
0.747231
21
0.668287
0
LINE
8
BLACK
6
CONTINUOUS
10
0.747231
20
0.668287
11
0.748242
21
0.668169
0
LINE
8
BLACK
6
CONTINUOUS
10
0.748242
20
0.668169
11
0.811758
21
0.668169
0
LINE
8
BLACK
6
CONTINUOUS
10
0.811758
20
0.668169
11
0.811904
21
0.668187
0
LINE
8
BLACK
6
CONTINUOUS
10
0.811904
20
0.668187
11
0.811904
21
0.668187
0
LINE
8
BLACK
6
CONTINUOUS
10
0.811904
20
0.668187
11
0.812195
21
0.668221
0
LINE
8
BLACK
6
CONTINUOUS
10
0.812195
20
0.668221
11
0.812789
21
0.668292
0
LINE
8
BLACK
6
CONTINUOUS
10
0.812789
20
0.668292
11
0.816817
21
0.670081
0
LINE
8
BLACK
6
CONTINUOUS
10
0.816817
20
0.670081
11
0.819931
21
0.6732
0
LINE
8
BLACK
6
CONTINUOUS
10
0.819931
20
0.6732
11
0.821108
21
0.675862
0
LINE
8
BLACK
6
CONTINUOUS
10
0.821108
20
0.675862
11
0.822912
21
0.677997
0
LINE
8
BLACK
6
CONTINUOUS
10
0.822912
20
0.677997
11
0.825584
21
0.678816
0
LINE
8
BLACK
6
CONTINUOUS
10
0.825584
20
0.678816
11
0.828276
21
0.678062
0
LINE
8
BLACK
6
CONTINUOUS
10
0.828276
20
0.678062
11
0.830132
21
0.675972
0
LINE
8
BLACK
6
CONTINUOUS
10
0.830132
20
0.675972
11
0.830289
21
0.675598
0
LINE
8
BLACK
6
CONTINUOUS
10
0.830289
20
0.675598
11
0.832153
21
0.670628
0
LINE
8
BLACK
6
CONTINUOUS
10
0.832153
20
0.670628
11
0.832489
21
0.670014
0
LINE
8
BLACK
6
CONTINUOUS
10
0.832489
20
0.670014
11
0.835501
21
0.665995
0
LINE
8
BLACK
6
CONTINUOUS
10
0.835501
20
0.665995
11
0.835995
21
0.665501
0
LINE
8
BLACK
6
CONTINUOUS
10
0.835995
20
0.665501
11
0.838038
21
0.66397
0
LINE
8
BLACK
6
CONTINUOUS
10
0.838038
20
0.66397
11
0.839712
21
0.661731
0
LINE
8
BLACK
6
CONTINUOUS
10
0.839712
20
0.661731
11
0.83991
21
0.658943
0
LINE
8
BLACK
6
CONTINUOUS
10
0.83991
20
0.658943
11
0.838569
21
0.65649
0
LINE
8
BLACK
6
CONTINUOUS
10
0.838569
20
0.65649
11
0.838038
21
0.65603
0
LINE
8
BLACK
6
CONTINUOUS
10
0.838038
20
0.65603
11
0.835995
21
0.654499
0
LINE
8
BLACK
6
CONTINUOUS
10
0.835995
20
0.654499
11
0.835501
21
0.654005
0
LINE
8
BLACK
6
CONTINUOUS
10
0.835501
20
0.654005
11
0.832489
21
0.649986
0
LINE
8
BLACK
6
CONTINUOUS
10
0.832489
20
0.649986
11
0.832153
21
0.649372
0
LINE
8
BLACK
6
CONTINUOUS
10
0.832153
20
0.649372
11
0.83029
21
0.644404
0
LINE
8
BLACK
6
CONTINUOUS
10
0.83029
20
0.644404
11
0.828611
21
0.642169
0
LINE
8
BLACK
6
CONTINUOUS
10
0.828611
20
0.642169
11
0.825991
21
0.641197
0
LINE
8
BLACK
6
CONTINUOUS
10
0.825991
20
0.641197
11
0.823261
21
0.641796
0
LINE
8
BLACK
6
CONTINUOUS
10
0.823261
20
0.641796
11
0.821287
21
0.643775
0
LINE
8
BLACK
6
CONTINUOUS
10
0.821287
20
0.643775
11
0.821112
21
0.644132
0
LINE
8
BLACK
6
CONTINUOUS
10
0.821112
20
0.644132
11
0.820991
21
0.644404
0
LINE
8
BLACK
6
CONTINUOUS
10
0.820991
20
0.644404
11
0.819919
21
0.646817
0
LINE
8
BLACK
6
CONTINUOUS
10
0.819919
20
0.646817
11
0.8168
21
0.649931
0
LINE
8
BLACK
6
CONTINUOUS
10
0.8168
20
0.649931
11
0.816381
21
0.650116
0
LINE
8
BLACK
6
CONTINUOUS
10
0.816381
20
0.650116
11
0.816381
21
0.650116
0
LINE
8
BLACK
6
CONTINUOUS
10
0.816381
20
0.650116
11
0.814037
21
0.651152
0
LINE
8
BLACK
6
CONTINUOUS
10
0.814037
20
0.651152
11
0.812769
21
0.651713
0
LINE
8
BLACK
6
CONTINUOUS
10
0.812769
20
0.651713
11
0.811758
21
0.651831
0
LINE
8
BLACK
6
CONTINUOUS
10
0.811758
20
0.651831
11
0.748242
21
0.651831
0
LINE
8
BLACK
6
CONTINUOUS
10
0.748242
20
0.651831
11
0.748096
21
0.651813
0
LINE
8
BLACK
6
CONTINUOUS
10
0.748096
20
0.651813
11
0.748096
21
0.651813
0
LINE
8
BLACK
6
CONTINUOUS
10
0.748096
20
0.651813
11
0.747805
21
0.651779
0
LINE
8
BLACK
6
CONTINUOUS
10
0.747805
20
0.651779
11
0.747211
21
0.651708
0
LINE
8
BLACK
6
CONTINUOUS
10
0.747211
20
0.651708
11
0.743183
21
0.649919
0
LINE
8
BLACK
6
CONTINUOUS
10
0.743183
20
0.649919
11
0.740069
21
0.6468
0
LINE
8
BLACK
6
CONTINUOUS
10
0.740069
20
0.6468
11
0.739884
21
0.646381
0
LINE
8
BLACK
6
CONTINUOUS
10
0.739884
20
0.646381
11
0.739884
21
0.646381
0
LINE
8
BLACK
6
CONTINUOUS
10
0.739884
20
0.646381
11
0.73911
21
0.64463
0
LINE
8
BLACK
6
CONTINUOUS
10
0.73911
20
0.64463
11
0.738287
21
0.642769
0
LINE
8
BLACK
6
CONTINUOUS
10
0.738287
20
0.642769
11
0.738169
21
0.641758
0
LINE
8
BLACK
6
CONTINUOUS
10
0.738169
20
0.641758
11
0.738169
21
0.578242
0
LINE
8
BLACK
6
CONTINUOUS
10
0.738169
20
0.578242
11
0.738292
21
0.577211
0
LINE
8
BLACK
6
CONTINUOUS
10
0.738292
20
0.577211
11
0.738443
21
0.576871
0
LINE
8
BLACK
6
CONTINUOUS
10
0.738443
20
0.576871
11
0.738443
21
0.576871
0
LINE
8
BLACK
6
CONTINUOUS
10
0.738443
20
0.576871
11
0.738843
21
0.57597
0
LINE
8
BLACK
6
CONTINUOUS
10
0.738843
20
0.57597
11
0.740081
21
0.573183
0
LINE
8
BLACK
6
CONTINUOUS
10
0.740081
20
0.573183
11
0.7432
21
0.570069
0
LINE
8
BLACK
6
CONTINUOUS
10
0.7432
20
0.570069
11
0.743619
21
0.569884
0
LINE
8
BLACK
6
CONTINUOUS
10
0.743619
20
0.569884
11
0.743619
21
0.569884
0
LINE
8
BLACK
6
CONTINUOUS
10
0.743619
20
0.569884
11
0.745377
21
0.569107
0
LINE
8
BLACK
6
CONTINUOUS
10
0.745377
20
0.569107
11
0.747231
21
0.568287
0
LINE
8
BLACK
6
CONTINUOUS
10
0.747231
20
0.568287
11
0.748242
21
0.568169
0
LINE
8
BLACK
6
CONTINUOUS
10
0.748242
20
0.568169
11
0.811758
21
0.568169
0
LINE
8
BLACK
6
CONTINUOUS
10
0.811758
20
0.568169
11
0.811904
21
0.568187
0
LINE
8
BLACK
6
CONTINUOUS
10
0.811904
20
0.568187
11
0.811904
21
0.568187
0
LINE
8
BLACK
6
CONTINUOUS
10
0.811904
20
0.568187
11
0.812195
21
0.568221
0
LINE
8
BLACK
6
CONTINUOUS
10
0.812195
20
0.568221
11
0.812789
21
0.568292
0
LINE
8
BLACK
6
CONTINUOUS
10
0.812789
20
0.568292
11
0.814354
21
0.568987
0
LINE
8
BLACK
6
CONTINUOUS
10
0.814354
20
0.568987
11
0.816398
21
0.569895
0
LINE
8
BLACK
6
CONTINUOUS
10
0.816398
20
0.569895
11
0.816817
21
0.570081
0
LINE
8
BLACK
6
CONTINUOUS
10
0.816817
20
0.570081
11
0.819931
21
0.5732
0
LINE
8
BLACK
6
CONTINUOUS
10
0.819931
20
0.5732
11
0.821108
21
0.575862
0
LINE
8
BLACK
6
CONTINUOUS
10
0.821108
20
0.575862
11
0.822912
21
0.577997
0
LINE
8
BLACK
6
CONTINUOUS
10
0.822912
20
0.577997
11
0.825584
21
0.578816
0
LINE
8
BLACK
6
CONTINUOUS
10
0.825584
20
0.578816
11
0.828276
21
0.578062
0
LINE
8
BLACK
6
CONTINUOUS
10
0.828276
20
0.578062
11
0.830132
21
0.575972
0
LINE
8
BLACK
6
CONTINUOUS
10
0.830132
20
0.575972
11
0.830289
21
0.575598
0
LINE
8
BLACK
6
CONTINUOUS
10
0.830289
20
0.575598
11
0.832153
21
0.570628
0
LINE
8
BLACK
6
CONTINUOUS
10
0.832153
20
0.570628
11
0.832489
21
0.570014
0
LINE
8
BLACK
6
CONTINUOUS
10
0.832489
20
0.570014
11
0.835501
21
0.565995
0
LINE
8
BLACK
6
CONTINUOUS
10
0.835501
20
0.565995
11
0.835995
21
0.565501
0
LINE
8
BLACK
6
CONTINUOUS
10
0.835995
20
0.565501
11
0.840014
21
0.562489
0
LINE
8
BLACK
6
CONTINUOUS
10
0.840014
20
0.562489
11
0.840628
21
0.562153
0
LINE
8
BLACK
6
CONTINUOUS
10
0.840628
20
0.562153
11
0.84537
21
0.560375
0
LINE
8
BLACK
6
CONTINUOUS
10
0.84537
20
0.560375
11
0.84597
21
0.560232
0
LINE
8
BLACK
6
CONTINUOUS
10
0.84597
20
0.560232
11
0.847973
21
0.560015
0
LINE
8
BLACK
6
CONTINUOUS
10
0.847973
20
0.560015
11
0.848241
21
0.56
0
LINE
8
BLACK
6
CONTINUOUS
10
0.848241
20
0.56
11
0.869287
21
0.56
0
LINE
8
BLACK
6
CONTINUOUS
10
0.869287
20
0.56
11
0.869887
21
0.560176
0
LINE
8
BLACK
6
CONTINUOUS
10
0.869887
20
0.560176
11
0.869934
21
0.560231
0
LINE
8
BLACK
6
CONTINUOUS
10
0.869934
20
0.560231
11
0.87
21
0.560533
0
LINE
8
BLACK
6
CONTINUOUS
10
0.87
20
0.560533
11
0.87
21
0.58
0
LINE
8
BLACK
6
CONTINUOUS
10
0.87
20
0.58
11
0.85
21
0.58
0
LINE
8
BLACK
6
CONTINUOUS
10
0.590231
20
0.560066
11
0.590533
21
0.56
0
LINE
8
BLACK
6
CONTINUOUS
10
0.590533
20
0.56
11
0.611759
21
0.56
0
LINE
8
BLACK
6
CONTINUOUS
10
0.611759
20
0.56
11
0.612027
21
0.560015
0
LINE
8
BLACK
6
CONTINUOUS
10
0.612027
20
0.560015
11
0.61403
21
0.560232
0
LINE
8
BLACK
6
CONTINUOUS
10
0.61403
20
0.560232
11
0.61463
21
0.560375
0
LINE
8
BLACK
6
CONTINUOUS
10
0.61463
20
0.560375
11
0.619372
21
0.562153
0
LINE
8
BLACK
6
CONTINUOUS
10
0.619372
20
0.562153
11
0.619986
21
0.562489
0
LINE
8
BLACK
6
CONTINUOUS
10
0.619986
20
0.562489
11
0.624005
21
0.565501
0
LINE
8
BLACK
6
CONTINUOUS
10
0.624005
20
0.565501
11
0.624499
21
0.565995
0
LINE
8
BLACK
6
CONTINUOUS
10
0.624499
20
0.565995
11
0.627511
21
0.570014
0
LINE
8
BLACK
6
CONTINUOUS
10
0.627511
20
0.570014
11
0.627847
21
0.570628
0
LINE
8
BLACK
6
CONTINUOUS
10
0.627847
20
0.570628
11
0.62971
21
0.575596
0
LINE
8
BLACK
6
CONTINUOUS
10
0.62971
20
0.575596
11
0.631389
21
0.577831
0
LINE
8
BLACK
6
CONTINUOUS
10
0.631389
20
0.577831
11
0.634009
21
0.578803
0
LINE
8
BLACK
6
CONTINUOUS
10
0.634009
20
0.578803
11
0.636739
21
0.578204
0
LINE
8
BLACK
6
CONTINUOUS
10
0.636739
20
0.578204
11
0.638713
21
0.576225
0
LINE
8
BLACK
6
CONTINUOUS
10
0.638713
20
0.576225
11
0.638888
21
0.575869
0
LINE
8
BLACK
6
CONTINUOUS
10
0.638888
20
0.575869
11
0.640081
21
0.573183
0
LINE
8
BLACK
6
CONTINUOUS
10
0.640081
20
0.573183
11
0.6432
21
0.570069
0
LINE
8
BLACK
6
CONTINUOUS
10
0.6432
20
0.570069
11
0.643619
21
0.569884
0
LINE
8
BLACK
6
CONTINUOUS
10
0.643619
20
0.569884
11
0.643619
21
0.569884
0
LINE
8
BLACK
6
CONTINUOUS
10
0.643619
20
0.569884
11
0.645377
21
0.569107
0
LINE
8
BLACK
6
CONTINUOUS
10
0.645377
20
0.569107
11
0.647231
21
0.568287
0
LINE
8
BLACK
6
CONTINUOUS
10
0.647231
20
0.568287
11
0.648242
21
0.568169
0
LINE
8
BLACK
6
CONTINUOUS
10
0.648242
20
0.568169
11
0.711758
21
0.568169
0
LINE
8
BLACK
6
CONTINUOUS
10
0.711758
20
0.568169
11
0.711904
21
0.568187
0
LINE
8
BLACK
6
CONTINUOUS
10
0.711904
20
0.568187
11
0.711904
21
0.568187
0
LINE
8
BLACK
6
CONTINUOUS
10
0.711904
20
0.568187
11
0.712195
21
0.568221
0
LINE
8
BLACK
6
CONTINUOUS
10
0.712195
20
0.568221
11
0.712789
21
0.568292
0
LINE
8
BLACK
6
CONTINUOUS
10
0.712789
20
0.568292
11
0.714354
21
0.568987
0
LINE
8
BLACK
6
CONTINUOUS
10
0.714354
20
0.568987
11
0.716398
21
0.569895
0
LINE
8
BLACK
6
CONTINUOUS
10
0.716398
20
0.569895
11
0.716817
21
0.570081
0
LINE
8
BLACK
6
CONTINUOUS
10
0.716817
20
0.570081
11
0.719931
21
0.5732
0
LINE
8
BLACK
6
CONTINUOUS
10
0.719931
20
0.5732
11
0.721713
21
0.577231
0
LINE
8
BLACK
6
CONTINUOUS
10
0.721713
20
0.577231
11
0.721831
21
0.578242
0
LINE
8
BLACK
6
CONTINUOUS
10
0.721831
20
0.578242
11
0.721831
21
0.641758
0
LINE
8
BLACK
6
CONTINUOUS
10
0.721831
20
0.641758
11
0.721708
21
0.642789
0
LINE
8
BLACK
6
CONTINUOUS
10
0.721708
20
0.642789
11
0.721158
21
0.644028
0
LINE
8
BLACK
6
CONTINUOUS
10
0.721158
20
0.644028
11
0.720105
21
0.646398
0
LINE
8
BLACK
6
CONTINUOUS
10
0.720105
20
0.646398
11
0.720105
21
0.646398
0
LINE
8
BLACK
6
CONTINUOUS
10
0.720105
20
0.646398
11
0.719919
21
0.646817
0
LINE
8
BLACK
6
CONTINUOUS
10
0.719919
20
0.646817
11
0.7168
21
0.649931
0
LINE
8
BLACK
6
CONTINUOUS
10
0.7168
20
0.649931
11
0.716381
21
0.650116
0
LINE
8
BLACK
6
CONTINUOUS
10
0.716381
20
0.650116
11
0.716381
21
0.650116
0
LINE
8
BLACK
6
CONTINUOUS
10
0.716381
20
0.650116
11
0.714037
21
0.651152
0
LINE
8
BLACK
6
CONTINUOUS
10
0.714037
20
0.651152
11
0.712769
21
0.651713
0
LINE
8
BLACK
6
CONTINUOUS
10
0.712769
20
0.651713
11
0.711758
21
0.651831
0
LINE
8
BLACK
6
CONTINUOUS
10
0.711758
20
0.651831
11
0.648242
21
0.651831
0
LINE
8
BLACK
6
CONTINUOUS
10
0.648242
20
0.651831
11
0.648096
21
0.651813
0
LINE
8
BLACK
6
CONTINUOUS
10
0.648096
20
0.651813
11
0.648096
21
0.651813
0
LINE
8
BLACK
6
CONTINUOUS
10
0.648096
20
0.651813
11
0.647805
21
0.651779
0
LINE
8
BLACK
6
CONTINUOUS
10
0.647805
20
0.651779
11
0.647211
21
0.651708
0
LINE
8
BLACK
6
CONTINUOUS
10
0.647211
20
0.651708
11
0.643183
21
0.649919
0
LINE
8
BLACK
6
CONTINUOUS
10
0.643183
20
0.649919
11
0.640069
21
0.6468
0
LINE
8
BLACK
6
CONTINUOUS
10
0.640069
20
0.6468
11
0.639884
21
0.646381
0
LINE
8
BLACK
6
CONTINUOUS
10
0.639884
20
0.646381
11
0.639884
21
0.646381
0
LINE
8
BLACK
6
CONTINUOUS
10
0.639884
20
0.646381
11
0.638892
21
0.644138
0
LINE
8
BLACK
6
CONTINUOUS
10
0.638892
20
0.644138
11
0.637088
21
0.642003
0
LINE
8
BLACK
6
CONTINUOUS
10
0.637088
20
0.642003
11
0.634416
21
0.641184
0
LINE
8
BLACK
6
CONTINUOUS
10
0.634416
20
0.641184
11
0.631724
21
0.641938
0
LINE
8
BLACK
6
CONTINUOUS
10
0.631724
20
0.641938
11
0.629868
21
0.644028
0
LINE
8
BLACK
6
CONTINUOUS
10
0.629868
20
0.644028
11
0.629711
21
0.644402
0
LINE
8
BLACK
6
CONTINUOUS
10
0.629711
20
0.644402
11
0.627847
21
0.649372
0
LINE
8
BLACK
6
CONTINUOUS
10
0.627847
20
0.649372
11
0.627511
21
0.649986
0
LINE
8
BLACK
6
CONTINUOUS
10
0.627511
20
0.649986
11
0.624499
21
0.654005
0
LINE
8
BLACK
6
CONTINUOUS
10
0.624499
20
0.654005
11
0.624005
21
0.654499
0
LINE
8
BLACK
6
CONTINUOUS
10
0.624005
20
0.654499
11
0.621962
21
0.65603
0
LINE
8
BLACK
6
CONTINUOUS
10
0.621962
20
0.65603
11
0.620288
21
0.658269
0
LINE
8
BLACK
6
CONTINUOUS
10
0.620288
20
0.658269
11
0.62009
21
0.661057
0
LINE
8
BLACK
6
CONTINUOUS
10
0.62009
20
0.661057
11
0.621431
21
0.66351
0
LINE
8
BLACK
6
CONTINUOUS
10
0.621431
20
0.66351
11
0.621962
21
0.66397
0
LINE
8
BLACK
6
CONTINUOUS
10
0.621962
20
0.66397
11
0.624005
21
0.665501
0
LINE
8
BLACK
6
CONTINUOUS
10
0.624005
20
0.665501
11
0.624499
21
0.665995
0
LINE
8
BLACK
6
CONTINUOUS
10
0.624499
20
0.665995
11
0.627511
21
0.670014
0
LINE
8
BLACK
6
CONTINUOUS
10
0.627511
20
0.670014
11
0.627847
21
0.670628
0
LINE
8
BLACK
6
CONTINUOUS
10
0.627847
20
0.670628
11
0.62971
21
0.675596
0
LINE
8
BLACK
6
CONTINUOUS
10
0.62971
20
0.675596
11
0.631389
21
0.677831
0
LINE
8
BLACK
6
CONTINUOUS
10
0.631389
20
0.677831
11
0.634009
21
0.678803
0
LINE
8
BLACK
6
CONTINUOUS
10
0.634009
20
0.678803
11
0.636739
21
0.678204
0
LINE
8
BLACK
6
CONTINUOUS
10
0.636739
20
0.678204
11
0.638713
21
0.676225
0
LINE
8
BLACK
6
CONTINUOUS
10
0.638713
20
0.676225
11
0.638888
21
0.675869
0
LINE
8
BLACK
6
CONTINUOUS
10
0.638888
20
0.675869
11
0.640081
21
0.673183
0
LINE
8
BLACK
6
CONTINUOUS
10
0.640081
20
0.673183
11
0.6432
21
0.670069
0
LINE
8
BLACK
6
CONTINUOUS
10
0.6432
20
0.670069
11
0.643619
21
0.669884
0
LINE
8
BLACK
6
CONTINUOUS
10
0.643619
20
0.669884
11
0.643619
21
0.669884
0
LINE
8
BLACK
6
CONTINUOUS
10
0.643619
20
0.669884
11
0.645963
21
0.668848
0
LINE
8
BLACK
6
CONTINUOUS
10
0.645963
20
0.668848
11
0.647231
21
0.668287
0
LINE
8
BLACK
6
CONTINUOUS
10
0.647231
20
0.668287
11
0.648242
21
0.668169
0
LINE
8
BLACK
6
CONTINUOUS
10
0.648242
20
0.668169
11
0.711758
21
0.668169
0
LINE
8
BLACK
6
CONTINUOUS
10
0.711758
20
0.668169
11
0.711904
21
0.668187
0
LINE
8
BLACK
6
CONTINUOUS
10
0.711904
20
0.668187
11
0.711904
21
0.668187
0
LINE
8
BLACK
6
CONTINUOUS
10
0.711904
20
0.668187
11
0.712195
21
0.668221
0
LINE
8
BLACK
6
CONTINUOUS
10
0.712195
20
0.668221
11
0.712789
21
0.668292
0
LINE
8
BLACK
6
CONTINUOUS
10
0.712789
20
0.668292
11
0.716817
21
0.670081
0
LINE
8
BLACK
6
CONTINUOUS
10
0.716817
20
0.670081
11
0.719931
21
0.6732
0
LINE
8
BLACK
6
CONTINUOUS
10
0.719931
20
0.6732
11
0.721713
21
0.677231
0
LINE
8
BLACK
6
CONTINUOUS
10
0.721713
20
0.677231
11
0.721831
21
0.678242
0
LINE
8
BLACK
6
CONTINUOUS
10
0.721831
20
0.678242
11
0.721831
21
0.741758
0
LINE
8
BLACK
6
CONTINUOUS
10
0.721831
20
0.741758
11
0.721708
21
0.742789
0
LINE
8
BLACK
6
CONTINUOUS
10
0.721708
20
0.742789
11
0.721158
21
0.744028
0
LINE
8
BLACK
6
CONTINUOUS
10
0.721158
20
0.744028
11
0.720105
21
0.746398
0
LINE
8
BLACK
6
CONTINUOUS
10
0.720105
20
0.746398
11
0.720105
21
0.746398
0
LINE
8
BLACK
6
CONTINUOUS
10
0.720105
20
0.746398
11
0.719919
21
0.746817
0
LINE
8
BLACK
6
CONTINUOUS
10
0.719919
20
0.746817
11
0.7168
21
0.749931
0
LINE
8
BLACK
6
CONTINUOUS
10
0.7168
20
0.749931
11
0.716381
21
0.750116
0
LINE
8
BLACK
6
CONTINUOUS
10
0.716381
20
0.750116
11
0.716381
21
0.750116
0
LINE
8
BLACK
6
CONTINUOUS
10
0.716381
20
0.750116
11
0.714037
21
0.751152
0
LINE
8
BLACK
6
CONTINUOUS
10
0.714037
20
0.751152
11
0.712769
21
0.751713
0
LINE
8
BLACK
6
CONTINUOUS
10
0.712769
20
0.751713
11
0.711758
21
0.751831
0
LINE
8
BLACK
6
CONTINUOUS
10
0.711758
20
0.751831
11
0.648242
21
0.751831
0
LINE
8
BLACK
6
CONTINUOUS
10
0.648242
20
0.751831
11
0.648096
21
0.751813
0
LINE
8
BLACK
6
CONTINUOUS
10
0.648096
20
0.751813
11
0.648096
21
0.751813
0
LINE
8
BLACK
6
CONTINUOUS
10
0.648096
20
0.751813
11
0.647805
21
0.751779
0
LINE
8
BLACK
6
CONTINUOUS
10
0.647805
20
0.751779
11
0.647211
21
0.751708
0
LINE
8
BLACK
6
CONTINUOUS
10
0.647211
20
0.751708
11
0.643183
21
0.749919
0
LINE
8
BLACK
6
CONTINUOUS
10
0.643183
20
0.749919
11
0.640069
21
0.7468
0
LINE
8
BLACK
6
CONTINUOUS
10
0.640069
20
0.7468
11
0.639884
21
0.746381
0
LINE
8
BLACK
6
CONTINUOUS
10
0.639884
20
0.746381
11
0.639884
21
0.746381
0
LINE
8
BLACK
6
CONTINUOUS
10
0.639884
20
0.746381
11
0.638892
21
0.744138
0
LINE
8
BLACK
6
CONTINUOUS
10
0.638892
20
0.744138
11
0.637088
21
0.742003
0
LINE
8
BLACK
6
CONTINUOUS
10
0.637088
20
0.742003
11
0.634416
21
0.741184
0
LINE
8
BLACK
6
CONTINUOUS
10
0.634416
20
0.741184
11
0.631724
21
0.741938
0
LINE
8
BLACK
6
CONTINUOUS
10
0.631724
20
0.741938
11
0.629868
21
0.744028
0
LINE
8
BLACK
6
CONTINUOUS
10
0.629868
20
0.744028
11
0.629711
21
0.744402
0
LINE
8
BLACK
6
CONTINUOUS
10
0.629711
20
0.744402
11
0.627847
21
0.749372
0
LINE
8
BLACK
6
CONTINUOUS
10
0.627847
20
0.749372
11
0.627511
21
0.749986
0
LINE
8
BLACK
6
CONTINUOUS
10
0.627511
20
0.749986
11
0.624499
21
0.754005
0
LINE
8
BLACK
6
CONTINUOUS
10
0.624499
20
0.754005
11
0.624005
21
0.754499
0
LINE
8
BLACK
6
CONTINUOUS
10
0.624005
20
0.754499
11
0.619986
21
0.757511
0
LINE
8
BLACK
6
CONTINUOUS
10
0.619986
20
0.757511
11
0.619372
21
0.757847
0
LINE
8
BLACK
6
CONTINUOUS
10
0.619372
20
0.757847
11
0.61463
21
0.759625
0
LINE
8
BLACK
6
CONTINUOUS
10
0.61463
20
0.759625
11
0.61403
21
0.759768
0
LINE
8
BLACK
6
CONTINUOUS
10
0.61403
20
0.759768
11
0.612027
21
0.759985
0
LINE
8
BLACK
6
CONTINUOUS
10
0.612027
20
0.759985
11
0.611759
21
0.76
0
LINE
8
BLACK
6
CONTINUOUS
10
0.611759
20
0.76
11
0.590713
21
0.76
0
LINE
8
BLACK
6
CONTINUOUS
10
0.590713
20
0.76
11
0.590113
21
0.759824
0
LINE
8
BLACK
6
CONTINUOUS
10
0.590113
20
0.759824
11
0.590066
21
0.759769
0
LINE
8
BLACK
6
CONTINUOUS
10
0.590066
20
0.759769
11
0.59
21
0.759467
0
LINE
8
BLACK
6
CONTINUOUS
10
0.59
20
0.759467
11
0.59
21
0.74
0
LINE
8
BLACK
6
CONTINUOUS
10
0.59
20
0.74
11
0.61
21
0.74
0
LINE
8
BLACK
6
CONTINUOUS
10
0.61
20
0.74
11
0.61
21
0.68
0
LINE
8
BLACK
6
CONTINUOUS
10
0.61
20
0.68
11
0.59
21
0.68
0
LINE
8
BLACK
6
CONTINUOUS
10
0.59
20
0.68
11
0.59
21
0.64
0
LINE
8
BLACK
6
CONTINUOUS
10
0.59
20
0.64
11
0.61
21
0.64
0
LINE
8
BLACK
6
CONTINUOUS
10
0.61
20
0.64
11
0.61
21
0.58
0
LINE
8
BLACK
6
CONTINUOUS
10
0.61
20
0.58
11
0.59
21
0.58
0
LINE
8
BLACK
6
CONTINUOUS
10
0.59
20
0.58
11
0.59
21
0.560713
0
LINE
8
BLACK
6
CONTINUOUS
10
0.59
20
0.560713
11
0.590176
21
0.560113
0
LINE
8
BLACK
6
CONTINUOUS
10
0.590176
20
0.560113
11
0.590231
21
0.560066
0
LINE
8
BLACK
6
CONTINUOUS
10
0.929985
20
0.642027
11
0.929768
21
0.64403
0
LINE
8
BLACK
6
CONTINUOUS
10
0.929768
20
0.64403
11
0.929625
21
0.64463
0
LINE
8
BLACK
6
CONTINUOUS
10
0.929625
20
0.64463
11
0.927847
21
0.649372
0
LINE
8
BLACK
6
CONTINUOUS
10
0.927847
20
0.649372
11
0.927511
21
0.649986
0
LINE
8
BLACK
6
CONTINUOUS
10
0.927511
20
0.649986
11
0.924499
21
0.654005
0
LINE
8
BLACK
6
CONTINUOUS
10
0.924499
20
0.654005
11
0.924005
21
0.654499
0
LINE
8
BLACK
6
CONTINUOUS
10
0.924005
20
0.654499
11
0.921962
21
0.65603
0
LINE
8
BLACK
6
CONTINUOUS
10
0.921962
20
0.65603
11
0.920288
21
0.658269
0
LINE
8
BLACK
6
CONTINUOUS
10
0.920288
20
0.658269
11
0.92009
21
0.661057
0
LINE
8
BLACK
6
CONTINUOUS
10
0.92009
20
0.661057
11
0.921431
21
0.66351
0
LINE
8
BLACK
6
CONTINUOUS
10
0.921431
20
0.66351
11
0.921962
21
0.66397
0
LINE
8
BLACK
6
CONTINUOUS
10
0.921962
20
0.66397
11
0.924005
21
0.665501
0
LINE
8
BLACK
6
CONTINUOUS
10
0.924005
20
0.665501
11
0.924499
21
0.665995
0
LINE
8
BLACK
6
CONTINUOUS
10
0.924499
20
0.665995
11
0.927511
21
0.670014
0
LINE
8
BLACK
6
CONTINUOUS
10
0.927511
20
0.670014
11
0.927847
21
0.670628
0
LINE
8
BLACK
6
CONTINUOUS
10
0.927847
20
0.670628
11
0.929625
21
0.67537
0
LINE
8
BLACK
6
CONTINUOUS
10
0.929625
20
0.67537
11
0.929768
21
0.67597
0
LINE
8
BLACK
6
CONTINUOUS
10
0.929768
20
0.67597
11
0.929985
21
0.677973
0
LINE
8
BLACK
6
CONTINUOUS
10
0.929985
20
0.677973
11
0.93
21
0.678241
0
LINE
8
BLACK
6
CONTINUOUS
10
0.93
20
0.678241
11
0.93
21
0.699287
0
LINE
8
BLACK
6
CONTINUOUS
10
0.93
20
0.699287
11
0.929824
21
0.699887
0
LINE
8
BLACK
6
CONTINUOUS
10
0.929824
20
0.699887
11
0.929769
21
0.699934
0
LINE
8
BLACK
6
CONTINUOUS
10
0.929769
20
0.699934
11
0.929467
21
0.7
0
LINE
8
BLACK
6
CONTINUOUS
10
0.929467
20
0.7
11
0.91
21
0.7
0
LINE
8
BLACK
6
CONTINUOUS
10
0.91
20
0.7
11
0.91
21
0.68
0
LINE
8
BLACK
6
CONTINUOUS
10
0.91
20
0.68
11
0.89
21
0.68
0
LINE
8
BLACK
6
CONTINUOUS
10
0.89
20
0.68
11
0.89
21
0.64
0
LINE
8
BLACK
6
CONTINUOUS
10
0.89
20
0.64
11
0.91
21
0.64
0
LINE
8
BLACK
6
CONTINUOUS
10
0.91
20
0.64
11
0.91
21
0.62
0
LINE
8
BLACK
6
CONTINUOUS
10
0.91
20
0.62
11
0.929287
21
0.62
0
LINE
8
BLACK
6
CONTINUOUS
10
0.929287
20
0.62
11
0.929887
21
0.620176
0
LINE
8
BLACK
6
CONTINUOUS
10
0.929887
20
0.620176
11
0.929934
21
0.620231
0
LINE
8
BLACK
6
CONTINUOUS
10
0.929934
20
0.620231
11
0.93
21
0.620533
0
LINE
8
BLACK
6
CONTINUOUS
10
0.93
20
0.620533
11
0.93
21
0.641759
0
LINE
8
BLACK
6
CONTINUOUS
10
0.93
20
0.641759
11
0.929985
21
0.642027
0
LINE
8
BLACK
6
CONTINUOUS
10
1.1166
20
0.170615
11
1.12489
21
0.168394
0
LINE
8
BLACK
6
CONTINUOUS
10
1.12489
20
0.168394
11
1.13266
21
0.164769
0
LINE
8
BLACK
6
CONTINUOUS
10
1.13266
20
0.164769
11
1.13969
21
0.159849
0
LINE
8
BLACK
6
CONTINUOUS
10
1.13969
20
0.159849
11
1.14575
21
0.153783
0
LINE
8
BLACK
6
CONTINUOUS
10
1.14575
20
0.153783
11
1.15067
21
0.146756
0
LINE
8
BLACK
6
CONTINUOUS
10
1.15067
20
0.146756
11
1.1543
21
0.138981
0
LINE
8
BLACK
6
CONTINUOUS
10
1.1543
20
0.138981
11
1.15652
21
0.130695
0
LINE
8
BLACK
6
CONTINUOUS
10
1.15652
20
0.130695
11
1.15727
21
0.12215
0
LINE
8
BLACK
6
CONTINUOUS
10
1.15727
20
0.12215
11
1.15652
21
0.113604
0
LINE
8
BLACK
6
CONTINUOUS
10
1.15652
20
0.113604
11
1.1543
21
0.105318
0
LINE
8
BLACK
6
CONTINUOUS
10
1.1543
20
0.105318
11
1.15067
21
0.0975433
0
LINE
8
BLACK
6
CONTINUOUS
10
1.15067
20
0.0975433
11
1.14575
21
0.0905163
0
LINE
8
BLACK
6
CONTINUOUS
10
1.14575
20
0.0905163
11
1.13969
21
0.0844506
0
LINE
8
BLACK
6
CONTINUOUS
10
1.13969
20
0.0844506
11
1.13266
21
0.0795302
0
LINE
8
BLACK
6
CONTINUOUS
10
1.13266
20
0.0795302
11
1.12489
21
0.0759049
0
LINE
8
BLACK
6
CONTINUOUS
10
1.12489
20
0.0759049
11
1.1166
21
0.0736846
0
LINE
8
BLACK
6
CONTINUOUS
10
1.1166
20
0.0736846
11
1.10806
21
0.072937
0
LINE
8
BLACK
6
CONTINUOUS
10
1.10806
20
0.072937
11
1.09951
21
0.0736846
0
LINE
8
BLACK
6
CONTINUOUS
10
1.09951
20
0.0736846
11
1.09122
21
0.0759049
0
LINE
8
BLACK
6
CONTINUOUS
10
1.09122
20
0.0759049
11
1.08345
21
0.0795302
0
LINE
8
BLACK
6
CONTINUOUS
10
1.08345
20
0.0795302
11
1.07642
21
0.0844506
0
LINE
8
BLACK
6
CONTINUOUS
10
1.07642
20
0.0844506
11
1.07036
21
0.0905163
0
LINE
8
BLACK
6
CONTINUOUS
10
1.07036
20
0.0905163
11
1.06544
21
0.0975433
0
LINE
8
BLACK
6
CONTINUOUS
10
1.06544
20
0.0975433
11
1.06181
21
0.105318
0
LINE
8
BLACK
6
CONTINUOUS
10
1.06181
20
0.105318
11
1.05959
21
0.113604
0
LINE
8
BLACK
6
CONTINUOUS
10
1.05959
20
0.113604
11
1.05884
21
0.12215
0
LINE
8
BLACK
6
CONTINUOUS
10
1.05884
20
0.12215
11
1.05959
21
0.130695
0
LINE
8
BLACK
6
CONTINUOUS
10
1.05959
20
0.130695
11
1.06181
21
0.138981
0
LINE
8
BLACK
6
CONTINUOUS
10
1.06181
20
0.138981
11
1.06544
21
0.146756
0
LINE
8
BLACK
6
CONTINUOUS
10
1.06544
20
0.146756
11
1.07036
21
0.153783
0
LINE
8
BLACK
6
CONTINUOUS
10
1.07036
20
0.153783
11
1.07642
21
0.159849
0
LINE
8
BLACK
6
CONTINUOUS
10
1.07642
20
0.159849
11
1.08345
21
0.164769
0
LINE
8
BLACK
6
CONTINUOUS
10
1.08345
20
0.164769
11
1.09122
21
0.168394
0
LINE
8
BLACK
6
CONTINUOUS
10
1.09122
20
0.168394
11
1.09951
21
0.170615
0
LINE
8
BLACK
6
CONTINUOUS
10
1.09951
20
0.170615
11
1.10806
21
0.171362
0
LINE
8
BLACK
6
CONTINUOUS
10
1.10806
20
0.171362
11
1.1166
21
0.170615
0
LINE
8
BLACK
6
CONTINUOUS
10
1.11516
20
0.290421
11
1.1208
21
0.288781
0
LINE
8
BLACK
6
CONTINUOUS
10
1.1208
20
0.288781
11
1.12579
21
0.285684
0
LINE
8
BLACK
6
CONTINUOUS
10
1.12579
20
0.285684
11
1.12977
21
0.281358
0
LINE
8
BLACK
6
CONTINUOUS
10
1.12977
20
0.281358
11
1.13244
21
0.276121
0
LINE
8
BLACK
6
CONTINUOUS
10
1.13244
20
0.276121
11
1.1336
21
0.27036
0
LINE
8
BLACK
6
CONTINUOUS
10
1.1336
20
0.27036
11
1.13317
21
0.264498
0
LINE
8
BLACK
6
CONTINUOUS
10
1.13317
20
0.264498
11
1.13118
21
0.258968
0
LINE
8
BLACK
6
CONTINUOUS
10
1.13118
20
0.258968
11
1.12778
21
0.254177
0
LINE
8
BLACK
6
CONTINUOUS
10
1.12778
20
0.254177
11
1.12321
21
0.250478
0
LINE
8
BLACK
6
CONTINUOUS
10
1.12321
20
0.250478
11
1.11782
21
0.248144
0
LINE
8
BLACK
6
CONTINUOUS
10
1.11782
20
0.248144
11
1.11199
21
0.247346
0
LINE
8
BLACK
6
CONTINUOUS
10
1.11199
20
0.247346
11
1.10412
21
0.247346
0
LINE
8
BLACK
6
CONTINUOUS
10
1.10412
20
0.247346
11
1.10095
21
0.247579
0
LINE
8
BLACK
6
CONTINUOUS
10
1.10095
20
0.247579
11
1.09531
21
0.249219
0
LINE
8
BLACK
6
CONTINUOUS
10
1.09531
20
0.249219
11
1.09032
21
0.252316
0
LINE
8
BLACK
6
CONTINUOUS
10
1.09032
20
0.252316
11
1.08634
21
0.256642
0
LINE
8
BLACK
6
CONTINUOUS
10
1.08634
20
0.256642
11
1.08367
21
0.261879
0
LINE
8
BLACK
6
CONTINUOUS
10
1.08367
20
0.261879
11
1.08251
21
0.26764
0
LINE
8
BLACK
6
CONTINUOUS
10
1.08251
20
0.26764
11
1.08294
21
0.273502
0
LINE
8
BLACK
6
CONTINUOUS
10
1.08294
20
0.273502
11
1.08493
21
0.279032
0
LINE
8
BLACK
6
CONTINUOUS
10
1.08493
20
0.279032
11
1.08833
21
0.283823
0
LINE
8
BLACK
6
CONTINUOUS
10
1.08833
20
0.283823
11
1.0929
21
0.287522
0
LINE
8
BLACK
6
CONTINUOUS
10
1.0929
20
0.287522
11
1.0983
21
0.289856
0
LINE
8
BLACK
6
CONTINUOUS
10
1.0983
20
0.289856
11
1.10412
21
0.290654
0
LINE
8
BLACK
6
CONTINUOUS
10
1.10412
20
0.290654
11
1.11199
21
0.290654
0
LINE
8
BLACK
6
CONTINUOUS
10
1.11199
20
0.290654
11
1.11516
21
0.290421
0
LINE
8
BLACK
6
CONTINUOUS
10
1.11516
20
0.340421
11
1.1208
21
0.338781
0
LINE
8
BLACK
6
CONTINUOUS
10
1.1208
20
0.338781
11
1.12579
21
0.335684
0
LINE
8
BLACK
6
CONTINUOUS
10
1.12579
20
0.335684
11
1.12977
21
0.331358
0
LINE
8
BLACK
6
CONTINUOUS
10
1.12977
20
0.331358
11
1.13244
21
0.326121
0
LINE
8
BLACK
6
CONTINUOUS
10
1.13244
20
0.326121
11
1.1336
21
0.32036
0
LINE
8
BLACK
6
CONTINUOUS
10
1.1336
20
0.32036
11
1.13317
21
0.314498
0
LINE
8
BLACK
6
CONTINUOUS
10
1.13317
20
0.314498
11
1.13118
21
0.308968
0
LINE
8
BLACK
6
CONTINUOUS
10
1.13118
20
0.308968
11
1.12778
21
0.304177
0
LINE
8
BLACK
6
CONTINUOUS
10
1.12778
20
0.304177
11
1.12321
21
0.300478
0
LINE
8
BLACK
6
CONTINUOUS
10
1.12321
20
0.300478
11
1.11782
21
0.298144
0
LINE
8
BLACK
6
CONTINUOUS
10
1.11782
20
0.298144
11
1.11199
21
0.297346
0
LINE
8
BLACK
6
CONTINUOUS
10
1.11199
20
0.297346
11
1.10412
21
0.297346
0
LINE
8
BLACK
6
CONTINUOUS
10
1.10412
20
0.297346
11
1.10095
21
0.297579
0
LINE
8
BLACK
6
CONTINUOUS
10
1.10095
20
0.297579
11
1.09531
21
0.299219
0
LINE
8
BLACK
6
CONTINUOUS
10
1.09531
20
0.299219
11
1.09032
21
0.302316
0
LINE
8
BLACK
6
CONTINUOUS
10
1.09032
20
0.302316
11
1.08634
21
0.306642
0
LINE
8
BLACK
6
CONTINUOUS
10
1.08634
20
0.306642
11
1.08367
21
0.311879
0
LINE
8
BLACK
6
CONTINUOUS
10
1.08367
20
0.311879
11
1.08251
21
0.31764
0
LINE
8
BLACK
6
CONTINUOUS
10
1.08251
20
0.31764
11
1.08294
21
0.323502
0
LINE
8
BLACK
6
CONTINUOUS
10
1.08294
20
0.323502
11
1.08493
21
0.329032
0
LINE
8
BLACK
6
CONTINUOUS
10
1.08493
20
0.329032
11
1.08833
21
0.333823
0
LINE
8
BLACK
6
CONTINUOUS
10
1.08833
20
0.333823
11
1.0929
21
0.337522
0
LINE
8
BLACK
6
CONTINUOUS
10
1.0929
20
0.337522
11
1.0983
21
0.339856
0
LINE
8
BLACK
6
CONTINUOUS
10
1.0983
20
0.339856
11
1.10412
21
0.340654
0
LINE
8
BLACK
6
CONTINUOUS
10
1.10412
20
0.340654
11
1.11199
21
0.340654
0
LINE
8
BLACK
6
CONTINUOUS
10
1.11199
20
0.340654
11
1.11516
21
0.340421
0
LINE
8
BLACK
6
CONTINUOUS
10
1.11516
20
0.440421
11
1.1208
21
0.438781
0
LINE
8
BLACK
6
CONTINUOUS
10
1.1208
20
0.438781
11
1.12579
21
0.435684
0
LINE
8
BLACK
6
CONTINUOUS
10
1.12579
20
0.435684
11
1.12977
21
0.431358
0
LINE
8
BLACK
6
CONTINUOUS
10
1.12977
20
0.431358
11
1.13244
21
0.426121
0
LINE
8
BLACK
6
CONTINUOUS
10
1.13244
20
0.426121
11
1.1336
21
0.42036
0
LINE
8
BLACK
6
CONTINUOUS
10
1.1336
20
0.42036
11
1.13317
21
0.414498
0
LINE
8
BLACK
6
CONTINUOUS
10
1.13317
20
0.414498
11
1.13118
21
0.408968
0
LINE
8
BLACK
6
CONTINUOUS
10
1.13118
20
0.408968
11
1.12778
21
0.404177
0
LINE
8
BLACK
6
CONTINUOUS
10
1.12778
20
0.404177
11
1.12321
21
0.400478
0
LINE
8
BLACK
6
CONTINUOUS
10
1.12321
20
0.400478
11
1.11782
21
0.398144
0
LINE
8
BLACK
6
CONTINUOUS
10
1.11782
20
0.398144
11
1.11199
21
0.397346
0
LINE
8
BLACK
6
CONTINUOUS
10
1.11199
20
0.397346
11
1.10412
21
0.397346
0
LINE
8
BLACK
6
CONTINUOUS
10
1.10412
20
0.397346
11
1.10095
21
0.397579
0
LINE
8
BLACK
6
CONTINUOUS
10
1.10095
20
0.397579
11
1.09531
21
0.399219
0
LINE
8
BLACK
6
CONTINUOUS
10
1.09531
20
0.399219
11
1.09032
21
0.402316
0
LINE
8
BLACK
6
CONTINUOUS
10
1.09032
20
0.402316
11
1.08634
21
0.406642
0
LINE
8
BLACK
6
CONTINUOUS
10
1.08634
20
0.406642
11
1.08367
21
0.411879
0
LINE
8
BLACK
6
CONTINUOUS
10
1.08367
20
0.411879
11
1.08251
21
0.41764
0
LINE
8
BLACK
6
CONTINUOUS
10
1.08251
20
0.41764
11
1.08294
21
0.423502
0
LINE
8
BLACK
6
CONTINUOUS
10
1.08294
20
0.423502
11
1.08493
21
0.429032
0
LINE
8
BLACK
6
CONTINUOUS
10
1.08493
20
0.429032
11
1.08833
21
0.433823
0
LINE
8
BLACK
6
CONTINUOUS
10
1.08833
20
0.433823
11
1.0929
21
0.437522
0
LINE
8
BLACK
6
CONTINUOUS
10
1.0929
20
0.437522
11
1.0983
21
0.439856
0
LINE
8
BLACK
6
CONTINUOUS
10
1.0983
20
0.439856
11
1.10412
21
0.440654
0
LINE
8
BLACK
6
CONTINUOUS
10
1.10412
20
0.440654
11
1.11199
21
0.440654
0
LINE
8
BLACK
6
CONTINUOUS
10
1.11199
20
0.440654
11
1.11516
21
0.440421
0
LINE
8
BLACK
6
CONTINUOUS
10
1.11516
20
0.490421
11
1.1208
21
0.488781
0
LINE
8
BLACK
6
CONTINUOUS
10
1.1208
20
0.488781
11
1.12579
21
0.485684
0
LINE
8
BLACK
6
CONTINUOUS
10
1.12579
20
0.485684
11
1.12977
21
0.481358
0
LINE
8
BLACK
6
CONTINUOUS
10
1.12977
20
0.481358
11
1.13244
21
0.476121
0
LINE
8
BLACK
6
CONTINUOUS
10
1.13244
20
0.476121
11
1.1336
21
0.47036
0
LINE
8
BLACK
6
CONTINUOUS
10
1.1336
20
0.47036
11
1.13317
21
0.464498
0
LINE
8
BLACK
6
CONTINUOUS
10
1.13317
20
0.464498
11
1.13118
21
0.458968
0
LINE
8
BLACK
6
CONTINUOUS
10
1.13118
20
0.458968
11
1.12778
21
0.454177
0
LINE
8
BLACK
6
CONTINUOUS
10
1.12778
20
0.454177
11
1.12321
21
0.450478
0
LINE
8
BLACK
6
CONTINUOUS
10
1.12321
20
0.450478
11
1.11782
21
0.448144
0
LINE
8
BLACK
6
CONTINUOUS
10
1.11782
20
0.448144
11
1.11199
21
0.447346
0
LINE
8
BLACK
6
CONTINUOUS
10
1.11199
20
0.447346
11
1.10412
21
0.447346
0
LINE
8
BLACK
6
CONTINUOUS
10
1.10412
20
0.447346
11
1.10095
21
0.447579
0
LINE
8
BLACK
6
CONTINUOUS
10
1.10095
20
0.447579
11
1.09531
21
0.449219
0
LINE
8
BLACK
6
CONTINUOUS
10
1.09531
20
0.449219
11
1.09032
21
0.452316
0
LINE
8
BLACK
6
CONTINUOUS
10
1.09032
20
0.452316
11
1.08634
21
0.456642
0
LINE
8
BLACK
6
CONTINUOUS
10
1.08634
20
0.456642
11
1.08367
21
0.461879
0
LINE
8
BLACK
6
CONTINUOUS
10
1.08367
20
0.461879
11
1.08251
21
0.46764
0
LINE
8
BLACK
6
CONTINUOUS
10
1.08251
20
0.46764
11
1.08294
21
0.473502
0
LINE
8
BLACK
6
CONTINUOUS
10
1.08294
20
0.473502
11
1.08493
21
0.479032
0
LINE
8
BLACK
6
CONTINUOUS
10
1.08493
20
0.479032
11
1.08833
21
0.483823
0
LINE
8
BLACK
6
CONTINUOUS
10
1.08833
20
0.483823
11
1.0929
21
0.487522
0
LINE
8
BLACK
6
CONTINUOUS
10
1.0929
20
0.487522
11
1.0983
21
0.489856
0
LINE
8
BLACK
6
CONTINUOUS
10
1.0983
20
0.489856
11
1.10412
21
0.490654
0
LINE
8
BLACK
6
CONTINUOUS
10
1.10412
20
0.490654
11
1.11199
21
0.490654
0
LINE
8
BLACK
6
CONTINUOUS
10
1.11199
20
0.490654
11
1.11516
21
0.490421
0
LINE
8
BLACK
6
CONTINUOUS
10
1.15597
20
0.675733
11
1.16426
21
0.673512
0
LINE
8
BLACK
6
CONTINUOUS
10
1.16426
20
0.673512
11
1.17203
21
0.669887
0
LINE
8
BLACK
6
CONTINUOUS
10
1.17203
20
0.669887
11
1.17906
21
0.664967
0
LINE
8
BLACK
6
CONTINUOUS
10
1.17906
20
0.664967
11
1.18512
21
0.658901
0
LINE
8
BLACK
6
CONTINUOUS
10
1.18512
20
0.658901
11
1.19004
21
0.651874
0
LINE
8
BLACK
6
CONTINUOUS
10
1.19004
20
0.651874
11
1.19367
21
0.644099
0
LINE
8
BLACK
6
CONTINUOUS
10
1.19367
20
0.644099
11
1.19589
21
0.635813
0
LINE
8
BLACK
6
CONTINUOUS
10
1.19589
20
0.635813
11
1.19664
21
0.627268
0
LINE
8
BLACK
6
CONTINUOUS
10
1.19664
20
0.627268
11
1.19589
21
0.618722
0
LINE
8
BLACK
6
CONTINUOUS
10
1.19589
20
0.618722
11
1.19367
21
0.610436
0
LINE
8
BLACK
6
CONTINUOUS
10
1.19367
20
0.610436
11
1.19004
21
0.602661
0
LINE
8
BLACK
6
CONTINUOUS
10
1.19004
20
0.602661
11
1.18512
21
0.595634
0
LINE
8
BLACK
6
CONTINUOUS
10
1.18512
20
0.595634
11
1.17906
21
0.589569
0
LINE
8
BLACK
6
CONTINUOUS
10
1.17906
20
0.589569
11
1.17203
21
0.584648
0
LINE
8
BLACK
6
CONTINUOUS
10
1.17203
20
0.584648
11
1.16426
21
0.581023
0
LINE
8
BLACK
6
CONTINUOUS
10
1.16426
20
0.581023
11
1.15597
21
0.578803
0
LINE
8
BLACK
6
CONTINUOUS
10
1.15597
20
0.578803
11
1.14743
21
0.578055
0
LINE
8
BLACK
6
CONTINUOUS
10
1.14743
20
0.578055
11
1.13888
21
0.578803
0
LINE
8
BLACK
6
CONTINUOUS
10
1.13888
20
0.578803
11
1.13059
21
0.581023
0
LINE
8
BLACK
6
CONTINUOUS
10
1.13059
20
0.581023
11
1.12282
21
0.584648
0
LINE
8
BLACK
6
CONTINUOUS
10
1.12282
20
0.584648
11
1.11579
21
0.589569
0
LINE
8
BLACK
6
CONTINUOUS
10
1.11579
20
0.589569
11
1.10973
21
0.595634
0
LINE
8
BLACK
6
CONTINUOUS
10
1.10973
20
0.595634
11
1.10481
21
0.602661
0
LINE
8
BLACK
6
CONTINUOUS
10
1.10481
20
0.602661
11
1.10118
21
0.610436
0
LINE
8
BLACK
6
CONTINUOUS
10
1.10118
20
0.610436
11
1.09896
21
0.618722
0
LINE
8
BLACK
6
CONTINUOUS
10
1.09896
20
0.618722
11
1.09821
21
0.627268
0
LINE
8
BLACK
6
CONTINUOUS
10
1.09821
20
0.627268
11
1.09896
21
0.635813
0
LINE
8
BLACK
6
CONTINUOUS
10
1.09896
20
0.635813
11
1.10118
21
0.644099
0
LINE
8
BLACK
6
CONTINUOUS
10
1.10118
20
0.644099
11
1.10481
21
0.651874
0
LINE
8
BLACK
6
CONTINUOUS
10
1.10481
20
0.651874
11
1.10973
21
0.658901
0
LINE
8
BLACK
6
CONTINUOUS
10
1.10973
20
0.658901
11
1.11579
21
0.664967
0
LINE
8
BLACK
6
CONTINUOUS
10
1.11579
20
0.664967
11
1.12282
21
0.669887
0
LINE
8
BLACK
6
CONTINUOUS
10
1.12282
20
0.669887
11
1.13059
21
0.673512
0
LINE
8
BLACK
6
CONTINUOUS
10
1.13059
20
0.673512
11
1.13888
21
0.675733
0
LINE
8
BLACK
6
CONTINUOUS
10
1.13888
20
0.675733
11
1.14743
21
0.67648
0
LINE
8
BLACK
6
CONTINUOUS
10
1.14743
20
0.67648
11
1.15597
21
0.675733
0
LINE
8
BLACK
6
CONTINUOUS
10
0.46
20
0.19
11
0.4
21
0.19
0
LINE
8
BLACK
6
CONTINUOUS
10
0.4
20
0.19
11
0.4
21
0.25
0
LINE
8
BLACK
6
CONTINUOUS
10
0.4
20
0.25
11
0.46
21
0.25
0
LINE
8
BLACK
6
CONTINUOUS
10
0.46
20
0.25
11
0.46
21
0.19
0
LINE
8
BLACK
6
CONTINUOUS
10
0.56
20
0.19
11
0.5
21
0.19
0
LINE
8
BLACK
6
CONTINUOUS
10
0.5
20
0.19
11
0.5
21
0.25
0
LINE
8
BLACK
6
CONTINUOUS
10
0.5
20
0.25
11
0.56
21
0.25
0
LINE
8
BLACK
6
CONTINUOUS
10
0.56
20
0.25
11
0.56
21
0.19
0
LINE
8
BLACK
6
CONTINUOUS
10
0.81
20
0.58
11
0.75
21
0.58
0
LINE
8
BLACK
6
CONTINUOUS
10
0.75
20
0.58
11
0.75
21
0.64
0
LINE
8
BLACK
6
CONTINUOUS
10
0.75
20
0.64
11
0.81
21
0.64
0
LINE
8
BLACK
6
CONTINUOUS
10
0.81
20
0.64
11
0.81
21
0.58
0
LINE
8
BLACK
6
CONTINUOUS
10
0.81
20
0.68
11
0.75
21
0.68
0
LINE
8
BLACK
6
CONTINUOUS
10
0.75
20
0.68
11
0.75
21
0.74
0
LINE
8
BLACK
6
CONTINUOUS
10
0.75
20
0.74
11
0.81
21
0.74
0
LINE
8
BLACK
6
CONTINUOUS
10
0.81
20
0.74
11
0.81
21
0.68
0
LINE
8
BLACK
6
CONTINUOUS
10
0.71
20
0.58
11
0.65
21
0.58
0
LINE
8
BLACK
6
CONTINUOUS
10
0.65
20
0.58
11
0.65
21
0.64
0
LINE
8
BLACK
6
CONTINUOUS
10
0.65
20
0.64
11
0.71
21
0.64
0
LINE
8
BLACK
6
CONTINUOUS
10
0.71
20
0.64
11
0.71
21
0.58
0
LINE
8
BLACK
6
CONTINUOUS
10
0.71
20
0.68
11
0.65
21
0.68
0
LINE
8
BLACK
6
CONTINUOUS
10
0.65
20
0.68
11
0.65
21
0.74
0
LINE
8
BLACK
6
CONTINUOUS
10
0.65
20
0.74
11
0.71
21
0.74
0
LINE
8
BLACK
6
CONTINUOUS
10
0.71
20
0.74
11
0.71
21
0.68
0
CIRCLE
8
BLACK
10
0.875
20
0.44
40
0.00787402
0
CIRCLE
8
BLACK
10
0.8
20
0.14
40
0.00787402
0
CIRCLE
8
BLACK
10
0.615
20
0.475
40
0.00787402
0
CIRCLE
8
BLACK
10
0.615
20
0.435
40
0.00787402
0
CIRCLE
8
BLACK
10
0.875
20
0.52
40
0.00787402
0
CIRCLE
8
BLACK
10
0.845
20
0.14
40
0.00787402
0
CIRCLE
8
BLACK
10
0.615
20
0.515
40
0.00787402
0
CIRCLE
8
BLACK
10
0.875
20
0.48
40
0.00787402
0
CIRCLE
8
BLACK
10
0.885
20
0.14
40
0.00787402
  0
ENDSEC
  0
EOF
