  0
SECTION
  2
HEADER
  9
$ANGBASE
  50
0.0
  9
$ANGDIR
  70
1
  9
$MEASUREMENT
  70
0
  0
ENDSEC
  0
SECTION
  2
TABLES
  0
TABLE
  2
LTYPE
  70
4
  0
LTYPE
  5
40F
  2
CONTINUOUS
  70
0
  3
Solid line
  72
65
  73
0
  40
0.0
  0
LTYPE
  5
410
  2
DASHDOT
 70
0
  3
Dash Dot ____ _ ____ _
 72
65
 73
4
 40
2.0
 49
1.25
 49
-0.25
 49
0.25
 49
-0.25
  0
LTYPE
  5
411
  2
DASHED
 70
0
  3
Dashed __ __ __ __ __
 72
65
 73
2
 40
0.75
 49
0.5
 49
-0.25
  0
LTYPE
  5
43B
  2
DOTTED
 70
0
  3
Dotted .  .  .  .
 72
65
 73
2
 40
0.2
 49
0.0
 49
-0.2
  0
ENDTAB
  0
TABLE
  2
STYLE
  70
4
  0
STYLE
  2
KICAD
  70
0
  40
0
  41
1
  42
1
  50
0
  71
0
  3
isocp.shx
  0
STYLE
  2
KICADB
  70
0
  40
0
  41
1
  42
1
  50
0
  71
0
  3
isocp.shx
  0
STYLE
  2
KICADI
  70
0
  40
0
  41
1
  42
1
  50
15
  71
0
  3
isocp.shx
  0
STYLE
  2
KICADBI
  70
0
  40
0
  41
1
  42
1
  50
15
  71
0
  3
isocp.shx
  0
ENDTAB
  0
TABLE
  2
LAYER
  70
1
  0
LAYER
  2
BLACK
  70
0
  62
7
  6
CONTINUOUS
  0
ENDTAB
  0
ENDSEC
  0
SECTION
  2
ENTITIES
0
LINE
8
BLACK
6
CONTINUOUS
10
0.634002
20
0.056738
11
0.633425
21
0.0581299
0
LINE
8
BLACK
6
CONTINUOUS
10
0.633425
20
0.0581299
11
0.633425
21
0.13687
0
LINE
8
BLACK
6
CONTINUOUS
10
0.633425
20
0.13687
11
0.634002
21
0.138262
0
LINE
8
BLACK
6
CONTINUOUS
10
0.634002
20
0.138262
11
0.635394
21
0.138839
0
LINE
8
BLACK
6
CONTINUOUS
10
0.635394
20
0.138839
11
0.684606
21
0.138839
0
LINE
8
BLACK
6
CONTINUOUS
10
0.684606
20
0.138839
11
0.685998
21
0.138262
0
LINE
8
BLACK
6
CONTINUOUS
10
0.685998
20
0.138262
11
0.686575
21
0.13687
0
LINE
8
BLACK
6
CONTINUOUS
10
0.686575
20
0.13687
11
0.686575
21
0.0581299
0
LINE
8
BLACK
6
CONTINUOUS
10
0.686575
20
0.0581299
11
0.685998
21
0.056738
0
LINE
8
BLACK
6
CONTINUOUS
10
0.685998
20
0.056738
11
0.684606
21
0.0561614
0
LINE
8
BLACK
6
CONTINUOUS
10
0.684606
20
0.0561614
11
0.635394
21
0.0561614
0
LINE
8
BLACK
6
CONTINUOUS
10
0.635394
20
0.0561614
11
0.634002
21
0.056738
0
LINE
8
BLACK
6
CONTINUOUS
10
0.637362
20
0.134902
11
0.637362
21
0.0600984
0
LINE
8
BLACK
6
CONTINUOUS
10
0.637362
20
0.0600984
11
0.682638
21
0.0600984
0
LINE
8
BLACK
6
CONTINUOUS
10
0.682638
20
0.0600984
11
0.682638
21
0.134902
0
LINE
8
BLACK
6
CONTINUOUS
10
0.682638
20
0.134902
11
0.637362
21
0.134902
0
LINE
8
BLACK
6
CONTINUOUS
10
0.670019
20
0.0953328
11
0.67048
21
0.0942192
0
LINE
8
BLACK
6
CONTINUOUS
10
0.67048
20
0.0942192
11
0.67048
21
0.0820332
0
LINE
8
BLACK
6
CONTINUOUS
10
0.67048
20
0.0820332
11
0.670019
21
0.0809196
0
LINE
8
BLACK
6
CONTINUOUS
10
0.670019
20
0.0809196
11
0.668905
21
0.0804584
0
LINE
8
BLACK
6
CONTINUOUS
10
0.668905
20
0.0804584
11
0.667792
21
0.0809196
0
LINE
8
BLACK
6
CONTINUOUS
10
0.667792
20
0.0809196
11
0.66733
21
0.0820332
0
LINE
8
BLACK
6
CONTINUOUS
10
0.66733
20
0.0820332
11
0.66733
21
0.0904172
0
LINE
8
BLACK
6
CONTINUOUS
10
0.66733
20
0.0904172
11
0.65877
21
0.081857
0
LINE
8
BLACK
6
CONTINUOUS
10
0.65877
20
0.081857
11
0.658431
21
0.0817168
0
LINE
8
BLACK
6
CONTINUOUS
10
0.658431
20
0.0817168
11
0.658155
21
0.0814766
0
LINE
8
BLACK
6
CONTINUOUS
10
0.658155
20
0.0814766
11
0.655342
21
0.0805392
0
LINE
8
BLACK
6
CONTINUOUS
10
0.655342
20
0.0805392
11
0.655084
21
0.0805576
0
LINE
8
BLACK
6
CONTINUOUS
10
0.655084
20
0.0805576
11
0.654844
21
0.0804584
0
LINE
8
BLACK
6
CONTINUOUS
10
0.654844
20
0.0804584
11
0.65297
21
0.0804584
0
LINE
8
BLACK
6
CONTINUOUS
10
0.65297
20
0.0804584
11
0.652631
21
0.0805987
0
LINE
8
BLACK
6
CONTINUOUS
10
0.652631
20
0.0805987
11
0.652265
21
0.0806246
0
LINE
8
BLACK
6
CONTINUOUS
10
0.652265
20
0.0806246
11
0.650391
21
0.081562
0
LINE
8
BLACK
6
CONTINUOUS
10
0.650391
20
0.081562
11
0.650221
21
0.0817579
0
LINE
8
BLACK
6
CONTINUOUS
10
0.650221
20
0.0817579
11
0.649981
21
0.081857
0
LINE
8
BLACK
6
CONTINUOUS
10
0.649981
20
0.081857
11
0.649044
21
0.0827944
0
LINE
8
BLACK
6
CONTINUOUS
10
0.649044
20
0.0827944
11
0.648945
21
0.0830338
0
LINE
8
BLACK
6
CONTINUOUS
10
0.648945
20
0.0830338
11
0.648749
21
0.0832037
0
LINE
8
BLACK
6
CONTINUOUS
10
0.648749
20
0.0832037
11
0.647812
21
0.0850784
0
LINE
8
BLACK
6
CONTINUOUS
10
0.647812
20
0.0850784
11
0.647786
21
0.0854441
0
LINE
8
BLACK
6
CONTINUOUS
10
0.647786
20
0.0854441
11
0.647645
21
0.0857827
0
LINE
8
BLACK
6
CONTINUOUS
10
0.647645
20
0.0857827
11
0.647645
21
0.0904696
0
LINE
8
BLACK
6
CONTINUOUS
10
0.647645
20
0.0904696
11
0.647786
21
0.0908083
0
LINE
8
BLACK
6
CONTINUOUS
10
0.647786
20
0.0908083
11
0.647812
21
0.0911739
0
LINE
8
BLACK
6
CONTINUOUS
10
0.647812
20
0.0911739
11
0.648749
21
0.0930487
0
LINE
8
BLACK
6
CONTINUOUS
10
0.648749
20
0.0930487
11
0.648945
21
0.0932185
0
LINE
8
BLACK
6
CONTINUOUS
10
0.648945
20
0.0932185
11
0.649044
21
0.093458
0
LINE
8
BLACK
6
CONTINUOUS
10
0.649044
20
0.093458
11
0.649981
21
0.0943954
0
LINE
8
BLACK
6
CONTINUOUS
10
0.649981
20
0.0943954
11
0.651095
21
0.0948566
0
LINE
8
BLACK
6
CONTINUOUS
10
0.651095
20
0.0948566
11
0.652208
21
0.0943954
0
LINE
8
BLACK
6
CONTINUOUS
10
0.652208
20
0.0943954
11
0.65267
21
0.0932819
0
LINE
8
BLACK
6
CONTINUOUS
10
0.65267
20
0.0932819
11
0.652208
21
0.0921683
0
LINE
8
BLACK
6
CONTINUOUS
10
0.652208
20
0.0921683
11
0.651452
21
0.0914116
0
LINE
8
BLACK
6
CONTINUOUS
10
0.651452
20
0.0914116
11
0.650795
21
0.0900979
0
LINE
8
BLACK
6
CONTINUOUS
10
0.650795
20
0.0900979
11
0.650795
21
0.0861545
0
LINE
8
BLACK
6
CONTINUOUS
10
0.650795
20
0.0861545
11
0.651452
21
0.0848407
0
LINE
8
BLACK
6
CONTINUOUS
10
0.651452
20
0.0848407
11
0.652028
21
0.0842649
0
LINE
8
BLACK
6
CONTINUOUS
10
0.652028
20
0.0842649
11
0.653341
21
0.083608
0
LINE
8
BLACK
6
CONTINUOUS
10
0.653341
20
0.083608
11
0.654589
21
0.083608
0
LINE
8
BLACK
6
CONTINUOUS
10
0.654589
20
0.083608
11
0.656806
21
0.084347
0
LINE
8
BLACK
6
CONTINUOUS
10
0.656806
20
0.084347
11
0.667792
21
0.0953328
0
LINE
8
BLACK
6
CONTINUOUS
10
0.667792
20
0.0953328
11
0.668905
21
0.095794
0
LINE
8
BLACK
6
CONTINUOUS
10
0.668905
20
0.095794
11
0.670019
21
0.0953328
0
LINE
8
BLACK
6
CONTINUOUS
10
0.660653
20
0.114465
11
0.660851
21
0.114495
0
LINE
8
BLACK
6
CONTINUOUS
10
0.660851
20
0.114495
11
0.6646
21
0.113557
0
LINE
8
BLACK
6
CONTINUOUS
10
0.6646
20
0.113557
11
0.664744
21
0.113451
0
LINE
8
BLACK
6
CONTINUOUS
10
0.664744
20
0.113451
11
0.664922
21
0.113438
0
LINE
8
BLACK
6
CONTINUOUS
10
0.664922
20
0.113438
11
0.666797
21
0.112501
0
LINE
8
BLACK
6
CONTINUOUS
10
0.666797
20
0.112501
11
0.666967
21
0.112305
0
LINE
8
BLACK
6
CONTINUOUS
10
0.666967
20
0.112305
11
0.667206
21
0.112206
0
LINE
8
BLACK
6
CONTINUOUS
10
0.667206
20
0.112206
11
0.669081
21
0.110331
0
LINE
8
BLACK
6
CONTINUOUS
10
0.669081
20
0.110331
11
0.669222
21
0.109992
0
LINE
8
BLACK
6
CONTINUOUS
10
0.669222
20
0.109992
11
0.669462
21
0.109715
0
LINE
8
BLACK
6
CONTINUOUS
10
0.669462
20
0.109715
11
0.670399
21
0.106903
0
LINE
8
BLACK
6
CONTINUOUS
10
0.670399
20
0.106903
11
0.670381
21
0.106645
0
LINE
8
BLACK
6
CONTINUOUS
10
0.670381
20
0.106645
11
0.67048
21
0.106405
0
LINE
8
BLACK
6
CONTINUOUS
10
0.67048
20
0.106405
11
0.67048
21
0.10453
0
LINE
8
BLACK
6
CONTINUOUS
10
0.67048
20
0.10453
11
0.670381
21
0.104291
0
LINE
8
BLACK
6
CONTINUOUS
10
0.670381
20
0.104291
11
0.670399
21
0.104032
0
LINE
8
BLACK
6
CONTINUOUS
10
0.670399
20
0.104032
11
0.669462
21
0.10122
0
LINE
8
BLACK
6
CONTINUOUS
10
0.669462
20
0.10122
11
0.669222
21
0.100943
0
LINE
8
BLACK
6
CONTINUOUS
10
0.669222
20
0.100943
11
0.669081
21
0.100605
0
LINE
8
BLACK
6
CONTINUOUS
10
0.669081
20
0.100605
11
0.668144
21
0.0996673
0
LINE
8
BLACK
6
CONTINUOUS
10
0.668144
20
0.0996673
11
0.66703
21
0.0992061
0
LINE
8
BLACK
6
CONTINUOUS
10
0.66703
20
0.0992061
11
0.665917
21
0.0996673
0
LINE
8
BLACK
6
CONTINUOUS
10
0.665917
20
0.0996673
11
0.665456
21
0.100781
0
LINE
8
BLACK
6
CONTINUOUS
10
0.665456
20
0.100781
11
0.665917
21
0.101894
0
LINE
8
BLACK
6
CONTINUOUS
10
0.665917
20
0.101894
11
0.666591
21
0.102569
0
LINE
8
BLACK
6
CONTINUOUS
10
0.666591
20
0.102569
11
0.66733
21
0.104786
0
LINE
8
BLACK
6
CONTINUOUS
10
0.66733
20
0.104786
11
0.66733
21
0.10615
0
LINE
8
BLACK
6
CONTINUOUS
10
0.66733
20
0.10615
11
0.666591
21
0.108367
0
LINE
8
BLACK
6
CONTINUOUS
10
0.666591
20
0.108367
11
0.66516
21
0.109798
0
LINE
8
BLACK
6
CONTINUOUS
10
0.66516
20
0.109798
11
0.663669
21
0.110544
0
LINE
8
BLACK
6
CONTINUOUS
10
0.663669
20
0.110544
11
0.660275
21
0.111392
0
LINE
8
BLACK
6
CONTINUOUS
10
0.660275
20
0.111392
11
0.65785
21
0.111392
0
LINE
8
BLACK
6
CONTINUOUS
10
0.65785
20
0.111392
11
0.654457
21
0.110544
0
LINE
8
BLACK
6
CONTINUOUS
10
0.654457
20
0.110544
11
0.652965
21
0.109798
0
LINE
8
BLACK
6
CONTINUOUS
10
0.652965
20
0.109798
11
0.651534
21
0.108367
0
LINE
8
BLACK
6
CONTINUOUS
10
0.651534
20
0.108367
11
0.650795
21
0.10615
0
LINE
8
BLACK
6
CONTINUOUS
10
0.650795
20
0.10615
11
0.650795
21
0.104786
0
LINE
8
BLACK
6
CONTINUOUS
10
0.650795
20
0.104786
11
0.651534
21
0.102569
0
LINE
8
BLACK
6
CONTINUOUS
10
0.651534
20
0.102569
11
0.652208
21
0.101894
0
LINE
8
BLACK
6
CONTINUOUS
10
0.652208
20
0.101894
11
0.65267
21
0.100781
0
LINE
8
BLACK
6
CONTINUOUS
10
0.65267
20
0.100781
11
0.652208
21
0.0996673
0
LINE
8
BLACK
6
CONTINUOUS
10
0.652208
20
0.0996673
11
0.651095
21
0.0992061
0
LINE
8
BLACK
6
CONTINUOUS
10
0.651095
20
0.0992061
11
0.649981
21
0.0996673
0
LINE
8
BLACK
6
CONTINUOUS
10
0.649981
20
0.0996673
11
0.649044
21
0.100605
0
LINE
8
BLACK
6
CONTINUOUS
10
0.649044
20
0.100605
11
0.648904
21
0.100943
0
LINE
8
BLACK
6
CONTINUOUS
10
0.648904
20
0.100943
11
0.648664
21
0.10122
0
LINE
8
BLACK
6
CONTINUOUS
10
0.648664
20
0.10122
11
0.647726
21
0.104032
0
LINE
8
BLACK
6
CONTINUOUS
10
0.647726
20
0.104032
11
0.647744
21
0.104291
0
LINE
8
BLACK
6
CONTINUOUS
10
0.647744
20
0.104291
11
0.647645
21
0.10453
0
LINE
8
BLACK
6
CONTINUOUS
10
0.647645
20
0.10453
11
0.647645
21
0.106405
0
LINE
8
BLACK
6
CONTINUOUS
10
0.647645
20
0.106405
11
0.647744
21
0.106645
0
LINE
8
BLACK
6
CONTINUOUS
10
0.647744
20
0.106645
11
0.647726
21
0.106903
0
LINE
8
BLACK
6
CONTINUOUS
10
0.647726
20
0.106903
11
0.648664
21
0.109715
0
LINE
8
BLACK
6
CONTINUOUS
10
0.648664
20
0.109715
11
0.648904
21
0.109992
0
LINE
8
BLACK
6
CONTINUOUS
10
0.648904
20
0.109992
11
0.649044
21
0.110331
0
LINE
8
BLACK
6
CONTINUOUS
10
0.649044
20
0.110331
11
0.650919
21
0.112206
0
LINE
8
BLACK
6
CONTINUOUS
10
0.650919
20
0.112206
11
0.651158
21
0.112305
0
LINE
8
BLACK
6
CONTINUOUS
10
0.651158
20
0.112305
11
0.651328
21
0.112501
0
LINE
8
BLACK
6
CONTINUOUS
10
0.651328
20
0.112501
11
0.653203
21
0.113438
0
LINE
8
BLACK
6
CONTINUOUS
10
0.653203
20
0.113438
11
0.653381
21
0.113451
0
LINE
8
BLACK
6
CONTINUOUS
10
0.653381
20
0.113451
11
0.653525
21
0.113557
0
LINE
8
BLACK
6
CONTINUOUS
10
0.653525
20
0.113557
11
0.657275
21
0.114495
0
LINE
8
BLACK
6
CONTINUOUS
10
0.657275
20
0.114495
11
0.657472
21
0.114465
0
LINE
8
BLACK
6
CONTINUOUS
10
0.657472
20
0.114465
11
0.657657
21
0.114542
0
LINE
8
BLACK
6
CONTINUOUS
10
0.657657
20
0.114542
11
0.660469
21
0.114542
0
LINE
8
BLACK
6
CONTINUOUS
10
0.660469
20
0.114542
11
0.660653
21
0.114465
0
LINE
8
BLACK
6
CONTINUOUS
10
0.700222
20
0.182151
11
0.661836
21
0.220537
0
LINE
8
BLACK
6
CONTINUOUS
10
0.661836
20
0.220537
11
0.66126
21
0.221929
0
LINE
8
BLACK
6
CONTINUOUS
10
0.66126
20
0.221929
11
0.66126
21
0.376457
0
LINE
8
BLACK
6
CONTINUOUS
10
0.66126
20
0.376457
11
0.661836
21
0.377849
0
LINE
8
BLACK
6
CONTINUOUS
10
0.661836
20
0.377849
11
0.663228
21
0.378425
0
LINE
8
BLACK
6
CONTINUOUS
10
0.663228
20
0.378425
11
0.816772
21
0.378425
0
LINE
8
BLACK
6
CONTINUOUS
10
0.816772
20
0.378425
11
0.818164
21
0.377849
0
LINE
8
BLACK
6
CONTINUOUS
10
0.818164
20
0.377849
11
0.81874
21
0.376457
0
LINE
8
BLACK
6
CONTINUOUS
10
0.81874
20
0.376457
11
0.81874
21
0.183543
0
LINE
8
BLACK
6
CONTINUOUS
10
0.81874
20
0.183543
11
0.818164
21
0.182151
0
LINE
8
BLACK
6
CONTINUOUS
10
0.818164
20
0.182151
11
0.816772
21
0.181575
0
LINE
8
BLACK
6
CONTINUOUS
10
0.816772
20
0.181575
11
0.701614
21
0.181575
0
LINE
8
BLACK
6
CONTINUOUS
10
0.701614
20
0.181575
11
0.700222
21
0.182151
0
LINE
8
BLACK
6
CONTINUOUS
10
0.665197
20
0.374488
11
0.665197
21
0.222744
0
LINE
8
BLACK
6
CONTINUOUS
10
0.665197
20
0.222744
11
0.70243
21
0.185512
0
LINE
8
BLACK
6
CONTINUOUS
10
0.70243
20
0.185512
11
0.814803
21
0.185512
0
LINE
8
BLACK
6
CONTINUOUS
10
0.814803
20
0.185512
11
0.814803
21
0.374488
0
LINE
8
BLACK
6
CONTINUOUS
10
0.814803
20
0.374488
11
0.665197
21
0.374488
0
LINE
8
BLACK
6
CONTINUOUS
10
0.720037
20
0.304383
11
0.720207
21
0.304394
0
LINE
8
BLACK
6
CONTINUOUS
10
0.720207
20
0.304394
11
0.720897
21
0.303886
0
LINE
8
BLACK
6
CONTINUOUS
10
0.720897
20
0.303886
11
0.721639
21
0.303458
0
LINE
8
BLACK
6
CONTINUOUS
10
0.721639
20
0.303458
11
0.721698
21
0.303298
0
LINE
8
BLACK
6
CONTINUOUS
10
0.721698
20
0.303298
11
0.721834
21
0.303198
0
LINE
8
BLACK
6
CONTINUOUS
10
0.721834
20
0.303198
11
0.725422
21
0.297817
0
LINE
8
BLACK
6
CONTINUOUS
10
0.725422
20
0.297817
11
0.728626
21
0.294613
0
LINE
8
BLACK
6
CONTINUOUS
10
0.728626
20
0.294613
11
0.731947
21
0.292952
0
LINE
8
BLACK
6
CONTINUOUS
10
0.731947
20
0.292952
11
0.73277
21
0.292341
0
LINE
8
BLACK
6
CONTINUOUS
10
0.73277
20
0.292341
11
0.733574
21
0.290488
0
LINE
8
BLACK
6
CONTINUOUS
10
0.733574
20
0.290488
11
0.732998
21
0.288552
0
LINE
8
BLACK
6
CONTINUOUS
10
0.732998
20
0.288552
11
0.731312
21
0.287439
0
LINE
8
BLACK
6
CONTINUOUS
10
0.731312
20
0.287439
11
0.729306
21
0.28767
0
LINE
8
BLACK
6
CONTINUOUS
10
0.729306
20
0.28767
11
0.725556
21
0.289545
0
LINE
8
BLACK
6
CONTINUOUS
10
0.725556
20
0.289545
11
0.724847
21
0.290071
0
LINE
8
BLACK
6
CONTINUOUS
10
0.724847
20
0.290071
11
0.724789
21
0.290098
0
LINE
8
BLACK
6
CONTINUOUS
10
0.724789
20
0.290098
11
0.72233
21
0.292556
0
LINE
8
BLACK
6
CONTINUOUS
10
0.72233
20
0.292556
11
0.72233
21
0.265143
0
LINE
8
BLACK
6
CONTINUOUS
10
0.72233
20
0.265143
11
0.730626
21
0.265143
0
LINE
8
BLACK
6
CONTINUOUS
10
0.730626
20
0.265143
11
0.731636
21
0.264964
0
LINE
8
BLACK
6
CONTINUOUS
10
0.731636
20
0.264964
11
0.733183
21
0.263666
0
LINE
8
BLACK
6
CONTINUOUS
10
0.733183
20
0.263666
11
0.733534
21
0.261677
0
LINE
8
BLACK
6
CONTINUOUS
10
0.733534
20
0.261677
11
0.732524
21
0.259928
0
LINE
8
BLACK
6
CONTINUOUS
10
0.732524
20
0.259928
11
0.730626
21
0.259237
0
LINE
8
BLACK
6
CONTINUOUS
10
0.730626
20
0.259237
11
0.708129
21
0.259237
0
LINE
8
BLACK
6
CONTINUOUS
10
0.708129
20
0.259237
11
0.707119
21
0.259415
0
LINE
8
BLACK
6
CONTINUOUS
10
0.707119
20
0.259415
11
0.705572
21
0.260713
0
LINE
8
BLACK
6
CONTINUOUS
10
0.705572
20
0.260713
11
0.705221
21
0.262703
0
LINE
8
BLACK
6
CONTINUOUS
10
0.705221
20
0.262703
11
0.706231
21
0.264452
0
LINE
8
BLACK
6
CONTINUOUS
10
0.706231
20
0.264452
11
0.708129
21
0.265143
0
LINE
8
BLACK
6
CONTINUOUS
10
0.708129
20
0.265143
11
0.716425
21
0.265143
0
LINE
8
BLACK
6
CONTINUOUS
10
0.716425
20
0.265143
11
0.716425
21
0.30156
0
LINE
8
BLACK
6
CONTINUOUS
10
0.716425
20
0.30156
11
0.716603
21
0.30257
0
LINE
8
BLACK
6
CONTINUOUS
10
0.716603
20
0.30257
11
0.716712
21
0.3027
0
LINE
8
BLACK
6
CONTINUOUS
10
0.716712
20
0.3027
11
0.716731
21
0.302869
0
LINE
8
BLACK
6
CONTINUOUS
10
0.716731
20
0.302869
11
0.71735
21
0.303461
0
LINE
8
BLACK
6
CONTINUOUS
10
0.71735
20
0.303461
11
0.717901
21
0.304117
0
LINE
8
BLACK
6
CONTINUOUS
10
0.717901
20
0.304117
11
0.718068
21
0.304146
0
LINE
8
BLACK
6
CONTINUOUS
10
0.718068
20
0.304146
11
0.718191
21
0.304264
0
LINE
8
BLACK
6
CONTINUOUS
10
0.718191
20
0.304264
11
0.719046
21
0.304319
0
LINE
8
BLACK
6
CONTINUOUS
10
0.719046
20
0.304319
11
0.71989
21
0.304468
0
LINE
8
BLACK
6
CONTINUOUS
10
0.71989
20
0.304468
11
0.720037
21
0.304383
0
LINE
8
BLACK
6
CONTINUOUS
10
0.772258
20
0.303458
11
0.772949
21
0.30156
0
LINE
8
BLACK
6
CONTINUOUS
10
0.772949
20
0.30156
11
0.772949
21
0.269689
0
LINE
8
BLACK
6
CONTINUOUS
10
0.772949
20
0.269689
11
0.772771
21
0.268679
0
LINE
8
BLACK
6
CONTINUOUS
10
0.772771
20
0.268679
11
0.772657
21
0.268544
0
LINE
8
BLACK
6
CONTINUOUS
10
0.772657
20
0.268544
11
0.772637
21
0.268368
0
LINE
8
BLACK
6
CONTINUOUS
10
0.772637
20
0.268368
11
0.770762
21
0.264619
0
LINE
8
BLACK
6
CONTINUOUS
10
0.770762
20
0.264619
11
0.770237
21
0.26391
0
LINE
8
BLACK
6
CONTINUOUS
10
0.770237
20
0.26391
11
0.770209
21
0.263851
0
LINE
8
BLACK
6
CONTINUOUS
10
0.770209
20
0.263851
11
0.768335
21
0.261977
0
LINE
8
BLACK
6
CONTINUOUS
10
0.768335
20
0.261977
11
0.767612
21
0.26147
0
LINE
8
BLACK
6
CONTINUOUS
10
0.767612
20
0.26147
11
0.767567
21
0.261424
0
LINE
8
BLACK
6
CONTINUOUS
10
0.767567
20
0.261424
11
0.763818
21
0.259549
0
LINE
8
BLACK
6
CONTINUOUS
10
0.763818
20
0.259549
11
0.762835
21
0.259256
0
LINE
8
BLACK
6
CONTINUOUS
10
0.762835
20
0.259256
11
0.762663
21
0.259297
0
LINE
8
BLACK
6
CONTINUOUS
10
0.762663
20
0.259297
11
0.762497
21
0.259237
0
LINE
8
BLACK
6
CONTINUOUS
10
0.762497
20
0.259237
11
0.754998
21
0.259237
0
LINE
8
BLACK
6
CONTINUOUS
10
0.754998
20
0.259237
11
0.753988
21
0.259415
0
LINE
8
BLACK
6
CONTINUOUS
10
0.753988
20
0.259415
11
0.753853
21
0.259529
0
LINE
8
BLACK
6
CONTINUOUS
10
0.753853
20
0.259529
11
0.753678
21
0.259549
0
LINE
8
BLACK
6
CONTINUOUS
10
0.753678
20
0.259549
11
0.749928
21
0.261424
0
LINE
8
BLACK
6
CONTINUOUS
10
0.749928
20
0.261424
11
0.749219
21
0.261949
0
LINE
8
BLACK
6
CONTINUOUS
10
0.749219
20
0.261949
11
0.749161
21
0.261977
0
LINE
8
BLACK
6
CONTINUOUS
10
0.749161
20
0.261977
11
0.747286
21
0.263851
0
LINE
8
BLACK
6
CONTINUOUS
10
0.747286
20
0.263851
11
0.74678
21
0.264574
0
LINE
8
BLACK
6
CONTINUOUS
10
0.74678
20
0.264574
11
0.746733
21
0.264619
0
LINE
8
BLACK
6
CONTINUOUS
10
0.746733
20
0.264619
11
0.744858
21
0.268368
0
LINE
8
BLACK
6
CONTINUOUS
10
0.744858
20
0.268368
11
0.744566
21
0.269351
0
LINE
8
BLACK
6
CONTINUOUS
10
0.744566
20
0.269351
11
0.744607
21
0.269523
0
LINE
8
BLACK
6
CONTINUOUS
10
0.744607
20
0.269523
11
0.744546
21
0.269689
0
LINE
8
BLACK
6
CONTINUOUS
10
0.744546
20
0.269689
11
0.744546
21
0.30156
0
LINE
8
BLACK
6
CONTINUOUS
10
0.744546
20
0.30156
11
0.744724
21
0.30257
0
LINE
8
BLACK
6
CONTINUOUS
10
0.744724
20
0.30257
11
0.746023
21
0.304117
0
LINE
8
BLACK
6
CONTINUOUS
10
0.746023
20
0.304117
11
0.748012
21
0.304468
0
LINE
8
BLACK
6
CONTINUOUS
10
0.748012
20
0.304468
11
0.749761
21
0.303458
0
LINE
8
BLACK
6
CONTINUOUS
10
0.749761
20
0.303458
11
0.750452
21
0.30156
0
LINE
8
BLACK
6
CONTINUOUS
10
0.750452
20
0.30156
11
0.750452
21
0.270386
0
LINE
8
BLACK
6
CONTINUOUS
10
0.750452
20
0.270386
11
0.751801
21
0.267688
0
LINE
8
BLACK
6
CONTINUOUS
10
0.751801
20
0.267688
11
0.752998
21
0.266491
0
LINE
8
BLACK
6
CONTINUOUS
10
0.752998
20
0.266491
11
0.755695
21
0.265143
0
LINE
8
BLACK
6
CONTINUOUS
10
0.755695
20
0.265143
11
0.7618
21
0.265143
0
LINE
8
BLACK
6
CONTINUOUS
10
0.7618
20
0.265143
11
0.764498
21
0.266491
0
LINE
8
BLACK
6
CONTINUOUS
10
0.764498
20
0.266491
11
0.765695
21
0.267688
0
LINE
8
BLACK
6
CONTINUOUS
10
0.765695
20
0.267688
11
0.767043
21
0.270386
0
LINE
8
BLACK
6
CONTINUOUS
10
0.767043
20
0.270386
11
0.767043
21
0.30156
0
LINE
8
BLACK
6
CONTINUOUS
10
0.767043
20
0.30156
11
0.767222
21
0.30257
0
LINE
8
BLACK
6
CONTINUOUS
10
0.767222
20
0.30257
11
0.76852
21
0.304117
0
LINE
8
BLACK
6
CONTINUOUS
10
0.76852
20
0.304117
11
0.770509
21
0.304468
0
LINE
8
BLACK
6
CONTINUOUS
10
0.770509
20
0.304468
11
0.772258
21
0.303458
0
LINE
8
BLACK
6
CONTINUOUS
10
0.921502
20
0.189238
11
0.920925
21
0.19063
0
LINE
8
BLACK
6
CONTINUOUS
10
0.920925
20
0.19063
11
0.920925
21
0.26937
0
LINE
8
BLACK
6
CONTINUOUS
10
0.920925
20
0.26937
11
0.921502
21
0.270762
0
LINE
8
BLACK
6
CONTINUOUS
10
0.921502
20
0.270762
11
0.922894
21
0.271339
0
LINE
8
BLACK
6
CONTINUOUS
10
0.922894
20
0.271339
11
0.972106
21
0.271339
0
LINE
8
BLACK
6
CONTINUOUS
10
0.972106
20
0.271339
11
0.973498
21
0.270762
0
LINE
8
BLACK
6
CONTINUOUS
10
0.973498
20
0.270762
11
0.974075
21
0.26937
0
LINE
8
BLACK
6
CONTINUOUS
10
0.974075
20
0.26937
11
0.974075
21
0.19063
0
LINE
8
BLACK
6
CONTINUOUS
10
0.974075
20
0.19063
11
0.973498
21
0.189238
0
LINE
8
BLACK
6
CONTINUOUS
10
0.973498
20
0.189238
11
0.972106
21
0.188661
0
LINE
8
BLACK
6
CONTINUOUS
10
0.972106
20
0.188661
11
0.922894
21
0.188661
0
LINE
8
BLACK
6
CONTINUOUS
10
0.922894
20
0.188661
11
0.921502
21
0.189238
0
LINE
8
BLACK
6
CONTINUOUS
10
0.924862
20
0.267402
11
0.924862
21
0.192598
0
LINE
8
BLACK
6
CONTINUOUS
10
0.924862
20
0.192598
11
0.970138
21
0.192598
0
LINE
8
BLACK
6
CONTINUOUS
10
0.970138
20
0.192598
11
0.970138
21
0.267402
0
LINE
8
BLACK
6
CONTINUOUS
10
0.970138
20
0.267402
11
0.924862
21
0.267402
0
LINE
8
BLACK
6
CONTINUOUS
10
0.955644
20
0.227833
11
0.956581
21
0.226895
0
LINE
8
BLACK
6
CONTINUOUS
10
0.956581
20
0.226895
11
0.95668
21
0.226656
0
LINE
8
BLACK
6
CONTINUOUS
10
0.95668
20
0.226656
11
0.956876
21
0.226486
0
LINE
8
BLACK
6
CONTINUOUS
10
0.956876
20
0.226486
11
0.957814
21
0.224611
0
LINE
8
BLACK
6
CONTINUOUS
10
0.957814
20
0.224611
11
0.95784
21
0.224246
0
LINE
8
BLACK
6
CONTINUOUS
10
0.95784
20
0.224246
11
0.95798
21
0.223907
0
LINE
8
BLACK
6
CONTINUOUS
10
0.95798
20
0.223907
11
0.95798
21
0.218283
0
LINE
8
BLACK
6
CONTINUOUS
10
0.95798
20
0.218283
11
0.95784
21
0.217944
0
LINE
8
BLACK
6
CONTINUOUS
10
0.95784
20
0.217944
11
0.957814
21
0.217578
0
LINE
8
BLACK
6
CONTINUOUS
10
0.957814
20
0.217578
11
0.956876
21
0.215704
0
LINE
8
BLACK
6
CONTINUOUS
10
0.956876
20
0.215704
11
0.95668
21
0.215534
0
LINE
8
BLACK
6
CONTINUOUS
10
0.95668
20
0.215534
11
0.956581
21
0.215294
0
LINE
8
BLACK
6
CONTINUOUS
10
0.956581
20
0.215294
11
0.955644
21
0.214357
0
LINE
8
BLACK
6
CONTINUOUS
10
0.955644
20
0.214357
11
0.955404
21
0.214258
0
LINE
8
BLACK
6
CONTINUOUS
10
0.955404
20
0.214258
11
0.955235
21
0.214062
0
LINE
8
BLACK
6
CONTINUOUS
10
0.955235
20
0.214062
11
0.95336
21
0.213125
0
LINE
8
BLACK
6
CONTINUOUS
10
0.95336
20
0.213125
11
0.952994
21
0.213099
0
LINE
8
BLACK
6
CONTINUOUS
10
0.952994
20
0.213099
11
0.952656
21
0.212958
0
LINE
8
BLACK
6
CONTINUOUS
10
0.952656
20
0.212958
11
0.947969
21
0.212958
0
LINE
8
BLACK
6
CONTINUOUS
10
0.947969
20
0.212958
11
0.94763
21
0.213099
0
LINE
8
BLACK
6
CONTINUOUS
10
0.94763
20
0.213099
11
0.947264
21
0.213125
0
LINE
8
BLACK
6
CONTINUOUS
10
0.947264
20
0.213125
11
0.94539
21
0.214062
0
LINE
8
BLACK
6
CONTINUOUS
10
0.94539
20
0.214062
11
0.94522
21
0.214258
0
LINE
8
BLACK
6
CONTINUOUS
10
0.94522
20
0.214258
11
0.94498
21
0.214357
0
LINE
8
BLACK
6
CONTINUOUS
10
0.94498
20
0.214357
11
0.944043
21
0.215294
0
LINE
8
BLACK
6
CONTINUOUS
10
0.944043
20
0.215294
11
0.943944
21
0.215534
0
LINE
8
BLACK
6
CONTINUOUS
10
0.943944
20
0.215534
11
0.943748
21
0.215704
0
LINE
8
BLACK
6
CONTINUOUS
10
0.943748
20
0.215704
11
0.942811
21
0.217578
0
LINE
8
BLACK
6
CONTINUOUS
10
0.942811
20
0.217578
11
0.942798
21
0.217759
0
LINE
8
BLACK
6
CONTINUOUS
10
0.942798
20
0.217759
11
0.937757
21
0.213348
0
LINE
8
BLACK
6
CONTINUOUS
10
0.937757
20
0.213348
11
0.937232
21
0.213171
0
LINE
8
BLACK
6
CONTINUOUS
10
0.937232
20
0.213171
11
0.93672
21
0.212958
0
LINE
8
BLACK
6
CONTINUOUS
10
0.93672
20
0.212958
11
0.936668
21
0.21298
0
LINE
8
BLACK
6
CONTINUOUS
10
0.936668
20
0.21298
11
0.936615
21
0.212962
0
LINE
8
BLACK
6
CONTINUOUS
10
0.936615
20
0.212962
11
0.936119
21
0.213208
0
LINE
8
BLACK
6
CONTINUOUS
10
0.936119
20
0.213208
11
0.935607
21
0.21342
0
LINE
8
BLACK
6
CONTINUOUS
10
0.935607
20
0.21342
11
0.935585
21
0.213471
0
LINE
8
BLACK
6
CONTINUOUS
10
0.935585
20
0.213471
11
0.935535
21
0.213496
0
LINE
8
BLACK
6
CONTINUOUS
10
0.935535
20
0.213496
11
0.935357
21
0.214021
0
LINE
8
BLACK
6
CONTINUOUS
10
0.935357
20
0.214021
11
0.935145
21
0.214533
0
LINE
8
BLACK
6
CONTINUOUS
10
0.935145
20
0.214533
11
0.935145
21
0.226719
0
LINE
8
BLACK
6
CONTINUOUS
10
0.935145
20
0.226719
11
0.935607
21
0.227833
0
LINE
8
BLACK
6
CONTINUOUS
10
0.935607
20
0.227833
11
0.93672
21
0.228294
0
LINE
8
BLACK
6
CONTINUOUS
10
0.93672
20
0.228294
11
0.937834
21
0.227833
0
LINE
8
BLACK
6
CONTINUOUS
10
0.937834
20
0.227833
11
0.938295
21
0.226719
0
LINE
8
BLACK
6
CONTINUOUS
10
0.938295
20
0.226719
11
0.938295
21
0.218004
0
LINE
8
BLACK
6
CONTINUOUS
10
0.938295
20
0.218004
11
0.943182
21
0.22228
0
LINE
8
BLACK
6
CONTINUOUS
10
0.943182
20
0.22228
11
0.943707
21
0.222458
0
LINE
8
BLACK
6
CONTINUOUS
10
0.943707
20
0.222458
11
0.944219
21
0.22267
0
LINE
8
BLACK
6
CONTINUOUS
10
0.944219
20
0.22267
11
0.944271
21
0.222648
0
LINE
8
BLACK
6
CONTINUOUS
10
0.944271
20
0.222648
11
0.944324
21
0.222666
0
LINE
8
BLACK
6
CONTINUOUS
10
0.944324
20
0.222666
11
0.944821
21
0.222421
0
LINE
8
BLACK
6
CONTINUOUS
10
0.944821
20
0.222421
11
0.945333
21
0.222208
0
LINE
8
BLACK
6
CONTINUOUS
10
0.945333
20
0.222208
11
0.945354
21
0.222157
0
LINE
8
BLACK
6
CONTINUOUS
10
0.945354
20
0.222157
11
0.945404
21
0.222132
0
LINE
8
BLACK
6
CONTINUOUS
10
0.945404
20
0.222132
11
0.945582
21
0.221607
0
LINE
8
BLACK
6
CONTINUOUS
10
0.945582
20
0.221607
11
0.945794
21
0.221095
0
LINE
8
BLACK
6
CONTINUOUS
10
0.945794
20
0.221095
11
0.945794
21
0.218654
0
LINE
8
BLACK
6
CONTINUOUS
10
0.945794
20
0.218654
11
0.946451
21
0.217341
0
LINE
8
BLACK
6
CONTINUOUS
10
0.946451
20
0.217341
11
0.947027
21
0.216765
0
LINE
8
BLACK
6
CONTINUOUS
10
0.947027
20
0.216765
11
0.94834
21
0.216108
0
LINE
8
BLACK
6
CONTINUOUS
10
0.94834
20
0.216108
11
0.952284
21
0.216108
0
LINE
8
BLACK
6
CONTINUOUS
10
0.952284
20
0.216108
11
0.953598
21
0.216765
0
LINE
8
BLACK
6
CONTINUOUS
10
0.953598
20
0.216765
11
0.954173
21
0.217341
0
LINE
8
BLACK
6
CONTINUOUS
10
0.954173
20
0.217341
11
0.95483
21
0.218654
0
LINE
8
BLACK
6
CONTINUOUS
10
0.95483
20
0.218654
11
0.95483
21
0.223535
0
LINE
8
BLACK
6
CONTINUOUS
10
0.95483
20
0.223535
11
0.954173
21
0.224849
0
LINE
8
BLACK
6
CONTINUOUS
10
0.954173
20
0.224849
11
0.953417
21
0.225606
0
LINE
8
BLACK
6
CONTINUOUS
10
0.953417
20
0.225606
11
0.952956
21
0.226719
0
LINE
8
BLACK
6
CONTINUOUS
10
0.952956
20
0.226719
11
0.953417
21
0.227833
0
LINE
8
BLACK
6
CONTINUOUS
10
0.953417
20
0.227833
11
0.95453
21
0.228294
0
LINE
8
BLACK
6
CONTINUOUS
10
0.95453
20
0.228294
11
0.955644
21
0.227833
0
LINE
8
BLACK
6
CONTINUOUS
10
0.957519
20
0.245643
11
0.95798
21
0.244529
0
LINE
8
BLACK
6
CONTINUOUS
10
0.95798
20
0.244529
11
0.957519
21
0.243416
0
LINE
8
BLACK
6
CONTINUOUS
10
0.957519
20
0.243416
11
0.956405
21
0.242955
0
LINE
8
BLACK
6
CONTINUOUS
10
0.956405
20
0.242955
11
0.948606
21
0.242955
0
LINE
8
BLACK
6
CONTINUOUS
10
0.948606
20
0.242955
11
0.948606
21
0.240662
0
LINE
8
BLACK
6
CONTINUOUS
10
0.948606
20
0.240662
11
0.957308
21
0.234571
0
LINE
8
BLACK
6
CONTINUOUS
10
0.957308
20
0.234571
11
0.957956
21
0.233555
0
LINE
8
BLACK
6
CONTINUOUS
10
0.957956
20
0.233555
11
0.957695
21
0.232378
0
LINE
8
BLACK
6
CONTINUOUS
10
0.957695
20
0.232378
11
0.956679
21
0.23173
0
LINE
8
BLACK
6
CONTINUOUS
10
0.956679
20
0.23173
11
0.955502
21
0.231991
0
LINE
8
BLACK
6
CONTINUOUS
10
0.955502
20
0.231991
11
0.948538
21
0.236866
0
LINE
8
BLACK
6
CONTINUOUS
10
0.948538
20
0.236866
11
0.948466
21
0.236692
0
LINE
8
BLACK
6
CONTINUOUS
10
0.948466
20
0.236692
11
0.94844
21
0.236326
0
LINE
8
BLACK
6
CONTINUOUS
10
0.94844
20
0.236326
11
0.947502
21
0.234451
0
LINE
8
BLACK
6
CONTINUOUS
10
0.947502
20
0.234451
11
0.947307
21
0.234282
0
LINE
8
BLACK
6
CONTINUOUS
10
0.947307
20
0.234282
11
0.947207
21
0.234042
0
LINE
8
BLACK
6
CONTINUOUS
10
0.947207
20
0.234042
11
0.94627
21
0.233105
0
LINE
8
BLACK
6
CONTINUOUS
10
0.94627
20
0.233105
11
0.946031
21
0.233005
0
LINE
8
BLACK
6
CONTINUOUS
10
0.946031
20
0.233005
11
0.945861
21
0.23281
0
LINE
8
BLACK
6
CONTINUOUS
10
0.945861
20
0.23281
11
0.943986
21
0.231872
0
LINE
8
BLACK
6
CONTINUOUS
10
0.943986
20
0.231872
11
0.94362
21
0.231846
0
LINE
8
BLACK
6
CONTINUOUS
10
0.94362
20
0.231846
11
0.943282
21
0.231706
0
LINE
8
BLACK
6
CONTINUOUS
10
0.943282
20
0.231706
11
0.94047
21
0.231706
0
LINE
8
BLACK
6
CONTINUOUS
10
0.94047
20
0.231706
11
0.940131
21
0.231846
0
LINE
8
BLACK
6
CONTINUOUS
10
0.940131
20
0.231846
11
0.939765
21
0.231872
0
LINE
8
BLACK
6
CONTINUOUS
10
0.939765
20
0.231872
11
0.937891
21
0.23281
0
LINE
8
BLACK
6
CONTINUOUS
10
0.937891
20
0.23281
11
0.937721
21
0.233005
0
LINE
8
BLACK
6
CONTINUOUS
10
0.937721
20
0.233005
11
0.937481
21
0.233105
0
LINE
8
BLACK
6
CONTINUOUS
10
0.937481
20
0.233105
11
0.936544
21
0.234042
0
LINE
8
BLACK
6
CONTINUOUS
10
0.936544
20
0.234042
11
0.936445
21
0.234282
0
LINE
8
BLACK
6
CONTINUOUS
10
0.936445
20
0.234282
11
0.936249
21
0.234451
0
LINE
8
BLACK
6
CONTINUOUS
10
0.936249
20
0.234451
11
0.935312
21
0.236326
0
LINE
8
BLACK
6
CONTINUOUS
10
0.935312
20
0.236326
11
0.935286
21
0.236692
0
LINE
8
BLACK
6
CONTINUOUS
10
0.935286
20
0.236692
11
0.935145
21
0.23703
0
LINE
8
BLACK
6
CONTINUOUS
10
0.935145
20
0.23703
11
0.935145
21
0.244529
0
LINE
8
BLACK
6
CONTINUOUS
10
0.935145
20
0.244529
11
0.935607
21
0.245643
0
LINE
8
BLACK
6
CONTINUOUS
10
0.935607
20
0.245643
11
0.93672
21
0.246104
0
LINE
8
BLACK
6
CONTINUOUS
10
0.93672
20
0.246104
11
0.956405
21
0.246104
0
LINE
8
BLACK
6
CONTINUOUS
10
0.956405
20
0.246104
11
0.957519
21
0.245643
0
LINE
8
BLACK
6
CONTINUOUS
10
0.938295
20
0.242955
11
0.938295
21
0.237402
0
LINE
8
BLACK
6
CONTINUOUS
10
0.938295
20
0.237402
11
0.938952
21
0.236088
0
LINE
8
BLACK
6
CONTINUOUS
10
0.938952
20
0.236088
11
0.939528
21
0.235512
0
LINE
8
BLACK
6
CONTINUOUS
10
0.939528
20
0.235512
11
0.940841
21
0.234856
0
LINE
8
BLACK
6
CONTINUOUS
10
0.940841
20
0.234856
11
0.94291
21
0.234856
0
LINE
8
BLACK
6
CONTINUOUS
10
0.94291
20
0.234856
11
0.944224
21
0.235512
0
LINE
8
BLACK
6
CONTINUOUS
10
0.944224
20
0.235512
11
0.9448
21
0.236089
0
LINE
8
BLACK
6
CONTINUOUS
10
0.9448
20
0.236089
11
0.945456
21
0.237402
0
LINE
8
BLACK
6
CONTINUOUS
10
0.945456
20
0.237402
11
0.945456
21
0.242955
0
LINE
8
BLACK
6
CONTINUOUS
10
0.945456
20
0.242955
11
0.938295
21
0.242955
0
LINE
8
BLACK
6
CONTINUOUS
10
0.921502
20
0.329238
11
0.920925
21
0.33063
0
LINE
8
BLACK
6
CONTINUOUS
10
0.920925
20
0.33063
11
0.920925
21
0.40937
0
LINE
8
BLACK
6
CONTINUOUS
10
0.920925
20
0.40937
11
0.921502
21
0.410762
0
LINE
8
BLACK
6
CONTINUOUS
10
0.921502
20
0.410762
11
0.922894
21
0.411339
0
LINE
8
BLACK
6
CONTINUOUS
10
0.922894
20
0.411339
11
0.972106
21
0.411339
0
LINE
8
BLACK
6
CONTINUOUS
10
0.972106
20
0.411339
11
0.973498
21
0.410762
0
LINE
8
BLACK
6
CONTINUOUS
10
0.973498
20
0.410762
11
0.974075
21
0.40937
0
LINE
8
BLACK
6
CONTINUOUS
10
0.974075
20
0.40937
11
0.974075
21
0.33063
0
LINE
8
BLACK
6
CONTINUOUS
10
0.974075
20
0.33063
11
0.973498
21
0.329238
0
LINE
8
BLACK
6
CONTINUOUS
10
0.973498
20
0.329238
11
0.972106
21
0.328661
0
LINE
8
BLACK
6
CONTINUOUS
10
0.972106
20
0.328661
11
0.922894
21
0.328661
0
LINE
8
BLACK
6
CONTINUOUS
10
0.922894
20
0.328661
11
0.921502
21
0.329238
0
LINE
8
BLACK
6
CONTINUOUS
10
0.924862
20
0.407402
11
0.924862
21
0.332598
0
LINE
8
BLACK
6
CONTINUOUS
10
0.924862
20
0.332598
11
0.970138
21
0.332598
0
LINE
8
BLACK
6
CONTINUOUS
10
0.970138
20
0.332598
11
0.970138
21
0.407402
0
LINE
8
BLACK
6
CONTINUOUS
10
0.970138
20
0.407402
11
0.924862
21
0.407402
0
LINE
8
BLACK
6
CONTINUOUS
10
0.950182
20
0.367216
11
0.950548
21
0.36719
0
LINE
8
BLACK
6
CONTINUOUS
10
0.950548
20
0.36719
11
0.950718
21
0.366995
0
LINE
8
BLACK
6
CONTINUOUS
10
0.950718
20
0.366995
11
0.950957
21
0.366895
0
LINE
8
BLACK
6
CONTINUOUS
10
0.950957
20
0.366895
11
0.951097
21
0.366557
0
LINE
8
BLACK
6
CONTINUOUS
10
0.951097
20
0.366557
11
0.951337
21
0.36628
0
LINE
8
BLACK
6
CONTINUOUS
10
0.951337
20
0.36628
11
0.951319
21
0.366021
0
LINE
8
BLACK
6
CONTINUOUS
10
0.951319
20
0.366021
11
0.951418
21
0.365782
0
LINE
8
BLACK
6
CONTINUOUS
10
0.951418
20
0.365782
11
0.951418
21
0.357983
0
LINE
8
BLACK
6
CONTINUOUS
10
0.951418
20
0.357983
11
0.956405
21
0.357983
0
LINE
8
BLACK
6
CONTINUOUS
10
0.956405
20
0.357983
11
0.957519
21
0.357521
0
LINE
8
BLACK
6
CONTINUOUS
10
0.957519
20
0.357521
11
0.95798
21
0.356408
0
LINE
8
BLACK
6
CONTINUOUS
10
0.95798
20
0.356408
11
0.957519
21
0.355294
0
LINE
8
BLACK
6
CONTINUOUS
10
0.957519
20
0.355294
11
0.956405
21
0.354833
0
LINE
8
BLACK
6
CONTINUOUS
10
0.956405
20
0.354833
11
0.951418
21
0.354833
0
LINE
8
BLACK
6
CONTINUOUS
10
0.951418
20
0.354833
11
0.951418
21
0.353596
0
LINE
8
BLACK
6
CONTINUOUS
10
0.951418
20
0.353596
11
0.950957
21
0.352482
0
LINE
8
BLACK
6
CONTINUOUS
10
0.950957
20
0.352482
11
0.949843
21
0.352021
0
LINE
8
BLACK
6
CONTINUOUS
10
0.949843
20
0.352021
11
0.94873
21
0.352482
0
LINE
8
BLACK
6
CONTINUOUS
10
0.94873
20
0.352482
11
0.948269
21
0.353596
0
LINE
8
BLACK
6
CONTINUOUS
10
0.948269
20
0.353596
11
0.948269
21
0.354833
0
LINE
8
BLACK
6
CONTINUOUS
10
0.948269
20
0.354833
11
0.943282
21
0.354833
0
LINE
8
BLACK
6
CONTINUOUS
10
0.943282
20
0.354833
11
0.942168
21
0.355294
0
LINE
8
BLACK
6
CONTINUOUS
10
0.942168
20
0.355294
11
0.941707
21
0.356408
0
LINE
8
BLACK
6
CONTINUOUS
10
0.941707
20
0.356408
11
0.942168
21
0.357521
0
LINE
8
BLACK
6
CONTINUOUS
10
0.942168
20
0.357521
11
0.943282
21
0.357983
0
LINE
8
BLACK
6
CONTINUOUS
10
0.943282
20
0.357983
11
0.948269
21
0.357983
0
LINE
8
BLACK
6
CONTINUOUS
10
0.948269
20
0.357983
11
0.948269
21
0.363597
0
LINE
8
BLACK
6
CONTINUOUS
10
0.948269
20
0.363597
11
0.936281
21
0.359601
0
LINE
8
BLACK
6
CONTINUOUS
10
0.936281
20
0.359601
11
0.935078
21
0.359686
0
LINE
8
BLACK
6
CONTINUOUS
10
0.935078
20
0.359686
11
0.934289
21
0.360597
0
LINE
8
BLACK
6
CONTINUOUS
10
0.934289
20
0.360597
11
0.934374
21
0.361799
0
LINE
8
BLACK
6
CONTINUOUS
10
0.934374
20
0.361799
11
0.935285
21
0.362589
0
LINE
8
BLACK
6
CONTINUOUS
10
0.935285
20
0.362589
11
0.949345
21
0.367276
0
LINE
8
BLACK
6
CONTINUOUS
10
0.949345
20
0.367276
11
0.949604
21
0.367257
0
LINE
8
BLACK
6
CONTINUOUS
10
0.949604
20
0.367257
11
0.949843
21
0.367357
0
LINE
8
BLACK
6
CONTINUOUS
10
0.949843
20
0.367357
11
0.950182
21
0.367216
0
LINE
8
BLACK
6
CONTINUOUS
10
0.957519
20
0.385643
11
0.95798
21
0.384529
0
LINE
8
BLACK
6
CONTINUOUS
10
0.95798
20
0.384529
11
0.957519
21
0.383416
0
LINE
8
BLACK
6
CONTINUOUS
10
0.957519
20
0.383416
11
0.956405
21
0.382955
0
LINE
8
BLACK
6
CONTINUOUS
10
0.956405
20
0.382955
11
0.948606
21
0.382955
0
LINE
8
BLACK
6
CONTINUOUS
10
0.948606
20
0.382955
11
0.948606
21
0.380662
0
LINE
8
BLACK
6
CONTINUOUS
10
0.948606
20
0.380662
11
0.957308
21
0.374571
0
LINE
8
BLACK
6
CONTINUOUS
10
0.957308
20
0.374571
11
0.957956
21
0.373555
0
LINE
8
BLACK
6
CONTINUOUS
10
0.957956
20
0.373555
11
0.957695
21
0.372378
0
LINE
8
BLACK
6
CONTINUOUS
10
0.957695
20
0.372378
11
0.956679
21
0.37173
0
LINE
8
BLACK
6
CONTINUOUS
10
0.956679
20
0.37173
11
0.955502
21
0.371991
0
LINE
8
BLACK
6
CONTINUOUS
10
0.955502
20
0.371991
11
0.948538
21
0.376866
0
LINE
8
BLACK
6
CONTINUOUS
10
0.948538
20
0.376866
11
0.948466
21
0.376692
0
LINE
8
BLACK
6
CONTINUOUS
10
0.948466
20
0.376692
11
0.94844
21
0.376326
0
LINE
8
BLACK
6
CONTINUOUS
10
0.94844
20
0.376326
11
0.947502
21
0.374451
0
LINE
8
BLACK
6
CONTINUOUS
10
0.947502
20
0.374451
11
0.947307
21
0.374282
0
LINE
8
BLACK
6
CONTINUOUS
10
0.947307
20
0.374282
11
0.947207
21
0.374042
0
LINE
8
BLACK
6
CONTINUOUS
10
0.947207
20
0.374042
11
0.94627
21
0.373105
0
LINE
8
BLACK
6
CONTINUOUS
10
0.94627
20
0.373105
11
0.946031
21
0.373005
0
LINE
8
BLACK
6
CONTINUOUS
10
0.946031
20
0.373005
11
0.945861
21
0.37281
0
LINE
8
BLACK
6
CONTINUOUS
10
0.945861
20
0.37281
11
0.943986
21
0.371872
0
LINE
8
BLACK
6
CONTINUOUS
10
0.943986
20
0.371872
11
0.94362
21
0.371846
0
LINE
8
BLACK
6
CONTINUOUS
10
0.94362
20
0.371846
11
0.943282
21
0.371706
0
LINE
8
BLACK
6
CONTINUOUS
10
0.943282
20
0.371706
11
0.94047
21
0.371706
0
LINE
8
BLACK
6
CONTINUOUS
10
0.94047
20
0.371706
11
0.940131
21
0.371846
0
LINE
8
BLACK
6
CONTINUOUS
10
0.940131
20
0.371846
11
0.939765
21
0.371872
0
LINE
8
BLACK
6
CONTINUOUS
10
0.939765
20
0.371872
11
0.937891
21
0.37281
0
LINE
8
BLACK
6
CONTINUOUS
10
0.937891
20
0.37281
11
0.937721
21
0.373005
0
LINE
8
BLACK
6
CONTINUOUS
10
0.937721
20
0.373005
11
0.937481
21
0.373105
0
LINE
8
BLACK
6
CONTINUOUS
10
0.937481
20
0.373105
11
0.936544
21
0.374042
0
LINE
8
BLACK
6
CONTINUOUS
10
0.936544
20
0.374042
11
0.936445
21
0.374282
0
LINE
8
BLACK
6
CONTINUOUS
10
0.936445
20
0.374282
11
0.936249
21
0.374451
0
LINE
8
BLACK
6
CONTINUOUS
10
0.936249
20
0.374451
11
0.935312
21
0.376326
0
LINE
8
BLACK
6
CONTINUOUS
10
0.935312
20
0.376326
11
0.935286
21
0.376692
0
LINE
8
BLACK
6
CONTINUOUS
10
0.935286
20
0.376692
11
0.935145
21
0.37703
0
LINE
8
BLACK
6
CONTINUOUS
10
0.935145
20
0.37703
11
0.935145
21
0.384529
0
LINE
8
BLACK
6
CONTINUOUS
10
0.935145
20
0.384529
11
0.935607
21
0.385643
0
LINE
8
BLACK
6
CONTINUOUS
10
0.935607
20
0.385643
11
0.93672
21
0.386104
0
LINE
8
BLACK
6
CONTINUOUS
10
0.93672
20
0.386104
11
0.956405
21
0.386104
0
LINE
8
BLACK
6
CONTINUOUS
10
0.956405
20
0.386104
11
0.957519
21
0.385643
0
LINE
8
BLACK
6
CONTINUOUS
10
0.938295
20
0.382955
11
0.938295
21
0.377402
0
LINE
8
BLACK
6
CONTINUOUS
10
0.938295
20
0.377402
11
0.938952
21
0.376088
0
LINE
8
BLACK
6
CONTINUOUS
10
0.938952
20
0.376088
11
0.939528
21
0.375512
0
LINE
8
BLACK
6
CONTINUOUS
10
0.939528
20
0.375512
11
0.940841
21
0.374856
0
LINE
8
BLACK
6
CONTINUOUS
10
0.940841
20
0.374856
11
0.94291
21
0.374856
0
LINE
8
BLACK
6
CONTINUOUS
10
0.94291
20
0.374856
11
0.944224
21
0.375512
0
LINE
8
BLACK
6
CONTINUOUS
10
0.944224
20
0.375512
11
0.9448
21
0.376089
0
LINE
8
BLACK
6
CONTINUOUS
10
0.9448
20
0.376089
11
0.945456
21
0.377402
0
LINE
8
BLACK
6
CONTINUOUS
10
0.945456
20
0.377402
11
0.945456
21
0.382955
0
LINE
8
BLACK
6
CONTINUOUS
10
0.945456
20
0.382955
11
0.938295
21
0.382955
0
LINE
8
BLACK
6
CONTINUOUS
10
0.674002
20
0.421738
11
0.673425
21
0.42313
0
LINE
8
BLACK
6
CONTINUOUS
10
0.673425
20
0.42313
11
0.673425
21
0.50187
0
LINE
8
BLACK
6
CONTINUOUS
10
0.673425
20
0.50187
11
0.674002
21
0.503262
0
LINE
8
BLACK
6
CONTINUOUS
10
0.674002
20
0.503262
11
0.675394
21
0.503839
0
LINE
8
BLACK
6
CONTINUOUS
10
0.675394
20
0.503839
11
0.724606
21
0.503839
0
LINE
8
BLACK
6
CONTINUOUS
10
0.724606
20
0.503839
11
0.725998
21
0.503262
0
LINE
8
BLACK
6
CONTINUOUS
10
0.725998
20
0.503262
11
0.726575
21
0.50187
0
LINE
8
BLACK
6
CONTINUOUS
10
0.726575
20
0.50187
11
0.726575
21
0.42313
0
LINE
8
BLACK
6
CONTINUOUS
10
0.726575
20
0.42313
11
0.725998
21
0.421738
0
LINE
8
BLACK
6
CONTINUOUS
10
0.725998
20
0.421738
11
0.724606
21
0.421161
0
LINE
8
BLACK
6
CONTINUOUS
10
0.724606
20
0.421161
11
0.675394
21
0.421161
0
LINE
8
BLACK
6
CONTINUOUS
10
0.675394
20
0.421161
11
0.674002
21
0.421738
0
LINE
8
BLACK
6
CONTINUOUS
10
0.677362
20
0.499902
11
0.677362
21
0.425098
0
LINE
8
BLACK
6
CONTINUOUS
10
0.677362
20
0.425098
11
0.722638
21
0.425098
0
LINE
8
BLACK
6
CONTINUOUS
10
0.722638
20
0.425098
11
0.722638
21
0.499902
0
LINE
8
BLACK
6
CONTINUOUS
10
0.722638
20
0.499902
11
0.677362
21
0.499902
0
LINE
8
BLACK
6
CONTINUOUS
10
0.710019
20
0.460333
11
0.71048
21
0.459219
0
LINE
8
BLACK
6
CONTINUOUS
10
0.71048
20
0.459219
11
0.71048
21
0.447033
0
LINE
8
BLACK
6
CONTINUOUS
10
0.71048
20
0.447033
11
0.710019
21
0.44592
0
LINE
8
BLACK
6
CONTINUOUS
10
0.710019
20
0.44592
11
0.708905
21
0.445458
0
LINE
8
BLACK
6
CONTINUOUS
10
0.708905
20
0.445458
11
0.707792
21
0.44592
0
LINE
8
BLACK
6
CONTINUOUS
10
0.707792
20
0.44592
11
0.70733
21
0.447033
0
LINE
8
BLACK
6
CONTINUOUS
10
0.70733
20
0.447033
11
0.70733
21
0.455417
0
LINE
8
BLACK
6
CONTINUOUS
10
0.70733
20
0.455417
11
0.69877
21
0.446857
0
LINE
8
BLACK
6
CONTINUOUS
10
0.69877
20
0.446857
11
0.698431
21
0.446717
0
LINE
8
BLACK
6
CONTINUOUS
10
0.698431
20
0.446717
11
0.698155
21
0.446477
0
LINE
8
BLACK
6
CONTINUOUS
10
0.698155
20
0.446477
11
0.695342
21
0.445539
0
LINE
8
BLACK
6
CONTINUOUS
10
0.695342
20
0.445539
11
0.695084
21
0.445558
0
LINE
8
BLACK
6
CONTINUOUS
10
0.695084
20
0.445558
11
0.694844
21
0.445458
0
LINE
8
BLACK
6
CONTINUOUS
10
0.694844
20
0.445458
11
0.69297
21
0.445458
0
LINE
8
BLACK
6
CONTINUOUS
10
0.69297
20
0.445458
11
0.692631
21
0.445599
0
LINE
8
BLACK
6
CONTINUOUS
10
0.692631
20
0.445599
11
0.692265
21
0.445625
0
LINE
8
BLACK
6
CONTINUOUS
10
0.692265
20
0.445625
11
0.690391
21
0.446562
0
LINE
8
BLACK
6
CONTINUOUS
10
0.690391
20
0.446562
11
0.690221
21
0.446758
0
LINE
8
BLACK
6
CONTINUOUS
10
0.690221
20
0.446758
11
0.689981
21
0.446857
0
LINE
8
BLACK
6
CONTINUOUS
10
0.689981
20
0.446857
11
0.689044
21
0.447794
0
LINE
8
BLACK
6
CONTINUOUS
10
0.689044
20
0.447794
11
0.688945
21
0.448034
0
LINE
8
BLACK
6
CONTINUOUS
10
0.688945
20
0.448034
11
0.688749
21
0.448204
0
LINE
8
BLACK
6
CONTINUOUS
10
0.688749
20
0.448204
11
0.687812
21
0.450078
0
LINE
8
BLACK
6
CONTINUOUS
10
0.687812
20
0.450078
11
0.687786
21
0.450444
0
LINE
8
BLACK
6
CONTINUOUS
10
0.687786
20
0.450444
11
0.687645
21
0.450783
0
LINE
8
BLACK
6
CONTINUOUS
10
0.687645
20
0.450783
11
0.687645
21
0.45547
0
LINE
8
BLACK
6
CONTINUOUS
10
0.687645
20
0.45547
11
0.687786
21
0.455808
0
LINE
8
BLACK
6
CONTINUOUS
10
0.687786
20
0.455808
11
0.687812
21
0.456174
0
LINE
8
BLACK
6
CONTINUOUS
10
0.687812
20
0.456174
11
0.688749
21
0.458049
0
LINE
8
BLACK
6
CONTINUOUS
10
0.688749
20
0.458049
11
0.688945
21
0.458219
0
LINE
8
BLACK
6
CONTINUOUS
10
0.688945
20
0.458219
11
0.689044
21
0.458458
0
LINE
8
BLACK
6
CONTINUOUS
10
0.689044
20
0.458458
11
0.689981
21
0.459395
0
LINE
8
BLACK
6
CONTINUOUS
10
0.689981
20
0.459395
11
0.691095
21
0.459857
0
LINE
8
BLACK
6
CONTINUOUS
10
0.691095
20
0.459857
11
0.692208
21
0.459395
0
LINE
8
BLACK
6
CONTINUOUS
10
0.692208
20
0.459395
11
0.69267
21
0.458282
0
LINE
8
BLACK
6
CONTINUOUS
10
0.69267
20
0.458282
11
0.692208
21
0.457168
0
LINE
8
BLACK
6
CONTINUOUS
10
0.692208
20
0.457168
11
0.691452
21
0.456412
0
LINE
8
BLACK
6
CONTINUOUS
10
0.691452
20
0.456412
11
0.690795
21
0.455098
0
LINE
8
BLACK
6
CONTINUOUS
10
0.690795
20
0.455098
11
0.690795
21
0.451154
0
LINE
8
BLACK
6
CONTINUOUS
10
0.690795
20
0.451154
11
0.691452
21
0.449841
0
LINE
8
BLACK
6
CONTINUOUS
10
0.691452
20
0.449841
11
0.692028
21
0.449265
0
LINE
8
BLACK
6
CONTINUOUS
10
0.692028
20
0.449265
11
0.693341
21
0.448608
0
LINE
8
BLACK
6
CONTINUOUS
10
0.693341
20
0.448608
11
0.694589
21
0.448608
0
LINE
8
BLACK
6
CONTINUOUS
10
0.694589
20
0.448608
11
0.696806
21
0.449347
0
LINE
8
BLACK
6
CONTINUOUS
10
0.696806
20
0.449347
11
0.707792
21
0.460333
0
LINE
8
BLACK
6
CONTINUOUS
10
0.707792
20
0.460333
11
0.708905
21
0.460794
0
LINE
8
BLACK
6
CONTINUOUS
10
0.708905
20
0.460794
11
0.710019
21
0.460333
0
LINE
8
BLACK
6
CONTINUOUS
10
0.710019
20
0.478143
11
0.71048
21
0.477029
0
LINE
8
BLACK
6
CONTINUOUS
10
0.71048
20
0.477029
11
0.710019
21
0.475916
0
LINE
8
BLACK
6
CONTINUOUS
10
0.710019
20
0.475916
11
0.708905
21
0.475455
0
LINE
8
BLACK
6
CONTINUOUS
10
0.708905
20
0.475455
11
0.701106
21
0.475455
0
LINE
8
BLACK
6
CONTINUOUS
10
0.701106
20
0.475455
11
0.701106
21
0.473162
0
LINE
8
BLACK
6
CONTINUOUS
10
0.701106
20
0.473162
11
0.709808
21
0.467071
0
LINE
8
BLACK
6
CONTINUOUS
10
0.709808
20
0.467071
11
0.710456
21
0.466055
0
LINE
8
BLACK
6
CONTINUOUS
10
0.710456
20
0.466055
11
0.710195
21
0.464878
0
LINE
8
BLACK
6
CONTINUOUS
10
0.710195
20
0.464878
11
0.709179
21
0.46423
0
LINE
8
BLACK
6
CONTINUOUS
10
0.709179
20
0.46423
11
0.708002
21
0.464491
0
LINE
8
BLACK
6
CONTINUOUS
10
0.708002
20
0.464491
11
0.701038
21
0.469366
0
LINE
8
BLACK
6
CONTINUOUS
10
0.701038
20
0.469366
11
0.700966
21
0.469192
0
LINE
8
BLACK
6
CONTINUOUS
10
0.700966
20
0.469192
11
0.70094
21
0.468826
0
LINE
8
BLACK
6
CONTINUOUS
10
0.70094
20
0.468826
11
0.700002
21
0.466951
0
LINE
8
BLACK
6
CONTINUOUS
10
0.700002
20
0.466951
11
0.699807
21
0.466782
0
LINE
8
BLACK
6
CONTINUOUS
10
0.699807
20
0.466782
11
0.699707
21
0.466542
0
LINE
8
BLACK
6
CONTINUOUS
10
0.699707
20
0.466542
11
0.69877
21
0.465605
0
LINE
8
BLACK
6
CONTINUOUS
10
0.69877
20
0.465605
11
0.698531
21
0.465505
0
LINE
8
BLACK
6
CONTINUOUS
10
0.698531
20
0.465505
11
0.698361
21
0.46531
0
LINE
8
BLACK
6
CONTINUOUS
10
0.698361
20
0.46531
11
0.696486
21
0.464372
0
LINE
8
BLACK
6
CONTINUOUS
10
0.696486
20
0.464372
11
0.69612
21
0.464346
0
LINE
8
BLACK
6
CONTINUOUS
10
0.69612
20
0.464346
11
0.695782
21
0.464206
0
LINE
8
BLACK
6
CONTINUOUS
10
0.695782
20
0.464206
11
0.69297
21
0.464206
0
LINE
8
BLACK
6
CONTINUOUS
10
0.69297
20
0.464206
11
0.692631
21
0.464346
0
LINE
8
BLACK
6
CONTINUOUS
10
0.692631
20
0.464346
11
0.692265
21
0.464372
0
LINE
8
BLACK
6
CONTINUOUS
10
0.692265
20
0.464372
11
0.690391
21
0.46531
0
LINE
8
BLACK
6
CONTINUOUS
10
0.690391
20
0.46531
11
0.690221
21
0.465505
0
LINE
8
BLACK
6
CONTINUOUS
10
0.690221
20
0.465505
11
0.689981
21
0.465605
0
LINE
8
BLACK
6
CONTINUOUS
10
0.689981
20
0.465605
11
0.689044
21
0.466542
0
LINE
8
BLACK
6
CONTINUOUS
10
0.689044
20
0.466542
11
0.688945
21
0.466782
0
LINE
8
BLACK
6
CONTINUOUS
10
0.688945
20
0.466782
11
0.688749
21
0.466951
0
LINE
8
BLACK
6
CONTINUOUS
10
0.688749
20
0.466951
11
0.687812
21
0.468826
0
LINE
8
BLACK
6
CONTINUOUS
10
0.687812
20
0.468826
11
0.687786
21
0.469192
0
LINE
8
BLACK
6
CONTINUOUS
10
0.687786
20
0.469192
11
0.687645
21
0.46953
0
LINE
8
BLACK
6
CONTINUOUS
10
0.687645
20
0.46953
11
0.687645
21
0.477029
0
LINE
8
BLACK
6
CONTINUOUS
10
0.687645
20
0.477029
11
0.688107
21
0.478143
0
LINE
8
BLACK
6
CONTINUOUS
10
0.688107
20
0.478143
11
0.68922
21
0.478604
0
LINE
8
BLACK
6
CONTINUOUS
10
0.68922
20
0.478604
11
0.708905
21
0.478604
0
LINE
8
BLACK
6
CONTINUOUS
10
0.708905
20
0.478604
11
0.710019
21
0.478143
0
LINE
8
BLACK
6
CONTINUOUS
10
0.690795
20
0.475455
11
0.690795
21
0.469902
0
LINE
8
BLACK
6
CONTINUOUS
10
0.690795
20
0.469902
11
0.691452
21
0.468588
0
LINE
8
BLACK
6
CONTINUOUS
10
0.691452
20
0.468588
11
0.692028
21
0.468012
0
LINE
8
BLACK
6
CONTINUOUS
10
0.692028
20
0.468012
11
0.693341
21
0.467356
0
LINE
8
BLACK
6
CONTINUOUS
10
0.693341
20
0.467356
11
0.69541
21
0.467356
0
LINE
8
BLACK
6
CONTINUOUS
10
0.69541
20
0.467356
11
0.696724
21
0.468012
0
LINE
8
BLACK
6
CONTINUOUS
10
0.696724
20
0.468012
11
0.6973
21
0.468589
0
LINE
8
BLACK
6
CONTINUOUS
10
0.6973
20
0.468589
11
0.697956
21
0.469902
0
LINE
8
BLACK
6
CONTINUOUS
10
0.697956
20
0.469902
11
0.697956
21
0.475455
0
LINE
8
BLACK
6
CONTINUOUS
10
0.697956
20
0.475455
11
0.690795
21
0.475455
0
LINE
8
BLACK
6
CONTINUOUS
10
0.764002
20
0.421738
11
0.763425
21
0.42313
0
LINE
8
BLACK
6
CONTINUOUS
10
0.763425
20
0.42313
11
0.763425
21
0.50187
0
LINE
8
BLACK
6
CONTINUOUS
10
0.763425
20
0.50187
11
0.764002
21
0.503262
0
LINE
8
BLACK
6
CONTINUOUS
10
0.764002
20
0.503262
11
0.765394
21
0.503839
0
LINE
8
BLACK
6
CONTINUOUS
10
0.765394
20
0.503839
11
0.814606
21
0.503839
0
LINE
8
BLACK
6
CONTINUOUS
10
0.814606
20
0.503839
11
0.815998
21
0.503262
0
LINE
8
BLACK
6
CONTINUOUS
10
0.815998
20
0.503262
11
0.816575
21
0.50187
0
LINE
8
BLACK
6
CONTINUOUS
10
0.816575
20
0.50187
11
0.816575
21
0.42313
0
LINE
8
BLACK
6
CONTINUOUS
10
0.816575
20
0.42313
11
0.815998
21
0.421738
0
LINE
8
BLACK
6
CONTINUOUS
10
0.815998
20
0.421738
11
0.814606
21
0.421161
0
LINE
8
BLACK
6
CONTINUOUS
10
0.814606
20
0.421161
11
0.765394
21
0.421161
0
LINE
8
BLACK
6
CONTINUOUS
10
0.765394
20
0.421161
11
0.764002
21
0.421738
0
LINE
8
BLACK
6
CONTINUOUS
10
0.767362
20
0.499902
11
0.767362
21
0.425098
0
LINE
8
BLACK
6
CONTINUOUS
10
0.767362
20
0.425098
11
0.812638
21
0.425098
0
LINE
8
BLACK
6
CONTINUOUS
10
0.812638
20
0.425098
11
0.812638
21
0.499902
0
LINE
8
BLACK
6
CONTINUOUS
10
0.812638
20
0.499902
11
0.767362
21
0.499902
0
LINE
8
BLACK
6
CONTINUOUS
10
0.800019
20
0.459395
11
0.80048
21
0.458282
0
LINE
8
BLACK
6
CONTINUOUS
10
0.80048
20
0.458282
11
0.80048
21
0.447033
0
LINE
8
BLACK
6
CONTINUOUS
10
0.80048
20
0.447033
11
0.800019
21
0.44592
0
LINE
8
BLACK
6
CONTINUOUS
10
0.800019
20
0.44592
11
0.798905
21
0.445458
0
LINE
8
BLACK
6
CONTINUOUS
10
0.798905
20
0.445458
11
0.797792
21
0.44592
0
LINE
8
BLACK
6
CONTINUOUS
10
0.797792
20
0.44592
11
0.79733
21
0.447033
0
LINE
8
BLACK
6
CONTINUOUS
10
0.79733
20
0.447033
11
0.79733
21
0.451083
0
LINE
8
BLACK
6
CONTINUOUS
10
0.79733
20
0.451083
11
0.77922
21
0.451083
0
LINE
8
BLACK
6
CONTINUOUS
10
0.77922
20
0.451083
11
0.77907
21
0.451145
0
LINE
8
BLACK
6
CONTINUOUS
10
0.77907
20
0.451145
11
0.778911
21
0.451113
0
LINE
8
BLACK
6
CONTINUOUS
10
0.778911
20
0.451113
11
0.77853
21
0.451368
0
LINE
8
BLACK
6
CONTINUOUS
10
0.77853
20
0.451368
11
0.778107
21
0.451544
0
LINE
8
BLACK
6
CONTINUOUS
10
0.778107
20
0.451544
11
0.778044
21
0.451694
0
LINE
8
BLACK
6
CONTINUOUS
10
0.778044
20
0.451694
11
0.77791
21
0.451784
0
LINE
8
BLACK
6
CONTINUOUS
10
0.77791
20
0.451784
11
0.777821
21
0.452234
0
LINE
8
BLACK
6
CONTINUOUS
10
0.777821
20
0.452234
11
0.777645
21
0.452657
0
LINE
8
BLACK
6
CONTINUOUS
10
0.777645
20
0.452657
11
0.777707
21
0.452807
0
LINE
8
BLACK
6
CONTINUOUS
10
0.777707
20
0.452807
11
0.777676
21
0.452966
0
LINE
8
BLACK
6
CONTINUOUS
10
0.777676
20
0.452966
11
0.777931
21
0.453347
0
LINE
8
BLACK
6
CONTINUOUS
10
0.777931
20
0.453347
11
0.778107
21
0.453771
0
LINE
8
BLACK
6
CONTINUOUS
10
0.778107
20
0.453771
11
0.778256
21
0.453833
0
LINE
8
BLACK
6
CONTINUOUS
10
0.778256
20
0.453833
11
0.778347
21
0.453968
0
LINE
8
BLACK
6
CONTINUOUS
10
0.778347
20
0.453968
11
0.781029
21
0.455756
0
LINE
8
BLACK
6
CONTINUOUS
10
0.781029
20
0.455756
11
0.782613
21
0.45734
0
LINE
8
BLACK
6
CONTINUOUS
10
0.782613
20
0.45734
11
0.783436
21
0.458986
0
LINE
8
BLACK
6
CONTINUOUS
10
0.783436
20
0.458986
11
0.784346
21
0.459776
0
LINE
8
BLACK
6
CONTINUOUS
10
0.784346
20
0.459776
11
0.785549
21
0.45969
0
LINE
8
BLACK
6
CONTINUOUS
10
0.785549
20
0.45969
11
0.786338
21
0.45878
0
LINE
8
BLACK
6
CONTINUOUS
10
0.786338
20
0.45878
11
0.786253
21
0.457578
0
LINE
8
BLACK
6
CONTINUOUS
10
0.786253
20
0.457578
11
0.785316
21
0.455703
0
LINE
8
BLACK
6
CONTINUOUS
10
0.785316
20
0.455703
11
0.78512
21
0.455533
0
LINE
8
BLACK
6
CONTINUOUS
10
0.78512
20
0.455533
11
0.785021
21
0.455293
0
LINE
8
BLACK
6
CONTINUOUS
10
0.785021
20
0.455293
11
0.783959
21
0.454232
0
LINE
8
BLACK
6
CONTINUOUS
10
0.783959
20
0.454232
11
0.79733
21
0.454232
0
LINE
8
BLACK
6
CONTINUOUS
10
0.79733
20
0.454232
11
0.79733
21
0.458282
0
LINE
8
BLACK
6
CONTINUOUS
10
0.79733
20
0.458282
11
0.797792
21
0.459395
0
LINE
8
BLACK
6
CONTINUOUS
10
0.797792
20
0.459395
11
0.798905
21
0.459857
0
LINE
8
BLACK
6
CONTINUOUS
10
0.798905
20
0.459857
11
0.800019
21
0.459395
0
LINE
8
BLACK
6
CONTINUOUS
10
0.800019
20
0.478143
11
0.80048
21
0.477029
0
LINE
8
BLACK
6
CONTINUOUS
10
0.80048
20
0.477029
11
0.800019
21
0.475916
0
LINE
8
BLACK
6
CONTINUOUS
10
0.800019
20
0.475916
11
0.798905
21
0.475455
0
LINE
8
BLACK
6
CONTINUOUS
10
0.798905
20
0.475455
11
0.791106
21
0.475455
0
LINE
8
BLACK
6
CONTINUOUS
10
0.791106
20
0.475455
11
0.791106
21
0.473162
0
LINE
8
BLACK
6
CONTINUOUS
10
0.791106
20
0.473162
11
0.799808
21
0.467071
0
LINE
8
BLACK
6
CONTINUOUS
10
0.799808
20
0.467071
11
0.800456
21
0.466055
0
LINE
8
BLACK
6
CONTINUOUS
10
0.800456
20
0.466055
11
0.800195
21
0.464878
0
LINE
8
BLACK
6
CONTINUOUS
10
0.800195
20
0.464878
11
0.799179
21
0.46423
0
LINE
8
BLACK
6
CONTINUOUS
10
0.799179
20
0.46423
11
0.798002
21
0.464491
0
LINE
8
BLACK
6
CONTINUOUS
10
0.798002
20
0.464491
11
0.791038
21
0.469366
0
LINE
8
BLACK
6
CONTINUOUS
10
0.791038
20
0.469366
11
0.790966
21
0.469192
0
LINE
8
BLACK
6
CONTINUOUS
10
0.790966
20
0.469192
11
0.79094
21
0.468826
0
LINE
8
BLACK
6
CONTINUOUS
10
0.79094
20
0.468826
11
0.790002
21
0.466951
0
LINE
8
BLACK
6
CONTINUOUS
10
0.790002
20
0.466951
11
0.789807
21
0.466782
0
LINE
8
BLACK
6
CONTINUOUS
10
0.789807
20
0.466782
11
0.789707
21
0.466542
0
LINE
8
BLACK
6
CONTINUOUS
10
0.789707
20
0.466542
11
0.78877
21
0.465605
0
LINE
8
BLACK
6
CONTINUOUS
10
0.78877
20
0.465605
11
0.788531
21
0.465505
0
LINE
8
BLACK
6
CONTINUOUS
10
0.788531
20
0.465505
11
0.788361
21
0.46531
0
LINE
8
BLACK
6
CONTINUOUS
10
0.788361
20
0.46531
11
0.786486
21
0.464372
0
LINE
8
BLACK
6
CONTINUOUS
10
0.786486
20
0.464372
11
0.78612
21
0.464346
0
LINE
8
BLACK
6
CONTINUOUS
10
0.78612
20
0.464346
11
0.785782
21
0.464206
0
LINE
8
BLACK
6
CONTINUOUS
10
0.785782
20
0.464206
11
0.78297
21
0.464206
0
LINE
8
BLACK
6
CONTINUOUS
10
0.78297
20
0.464206
11
0.782631
21
0.464346
0
LINE
8
BLACK
6
CONTINUOUS
10
0.782631
20
0.464346
11
0.782265
21
0.464372
0
LINE
8
BLACK
6
CONTINUOUS
10
0.782265
20
0.464372
11
0.780391
21
0.46531
0
LINE
8
BLACK
6
CONTINUOUS
10
0.780391
20
0.46531
11
0.780221
21
0.465505
0
LINE
8
BLACK
6
CONTINUOUS
10
0.780221
20
0.465505
11
0.779981
21
0.465605
0
LINE
8
BLACK
6
CONTINUOUS
10
0.779981
20
0.465605
11
0.779044
21
0.466542
0
LINE
8
BLACK
6
CONTINUOUS
10
0.779044
20
0.466542
11
0.778945
21
0.466782
0
LINE
8
BLACK
6
CONTINUOUS
10
0.778945
20
0.466782
11
0.778749
21
0.466951
0
LINE
8
BLACK
6
CONTINUOUS
10
0.778749
20
0.466951
11
0.777812
21
0.468826
0
LINE
8
BLACK
6
CONTINUOUS
10
0.777812
20
0.468826
11
0.777786
21
0.469192
0
LINE
8
BLACK
6
CONTINUOUS
10
0.777786
20
0.469192
11
0.777645
21
0.46953
0
LINE
8
BLACK
6
CONTINUOUS
10
0.777645
20
0.46953
11
0.777645
21
0.477029
0
LINE
8
BLACK
6
CONTINUOUS
10
0.777645
20
0.477029
11
0.778107
21
0.478143
0
LINE
8
BLACK
6
CONTINUOUS
10
0.778107
20
0.478143
11
0.77922
21
0.478604
0
LINE
8
BLACK
6
CONTINUOUS
10
0.77922
20
0.478604
11
0.798905
21
0.478604
0
LINE
8
BLACK
6
CONTINUOUS
10
0.798905
20
0.478604
11
0.800019
21
0.478143
0
LINE
8
BLACK
6
CONTINUOUS
10
0.780795
20
0.475455
11
0.780795
21
0.469902
0
LINE
8
BLACK
6
CONTINUOUS
10
0.780795
20
0.469902
11
0.781452
21
0.468588
0
LINE
8
BLACK
6
CONTINUOUS
10
0.781452
20
0.468588
11
0.782028
21
0.468012
0
LINE
8
BLACK
6
CONTINUOUS
10
0.782028
20
0.468012
11
0.783341
21
0.467356
0
LINE
8
BLACK
6
CONTINUOUS
10
0.783341
20
0.467356
11
0.78541
21
0.467356
0
LINE
8
BLACK
6
CONTINUOUS
10
0.78541
20
0.467356
11
0.786724
21
0.468012
0
LINE
8
BLACK
6
CONTINUOUS
10
0.786724
20
0.468012
11
0.7873
21
0.468589
0
LINE
8
BLACK
6
CONTINUOUS
10
0.7873
20
0.468589
11
0.787956
21
0.469902
0
LINE
8
BLACK
6
CONTINUOUS
10
0.787956
20
0.469902
11
0.787956
21
0.475455
0
LINE
8
BLACK
6
CONTINUOUS
10
0.787956
20
0.475455
11
0.780795
21
0.475455
0
LINE
8
BLACK
6
CONTINUOUS
10
0.38475
20
0.427112
11
0.384173
21
0.428504
0
LINE
8
BLACK
6
CONTINUOUS
10
0.384173
20
0.428504
11
0.384173
21
0.491496
0
LINE
8
BLACK
6
CONTINUOUS
10
0.384173
20
0.491496
11
0.38475
21
0.492888
0
LINE
8
BLACK
6
CONTINUOUS
10
0.38475
20
0.492888
11
0.386142
21
0.493465
0
LINE
8
BLACK
6
CONTINUOUS
10
0.386142
20
0.493465
11
0.516063
21
0.493465
0
LINE
8
BLACK
6
CONTINUOUS
10
0.516063
20
0.493465
11
0.517455
21
0.492888
0
LINE
8
BLACK
6
CONTINUOUS
10
0.517455
20
0.492888
11
0.518031
21
0.491496
0
LINE
8
BLACK
6
CONTINUOUS
10
0.518031
20
0.491496
11
0.518031
21
0.428504
0
LINE
8
BLACK
6
CONTINUOUS
10
0.518031
20
0.428504
11
0.517455
21
0.427112
0
LINE
8
BLACK
6
CONTINUOUS
10
0.517455
20
0.427112
11
0.516063
21
0.426535
0
LINE
8
BLACK
6
CONTINUOUS
10
0.516063
20
0.426535
11
0.386142
21
0.426535
0
LINE
8
BLACK
6
CONTINUOUS
10
0.386142
20
0.426535
11
0.38475
21
0.427112
0
LINE
8
BLACK
6
CONTINUOUS
10
0.38811
20
0.489528
11
0.38811
21
0.430472
0
LINE
8
BLACK
6
CONTINUOUS
10
0.38811
20
0.430472
11
0.514094
21
0.430472
0
LINE
8
BLACK
6
CONTINUOUS
10
0.514094
20
0.430472
11
0.514094
21
0.489528
0
LINE
8
BLACK
6
CONTINUOUS
10
0.514094
20
0.489528
11
0.38811
21
0.489528
0
LINE
8
BLACK
6
CONTINUOUS
10
0.438715
20
0.483045
11
0.439291
21
0.481654
0
LINE
8
BLACK
6
CONTINUOUS
10
0.439291
20
0.481654
11
0.439291
21
0.463678
0
LINE
8
BLACK
6
CONTINUOUS
10
0.439291
20
0.463678
11
0.459853
21
0.477386
0
LINE
8
BLACK
6
CONTINUOUS
10
0.459853
20
0.477386
11
0.460415
21
0.477497
0
LINE
8
BLACK
6
CONTINUOUS
10
0.460415
20
0.477497
11
0.460945
21
0.477717
0
LINE
8
BLACK
6
CONTINUOUS
10
0.460945
20
0.477717
11
0.461132
21
0.477639
0
LINE
8
BLACK
6
CONTINUOUS
10
0.461132
20
0.477639
11
0.461331
21
0.477678
0
LINE
8
BLACK
6
CONTINUOUS
10
0.461331
20
0.477678
11
0.461807
21
0.477359
0
LINE
8
BLACK
6
CONTINUOUS
10
0.461807
20
0.477359
11
0.462337
21
0.47714
0
LINE
8
BLACK
6
CONTINUOUS
10
0.462337
20
0.47714
11
0.462414
21
0.476953
0
LINE
8
BLACK
6
CONTINUOUS
10
0.462414
20
0.476953
11
0.462583
21
0.47684
0
LINE
8
BLACK
6
CONTINUOUS
10
0.462583
20
0.47684
11
0.462694
21
0.476278
0
LINE
8
BLACK
6
CONTINUOUS
10
0.462694
20
0.476278
11
0.462913
21
0.475748
0
LINE
8
BLACK
6
CONTINUOUS
10
0.462913
20
0.475748
11
0.462913
21
0.461969
0
LINE
8
BLACK
6
CONTINUOUS
10
0.462913
20
0.461969
11
0.48063
21
0.461969
0
LINE
8
BLACK
6
CONTINUOUS
10
0.48063
20
0.461969
11
0.482022
21
0.461392
0
LINE
8
BLACK
6
CONTINUOUS
10
0.482022
20
0.461392
11
0.482598
21
0.46
0
LINE
8
BLACK
6
CONTINUOUS
10
0.482598
20
0.46
11
0.482022
21
0.458608
0
LINE
8
BLACK
6
CONTINUOUS
10
0.482022
20
0.458608
11
0.48063
21
0.458031
0
LINE
8
BLACK
6
CONTINUOUS
10
0.48063
20
0.458031
11
0.462913
21
0.458031
0
LINE
8
BLACK
6
CONTINUOUS
10
0.462913
20
0.458031
11
0.462913
21
0.444252
0
LINE
8
BLACK
6
CONTINUOUS
10
0.462913
20
0.444252
11
0.462694
21
0.443722
0
LINE
8
BLACK
6
CONTINUOUS
10
0.462694
20
0.443722
11
0.462583
21
0.44316
0
LINE
8
BLACK
6
CONTINUOUS
10
0.462583
20
0.44316
11
0.462414
21
0.443047
0
LINE
8
BLACK
6
CONTINUOUS
10
0.462414
20
0.443047
11
0.462337
21
0.44286
0
LINE
8
BLACK
6
CONTINUOUS
10
0.462337
20
0.44286
11
0.461807
21
0.442641
0
LINE
8
BLACK
6
CONTINUOUS
10
0.461807
20
0.442641
11
0.461331
21
0.442322
0
LINE
8
BLACK
6
CONTINUOUS
10
0.461331
20
0.442322
11
0.461132
21
0.442361
0
LINE
8
BLACK
6
CONTINUOUS
10
0.461132
20
0.442361
11
0.460945
21
0.442283
0
LINE
8
BLACK
6
CONTINUOUS
10
0.460945
20
0.442283
11
0.460415
21
0.442503
0
LINE
8
BLACK
6
CONTINUOUS
10
0.460415
20
0.442503
11
0.459853
21
0.442614
0
LINE
8
BLACK
6
CONTINUOUS
10
0.459853
20
0.442614
11
0.439291
21
0.456322
0
LINE
8
BLACK
6
CONTINUOUS
10
0.439291
20
0.456322
11
0.439291
21
0.438346
0
LINE
8
BLACK
6
CONTINUOUS
10
0.439291
20
0.438346
11
0.438715
21
0.436955
0
LINE
8
BLACK
6
CONTINUOUS
10
0.438715
20
0.436955
11
0.437323
21
0.436378
0
LINE
8
BLACK
6
CONTINUOUS
10
0.437323
20
0.436378
11
0.435931
21
0.436955
0
LINE
8
BLACK
6
CONTINUOUS
10
0.435931
20
0.436955
11
0.435354
21
0.438346
0
LINE
8
BLACK
6
CONTINUOUS
10
0.435354
20
0.438346
11
0.435354
21
0.458031
0
LINE
8
BLACK
6
CONTINUOUS
10
0.435354
20
0.458031
11
0.421575
21
0.458031
0
LINE
8
BLACK
6
CONTINUOUS
10
0.421575
20
0.458031
11
0.420183
21
0.458608
0
LINE
8
BLACK
6
CONTINUOUS
10
0.420183
20
0.458608
11
0.419606
21
0.46
0
LINE
8
BLACK
6
CONTINUOUS
10
0.419606
20
0.46
11
0.420183
21
0.461392
0
LINE
8
BLACK
6
CONTINUOUS
10
0.420183
20
0.461392
11
0.421575
21
0.461969
0
LINE
8
BLACK
6
CONTINUOUS
10
0.421575
20
0.461969
11
0.435354
21
0.461969
0
LINE
8
BLACK
6
CONTINUOUS
10
0.435354
20
0.461969
11
0.435354
21
0.481654
0
LINE
8
BLACK
6
CONTINUOUS
10
0.435354
20
0.481654
11
0.435931
21
0.483045
0
LINE
8
BLACK
6
CONTINUOUS
10
0.435931
20
0.483045
11
0.437323
21
0.483622
0
LINE
8
BLACK
6
CONTINUOUS
10
0.437323
20
0.483622
11
0.438715
21
0.483045
0
LINE
8
BLACK
6
CONTINUOUS
10
0.440872
20
0.46
11
0.458976
21
0.44793
0
LINE
8
BLACK
6
CONTINUOUS
10
0.458976
20
0.44793
11
0.458976
21
0.47207
0
LINE
8
BLACK
6
CONTINUOUS
10
0.458976
20
0.47207
11
0.440872
21
0.46
0
LINE
8
BLACK
6
CONTINUOUS
10
0.435975
20
0.574383
11
0.436144
21
0.574394
0
LINE
8
BLACK
6
CONTINUOUS
10
0.436144
20
0.574394
11
0.436835
21
0.573886
0
LINE
8
BLACK
6
CONTINUOUS
10
0.436835
20
0.573886
11
0.437577
21
0.573458
0
LINE
8
BLACK
6
CONTINUOUS
10
0.437577
20
0.573458
11
0.437635
21
0.573298
0
LINE
8
BLACK
6
CONTINUOUS
10
0.437635
20
0.573298
11
0.437772
21
0.573198
0
LINE
8
BLACK
6
CONTINUOUS
10
0.437772
20
0.573198
11
0.441359
21
0.567817
0
LINE
8
BLACK
6
CONTINUOUS
10
0.441359
20
0.567817
11
0.444563
21
0.564613
0
LINE
8
BLACK
6
CONTINUOUS
10
0.444563
20
0.564613
11
0.447884
21
0.562952
0
LINE
8
BLACK
6
CONTINUOUS
10
0.447884
20
0.562952
11
0.448708
21
0.562341
0
LINE
8
BLACK
6
CONTINUOUS
10
0.448708
20
0.562341
11
0.449511
21
0.560488
0
LINE
8
BLACK
6
CONTINUOUS
10
0.449511
20
0.560488
11
0.448935
21
0.558552
0
LINE
8
BLACK
6
CONTINUOUS
10
0.448935
20
0.558552
11
0.44725
21
0.557439
0
LINE
8
BLACK
6
CONTINUOUS
10
0.44725
20
0.557439
11
0.445243
21
0.55767
0
LINE
8
BLACK
6
CONTINUOUS
10
0.445243
20
0.55767
11
0.441494
21
0.559545
0
LINE
8
BLACK
6
CONTINUOUS
10
0.441494
20
0.559545
11
0.440784
21
0.560071
0
LINE
8
BLACK
6
CONTINUOUS
10
0.440784
20
0.560071
11
0.440726
21
0.560098
0
LINE
8
BLACK
6
CONTINUOUS
10
0.440726
20
0.560098
11
0.438268
21
0.562556
0
LINE
8
BLACK
6
CONTINUOUS
10
0.438268
20
0.562556
11
0.438268
21
0.535143
0
LINE
8
BLACK
6
CONTINUOUS
10
0.438268
20
0.535143
11
0.446564
21
0.535143
0
LINE
8
BLACK
6
CONTINUOUS
10
0.446564
20
0.535143
11
0.447573
21
0.534964
0
LINE
8
BLACK
6
CONTINUOUS
10
0.447573
20
0.534964
11
0.449121
21
0.533666
0
LINE
8
BLACK
6
CONTINUOUS
10
0.449121
20
0.533666
11
0.449471
21
0.531677
0
LINE
8
BLACK
6
CONTINUOUS
10
0.449471
20
0.531677
11
0.448462
21
0.529928
0
LINE
8
BLACK
6
CONTINUOUS
10
0.448462
20
0.529928
11
0.446564
21
0.529237
0
LINE
8
BLACK
6
CONTINUOUS
10
0.446564
20
0.529237
11
0.424066
21
0.529237
0
LINE
8
BLACK
6
CONTINUOUS
10
0.424066
20
0.529237
11
0.423056
21
0.529415
0
LINE
8
BLACK
6
CONTINUOUS
10
0.423056
20
0.529415
11
0.421509
21
0.530713
0
LINE
8
BLACK
6
CONTINUOUS
10
0.421509
20
0.530713
11
0.421158
21
0.532703
0
LINE
8
BLACK
6
CONTINUOUS
10
0.421158
20
0.532703
11
0.422168
21
0.534452
0
LINE
8
BLACK
6
CONTINUOUS
10
0.422168
20
0.534452
11
0.424066
21
0.535143
0
LINE
8
BLACK
6
CONTINUOUS
10
0.424066
20
0.535143
11
0.432362
21
0.535143
0
LINE
8
BLACK
6
CONTINUOUS
10
0.432362
20
0.535143
11
0.432362
21
0.57156
0
LINE
8
BLACK
6
CONTINUOUS
10
0.432362
20
0.57156
11
0.43254
21
0.57257
0
LINE
8
BLACK
6
CONTINUOUS
10
0.43254
20
0.57257
11
0.432649
21
0.5727
0
LINE
8
BLACK
6
CONTINUOUS
10
0.432649
20
0.5727
11
0.432668
21
0.572869
0
LINE
8
BLACK
6
CONTINUOUS
10
0.432668
20
0.572869
11
0.433288
21
0.573461
0
LINE
8
BLACK
6
CONTINUOUS
10
0.433288
20
0.573461
11
0.433839
21
0.574117
0
LINE
8
BLACK
6
CONTINUOUS
10
0.433839
20
0.574117
11
0.434006
21
0.574146
0
LINE
8
BLACK
6
CONTINUOUS
10
0.434006
20
0.574146
11
0.434129
21
0.574264
0
LINE
8
BLACK
6
CONTINUOUS
10
0.434129
20
0.574264
11
0.434984
21
0.574319
0
LINE
8
BLACK
6
CONTINUOUS
10
0.434984
20
0.574319
11
0.435828
21
0.574468
0
LINE
8
BLACK
6
CONTINUOUS
10
0.435828
20
0.574468
11
0.435975
21
0.574383
0
LINE
8
BLACK
6
CONTINUOUS
10
0.484442
20
0.574445
11
0.484572
21
0.574468
0
LINE
8
BLACK
6
CONTINUOUS
10
0.484572
20
0.574468
11
0.484685
21
0.574402
0
LINE
8
BLACK
6
CONTINUOUS
10
0.484685
20
0.574402
11
0.485069
21
0.574335
0
LINE
8
BLACK
6
CONTINUOUS
10
0.485069
20
0.574335
11
0.485656
21
0.573841
0
LINE
8
BLACK
6
CONTINUOUS
10
0.485656
20
0.573841
11
0.486321
21
0.573458
0
LINE
8
BLACK
6
CONTINUOUS
10
0.486321
20
0.573458
11
0.486412
21
0.573207
0
LINE
8
BLACK
6
CONTINUOUS
10
0.486412
20
0.573207
11
0.486616
21
0.573036
0
LINE
8
BLACK
6
CONTINUOUS
10
0.486616
20
0.573036
11
0.486749
21
0.572281
0
LINE
8
BLACK
6
CONTINUOUS
10
0.486749
20
0.572281
11
0.487012
21
0.57156
0
LINE
8
BLACK
6
CONTINUOUS
10
0.487012
20
0.57156
11
0.487012
21
0.53219
0
LINE
8
BLACK
6
CONTINUOUS
10
0.487012
20
0.53219
11
0.486944
21
0.531806
0
LINE
8
BLACK
6
CONTINUOUS
10
0.486944
20
0.531806
11
0.486967
21
0.531677
0
LINE
8
BLACK
6
CONTINUOUS
10
0.486967
20
0.531677
11
0.486901
21
0.531563
0
LINE
8
BLACK
6
CONTINUOUS
10
0.486901
20
0.531563
11
0.486834
21
0.53118
0
LINE
8
BLACK
6
CONTINUOUS
10
0.486834
20
0.53118
11
0.48634
21
0.530592
0
LINE
8
BLACK
6
CONTINUOUS
10
0.48634
20
0.530592
11
0.485957
21
0.529928
0
LINE
8
BLACK
6
CONTINUOUS
10
0.485957
20
0.529928
11
0.485706
21
0.529837
0
LINE
8
BLACK
6
CONTINUOUS
10
0.485706
20
0.529837
11
0.485535
21
0.529633
0
LINE
8
BLACK
6
CONTINUOUS
10
0.485535
20
0.529633
11
0.48478
21
0.529499
0
LINE
8
BLACK
6
CONTINUOUS
10
0.48478
20
0.529499
11
0.484059
21
0.529237
0
LINE
8
BLACK
6
CONTINUOUS
10
0.484059
20
0.529237
11
0.474685
21
0.529237
0
LINE
8
BLACK
6
CONTINUOUS
10
0.474685
20
0.529237
11
0.473816
21
0.52939
0
LINE
8
BLACK
6
CONTINUOUS
10
0.473816
20
0.52939
11
0.473751
21
0.529389
0
LINE
8
BLACK
6
CONTINUOUS
10
0.473751
20
0.529389
11
0.468127
21
0.531263
0
LINE
8
BLACK
6
CONTINUOUS
10
0.468127
20
0.531263
11
0.467225
21
0.531752
0
LINE
8
BLACK
6
CONTINUOUS
10
0.467225
20
0.531752
11
0.467133
21
0.531902
0
LINE
8
BLACK
6
CONTINUOUS
10
0.467133
20
0.531902
11
0.466973
21
0.531977
0
LINE
8
BLACK
6
CONTINUOUS
10
0.466973
20
0.531977
11
0.463223
21
0.535726
0
LINE
8
BLACK
6
CONTINUOUS
10
0.463223
20
0.535726
11
0.462717
21
0.536449
0
LINE
8
BLACK
6
CONTINUOUS
10
0.462717
20
0.536449
11
0.46267
21
0.536494
0
LINE
8
BLACK
6
CONTINUOUS
10
0.46267
20
0.536494
11
0.460795
21
0.540243
0
LINE
8
BLACK
6
CONTINUOUS
10
0.460795
20
0.540243
11
0.46065
21
0.540731
0
LINE
8
BLACK
6
CONTINUOUS
10
0.46065
20
0.540731
11
0.460572
21
0.540847
0
LINE
8
BLACK
6
CONTINUOUS
10
0.460572
20
0.540847
11
0.458697
21
0.548346
0
LINE
8
BLACK
6
CONTINUOUS
10
0.458697
20
0.548346
11
0.458656
21
0.548934
0
LINE
8
BLACK
6
CONTINUOUS
10
0.458656
20
0.548934
11
0.458609
21
0.549063
0
LINE
8
BLACK
6
CONTINUOUS
10
0.458609
20
0.549063
11
0.458609
21
0.554687
0
LINE
8
BLACK
6
CONTINUOUS
10
0.458609
20
0.554687
11
0.458711
21
0.555267
0
LINE
8
BLACK
6
CONTINUOUS
10
0.458711
20
0.555267
11
0.458697
21
0.555403
0
LINE
8
BLACK
6
CONTINUOUS
10
0.458697
20
0.555403
11
0.460572
21
0.562902
0
LINE
8
BLACK
6
CONTINUOUS
10
0.460572
20
0.562902
11
0.460779
21
0.563368
0
LINE
8
BLACK
6
CONTINUOUS
10
0.460779
20
0.563368
11
0.460795
21
0.563506
0
LINE
8
BLACK
6
CONTINUOUS
10
0.460795
20
0.563506
11
0.46267
21
0.567256
0
LINE
8
BLACK
6
CONTINUOUS
10
0.46267
20
0.567256
11
0.463196
21
0.567965
0
LINE
8
BLACK
6
CONTINUOUS
10
0.463196
20
0.567965
11
0.463223
21
0.568023
0
LINE
8
BLACK
6
CONTINUOUS
10
0.463223
20
0.568023
11
0.466973
21
0.571773
0
LINE
8
BLACK
6
CONTINUOUS
10
0.466973
20
0.571773
11
0.467813
21
0.572361
0
LINE
8
BLACK
6
CONTINUOUS
10
0.467813
20
0.572361
11
0.467989
21
0.572377
0
LINE
8
BLACK
6
CONTINUOUS
10
0.467989
20
0.572377
11
0.468127
21
0.572486
0
LINE
8
BLACK
6
CONTINUOUS
10
0.468127
20
0.572486
11
0.473751
21
0.574361
0
LINE
8
BLACK
6
CONTINUOUS
10
0.473751
20
0.574361
11
0.474624
21
0.574491
0
LINE
8
BLACK
6
CONTINUOUS
10
0.474624
20
0.574491
11
0.474685
21
0.574513
0
LINE
8
BLACK
6
CONTINUOUS
10
0.474685
20
0.574513
11
0.484059
21
0.574513
0
LINE
8
BLACK
6
CONTINUOUS
10
0.484059
20
0.574513
11
0.484442
21
0.574445
0
LINE
8
BLACK
6
CONTINUOUS
10
0.475164
20
0.568607
11
0.470656
21
0.567104
0
LINE
8
BLACK
6
CONTINUOUS
10
0.470656
20
0.567104
11
0.467738
21
0.564186
0
LINE
8
BLACK
6
CONTINUOUS
10
0.467738
20
0.564186
11
0.466222
21
0.561155
0
LINE
8
BLACK
6
CONTINUOUS
10
0.466222
20
0.561155
11
0.464514
21
0.554323
0
LINE
8
BLACK
6
CONTINUOUS
10
0.464514
20
0.554323
11
0.464514
21
0.549426
0
LINE
8
BLACK
6
CONTINUOUS
10
0.464514
20
0.549426
11
0.466222
21
0.542594
0
LINE
8
BLACK
6
CONTINUOUS
10
0.466222
20
0.542594
11
0.467738
21
0.539563
0
LINE
8
BLACK
6
CONTINUOUS
10
0.467738
20
0.539563
11
0.470656
21
0.536645
0
LINE
8
BLACK
6
CONTINUOUS
10
0.470656
20
0.536645
11
0.475164
21
0.535143
0
LINE
8
BLACK
6
CONTINUOUS
10
0.475164
20
0.535143
11
0.481106
21
0.535143
0
LINE
8
BLACK
6
CONTINUOUS
10
0.481106
20
0.535143
11
0.481106
21
0.568607
0
LINE
8
BLACK
6
CONTINUOUS
10
0.481106
20
0.568607
11
0.475164
21
0.568607
  0
ENDSEC
  0
EOF
