  0
SECTION
  2
HEADER
  9
$ANGBASE
  50
0.0
  9
$ANGDIR
  70
1
  9
$MEASUREMENT
  70
0
  0
ENDSEC
  0
SECTION
  2
TABLES
  0
TABLE
  2
LTYPE
  70
4
  0
LTYPE
  5
40F
  2
CONTINUOUS
  70
0
  3
Solid line
  72
65
  73
0
  40
0.0
  0
LTYPE
  5
410
  2
DASHDOT
 70
0
  3
Dash Dot ____ _ ____ _
 72
65
 73
4
 40
2.0
 49
1.25
 49
-0.25
 49
0.25
 49
-0.25
  0
LTYPE
  5
411
  2
DASHED
 70
0
  3
Dashed __ __ __ __ __
 72
65
 73
2
 40
0.75
 49
0.5
 49
-0.25
  0
LTYPE
  5
43B
  2
DOTTED
 70
0
  3
Dotted .  .  .  .
 72
65
 73
2
 40
0.2
 49
0.0
 49
-0.2
  0
ENDTAB
  0
TABLE
  2
STYLE
  70
4
  0
STYLE
  2
KICAD
  70
0
  40
0
  41
1
  42
1
  50
0
  71
0
  3
isocp.shx
  0
STYLE
  2
KICADB
  70
0
  40
0
  41
1
  42
1
  50
0
  71
0
  3
isocp.shx
  0
STYLE
  2
KICADI
  70
0
  40
0
  41
1
  42
1
  50
15
  71
0
  3
isocp.shx
  0
STYLE
  2
KICADBI
  70
0
  40
0
  41
1
  42
1
  50
15
  71
0
  3
isocp.shx
  0
ENDTAB
  0
TABLE
  2
LAYER
  70
1
  0
LAYER
  2
BLACK
  70
0
  62
7
  6
CONTINUOUS
  0
ENDTAB
  0
ENDSEC
  0
SECTION
  2
ENTITIES
0
LINE
8
BLACK
6
CONTINUOUS
10
0.681483
20
0.0810028
11
0.684676
21
0.0788692
0
LINE
8
BLACK
6
CONTINUOUS
10
0.684676
20
0.0788692
11
0.68681
21
0.075676
0
LINE
8
BLACK
6
CONTINUOUS
10
0.68681
20
0.075676
11
0.687559
21
0.0719094
0
LINE
8
BLACK
6
CONTINUOUS
10
0.687559
20
0.0719094
11
0.687559
21
0.0512402
0
LINE
8
BLACK
6
CONTINUOUS
10
0.687559
20
0.0512402
11
0.68681
21
0.0474736
0
LINE
8
BLACK
6
CONTINUOUS
10
0.68681
20
0.0474736
11
0.684676
21
0.0442804
0
LINE
8
BLACK
6
CONTINUOUS
10
0.684676
20
0.0442804
11
0.681483
21
0.0421469
0
LINE
8
BLACK
6
CONTINUOUS
10
0.681483
20
0.0421469
11
0.677717
21
0.0413976
0
LINE
8
BLACK
6
CONTINUOUS
10
0.677717
20
0.0413976
11
0.642283
21
0.0413976
0
LINE
8
BLACK
6
CONTINUOUS
10
0.642283
20
0.0413976
11
0.638517
21
0.0421469
0
LINE
8
BLACK
6
CONTINUOUS
10
0.638517
20
0.0421469
11
0.635324
21
0.0442804
0
LINE
8
BLACK
6
CONTINUOUS
10
0.635324
20
0.0442804
11
0.63319
21
0.0474736
0
LINE
8
BLACK
6
CONTINUOUS
10
0.63319
20
0.0474736
11
0.632441
21
0.0512402
0
LINE
8
BLACK
6
CONTINUOUS
10
0.632441
20
0.0512402
11
0.632441
21
0.0719094
0
LINE
8
BLACK
6
CONTINUOUS
10
0.632441
20
0.0719094
11
0.63319
21
0.075676
0
LINE
8
BLACK
6
CONTINUOUS
10
0.63319
20
0.075676
11
0.635324
21
0.0788692
0
LINE
8
BLACK
6
CONTINUOUS
10
0.635324
20
0.0788692
11
0.638517
21
0.0810028
0
LINE
8
BLACK
6
CONTINUOUS
10
0.638517
20
0.0810028
11
0.642283
21
0.081752
0
LINE
8
BLACK
6
CONTINUOUS
10
0.642283
20
0.081752
11
0.677717
21
0.081752
0
LINE
8
BLACK
6
CONTINUOUS
10
0.677717
20
0.081752
11
0.681483
21
0.0810028
0
LINE
8
BLACK
6
CONTINUOUS
10
0.681483
20
0.152853
11
0.684676
21
0.15072
0
LINE
8
BLACK
6
CONTINUOUS
10
0.684676
20
0.15072
11
0.68681
21
0.147526
0
LINE
8
BLACK
6
CONTINUOUS
10
0.68681
20
0.147526
11
0.687559
21
0.14376
0
LINE
8
BLACK
6
CONTINUOUS
10
0.687559
20
0.14376
11
0.687559
21
0.123091
0
LINE
8
BLACK
6
CONTINUOUS
10
0.687559
20
0.123091
11
0.68681
21
0.119324
0
LINE
8
BLACK
6
CONTINUOUS
10
0.68681
20
0.119324
11
0.684676
21
0.116131
0
LINE
8
BLACK
6
CONTINUOUS
10
0.684676
20
0.116131
11
0.681483
21
0.113997
0
LINE
8
BLACK
6
CONTINUOUS
10
0.681483
20
0.113997
11
0.677717
21
0.113248
0
LINE
8
BLACK
6
CONTINUOUS
10
0.677717
20
0.113248
11
0.642283
21
0.113248
0
LINE
8
BLACK
6
CONTINUOUS
10
0.642283
20
0.113248
11
0.638517
21
0.113997
0
LINE
8
BLACK
6
CONTINUOUS
10
0.638517
20
0.113997
11
0.635324
21
0.116131
0
LINE
8
BLACK
6
CONTINUOUS
10
0.635324
20
0.116131
11
0.63319
21
0.119324
0
LINE
8
BLACK
6
CONTINUOUS
10
0.63319
20
0.119324
11
0.632441
21
0.123091
0
LINE
8
BLACK
6
CONTINUOUS
10
0.632441
20
0.123091
11
0.632441
21
0.14376
0
LINE
8
BLACK
6
CONTINUOUS
10
0.632441
20
0.14376
11
0.63319
21
0.147526
0
LINE
8
BLACK
6
CONTINUOUS
10
0.63319
20
0.147526
11
0.635324
21
0.15072
0
LINE
8
BLACK
6
CONTINUOUS
10
0.635324
20
0.15072
11
0.638517
21
0.152853
0
LINE
8
BLACK
6
CONTINUOUS
10
0.638517
20
0.152853
11
0.642283
21
0.153602
0
LINE
8
BLACK
6
CONTINUOUS
10
0.642283
20
0.153602
11
0.677717
21
0.153602
0
LINE
8
BLACK
6
CONTINUOUS
10
0.677717
20
0.153602
11
0.681483
21
0.152853
0
LINE
8
BLACK
6
CONTINUOUS
10
0.968983
20
0.213503
11
0.972176
21
0.211369
0
LINE
8
BLACK
6
CONTINUOUS
10
0.972176
20
0.211369
11
0.97431
21
0.208176
0
LINE
8
BLACK
6
CONTINUOUS
10
0.97431
20
0.208176
11
0.975059
21
0.204409
0
LINE
8
BLACK
6
CONTINUOUS
10
0.975059
20
0.204409
11
0.975059
21
0.18374
0
LINE
8
BLACK
6
CONTINUOUS
10
0.975059
20
0.18374
11
0.97431
21
0.179974
0
LINE
8
BLACK
6
CONTINUOUS
10
0.97431
20
0.179974
11
0.972176
21
0.17678
0
LINE
8
BLACK
6
CONTINUOUS
10
0.972176
20
0.17678
11
0.968983
21
0.174647
0
LINE
8
BLACK
6
CONTINUOUS
10
0.968983
20
0.174647
11
0.965217
21
0.173898
0
LINE
8
BLACK
6
CONTINUOUS
10
0.965217
20
0.173898
11
0.929783
21
0.173898
0
LINE
8
BLACK
6
CONTINUOUS
10
0.929783
20
0.173898
11
0.926017
21
0.174647
0
LINE
8
BLACK
6
CONTINUOUS
10
0.926017
20
0.174647
11
0.922824
21
0.17678
0
LINE
8
BLACK
6
CONTINUOUS
10
0.922824
20
0.17678
11
0.92069
21
0.179974
0
LINE
8
BLACK
6
CONTINUOUS
10
0.92069
20
0.179974
11
0.919941
21
0.18374
0
LINE
8
BLACK
6
CONTINUOUS
10
0.919941
20
0.18374
11
0.919941
21
0.204409
0
LINE
8
BLACK
6
CONTINUOUS
10
0.919941
20
0.204409
11
0.92069
21
0.208176
0
LINE
8
BLACK
6
CONTINUOUS
10
0.92069
20
0.208176
11
0.922824
21
0.211369
0
LINE
8
BLACK
6
CONTINUOUS
10
0.922824
20
0.211369
11
0.926017
21
0.213503
0
LINE
8
BLACK
6
CONTINUOUS
10
0.926017
20
0.213503
11
0.929783
21
0.214252
0
LINE
8
BLACK
6
CONTINUOUS
10
0.929783
20
0.214252
11
0.965217
21
0.214252
0
LINE
8
BLACK
6
CONTINUOUS
10
0.965217
20
0.214252
11
0.968983
21
0.213503
0
LINE
8
BLACK
6
CONTINUOUS
10
0.872181
20
0.216361
11
0.874097
21
0.215081
0
LINE
8
BLACK
6
CONTINUOUS
10
0.874097
20
0.215081
11
0.875377
21
0.213165
0
LINE
8
BLACK
6
CONTINUOUS
10
0.875377
20
0.213165
11
0.875827
21
0.210906
0
LINE
8
BLACK
6
CONTINUOUS
10
0.875827
20
0.210906
11
0.875827
21
0.199094
0
LINE
8
BLACK
6
CONTINUOUS
10
0.875827
20
0.199094
11
0.875377
21
0.196835
0
LINE
8
BLACK
6
CONTINUOUS
10
0.875377
20
0.196835
11
0.874097
21
0.194919
0
LINE
8
BLACK
6
CONTINUOUS
10
0.874097
20
0.194919
11
0.872181
21
0.193639
0
LINE
8
BLACK
6
CONTINUOUS
10
0.872181
20
0.193639
11
0.869921
21
0.193189
0
LINE
8
BLACK
6
CONTINUOUS
10
0.869921
20
0.193189
11
0.804961
21
0.193189
0
LINE
8
BLACK
6
CONTINUOUS
10
0.804961
20
0.193189
11
0.802701
21
0.193639
0
LINE
8
BLACK
6
CONTINUOUS
10
0.802701
20
0.193639
11
0.800785
21
0.194919
0
LINE
8
BLACK
6
CONTINUOUS
10
0.800785
20
0.194919
11
0.799505
21
0.196835
0
LINE
8
BLACK
6
CONTINUOUS
10
0.799505
20
0.196835
11
0.799055
21
0.199094
0
LINE
8
BLACK
6
CONTINUOUS
10
0.799055
20
0.199094
11
0.799055
21
0.210906
0
LINE
8
BLACK
6
CONTINUOUS
10
0.799055
20
0.210906
11
0.799505
21
0.213165
0
LINE
8
BLACK
6
CONTINUOUS
10
0.799505
20
0.213165
11
0.800785
21
0.215081
0
LINE
8
BLACK
6
CONTINUOUS
10
0.800785
20
0.215081
11
0.802701
21
0.216361
0
LINE
8
BLACK
6
CONTINUOUS
10
0.802701
20
0.216361
11
0.804961
21
0.216811
0
LINE
8
BLACK
6
CONTINUOUS
10
0.804961
20
0.216811
11
0.869921
21
0.216811
0
LINE
8
BLACK
6
CONTINUOUS
10
0.869921
20
0.216811
11
0.872181
21
0.216361
0
LINE
8
BLACK
6
CONTINUOUS
10
0.677299
20
0.216361
11
0.679215
21
0.215081
0
LINE
8
BLACK
6
CONTINUOUS
10
0.679215
20
0.215081
11
0.680495
21
0.213165
0
LINE
8
BLACK
6
CONTINUOUS
10
0.680495
20
0.213165
11
0.680945
21
0.210906
0
LINE
8
BLACK
6
CONTINUOUS
10
0.680945
20
0.210906
11
0.680945
21
0.199094
0
LINE
8
BLACK
6
CONTINUOUS
10
0.680945
20
0.199094
11
0.680495
21
0.196835
0
LINE
8
BLACK
6
CONTINUOUS
10
0.680495
20
0.196835
11
0.679215
21
0.194919
0
LINE
8
BLACK
6
CONTINUOUS
10
0.679215
20
0.194919
11
0.677299
21
0.193639
0
LINE
8
BLACK
6
CONTINUOUS
10
0.677299
20
0.193639
11
0.675039
21
0.193189
0
LINE
8
BLACK
6
CONTINUOUS
10
0.675039
20
0.193189
11
0.610079
21
0.193189
0
LINE
8
BLACK
6
CONTINUOUS
10
0.610079
20
0.193189
11
0.607819
21
0.193639
0
LINE
8
BLACK
6
CONTINUOUS
10
0.607819
20
0.193639
11
0.605903
21
0.194919
0
LINE
8
BLACK
6
CONTINUOUS
10
0.605903
20
0.194919
11
0.604623
21
0.196835
0
LINE
8
BLACK
6
CONTINUOUS
10
0.604623
20
0.196835
11
0.604173
21
0.199094
0
LINE
8
BLACK
6
CONTINUOUS
10
0.604173
20
0.199094
11
0.604173
21
0.210906
0
LINE
8
BLACK
6
CONTINUOUS
10
0.604173
20
0.210906
11
0.604623
21
0.213165
0
LINE
8
BLACK
6
CONTINUOUS
10
0.604623
20
0.213165
11
0.605903
21
0.215081
0
LINE
8
BLACK
6
CONTINUOUS
10
0.605903
20
0.215081
11
0.607819
21
0.216361
0
LINE
8
BLACK
6
CONTINUOUS
10
0.607819
20
0.216361
11
0.610079
21
0.216811
0
LINE
8
BLACK
6
CONTINUOUS
10
0.610079
20
0.216811
11
0.675039
21
0.216811
0
LINE
8
BLACK
6
CONTINUOUS
10
0.675039
20
0.216811
11
0.677299
21
0.216361
0
LINE
8
BLACK
6
CONTINUOUS
10
0.677299
20
0.266361
11
0.679215
21
0.265081
0
LINE
8
BLACK
6
CONTINUOUS
10
0.679215
20
0.265081
11
0.680495
21
0.263165
0
LINE
8
BLACK
6
CONTINUOUS
10
0.680495
20
0.263165
11
0.680945
21
0.260906
0
LINE
8
BLACK
6
CONTINUOUS
10
0.680945
20
0.260906
11
0.680945
21
0.249094
0
LINE
8
BLACK
6
CONTINUOUS
10
0.680945
20
0.249094
11
0.680495
21
0.246835
0
LINE
8
BLACK
6
CONTINUOUS
10
0.680495
20
0.246835
11
0.679215
21
0.244919
0
LINE
8
BLACK
6
CONTINUOUS
10
0.679215
20
0.244919
11
0.677299
21
0.243639
0
LINE
8
BLACK
6
CONTINUOUS
10
0.677299
20
0.243639
11
0.675039
21
0.243189
0
LINE
8
BLACK
6
CONTINUOUS
10
0.675039
20
0.243189
11
0.610079
21
0.243189
0
LINE
8
BLACK
6
CONTINUOUS
10
0.610079
20
0.243189
11
0.607819
21
0.243639
0
LINE
8
BLACK
6
CONTINUOUS
10
0.607819
20
0.243639
11
0.605903
21
0.244919
0
LINE
8
BLACK
6
CONTINUOUS
10
0.605903
20
0.244919
11
0.604623
21
0.246835
0
LINE
8
BLACK
6
CONTINUOUS
10
0.604623
20
0.246835
11
0.604173
21
0.249094
0
LINE
8
BLACK
6
CONTINUOUS
10
0.604173
20
0.249094
11
0.604173
21
0.260906
0
LINE
8
BLACK
6
CONTINUOUS
10
0.604173
20
0.260906
11
0.604623
21
0.263165
0
LINE
8
BLACK
6
CONTINUOUS
10
0.604623
20
0.263165
11
0.605903
21
0.265081
0
LINE
8
BLACK
6
CONTINUOUS
10
0.605903
20
0.265081
11
0.607819
21
0.266361
0
LINE
8
BLACK
6
CONTINUOUS
10
0.607819
20
0.266361
11
0.610079
21
0.266811
0
LINE
8
BLACK
6
CONTINUOUS
10
0.610079
20
0.266811
11
0.675039
21
0.266811
0
LINE
8
BLACK
6
CONTINUOUS
10
0.675039
20
0.266811
11
0.677299
21
0.266361
0
LINE
8
BLACK
6
CONTINUOUS
10
0.872181
20
0.266361
11
0.874097
21
0.265081
0
LINE
8
BLACK
6
CONTINUOUS
10
0.874097
20
0.265081
11
0.875377
21
0.263165
0
LINE
8
BLACK
6
CONTINUOUS
10
0.875377
20
0.263165
11
0.875827
21
0.260906
0
LINE
8
BLACK
6
CONTINUOUS
10
0.875827
20
0.260906
11
0.875827
21
0.249094
0
LINE
8
BLACK
6
CONTINUOUS
10
0.875827
20
0.249094
11
0.875377
21
0.246835
0
LINE
8
BLACK
6
CONTINUOUS
10
0.875377
20
0.246835
11
0.874097
21
0.244919
0
LINE
8
BLACK
6
CONTINUOUS
10
0.874097
20
0.244919
11
0.872181
21
0.243639
0
LINE
8
BLACK
6
CONTINUOUS
10
0.872181
20
0.243639
11
0.869921
21
0.243189
0
LINE
8
BLACK
6
CONTINUOUS
10
0.869921
20
0.243189
11
0.804961
21
0.243189
0
LINE
8
BLACK
6
CONTINUOUS
10
0.804961
20
0.243189
11
0.802701
21
0.243639
0
LINE
8
BLACK
6
CONTINUOUS
10
0.802701
20
0.243639
11
0.800785
21
0.244919
0
LINE
8
BLACK
6
CONTINUOUS
10
0.800785
20
0.244919
11
0.799505
21
0.246835
0
LINE
8
BLACK
6
CONTINUOUS
10
0.799505
20
0.246835
11
0.799055
21
0.249094
0
LINE
8
BLACK
6
CONTINUOUS
10
0.799055
20
0.249094
11
0.799055
21
0.260906
0
LINE
8
BLACK
6
CONTINUOUS
10
0.799055
20
0.260906
11
0.799505
21
0.263165
0
LINE
8
BLACK
6
CONTINUOUS
10
0.799505
20
0.263165
11
0.800785
21
0.265081
0
LINE
8
BLACK
6
CONTINUOUS
10
0.800785
20
0.265081
11
0.802701
21
0.266361
0
LINE
8
BLACK
6
CONTINUOUS
10
0.802701
20
0.266361
11
0.804961
21
0.266811
0
LINE
8
BLACK
6
CONTINUOUS
10
0.804961
20
0.266811
11
0.869921
21
0.266811
0
LINE
8
BLACK
6
CONTINUOUS
10
0.869921
20
0.266811
11
0.872181
21
0.266361
0
LINE
8
BLACK
6
CONTINUOUS
10
0.968983
20
0.285353
11
0.972176
21
0.28322
0
LINE
8
BLACK
6
CONTINUOUS
10
0.972176
20
0.28322
11
0.97431
21
0.280026
0
LINE
8
BLACK
6
CONTINUOUS
10
0.97431
20
0.280026
11
0.975059
21
0.27626
0
LINE
8
BLACK
6
CONTINUOUS
10
0.975059
20
0.27626
11
0.975059
21
0.255591
0
LINE
8
BLACK
6
CONTINUOUS
10
0.975059
20
0.255591
11
0.97431
21
0.251824
0
LINE
8
BLACK
6
CONTINUOUS
10
0.97431
20
0.251824
11
0.972176
21
0.248631
0
LINE
8
BLACK
6
CONTINUOUS
10
0.972176
20
0.248631
11
0.968983
21
0.246497
0
LINE
8
BLACK
6
CONTINUOUS
10
0.968983
20
0.246497
11
0.965217
21
0.245748
0
LINE
8
BLACK
6
CONTINUOUS
10
0.965217
20
0.245748
11
0.929783
21
0.245748
0
LINE
8
BLACK
6
CONTINUOUS
10
0.929783
20
0.245748
11
0.926017
21
0.246497
0
LINE
8
BLACK
6
CONTINUOUS
10
0.926017
20
0.246497
11
0.922824
21
0.248631
0
LINE
8
BLACK
6
CONTINUOUS
10
0.922824
20
0.248631
11
0.92069
21
0.251824
0
LINE
8
BLACK
6
CONTINUOUS
10
0.92069
20
0.251824
11
0.919941
21
0.255591
0
LINE
8
BLACK
6
CONTINUOUS
10
0.919941
20
0.255591
11
0.919941
21
0.27626
0
LINE
8
BLACK
6
CONTINUOUS
10
0.919941
20
0.27626
11
0.92069
21
0.280026
0
LINE
8
BLACK
6
CONTINUOUS
10
0.92069
20
0.280026
11
0.922824
21
0.28322
0
LINE
8
BLACK
6
CONTINUOUS
10
0.922824
20
0.28322
11
0.926017
21
0.285353
0
LINE
8
BLACK
6
CONTINUOUS
10
0.926017
20
0.285353
11
0.929783
21
0.286102
0
LINE
8
BLACK
6
CONTINUOUS
10
0.929783
20
0.286102
11
0.965217
21
0.286102
0
LINE
8
BLACK
6
CONTINUOUS
10
0.965217
20
0.286102
11
0.968983
21
0.285353
0
LINE
8
BLACK
6
CONTINUOUS
10
0.677299
20
0.316361
11
0.679215
21
0.315081
0
LINE
8
BLACK
6
CONTINUOUS
10
0.679215
20
0.315081
11
0.680495
21
0.313165
0
LINE
8
BLACK
6
CONTINUOUS
10
0.680495
20
0.313165
11
0.680945
21
0.310906
0
LINE
8
BLACK
6
CONTINUOUS
10
0.680945
20
0.310906
11
0.680945
21
0.299094
0
LINE
8
BLACK
6
CONTINUOUS
10
0.680945
20
0.299094
11
0.680495
21
0.296835
0
LINE
8
BLACK
6
CONTINUOUS
10
0.680495
20
0.296835
11
0.679215
21
0.294919
0
LINE
8
BLACK
6
CONTINUOUS
10
0.679215
20
0.294919
11
0.677299
21
0.293639
0
LINE
8
BLACK
6
CONTINUOUS
10
0.677299
20
0.293639
11
0.675039
21
0.293189
0
LINE
8
BLACK
6
CONTINUOUS
10
0.675039
20
0.293189
11
0.610079
21
0.293189
0
LINE
8
BLACK
6
CONTINUOUS
10
0.610079
20
0.293189
11
0.607819
21
0.293639
0
LINE
8
BLACK
6
CONTINUOUS
10
0.607819
20
0.293639
11
0.605903
21
0.294919
0
LINE
8
BLACK
6
CONTINUOUS
10
0.605903
20
0.294919
11
0.604623
21
0.296835
0
LINE
8
BLACK
6
CONTINUOUS
10
0.604623
20
0.296835
11
0.604173
21
0.299094
0
LINE
8
BLACK
6
CONTINUOUS
10
0.604173
20
0.299094
11
0.604173
21
0.310906
0
LINE
8
BLACK
6
CONTINUOUS
10
0.604173
20
0.310906
11
0.604623
21
0.313165
0
LINE
8
BLACK
6
CONTINUOUS
10
0.604623
20
0.313165
11
0.605903
21
0.315081
0
LINE
8
BLACK
6
CONTINUOUS
10
0.605903
20
0.315081
11
0.607819
21
0.316361
0
LINE
8
BLACK
6
CONTINUOUS
10
0.607819
20
0.316361
11
0.610079
21
0.316811
0
LINE
8
BLACK
6
CONTINUOUS
10
0.610079
20
0.316811
11
0.675039
21
0.316811
0
LINE
8
BLACK
6
CONTINUOUS
10
0.675039
20
0.316811
11
0.677299
21
0.316361
0
LINE
8
BLACK
6
CONTINUOUS
10
0.872181
20
0.316361
11
0.874097
21
0.315081
0
LINE
8
BLACK
6
CONTINUOUS
10
0.874097
20
0.315081
11
0.875377
21
0.313165
0
LINE
8
BLACK
6
CONTINUOUS
10
0.875377
20
0.313165
11
0.875827
21
0.310906
0
LINE
8
BLACK
6
CONTINUOUS
10
0.875827
20
0.310906
11
0.875827
21
0.299094
0
LINE
8
BLACK
6
CONTINUOUS
10
0.875827
20
0.299094
11
0.875377
21
0.296835
0
LINE
8
BLACK
6
CONTINUOUS
10
0.875377
20
0.296835
11
0.874097
21
0.294919
0
LINE
8
BLACK
6
CONTINUOUS
10
0.874097
20
0.294919
11
0.872181
21
0.293639
0
LINE
8
BLACK
6
CONTINUOUS
10
0.872181
20
0.293639
11
0.869921
21
0.293189
0
LINE
8
BLACK
6
CONTINUOUS
10
0.869921
20
0.293189
11
0.804961
21
0.293189
0
LINE
8
BLACK
6
CONTINUOUS
10
0.804961
20
0.293189
11
0.802701
21
0.293639
0
LINE
8
BLACK
6
CONTINUOUS
10
0.802701
20
0.293639
11
0.800785
21
0.294919
0
LINE
8
BLACK
6
CONTINUOUS
10
0.800785
20
0.294919
11
0.799505
21
0.296835
0
LINE
8
BLACK
6
CONTINUOUS
10
0.799505
20
0.296835
11
0.799055
21
0.299094
0
LINE
8
BLACK
6
CONTINUOUS
10
0.799055
20
0.299094
11
0.799055
21
0.310906
0
LINE
8
BLACK
6
CONTINUOUS
10
0.799055
20
0.310906
11
0.799505
21
0.313165
0
LINE
8
BLACK
6
CONTINUOUS
10
0.799505
20
0.313165
11
0.800785
21
0.315081
0
LINE
8
BLACK
6
CONTINUOUS
10
0.800785
20
0.315081
11
0.802701
21
0.316361
0
LINE
8
BLACK
6
CONTINUOUS
10
0.802701
20
0.316361
11
0.804961
21
0.316811
0
LINE
8
BLACK
6
CONTINUOUS
10
0.804961
20
0.316811
11
0.869921
21
0.316811
0
LINE
8
BLACK
6
CONTINUOUS
10
0.869921
20
0.316811
11
0.872181
21
0.316361
0
LINE
8
BLACK
6
CONTINUOUS
10
0.968983
20
0.353503
11
0.972176
21
0.351369
0
LINE
8
BLACK
6
CONTINUOUS
10
0.972176
20
0.351369
11
0.97431
21
0.348176
0
LINE
8
BLACK
6
CONTINUOUS
10
0.97431
20
0.348176
11
0.975059
21
0.344409
0
LINE
8
BLACK
6
CONTINUOUS
10
0.975059
20
0.344409
11
0.975059
21
0.32374
0
LINE
8
BLACK
6
CONTINUOUS
10
0.975059
20
0.32374
11
0.97431
21
0.319974
0
LINE
8
BLACK
6
CONTINUOUS
10
0.97431
20
0.319974
11
0.972176
21
0.31678
0
LINE
8
BLACK
6
CONTINUOUS
10
0.972176
20
0.31678
11
0.968983
21
0.314647
0
LINE
8
BLACK
6
CONTINUOUS
10
0.968983
20
0.314647
11
0.965217
21
0.313898
0
LINE
8
BLACK
6
CONTINUOUS
10
0.965217
20
0.313898
11
0.929783
21
0.313898
0
LINE
8
BLACK
6
CONTINUOUS
10
0.929783
20
0.313898
11
0.926017
21
0.314647
0
LINE
8
BLACK
6
CONTINUOUS
10
0.926017
20
0.314647
11
0.922824
21
0.31678
0
LINE
8
BLACK
6
CONTINUOUS
10
0.922824
20
0.31678
11
0.92069
21
0.319974
0
LINE
8
BLACK
6
CONTINUOUS
10
0.92069
20
0.319974
11
0.919941
21
0.32374
0
LINE
8
BLACK
6
CONTINUOUS
10
0.919941
20
0.32374
11
0.919941
21
0.344409
0
LINE
8
BLACK
6
CONTINUOUS
10
0.919941
20
0.344409
11
0.92069
21
0.348176
0
LINE
8
BLACK
6
CONTINUOUS
10
0.92069
20
0.348176
11
0.922824
21
0.351369
0
LINE
8
BLACK
6
CONTINUOUS
10
0.922824
20
0.351369
11
0.926017
21
0.353503
0
LINE
8
BLACK
6
CONTINUOUS
10
0.926017
20
0.353503
11
0.929783
21
0.354252
0
LINE
8
BLACK
6
CONTINUOUS
10
0.929783
20
0.354252
11
0.965217
21
0.354252
0
LINE
8
BLACK
6
CONTINUOUS
10
0.965217
20
0.354252
11
0.968983
21
0.353503
0
LINE
8
BLACK
6
CONTINUOUS
10
0.677299
20
0.366361
11
0.679215
21
0.365081
0
LINE
8
BLACK
6
CONTINUOUS
10
0.679215
20
0.365081
11
0.680495
21
0.363165
0
LINE
8
BLACK
6
CONTINUOUS
10
0.680495
20
0.363165
11
0.680945
21
0.360906
0
LINE
8
BLACK
6
CONTINUOUS
10
0.680945
20
0.360906
11
0.680945
21
0.349094
0
LINE
8
BLACK
6
CONTINUOUS
10
0.680945
20
0.349094
11
0.680495
21
0.346835
0
LINE
8
BLACK
6
CONTINUOUS
10
0.680495
20
0.346835
11
0.679215
21
0.344919
0
LINE
8
BLACK
6
CONTINUOUS
10
0.679215
20
0.344919
11
0.677299
21
0.343639
0
LINE
8
BLACK
6
CONTINUOUS
10
0.677299
20
0.343639
11
0.675039
21
0.343189
0
LINE
8
BLACK
6
CONTINUOUS
10
0.675039
20
0.343189
11
0.610079
21
0.343189
0
LINE
8
BLACK
6
CONTINUOUS
10
0.610079
20
0.343189
11
0.607819
21
0.343639
0
LINE
8
BLACK
6
CONTINUOUS
10
0.607819
20
0.343639
11
0.605903
21
0.344919
0
LINE
8
BLACK
6
CONTINUOUS
10
0.605903
20
0.344919
11
0.604623
21
0.346835
0
LINE
8
BLACK
6
CONTINUOUS
10
0.604623
20
0.346835
11
0.604173
21
0.349094
0
LINE
8
BLACK
6
CONTINUOUS
10
0.604173
20
0.349094
11
0.604173
21
0.360906
0
LINE
8
BLACK
6
CONTINUOUS
10
0.604173
20
0.360906
11
0.604623
21
0.363165
0
LINE
8
BLACK
6
CONTINUOUS
10
0.604623
20
0.363165
11
0.605903
21
0.365081
0
LINE
8
BLACK
6
CONTINUOUS
10
0.605903
20
0.365081
11
0.607819
21
0.366361
0
LINE
8
BLACK
6
CONTINUOUS
10
0.607819
20
0.366361
11
0.610079
21
0.366811
0
LINE
8
BLACK
6
CONTINUOUS
10
0.610079
20
0.366811
11
0.675039
21
0.366811
0
LINE
8
BLACK
6
CONTINUOUS
10
0.675039
20
0.366811
11
0.677299
21
0.366361
0
LINE
8
BLACK
6
CONTINUOUS
10
0.872181
20
0.366361
11
0.874097
21
0.365081
0
LINE
8
BLACK
6
CONTINUOUS
10
0.874097
20
0.365081
11
0.875377
21
0.363165
0
LINE
8
BLACK
6
CONTINUOUS
10
0.875377
20
0.363165
11
0.875827
21
0.360906
0
LINE
8
BLACK
6
CONTINUOUS
10
0.875827
20
0.360906
11
0.875827
21
0.349094
0
LINE
8
BLACK
6
CONTINUOUS
10
0.875827
20
0.349094
11
0.875377
21
0.346835
0
LINE
8
BLACK
6
CONTINUOUS
10
0.875377
20
0.346835
11
0.874097
21
0.344919
0
LINE
8
BLACK
6
CONTINUOUS
10
0.874097
20
0.344919
11
0.872181
21
0.343639
0
LINE
8
BLACK
6
CONTINUOUS
10
0.872181
20
0.343639
11
0.869921
21
0.343189
0
LINE
8
BLACK
6
CONTINUOUS
10
0.869921
20
0.343189
11
0.804961
21
0.343189
0
LINE
8
BLACK
6
CONTINUOUS
10
0.804961
20
0.343189
11
0.802701
21
0.343639
0
LINE
8
BLACK
6
CONTINUOUS
10
0.802701
20
0.343639
11
0.800785
21
0.344919
0
LINE
8
BLACK
6
CONTINUOUS
10
0.800785
20
0.344919
11
0.799505
21
0.346835
0
LINE
8
BLACK
6
CONTINUOUS
10
0.799505
20
0.346835
11
0.799055
21
0.349094
0
LINE
8
BLACK
6
CONTINUOUS
10
0.799055
20
0.349094
11
0.799055
21
0.360906
0
LINE
8
BLACK
6
CONTINUOUS
10
0.799055
20
0.360906
11
0.799505
21
0.363165
0
LINE
8
BLACK
6
CONTINUOUS
10
0.799505
20
0.363165
11
0.800785
21
0.365081
0
LINE
8
BLACK
6
CONTINUOUS
10
0.800785
20
0.365081
11
0.802701
21
0.366361
0
LINE
8
BLACK
6
CONTINUOUS
10
0.802701
20
0.366361
11
0.804961
21
0.366811
0
LINE
8
BLACK
6
CONTINUOUS
10
0.804961
20
0.366811
11
0.869921
21
0.366811
0
LINE
8
BLACK
6
CONTINUOUS
10
0.869921
20
0.366811
11
0.872181
21
0.366361
0
LINE
8
BLACK
6
CONTINUOUS
10
0.968983
20
0.425353
11
0.972176
21
0.42322
0
LINE
8
BLACK
6
CONTINUOUS
10
0.972176
20
0.42322
11
0.97431
21
0.420026
0
LINE
8
BLACK
6
CONTINUOUS
10
0.97431
20
0.420026
11
0.975059
21
0.41626
0
LINE
8
BLACK
6
CONTINUOUS
10
0.975059
20
0.41626
11
0.975059
21
0.395591
0
LINE
8
BLACK
6
CONTINUOUS
10
0.975059
20
0.395591
11
0.97431
21
0.391824
0
LINE
8
BLACK
6
CONTINUOUS
10
0.97431
20
0.391824
11
0.972176
21
0.388631
0
LINE
8
BLACK
6
CONTINUOUS
10
0.972176
20
0.388631
11
0.968983
21
0.386497
0
LINE
8
BLACK
6
CONTINUOUS
10
0.968983
20
0.386497
11
0.965217
21
0.385748
0
LINE
8
BLACK
6
CONTINUOUS
10
0.965217
20
0.385748
11
0.929783
21
0.385748
0
LINE
8
BLACK
6
CONTINUOUS
10
0.929783
20
0.385748
11
0.926017
21
0.386497
0
LINE
8
BLACK
6
CONTINUOUS
10
0.926017
20
0.386497
11
0.922824
21
0.388631
0
LINE
8
BLACK
6
CONTINUOUS
10
0.922824
20
0.388631
11
0.92069
21
0.391824
0
LINE
8
BLACK
6
CONTINUOUS
10
0.92069
20
0.391824
11
0.919941
21
0.395591
0
LINE
8
BLACK
6
CONTINUOUS
10
0.919941
20
0.395591
11
0.919941
21
0.41626
0
LINE
8
BLACK
6
CONTINUOUS
10
0.919941
20
0.41626
11
0.92069
21
0.420026
0
LINE
8
BLACK
6
CONTINUOUS
10
0.92069
20
0.420026
11
0.922824
21
0.42322
0
LINE
8
BLACK
6
CONTINUOUS
10
0.922824
20
0.42322
11
0.926017
21
0.425353
0
LINE
8
BLACK
6
CONTINUOUS
10
0.926017
20
0.425353
11
0.929783
21
0.426102
0
LINE
8
BLACK
6
CONTINUOUS
10
0.929783
20
0.426102
11
0.965217
21
0.426102
0
LINE
8
BLACK
6
CONTINUOUS
10
0.965217
20
0.426102
11
0.968983
21
0.425353
0
LINE
8
BLACK
6
CONTINUOUS
10
0.721483
20
0.446003
11
0.724676
21
0.443869
0
LINE
8
BLACK
6
CONTINUOUS
10
0.724676
20
0.443869
11
0.72681
21
0.440676
0
LINE
8
BLACK
6
CONTINUOUS
10
0.72681
20
0.440676
11
0.727559
21
0.436909
0
LINE
8
BLACK
6
CONTINUOUS
10
0.727559
20
0.436909
11
0.727559
21
0.41624
0
LINE
8
BLACK
6
CONTINUOUS
10
0.727559
20
0.41624
11
0.72681
21
0.412474
0
LINE
8
BLACK
6
CONTINUOUS
10
0.72681
20
0.412474
11
0.724676
21
0.40928
0
LINE
8
BLACK
6
CONTINUOUS
10
0.724676
20
0.40928
11
0.721483
21
0.407147
0
LINE
8
BLACK
6
CONTINUOUS
10
0.721483
20
0.407147
11
0.717717
21
0.406398
0
LINE
8
BLACK
6
CONTINUOUS
10
0.717717
20
0.406398
11
0.682283
21
0.406398
0
LINE
8
BLACK
6
CONTINUOUS
10
0.682283
20
0.406398
11
0.678517
21
0.407147
0
LINE
8
BLACK
6
CONTINUOUS
10
0.678517
20
0.407147
11
0.675324
21
0.40928
0
LINE
8
BLACK
6
CONTINUOUS
10
0.675324
20
0.40928
11
0.67319
21
0.412474
0
LINE
8
BLACK
6
CONTINUOUS
10
0.67319
20
0.412474
11
0.672441
21
0.41624
0
LINE
8
BLACK
6
CONTINUOUS
10
0.672441
20
0.41624
11
0.672441
21
0.436909
0
LINE
8
BLACK
6
CONTINUOUS
10
0.672441
20
0.436909
11
0.67319
21
0.440676
0
LINE
8
BLACK
6
CONTINUOUS
10
0.67319
20
0.440676
11
0.675324
21
0.443869
0
LINE
8
BLACK
6
CONTINUOUS
10
0.675324
20
0.443869
11
0.678517
21
0.446003
0
LINE
8
BLACK
6
CONTINUOUS
10
0.678517
20
0.446003
11
0.682283
21
0.446752
0
LINE
8
BLACK
6
CONTINUOUS
10
0.682283
20
0.446752
11
0.717717
21
0.446752
0
LINE
8
BLACK
6
CONTINUOUS
10
0.717717
20
0.446752
11
0.721483
21
0.446003
0
LINE
8
BLACK
6
CONTINUOUS
10
0.811483
20
0.446003
11
0.814676
21
0.443869
0
LINE
8
BLACK
6
CONTINUOUS
10
0.814676
20
0.443869
11
0.81681
21
0.440676
0
LINE
8
BLACK
6
CONTINUOUS
10
0.81681
20
0.440676
11
0.817559
21
0.436909
0
LINE
8
BLACK
6
CONTINUOUS
10
0.817559
20
0.436909
11
0.817559
21
0.41624
0
LINE
8
BLACK
6
CONTINUOUS
10
0.817559
20
0.41624
11
0.81681
21
0.412474
0
LINE
8
BLACK
6
CONTINUOUS
10
0.81681
20
0.412474
11
0.814676
21
0.40928
0
LINE
8
BLACK
6
CONTINUOUS
10
0.814676
20
0.40928
11
0.811483
21
0.407147
0
LINE
8
BLACK
6
CONTINUOUS
10
0.811483
20
0.407147
11
0.807717
21
0.406398
0
LINE
8
BLACK
6
CONTINUOUS
10
0.807717
20
0.406398
11
0.772283
21
0.406398
0
LINE
8
BLACK
6
CONTINUOUS
10
0.772283
20
0.406398
11
0.768517
21
0.407147
0
LINE
8
BLACK
6
CONTINUOUS
10
0.768517
20
0.407147
11
0.765324
21
0.40928
0
LINE
8
BLACK
6
CONTINUOUS
10
0.765324
20
0.40928
11
0.76319
21
0.412474
0
LINE
8
BLACK
6
CONTINUOUS
10
0.76319
20
0.412474
11
0.762441
21
0.41624
0
LINE
8
BLACK
6
CONTINUOUS
10
0.762441
20
0.41624
11
0.762441
21
0.436909
0
LINE
8
BLACK
6
CONTINUOUS
10
0.762441
20
0.436909
11
0.76319
21
0.440676
0
LINE
8
BLACK
6
CONTINUOUS
10
0.76319
20
0.440676
11
0.765324
21
0.443869
0
LINE
8
BLACK
6
CONTINUOUS
10
0.765324
20
0.443869
11
0.768517
21
0.446003
0
LINE
8
BLACK
6
CONTINUOUS
10
0.768517
20
0.446003
11
0.772283
21
0.446752
0
LINE
8
BLACK
6
CONTINUOUS
10
0.772283
20
0.446752
11
0.807717
21
0.446752
0
LINE
8
BLACK
6
CONTINUOUS
10
0.807717
20
0.446752
11
0.811483
21
0.446003
0
LINE
8
BLACK
6
CONTINUOUS
10
0.545591
20
0.426535
11
0.494409
21
0.426535
0
LINE
8
BLACK
6
CONTINUOUS
10
0.494409
20
0.426535
11
0.494409
21
0.493465
0
LINE
8
BLACK
6
CONTINUOUS
10
0.494409
20
0.493465
11
0.545591
21
0.493465
0
LINE
8
BLACK
6
CONTINUOUS
10
0.545591
20
0.493465
11
0.545591
21
0.426535
0
LINE
8
BLACK
6
CONTINUOUS
10
0.407795
20
0.426535
11
0.356614
21
0.426535
0
LINE
8
BLACK
6
CONTINUOUS
10
0.356614
20
0.426535
11
0.356614
21
0.493465
0
LINE
8
BLACK
6
CONTINUOUS
10
0.356614
20
0.493465
11
0.407795
21
0.493465
0
LINE
8
BLACK
6
CONTINUOUS
10
0.407795
20
0.493465
11
0.407795
21
0.426535
0
LINE
8
BLACK
6
CONTINUOUS
10
0.721483
20
0.517853
11
0.724676
21
0.51572
0
LINE
8
BLACK
6
CONTINUOUS
10
0.724676
20
0.51572
11
0.72681
21
0.512526
0
LINE
8
BLACK
6
CONTINUOUS
10
0.72681
20
0.512526
11
0.727559
21
0.50876
0
LINE
8
BLACK
6
CONTINUOUS
10
0.727559
20
0.50876
11
0.727559
21
0.488091
0
LINE
8
BLACK
6
CONTINUOUS
10
0.727559
20
0.488091
11
0.72681
21
0.484324
0
LINE
8
BLACK
6
CONTINUOUS
10
0.72681
20
0.484324
11
0.724676
21
0.481131
0
LINE
8
BLACK
6
CONTINUOUS
10
0.724676
20
0.481131
11
0.721483
21
0.478997
0
LINE
8
BLACK
6
CONTINUOUS
10
0.721483
20
0.478997
11
0.717717
21
0.478248
0
LINE
8
BLACK
6
CONTINUOUS
10
0.717717
20
0.478248
11
0.682283
21
0.478248
0
LINE
8
BLACK
6
CONTINUOUS
10
0.682283
20
0.478248
11
0.678517
21
0.478997
0
LINE
8
BLACK
6
CONTINUOUS
10
0.678517
20
0.478997
11
0.675324
21
0.481131
0
LINE
8
BLACK
6
CONTINUOUS
10
0.675324
20
0.481131
11
0.67319
21
0.484324
0
LINE
8
BLACK
6
CONTINUOUS
10
0.67319
20
0.484324
11
0.672441
21
0.488091
0
LINE
8
BLACK
6
CONTINUOUS
10
0.672441
20
0.488091
11
0.672441
21
0.50876
0
LINE
8
BLACK
6
CONTINUOUS
10
0.672441
20
0.50876
11
0.67319
21
0.512526
0
LINE
8
BLACK
6
CONTINUOUS
10
0.67319
20
0.512526
11
0.675324
21
0.51572
0
LINE
8
BLACK
6
CONTINUOUS
10
0.675324
20
0.51572
11
0.678517
21
0.517853
0
LINE
8
BLACK
6
CONTINUOUS
10
0.678517
20
0.517853
11
0.682283
21
0.518602
0
LINE
8
BLACK
6
CONTINUOUS
10
0.682283
20
0.518602
11
0.717717
21
0.518602
0
LINE
8
BLACK
6
CONTINUOUS
10
0.717717
20
0.518602
11
0.721483
21
0.517853
0
LINE
8
BLACK
6
CONTINUOUS
10
0.811483
20
0.517853
11
0.814676
21
0.51572
0
LINE
8
BLACK
6
CONTINUOUS
10
0.814676
20
0.51572
11
0.81681
21
0.512526
0
LINE
8
BLACK
6
CONTINUOUS
10
0.81681
20
0.512526
11
0.817559
21
0.50876
0
LINE
8
BLACK
6
CONTINUOUS
10
0.817559
20
0.50876
11
0.817559
21
0.488091
0
LINE
8
BLACK
6
CONTINUOUS
10
0.817559
20
0.488091
11
0.81681
21
0.484324
0
LINE
8
BLACK
6
CONTINUOUS
10
0.81681
20
0.484324
11
0.814676
21
0.481131
0
LINE
8
BLACK
6
CONTINUOUS
10
0.814676
20
0.481131
11
0.811483
21
0.478997
0
LINE
8
BLACK
6
CONTINUOUS
10
0.811483
20
0.478997
11
0.807717
21
0.478248
0
LINE
8
BLACK
6
CONTINUOUS
10
0.807717
20
0.478248
11
0.772283
21
0.478248
0
LINE
8
BLACK
6
CONTINUOUS
10
0.772283
20
0.478248
11
0.768517
21
0.478997
0
LINE
8
BLACK
6
CONTINUOUS
10
0.768517
20
0.478997
11
0.765324
21
0.481131
0
LINE
8
BLACK
6
CONTINUOUS
10
0.765324
20
0.481131
11
0.76319
21
0.484324
0
LINE
8
BLACK
6
CONTINUOUS
10
0.76319
20
0.484324
11
0.762441
21
0.488091
0
LINE
8
BLACK
6
CONTINUOUS
10
0.762441
20
0.488091
11
0.762441
21
0.50876
0
LINE
8
BLACK
6
CONTINUOUS
10
0.762441
20
0.50876
11
0.76319
21
0.512526
0
LINE
8
BLACK
6
CONTINUOUS
10
0.76319
20
0.512526
11
0.765324
21
0.51572
0
LINE
8
BLACK
6
CONTINUOUS
10
0.765324
20
0.51572
11
0.768517
21
0.517853
0
LINE
8
BLACK
6
CONTINUOUS
10
0.768517
20
0.517853
11
0.772283
21
0.518602
0
LINE
8
BLACK
6
CONTINUOUS
10
0.772283
20
0.518602
11
0.807717
21
0.518602
0
LINE
8
BLACK
6
CONTINUOUS
10
0.807717
20
0.518602
11
0.811483
21
0.517853
  0
ENDSEC
  0
EOF
