  0
SECTION
  2
HEADER
  9
$ANGBASE
  50
0.0
  9
$ANGDIR
  70
1
  9
$MEASUREMENT
  70
0
  0
ENDSEC
  0
SECTION
  2
TABLES
  0
TABLE
  2
LTYPE
  70
4
  0
LTYPE
  5
40F
  2
CONTINUOUS
  70
0
  3
Solid line
  72
65
  73
0
  40
0.0
  0
LTYPE
  5
410
  2
DASHDOT
 70
0
  3
Dash Dot ____ _ ____ _
 72
65
 73
4
 40
2.0
 49
1.25
 49
-0.25
 49
0.25
 49
-0.25
  0
LTYPE
  5
411
  2
DASHED
 70
0
  3
Dashed __ __ __ __ __
 72
65
 73
2
 40
0.75
 49
0.5
 49
-0.25
  0
LTYPE
  5
43B
  2
DOTTED
 70
0
  3
Dotted .  .  .  .
 72
65
 73
2
 40
0.2
 49
0.0
 49
-0.2
  0
ENDTAB
  0
TABLE
  2
STYLE
  70
4
  0
STYLE
  2
KICAD
  70
0
  40
0
  41
1
  42
1
  50
0
  71
0
  3
isocp.shx
  0
STYLE
  2
KICADB
  70
0
  40
0
  41
1
  42
1
  50
0
  71
0
  3
isocp.shx
  0
STYLE
  2
KICADI
  70
0
  40
0
  41
1
  42
1
  50
15
  71
0
  3
isocp.shx
  0
STYLE
  2
KICADBI
  70
0
  40
0
  41
1
  42
1
  50
15
  71
0
  3
isocp.shx
  0
ENDTAB
  0
TABLE
  2
LAYER
  70
1
  0
LAYER
  2
BLACK
  70
0
  62
7
  6
CONTINUOUS
  0
ENDTAB
  0
ENDSEC
  0
SECTION
  2
ENTITIES
0
LINE
8
BLACK
6
CONTINUOUS
10
0.692262
20
0.079398
11
0.692953
21
0.0775
0
LINE
8
BLACK
6
CONTINUOUS
10
0.692953
20
0.0775
11
0.692953
21
0.0375
0
LINE
8
BLACK
6
CONTINUOUS
10
0.692953
20
0.0375
11
0.692885
21
0.0371165
0
LINE
8
BLACK
6
CONTINUOUS
10
0.692885
20
0.0371165
11
0.692908
21
0.0369872
0
LINE
8
BLACK
6
CONTINUOUS
10
0.692908
20
0.0369872
11
0.692842
21
0.0368736
0
LINE
8
BLACK
6
CONTINUOUS
10
0.692842
20
0.0368736
11
0.692775
21
0.0364901
0
LINE
8
BLACK
6
CONTINUOUS
10
0.692775
20
0.0364901
11
0.692282
21
0.0359024
0
LINE
8
BLACK
6
CONTINUOUS
10
0.692282
20
0.0359024
11
0.691898
21
0.0352381
0
LINE
8
BLACK
6
CONTINUOUS
10
0.691898
20
0.0352381
11
0.691648
21
0.035147
0
LINE
8
BLACK
6
CONTINUOUS
10
0.691648
20
0.035147
11
0.691476
21
0.0349428
0
LINE
8
BLACK
6
CONTINUOUS
10
0.691476
20
0.0349428
11
0.690721
21
0.0348096
0
LINE
8
BLACK
6
CONTINUOUS
10
0.690721
20
0.0348096
11
0.69
21
0.0345472
0
LINE
8
BLACK
6
CONTINUOUS
10
0.69
20
0.0345472
11
0.63
21
0.0345472
0
LINE
8
BLACK
6
CONTINUOUS
10
0.63
20
0.0345472
11
0.629616
21
0.0346149
0
LINE
8
BLACK
6
CONTINUOUS
10
0.629616
20
0.0346149
11
0.629487
21
0.0345921
0
LINE
8
BLACK
6
CONTINUOUS
10
0.629487
20
0.0345921
11
0.629374
21
0.0346577
0
LINE
8
BLACK
6
CONTINUOUS
10
0.629374
20
0.0346577
11
0.62899
21
0.0347253
0
LINE
8
BLACK
6
CONTINUOUS
10
0.62899
20
0.0347253
11
0.628402
21
0.0352185
0
LINE
8
BLACK
6
CONTINUOUS
10
0.628402
20
0.0352185
11
0.627738
21
0.035602
0
LINE
8
BLACK
6
CONTINUOUS
10
0.627738
20
0.035602
11
0.627647
21
0.0358524
0
LINE
8
BLACK
6
CONTINUOUS
10
0.627647
20
0.0358524
11
0.627443
21
0.0360236
0
LINE
8
BLACK
6
CONTINUOUS
10
0.627443
20
0.0360236
11
0.62731
21
0.0367792
0
LINE
8
BLACK
6
CONTINUOUS
10
0.62731
20
0.0367792
11
0.627047
21
0.0375
0
LINE
8
BLACK
6
CONTINUOUS
10
0.627047
20
0.0375
11
0.627047
21
0.0775
0
LINE
8
BLACK
6
CONTINUOUS
10
0.627047
20
0.0775
11
0.627225
21
0.0785099
0
LINE
8
BLACK
6
CONTINUOUS
10
0.627225
20
0.0785099
11
0.628524
21
0.0800572
0
LINE
8
BLACK
6
CONTINUOUS
10
0.628524
20
0.0800572
11
0.630513
21
0.0804079
0
LINE
8
BLACK
6
CONTINUOUS
10
0.630513
20
0.0804079
11
0.632262
21
0.079398
0
LINE
8
BLACK
6
CONTINUOUS
10
0.632262
20
0.079398
11
0.632953
21
0.0775
0
LINE
8
BLACK
6
CONTINUOUS
10
0.632953
20
0.0775
11
0.632953
21
0.0404528
0
LINE
8
BLACK
6
CONTINUOUS
10
0.632953
20
0.0404528
11
0.687047
21
0.0404528
0
LINE
8
BLACK
6
CONTINUOUS
10
0.687047
20
0.0404528
11
0.687047
21
0.0775
0
LINE
8
BLACK
6
CONTINUOUS
10
0.687047
20
0.0775
11
0.687225
21
0.0785099
0
LINE
8
BLACK
6
CONTINUOUS
10
0.687225
20
0.0785099
11
0.688524
21
0.0800572
0
LINE
8
BLACK
6
CONTINUOUS
10
0.688524
20
0.0800572
11
0.690513
21
0.0804079
0
LINE
8
BLACK
6
CONTINUOUS
10
0.690513
20
0.0804079
11
0.692262
21
0.079398
0
LINE
8
BLACK
6
CONTINUOUS
10
0.685432
20
0.0607179
11
0.686062
21
0.0591976
0
LINE
8
BLACK
6
CONTINUOUS
10
0.686062
20
0.0591976
11
0.685432
21
0.0576774
0
LINE
8
BLACK
6
CONTINUOUS
10
0.685432
20
0.0576774
11
0.683912
21
0.0570476
0
LINE
8
BLACK
6
CONTINUOUS
10
0.683912
20
0.0570476
11
0.675743
21
0.0570476
0
LINE
8
BLACK
6
CONTINUOUS
10
0.675743
20
0.0570476
11
0.675743
21
0.052631
0
LINE
8
BLACK
6
CONTINUOUS
10
0.675743
20
0.052631
11
0.675113
21
0.0511107
0
LINE
8
BLACK
6
CONTINUOUS
10
0.675113
20
0.0511107
11
0.673593
21
0.050481
0
LINE
8
BLACK
6
CONTINUOUS
10
0.673593
20
0.050481
11
0.672073
21
0.0511107
0
LINE
8
BLACK
6
CONTINUOUS
10
0.672073
20
0.0511107
11
0.671443
21
0.052631
0
LINE
8
BLACK
6
CONTINUOUS
10
0.671443
20
0.052631
11
0.671443
21
0.0570476
0
LINE
8
BLACK
6
CONTINUOUS
10
0.671443
20
0.0570476
11
0.666362
21
0.0570476
0
LINE
8
BLACK
6
CONTINUOUS
10
0.666362
20
0.0570476
11
0.666362
21
0.0498167
0
LINE
8
BLACK
6
CONTINUOUS
10
0.666362
20
0.0498167
11
0.665732
21
0.0482964
0
LINE
8
BLACK
6
CONTINUOUS
10
0.665732
20
0.0482964
11
0.664212
21
0.0476667
0
LINE
8
BLACK
6
CONTINUOUS
10
0.664212
20
0.0476667
11
0.662692
21
0.0482964
0
LINE
8
BLACK
6
CONTINUOUS
10
0.662692
20
0.0482964
11
0.662062
21
0.0498167
0
LINE
8
BLACK
6
CONTINUOUS
10
0.662062
20
0.0498167
11
0.662062
21
0.0591976
0
LINE
8
BLACK
6
CONTINUOUS
10
0.662062
20
0.0591976
11
0.662692
21
0.0607179
0
LINE
8
BLACK
6
CONTINUOUS
10
0.662692
20
0.0607179
11
0.664212
21
0.0613476
0
LINE
8
BLACK
6
CONTINUOUS
10
0.664212
20
0.0613476
11
0.683912
21
0.0613476
0
LINE
8
BLACK
6
CONTINUOUS
10
0.683912
20
0.0613476
11
0.685432
21
0.0607179
0
LINE
8
BLACK
6
CONTINUOUS
10
0.685432
20
0.0785417
11
0.686062
21
0.0770215
0
LINE
8
BLACK
6
CONTINUOUS
10
0.686062
20
0.0770215
11
0.685432
21
0.0755012
0
LINE
8
BLACK
6
CONTINUOUS
10
0.685432
20
0.0755012
11
0.683912
21
0.0748715
0
LINE
8
BLACK
6
CONTINUOUS
10
0.683912
20
0.0748715
11
0.673545
21
0.0748715
0
LINE
8
BLACK
6
CONTINUOUS
10
0.673545
20
0.0748715
11
0.673484
21
0.0748098
0
LINE
8
BLACK
6
CONTINUOUS
10
0.673484
20
0.0748098
11
0.672929
21
0.0736996
0
LINE
8
BLACK
6
CONTINUOUS
10
0.672929
20
0.0736996
11
0.672929
21
0.0719004
0
LINE
8
BLACK
6
CONTINUOUS
10
0.672929
20
0.0719004
11
0.673319
21
0.0711192
0
LINE
8
BLACK
6
CONTINUOUS
10
0.673319
20
0.0711192
11
0.6741
21
0.0707286
0
LINE
8
BLACK
6
CONTINUOUS
10
0.6741
20
0.0707286
11
0.683912
21
0.0707286
0
LINE
8
BLACK
6
CONTINUOUS
10
0.683912
20
0.0707286
11
0.685432
21
0.0700989
0
LINE
8
BLACK
6
CONTINUOUS
10
0.685432
20
0.0700989
11
0.686062
21
0.0685786
0
LINE
8
BLACK
6
CONTINUOUS
10
0.686062
20
0.0685786
11
0.685432
21
0.0670583
0
LINE
8
BLACK
6
CONTINUOUS
10
0.685432
20
0.0670583
11
0.683912
21
0.0664286
0
LINE
8
BLACK
6
CONTINUOUS
10
0.683912
20
0.0664286
11
0.673593
21
0.0664286
0
LINE
8
BLACK
6
CONTINUOUS
10
0.673593
20
0.0664286
11
0.67313
21
0.0666201
0
LINE
8
BLACK
6
CONTINUOUS
10
0.67313
20
0.0666201
11
0.672631
21
0.0666556
0
LINE
8
BLACK
6
CONTINUOUS
10
0.672631
20
0.0666556
11
0.670755
21
0.0675937
0
LINE
8
BLACK
6
CONTINUOUS
10
0.670755
20
0.0675937
11
0.670309
21
0.0681086
0
LINE
8
BLACK
6
CONTINUOUS
10
0.670309
20
0.0681086
11
0.669794
21
0.0685552
0
LINE
8
BLACK
6
CONTINUOUS
10
0.669794
20
0.0685552
11
0.668856
21
0.0704313
0
LINE
8
BLACK
6
CONTINUOUS
10
0.668856
20
0.0704313
11
0.66882
21
0.0709305
0
LINE
8
BLACK
6
CONTINUOUS
10
0.66882
20
0.0709305
11
0.668629
21
0.0713929
0
LINE
8
BLACK
6
CONTINUOUS
10
0.668629
20
0.0713929
11
0.668629
21
0.0742072
0
LINE
8
BLACK
6
CONTINUOUS
10
0.668629
20
0.0742072
11
0.66882
21
0.0746695
0
LINE
8
BLACK
6
CONTINUOUS
10
0.66882
20
0.0746695
11
0.668856
21
0.0751687
0
LINE
8
BLACK
6
CONTINUOUS
10
0.668856
20
0.0751687
11
0.669151
21
0.0757598
0
LINE
8
BLACK
6
CONTINUOUS
10
0.669151
20
0.0757598
11
0.668629
21
0.0770215
0
LINE
8
BLACK
6
CONTINUOUS
10
0.668629
20
0.0770215
11
0.669258
21
0.0785417
0
LINE
8
BLACK
6
CONTINUOUS
10
0.669258
20
0.0785417
11
0.670779
21
0.0791715
0
LINE
8
BLACK
6
CONTINUOUS
10
0.670779
20
0.0791715
11
0.683912
21
0.0791715
0
LINE
8
BLACK
6
CONTINUOUS
10
0.683912
20
0.0791715
11
0.685432
21
0.0785417
0
LINE
8
BLACK
6
CONTINUOUS
10
0.657932
20
0.095737
11
0.658562
21
0.0942167
0
LINE
8
BLACK
6
CONTINUOUS
10
0.658562
20
0.0942167
11
0.658562
21
0.0820215
0
LINE
8
BLACK
6
CONTINUOUS
10
0.658562
20
0.0820215
11
0.657932
21
0.0805012
0
LINE
8
BLACK
6
CONTINUOUS
10
0.657932
20
0.0805012
11
0.656412
21
0.0798715
0
LINE
8
BLACK
6
CONTINUOUS
10
0.656412
20
0.0798715
11
0.654892
21
0.0805012
0
LINE
8
BLACK
6
CONTINUOUS
10
0.654892
20
0.0805012
11
0.654262
21
0.0820215
0
LINE
8
BLACK
6
CONTINUOUS
10
0.654262
20
0.0820215
11
0.654262
21
0.0890261
0
LINE
8
BLACK
6
CONTINUOUS
10
0.654262
20
0.0890261
11
0.646675
21
0.0814393
0
LINE
8
BLACK
6
CONTINUOUS
10
0.646675
20
0.0814393
11
0.646213
21
0.0812478
0
LINE
8
BLACK
6
CONTINUOUS
10
0.646213
20
0.0812478
11
0.645835
21
0.0809198
0
LINE
8
BLACK
6
CONTINUOUS
10
0.645835
20
0.0809198
11
0.64302
21
0.0799818
0
LINE
8
BLACK
6
CONTINUOUS
10
0.64302
20
0.0799818
11
0.642667
21
0.0800069
0
LINE
8
BLACK
6
CONTINUOUS
10
0.642667
20
0.0800069
11
0.64234
21
0.0798715
0
LINE
8
BLACK
6
CONTINUOUS
10
0.64234
20
0.0798715
11
0.640464
21
0.0798715
0
LINE
8
BLACK
6
CONTINUOUS
10
0.640464
20
0.0798715
11
0.640002
21
0.080063
0
LINE
8
BLACK
6
CONTINUOUS
10
0.640002
20
0.080063
11
0.639503
21
0.0800984
0
LINE
8
BLACK
6
CONTINUOUS
10
0.639503
20
0.0800984
11
0.637627
21
0.0810365
0
LINE
8
BLACK
6
CONTINUOUS
10
0.637627
20
0.0810365
11
0.637395
21
0.0813039
0
LINE
8
BLACK
6
CONTINUOUS
10
0.637395
20
0.0813039
11
0.637068
21
0.0814393
0
LINE
8
BLACK
6
CONTINUOUS
10
0.637068
20
0.0814393
11
0.63613
21
0.0823774
0
LINE
8
BLACK
6
CONTINUOUS
10
0.63613
20
0.0823774
11
0.635994
21
0.0827043
0
LINE
8
BLACK
6
CONTINUOUS
10
0.635994
20
0.0827043
11
0.635727
21
0.0829361
0
LINE
8
BLACK
6
CONTINUOUS
10
0.635727
20
0.0829361
11
0.634789
21
0.0848123
0
LINE
8
BLACK
6
CONTINUOUS
10
0.634789
20
0.0848123
11
0.634753
21
0.0853115
0
LINE
8
BLACK
6
CONTINUOUS
10
0.634753
20
0.0853115
11
0.634562
21
0.0857738
0
LINE
8
BLACK
6
CONTINUOUS
10
0.634562
20
0.0857738
11
0.634562
21
0.0904643
0
LINE
8
BLACK
6
CONTINUOUS
10
0.634562
20
0.0904643
11
0.634753
21
0.0909266
0
LINE
8
BLACK
6
CONTINUOUS
10
0.634753
20
0.0909266
11
0.634789
21
0.0914258
0
LINE
8
BLACK
6
CONTINUOUS
10
0.634789
20
0.0914258
11
0.635727
21
0.093302
0
LINE
8
BLACK
6
CONTINUOUS
10
0.635727
20
0.093302
11
0.635994
21
0.0935339
0
LINE
8
BLACK
6
CONTINUOUS
10
0.635994
20
0.0935339
11
0.63613
21
0.0938608
0
LINE
8
BLACK
6
CONTINUOUS
10
0.63613
20
0.0938608
11
0.637068
21
0.0947989
0
LINE
8
BLACK
6
CONTINUOUS
10
0.637068
20
0.0947989
11
0.638588
21
0.0954286
0
LINE
8
BLACK
6
CONTINUOUS
10
0.638588
20
0.0954286
11
0.640108
21
0.0947989
0
LINE
8
BLACK
6
CONTINUOUS
10
0.640108
20
0.0947989
11
0.640738
21
0.0932786
0
LINE
8
BLACK
6
CONTINUOUS
10
0.640738
20
0.0932786
11
0.640108
21
0.0917583
0
LINE
8
BLACK
6
CONTINUOUS
10
0.640108
20
0.0917583
11
0.639417
21
0.091067
0
LINE
8
BLACK
6
CONTINUOUS
10
0.639417
20
0.091067
11
0.638862
21
0.0899567
0
LINE
8
BLACK
6
CONTINUOUS
10
0.638862
20
0.0899567
11
0.638862
21
0.0862813
0
LINE
8
BLACK
6
CONTINUOUS
10
0.638862
20
0.0862813
11
0.639417
21
0.0851712
0
LINE
8
BLACK
6
CONTINUOUS
10
0.639417
20
0.0851712
11
0.639862
21
0.0847265
0
LINE
8
BLACK
6
CONTINUOUS
10
0.639862
20
0.0847265
11
0.640972
21
0.0841715
0
LINE
8
BLACK
6
CONTINUOUS
10
0.640972
20
0.0841715
11
0.641992
21
0.0841715
0
LINE
8
BLACK
6
CONTINUOUS
10
0.641992
20
0.0841715
11
0.643993
21
0.0848387
0
LINE
8
BLACK
6
CONTINUOUS
10
0.643993
20
0.0848387
11
0.654892
21
0.095737
0
LINE
8
BLACK
6
CONTINUOUS
10
0.654892
20
0.095737
11
0.656412
21
0.0963667
0
LINE
8
BLACK
6
CONTINUOUS
10
0.656412
20
0.0963667
11
0.657932
21
0.095737
0
LINE
8
BLACK
6
CONTINUOUS
10
0.676659
20
0.0987671
11
0.676929
21
0.0988072
0
LINE
8
BLACK
6
CONTINUOUS
10
0.676929
20
0.0988072
11
0.680681
21
0.0978692
0
LINE
8
BLACK
6
CONTINUOUS
10
0.680681
20
0.0978692
11
0.680877
21
0.0977237
0
LINE
8
BLACK
6
CONTINUOUS
10
0.680877
20
0.0977237
11
0.681121
21
0.0977064
0
LINE
8
BLACK
6
CONTINUOUS
10
0.681121
20
0.0977064
11
0.682997
21
0.0967683
0
LINE
8
BLACK
6
CONTINUOUS
10
0.682997
20
0.0967683
11
0.683229
21
0.0965009
0
LINE
8
BLACK
6
CONTINUOUS
10
0.683229
20
0.0965009
11
0.683556
21
0.0963655
0
LINE
8
BLACK
6
CONTINUOUS
10
0.683556
20
0.0963655
11
0.684494
21
0.0954274
0
LINE
8
BLACK
6
CONTINUOUS
10
0.684494
20
0.0954274
11
0.684629
21
0.0951005
0
LINE
8
BLACK
6
CONTINUOUS
10
0.684629
20
0.0951005
11
0.684897
21
0.0948687
0
LINE
8
BLACK
6
CONTINUOUS
10
0.684897
20
0.0948687
11
0.685835
21
0.0929925
0
LINE
8
BLACK
6
CONTINUOUS
10
0.685835
20
0.0929925
11
0.68587
21
0.0924933
0
LINE
8
BLACK
6
CONTINUOUS
10
0.68587
20
0.0924933
11
0.686062
21
0.092031
0
LINE
8
BLACK
6
CONTINUOUS
10
0.686062
20
0.092031
11
0.686062
21
0.0901548
0
LINE
8
BLACK
6
CONTINUOUS
10
0.686062
20
0.0901548
11
0.68587
21
0.0896924
0
LINE
8
BLACK
6
CONTINUOUS
10
0.68587
20
0.0896924
11
0.685835
21
0.0891932
0
LINE
8
BLACK
6
CONTINUOUS
10
0.685835
20
0.0891932
11
0.684897
21
0.087317
0
LINE
8
BLACK
6
CONTINUOUS
10
0.684897
20
0.087317
11
0.684629
21
0.0870852
0
LINE
8
BLACK
6
CONTINUOUS
10
0.684629
20
0.0870852
11
0.684494
21
0.0867583
0
LINE
8
BLACK
6
CONTINUOUS
10
0.684494
20
0.0867583
11
0.683556
21
0.0858202
0
LINE
8
BLACK
6
CONTINUOUS
10
0.683556
20
0.0858202
11
0.683229
21
0.0856848
0
LINE
8
BLACK
6
CONTINUOUS
10
0.683229
20
0.0856848
11
0.682997
21
0.0854175
0
LINE
8
BLACK
6
CONTINUOUS
10
0.682997
20
0.0854175
11
0.681121
21
0.0844794
0
LINE
8
BLACK
6
CONTINUOUS
10
0.681121
20
0.0844794
11
0.680877
21
0.084462
0
LINE
8
BLACK
6
CONTINUOUS
10
0.680877
20
0.084462
11
0.680681
21
0.0843166
0
LINE
8
BLACK
6
CONTINUOUS
10
0.680681
20
0.0843166
11
0.676929
21
0.0833785
0
LINE
8
BLACK
6
CONTINUOUS
10
0.676929
20
0.0833785
11
0.676659
21
0.0834186
0
LINE
8
BLACK
6
CONTINUOUS
10
0.676659
20
0.0834186
11
0.676407
21
0.0833143
0
LINE
8
BLACK
6
CONTINUOUS
10
0.676407
20
0.0833143
11
0.671717
21
0.0833143
0
LINE
8
BLACK
6
CONTINUOUS
10
0.671717
20
0.0833143
11
0.671465
21
0.0834186
0
LINE
8
BLACK
6
CONTINUOUS
10
0.671465
20
0.0834186
11
0.671195
21
0.0833785
0
LINE
8
BLACK
6
CONTINUOUS
10
0.671195
20
0.0833785
11
0.667443
21
0.0843166
0
LINE
8
BLACK
6
CONTINUOUS
10
0.667443
20
0.0843166
11
0.667246
21
0.0844621
0
LINE
8
BLACK
6
CONTINUOUS
10
0.667246
20
0.0844621
11
0.667003
21
0.0844794
0
LINE
8
BLACK
6
CONTINUOUS
10
0.667003
20
0.0844794
11
0.665127
21
0.0854175
0
LINE
8
BLACK
6
CONTINUOUS
10
0.665127
20
0.0854175
11
0.664895
21
0.0856848
0
LINE
8
BLACK
6
CONTINUOUS
10
0.664895
20
0.0856848
11
0.664568
21
0.0858202
0
LINE
8
BLACK
6
CONTINUOUS
10
0.664568
20
0.0858202
11
0.66363
21
0.0867583
0
LINE
8
BLACK
6
CONTINUOUS
10
0.66363
20
0.0867583
11
0.663494
21
0.0870852
0
LINE
8
BLACK
6
CONTINUOUS
10
0.663494
20
0.0870852
11
0.663227
21
0.087317
0
LINE
8
BLACK
6
CONTINUOUS
10
0.663227
20
0.087317
11
0.662289
21
0.0891932
0
LINE
8
BLACK
6
CONTINUOUS
10
0.662289
20
0.0891932
11
0.662253
21
0.0896924
0
LINE
8
BLACK
6
CONTINUOUS
10
0.662253
20
0.0896924
11
0.662062
21
0.0901548
0
LINE
8
BLACK
6
CONTINUOUS
10
0.662062
20
0.0901548
11
0.662062
21
0.092031
0
LINE
8
BLACK
6
CONTINUOUS
10
0.662062
20
0.092031
11
0.662253
21
0.0924933
0
LINE
8
BLACK
6
CONTINUOUS
10
0.662253
20
0.0924933
11
0.662289
21
0.0929925
0
LINE
8
BLACK
6
CONTINUOUS
10
0.662289
20
0.0929925
11
0.663227
21
0.0948687
0
LINE
8
BLACK
6
CONTINUOUS
10
0.663227
20
0.0948687
11
0.663494
21
0.0951006
0
LINE
8
BLACK
6
CONTINUOUS
10
0.663494
20
0.0951006
11
0.66363
21
0.0954274
0
LINE
8
BLACK
6
CONTINUOUS
10
0.66363
20
0.0954274
11
0.664568
21
0.0963655
0
LINE
8
BLACK
6
CONTINUOUS
10
0.664568
20
0.0963655
11
0.664895
21
0.0965009
0
LINE
8
BLACK
6
CONTINUOUS
10
0.664895
20
0.0965009
11
0.665127
21
0.0967683
0
LINE
8
BLACK
6
CONTINUOUS
10
0.665127
20
0.0967683
11
0.667003
21
0.0977064
0
LINE
8
BLACK
6
CONTINUOUS
10
0.667003
20
0.0977064
11
0.667246
21
0.0977237
0
LINE
8
BLACK
6
CONTINUOUS
10
0.667246
20
0.0977237
11
0.667443
21
0.0978691
0
LINE
8
BLACK
6
CONTINUOUS
10
0.667443
20
0.0978691
11
0.671195
21
0.0988072
0
LINE
8
BLACK
6
CONTINUOUS
10
0.671195
20
0.0988072
11
0.671465
21
0.0987671
0
LINE
8
BLACK
6
CONTINUOUS
10
0.671465
20
0.0987671
11
0.671717
21
0.0988715
0
LINE
8
BLACK
6
CONTINUOUS
10
0.671717
20
0.0988715
11
0.676407
21
0.0988715
0
LINE
8
BLACK
6
CONTINUOUS
10
0.676407
20
0.0988715
11
0.676659
21
0.0987671
0
LINE
8
BLACK
6
CONTINUOUS
10
0.671981
20
0.0945715
11
0.668715
21
0.0937548
0
LINE
8
BLACK
6
CONTINUOUS
10
0.668715
20
0.0937548
11
0.667362
21
0.0930783
0
LINE
8
BLACK
6
CONTINUOUS
10
0.667362
20
0.0930783
11
0.666917
21
0.0926336
0
LINE
8
BLACK
6
CONTINUOUS
10
0.666917
20
0.0926336
11
0.666362
21
0.0915235
0
LINE
8
BLACK
6
CONTINUOUS
10
0.666362
20
0.0915235
11
0.666362
21
0.0906623
0
LINE
8
BLACK
6
CONTINUOUS
10
0.666362
20
0.0906623
11
0.666917
21
0.0895522
0
LINE
8
BLACK
6
CONTINUOUS
10
0.666917
20
0.0895522
11
0.667362
21
0.0891075
0
LINE
8
BLACK
6
CONTINUOUS
10
0.667362
20
0.0891075
11
0.668715
21
0.0884309
0
LINE
8
BLACK
6
CONTINUOUS
10
0.668715
20
0.0884309
11
0.671981
21
0.0876143
0
LINE
8
BLACK
6
CONTINUOUS
10
0.671981
20
0.0876143
11
0.676143
21
0.0876143
0
LINE
8
BLACK
6
CONTINUOUS
10
0.676143
20
0.0876143
11
0.679409
21
0.0884309
0
LINE
8
BLACK
6
CONTINUOUS
10
0.679409
20
0.0884309
11
0.680762
21
0.0891075
0
LINE
8
BLACK
6
CONTINUOUS
10
0.680762
20
0.0891075
11
0.681207
21
0.0895522
0
LINE
8
BLACK
6
CONTINUOUS
10
0.681207
20
0.0895522
11
0.681762
21
0.0906624
0
LINE
8
BLACK
6
CONTINUOUS
10
0.681762
20
0.0906624
11
0.681762
21
0.0915234
0
LINE
8
BLACK
6
CONTINUOUS
10
0.681762
20
0.0915234
11
0.681207
21
0.0926336
0
LINE
8
BLACK
6
CONTINUOUS
10
0.681207
20
0.0926336
11
0.680762
21
0.0930783
0
LINE
8
BLACK
6
CONTINUOUS
10
0.680762
20
0.0930783
11
0.679409
21
0.0937548
0
LINE
8
BLACK
6
CONTINUOUS
10
0.679409
20
0.0937548
11
0.676143
21
0.0945715
0
LINE
8
BLACK
6
CONTINUOUS
10
0.676143
20
0.0945715
11
0.671981
21
0.0945715
0
LINE
8
BLACK
6
CONTINUOUS
10
0.648221
20
0.115024
11
0.64849
21
0.115064
0
LINE
8
BLACK
6
CONTINUOUS
10
0.64849
20
0.115064
11
0.652243
21
0.114126
0
LINE
8
BLACK
6
CONTINUOUS
10
0.652243
20
0.114126
11
0.652439
21
0.113981
0
LINE
8
BLACK
6
CONTINUOUS
10
0.652439
20
0.113981
11
0.652683
21
0.113964
0
LINE
8
BLACK
6
CONTINUOUS
10
0.652683
20
0.113964
11
0.654559
21
0.113025
0
LINE
8
BLACK
6
CONTINUOUS
10
0.654559
20
0.113025
11
0.654791
21
0.112758
0
LINE
8
BLACK
6
CONTINUOUS
10
0.654791
20
0.112758
11
0.655118
21
0.112623
0
LINE
8
BLACK
6
CONTINUOUS
10
0.655118
20
0.112623
11
0.656994
21
0.110746
0
LINE
8
BLACK
6
CONTINUOUS
10
0.656994
20
0.110746
11
0.657186
21
0.110284
0
LINE
8
BLACK
6
CONTINUOUS
10
0.657186
20
0.110284
11
0.657513
21
0.109906
0
LINE
8
BLACK
6
CONTINUOUS
10
0.657513
20
0.109906
11
0.658452
21
0.107092
0
LINE
8
BLACK
6
CONTINUOUS
10
0.658452
20
0.107092
11
0.658426
21
0.106739
0
LINE
8
BLACK
6
CONTINUOUS
10
0.658426
20
0.106739
11
0.658562
21
0.106412
0
LINE
8
BLACK
6
CONTINUOUS
10
0.658562
20
0.106412
11
0.658562
21
0.104536
0
LINE
8
BLACK
6
CONTINUOUS
10
0.658562
20
0.104536
11
0.658426
21
0.104209
0
LINE
8
BLACK
6
CONTINUOUS
10
0.658426
20
0.104209
11
0.658452
21
0.103856
0
LINE
8
BLACK
6
CONTINUOUS
10
0.658452
20
0.103856
11
0.657513
21
0.101042
0
LINE
8
BLACK
6
CONTINUOUS
10
0.657513
20
0.101042
11
0.657186
21
0.100664
0
LINE
8
BLACK
6
CONTINUOUS
10
0.657186
20
0.100664
11
0.656994
21
0.100201
0
LINE
8
BLACK
6
CONTINUOUS
10
0.656994
20
0.100201
11
0.656056
21
0.0992631
0
LINE
8
BLACK
6
CONTINUOUS
10
0.656056
20
0.0992631
11
0.654536
21
0.0986333
0
LINE
8
BLACK
6
CONTINUOUS
10
0.654536
20
0.0986333
11
0.653015
21
0.099263
0
LINE
8
BLACK
6
CONTINUOUS
10
0.653015
20
0.099263
11
0.652386
21
0.100783
0
LINE
8
BLACK
6
CONTINUOUS
10
0.652386
20
0.100783
11
0.653015
21
0.102304
0
LINE
8
BLACK
6
CONTINUOUS
10
0.653015
20
0.102304
11
0.653595
21
0.102883
0
LINE
8
BLACK
6
CONTINUOUS
10
0.653595
20
0.102883
11
0.654262
21
0.104885
0
LINE
8
BLACK
6
CONTINUOUS
10
0.654262
20
0.104885
11
0.654262
21
0.106063
0
LINE
8
BLACK
6
CONTINUOUS
10
0.654262
20
0.106063
11
0.653595
21
0.108065
0
LINE
8
BLACK
6
CONTINUOUS
10
0.653595
20
0.108065
11
0.652324
21
0.109335
0
LINE
8
BLACK
6
CONTINUOUS
10
0.652324
20
0.109335
11
0.650971
21
0.110012
0
LINE
8
BLACK
6
CONTINUOUS
10
0.650971
20
0.110012
11
0.647704
21
0.110829
0
LINE
8
BLACK
6
CONTINUOUS
10
0.647704
20
0.110829
11
0.645419
21
0.110829
0
LINE
8
BLACK
6
CONTINUOUS
10
0.645419
20
0.110829
11
0.642153
21
0.110012
0
LINE
8
BLACK
6
CONTINUOUS
10
0.642153
20
0.110012
11
0.6408
21
0.109335
0
LINE
8
BLACK
6
CONTINUOUS
10
0.6408
20
0.109335
11
0.639529
21
0.108065
0
LINE
8
BLACK
6
CONTINUOUS
10
0.639529
20
0.108065
11
0.638862
21
0.106063
0
LINE
8
BLACK
6
CONTINUOUS
10
0.638862
20
0.106063
11
0.638862
21
0.104885
0
LINE
8
BLACK
6
CONTINUOUS
10
0.638862
20
0.104885
11
0.639529
21
0.102883
0
LINE
8
BLACK
6
CONTINUOUS
10
0.639529
20
0.102883
11
0.640108
21
0.102304
0
LINE
8
BLACK
6
CONTINUOUS
10
0.640108
20
0.102304
11
0.640738
21
0.100783
0
LINE
8
BLACK
6
CONTINUOUS
10
0.640738
20
0.100783
11
0.640108
21
0.099263
0
LINE
8
BLACK
6
CONTINUOUS
10
0.640108
20
0.099263
11
0.638588
21
0.0986333
0
LINE
8
BLACK
6
CONTINUOUS
10
0.638588
20
0.0986333
11
0.637068
21
0.0992631
0
LINE
8
BLACK
6
CONTINUOUS
10
0.637068
20
0.0992631
11
0.63613
21
0.100201
0
LINE
8
BLACK
6
CONTINUOUS
10
0.63613
20
0.100201
11
0.635938
21
0.100664
0
LINE
8
BLACK
6
CONTINUOUS
10
0.635938
20
0.100664
11
0.63561
21
0.101042
0
LINE
8
BLACK
6
CONTINUOUS
10
0.63561
20
0.101042
11
0.634672
21
0.103856
0
LINE
8
BLACK
6
CONTINUOUS
10
0.634672
20
0.103856
11
0.634697
21
0.104209
0
LINE
8
BLACK
6
CONTINUOUS
10
0.634697
20
0.104209
11
0.634562
21
0.104536
0
LINE
8
BLACK
6
CONTINUOUS
10
0.634562
20
0.104536
11
0.634562
21
0.106412
0
LINE
8
BLACK
6
CONTINUOUS
10
0.634562
20
0.106412
11
0.634697
21
0.106739
0
LINE
8
BLACK
6
CONTINUOUS
10
0.634697
20
0.106739
11
0.634672
21
0.107092
0
LINE
8
BLACK
6
CONTINUOUS
10
0.634672
20
0.107092
11
0.63561
21
0.109906
0
LINE
8
BLACK
6
CONTINUOUS
10
0.63561
20
0.109906
11
0.635938
21
0.110284
0
LINE
8
BLACK
6
CONTINUOUS
10
0.635938
20
0.110284
11
0.63613
21
0.110746
0
LINE
8
BLACK
6
CONTINUOUS
10
0.63613
20
0.110746
11
0.638006
21
0.112623
0
LINE
8
BLACK
6
CONTINUOUS
10
0.638006
20
0.112623
11
0.638333
21
0.112758
0
LINE
8
BLACK
6
CONTINUOUS
10
0.638333
20
0.112758
11
0.638565
21
0.113025
0
LINE
8
BLACK
6
CONTINUOUS
10
0.638565
20
0.113025
11
0.640441
21
0.113964
0
LINE
8
BLACK
6
CONTINUOUS
10
0.640441
20
0.113964
11
0.640685
21
0.113981
0
LINE
8
BLACK
6
CONTINUOUS
10
0.640685
20
0.113981
11
0.640881
21
0.114126
0
LINE
8
BLACK
6
CONTINUOUS
10
0.640881
20
0.114126
11
0.644633
21
0.115064
0
LINE
8
BLACK
6
CONTINUOUS
10
0.644633
20
0.115064
11
0.644903
21
0.115024
0
LINE
8
BLACK
6
CONTINUOUS
10
0.644903
20
0.115024
11
0.645155
21
0.115129
0
LINE
8
BLACK
6
CONTINUOUS
10
0.645155
20
0.115129
11
0.647969
21
0.115129
0
LINE
8
BLACK
6
CONTINUOUS
10
0.647969
20
0.115129
11
0.648221
21
0.115024
0
LINE
8
BLACK
6
CONTINUOUS
10
0.676659
20
0.117529
11
0.676929
21
0.117569
0
LINE
8
BLACK
6
CONTINUOUS
10
0.676929
20
0.117569
11
0.680681
21
0.116631
0
LINE
8
BLACK
6
CONTINUOUS
10
0.680681
20
0.116631
11
0.680877
21
0.116486
0
LINE
8
BLACK
6
CONTINUOUS
10
0.680877
20
0.116486
11
0.681121
21
0.116468
0
LINE
8
BLACK
6
CONTINUOUS
10
0.681121
20
0.116468
11
0.682997
21
0.11553
0
LINE
8
BLACK
6
CONTINUOUS
10
0.682997
20
0.11553
11
0.683229
21
0.115263
0
LINE
8
BLACK
6
CONTINUOUS
10
0.683229
20
0.115263
11
0.683556
21
0.115127
0
LINE
8
BLACK
6
CONTINUOUS
10
0.683556
20
0.115127
11
0.684494
21
0.114189
0
LINE
8
BLACK
6
CONTINUOUS
10
0.684494
20
0.114189
11
0.684629
21
0.113862
0
LINE
8
BLACK
6
CONTINUOUS
10
0.684629
20
0.113862
11
0.684897
21
0.113631
0
LINE
8
BLACK
6
CONTINUOUS
10
0.684897
20
0.113631
11
0.685835
21
0.111754
0
LINE
8
BLACK
6
CONTINUOUS
10
0.685835
20
0.111754
11
0.68587
21
0.111255
0
LINE
8
BLACK
6
CONTINUOUS
10
0.68587
20
0.111255
11
0.686062
21
0.110793
0
LINE
8
BLACK
6
CONTINUOUS
10
0.686062
20
0.110793
11
0.686062
21
0.108917
0
LINE
8
BLACK
6
CONTINUOUS
10
0.686062
20
0.108917
11
0.68587
21
0.108454
0
LINE
8
BLACK
6
CONTINUOUS
10
0.68587
20
0.108454
11
0.685835
21
0.107955
0
LINE
8
BLACK
6
CONTINUOUS
10
0.685835
20
0.107955
11
0.684897
21
0.106079
0
LINE
8
BLACK
6
CONTINUOUS
10
0.684897
20
0.106079
11
0.684629
21
0.105847
0
LINE
8
BLACK
6
CONTINUOUS
10
0.684629
20
0.105847
11
0.684494
21
0.10552
0
LINE
8
BLACK
6
CONTINUOUS
10
0.684494
20
0.10552
11
0.683556
21
0.104582
0
LINE
8
BLACK
6
CONTINUOUS
10
0.683556
20
0.104582
11
0.683229
21
0.104447
0
LINE
8
BLACK
6
CONTINUOUS
10
0.683229
20
0.104447
11
0.682997
21
0.104179
0
LINE
8
BLACK
6
CONTINUOUS
10
0.682997
20
0.104179
11
0.681121
21
0.103241
0
LINE
8
BLACK
6
CONTINUOUS
10
0.681121
20
0.103241
11
0.680877
21
0.103224
0
LINE
8
BLACK
6
CONTINUOUS
10
0.680877
20
0.103224
11
0.680681
21
0.103078
0
LINE
8
BLACK
6
CONTINUOUS
10
0.680681
20
0.103078
11
0.676929
21
0.10214
0
LINE
8
BLACK
6
CONTINUOUS
10
0.676929
20
0.10214
11
0.676659
21
0.102181
0
LINE
8
BLACK
6
CONTINUOUS
10
0.676659
20
0.102181
11
0.676407
21
0.102076
0
LINE
8
BLACK
6
CONTINUOUS
10
0.676407
20
0.102076
11
0.671717
21
0.102076
0
LINE
8
BLACK
6
CONTINUOUS
10
0.671717
20
0.102076
11
0.671465
21
0.102181
0
LINE
8
BLACK
6
CONTINUOUS
10
0.671465
20
0.102181
11
0.671195
21
0.10214
0
LINE
8
BLACK
6
CONTINUOUS
10
0.671195
20
0.10214
11
0.667443
21
0.103078
0
LINE
8
BLACK
6
CONTINUOUS
10
0.667443
20
0.103078
11
0.667246
21
0.103224
0
LINE
8
BLACK
6
CONTINUOUS
10
0.667246
20
0.103224
11
0.667003
21
0.103241
0
LINE
8
BLACK
6
CONTINUOUS
10
0.667003
20
0.103241
11
0.665127
21
0.104179
0
LINE
8
BLACK
6
CONTINUOUS
10
0.665127
20
0.104179
11
0.664895
21
0.104447
0
LINE
8
BLACK
6
CONTINUOUS
10
0.664895
20
0.104447
11
0.664568
21
0.104582
0
LINE
8
BLACK
6
CONTINUOUS
10
0.664568
20
0.104582
11
0.66363
21
0.10552
0
LINE
8
BLACK
6
CONTINUOUS
10
0.66363
20
0.10552
11
0.663494
21
0.105847
0
LINE
8
BLACK
6
CONTINUOUS
10
0.663494
20
0.105847
11
0.663227
21
0.106079
0
LINE
8
BLACK
6
CONTINUOUS
10
0.663227
20
0.106079
11
0.662289
21
0.107955
0
LINE
8
BLACK
6
CONTINUOUS
10
0.662289
20
0.107955
11
0.662253
21
0.108454
0
LINE
8
BLACK
6
CONTINUOUS
10
0.662253
20
0.108454
11
0.662062
21
0.108917
0
LINE
8
BLACK
6
CONTINUOUS
10
0.662062
20
0.108917
11
0.662062
21
0.110793
0
LINE
8
BLACK
6
CONTINUOUS
10
0.662062
20
0.110793
11
0.662253
21
0.111255
0
LINE
8
BLACK
6
CONTINUOUS
10
0.662253
20
0.111255
11
0.662289
21
0.111754
0
LINE
8
BLACK
6
CONTINUOUS
10
0.662289
20
0.111754
11
0.663227
21
0.113631
0
LINE
8
BLACK
6
CONTINUOUS
10
0.663227
20
0.113631
11
0.663494
21
0.113862
0
LINE
8
BLACK
6
CONTINUOUS
10
0.663494
20
0.113862
11
0.66363
21
0.114189
0
LINE
8
BLACK
6
CONTINUOUS
10
0.66363
20
0.114189
11
0.664568
21
0.115127
0
LINE
8
BLACK
6
CONTINUOUS
10
0.664568
20
0.115127
11
0.664895
21
0.115263
0
LINE
8
BLACK
6
CONTINUOUS
10
0.664895
20
0.115263
11
0.665127
21
0.11553
0
LINE
8
BLACK
6
CONTINUOUS
10
0.665127
20
0.11553
11
0.667003
21
0.116468
0
LINE
8
BLACK
6
CONTINUOUS
10
0.667003
20
0.116468
11
0.667246
21
0.116486
0
LINE
8
BLACK
6
CONTINUOUS
10
0.667246
20
0.116486
11
0.667443
21
0.116631
0
LINE
8
BLACK
6
CONTINUOUS
10
0.667443
20
0.116631
11
0.671195
21
0.117569
0
LINE
8
BLACK
6
CONTINUOUS
10
0.671195
20
0.117569
11
0.671465
21
0.117529
0
LINE
8
BLACK
6
CONTINUOUS
10
0.671465
20
0.117529
11
0.671717
21
0.117633
0
LINE
8
BLACK
6
CONTINUOUS
10
0.671717
20
0.117633
11
0.676407
21
0.117633
0
LINE
8
BLACK
6
CONTINUOUS
10
0.676407
20
0.117633
11
0.676659
21
0.117529
0
LINE
8
BLACK
6
CONTINUOUS
10
0.671981
20
0.113333
11
0.668715
21
0.112517
0
LINE
8
BLACK
6
CONTINUOUS
10
0.668715
20
0.112517
11
0.667362
21
0.11184
0
LINE
8
BLACK
6
CONTINUOUS
10
0.667362
20
0.11184
11
0.666917
21
0.111395
0
LINE
8
BLACK
6
CONTINUOUS
10
0.666917
20
0.111395
11
0.666362
21
0.110285
0
LINE
8
BLACK
6
CONTINUOUS
10
0.666362
20
0.110285
11
0.666362
21
0.109424
0
LINE
8
BLACK
6
CONTINUOUS
10
0.666362
20
0.109424
11
0.666917
21
0.108314
0
LINE
8
BLACK
6
CONTINUOUS
10
0.666917
20
0.108314
11
0.667362
21
0.107869
0
LINE
8
BLACK
6
CONTINUOUS
10
0.667362
20
0.107869
11
0.668715
21
0.107193
0
LINE
8
BLACK
6
CONTINUOUS
10
0.668715
20
0.107193
11
0.671981
21
0.106376
0
LINE
8
BLACK
6
CONTINUOUS
10
0.671981
20
0.106376
11
0.676142
21
0.106376
0
LINE
8
BLACK
6
CONTINUOUS
10
0.676142
20
0.106376
11
0.679409
21
0.107193
0
LINE
8
BLACK
6
CONTINUOUS
10
0.679409
20
0.107193
11
0.680762
21
0.107869
0
LINE
8
BLACK
6
CONTINUOUS
10
0.680762
20
0.107869
11
0.681207
21
0.108314
0
LINE
8
BLACK
6
CONTINUOUS
10
0.681207
20
0.108314
11
0.681762
21
0.109424
0
LINE
8
BLACK
6
CONTINUOUS
10
0.681762
20
0.109424
11
0.681762
21
0.110285
0
LINE
8
BLACK
6
CONTINUOUS
10
0.681762
20
0.110285
11
0.681207
21
0.111396
0
LINE
8
BLACK
6
CONTINUOUS
10
0.681207
20
0.111396
11
0.680762
21
0.11184
0
LINE
8
BLACK
6
CONTINUOUS
10
0.680762
20
0.11184
11
0.679409
21
0.112517
0
LINE
8
BLACK
6
CONTINUOUS
10
0.679409
20
0.112517
11
0.676142
21
0.113333
0
LINE
8
BLACK
6
CONTINUOUS
10
0.676142
20
0.113333
11
0.671981
21
0.113333
0
LINE
8
BLACK
6
CONTINUOUS
10
0.690384
20
0.160385
11
0.690513
21
0.160408
0
LINE
8
BLACK
6
CONTINUOUS
10
0.690513
20
0.160408
11
0.690626
21
0.160342
0
LINE
8
BLACK
6
CONTINUOUS
10
0.690626
20
0.160342
11
0.69101
21
0.160275
0
LINE
8
BLACK
6
CONTINUOUS
10
0.69101
20
0.160275
11
0.691598
21
0.159782
0
LINE
8
BLACK
6
CONTINUOUS
10
0.691598
20
0.159782
11
0.692262
21
0.159398
0
LINE
8
BLACK
6
CONTINUOUS
10
0.692262
20
0.159398
11
0.692353
21
0.159148
0
LINE
8
BLACK
6
CONTINUOUS
10
0.692353
20
0.159148
11
0.692557
21
0.158976
0
LINE
8
BLACK
6
CONTINUOUS
10
0.692557
20
0.158976
11
0.69269
21
0.158221
0
LINE
8
BLACK
6
CONTINUOUS
10
0.69269
20
0.158221
11
0.692953
21
0.1575
0
LINE
8
BLACK
6
CONTINUOUS
10
0.692953
20
0.1575
11
0.692953
21
0.1175
0
LINE
8
BLACK
6
CONTINUOUS
10
0.692953
20
0.1175
11
0.692775
21
0.11649
0
LINE
8
BLACK
6
CONTINUOUS
10
0.692775
20
0.11649
11
0.691476
21
0.114943
0
LINE
8
BLACK
6
CONTINUOUS
10
0.691476
20
0.114943
11
0.689487
21
0.114592
0
LINE
8
BLACK
6
CONTINUOUS
10
0.689487
20
0.114592
11
0.687738
21
0.115602
0
LINE
8
BLACK
6
CONTINUOUS
10
0.687738
20
0.115602
11
0.687047
21
0.1175
0
LINE
8
BLACK
6
CONTINUOUS
10
0.687047
20
0.1175
11
0.687047
21
0.154547
0
LINE
8
BLACK
6
CONTINUOUS
10
0.687047
20
0.154547
11
0.632953
21
0.154547
0
LINE
8
BLACK
6
CONTINUOUS
10
0.632953
20
0.154547
11
0.632953
21
0.1175
0
LINE
8
BLACK
6
CONTINUOUS
10
0.632953
20
0.1175
11
0.632775
21
0.11649
0
LINE
8
BLACK
6
CONTINUOUS
10
0.632775
20
0.11649
11
0.631476
21
0.114943
0
LINE
8
BLACK
6
CONTINUOUS
10
0.631476
20
0.114943
11
0.629487
21
0.114592
0
LINE
8
BLACK
6
CONTINUOUS
10
0.629487
20
0.114592
11
0.627738
21
0.115602
0
LINE
8
BLACK
6
CONTINUOUS
10
0.627738
20
0.115602
11
0.627047
21
0.1175
0
LINE
8
BLACK
6
CONTINUOUS
10
0.627047
20
0.1175
11
0.627047
21
0.1575
0
LINE
8
BLACK
6
CONTINUOUS
10
0.627047
20
0.1575
11
0.627115
21
0.157884
0
LINE
8
BLACK
6
CONTINUOUS
10
0.627115
20
0.157884
11
0.627092
21
0.158013
0
LINE
8
BLACK
6
CONTINUOUS
10
0.627092
20
0.158013
11
0.627158
21
0.158126
0
LINE
8
BLACK
6
CONTINUOUS
10
0.627158
20
0.158126
11
0.627225
21
0.15851
0
LINE
8
BLACK
6
CONTINUOUS
10
0.627225
20
0.15851
11
0.627718
21
0.159098
0
LINE
8
BLACK
6
CONTINUOUS
10
0.627718
20
0.159098
11
0.628102
21
0.159762
0
LINE
8
BLACK
6
CONTINUOUS
10
0.628102
20
0.159762
11
0.628352
21
0.159853
0
LINE
8
BLACK
6
CONTINUOUS
10
0.628352
20
0.159853
11
0.628524
21
0.160057
0
LINE
8
BLACK
6
CONTINUOUS
10
0.628524
20
0.160057
11
0.629279
21
0.16019
0
LINE
8
BLACK
6
CONTINUOUS
10
0.629279
20
0.16019
11
0.63
21
0.160453
0
LINE
8
BLACK
6
CONTINUOUS
10
0.63
20
0.160453
11
0.69
21
0.160453
0
LINE
8
BLACK
6
CONTINUOUS
10
0.69
20
0.160453
11
0.690384
21
0.160385
0
LINE
8
BLACK
6
CONTINUOUS
10
0.685432
20
0.135766
11
0.686062
21
0.134245
0
LINE
8
BLACK
6
CONTINUOUS
10
0.686062
20
0.134245
11
0.686062
21
0.122988
0
LINE
8
BLACK
6
CONTINUOUS
10
0.686062
20
0.122988
11
0.685432
21
0.121468
0
LINE
8
BLACK
6
CONTINUOUS
10
0.685432
20
0.121468
11
0.683912
21
0.120838
0
LINE
8
BLACK
6
CONTINUOUS
10
0.683912
20
0.120838
11
0.682392
21
0.121468
0
LINE
8
BLACK
6
CONTINUOUS
10
0.682392
20
0.121468
11
0.681762
21
0.122988
0
LINE
8
BLACK
6
CONTINUOUS
10
0.681762
20
0.122988
11
0.681762
21
0.126467
0
LINE
8
BLACK
6
CONTINUOUS
10
0.681762
20
0.126467
11
0.664212
21
0.126467
0
LINE
8
BLACK
6
CONTINUOUS
10
0.664212
20
0.126467
11
0.664007
21
0.126551
0
LINE
8
BLACK
6
CONTINUOUS
10
0.664007
20
0.126551
11
0.66379
21
0.126508
0
LINE
8
BLACK
6
CONTINUOUS
10
0.66379
20
0.126508
11
0.66327
21
0.126857
0
LINE
8
BLACK
6
CONTINUOUS
10
0.66327
20
0.126857
11
0.662692
21
0.127096
0
LINE
8
BLACK
6
CONTINUOUS
10
0.662692
20
0.127096
11
0.662607
21
0.127301
0
LINE
8
BLACK
6
CONTINUOUS
10
0.662607
20
0.127301
11
0.662423
21
0.127424
0
LINE
8
BLACK
6
CONTINUOUS
10
0.662423
20
0.127424
11
0.662301
21
0.128038
0
LINE
8
BLACK
6
CONTINUOUS
10
0.662301
20
0.128038
11
0.662062
21
0.128617
0
LINE
8
BLACK
6
CONTINUOUS
10
0.662062
20
0.128617
11
0.662147
21
0.128821
0
LINE
8
BLACK
6
CONTINUOUS
10
0.662147
20
0.128821
11
0.662104
21
0.129038
0
LINE
8
BLACK
6
CONTINUOUS
10
0.662104
20
0.129038
11
0.662452
21
0.129559
0
LINE
8
BLACK
6
CONTINUOUS
10
0.662452
20
0.129559
11
0.662692
21
0.130137
0
LINE
8
BLACK
6
CONTINUOUS
10
0.662692
20
0.130137
11
0.662896
21
0.130222
0
LINE
8
BLACK
6
CONTINUOUS
10
0.662896
20
0.130222
11
0.663019
21
0.130406
0
LINE
8
BLACK
6
CONTINUOUS
10
0.663019
20
0.130406
11
0.665657
21
0.132164
0
LINE
8
BLACK
6
CONTINUOUS
10
0.665657
20
0.132164
11
0.667135
21
0.133643
0
LINE
8
BLACK
6
CONTINUOUS
10
0.667135
20
0.133643
11
0.667917
21
0.135207
0
LINE
8
BLACK
6
CONTINUOUS
10
0.667917
20
0.135207
11
0.669161
21
0.136285
0
LINE
8
BLACK
6
CONTINUOUS
10
0.669161
20
0.136285
11
0.670802
21
0.136168
0
LINE
8
BLACK
6
CONTINUOUS
10
0.670802
20
0.136168
11
0.67188
21
0.134925
0
LINE
8
BLACK
6
CONTINUOUS
10
0.67188
20
0.134925
11
0.671764
21
0.133284
0
LINE
8
BLACK
6
CONTINUOUS
10
0.671764
20
0.133284
11
0.670825
21
0.131408
0
LINE
8
BLACK
6
CONTINUOUS
10
0.670825
20
0.131408
11
0.670558
21
0.131176
0
LINE
8
BLACK
6
CONTINUOUS
10
0.670558
20
0.131176
11
0.670423
21
0.130849
0
LINE
8
BLACK
6
CONTINUOUS
10
0.670423
20
0.130849
11
0.670341
21
0.130767
0
LINE
8
BLACK
6
CONTINUOUS
10
0.670341
20
0.130767
11
0.681762
21
0.130767
0
LINE
8
BLACK
6
CONTINUOUS
10
0.681762
20
0.130767
11
0.681762
21
0.134245
0
LINE
8
BLACK
6
CONTINUOUS
10
0.681762
20
0.134245
11
0.682392
21
0.135766
0
LINE
8
BLACK
6
CONTINUOUS
10
0.682392
20
0.135766
11
0.683912
21
0.136395
0
LINE
8
BLACK
6
CONTINUOUS
10
0.683912
20
0.136395
11
0.685432
21
0.135766
0
LINE
8
BLACK
6
CONTINUOUS
10
0.942932
20
0.213537
11
0.943562
21
0.212017
0
LINE
8
BLACK
6
CONTINUOUS
10
0.943562
20
0.212017
11
0.942932
21
0.210496
0
LINE
8
BLACK
6
CONTINUOUS
10
0.942932
20
0.210496
11
0.941412
21
0.209867
0
LINE
8
BLACK
6
CONTINUOUS
10
0.941412
20
0.209867
11
0.934181
21
0.209867
0
LINE
8
BLACK
6
CONTINUOUS
10
0.934181
20
0.209867
11
0.934181
21
0.208446
0
LINE
8
BLACK
6
CONTINUOUS
10
0.934181
20
0.208446
11
0.942645
21
0.202521
0
LINE
8
BLACK
6
CONTINUOUS
10
0.942645
20
0.202521
11
0.943529
21
0.201133
0
LINE
8
BLACK
6
CONTINUOUS
10
0.943529
20
0.201133
11
0.943173
21
0.199527
0
LINE
8
BLACK
6
CONTINUOUS
10
0.943173
20
0.199527
11
0.941786
21
0.198642
0
LINE
8
BLACK
6
CONTINUOUS
10
0.941786
20
0.198642
11
0.940179
21
0.198998
0
LINE
8
BLACK
6
CONTINUOUS
10
0.940179
20
0.198998
11
0.933882
21
0.203406
0
LINE
8
BLACK
6
CONTINUOUS
10
0.933882
20
0.203406
11
0.933016
21
0.201674
0
LINE
8
BLACK
6
CONTINUOUS
10
0.933016
20
0.201674
11
0.932749
21
0.201442
0
LINE
8
BLACK
6
CONTINUOUS
10
0.932749
20
0.201442
11
0.932613
21
0.201115
0
LINE
8
BLACK
6
CONTINUOUS
10
0.932613
20
0.201115
11
0.931675
21
0.200177
0
LINE
8
BLACK
6
CONTINUOUS
10
0.931675
20
0.200177
11
0.931348
21
0.200042
0
LINE
8
BLACK
6
CONTINUOUS
10
0.931348
20
0.200042
11
0.931116
21
0.199775
0
LINE
8
BLACK
6
CONTINUOUS
10
0.931116
20
0.199775
11
0.92924
21
0.198837
0
LINE
8
BLACK
6
CONTINUOUS
10
0.92924
20
0.198837
11
0.928741
21
0.198801
0
LINE
8
BLACK
6
CONTINUOUS
10
0.928741
20
0.198801
11
0.928279
21
0.19861
0
LINE
8
BLACK
6
CONTINUOUS
10
0.928279
20
0.19861
11
0.925464
21
0.19861
0
LINE
8
BLACK
6
CONTINUOUS
10
0.925464
20
0.19861
11
0.925002
21
0.198801
0
LINE
8
BLACK
6
CONTINUOUS
10
0.925002
20
0.198801
11
0.924503
21
0.198837
0
LINE
8
BLACK
6
CONTINUOUS
10
0.924503
20
0.198837
11
0.922627
21
0.199775
0
LINE
8
BLACK
6
CONTINUOUS
10
0.922627
20
0.199775
11
0.922395
21
0.200042
0
LINE
8
BLACK
6
CONTINUOUS
10
0.922395
20
0.200042
11
0.922068
21
0.200177
0
LINE
8
BLACK
6
CONTINUOUS
10
0.922068
20
0.200177
11
0.92113
21
0.201116
0
LINE
8
BLACK
6
CONTINUOUS
10
0.92113
20
0.201116
11
0.920994
21
0.201442
0
LINE
8
BLACK
6
CONTINUOUS
10
0.920994
20
0.201442
11
0.920727
21
0.201674
0
LINE
8
BLACK
6
CONTINUOUS
10
0.920727
20
0.201674
11
0.920453
21
0.202223
0
LINE
8
BLACK
6
CONTINUOUS
10
0.920453
20
0.202223
11
0.920453
21
0.172953
0
LINE
8
BLACK
6
CONTINUOUS
10
0.920453
20
0.172953
11
0.974547
21
0.172953
0
LINE
8
BLACK
6
CONTINUOUS
10
0.974547
20
0.172953
11
0.974547
21
0.21
0
LINE
8
BLACK
6
CONTINUOUS
10
0.974547
20
0.21
11
0.974725
21
0.21101
0
LINE
8
BLACK
6
CONTINUOUS
10
0.974725
20
0.21101
11
0.976024
21
0.212557
0
LINE
8
BLACK
6
CONTINUOUS
10
0.976024
20
0.212557
11
0.978013
21
0.212908
0
LINE
8
BLACK
6
CONTINUOUS
10
0.978013
20
0.212908
11
0.979762
21
0.211898
0
LINE
8
BLACK
6
CONTINUOUS
10
0.979762
20
0.211898
11
0.980453
21
0.21
0
LINE
8
BLACK
6
CONTINUOUS
10
0.980453
20
0.21
11
0.980453
21
0.17
0
LINE
8
BLACK
6
CONTINUOUS
10
0.980453
20
0.17
11
0.980385
21
0.169616
0
LINE
8
BLACK
6
CONTINUOUS
10
0.980385
20
0.169616
11
0.980408
21
0.169487
0
LINE
8
BLACK
6
CONTINUOUS
10
0.980408
20
0.169487
11
0.980342
21
0.169374
0
LINE
8
BLACK
6
CONTINUOUS
10
0.980342
20
0.169374
11
0.980275
21
0.16899
0
LINE
8
BLACK
6
CONTINUOUS
10
0.980275
20
0.16899
11
0.979782
21
0.168402
0
LINE
8
BLACK
6
CONTINUOUS
10
0.979782
20
0.168402
11
0.979398
21
0.167738
0
LINE
8
BLACK
6
CONTINUOUS
10
0.979398
20
0.167738
11
0.979148
21
0.167647
0
LINE
8
BLACK
6
CONTINUOUS
10
0.979148
20
0.167647
11
0.978976
21
0.167443
0
LINE
8
BLACK
6
CONTINUOUS
10
0.978976
20
0.167443
11
0.978221
21
0.16731
0
LINE
8
BLACK
6
CONTINUOUS
10
0.978221
20
0.16731
11
0.9775
21
0.167047
0
LINE
8
BLACK
6
CONTINUOUS
10
0.9775
20
0.167047
11
0.9175
21
0.167047
0
LINE
8
BLACK
6
CONTINUOUS
10
0.9175
20
0.167047
11
0.917116
21
0.167115
0
LINE
8
BLACK
6
CONTINUOUS
10
0.917116
20
0.167115
11
0.916987
21
0.167092
0
LINE
8
BLACK
6
CONTINUOUS
10
0.916987
20
0.167092
11
0.916874
21
0.167158
0
LINE
8
BLACK
6
CONTINUOUS
10
0.916874
20
0.167158
11
0.91649
21
0.167225
0
LINE
8
BLACK
6
CONTINUOUS
10
0.91649
20
0.167225
11
0.915902
21
0.167718
0
LINE
8
BLACK
6
CONTINUOUS
10
0.915902
20
0.167718
11
0.915238
21
0.168102
0
LINE
8
BLACK
6
CONTINUOUS
10
0.915238
20
0.168102
11
0.915147
21
0.168352
0
LINE
8
BLACK
6
CONTINUOUS
10
0.915147
20
0.168352
11
0.914943
21
0.168524
0
LINE
8
BLACK
6
CONTINUOUS
10
0.914943
20
0.168524
11
0.91481
21
0.169279
0
LINE
8
BLACK
6
CONTINUOUS
10
0.91481
20
0.169279
11
0.914547
21
0.17
0
LINE
8
BLACK
6
CONTINUOUS
10
0.914547
20
0.17
11
0.914547
21
0.21
0
LINE
8
BLACK
6
CONTINUOUS
10
0.914547
20
0.21
11
0.914725
21
0.21101
0
LINE
8
BLACK
6
CONTINUOUS
10
0.914725
20
0.21101
11
0.916024
21
0.212557
0
LINE
8
BLACK
6
CONTINUOUS
10
0.916024
20
0.212557
11
0.918013
21
0.212908
0
LINE
8
BLACK
6
CONTINUOUS
10
0.918013
20
0.212908
11
0.919562
21
0.212014
0
LINE
8
BLACK
6
CONTINUOUS
10
0.919562
20
0.212014
11
0.919562
21
0.212017
0
LINE
8
BLACK
6
CONTINUOUS
10
0.919562
20
0.212017
11
0.920192
21
0.213537
0
LINE
8
BLACK
6
CONTINUOUS
10
0.920192
20
0.213537
11
0.921712
21
0.214167
0
LINE
8
BLACK
6
CONTINUOUS
10
0.921712
20
0.214167
11
0.941412
21
0.214167
0
LINE
8
BLACK
6
CONTINUOUS
10
0.941412
20
0.214167
11
0.942932
21
0.213537
0
LINE
8
BLACK
6
CONTINUOUS
10
0.923862
20
0.209867
11
0.923862
21
0.205019
0
LINE
8
BLACK
6
CONTINUOUS
10
0.923862
20
0.205019
11
0.924417
21
0.203909
0
LINE
8
BLACK
6
CONTINUOUS
10
0.924417
20
0.203909
11
0.924862
21
0.203465
0
LINE
8
BLACK
6
CONTINUOUS
10
0.924862
20
0.203465
11
0.925972
21
0.20291
0
LINE
8
BLACK
6
CONTINUOUS
10
0.925972
20
0.20291
11
0.927771
21
0.20291
0
LINE
8
BLACK
6
CONTINUOUS
10
0.927771
20
0.20291
11
0.928881
21
0.203465
0
LINE
8
BLACK
6
CONTINUOUS
10
0.928881
20
0.203465
11
0.929326
21
0.203909
0
LINE
8
BLACK
6
CONTINUOUS
10
0.929326
20
0.203909
11
0.929881
21
0.20502
0
LINE
8
BLACK
6
CONTINUOUS
10
0.929881
20
0.20502
11
0.929881
21
0.209867
0
LINE
8
BLACK
6
CONTINUOUS
10
0.929881
20
0.209867
11
0.923862
21
0.209867
0
LINE
8
BLACK
6
CONTINUOUS
10
0.701206
20
0.182151
11
0.661836
21
0.221521
0
LINE
8
BLACK
6
CONTINUOUS
10
0.661836
20
0.221521
11
0.66126
21
0.222913
0
LINE
8
BLACK
6
CONTINUOUS
10
0.66126
20
0.222913
11
0.66126
21
0.376457
0
LINE
8
BLACK
6
CONTINUOUS
10
0.66126
20
0.376457
11
0.661836
21
0.377849
0
LINE
8
BLACK
6
CONTINUOUS
10
0.661836
20
0.377849
11
0.663228
21
0.378425
0
LINE
8
BLACK
6
CONTINUOUS
10
0.663228
20
0.378425
11
0.816772
21
0.378425
0
LINE
8
BLACK
6
CONTINUOUS
10
0.816772
20
0.378425
11
0.818164
21
0.377849
0
LINE
8
BLACK
6
CONTINUOUS
10
0.818164
20
0.377849
11
0.81874
21
0.376457
0
LINE
8
BLACK
6
CONTINUOUS
10
0.81874
20
0.376457
11
0.81874
21
0.183543
0
LINE
8
BLACK
6
CONTINUOUS
10
0.81874
20
0.183543
11
0.818164
21
0.182151
0
LINE
8
BLACK
6
CONTINUOUS
10
0.818164
20
0.182151
11
0.816772
21
0.181575
0
LINE
8
BLACK
6
CONTINUOUS
10
0.816772
20
0.181575
11
0.702598
21
0.181575
0
LINE
8
BLACK
6
CONTINUOUS
10
0.702598
20
0.181575
11
0.701206
21
0.182151
0
LINE
8
BLACK
6
CONTINUOUS
10
0.665197
20
0.374488
11
0.665197
21
0.223729
0
LINE
8
BLACK
6
CONTINUOUS
10
0.665197
20
0.223729
11
0.703414
21
0.185512
0
LINE
8
BLACK
6
CONTINUOUS
10
0.703414
20
0.185512
11
0.814803
21
0.185512
0
LINE
8
BLACK
6
CONTINUOUS
10
0.814803
20
0.185512
11
0.814803
21
0.374488
0
LINE
8
BLACK
6
CONTINUOUS
10
0.814803
20
0.374488
11
0.665197
21
0.374488
0
LINE
8
BLACK
6
CONTINUOUS
10
0.720037
20
0.304383
11
0.720207
21
0.304394
0
LINE
8
BLACK
6
CONTINUOUS
10
0.720207
20
0.304394
11
0.720897
21
0.303886
0
LINE
8
BLACK
6
CONTINUOUS
10
0.720897
20
0.303886
11
0.721639
21
0.303458
0
LINE
8
BLACK
6
CONTINUOUS
10
0.721639
20
0.303458
11
0.721698
21
0.303298
0
LINE
8
BLACK
6
CONTINUOUS
10
0.721698
20
0.303298
11
0.721834
21
0.303198
0
LINE
8
BLACK
6
CONTINUOUS
10
0.721834
20
0.303198
11
0.725422
21
0.297817
0
LINE
8
BLACK
6
CONTINUOUS
10
0.725422
20
0.297817
11
0.728626
21
0.294613
0
LINE
8
BLACK
6
CONTINUOUS
10
0.728626
20
0.294613
11
0.731947
21
0.292952
0
LINE
8
BLACK
6
CONTINUOUS
10
0.731947
20
0.292952
11
0.73277
21
0.292341
0
LINE
8
BLACK
6
CONTINUOUS
10
0.73277
20
0.292341
11
0.733574
21
0.290488
0
LINE
8
BLACK
6
CONTINUOUS
10
0.733574
20
0.290488
11
0.732998
21
0.288552
0
LINE
8
BLACK
6
CONTINUOUS
10
0.732998
20
0.288552
11
0.731312
21
0.287439
0
LINE
8
BLACK
6
CONTINUOUS
10
0.731312
20
0.287439
11
0.729306
21
0.28767
0
LINE
8
BLACK
6
CONTINUOUS
10
0.729306
20
0.28767
11
0.725556
21
0.289545
0
LINE
8
BLACK
6
CONTINUOUS
10
0.725556
20
0.289545
11
0.724847
21
0.290071
0
LINE
8
BLACK
6
CONTINUOUS
10
0.724847
20
0.290071
11
0.724789
21
0.290098
0
LINE
8
BLACK
6
CONTINUOUS
10
0.724789
20
0.290098
11
0.72233
21
0.292556
0
LINE
8
BLACK
6
CONTINUOUS
10
0.72233
20
0.292556
11
0.72233
21
0.265143
0
LINE
8
BLACK
6
CONTINUOUS
10
0.72233
20
0.265143
11
0.730626
21
0.265143
0
LINE
8
BLACK
6
CONTINUOUS
10
0.730626
20
0.265143
11
0.731636
21
0.264964
0
LINE
8
BLACK
6
CONTINUOUS
10
0.731636
20
0.264964
11
0.733183
21
0.263666
0
LINE
8
BLACK
6
CONTINUOUS
10
0.733183
20
0.263666
11
0.733534
21
0.261677
0
LINE
8
BLACK
6
CONTINUOUS
10
0.733534
20
0.261677
11
0.732524
21
0.259928
0
LINE
8
BLACK
6
CONTINUOUS
10
0.732524
20
0.259928
11
0.730626
21
0.259237
0
LINE
8
BLACK
6
CONTINUOUS
10
0.730626
20
0.259237
11
0.708129
21
0.259237
0
LINE
8
BLACK
6
CONTINUOUS
10
0.708129
20
0.259237
11
0.707119
21
0.259415
0
LINE
8
BLACK
6
CONTINUOUS
10
0.707119
20
0.259415
11
0.705572
21
0.260713
0
LINE
8
BLACK
6
CONTINUOUS
10
0.705572
20
0.260713
11
0.705221
21
0.262703
0
LINE
8
BLACK
6
CONTINUOUS
10
0.705221
20
0.262703
11
0.706231
21
0.264452
0
LINE
8
BLACK
6
CONTINUOUS
10
0.706231
20
0.264452
11
0.708129
21
0.265143
0
LINE
8
BLACK
6
CONTINUOUS
10
0.708129
20
0.265143
11
0.716425
21
0.265143
0
LINE
8
BLACK
6
CONTINUOUS
10
0.716425
20
0.265143
11
0.716425
21
0.30156
0
LINE
8
BLACK
6
CONTINUOUS
10
0.716425
20
0.30156
11
0.716603
21
0.30257
0
LINE
8
BLACK
6
CONTINUOUS
10
0.716603
20
0.30257
11
0.716712
21
0.3027
0
LINE
8
BLACK
6
CONTINUOUS
10
0.716712
20
0.3027
11
0.716731
21
0.302869
0
LINE
8
BLACK
6
CONTINUOUS
10
0.716731
20
0.302869
11
0.71735
21
0.303461
0
LINE
8
BLACK
6
CONTINUOUS
10
0.71735
20
0.303461
11
0.717901
21
0.304117
0
LINE
8
BLACK
6
CONTINUOUS
10
0.717901
20
0.304117
11
0.718068
21
0.304146
0
LINE
8
BLACK
6
CONTINUOUS
10
0.718068
20
0.304146
11
0.718191
21
0.304264
0
LINE
8
BLACK
6
CONTINUOUS
10
0.718191
20
0.304264
11
0.719046
21
0.304319
0
LINE
8
BLACK
6
CONTINUOUS
10
0.719046
20
0.304319
11
0.71989
21
0.304468
0
LINE
8
BLACK
6
CONTINUOUS
10
0.71989
20
0.304468
11
0.720037
21
0.304383
0
LINE
8
BLACK
6
CONTINUOUS
10
0.772258
20
0.303458
11
0.772949
21
0.30156
0
LINE
8
BLACK
6
CONTINUOUS
10
0.772949
20
0.30156
11
0.772949
21
0.269689
0
LINE
8
BLACK
6
CONTINUOUS
10
0.772949
20
0.269689
11
0.772771
21
0.268679
0
LINE
8
BLACK
6
CONTINUOUS
10
0.772771
20
0.268679
11
0.772657
21
0.268544
0
LINE
8
BLACK
6
CONTINUOUS
10
0.772657
20
0.268544
11
0.772637
21
0.268368
0
LINE
8
BLACK
6
CONTINUOUS
10
0.772637
20
0.268368
11
0.770762
21
0.264619
0
LINE
8
BLACK
6
CONTINUOUS
10
0.770762
20
0.264619
11
0.770237
21
0.26391
0
LINE
8
BLACK
6
CONTINUOUS
10
0.770237
20
0.26391
11
0.770209
21
0.263851
0
LINE
8
BLACK
6
CONTINUOUS
10
0.770209
20
0.263851
11
0.768335
21
0.261977
0
LINE
8
BLACK
6
CONTINUOUS
10
0.768335
20
0.261977
11
0.767612
21
0.26147
0
LINE
8
BLACK
6
CONTINUOUS
10
0.767612
20
0.26147
11
0.767567
21
0.261424
0
LINE
8
BLACK
6
CONTINUOUS
10
0.767567
20
0.261424
11
0.763818
21
0.259549
0
LINE
8
BLACK
6
CONTINUOUS
10
0.763818
20
0.259549
11
0.762835
21
0.259256
0
LINE
8
BLACK
6
CONTINUOUS
10
0.762835
20
0.259256
11
0.762663
21
0.259297
0
LINE
8
BLACK
6
CONTINUOUS
10
0.762663
20
0.259297
11
0.762497
21
0.259237
0
LINE
8
BLACK
6
CONTINUOUS
10
0.762497
20
0.259237
11
0.754998
21
0.259237
0
LINE
8
BLACK
6
CONTINUOUS
10
0.754998
20
0.259237
11
0.753988
21
0.259415
0
LINE
8
BLACK
6
CONTINUOUS
10
0.753988
20
0.259415
11
0.753853
21
0.259529
0
LINE
8
BLACK
6
CONTINUOUS
10
0.753853
20
0.259529
11
0.753678
21
0.259549
0
LINE
8
BLACK
6
CONTINUOUS
10
0.753678
20
0.259549
11
0.749928
21
0.261424
0
LINE
8
BLACK
6
CONTINUOUS
10
0.749928
20
0.261424
11
0.749219
21
0.261949
0
LINE
8
BLACK
6
CONTINUOUS
10
0.749219
20
0.261949
11
0.749161
21
0.261977
0
LINE
8
BLACK
6
CONTINUOUS
10
0.749161
20
0.261977
11
0.747286
21
0.263851
0
LINE
8
BLACK
6
CONTINUOUS
10
0.747286
20
0.263851
11
0.74678
21
0.264574
0
LINE
8
BLACK
6
CONTINUOUS
10
0.74678
20
0.264574
11
0.746733
21
0.264619
0
LINE
8
BLACK
6
CONTINUOUS
10
0.746733
20
0.264619
11
0.744858
21
0.268368
0
LINE
8
BLACK
6
CONTINUOUS
10
0.744858
20
0.268368
11
0.744566
21
0.269351
0
LINE
8
BLACK
6
CONTINUOUS
10
0.744566
20
0.269351
11
0.744607
21
0.269523
0
LINE
8
BLACK
6
CONTINUOUS
10
0.744607
20
0.269523
11
0.744546
21
0.269689
0
LINE
8
BLACK
6
CONTINUOUS
10
0.744546
20
0.269689
11
0.744546
21
0.30156
0
LINE
8
BLACK
6
CONTINUOUS
10
0.744546
20
0.30156
11
0.744724
21
0.30257
0
LINE
8
BLACK
6
CONTINUOUS
10
0.744724
20
0.30257
11
0.746023
21
0.304117
0
LINE
8
BLACK
6
CONTINUOUS
10
0.746023
20
0.304117
11
0.748012
21
0.304468
0
LINE
8
BLACK
6
CONTINUOUS
10
0.748012
20
0.304468
11
0.749761
21
0.303458
0
LINE
8
BLACK
6
CONTINUOUS
10
0.749761
20
0.303458
11
0.750452
21
0.30156
0
LINE
8
BLACK
6
CONTINUOUS
10
0.750452
20
0.30156
11
0.750452
21
0.270386
0
LINE
8
BLACK
6
CONTINUOUS
10
0.750452
20
0.270386
11
0.751801
21
0.267688
0
LINE
8
BLACK
6
CONTINUOUS
10
0.751801
20
0.267688
11
0.752998
21
0.266491
0
LINE
8
BLACK
6
CONTINUOUS
10
0.752998
20
0.266491
11
0.755695
21
0.265143
0
LINE
8
BLACK
6
CONTINUOUS
10
0.755695
20
0.265143
11
0.7618
21
0.265143
0
LINE
8
BLACK
6
CONTINUOUS
10
0.7618
20
0.265143
11
0.764498
21
0.266491
0
LINE
8
BLACK
6
CONTINUOUS
10
0.764498
20
0.266491
11
0.765695
21
0.267688
0
LINE
8
BLACK
6
CONTINUOUS
10
0.765695
20
0.267688
11
0.767043
21
0.270386
0
LINE
8
BLACK
6
CONTINUOUS
10
0.767043
20
0.270386
11
0.767043
21
0.30156
0
LINE
8
BLACK
6
CONTINUOUS
10
0.767043
20
0.30156
11
0.767222
21
0.30257
0
LINE
8
BLACK
6
CONTINUOUS
10
0.767222
20
0.30257
11
0.76852
21
0.304117
0
LINE
8
BLACK
6
CONTINUOUS
10
0.76852
20
0.304117
11
0.770509
21
0.304468
0
LINE
8
BLACK
6
CONTINUOUS
10
0.770509
20
0.304468
11
0.772258
21
0.303458
0
LINE
8
BLACK
6
CONTINUOUS
10
0.968556
20
0.228237
11
0.969494
21
0.227299
0
LINE
8
BLACK
6
CONTINUOUS
10
0.969494
20
0.227299
11
0.969629
21
0.226972
0
LINE
8
BLACK
6
CONTINUOUS
10
0.969629
20
0.226972
11
0.969897
21
0.22674
0
LINE
8
BLACK
6
CONTINUOUS
10
0.969897
20
0.22674
11
0.970835
21
0.224864
0
LINE
8
BLACK
6
CONTINUOUS
10
0.970835
20
0.224864
11
0.97087
21
0.224365
0
LINE
8
BLACK
6
CONTINUOUS
10
0.97087
20
0.224365
11
0.971062
21
0.223902
0
LINE
8
BLACK
6
CONTINUOUS
10
0.971062
20
0.223902
11
0.971062
21
0.218274
0
LINE
8
BLACK
6
CONTINUOUS
10
0.971062
20
0.218274
11
0.97087
21
0.217811
0
LINE
8
BLACK
6
CONTINUOUS
10
0.97087
20
0.217811
11
0.970835
21
0.217312
0
LINE
8
BLACK
6
CONTINUOUS
10
0.970835
20
0.217312
11
0.969897
21
0.215436
0
LINE
8
BLACK
6
CONTINUOUS
10
0.969897
20
0.215436
11
0.969629
21
0.215204
0
LINE
8
BLACK
6
CONTINUOUS
10
0.969629
20
0.215204
11
0.969494
21
0.214877
0
LINE
8
BLACK
6
CONTINUOUS
10
0.969494
20
0.214877
11
0.968556
21
0.213939
0
LINE
8
BLACK
6
CONTINUOUS
10
0.968556
20
0.213939
11
0.968229
21
0.213804
0
LINE
8
BLACK
6
CONTINUOUS
10
0.968229
20
0.213804
11
0.967997
21
0.213536
0
LINE
8
BLACK
6
CONTINUOUS
10
0.967997
20
0.213536
11
0.966121
21
0.212598
0
LINE
8
BLACK
6
CONTINUOUS
10
0.966121
20
0.212598
11
0.965622
21
0.212563
0
LINE
8
BLACK
6
CONTINUOUS
10
0.965622
20
0.212563
11
0.965159
21
0.212371
0
LINE
8
BLACK
6
CONTINUOUS
10
0.965159
20
0.212371
11
0.960469
21
0.212371
0
LINE
8
BLACK
6
CONTINUOUS
10
0.960469
20
0.212371
11
0.960007
21
0.212563
0
LINE
8
BLACK
6
CONTINUOUS
10
0.960007
20
0.212563
11
0.959508
21
0.212598
0
LINE
8
BLACK
6
CONTINUOUS
10
0.959508
20
0.212598
11
0.957631
21
0.213536
0
LINE
8
BLACK
6
CONTINUOUS
10
0.957631
20
0.213536
11
0.957399
21
0.213804
0
LINE
8
BLACK
6
CONTINUOUS
10
0.957399
20
0.213804
11
0.957073
21
0.213939
0
LINE
8
BLACK
6
CONTINUOUS
10
0.957073
20
0.213939
11
0.956134
21
0.214877
0
LINE
8
BLACK
6
CONTINUOUS
10
0.956134
20
0.214877
11
0.955999
21
0.215204
0
LINE
8
BLACK
6
CONTINUOUS
10
0.955999
20
0.215204
11
0.955732
21
0.215436
0
LINE
8
BLACK
6
CONTINUOUS
10
0.955732
20
0.215436
11
0.955059
21
0.216781
0
LINE
8
BLACK
6
CONTINUOUS
10
0.955059
20
0.216781
11
0.950628
21
0.212903
0
LINE
8
BLACK
6
CONTINUOUS
10
0.950628
20
0.212903
11
0.949911
21
0.212661
0
LINE
8
BLACK
6
CONTINUOUS
10
0.949911
20
0.212661
11
0.949212
21
0.212371
0
LINE
8
BLACK
6
CONTINUOUS
10
0.949212
20
0.212371
11
0.949141
21
0.212401
0
LINE
8
BLACK
6
CONTINUOUS
10
0.949141
20
0.212401
11
0.949069
21
0.212376
0
LINE
8
BLACK
6
CONTINUOUS
10
0.949069
20
0.212376
11
0.948391
21
0.212712
0
LINE
8
BLACK
6
CONTINUOUS
10
0.948391
20
0.212712
11
0.947692
21
0.213001
0
LINE
8
BLACK
6
CONTINUOUS
10
0.947692
20
0.213001
11
0.947662
21
0.213072
0
LINE
8
BLACK
6
CONTINUOUS
10
0.947662
20
0.213072
11
0.947594
21
0.213106
0
LINE
8
BLACK
6
CONTINUOUS
10
0.947594
20
0.213106
11
0.947351
21
0.213822
0
LINE
8
BLACK
6
CONTINUOUS
10
0.947351
20
0.213822
11
0.947062
21
0.214521
0
LINE
8
BLACK
6
CONTINUOUS
10
0.947062
20
0.214521
11
0.947062
21
0.226717
0
LINE
8
BLACK
6
CONTINUOUS
10
0.947062
20
0.226717
11
0.947692
21
0.228237
0
LINE
8
BLACK
6
CONTINUOUS
10
0.947692
20
0.228237
11
0.949212
21
0.228867
0
LINE
8
BLACK
6
CONTINUOUS
10
0.949212
20
0.228867
11
0.950732
21
0.228237
0
LINE
8
BLACK
6
CONTINUOUS
10
0.950732
20
0.228237
11
0.951362
21
0.226717
0
LINE
8
BLACK
6
CONTINUOUS
10
0.951362
20
0.226717
11
0.951362
21
0.21926
0
LINE
8
BLACK
6
CONTINUOUS
10
0.951362
20
0.21926
11
0.955301
21
0.222706
0
LINE
8
BLACK
6
CONTINUOUS
10
0.955301
20
0.222706
11
0.956018
21
0.222949
0
LINE
8
BLACK
6
CONTINUOUS
10
0.956018
20
0.222949
11
0.956717
21
0.223238
0
LINE
8
BLACK
6
CONTINUOUS
10
0.956717
20
0.223238
11
0.956787
21
0.223209
0
LINE
8
BLACK
6
CONTINUOUS
10
0.956787
20
0.223209
11
0.95686
21
0.223233
0
LINE
8
BLACK
6
CONTINUOUS
10
0.95686
20
0.223233
11
0.957538
21
0.222898
0
LINE
8
BLACK
6
CONTINUOUS
10
0.957538
20
0.222898
11
0.958237
21
0.222608
0
LINE
8
BLACK
6
CONTINUOUS
10
0.958237
20
0.222608
11
0.958266
21
0.222538
0
LINE
8
BLACK
6
CONTINUOUS
10
0.958266
20
0.222538
11
0.958335
21
0.222504
0
LINE
8
BLACK
6
CONTINUOUS
10
0.958335
20
0.222504
11
0.958577
21
0.221787
0
LINE
8
BLACK
6
CONTINUOUS
10
0.958577
20
0.221787
11
0.958867
21
0.221088
0
LINE
8
BLACK
6
CONTINUOUS
10
0.958867
20
0.221088
11
0.958867
21
0.218781
0
LINE
8
BLACK
6
CONTINUOUS
10
0.958867
20
0.218781
11
0.959422
21
0.217671
0
LINE
8
BLACK
6
CONTINUOUS
10
0.959422
20
0.217671
11
0.959866
21
0.217227
0
LINE
8
BLACK
6
CONTINUOUS
10
0.959866
20
0.217227
11
0.960977
21
0.216671
0
LINE
8
BLACK
6
CONTINUOUS
10
0.960977
20
0.216671
11
0.964652
21
0.216671
0
LINE
8
BLACK
6
CONTINUOUS
10
0.964652
20
0.216671
11
0.965762
21
0.217226
0
LINE
8
BLACK
6
CONTINUOUS
10
0.965762
20
0.217226
11
0.966207
21
0.217671
0
LINE
8
BLACK
6
CONTINUOUS
10
0.966207
20
0.217671
11
0.966762
21
0.218781
0
LINE
8
BLACK
6
CONTINUOUS
10
0.966762
20
0.218781
11
0.966762
21
0.223395
0
LINE
8
BLACK
6
CONTINUOUS
10
0.966762
20
0.223395
11
0.966207
21
0.224505
0
LINE
8
BLACK
6
CONTINUOUS
10
0.966207
20
0.224505
11
0.965515
21
0.225196
0
LINE
8
BLACK
6
CONTINUOUS
10
0.965515
20
0.225196
11
0.964886
21
0.226717
0
LINE
8
BLACK
6
CONTINUOUS
10
0.964886
20
0.226717
11
0.965515
21
0.228237
0
LINE
8
BLACK
6
CONTINUOUS
10
0.965515
20
0.228237
11
0.967036
21
0.228867
0
LINE
8
BLACK
6
CONTINUOUS
10
0.967036
20
0.228867
11
0.968556
21
0.228237
0
LINE
8
BLACK
6
CONTINUOUS
10
0.934159
20
0.233762
11
0.934429
21
0.233802
0
LINE
8
BLACK
6
CONTINUOUS
10
0.934429
20
0.233802
11
0.938181
21
0.232864
0
LINE
8
BLACK
6
CONTINUOUS
10
0.938181
20
0.232864
11
0.938377
21
0.232719
0
LINE
8
BLACK
6
CONTINUOUS
10
0.938377
20
0.232719
11
0.938621
21
0.232702
0
LINE
8
BLACK
6
CONTINUOUS
10
0.938621
20
0.232702
11
0.940497
21
0.231764
0
LINE
8
BLACK
6
CONTINUOUS
10
0.940497
20
0.231764
11
0.940729
21
0.231496
0
LINE
8
BLACK
6
CONTINUOUS
10
0.940729
20
0.231496
11
0.941056
21
0.231361
0
LINE
8
BLACK
6
CONTINUOUS
10
0.941056
20
0.231361
11
0.941994
21
0.230423
0
LINE
8
BLACK
6
CONTINUOUS
10
0.941994
20
0.230423
11
0.942129
21
0.230096
0
LINE
8
BLACK
6
CONTINUOUS
10
0.942129
20
0.230096
11
0.942397
21
0.229864
0
LINE
8
BLACK
6
CONTINUOUS
10
0.942397
20
0.229864
11
0.943335
21
0.227988
0
LINE
8
BLACK
6
CONTINUOUS
10
0.943335
20
0.227988
11
0.94337
21
0.227489
0
LINE
8
BLACK
6
CONTINUOUS
10
0.94337
20
0.227489
11
0.943562
21
0.227026
0
LINE
8
BLACK
6
CONTINUOUS
10
0.943562
20
0.227026
11
0.943562
21
0.22515
0
LINE
8
BLACK
6
CONTINUOUS
10
0.943562
20
0.22515
11
0.94337
21
0.224688
0
LINE
8
BLACK
6
CONTINUOUS
10
0.94337
20
0.224688
11
0.943335
21
0.224188
0
LINE
8
BLACK
6
CONTINUOUS
10
0.943335
20
0.224188
11
0.942397
21
0.222312
0
LINE
8
BLACK
6
CONTINUOUS
10
0.942397
20
0.222312
11
0.942129
21
0.22208
0
LINE
8
BLACK
6
CONTINUOUS
10
0.942129
20
0.22208
11
0.941994
21
0.221754
0
LINE
8
BLACK
6
CONTINUOUS
10
0.941994
20
0.221754
11
0.941056
21
0.220815
0
LINE
8
BLACK
6
CONTINUOUS
10
0.941056
20
0.220815
11
0.940729
21
0.22068
0
LINE
8
BLACK
6
CONTINUOUS
10
0.940729
20
0.22068
11
0.940497
21
0.220413
0
LINE
8
BLACK
6
CONTINUOUS
10
0.940497
20
0.220413
11
0.938621
21
0.219475
0
LINE
8
BLACK
6
CONTINUOUS
10
0.938621
20
0.219475
11
0.938377
21
0.219457
0
LINE
8
BLACK
6
CONTINUOUS
10
0.938377
20
0.219457
11
0.938181
21
0.219312
0
LINE
8
BLACK
6
CONTINUOUS
10
0.938181
20
0.219312
11
0.934429
21
0.218374
0
LINE
8
BLACK
6
CONTINUOUS
10
0.934429
20
0.218374
11
0.934159
21
0.218414
0
LINE
8
BLACK
6
CONTINUOUS
10
0.934159
20
0.218414
11
0.933907
21
0.21831
0
LINE
8
BLACK
6
CONTINUOUS
10
0.933907
20
0.21831
11
0.929217
21
0.21831
0
LINE
8
BLACK
6
CONTINUOUS
10
0.929217
20
0.21831
11
0.928965
21
0.218414
0
LINE
8
BLACK
6
CONTINUOUS
10
0.928965
20
0.218414
11
0.928695
21
0.218374
0
LINE
8
BLACK
6
CONTINUOUS
10
0.928695
20
0.218374
11
0.924943
21
0.219312
0
LINE
8
BLACK
6
CONTINUOUS
10
0.924943
20
0.219312
11
0.924746
21
0.219457
0
LINE
8
BLACK
6
CONTINUOUS
10
0.924746
20
0.219457
11
0.924503
21
0.219475
0
LINE
8
BLACK
6
CONTINUOUS
10
0.924503
20
0.219475
11
0.922627
21
0.220413
0
LINE
8
BLACK
6
CONTINUOUS
10
0.922627
20
0.220413
11
0.922395
21
0.22068
0
LINE
8
BLACK
6
CONTINUOUS
10
0.922395
20
0.22068
11
0.922068
21
0.220815
0
LINE
8
BLACK
6
CONTINUOUS
10
0.922068
20
0.220815
11
0.92113
21
0.221754
0
LINE
8
BLACK
6
CONTINUOUS
10
0.92113
20
0.221754
11
0.920994
21
0.22208
0
LINE
8
BLACK
6
CONTINUOUS
10
0.920994
20
0.22208
11
0.920727
21
0.222312
0
LINE
8
BLACK
6
CONTINUOUS
10
0.920727
20
0.222312
11
0.919789
21
0.224188
0
LINE
8
BLACK
6
CONTINUOUS
10
0.919789
20
0.224188
11
0.919753
21
0.224688
0
LINE
8
BLACK
6
CONTINUOUS
10
0.919753
20
0.224688
11
0.919562
21
0.22515
0
LINE
8
BLACK
6
CONTINUOUS
10
0.919562
20
0.22515
11
0.919562
21
0.227026
0
LINE
8
BLACK
6
CONTINUOUS
10
0.919562
20
0.227026
11
0.919753
21
0.227489
0
LINE
8
BLACK
6
CONTINUOUS
10
0.919753
20
0.227489
11
0.919789
21
0.227988
0
LINE
8
BLACK
6
CONTINUOUS
10
0.919789
20
0.227988
11
0.920727
21
0.229864
0
LINE
8
BLACK
6
CONTINUOUS
10
0.920727
20
0.229864
11
0.920994
21
0.230096
0
LINE
8
BLACK
6
CONTINUOUS
10
0.920994
20
0.230096
11
0.92113
21
0.230423
0
LINE
8
BLACK
6
CONTINUOUS
10
0.92113
20
0.230423
11
0.922068
21
0.231361
0
LINE
8
BLACK
6
CONTINUOUS
10
0.922068
20
0.231361
11
0.922395
21
0.231496
0
LINE
8
BLACK
6
CONTINUOUS
10
0.922395
20
0.231496
11
0.922627
21
0.231764
0
LINE
8
BLACK
6
CONTINUOUS
10
0.922627
20
0.231764
11
0.924503
21
0.232702
0
LINE
8
BLACK
6
CONTINUOUS
10
0.924503
20
0.232702
11
0.924746
21
0.232719
0
LINE
8
BLACK
6
CONTINUOUS
10
0.924746
20
0.232719
11
0.924943
21
0.232864
0
LINE
8
BLACK
6
CONTINUOUS
10
0.924943
20
0.232864
11
0.928695
21
0.233802
0
LINE
8
BLACK
6
CONTINUOUS
10
0.928695
20
0.233802
11
0.928965
21
0.233762
0
LINE
8
BLACK
6
CONTINUOUS
10
0.928965
20
0.233762
11
0.929217
21
0.233867
0
LINE
8
BLACK
6
CONTINUOUS
10
0.929217
20
0.233867
11
0.933907
21
0.233867
0
LINE
8
BLACK
6
CONTINUOUS
10
0.933907
20
0.233867
11
0.934159
21
0.233762
0
LINE
8
BLACK
6
CONTINUOUS
10
0.929481
20
0.229567
11
0.926215
21
0.22875
0
LINE
8
BLACK
6
CONTINUOUS
10
0.926215
20
0.22875
11
0.924862
21
0.228074
0
LINE
8
BLACK
6
CONTINUOUS
10
0.924862
20
0.228074
11
0.924417
21
0.227629
0
LINE
8
BLACK
6
CONTINUOUS
10
0.924417
20
0.227629
11
0.923862
21
0.226519
0
LINE
8
BLACK
6
CONTINUOUS
10
0.923862
20
0.226519
11
0.923862
21
0.225658
0
LINE
8
BLACK
6
CONTINUOUS
10
0.923862
20
0.225658
11
0.924417
21
0.224547
0
LINE
8
BLACK
6
CONTINUOUS
10
0.924417
20
0.224547
11
0.924862
21
0.224103
0
LINE
8
BLACK
6
CONTINUOUS
10
0.924862
20
0.224103
11
0.926215
21
0.223426
0
LINE
8
BLACK
6
CONTINUOUS
10
0.926215
20
0.223426
11
0.929481
21
0.22261
0
LINE
8
BLACK
6
CONTINUOUS
10
0.929481
20
0.22261
11
0.933643
21
0.22261
0
LINE
8
BLACK
6
CONTINUOUS
10
0.933643
20
0.22261
11
0.936909
21
0.223426
0
LINE
8
BLACK
6
CONTINUOUS
10
0.936909
20
0.223426
11
0.938262
21
0.224103
0
LINE
8
BLACK
6
CONTINUOUS
10
0.938262
20
0.224103
11
0.938707
21
0.224547
0
LINE
8
BLACK
6
CONTINUOUS
10
0.938707
20
0.224547
11
0.939262
21
0.225658
0
LINE
8
BLACK
6
CONTINUOUS
10
0.939262
20
0.225658
11
0.939262
21
0.226519
0
LINE
8
BLACK
6
CONTINUOUS
10
0.939262
20
0.226519
11
0.938707
21
0.227629
0
LINE
8
BLACK
6
CONTINUOUS
10
0.938707
20
0.227629
11
0.938262
21
0.228074
0
LINE
8
BLACK
6
CONTINUOUS
10
0.938262
20
0.228074
11
0.936909
21
0.22875
0
LINE
8
BLACK
6
CONTINUOUS
10
0.936909
20
0.22875
11
0.933643
21
0.229567
0
LINE
8
BLACK
6
CONTINUOUS
10
0.933643
20
0.229567
11
0.929481
21
0.229567
0
LINE
8
BLACK
6
CONTINUOUS
10
0.970432
20
0.246061
11
0.971062
21
0.244541
0
LINE
8
BLACK
6
CONTINUOUS
10
0.971062
20
0.244541
11
0.970432
21
0.24302
0
LINE
8
BLACK
6
CONTINUOUS
10
0.970432
20
0.24302
11
0.968912
21
0.242391
0
LINE
8
BLACK
6
CONTINUOUS
10
0.968912
20
0.242391
11
0.961681
21
0.242391
0
LINE
8
BLACK
6
CONTINUOUS
10
0.961681
20
0.242391
11
0.961681
21
0.240969
0
LINE
8
BLACK
6
CONTINUOUS
10
0.961681
20
0.240969
11
0.970145
21
0.235045
0
LINE
8
BLACK
6
CONTINUOUS
10
0.970145
20
0.235045
11
0.971029
21
0.233657
0
LINE
8
BLACK
6
CONTINUOUS
10
0.971029
20
0.233657
11
0.970673
21
0.23205
0
LINE
8
BLACK
6
CONTINUOUS
10
0.970673
20
0.23205
11
0.969286
21
0.231166
0
LINE
8
BLACK
6
CONTINUOUS
10
0.969286
20
0.231166
11
0.967679
21
0.231522
0
LINE
8
BLACK
6
CONTINUOUS
10
0.967679
20
0.231522
11
0.961382
21
0.23593
0
LINE
8
BLACK
6
CONTINUOUS
10
0.961382
20
0.23593
11
0.960516
21
0.234198
0
LINE
8
BLACK
6
CONTINUOUS
10
0.960516
20
0.234198
11
0.960249
21
0.233966
0
LINE
8
BLACK
6
CONTINUOUS
10
0.960249
20
0.233966
11
0.960113
21
0.233639
0
LINE
8
BLACK
6
CONTINUOUS
10
0.960113
20
0.233639
11
0.959175
21
0.232701
0
LINE
8
BLACK
6
CONTINUOUS
10
0.959175
20
0.232701
11
0.958848
21
0.232566
0
LINE
8
BLACK
6
CONTINUOUS
10
0.958848
20
0.232566
11
0.958616
21
0.232298
0
LINE
8
BLACK
6
CONTINUOUS
10
0.958616
20
0.232298
11
0.95674
21
0.23136
0
LINE
8
BLACK
6
CONTINUOUS
10
0.95674
20
0.23136
11
0.956241
21
0.231325
0
LINE
8
BLACK
6
CONTINUOUS
10
0.956241
20
0.231325
11
0.955779
21
0.231133
0
LINE
8
BLACK
6
CONTINUOUS
10
0.955779
20
0.231133
11
0.952964
21
0.231133
0
LINE
8
BLACK
6
CONTINUOUS
10
0.952964
20
0.231133
11
0.952502
21
0.231325
0
LINE
8
BLACK
6
CONTINUOUS
10
0.952502
20
0.231325
11
0.952003
21
0.23136
0
LINE
8
BLACK
6
CONTINUOUS
10
0.952003
20
0.23136
11
0.950127
21
0.232298
0
LINE
8
BLACK
6
CONTINUOUS
10
0.950127
20
0.232298
11
0.949895
21
0.232566
0
LINE
8
BLACK
6
CONTINUOUS
10
0.949895
20
0.232566
11
0.949568
21
0.232701
0
LINE
8
BLACK
6
CONTINUOUS
10
0.949568
20
0.232701
11
0.94863
21
0.233639
0
LINE
8
BLACK
6
CONTINUOUS
10
0.94863
20
0.233639
11
0.948494
21
0.233966
0
LINE
8
BLACK
6
CONTINUOUS
10
0.948494
20
0.233966
11
0.948227
21
0.234198
0
LINE
8
BLACK
6
CONTINUOUS
10
0.948227
20
0.234198
11
0.947289
21
0.236074
0
LINE
8
BLACK
6
CONTINUOUS
10
0.947289
20
0.236074
11
0.947253
21
0.236573
0
LINE
8
BLACK
6
CONTINUOUS
10
0.947253
20
0.236573
11
0.947062
21
0.237036
0
LINE
8
BLACK
6
CONTINUOUS
10
0.947062
20
0.237036
11
0.947062
21
0.244541
0
LINE
8
BLACK
6
CONTINUOUS
10
0.947062
20
0.244541
11
0.947692
21
0.246061
0
LINE
8
BLACK
6
CONTINUOUS
10
0.947692
20
0.246061
11
0.949212
21
0.246691
0
LINE
8
BLACK
6
CONTINUOUS
10
0.949212
20
0.246691
11
0.968912
21
0.246691
0
LINE
8
BLACK
6
CONTINUOUS
10
0.968912
20
0.246691
11
0.970432
21
0.246061
0
LINE
8
BLACK
6
CONTINUOUS
10
0.951362
20
0.242391
11
0.951362
21
0.237543
0
LINE
8
BLACK
6
CONTINUOUS
10
0.951362
20
0.237543
11
0.951917
21
0.236433
0
LINE
8
BLACK
6
CONTINUOUS
10
0.951917
20
0.236433
11
0.952362
21
0.235988
0
LINE
8
BLACK
6
CONTINUOUS
10
0.952362
20
0.235988
11
0.953472
21
0.235433
0
LINE
8
BLACK
6
CONTINUOUS
10
0.953472
20
0.235433
11
0.955271
21
0.235433
0
LINE
8
BLACK
6
CONTINUOUS
10
0.955271
20
0.235433
11
0.956381
21
0.235988
0
LINE
8
BLACK
6
CONTINUOUS
10
0.956381
20
0.235988
11
0.956826
21
0.236433
0
LINE
8
BLACK
6
CONTINUOUS
10
0.956826
20
0.236433
11
0.957381
21
0.237543
0
LINE
8
BLACK
6
CONTINUOUS
10
0.957381
20
0.237543
11
0.957381
21
0.242391
0
LINE
8
BLACK
6
CONTINUOUS
10
0.957381
20
0.242391
11
0.951362
21
0.242391
0
LINE
8
BLACK
6
CONTINUOUS
10
0.934159
20
0.252524
11
0.934429
21
0.252564
0
LINE
8
BLACK
6
CONTINUOUS
10
0.934429
20
0.252564
11
0.938181
21
0.251626
0
LINE
8
BLACK
6
CONTINUOUS
10
0.938181
20
0.251626
11
0.938377
21
0.251481
0
LINE
8
BLACK
6
CONTINUOUS
10
0.938377
20
0.251481
11
0.938621
21
0.251464
0
LINE
8
BLACK
6
CONTINUOUS
10
0.938621
20
0.251464
11
0.940497
21
0.250525
0
LINE
8
BLACK
6
CONTINUOUS
10
0.940497
20
0.250525
11
0.940729
21
0.250258
0
LINE
8
BLACK
6
CONTINUOUS
10
0.940729
20
0.250258
11
0.941056
21
0.250123
0
LINE
8
BLACK
6
CONTINUOUS
10
0.941056
20
0.250123
11
0.941994
21
0.249185
0
LINE
8
BLACK
6
CONTINUOUS
10
0.941994
20
0.249185
11
0.942129
21
0.248858
0
LINE
8
BLACK
6
CONTINUOUS
10
0.942129
20
0.248858
11
0.942397
21
0.248626
0
LINE
8
BLACK
6
CONTINUOUS
10
0.942397
20
0.248626
11
0.943335
21
0.24675
0
LINE
8
BLACK
6
CONTINUOUS
10
0.943335
20
0.24675
11
0.94337
21
0.24625
0
LINE
8
BLACK
6
CONTINUOUS
10
0.94337
20
0.24625
11
0.943562
21
0.245788
0
LINE
8
BLACK
6
CONTINUOUS
10
0.943562
20
0.245788
11
0.943562
21
0.243912
0
LINE
8
BLACK
6
CONTINUOUS
10
0.943562
20
0.243912
11
0.94337
21
0.24345
0
LINE
8
BLACK
6
CONTINUOUS
10
0.94337
20
0.24345
11
0.943335
21
0.24295
0
LINE
8
BLACK
6
CONTINUOUS
10
0.943335
20
0.24295
11
0.942397
21
0.241074
0
LINE
8
BLACK
6
CONTINUOUS
10
0.942397
20
0.241074
11
0.942129
21
0.240842
0
LINE
8
BLACK
6
CONTINUOUS
10
0.942129
20
0.240842
11
0.941994
21
0.240516
0
LINE
8
BLACK
6
CONTINUOUS
10
0.941994
20
0.240516
11
0.941056
21
0.239577
0
LINE
8
BLACK
6
CONTINUOUS
10
0.941056
20
0.239577
11
0.940729
21
0.239442
0
LINE
8
BLACK
6
CONTINUOUS
10
0.940729
20
0.239442
11
0.940497
21
0.239175
0
LINE
8
BLACK
6
CONTINUOUS
10
0.940497
20
0.239175
11
0.938621
21
0.238236
0
LINE
8
BLACK
6
CONTINUOUS
10
0.938621
20
0.238236
11
0.938377
21
0.238219
0
LINE
8
BLACK
6
CONTINUOUS
10
0.938377
20
0.238219
11
0.938181
21
0.238074
0
LINE
8
BLACK
6
CONTINUOUS
10
0.938181
20
0.238074
11
0.934429
21
0.237136
0
LINE
8
BLACK
6
CONTINUOUS
10
0.934429
20
0.237136
11
0.934159
21
0.237176
0
LINE
8
BLACK
6
CONTINUOUS
10
0.934159
20
0.237176
11
0.933907
21
0.237071
0
LINE
8
BLACK
6
CONTINUOUS
10
0.933907
20
0.237071
11
0.929217
21
0.237071
0
LINE
8
BLACK
6
CONTINUOUS
10
0.929217
20
0.237071
11
0.928965
21
0.237176
0
LINE
8
BLACK
6
CONTINUOUS
10
0.928965
20
0.237176
11
0.928695
21
0.237136
0
LINE
8
BLACK
6
CONTINUOUS
10
0.928695
20
0.237136
11
0.924943
21
0.238074
0
LINE
8
BLACK
6
CONTINUOUS
10
0.924943
20
0.238074
11
0.924746
21
0.238219
0
LINE
8
BLACK
6
CONTINUOUS
10
0.924746
20
0.238219
11
0.924503
21
0.238237
0
LINE
8
BLACK
6
CONTINUOUS
10
0.924503
20
0.238237
11
0.922627
21
0.239175
0
LINE
8
BLACK
6
CONTINUOUS
10
0.922627
20
0.239175
11
0.922395
21
0.239442
0
LINE
8
BLACK
6
CONTINUOUS
10
0.922395
20
0.239442
11
0.922068
21
0.239577
0
LINE
8
BLACK
6
CONTINUOUS
10
0.922068
20
0.239577
11
0.92113
21
0.240516
0
LINE
8
BLACK
6
CONTINUOUS
10
0.92113
20
0.240516
11
0.920994
21
0.240842
0
LINE
8
BLACK
6
CONTINUOUS
10
0.920994
20
0.240842
11
0.920727
21
0.241074
0
LINE
8
BLACK
6
CONTINUOUS
10
0.920727
20
0.241074
11
0.919789
21
0.24295
0
LINE
8
BLACK
6
CONTINUOUS
10
0.919789
20
0.24295
11
0.919753
21
0.24345
0
LINE
8
BLACK
6
CONTINUOUS
10
0.919753
20
0.24345
11
0.919562
21
0.243912
0
LINE
8
BLACK
6
CONTINUOUS
10
0.919562
20
0.243912
11
0.919562
21
0.245788
0
LINE
8
BLACK
6
CONTINUOUS
10
0.919562
20
0.245788
11
0.919753
21
0.24625
0
LINE
8
BLACK
6
CONTINUOUS
10
0.919753
20
0.24625
11
0.919789
21
0.24675
0
LINE
8
BLACK
6
CONTINUOUS
10
0.919789
20
0.24675
11
0.920727
21
0.248626
0
LINE
8
BLACK
6
CONTINUOUS
10
0.920727
20
0.248626
11
0.920994
21
0.248858
0
LINE
8
BLACK
6
CONTINUOUS
10
0.920994
20
0.248858
11
0.92113
21
0.249185
0
LINE
8
BLACK
6
CONTINUOUS
10
0.92113
20
0.249185
11
0.922068
21
0.250123
0
LINE
8
BLACK
6
CONTINUOUS
10
0.922068
20
0.250123
11
0.922395
21
0.250258
0
LINE
8
BLACK
6
CONTINUOUS
10
0.922395
20
0.250258
11
0.922627
21
0.250525
0
LINE
8
BLACK
6
CONTINUOUS
10
0.922627
20
0.250525
11
0.924503
21
0.251464
0
LINE
8
BLACK
6
CONTINUOUS
10
0.924503
20
0.251464
11
0.924746
21
0.251481
0
LINE
8
BLACK
6
CONTINUOUS
10
0.924746
20
0.251481
11
0.924943
21
0.251626
0
LINE
8
BLACK
6
CONTINUOUS
10
0.924943
20
0.251626
11
0.928695
21
0.252564
0
LINE
8
BLACK
6
CONTINUOUS
10
0.928695
20
0.252564
11
0.928965
21
0.252524
0
LINE
8
BLACK
6
CONTINUOUS
10
0.928965
20
0.252524
11
0.929217
21
0.252629
0
LINE
8
BLACK
6
CONTINUOUS
10
0.929217
20
0.252629
11
0.933907
21
0.252629
0
LINE
8
BLACK
6
CONTINUOUS
10
0.933907
20
0.252629
11
0.934159
21
0.252524
0
LINE
8
BLACK
6
CONTINUOUS
10
0.929481
20
0.248329
11
0.926215
21
0.247512
0
LINE
8
BLACK
6
CONTINUOUS
10
0.926215
20
0.247512
11
0.924862
21
0.246835
0
LINE
8
BLACK
6
CONTINUOUS
10
0.924862
20
0.246835
11
0.924417
21
0.246391
0
LINE
8
BLACK
6
CONTINUOUS
10
0.924417
20
0.246391
11
0.923862
21
0.245281
0
LINE
8
BLACK
6
CONTINUOUS
10
0.923862
20
0.245281
11
0.923862
21
0.244419
0
LINE
8
BLACK
6
CONTINUOUS
10
0.923862
20
0.244419
11
0.924417
21
0.243309
0
LINE
8
BLACK
6
CONTINUOUS
10
0.924417
20
0.243309
11
0.924862
21
0.242865
0
LINE
8
BLACK
6
CONTINUOUS
10
0.924862
20
0.242865
11
0.926215
21
0.242188
0
LINE
8
BLACK
6
CONTINUOUS
10
0.926215
20
0.242188
11
0.929481
21
0.241371
0
LINE
8
BLACK
6
CONTINUOUS
10
0.929481
20
0.241371
11
0.933642
21
0.241371
0
LINE
8
BLACK
6
CONTINUOUS
10
0.933642
20
0.241371
11
0.936909
21
0.242188
0
LINE
8
BLACK
6
CONTINUOUS
10
0.936909
20
0.242188
11
0.938262
21
0.242865
0
LINE
8
BLACK
6
CONTINUOUS
10
0.938262
20
0.242865
11
0.938707
21
0.243309
0
LINE
8
BLACK
6
CONTINUOUS
10
0.938707
20
0.243309
11
0.939262
21
0.24442
0
LINE
8
BLACK
6
CONTINUOUS
10
0.939262
20
0.24442
11
0.939262
21
0.245281
0
LINE
8
BLACK
6
CONTINUOUS
10
0.939262
20
0.245281
11
0.938707
21
0.246391
0
LINE
8
BLACK
6
CONTINUOUS
10
0.938707
20
0.246391
11
0.938262
21
0.246835
0
LINE
8
BLACK
6
CONTINUOUS
10
0.938262
20
0.246835
11
0.936909
21
0.247512
0
LINE
8
BLACK
6
CONTINUOUS
10
0.936909
20
0.247512
11
0.933642
21
0.248329
0
LINE
8
BLACK
6
CONTINUOUS
10
0.933642
20
0.248329
11
0.929481
21
0.248329
0
LINE
8
BLACK
6
CONTINUOUS
10
0.977884
20
0.292885
11
0.978013
21
0.292908
0
LINE
8
BLACK
6
CONTINUOUS
10
0.978013
20
0.292908
11
0.978126
21
0.292842
0
LINE
8
BLACK
6
CONTINUOUS
10
0.978126
20
0.292842
11
0.97851
21
0.292775
0
LINE
8
BLACK
6
CONTINUOUS
10
0.97851
20
0.292775
11
0.979098
21
0.292282
0
LINE
8
BLACK
6
CONTINUOUS
10
0.979098
20
0.292282
11
0.979762
21
0.291898
0
LINE
8
BLACK
6
CONTINUOUS
10
0.979762
20
0.291898
11
0.979853
21
0.291648
0
LINE
8
BLACK
6
CONTINUOUS
10
0.979853
20
0.291648
11
0.980057
21
0.291476
0
LINE
8
BLACK
6
CONTINUOUS
10
0.980057
20
0.291476
11
0.98019
21
0.290721
0
LINE
8
BLACK
6
CONTINUOUS
10
0.98019
20
0.290721
11
0.980453
21
0.29
0
LINE
8
BLACK
6
CONTINUOUS
10
0.980453
20
0.29
11
0.980453
21
0.25
0
LINE
8
BLACK
6
CONTINUOUS
10
0.980453
20
0.25
11
0.980275
21
0.24899
0
LINE
8
BLACK
6
CONTINUOUS
10
0.980275
20
0.24899
11
0.978976
21
0.247443
0
LINE
8
BLACK
6
CONTINUOUS
10
0.978976
20
0.247443
11
0.976987
21
0.247092
0
LINE
8
BLACK
6
CONTINUOUS
10
0.976987
20
0.247092
11
0.975238
21
0.248102
0
LINE
8
BLACK
6
CONTINUOUS
10
0.975238
20
0.248102
11
0.974547
21
0.25
0
LINE
8
BLACK
6
CONTINUOUS
10
0.974547
20
0.25
11
0.974547
21
0.287047
0
LINE
8
BLACK
6
CONTINUOUS
10
0.974547
20
0.287047
11
0.920453
21
0.287047
0
LINE
8
BLACK
6
CONTINUOUS
10
0.920453
20
0.287047
11
0.920453
21
0.265301
0
LINE
8
BLACK
6
CONTINUOUS
10
0.920453
20
0.265301
11
0.920519
21
0.265401
0
LINE
8
BLACK
6
CONTINUOUS
10
0.920519
20
0.265401
11
0.923157
21
0.267159
0
LINE
8
BLACK
6
CONTINUOUS
10
0.923157
20
0.267159
11
0.924635
21
0.268638
0
LINE
8
BLACK
6
CONTINUOUS
10
0.924635
20
0.268638
11
0.925417
21
0.270202
0
LINE
8
BLACK
6
CONTINUOUS
10
0.925417
20
0.270202
11
0.926661
21
0.27128
0
LINE
8
BLACK
6
CONTINUOUS
10
0.926661
20
0.27128
11
0.928302
21
0.271164
0
LINE
8
BLACK
6
CONTINUOUS
10
0.928302
20
0.271164
11
0.92938
21
0.26992
0
LINE
8
BLACK
6
CONTINUOUS
10
0.92938
20
0.26992
11
0.929264
21
0.268279
0
LINE
8
BLACK
6
CONTINUOUS
10
0.929264
20
0.268279
11
0.928325
21
0.266403
0
LINE
8
BLACK
6
CONTINUOUS
10
0.928325
20
0.266403
11
0.928058
21
0.266171
0
LINE
8
BLACK
6
CONTINUOUS
10
0.928058
20
0.266171
11
0.927923
21
0.265844
0
LINE
8
BLACK
6
CONTINUOUS
10
0.927923
20
0.265844
11
0.927841
21
0.265762
0
LINE
8
BLACK
6
CONTINUOUS
10
0.927841
20
0.265762
11
0.939262
21
0.265762
0
LINE
8
BLACK
6
CONTINUOUS
10
0.939262
20
0.265762
11
0.939262
21
0.269241
0
LINE
8
BLACK
6
CONTINUOUS
10
0.939262
20
0.269241
11
0.939892
21
0.270761
0
LINE
8
BLACK
6
CONTINUOUS
10
0.939892
20
0.270761
11
0.941412
21
0.271391
0
LINE
8
BLACK
6
CONTINUOUS
10
0.941412
20
0.271391
11
0.942932
21
0.270761
0
LINE
8
BLACK
6
CONTINUOUS
10
0.942932
20
0.270761
11
0.943562
21
0.269241
0
LINE
8
BLACK
6
CONTINUOUS
10
0.943562
20
0.269241
11
0.943562
21
0.257983
0
LINE
8
BLACK
6
CONTINUOUS
10
0.943562
20
0.257983
11
0.942932
21
0.256463
0
LINE
8
BLACK
6
CONTINUOUS
10
0.942932
20
0.256463
11
0.941412
21
0.255833
0
LINE
8
BLACK
6
CONTINUOUS
10
0.941412
20
0.255833
11
0.939892
21
0.256463
0
LINE
8
BLACK
6
CONTINUOUS
10
0.939892
20
0.256463
11
0.939262
21
0.257983
0
LINE
8
BLACK
6
CONTINUOUS
10
0.939262
20
0.257983
11
0.939262
21
0.261462
0
LINE
8
BLACK
6
CONTINUOUS
10
0.939262
20
0.261462
11
0.921712
21
0.261462
0
LINE
8
BLACK
6
CONTINUOUS
10
0.921712
20
0.261462
11
0.921507
21
0.261547
0
LINE
8
BLACK
6
CONTINUOUS
10
0.921507
20
0.261547
11
0.92129
21
0.261504
0
LINE
8
BLACK
6
CONTINUOUS
10
0.92129
20
0.261504
11
0.92077
21
0.261852
0
LINE
8
BLACK
6
CONTINUOUS
10
0.92077
20
0.261852
11
0.920453
21
0.261983
0
LINE
8
BLACK
6
CONTINUOUS
10
0.920453
20
0.261983
11
0.920453
21
0.25
0
LINE
8
BLACK
6
CONTINUOUS
10
0.920453
20
0.25
11
0.920275
21
0.24899
0
LINE
8
BLACK
6
CONTINUOUS
10
0.920275
20
0.24899
11
0.918976
21
0.247443
0
LINE
8
BLACK
6
CONTINUOUS
10
0.918976
20
0.247443
11
0.916987
21
0.247092
0
LINE
8
BLACK
6
CONTINUOUS
10
0.916987
20
0.247092
11
0.915238
21
0.248102
0
LINE
8
BLACK
6
CONTINUOUS
10
0.915238
20
0.248102
11
0.914547
21
0.25
0
LINE
8
BLACK
6
CONTINUOUS
10
0.914547
20
0.25
11
0.914547
21
0.29
0
LINE
8
BLACK
6
CONTINUOUS
10
0.914547
20
0.29
11
0.914615
21
0.290384
0
LINE
8
BLACK
6
CONTINUOUS
10
0.914615
20
0.290384
11
0.914592
21
0.290513
0
LINE
8
BLACK
6
CONTINUOUS
10
0.914592
20
0.290513
11
0.914658
21
0.290626
0
LINE
8
BLACK
6
CONTINUOUS
10
0.914658
20
0.290626
11
0.914725
21
0.29101
0
LINE
8
BLACK
6
CONTINUOUS
10
0.914725
20
0.29101
11
0.915218
21
0.291598
0
LINE
8
BLACK
6
CONTINUOUS
10
0.915218
20
0.291598
11
0.915602
21
0.292262
0
LINE
8
BLACK
6
CONTINUOUS
10
0.915602
20
0.292262
11
0.915852
21
0.292353
0
LINE
8
BLACK
6
CONTINUOUS
10
0.915852
20
0.292353
11
0.916024
21
0.292557
0
LINE
8
BLACK
6
CONTINUOUS
10
0.916024
20
0.292557
11
0.916779
21
0.29269
0
LINE
8
BLACK
6
CONTINUOUS
10
0.916779
20
0.29269
11
0.9175
21
0.292953
0
LINE
8
BLACK
6
CONTINUOUS
10
0.9175
20
0.292953
11
0.9775
21
0.292953
0
LINE
8
BLACK
6
CONTINUOUS
10
0.9775
20
0.292953
11
0.977884
21
0.292885
0
LINE
8
BLACK
6
CONTINUOUS
10
0.942932
20
0.353537
11
0.943562
21
0.352017
0
LINE
8
BLACK
6
CONTINUOUS
10
0.943562
20
0.352017
11
0.942932
21
0.350496
0
LINE
8
BLACK
6
CONTINUOUS
10
0.942932
20
0.350496
11
0.941412
21
0.349867
0
LINE
8
BLACK
6
CONTINUOUS
10
0.941412
20
0.349867
11
0.934181
21
0.349867
0
LINE
8
BLACK
6
CONTINUOUS
10
0.934181
20
0.349867
11
0.934181
21
0.348446
0
LINE
8
BLACK
6
CONTINUOUS
10
0.934181
20
0.348446
11
0.942645
21
0.342521
0
LINE
8
BLACK
6
CONTINUOUS
10
0.942645
20
0.342521
11
0.943529
21
0.341133
0
LINE
8
BLACK
6
CONTINUOUS
10
0.943529
20
0.341133
11
0.943173
21
0.339527
0
LINE
8
BLACK
6
CONTINUOUS
10
0.943173
20
0.339527
11
0.941786
21
0.338642
0
LINE
8
BLACK
6
CONTINUOUS
10
0.941786
20
0.338642
11
0.940179
21
0.338998
0
LINE
8
BLACK
6
CONTINUOUS
10
0.940179
20
0.338998
11
0.933882
21
0.343406
0
LINE
8
BLACK
6
CONTINUOUS
10
0.933882
20
0.343406
11
0.933016
21
0.341674
0
LINE
8
BLACK
6
CONTINUOUS
10
0.933016
20
0.341674
11
0.932749
21
0.341442
0
LINE
8
BLACK
6
CONTINUOUS
10
0.932749
20
0.341442
11
0.932613
21
0.341115
0
LINE
8
BLACK
6
CONTINUOUS
10
0.932613
20
0.341115
11
0.931675
21
0.340177
0
LINE
8
BLACK
6
CONTINUOUS
10
0.931675
20
0.340177
11
0.931348
21
0.340042
0
LINE
8
BLACK
6
CONTINUOUS
10
0.931348
20
0.340042
11
0.931116
21
0.339775
0
LINE
8
BLACK
6
CONTINUOUS
10
0.931116
20
0.339775
11
0.92924
21
0.338837
0
LINE
8
BLACK
6
CONTINUOUS
10
0.92924
20
0.338837
11
0.928741
21
0.338801
0
LINE
8
BLACK
6
CONTINUOUS
10
0.928741
20
0.338801
11
0.928279
21
0.33861
0
LINE
8
BLACK
6
CONTINUOUS
10
0.928279
20
0.33861
11
0.925464
21
0.33861
0
LINE
8
BLACK
6
CONTINUOUS
10
0.925464
20
0.33861
11
0.925002
21
0.338801
0
LINE
8
BLACK
6
CONTINUOUS
10
0.925002
20
0.338801
11
0.924503
21
0.338837
0
LINE
8
BLACK
6
CONTINUOUS
10
0.924503
20
0.338837
11
0.922627
21
0.339775
0
LINE
8
BLACK
6
CONTINUOUS
10
0.922627
20
0.339775
11
0.922395
21
0.340042
0
LINE
8
BLACK
6
CONTINUOUS
10
0.922395
20
0.340042
11
0.922068
21
0.340177
0
LINE
8
BLACK
6
CONTINUOUS
10
0.922068
20
0.340177
11
0.92113
21
0.341116
0
LINE
8
BLACK
6
CONTINUOUS
10
0.92113
20
0.341116
11
0.920994
21
0.341442
0
LINE
8
BLACK
6
CONTINUOUS
10
0.920994
20
0.341442
11
0.920727
21
0.341674
0
LINE
8
BLACK
6
CONTINUOUS
10
0.920727
20
0.341674
11
0.920453
21
0.342223
0
LINE
8
BLACK
6
CONTINUOUS
10
0.920453
20
0.342223
11
0.920453
21
0.312953
0
LINE
8
BLACK
6
CONTINUOUS
10
0.920453
20
0.312953
11
0.974547
21
0.312953
0
LINE
8
BLACK
6
CONTINUOUS
10
0.974547
20
0.312953
11
0.974547
21
0.35
0
LINE
8
BLACK
6
CONTINUOUS
10
0.974547
20
0.35
11
0.974725
21
0.35101
0
LINE
8
BLACK
6
CONTINUOUS
10
0.974725
20
0.35101
11
0.976024
21
0.352557
0
LINE
8
BLACK
6
CONTINUOUS
10
0.976024
20
0.352557
11
0.978013
21
0.352908
0
LINE
8
BLACK
6
CONTINUOUS
10
0.978013
20
0.352908
11
0.979762
21
0.351898
0
LINE
8
BLACK
6
CONTINUOUS
10
0.979762
20
0.351898
11
0.980453
21
0.35
0
LINE
8
BLACK
6
CONTINUOUS
10
0.980453
20
0.35
11
0.980453
21
0.31
0
LINE
8
BLACK
6
CONTINUOUS
10
0.980453
20
0.31
11
0.980385
21
0.309616
0
LINE
8
BLACK
6
CONTINUOUS
10
0.980385
20
0.309616
11
0.980408
21
0.309487
0
LINE
8
BLACK
6
CONTINUOUS
10
0.980408
20
0.309487
11
0.980342
21
0.309374
0
LINE
8
BLACK
6
CONTINUOUS
10
0.980342
20
0.309374
11
0.980275
21
0.30899
0
LINE
8
BLACK
6
CONTINUOUS
10
0.980275
20
0.30899
11
0.979782
21
0.308402
0
LINE
8
BLACK
6
CONTINUOUS
10
0.979782
20
0.308402
11
0.979398
21
0.307738
0
LINE
8
BLACK
6
CONTINUOUS
10
0.979398
20
0.307738
11
0.979148
21
0.307647
0
LINE
8
BLACK
6
CONTINUOUS
10
0.979148
20
0.307647
11
0.978976
21
0.307443
0
LINE
8
BLACK
6
CONTINUOUS
10
0.978976
20
0.307443
11
0.978221
21
0.30731
0
LINE
8
BLACK
6
CONTINUOUS
10
0.978221
20
0.30731
11
0.9775
21
0.307047
0
LINE
8
BLACK
6
CONTINUOUS
10
0.9775
20
0.307047
11
0.9175
21
0.307047
0
LINE
8
BLACK
6
CONTINUOUS
10
0.9175
20
0.307047
11
0.917116
21
0.307115
0
LINE
8
BLACK
6
CONTINUOUS
10
0.917116
20
0.307115
11
0.916987
21
0.307092
0
LINE
8
BLACK
6
CONTINUOUS
10
0.916987
20
0.307092
11
0.916874
21
0.307158
0
LINE
8
BLACK
6
CONTINUOUS
10
0.916874
20
0.307158
11
0.91649
21
0.307225
0
LINE
8
BLACK
6
CONTINUOUS
10
0.91649
20
0.307225
11
0.915902
21
0.307718
0
LINE
8
BLACK
6
CONTINUOUS
10
0.915902
20
0.307718
11
0.915238
21
0.308102
0
LINE
8
BLACK
6
CONTINUOUS
10
0.915238
20
0.308102
11
0.915147
21
0.308352
0
LINE
8
BLACK
6
CONTINUOUS
10
0.915147
20
0.308352
11
0.914943
21
0.308524
0
LINE
8
BLACK
6
CONTINUOUS
10
0.914943
20
0.308524
11
0.91481
21
0.309279
0
LINE
8
BLACK
6
CONTINUOUS
10
0.91481
20
0.309279
11
0.914547
21
0.31
0
LINE
8
BLACK
6
CONTINUOUS
10
0.914547
20
0.31
11
0.914547
21
0.35
0
LINE
8
BLACK
6
CONTINUOUS
10
0.914547
20
0.35
11
0.914725
21
0.35101
0
LINE
8
BLACK
6
CONTINUOUS
10
0.914725
20
0.35101
11
0.916024
21
0.352557
0
LINE
8
BLACK
6
CONTINUOUS
10
0.916024
20
0.352557
11
0.918013
21
0.352908
0
LINE
8
BLACK
6
CONTINUOUS
10
0.918013
20
0.352908
11
0.919562
21
0.352014
0
LINE
8
BLACK
6
CONTINUOUS
10
0.919562
20
0.352014
11
0.919562
21
0.352017
0
LINE
8
BLACK
6
CONTINUOUS
10
0.919562
20
0.352017
11
0.920192
21
0.353537
0
LINE
8
BLACK
6
CONTINUOUS
10
0.920192
20
0.353537
11
0.921712
21
0.354167
0
LINE
8
BLACK
6
CONTINUOUS
10
0.921712
20
0.354167
11
0.941412
21
0.354167
0
LINE
8
BLACK
6
CONTINUOUS
10
0.941412
20
0.354167
11
0.942932
21
0.353537
0
LINE
8
BLACK
6
CONTINUOUS
10
0.923862
20
0.349867
11
0.923862
21
0.345019
0
LINE
8
BLACK
6
CONTINUOUS
10
0.923862
20
0.345019
11
0.924417
21
0.343909
0
LINE
8
BLACK
6
CONTINUOUS
10
0.924417
20
0.343909
11
0.924862
21
0.343465
0
LINE
8
BLACK
6
CONTINUOUS
10
0.924862
20
0.343465
11
0.925972
21
0.34291
0
LINE
8
BLACK
6
CONTINUOUS
10
0.925972
20
0.34291
11
0.927771
21
0.34291
0
LINE
8
BLACK
6
CONTINUOUS
10
0.927771
20
0.34291
11
0.928881
21
0.343465
0
LINE
8
BLACK
6
CONTINUOUS
10
0.928881
20
0.343465
11
0.929326
21
0.343909
0
LINE
8
BLACK
6
CONTINUOUS
10
0.929326
20
0.343909
11
0.929881
21
0.34502
0
LINE
8
BLACK
6
CONTINUOUS
10
0.929881
20
0.34502
11
0.929881
21
0.349867
0
LINE
8
BLACK
6
CONTINUOUS
10
0.929881
20
0.349867
11
0.923862
21
0.349867
0
LINE
8
BLACK
6
CONTINUOUS
10
0.962808
20
0.367737
11
0.963307
21
0.367702
0
LINE
8
BLACK
6
CONTINUOUS
10
0.963307
20
0.367702
11
0.963539
21
0.367434
0
LINE
8
BLACK
6
CONTINUOUS
10
0.963539
20
0.367434
11
0.963866
21
0.367299
0
LINE
8
BLACK
6
CONTINUOUS
10
0.963866
20
0.367299
11
0.964057
21
0.366836
0
LINE
8
BLACK
6
CONTINUOUS
10
0.964057
20
0.366836
11
0.964385
21
0.366458
0
LINE
8
BLACK
6
CONTINUOUS
10
0.964385
20
0.366458
11
0.96436
21
0.366106
0
LINE
8
BLACK
6
CONTINUOUS
10
0.96436
20
0.366106
11
0.964495
21
0.365779
0
LINE
8
BLACK
6
CONTINUOUS
10
0.964495
20
0.365779
11
0.964495
21
0.358548
0
LINE
8
BLACK
6
CONTINUOUS
10
0.964495
20
0.358548
11
0.968912
21
0.358548
0
LINE
8
BLACK
6
CONTINUOUS
10
0.968912
20
0.358548
11
0.970432
21
0.357918
0
LINE
8
BLACK
6
CONTINUOUS
10
0.970432
20
0.357918
11
0.971062
21
0.356398
0
LINE
8
BLACK
6
CONTINUOUS
10
0.971062
20
0.356398
11
0.970432
21
0.354877
0
LINE
8
BLACK
6
CONTINUOUS
10
0.970432
20
0.354877
11
0.968912
21
0.354248
0
LINE
8
BLACK
6
CONTINUOUS
10
0.968912
20
0.354248
11
0.964495
21
0.354248
0
LINE
8
BLACK
6
CONTINUOUS
10
0.964495
20
0.354248
11
0.964495
21
0.353583
0
LINE
8
BLACK
6
CONTINUOUS
10
0.964495
20
0.353583
11
0.963866
21
0.352063
0
LINE
8
BLACK
6
CONTINUOUS
10
0.963866
20
0.352063
11
0.962345
21
0.351433
0
LINE
8
BLACK
6
CONTINUOUS
10
0.962345
20
0.351433
11
0.960825
21
0.352063
0
LINE
8
BLACK
6
CONTINUOUS
10
0.960825
20
0.352063
11
0.960195
21
0.353583
0
LINE
8
BLACK
6
CONTINUOUS
10
0.960195
20
0.353583
11
0.960195
21
0.354248
0
LINE
8
BLACK
6
CONTINUOUS
10
0.960195
20
0.354248
11
0.955779
21
0.354248
0
LINE
8
BLACK
6
CONTINUOUS
10
0.955779
20
0.354248
11
0.954258
21
0.354877
0
LINE
8
BLACK
6
CONTINUOUS
10
0.954258
20
0.354877
11
0.953629
21
0.356398
0
LINE
8
BLACK
6
CONTINUOUS
10
0.953629
20
0.356398
11
0.954258
21
0.357918
0
LINE
8
BLACK
6
CONTINUOUS
10
0.954258
20
0.357918
11
0.955779
21
0.358548
0
LINE
8
BLACK
6
CONTINUOUS
10
0.955779
20
0.358548
11
0.960195
21
0.358548
0
LINE
8
BLACK
6
CONTINUOUS
10
0.960195
20
0.358548
11
0.960195
21
0.362796
0
LINE
8
BLACK
6
CONTINUOUS
10
0.960195
20
0.362796
11
0.948954
21
0.359048
0
LINE
8
BLACK
6
CONTINUOUS
10
0.948954
20
0.359048
11
0.947312
21
0.359165
0
LINE
8
BLACK
6
CONTINUOUS
10
0.947312
20
0.359165
11
0.946234
21
0.360408
0
LINE
8
BLACK
6
CONTINUOUS
10
0.946234
20
0.360408
11
0.946351
21
0.36205
0
LINE
8
BLACK
6
CONTINUOUS
10
0.946351
20
0.36205
11
0.947594
21
0.363128
0
LINE
8
BLACK
6
CONTINUOUS
10
0.947594
20
0.363128
11
0.961665
21
0.367818
0
LINE
8
BLACK
6
CONTINUOUS
10
0.961665
20
0.367818
11
0.962018
21
0.367793
0
LINE
8
BLACK
6
CONTINUOUS
10
0.962018
20
0.367793
11
0.962345
21
0.367929
0
LINE
8
BLACK
6
CONTINUOUS
10
0.962345
20
0.367929
11
0.962808
21
0.367737
0
LINE
8
BLACK
6
CONTINUOUS
10
0.934159
20
0.373762
11
0.934429
21
0.373802
0
LINE
8
BLACK
6
CONTINUOUS
10
0.934429
20
0.373802
11
0.938181
21
0.372864
0
LINE
8
BLACK
6
CONTINUOUS
10
0.938181
20
0.372864
11
0.938377
21
0.372719
0
LINE
8
BLACK
6
CONTINUOUS
10
0.938377
20
0.372719
11
0.938621
21
0.372702
0
LINE
8
BLACK
6
CONTINUOUS
10
0.938621
20
0.372702
11
0.940497
21
0.371764
0
LINE
8
BLACK
6
CONTINUOUS
10
0.940497
20
0.371764
11
0.940729
21
0.371496
0
LINE
8
BLACK
6
CONTINUOUS
10
0.940729
20
0.371496
11
0.941056
21
0.371361
0
LINE
8
BLACK
6
CONTINUOUS
10
0.941056
20
0.371361
11
0.941994
21
0.370423
0
LINE
8
BLACK
6
CONTINUOUS
10
0.941994
20
0.370423
11
0.942129
21
0.370096
0
LINE
8
BLACK
6
CONTINUOUS
10
0.942129
20
0.370096
11
0.942397
21
0.369864
0
LINE
8
BLACK
6
CONTINUOUS
10
0.942397
20
0.369864
11
0.943335
21
0.367988
0
LINE
8
BLACK
6
CONTINUOUS
10
0.943335
20
0.367988
11
0.94337
21
0.367489
0
LINE
8
BLACK
6
CONTINUOUS
10
0.94337
20
0.367489
11
0.943562
21
0.367026
0
LINE
8
BLACK
6
CONTINUOUS
10
0.943562
20
0.367026
11
0.943562
21
0.36515
0
LINE
8
BLACK
6
CONTINUOUS
10
0.943562
20
0.36515
11
0.94337
21
0.364688
0
LINE
8
BLACK
6
CONTINUOUS
10
0.94337
20
0.364688
11
0.943335
21
0.364188
0
LINE
8
BLACK
6
CONTINUOUS
10
0.943335
20
0.364188
11
0.942397
21
0.362312
0
LINE
8
BLACK
6
CONTINUOUS
10
0.942397
20
0.362312
11
0.942129
21
0.36208
0
LINE
8
BLACK
6
CONTINUOUS
10
0.942129
20
0.36208
11
0.941994
21
0.361754
0
LINE
8
BLACK
6
CONTINUOUS
10
0.941994
20
0.361754
11
0.941056
21
0.360815
0
LINE
8
BLACK
6
CONTINUOUS
10
0.941056
20
0.360815
11
0.940729
21
0.36068
0
LINE
8
BLACK
6
CONTINUOUS
10
0.940729
20
0.36068
11
0.940497
21
0.360413
0
LINE
8
BLACK
6
CONTINUOUS
10
0.940497
20
0.360413
11
0.938621
21
0.359475
0
LINE
8
BLACK
6
CONTINUOUS
10
0.938621
20
0.359475
11
0.938377
21
0.359457
0
LINE
8
BLACK
6
CONTINUOUS
10
0.938377
20
0.359457
11
0.938181
21
0.359312
0
LINE
8
BLACK
6
CONTINUOUS
10
0.938181
20
0.359312
11
0.934429
21
0.358374
0
LINE
8
BLACK
6
CONTINUOUS
10
0.934429
20
0.358374
11
0.934159
21
0.358414
0
LINE
8
BLACK
6
CONTINUOUS
10
0.934159
20
0.358414
11
0.933907
21
0.35831
0
LINE
8
BLACK
6
CONTINUOUS
10
0.933907
20
0.35831
11
0.929217
21
0.35831
0
LINE
8
BLACK
6
CONTINUOUS
10
0.929217
20
0.35831
11
0.928965
21
0.358414
0
LINE
8
BLACK
6
CONTINUOUS
10
0.928965
20
0.358414
11
0.928695
21
0.358374
0
LINE
8
BLACK
6
CONTINUOUS
10
0.928695
20
0.358374
11
0.924943
21
0.359312
0
LINE
8
BLACK
6
CONTINUOUS
10
0.924943
20
0.359312
11
0.924746
21
0.359457
0
LINE
8
BLACK
6
CONTINUOUS
10
0.924746
20
0.359457
11
0.924503
21
0.359475
0
LINE
8
BLACK
6
CONTINUOUS
10
0.924503
20
0.359475
11
0.922627
21
0.360413
0
LINE
8
BLACK
6
CONTINUOUS
10
0.922627
20
0.360413
11
0.922395
21
0.36068
0
LINE
8
BLACK
6
CONTINUOUS
10
0.922395
20
0.36068
11
0.922068
21
0.360815
0
LINE
8
BLACK
6
CONTINUOUS
10
0.922068
20
0.360815
11
0.92113
21
0.361754
0
LINE
8
BLACK
6
CONTINUOUS
10
0.92113
20
0.361754
11
0.920994
21
0.36208
0
LINE
8
BLACK
6
CONTINUOUS
10
0.920994
20
0.36208
11
0.920727
21
0.362312
0
LINE
8
BLACK
6
CONTINUOUS
10
0.920727
20
0.362312
11
0.919789
21
0.364188
0
LINE
8
BLACK
6
CONTINUOUS
10
0.919789
20
0.364188
11
0.919753
21
0.364688
0
LINE
8
BLACK
6
CONTINUOUS
10
0.919753
20
0.364688
11
0.919562
21
0.36515
0
LINE
8
BLACK
6
CONTINUOUS
10
0.919562
20
0.36515
11
0.919562
21
0.367026
0
LINE
8
BLACK
6
CONTINUOUS
10
0.919562
20
0.367026
11
0.919753
21
0.367489
0
LINE
8
BLACK
6
CONTINUOUS
10
0.919753
20
0.367489
11
0.919789
21
0.367988
0
LINE
8
BLACK
6
CONTINUOUS
10
0.919789
20
0.367988
11
0.920727
21
0.369864
0
LINE
8
BLACK
6
CONTINUOUS
10
0.920727
20
0.369864
11
0.920994
21
0.370096
0
LINE
8
BLACK
6
CONTINUOUS
10
0.920994
20
0.370096
11
0.92113
21
0.370423
0
LINE
8
BLACK
6
CONTINUOUS
10
0.92113
20
0.370423
11
0.922068
21
0.371361
0
LINE
8
BLACK
6
CONTINUOUS
10
0.922068
20
0.371361
11
0.922395
21
0.371496
0
LINE
8
BLACK
6
CONTINUOUS
10
0.922395
20
0.371496
11
0.922627
21
0.371764
0
LINE
8
BLACK
6
CONTINUOUS
10
0.922627
20
0.371764
11
0.924503
21
0.372702
0
LINE
8
BLACK
6
CONTINUOUS
10
0.924503
20
0.372702
11
0.924746
21
0.372719
0
LINE
8
BLACK
6
CONTINUOUS
10
0.924746
20
0.372719
11
0.924943
21
0.372864
0
LINE
8
BLACK
6
CONTINUOUS
10
0.924943
20
0.372864
11
0.928695
21
0.373802
0
LINE
8
BLACK
6
CONTINUOUS
10
0.928695
20
0.373802
11
0.928965
21
0.373762
0
LINE
8
BLACK
6
CONTINUOUS
10
0.928965
20
0.373762
11
0.929217
21
0.373867
0
LINE
8
BLACK
6
CONTINUOUS
10
0.929217
20
0.373867
11
0.933907
21
0.373867
0
LINE
8
BLACK
6
CONTINUOUS
10
0.933907
20
0.373867
11
0.934159
21
0.373762
0
LINE
8
BLACK
6
CONTINUOUS
10
0.929481
20
0.369567
11
0.926215
21
0.36875
0
LINE
8
BLACK
6
CONTINUOUS
10
0.926215
20
0.36875
11
0.924862
21
0.368074
0
LINE
8
BLACK
6
CONTINUOUS
10
0.924862
20
0.368074
11
0.924417
21
0.367629
0
LINE
8
BLACK
6
CONTINUOUS
10
0.924417
20
0.367629
11
0.923862
21
0.366519
0
LINE
8
BLACK
6
CONTINUOUS
10
0.923862
20
0.366519
11
0.923862
21
0.365658
0
LINE
8
BLACK
6
CONTINUOUS
10
0.923862
20
0.365658
11
0.924417
21
0.364547
0
LINE
8
BLACK
6
CONTINUOUS
10
0.924417
20
0.364547
11
0.924862
21
0.364103
0
LINE
8
BLACK
6
CONTINUOUS
10
0.924862
20
0.364103
11
0.926215
21
0.363426
0
LINE
8
BLACK
6
CONTINUOUS
10
0.926215
20
0.363426
11
0.929481
21
0.36261
0
LINE
8
BLACK
6
CONTINUOUS
10
0.929481
20
0.36261
11
0.933643
21
0.36261
0
LINE
8
BLACK
6
CONTINUOUS
10
0.933643
20
0.36261
11
0.936909
21
0.363426
0
LINE
8
BLACK
6
CONTINUOUS
10
0.936909
20
0.363426
11
0.938262
21
0.364103
0
LINE
8
BLACK
6
CONTINUOUS
10
0.938262
20
0.364103
11
0.938707
21
0.364547
0
LINE
8
BLACK
6
CONTINUOUS
10
0.938707
20
0.364547
11
0.939262
21
0.365658
0
LINE
8
BLACK
6
CONTINUOUS
10
0.939262
20
0.365658
11
0.939262
21
0.366519
0
LINE
8
BLACK
6
CONTINUOUS
10
0.939262
20
0.366519
11
0.938707
21
0.367629
0
LINE
8
BLACK
6
CONTINUOUS
10
0.938707
20
0.367629
11
0.938262
21
0.368074
0
LINE
8
BLACK
6
CONTINUOUS
10
0.938262
20
0.368074
11
0.936909
21
0.36875
0
LINE
8
BLACK
6
CONTINUOUS
10
0.936909
20
0.36875
11
0.933643
21
0.369567
0
LINE
8
BLACK
6
CONTINUOUS
10
0.933643
20
0.369567
11
0.929481
21
0.369567
0
LINE
8
BLACK
6
CONTINUOUS
10
0.970432
20
0.386061
11
0.971062
21
0.384541
0
LINE
8
BLACK
6
CONTINUOUS
10
0.971062
20
0.384541
11
0.970432
21
0.38302
0
LINE
8
BLACK
6
CONTINUOUS
10
0.970432
20
0.38302
11
0.968912
21
0.382391
0
LINE
8
BLACK
6
CONTINUOUS
10
0.968912
20
0.382391
11
0.961681
21
0.382391
0
LINE
8
BLACK
6
CONTINUOUS
10
0.961681
20
0.382391
11
0.961681
21
0.380969
0
LINE
8
BLACK
6
CONTINUOUS
10
0.961681
20
0.380969
11
0.970145
21
0.375045
0
LINE
8
BLACK
6
CONTINUOUS
10
0.970145
20
0.375045
11
0.971029
21
0.373657
0
LINE
8
BLACK
6
CONTINUOUS
10
0.971029
20
0.373657
11
0.970673
21
0.37205
0
LINE
8
BLACK
6
CONTINUOUS
10
0.970673
20
0.37205
11
0.969286
21
0.371166
0
LINE
8
BLACK
6
CONTINUOUS
10
0.969286
20
0.371166
11
0.967679
21
0.371522
0
LINE
8
BLACK
6
CONTINUOUS
10
0.967679
20
0.371522
11
0.961382
21
0.37593
0
LINE
8
BLACK
6
CONTINUOUS
10
0.961382
20
0.37593
11
0.960516
21
0.374198
0
LINE
8
BLACK
6
CONTINUOUS
10
0.960516
20
0.374198
11
0.960249
21
0.373966
0
LINE
8
BLACK
6
CONTINUOUS
10
0.960249
20
0.373966
11
0.960113
21
0.373639
0
LINE
8
BLACK
6
CONTINUOUS
10
0.960113
20
0.373639
11
0.959175
21
0.372701
0
LINE
8
BLACK
6
CONTINUOUS
10
0.959175
20
0.372701
11
0.958848
21
0.372566
0
LINE
8
BLACK
6
CONTINUOUS
10
0.958848
20
0.372566
11
0.958616
21
0.372298
0
LINE
8
BLACK
6
CONTINUOUS
10
0.958616
20
0.372298
11
0.95674
21
0.37136
0
LINE
8
BLACK
6
CONTINUOUS
10
0.95674
20
0.37136
11
0.956241
21
0.371325
0
LINE
8
BLACK
6
CONTINUOUS
10
0.956241
20
0.371325
11
0.955779
21
0.371133
0
LINE
8
BLACK
6
CONTINUOUS
10
0.955779
20
0.371133
11
0.952964
21
0.371133
0
LINE
8
BLACK
6
CONTINUOUS
10
0.952964
20
0.371133
11
0.952502
21
0.371325
0
LINE
8
BLACK
6
CONTINUOUS
10
0.952502
20
0.371325
11
0.952003
21
0.37136
0
LINE
8
BLACK
6
CONTINUOUS
10
0.952003
20
0.37136
11
0.950127
21
0.372298
0
LINE
8
BLACK
6
CONTINUOUS
10
0.950127
20
0.372298
11
0.949895
21
0.372566
0
LINE
8
BLACK
6
CONTINUOUS
10
0.949895
20
0.372566
11
0.949568
21
0.372701
0
LINE
8
BLACK
6
CONTINUOUS
10
0.949568
20
0.372701
11
0.94863
21
0.373639
0
LINE
8
BLACK
6
CONTINUOUS
10
0.94863
20
0.373639
11
0.948494
21
0.373966
0
LINE
8
BLACK
6
CONTINUOUS
10
0.948494
20
0.373966
11
0.948227
21
0.374198
0
LINE
8
BLACK
6
CONTINUOUS
10
0.948227
20
0.374198
11
0.947289
21
0.376074
0
LINE
8
BLACK
6
CONTINUOUS
10
0.947289
20
0.376074
11
0.947253
21
0.376573
0
LINE
8
BLACK
6
CONTINUOUS
10
0.947253
20
0.376573
11
0.947062
21
0.377036
0
LINE
8
BLACK
6
CONTINUOUS
10
0.947062
20
0.377036
11
0.947062
21
0.384541
0
LINE
8
BLACK
6
CONTINUOUS
10
0.947062
20
0.384541
11
0.947692
21
0.386061
0
LINE
8
BLACK
6
CONTINUOUS
10
0.947692
20
0.386061
11
0.949212
21
0.386691
0
LINE
8
BLACK
6
CONTINUOUS
10
0.949212
20
0.386691
11
0.968912
21
0.386691
0
LINE
8
BLACK
6
CONTINUOUS
10
0.968912
20
0.386691
11
0.970432
21
0.386061
0
LINE
8
BLACK
6
CONTINUOUS
10
0.951362
20
0.382391
11
0.951362
21
0.377543
0
LINE
8
BLACK
6
CONTINUOUS
10
0.951362
20
0.377543
11
0.951917
21
0.376433
0
LINE
8
BLACK
6
CONTINUOUS
10
0.951917
20
0.376433
11
0.952362
21
0.375988
0
LINE
8
BLACK
6
CONTINUOUS
10
0.952362
20
0.375988
11
0.953472
21
0.375433
0
LINE
8
BLACK
6
CONTINUOUS
10
0.953472
20
0.375433
11
0.955271
21
0.375433
0
LINE
8
BLACK
6
CONTINUOUS
10
0.955271
20
0.375433
11
0.956381
21
0.375988
0
LINE
8
BLACK
6
CONTINUOUS
10
0.956381
20
0.375988
11
0.956826
21
0.376433
0
LINE
8
BLACK
6
CONTINUOUS
10
0.956826
20
0.376433
11
0.957381
21
0.377543
0
LINE
8
BLACK
6
CONTINUOUS
10
0.957381
20
0.377543
11
0.957381
21
0.382391
0
LINE
8
BLACK
6
CONTINUOUS
10
0.957381
20
0.382391
11
0.951362
21
0.382391
0
LINE
8
BLACK
6
CONTINUOUS
10
0.934159
20
0.392524
11
0.934429
21
0.392564
0
LINE
8
BLACK
6
CONTINUOUS
10
0.934429
20
0.392564
11
0.938181
21
0.391626
0
LINE
8
BLACK
6
CONTINUOUS
10
0.938181
20
0.391626
11
0.938377
21
0.391481
0
LINE
8
BLACK
6
CONTINUOUS
10
0.938377
20
0.391481
11
0.938621
21
0.391464
0
LINE
8
BLACK
6
CONTINUOUS
10
0.938621
20
0.391464
11
0.940497
21
0.390525
0
LINE
8
BLACK
6
CONTINUOUS
10
0.940497
20
0.390525
11
0.940729
21
0.390258
0
LINE
8
BLACK
6
CONTINUOUS
10
0.940729
20
0.390258
11
0.941056
21
0.390123
0
LINE
8
BLACK
6
CONTINUOUS
10
0.941056
20
0.390123
11
0.941994
21
0.389185
0
LINE
8
BLACK
6
CONTINUOUS
10
0.941994
20
0.389185
11
0.942129
21
0.388858
0
LINE
8
BLACK
6
CONTINUOUS
10
0.942129
20
0.388858
11
0.942397
21
0.388626
0
LINE
8
BLACK
6
CONTINUOUS
10
0.942397
20
0.388626
11
0.943335
21
0.38675
0
LINE
8
BLACK
6
CONTINUOUS
10
0.943335
20
0.38675
11
0.94337
21
0.38625
0
LINE
8
BLACK
6
CONTINUOUS
10
0.94337
20
0.38625
11
0.943562
21
0.385788
0
LINE
8
BLACK
6
CONTINUOUS
10
0.943562
20
0.385788
11
0.943562
21
0.383912
0
LINE
8
BLACK
6
CONTINUOUS
10
0.943562
20
0.383912
11
0.94337
21
0.38345
0
LINE
8
BLACK
6
CONTINUOUS
10
0.94337
20
0.38345
11
0.943335
21
0.38295
0
LINE
8
BLACK
6
CONTINUOUS
10
0.943335
20
0.38295
11
0.942397
21
0.381074
0
LINE
8
BLACK
6
CONTINUOUS
10
0.942397
20
0.381074
11
0.942129
21
0.380842
0
LINE
8
BLACK
6
CONTINUOUS
10
0.942129
20
0.380842
11
0.941994
21
0.380516
0
LINE
8
BLACK
6
CONTINUOUS
10
0.941994
20
0.380516
11
0.941056
21
0.379577
0
LINE
8
BLACK
6
CONTINUOUS
10
0.941056
20
0.379577
11
0.940729
21
0.379442
0
LINE
8
BLACK
6
CONTINUOUS
10
0.940729
20
0.379442
11
0.940497
21
0.379175
0
LINE
8
BLACK
6
CONTINUOUS
10
0.940497
20
0.379175
11
0.938621
21
0.378236
0
LINE
8
BLACK
6
CONTINUOUS
10
0.938621
20
0.378236
11
0.938377
21
0.378219
0
LINE
8
BLACK
6
CONTINUOUS
10
0.938377
20
0.378219
11
0.938181
21
0.378074
0
LINE
8
BLACK
6
CONTINUOUS
10
0.938181
20
0.378074
11
0.934429
21
0.377136
0
LINE
8
BLACK
6
CONTINUOUS
10
0.934429
20
0.377136
11
0.934159
21
0.377176
0
LINE
8
BLACK
6
CONTINUOUS
10
0.934159
20
0.377176
11
0.933907
21
0.377071
0
LINE
8
BLACK
6
CONTINUOUS
10
0.933907
20
0.377071
11
0.929217
21
0.377071
0
LINE
8
BLACK
6
CONTINUOUS
10
0.929217
20
0.377071
11
0.928965
21
0.377176
0
LINE
8
BLACK
6
CONTINUOUS
10
0.928965
20
0.377176
11
0.928695
21
0.377136
0
LINE
8
BLACK
6
CONTINUOUS
10
0.928695
20
0.377136
11
0.924943
21
0.378074
0
LINE
8
BLACK
6
CONTINUOUS
10
0.924943
20
0.378074
11
0.924746
21
0.378219
0
LINE
8
BLACK
6
CONTINUOUS
10
0.924746
20
0.378219
11
0.924503
21
0.378237
0
LINE
8
BLACK
6
CONTINUOUS
10
0.924503
20
0.378237
11
0.922627
21
0.379175
0
LINE
8
BLACK
6
CONTINUOUS
10
0.922627
20
0.379175
11
0.922395
21
0.379442
0
LINE
8
BLACK
6
CONTINUOUS
10
0.922395
20
0.379442
11
0.922068
21
0.379577
0
LINE
8
BLACK
6
CONTINUOUS
10
0.922068
20
0.379577
11
0.92113
21
0.380516
0
LINE
8
BLACK
6
CONTINUOUS
10
0.92113
20
0.380516
11
0.920994
21
0.380842
0
LINE
8
BLACK
6
CONTINUOUS
10
0.920994
20
0.380842
11
0.920727
21
0.381074
0
LINE
8
BLACK
6
CONTINUOUS
10
0.920727
20
0.381074
11
0.919789
21
0.38295
0
LINE
8
BLACK
6
CONTINUOUS
10
0.919789
20
0.38295
11
0.919753
21
0.38345
0
LINE
8
BLACK
6
CONTINUOUS
10
0.919753
20
0.38345
11
0.919562
21
0.383912
0
LINE
8
BLACK
6
CONTINUOUS
10
0.919562
20
0.383912
11
0.919562
21
0.385788
0
LINE
8
BLACK
6
CONTINUOUS
10
0.919562
20
0.385788
11
0.919753
21
0.38625
0
LINE
8
BLACK
6
CONTINUOUS
10
0.919753
20
0.38625
11
0.919789
21
0.38675
0
LINE
8
BLACK
6
CONTINUOUS
10
0.919789
20
0.38675
11
0.920727
21
0.388626
0
LINE
8
BLACK
6
CONTINUOUS
10
0.920727
20
0.388626
11
0.920994
21
0.388858
0
LINE
8
BLACK
6
CONTINUOUS
10
0.920994
20
0.388858
11
0.92113
21
0.389185
0
LINE
8
BLACK
6
CONTINUOUS
10
0.92113
20
0.389185
11
0.922068
21
0.390123
0
LINE
8
BLACK
6
CONTINUOUS
10
0.922068
20
0.390123
11
0.922395
21
0.390258
0
LINE
8
BLACK
6
CONTINUOUS
10
0.922395
20
0.390258
11
0.922627
21
0.390525
0
LINE
8
BLACK
6
CONTINUOUS
10
0.922627
20
0.390525
11
0.924503
21
0.391464
0
LINE
8
BLACK
6
CONTINUOUS
10
0.924503
20
0.391464
11
0.924746
21
0.391481
0
LINE
8
BLACK
6
CONTINUOUS
10
0.924746
20
0.391481
11
0.924943
21
0.391626
0
LINE
8
BLACK
6
CONTINUOUS
10
0.924943
20
0.391626
11
0.928695
21
0.392564
0
LINE
8
BLACK
6
CONTINUOUS
10
0.928695
20
0.392564
11
0.928965
21
0.392524
0
LINE
8
BLACK
6
CONTINUOUS
10
0.928965
20
0.392524
11
0.929217
21
0.392629
0
LINE
8
BLACK
6
CONTINUOUS
10
0.929217
20
0.392629
11
0.933907
21
0.392629
0
LINE
8
BLACK
6
CONTINUOUS
10
0.933907
20
0.392629
11
0.934159
21
0.392524
0
LINE
8
BLACK
6
CONTINUOUS
10
0.929481
20
0.388329
11
0.926215
21
0.387512
0
LINE
8
BLACK
6
CONTINUOUS
10
0.926215
20
0.387512
11
0.924862
21
0.386835
0
LINE
8
BLACK
6
CONTINUOUS
10
0.924862
20
0.386835
11
0.924417
21
0.386391
0
LINE
8
BLACK
6
CONTINUOUS
10
0.924417
20
0.386391
11
0.923862
21
0.385281
0
LINE
8
BLACK
6
CONTINUOUS
10
0.923862
20
0.385281
11
0.923862
21
0.384419
0
LINE
8
BLACK
6
CONTINUOUS
10
0.923862
20
0.384419
11
0.924417
21
0.383309
0
LINE
8
BLACK
6
CONTINUOUS
10
0.924417
20
0.383309
11
0.924862
21
0.382865
0
LINE
8
BLACK
6
CONTINUOUS
10
0.924862
20
0.382865
11
0.926215
21
0.382188
0
LINE
8
BLACK
6
CONTINUOUS
10
0.926215
20
0.382188
11
0.929481
21
0.381371
0
LINE
8
BLACK
6
CONTINUOUS
10
0.929481
20
0.381371
11
0.933642
21
0.381371
0
LINE
8
BLACK
6
CONTINUOUS
10
0.933642
20
0.381371
11
0.936909
21
0.382188
0
LINE
8
BLACK
6
CONTINUOUS
10
0.936909
20
0.382188
11
0.938262
21
0.382865
0
LINE
8
BLACK
6
CONTINUOUS
10
0.938262
20
0.382865
11
0.938707
21
0.383309
0
LINE
8
BLACK
6
CONTINUOUS
10
0.938707
20
0.383309
11
0.939262
21
0.38442
0
LINE
8
BLACK
6
CONTINUOUS
10
0.939262
20
0.38442
11
0.939262
21
0.385281
0
LINE
8
BLACK
6
CONTINUOUS
10
0.939262
20
0.385281
11
0.938707
21
0.386391
0
LINE
8
BLACK
6
CONTINUOUS
10
0.938707
20
0.386391
11
0.938262
21
0.386835
0
LINE
8
BLACK
6
CONTINUOUS
10
0.938262
20
0.386835
11
0.936909
21
0.387512
0
LINE
8
BLACK
6
CONTINUOUS
10
0.936909
20
0.387512
11
0.933642
21
0.388329
0
LINE
8
BLACK
6
CONTINUOUS
10
0.933642
20
0.388329
11
0.929481
21
0.388329
0
LINE
8
BLACK
6
CONTINUOUS
10
0.977884
20
0.432885
11
0.978013
21
0.432908
0
LINE
8
BLACK
6
CONTINUOUS
10
0.978013
20
0.432908
11
0.978126
21
0.432842
0
LINE
8
BLACK
6
CONTINUOUS
10
0.978126
20
0.432842
11
0.97851
21
0.432775
0
LINE
8
BLACK
6
CONTINUOUS
10
0.97851
20
0.432775
11
0.979098
21
0.432282
0
LINE
8
BLACK
6
CONTINUOUS
10
0.979098
20
0.432282
11
0.979762
21
0.431898
0
LINE
8
BLACK
6
CONTINUOUS
10
0.979762
20
0.431898
11
0.979853
21
0.431648
0
LINE
8
BLACK
6
CONTINUOUS
10
0.979853
20
0.431648
11
0.980057
21
0.431476
0
LINE
8
BLACK
6
CONTINUOUS
10
0.980057
20
0.431476
11
0.98019
21
0.430721
0
LINE
8
BLACK
6
CONTINUOUS
10
0.98019
20
0.430721
11
0.980453
21
0.43
0
LINE
8
BLACK
6
CONTINUOUS
10
0.980453
20
0.43
11
0.980453
21
0.39
0
LINE
8
BLACK
6
CONTINUOUS
10
0.980453
20
0.39
11
0.980275
21
0.38899
0
LINE
8
BLACK
6
CONTINUOUS
10
0.980275
20
0.38899
11
0.978976
21
0.387443
0
LINE
8
BLACK
6
CONTINUOUS
10
0.978976
20
0.387443
11
0.976987
21
0.387092
0
LINE
8
BLACK
6
CONTINUOUS
10
0.976987
20
0.387092
11
0.975238
21
0.388102
0
LINE
8
BLACK
6
CONTINUOUS
10
0.975238
20
0.388102
11
0.974547
21
0.39
0
LINE
8
BLACK
6
CONTINUOUS
10
0.974547
20
0.39
11
0.974547
21
0.427047
0
LINE
8
BLACK
6
CONTINUOUS
10
0.974547
20
0.427047
11
0.920453
21
0.427047
0
LINE
8
BLACK
6
CONTINUOUS
10
0.920453
20
0.427047
11
0.920453
21
0.405301
0
LINE
8
BLACK
6
CONTINUOUS
10
0.920453
20
0.405301
11
0.920519
21
0.405401
0
LINE
8
BLACK
6
CONTINUOUS
10
0.920519
20
0.405401
11
0.923157
21
0.407159
0
LINE
8
BLACK
6
CONTINUOUS
10
0.923157
20
0.407159
11
0.924635
21
0.408638
0
LINE
8
BLACK
6
CONTINUOUS
10
0.924635
20
0.408638
11
0.925417
21
0.410202
0
LINE
8
BLACK
6
CONTINUOUS
10
0.925417
20
0.410202
11
0.926661
21
0.41128
0
LINE
8
BLACK
6
CONTINUOUS
10
0.926661
20
0.41128
11
0.928302
21
0.411164
0
LINE
8
BLACK
6
CONTINUOUS
10
0.928302
20
0.411164
11
0.92938
21
0.40992
0
LINE
8
BLACK
6
CONTINUOUS
10
0.92938
20
0.40992
11
0.929264
21
0.408279
0
LINE
8
BLACK
6
CONTINUOUS
10
0.929264
20
0.408279
11
0.928325
21
0.406403
0
LINE
8
BLACK
6
CONTINUOUS
10
0.928325
20
0.406403
11
0.928058
21
0.406171
0
LINE
8
BLACK
6
CONTINUOUS
10
0.928058
20
0.406171
11
0.927923
21
0.405844
0
LINE
8
BLACK
6
CONTINUOUS
10
0.927923
20
0.405844
11
0.927841
21
0.405762
0
LINE
8
BLACK
6
CONTINUOUS
10
0.927841
20
0.405762
11
0.939262
21
0.405762
0
LINE
8
BLACK
6
CONTINUOUS
10
0.939262
20
0.405762
11
0.939262
21
0.409241
0
LINE
8
BLACK
6
CONTINUOUS
10
0.939262
20
0.409241
11
0.939892
21
0.410761
0
LINE
8
BLACK
6
CONTINUOUS
10
0.939892
20
0.410761
11
0.941412
21
0.411391
0
LINE
8
BLACK
6
CONTINUOUS
10
0.941412
20
0.411391
11
0.942932
21
0.410761
0
LINE
8
BLACK
6
CONTINUOUS
10
0.942932
20
0.410761
11
0.943562
21
0.409241
0
LINE
8
BLACK
6
CONTINUOUS
10
0.943562
20
0.409241
11
0.943562
21
0.397983
0
LINE
8
BLACK
6
CONTINUOUS
10
0.943562
20
0.397983
11
0.942932
21
0.396463
0
LINE
8
BLACK
6
CONTINUOUS
10
0.942932
20
0.396463
11
0.941412
21
0.395833
0
LINE
8
BLACK
6
CONTINUOUS
10
0.941412
20
0.395833
11
0.939892
21
0.396463
0
LINE
8
BLACK
6
CONTINUOUS
10
0.939892
20
0.396463
11
0.939262
21
0.397983
0
LINE
8
BLACK
6
CONTINUOUS
10
0.939262
20
0.397983
11
0.939262
21
0.401462
0
LINE
8
BLACK
6
CONTINUOUS
10
0.939262
20
0.401462
11
0.921712
21
0.401462
0
LINE
8
BLACK
6
CONTINUOUS
10
0.921712
20
0.401462
11
0.921507
21
0.401547
0
LINE
8
BLACK
6
CONTINUOUS
10
0.921507
20
0.401547
11
0.92129
21
0.401504
0
LINE
8
BLACK
6
CONTINUOUS
10
0.92129
20
0.401504
11
0.92077
21
0.401852
0
LINE
8
BLACK
6
CONTINUOUS
10
0.92077
20
0.401852
11
0.920453
21
0.401983
0
LINE
8
BLACK
6
CONTINUOUS
10
0.920453
20
0.401983
11
0.920453
21
0.39
0
LINE
8
BLACK
6
CONTINUOUS
10
0.920453
20
0.39
11
0.920275
21
0.38899
0
LINE
8
BLACK
6
CONTINUOUS
10
0.920275
20
0.38899
11
0.918976
21
0.387443
0
LINE
8
BLACK
6
CONTINUOUS
10
0.918976
20
0.387443
11
0.916987
21
0.387092
0
LINE
8
BLACK
6
CONTINUOUS
10
0.916987
20
0.387092
11
0.915238
21
0.388102
0
LINE
8
BLACK
6
CONTINUOUS
10
0.915238
20
0.388102
11
0.914547
21
0.39
0
LINE
8
BLACK
6
CONTINUOUS
10
0.914547
20
0.39
11
0.914547
21
0.43
0
LINE
8
BLACK
6
CONTINUOUS
10
0.914547
20
0.43
11
0.914615
21
0.430384
0
LINE
8
BLACK
6
CONTINUOUS
10
0.914615
20
0.430384
11
0.914592
21
0.430513
0
LINE
8
BLACK
6
CONTINUOUS
10
0.914592
20
0.430513
11
0.914658
21
0.430626
0
LINE
8
BLACK
6
CONTINUOUS
10
0.914658
20
0.430626
11
0.914725
21
0.43101
0
LINE
8
BLACK
6
CONTINUOUS
10
0.914725
20
0.43101
11
0.915218
21
0.431598
0
LINE
8
BLACK
6
CONTINUOUS
10
0.915218
20
0.431598
11
0.915602
21
0.432262
0
LINE
8
BLACK
6
CONTINUOUS
10
0.915602
20
0.432262
11
0.915852
21
0.432353
0
LINE
8
BLACK
6
CONTINUOUS
10
0.915852
20
0.432353
11
0.916024
21
0.432557
0
LINE
8
BLACK
6
CONTINUOUS
10
0.916024
20
0.432557
11
0.916779
21
0.43269
0
LINE
8
BLACK
6
CONTINUOUS
10
0.916779
20
0.43269
11
0.9175
21
0.432953
0
LINE
8
BLACK
6
CONTINUOUS
10
0.9175
20
0.432953
11
0.9775
21
0.432953
0
LINE
8
BLACK
6
CONTINUOUS
10
0.9775
20
0.432953
11
0.977884
21
0.432885
0
LINE
8
BLACK
6
CONTINUOUS
10
0.822262
20
0.444398
11
0.822953
21
0.4425
0
LINE
8
BLACK
6
CONTINUOUS
10
0.822953
20
0.4425
11
0.822953
21
0.4025
0
LINE
8
BLACK
6
CONTINUOUS
10
0.822953
20
0.4025
11
0.822885
21
0.402116
0
LINE
8
BLACK
6
CONTINUOUS
10
0.822885
20
0.402116
11
0.822908
21
0.401987
0
LINE
8
BLACK
6
CONTINUOUS
10
0.822908
20
0.401987
11
0.822842
21
0.401874
0
LINE
8
BLACK
6
CONTINUOUS
10
0.822842
20
0.401874
11
0.822775
21
0.40149
0
LINE
8
BLACK
6
CONTINUOUS
10
0.822775
20
0.40149
11
0.822282
21
0.400902
0
LINE
8
BLACK
6
CONTINUOUS
10
0.822282
20
0.400902
11
0.821898
21
0.400238
0
LINE
8
BLACK
6
CONTINUOUS
10
0.821898
20
0.400238
11
0.821648
21
0.400147
0
LINE
8
BLACK
6
CONTINUOUS
10
0.821648
20
0.400147
11
0.821476
21
0.399943
0
LINE
8
BLACK
6
CONTINUOUS
10
0.821476
20
0.399943
11
0.820721
21
0.39981
0
LINE
8
BLACK
6
CONTINUOUS
10
0.820721
20
0.39981
11
0.82
21
0.399547
0
LINE
8
BLACK
6
CONTINUOUS
10
0.82
20
0.399547
11
0.76
21
0.399547
0
LINE
8
BLACK
6
CONTINUOUS
10
0.76
20
0.399547
11
0.759616
21
0.399615
0
LINE
8
BLACK
6
CONTINUOUS
10
0.759616
20
0.399615
11
0.759487
21
0.399592
0
LINE
8
BLACK
6
CONTINUOUS
10
0.759487
20
0.399592
11
0.759374
21
0.399658
0
LINE
8
BLACK
6
CONTINUOUS
10
0.759374
20
0.399658
11
0.75899
21
0.399725
0
LINE
8
BLACK
6
CONTINUOUS
10
0.75899
20
0.399725
11
0.758402
21
0.400218
0
LINE
8
BLACK
6
CONTINUOUS
10
0.758402
20
0.400218
11
0.757738
21
0.400602
0
LINE
8
BLACK
6
CONTINUOUS
10
0.757738
20
0.400602
11
0.757647
21
0.400852
0
LINE
8
BLACK
6
CONTINUOUS
10
0.757647
20
0.400852
11
0.757443
21
0.401024
0
LINE
8
BLACK
6
CONTINUOUS
10
0.757443
20
0.401024
11
0.75731
21
0.401779
0
LINE
8
BLACK
6
CONTINUOUS
10
0.75731
20
0.401779
11
0.757047
21
0.4025
0
LINE
8
BLACK
6
CONTINUOUS
10
0.757047
20
0.4025
11
0.757047
21
0.4425
0
LINE
8
BLACK
6
CONTINUOUS
10
0.757047
20
0.4425
11
0.757225
21
0.44351
0
LINE
8
BLACK
6
CONTINUOUS
10
0.757225
20
0.44351
11
0.758524
21
0.445057
0
LINE
8
BLACK
6
CONTINUOUS
10
0.758524
20
0.445057
11
0.760513
21
0.445408
0
LINE
8
BLACK
6
CONTINUOUS
10
0.760513
20
0.445408
11
0.762262
21
0.444398
0
LINE
8
BLACK
6
CONTINUOUS
10
0.762262
20
0.444398
11
0.762953
21
0.4425
0
LINE
8
BLACK
6
CONTINUOUS
10
0.762953
20
0.4425
11
0.762953
21
0.405453
0
LINE
8
BLACK
6
CONTINUOUS
10
0.762953
20
0.405453
11
0.817047
21
0.405453
0
LINE
8
BLACK
6
CONTINUOUS
10
0.817047
20
0.405453
11
0.817047
21
0.4425
0
LINE
8
BLACK
6
CONTINUOUS
10
0.817047
20
0.4425
11
0.817225
21
0.44351
0
LINE
8
BLACK
6
CONTINUOUS
10
0.817225
20
0.44351
11
0.818524
21
0.445057
0
LINE
8
BLACK
6
CONTINUOUS
10
0.818524
20
0.445057
11
0.820513
21
0.445408
0
LINE
8
BLACK
6
CONTINUOUS
10
0.820513
20
0.445408
11
0.822262
21
0.444398
0
LINE
8
BLACK
6
CONTINUOUS
10
0.732262
20
0.444398
11
0.732953
21
0.4425
0
LINE
8
BLACK
6
CONTINUOUS
10
0.732953
20
0.4425
11
0.732953
21
0.4025
0
LINE
8
BLACK
6
CONTINUOUS
10
0.732953
20
0.4025
11
0.732885
21
0.402116
0
LINE
8
BLACK
6
CONTINUOUS
10
0.732885
20
0.402116
11
0.732908
21
0.401987
0
LINE
8
BLACK
6
CONTINUOUS
10
0.732908
20
0.401987
11
0.732842
21
0.401874
0
LINE
8
BLACK
6
CONTINUOUS
10
0.732842
20
0.401874
11
0.732775
21
0.40149
0
LINE
8
BLACK
6
CONTINUOUS
10
0.732775
20
0.40149
11
0.732282
21
0.400902
0
LINE
8
BLACK
6
CONTINUOUS
10
0.732282
20
0.400902
11
0.731898
21
0.400238
0
LINE
8
BLACK
6
CONTINUOUS
10
0.731898
20
0.400238
11
0.731648
21
0.400147
0
LINE
8
BLACK
6
CONTINUOUS
10
0.731648
20
0.400147
11
0.731476
21
0.399943
0
LINE
8
BLACK
6
CONTINUOUS
10
0.731476
20
0.399943
11
0.730721
21
0.39981
0
LINE
8
BLACK
6
CONTINUOUS
10
0.730721
20
0.39981
11
0.73
21
0.399547
0
LINE
8
BLACK
6
CONTINUOUS
10
0.73
20
0.399547
11
0.67
21
0.399547
0
LINE
8
BLACK
6
CONTINUOUS
10
0.67
20
0.399547
11
0.669616
21
0.399615
0
LINE
8
BLACK
6
CONTINUOUS
10
0.669616
20
0.399615
11
0.669487
21
0.399592
0
LINE
8
BLACK
6
CONTINUOUS
10
0.669487
20
0.399592
11
0.669374
21
0.399658
0
LINE
8
BLACK
6
CONTINUOUS
10
0.669374
20
0.399658
11
0.66899
21
0.399725
0
LINE
8
BLACK
6
CONTINUOUS
10
0.66899
20
0.399725
11
0.668402
21
0.400218
0
LINE
8
BLACK
6
CONTINUOUS
10
0.668402
20
0.400218
11
0.667738
21
0.400602
0
LINE
8
BLACK
6
CONTINUOUS
10
0.667738
20
0.400602
11
0.667647
21
0.400852
0
LINE
8
BLACK
6
CONTINUOUS
10
0.667647
20
0.400852
11
0.667443
21
0.401024
0
LINE
8
BLACK
6
CONTINUOUS
10
0.667443
20
0.401024
11
0.66731
21
0.401779
0
LINE
8
BLACK
6
CONTINUOUS
10
0.66731
20
0.401779
11
0.667047
21
0.4025
0
LINE
8
BLACK
6
CONTINUOUS
10
0.667047
20
0.4025
11
0.667047
21
0.4425
0
LINE
8
BLACK
6
CONTINUOUS
10
0.667047
20
0.4425
11
0.667225
21
0.44351
0
LINE
8
BLACK
6
CONTINUOUS
10
0.667225
20
0.44351
11
0.668524
21
0.445057
0
LINE
8
BLACK
6
CONTINUOUS
10
0.668524
20
0.445057
11
0.670513
21
0.445408
0
LINE
8
BLACK
6
CONTINUOUS
10
0.670513
20
0.445408
11
0.672262
21
0.444398
0
LINE
8
BLACK
6
CONTINUOUS
10
0.672262
20
0.444398
11
0.672953
21
0.4425
0
LINE
8
BLACK
6
CONTINUOUS
10
0.672953
20
0.4425
11
0.672953
21
0.405453
0
LINE
8
BLACK
6
CONTINUOUS
10
0.672953
20
0.405453
11
0.727047
21
0.405453
0
LINE
8
BLACK
6
CONTINUOUS
10
0.727047
20
0.405453
11
0.727047
21
0.4425
0
LINE
8
BLACK
6
CONTINUOUS
10
0.727047
20
0.4425
11
0.727225
21
0.44351
0
LINE
8
BLACK
6
CONTINUOUS
10
0.727225
20
0.44351
11
0.728524
21
0.445057
0
LINE
8
BLACK
6
CONTINUOUS
10
0.728524
20
0.445057
11
0.730513
21
0.445408
0
LINE
8
BLACK
6
CONTINUOUS
10
0.730513
20
0.445408
11
0.732262
21
0.444398
0
LINE
8
BLACK
6
CONTINUOUS
10
0.38475
20
0.427112
11
0.384173
21
0.428504
0
LINE
8
BLACK
6
CONTINUOUS
10
0.384173
20
0.428504
11
0.384173
21
0.491496
0
LINE
8
BLACK
6
CONTINUOUS
10
0.384173
20
0.491496
11
0.38475
21
0.492888
0
LINE
8
BLACK
6
CONTINUOUS
10
0.38475
20
0.492888
11
0.386142
21
0.493465
0
LINE
8
BLACK
6
CONTINUOUS
10
0.386142
20
0.493465
11
0.516063
21
0.493465
0
LINE
8
BLACK
6
CONTINUOUS
10
0.516063
20
0.493465
11
0.517455
21
0.492888
0
LINE
8
BLACK
6
CONTINUOUS
10
0.517455
20
0.492888
11
0.518031
21
0.491496
0
LINE
8
BLACK
6
CONTINUOUS
10
0.518031
20
0.491496
11
0.518031
21
0.428504
0
LINE
8
BLACK
6
CONTINUOUS
10
0.518031
20
0.428504
11
0.517455
21
0.427112
0
LINE
8
BLACK
6
CONTINUOUS
10
0.517455
20
0.427112
11
0.516063
21
0.426535
0
LINE
8
BLACK
6
CONTINUOUS
10
0.516063
20
0.426535
11
0.386142
21
0.426535
0
LINE
8
BLACK
6
CONTINUOUS
10
0.386142
20
0.426535
11
0.38475
21
0.427112
0
LINE
8
BLACK
6
CONTINUOUS
10
0.38811
20
0.489528
11
0.38811
21
0.430472
0
LINE
8
BLACK
6
CONTINUOUS
10
0.38811
20
0.430472
11
0.514094
21
0.430472
0
LINE
8
BLACK
6
CONTINUOUS
10
0.514094
20
0.430472
11
0.514094
21
0.489528
0
LINE
8
BLACK
6
CONTINUOUS
10
0.514094
20
0.489528
11
0.38811
21
0.489528
0
LINE
8
BLACK
6
CONTINUOUS
10
0.438715
20
0.483045
11
0.439291
21
0.481654
0
LINE
8
BLACK
6
CONTINUOUS
10
0.439291
20
0.481654
11
0.439291
21
0.463678
0
LINE
8
BLACK
6
CONTINUOUS
10
0.439291
20
0.463678
11
0.459853
21
0.477386
0
LINE
8
BLACK
6
CONTINUOUS
10
0.459853
20
0.477386
11
0.460415
21
0.477497
0
LINE
8
BLACK
6
CONTINUOUS
10
0.460415
20
0.477497
11
0.460945
21
0.477717
0
LINE
8
BLACK
6
CONTINUOUS
10
0.460945
20
0.477717
11
0.461132
21
0.477639
0
LINE
8
BLACK
6
CONTINUOUS
10
0.461132
20
0.477639
11
0.461331
21
0.477678
0
LINE
8
BLACK
6
CONTINUOUS
10
0.461331
20
0.477678
11
0.461807
21
0.477359
0
LINE
8
BLACK
6
CONTINUOUS
10
0.461807
20
0.477359
11
0.462337
21
0.47714
0
LINE
8
BLACK
6
CONTINUOUS
10
0.462337
20
0.47714
11
0.462414
21
0.476953
0
LINE
8
BLACK
6
CONTINUOUS
10
0.462414
20
0.476953
11
0.462583
21
0.47684
0
LINE
8
BLACK
6
CONTINUOUS
10
0.462583
20
0.47684
11
0.462694
21
0.476278
0
LINE
8
BLACK
6
CONTINUOUS
10
0.462694
20
0.476278
11
0.462913
21
0.475748
0
LINE
8
BLACK
6
CONTINUOUS
10
0.462913
20
0.475748
11
0.462913
21
0.461969
0
LINE
8
BLACK
6
CONTINUOUS
10
0.462913
20
0.461969
11
0.48063
21
0.461969
0
LINE
8
BLACK
6
CONTINUOUS
10
0.48063
20
0.461969
11
0.482022
21
0.461392
0
LINE
8
BLACK
6
CONTINUOUS
10
0.482022
20
0.461392
11
0.482598
21
0.46
0
LINE
8
BLACK
6
CONTINUOUS
10
0.482598
20
0.46
11
0.482022
21
0.458608
0
LINE
8
BLACK
6
CONTINUOUS
10
0.482022
20
0.458608
11
0.48063
21
0.458031
0
LINE
8
BLACK
6
CONTINUOUS
10
0.48063
20
0.458031
11
0.462913
21
0.458031
0
LINE
8
BLACK
6
CONTINUOUS
10
0.462913
20
0.458031
11
0.462913
21
0.444252
0
LINE
8
BLACK
6
CONTINUOUS
10
0.462913
20
0.444252
11
0.462694
21
0.443722
0
LINE
8
BLACK
6
CONTINUOUS
10
0.462694
20
0.443722
11
0.462583
21
0.44316
0
LINE
8
BLACK
6
CONTINUOUS
10
0.462583
20
0.44316
11
0.462414
21
0.443047
0
LINE
8
BLACK
6
CONTINUOUS
10
0.462414
20
0.443047
11
0.462337
21
0.44286
0
LINE
8
BLACK
6
CONTINUOUS
10
0.462337
20
0.44286
11
0.461807
21
0.442641
0
LINE
8
BLACK
6
CONTINUOUS
10
0.461807
20
0.442641
11
0.461331
21
0.442322
0
LINE
8
BLACK
6
CONTINUOUS
10
0.461331
20
0.442322
11
0.461132
21
0.442361
0
LINE
8
BLACK
6
CONTINUOUS
10
0.461132
20
0.442361
11
0.460945
21
0.442283
0
LINE
8
BLACK
6
CONTINUOUS
10
0.460945
20
0.442283
11
0.460415
21
0.442503
0
LINE
8
BLACK
6
CONTINUOUS
10
0.460415
20
0.442503
11
0.459853
21
0.442614
0
LINE
8
BLACK
6
CONTINUOUS
10
0.459853
20
0.442614
11
0.439291
21
0.456322
0
LINE
8
BLACK
6
CONTINUOUS
10
0.439291
20
0.456322
11
0.439291
21
0.438346
0
LINE
8
BLACK
6
CONTINUOUS
10
0.439291
20
0.438346
11
0.438715
21
0.436955
0
LINE
8
BLACK
6
CONTINUOUS
10
0.438715
20
0.436955
11
0.437323
21
0.436378
0
LINE
8
BLACK
6
CONTINUOUS
10
0.437323
20
0.436378
11
0.435931
21
0.436955
0
LINE
8
BLACK
6
CONTINUOUS
10
0.435931
20
0.436955
11
0.435354
21
0.438346
0
LINE
8
BLACK
6
CONTINUOUS
10
0.435354
20
0.438346
11
0.435354
21
0.458031
0
LINE
8
BLACK
6
CONTINUOUS
10
0.435354
20
0.458031
11
0.421575
21
0.458031
0
LINE
8
BLACK
6
CONTINUOUS
10
0.421575
20
0.458031
11
0.420183
21
0.458608
0
LINE
8
BLACK
6
CONTINUOUS
10
0.420183
20
0.458608
11
0.419606
21
0.46
0
LINE
8
BLACK
6
CONTINUOUS
10
0.419606
20
0.46
11
0.420183
21
0.461392
0
LINE
8
BLACK
6
CONTINUOUS
10
0.420183
20
0.461392
11
0.421575
21
0.461969
0
LINE
8
BLACK
6
CONTINUOUS
10
0.421575
20
0.461969
11
0.435354
21
0.461969
0
LINE
8
BLACK
6
CONTINUOUS
10
0.435354
20
0.461969
11
0.435354
21
0.481654
0
LINE
8
BLACK
6
CONTINUOUS
10
0.435354
20
0.481654
11
0.435931
21
0.483045
0
LINE
8
BLACK
6
CONTINUOUS
10
0.435931
20
0.483045
11
0.437323
21
0.483622
0
LINE
8
BLACK
6
CONTINUOUS
10
0.437323
20
0.483622
11
0.438715
21
0.483045
0
LINE
8
BLACK
6
CONTINUOUS
10
0.440872
20
0.46
11
0.458976
21
0.44793
0
LINE
8
BLACK
6
CONTINUOUS
10
0.458976
20
0.44793
11
0.458976
21
0.47207
0
LINE
8
BLACK
6
CONTINUOUS
10
0.458976
20
0.47207
11
0.440872
21
0.46
0
LINE
8
BLACK
6
CONTINUOUS
10
0.695432
20
0.455418
11
0.696062
21
0.453898
0
LINE
8
BLACK
6
CONTINUOUS
10
0.696062
20
0.453898
11
0.695432
21
0.452377
0
LINE
8
BLACK
6
CONTINUOUS
10
0.695432
20
0.452377
11
0.693912
21
0.451748
0
LINE
8
BLACK
6
CONTINUOUS
10
0.693912
20
0.451748
11
0.686681
21
0.451748
0
LINE
8
BLACK
6
CONTINUOUS
10
0.686681
20
0.451748
11
0.686681
21
0.450327
0
LINE
8
BLACK
6
CONTINUOUS
10
0.686681
20
0.450327
11
0.695145
21
0.444402
0
LINE
8
BLACK
6
CONTINUOUS
10
0.695145
20
0.444402
11
0.696029
21
0.443014
0
LINE
8
BLACK
6
CONTINUOUS
10
0.696029
20
0.443014
11
0.695673
21
0.441408
0
LINE
8
BLACK
6
CONTINUOUS
10
0.695673
20
0.441408
11
0.694286
21
0.440523
0
LINE
8
BLACK
6
CONTINUOUS
10
0.694286
20
0.440523
11
0.692679
21
0.440879
0
LINE
8
BLACK
6
CONTINUOUS
10
0.692679
20
0.440879
11
0.686382
21
0.445287
0
LINE
8
BLACK
6
CONTINUOUS
10
0.686382
20
0.445287
11
0.685516
21
0.443555
0
LINE
8
BLACK
6
CONTINUOUS
10
0.685516
20
0.443555
11
0.685249
21
0.443323
0
LINE
8
BLACK
6
CONTINUOUS
10
0.685249
20
0.443323
11
0.685113
21
0.442996
0
LINE
8
BLACK
6
CONTINUOUS
10
0.685113
20
0.442996
11
0.684175
21
0.442058
0
LINE
8
BLACK
6
CONTINUOUS
10
0.684175
20
0.442058
11
0.683848
21
0.441923
0
LINE
8
BLACK
6
CONTINUOUS
10
0.683848
20
0.441923
11
0.683616
21
0.441656
0
LINE
8
BLACK
6
CONTINUOUS
10
0.683616
20
0.441656
11
0.68174
21
0.440717
0
LINE
8
BLACK
6
CONTINUOUS
10
0.68174
20
0.440717
11
0.681241
21
0.440682
0
LINE
8
BLACK
6
CONTINUOUS
10
0.681241
20
0.440682
11
0.680779
21
0.440491
0
LINE
8
BLACK
6
CONTINUOUS
10
0.680779
20
0.440491
11
0.677964
21
0.440491
0
LINE
8
BLACK
6
CONTINUOUS
10
0.677964
20
0.440491
11
0.677502
21
0.440682
0
LINE
8
BLACK
6
CONTINUOUS
10
0.677502
20
0.440682
11
0.677003
21
0.440717
0
LINE
8
BLACK
6
CONTINUOUS
10
0.677003
20
0.440717
11
0.675127
21
0.441656
0
LINE
8
BLACK
6
CONTINUOUS
10
0.675127
20
0.441656
11
0.674895
21
0.441923
0
LINE
8
BLACK
6
CONTINUOUS
10
0.674895
20
0.441923
11
0.674568
21
0.442058
0
LINE
8
BLACK
6
CONTINUOUS
10
0.674568
20
0.442058
11
0.67363
21
0.442996
0
LINE
8
BLACK
6
CONTINUOUS
10
0.67363
20
0.442996
11
0.673494
21
0.443323
0
LINE
8
BLACK
6
CONTINUOUS
10
0.673494
20
0.443323
11
0.673227
21
0.443555
0
LINE
8
BLACK
6
CONTINUOUS
10
0.673227
20
0.443555
11
0.672289
21
0.445431
0
LINE
8
BLACK
6
CONTINUOUS
10
0.672289
20
0.445431
11
0.672253
21
0.445931
0
LINE
8
BLACK
6
CONTINUOUS
10
0.672253
20
0.445931
11
0.672062
21
0.446393
0
LINE
8
BLACK
6
CONTINUOUS
10
0.672062
20
0.446393
11
0.672062
21
0.453898
0
LINE
8
BLACK
6
CONTINUOUS
10
0.672062
20
0.453898
11
0.672692
21
0.455418
0
LINE
8
BLACK
6
CONTINUOUS
10
0.672692
20
0.455418
11
0.674212
21
0.456048
0
LINE
8
BLACK
6
CONTINUOUS
10
0.674212
20
0.456048
11
0.693912
21
0.456048
0
LINE
8
BLACK
6
CONTINUOUS
10
0.693912
20
0.456048
11
0.695432
21
0.455418
0
LINE
8
BLACK
6
CONTINUOUS
10
0.676362
20
0.451748
11
0.676362
21
0.4469
0
LINE
8
BLACK
6
CONTINUOUS
10
0.676362
20
0.4469
11
0.676917
21
0.44579
0
LINE
8
BLACK
6
CONTINUOUS
10
0.676917
20
0.44579
11
0.677362
21
0.445346
0
LINE
8
BLACK
6
CONTINUOUS
10
0.677362
20
0.445346
11
0.678472
21
0.444791
0
LINE
8
BLACK
6
CONTINUOUS
10
0.678472
20
0.444791
11
0.680271
21
0.444791
0
LINE
8
BLACK
6
CONTINUOUS
10
0.680271
20
0.444791
11
0.681381
21
0.445346
0
LINE
8
BLACK
6
CONTINUOUS
10
0.681381
20
0.445346
11
0.681826
21
0.44579
0
LINE
8
BLACK
6
CONTINUOUS
10
0.681826
20
0.44579
11
0.682381
21
0.4469
0
LINE
8
BLACK
6
CONTINUOUS
10
0.682381
20
0.4469
11
0.682381
21
0.451748
0
LINE
8
BLACK
6
CONTINUOUS
10
0.682381
20
0.451748
11
0.676362
21
0.451748
0
LINE
8
BLACK
6
CONTINUOUS
10
0.785432
20
0.455418
11
0.786062
21
0.453898
0
LINE
8
BLACK
6
CONTINUOUS
10
0.786062
20
0.453898
11
0.785432
21
0.452377
0
LINE
8
BLACK
6
CONTINUOUS
10
0.785432
20
0.452377
11
0.783912
21
0.451748
0
LINE
8
BLACK
6
CONTINUOUS
10
0.783912
20
0.451748
11
0.776681
21
0.451748
0
LINE
8
BLACK
6
CONTINUOUS
10
0.776681
20
0.451748
11
0.776681
21
0.450327
0
LINE
8
BLACK
6
CONTINUOUS
10
0.776681
20
0.450327
11
0.785145
21
0.444402
0
LINE
8
BLACK
6
CONTINUOUS
10
0.785145
20
0.444402
11
0.786029
21
0.443014
0
LINE
8
BLACK
6
CONTINUOUS
10
0.786029
20
0.443014
11
0.785673
21
0.441408
0
LINE
8
BLACK
6
CONTINUOUS
10
0.785673
20
0.441408
11
0.784286
21
0.440523
0
LINE
8
BLACK
6
CONTINUOUS
10
0.784286
20
0.440523
11
0.782679
21
0.440879
0
LINE
8
BLACK
6
CONTINUOUS
10
0.782679
20
0.440879
11
0.776382
21
0.445287
0
LINE
8
BLACK
6
CONTINUOUS
10
0.776382
20
0.445287
11
0.775516
21
0.443555
0
LINE
8
BLACK
6
CONTINUOUS
10
0.775516
20
0.443555
11
0.775249
21
0.443323
0
LINE
8
BLACK
6
CONTINUOUS
10
0.775249
20
0.443323
11
0.775113
21
0.442996
0
LINE
8
BLACK
6
CONTINUOUS
10
0.775113
20
0.442996
11
0.774175
21
0.442058
0
LINE
8
BLACK
6
CONTINUOUS
10
0.774175
20
0.442058
11
0.773848
21
0.441923
0
LINE
8
BLACK
6
CONTINUOUS
10
0.773848
20
0.441923
11
0.773616
21
0.441656
0
LINE
8
BLACK
6
CONTINUOUS
10
0.773616
20
0.441656
11
0.77174
21
0.440717
0
LINE
8
BLACK
6
CONTINUOUS
10
0.77174
20
0.440717
11
0.771241
21
0.440682
0
LINE
8
BLACK
6
CONTINUOUS
10
0.771241
20
0.440682
11
0.770779
21
0.440491
0
LINE
8
BLACK
6
CONTINUOUS
10
0.770779
20
0.440491
11
0.767964
21
0.440491
0
LINE
8
BLACK
6
CONTINUOUS
10
0.767964
20
0.440491
11
0.767502
21
0.440682
0
LINE
8
BLACK
6
CONTINUOUS
10
0.767502
20
0.440682
11
0.767003
21
0.440717
0
LINE
8
BLACK
6
CONTINUOUS
10
0.767003
20
0.440717
11
0.765127
21
0.441656
0
LINE
8
BLACK
6
CONTINUOUS
10
0.765127
20
0.441656
11
0.764895
21
0.441923
0
LINE
8
BLACK
6
CONTINUOUS
10
0.764895
20
0.441923
11
0.764568
21
0.442058
0
LINE
8
BLACK
6
CONTINUOUS
10
0.764568
20
0.442058
11
0.76363
21
0.442996
0
LINE
8
BLACK
6
CONTINUOUS
10
0.76363
20
0.442996
11
0.763494
21
0.443323
0
LINE
8
BLACK
6
CONTINUOUS
10
0.763494
20
0.443323
11
0.763227
21
0.443555
0
LINE
8
BLACK
6
CONTINUOUS
10
0.763227
20
0.443555
11
0.762289
21
0.445431
0
LINE
8
BLACK
6
CONTINUOUS
10
0.762289
20
0.445431
11
0.762253
21
0.445931
0
LINE
8
BLACK
6
CONTINUOUS
10
0.762253
20
0.445931
11
0.762062
21
0.446393
0
LINE
8
BLACK
6
CONTINUOUS
10
0.762062
20
0.446393
11
0.762062
21
0.453898
0
LINE
8
BLACK
6
CONTINUOUS
10
0.762062
20
0.453898
11
0.762692
21
0.455418
0
LINE
8
BLACK
6
CONTINUOUS
10
0.762692
20
0.455418
11
0.764212
21
0.456048
0
LINE
8
BLACK
6
CONTINUOUS
10
0.764212
20
0.456048
11
0.783912
21
0.456048
0
LINE
8
BLACK
6
CONTINUOUS
10
0.783912
20
0.456048
11
0.785432
21
0.455418
0
LINE
8
BLACK
6
CONTINUOUS
10
0.766362
20
0.451748
11
0.766362
21
0.4469
0
LINE
8
BLACK
6
CONTINUOUS
10
0.766362
20
0.4469
11
0.766917
21
0.44579
0
LINE
8
BLACK
6
CONTINUOUS
10
0.766917
20
0.44579
11
0.767362
21
0.445346
0
LINE
8
BLACK
6
CONTINUOUS
10
0.767362
20
0.445346
11
0.768472
21
0.444791
0
LINE
8
BLACK
6
CONTINUOUS
10
0.768472
20
0.444791
11
0.770271
21
0.444791
0
LINE
8
BLACK
6
CONTINUOUS
10
0.770271
20
0.444791
11
0.771381
21
0.445346
0
LINE
8
BLACK
6
CONTINUOUS
10
0.771381
20
0.445346
11
0.771826
21
0.44579
0
LINE
8
BLACK
6
CONTINUOUS
10
0.771826
20
0.44579
11
0.772381
21
0.4469
0
LINE
8
BLACK
6
CONTINUOUS
10
0.772381
20
0.4469
11
0.772381
21
0.451748
0
LINE
8
BLACK
6
CONTINUOUS
10
0.772381
20
0.451748
11
0.766362
21
0.451748
0
LINE
8
BLACK
6
CONTINUOUS
10
0.722932
20
0.460737
11
0.723562
21
0.459217
0
LINE
8
BLACK
6
CONTINUOUS
10
0.723562
20
0.459217
11
0.723562
21
0.447021
0
LINE
8
BLACK
6
CONTINUOUS
10
0.723562
20
0.447021
11
0.722932
21
0.445501
0
LINE
8
BLACK
6
CONTINUOUS
10
0.722932
20
0.445501
11
0.721412
21
0.444871
0
LINE
8
BLACK
6
CONTINUOUS
10
0.721412
20
0.444871
11
0.719892
21
0.445501
0
LINE
8
BLACK
6
CONTINUOUS
10
0.719892
20
0.445501
11
0.719262
21
0.447021
0
LINE
8
BLACK
6
CONTINUOUS
10
0.719262
20
0.447021
11
0.719262
21
0.454026
0
LINE
8
BLACK
6
CONTINUOUS
10
0.719262
20
0.454026
11
0.711675
21
0.446439
0
LINE
8
BLACK
6
CONTINUOUS
10
0.711675
20
0.446439
11
0.711213
21
0.446248
0
LINE
8
BLACK
6
CONTINUOUS
10
0.711213
20
0.446248
11
0.710835
21
0.44592
0
LINE
8
BLACK
6
CONTINUOUS
10
0.710835
20
0.44592
11
0.70802
21
0.444982
0
LINE
8
BLACK
6
CONTINUOUS
10
0.70802
20
0.444982
11
0.707667
21
0.445007
0
LINE
8
BLACK
6
CONTINUOUS
10
0.707667
20
0.445007
11
0.70734
21
0.444871
0
LINE
8
BLACK
6
CONTINUOUS
10
0.70734
20
0.444871
11
0.705464
21
0.444871
0
LINE
8
BLACK
6
CONTINUOUS
10
0.705464
20
0.444871
11
0.705002
21
0.445063
0
LINE
8
BLACK
6
CONTINUOUS
10
0.705002
20
0.445063
11
0.704503
21
0.445098
0
LINE
8
BLACK
6
CONTINUOUS
10
0.704503
20
0.445098
11
0.702627
21
0.446036
0
LINE
8
BLACK
6
CONTINUOUS
10
0.702627
20
0.446036
11
0.702395
21
0.446304
0
LINE
8
BLACK
6
CONTINUOUS
10
0.702395
20
0.446304
11
0.702068
21
0.446439
0
LINE
8
BLACK
6
CONTINUOUS
10
0.702068
20
0.446439
11
0.70113
21
0.447377
0
LINE
8
BLACK
6
CONTINUOUS
10
0.70113
20
0.447377
11
0.700994
21
0.447704
0
LINE
8
BLACK
6
CONTINUOUS
10
0.700994
20
0.447704
11
0.700727
21
0.447936
0
LINE
8
BLACK
6
CONTINUOUS
10
0.700727
20
0.447936
11
0.699789
21
0.449812
0
LINE
8
BLACK
6
CONTINUOUS
10
0.699789
20
0.449812
11
0.699753
21
0.450311
0
LINE
8
BLACK
6
CONTINUOUS
10
0.699753
20
0.450311
11
0.699562
21
0.450774
0
LINE
8
BLACK
6
CONTINUOUS
10
0.699562
20
0.450774
11
0.699562
21
0.455464
0
LINE
8
BLACK
6
CONTINUOUS
10
0.699562
20
0.455464
11
0.699753
21
0.455927
0
LINE
8
BLACK
6
CONTINUOUS
10
0.699753
20
0.455927
11
0.699789
21
0.456426
0
LINE
8
BLACK
6
CONTINUOUS
10
0.699789
20
0.456426
11
0.700727
21
0.458302
0
LINE
8
BLACK
6
CONTINUOUS
10
0.700727
20
0.458302
11
0.700994
21
0.458534
0
LINE
8
BLACK
6
CONTINUOUS
10
0.700994
20
0.458534
11
0.70113
21
0.458861
0
LINE
8
BLACK
6
CONTINUOUS
10
0.70113
20
0.458861
11
0.702068
21
0.459799
0
LINE
8
BLACK
6
CONTINUOUS
10
0.702068
20
0.459799
11
0.703588
21
0.460429
0
LINE
8
BLACK
6
CONTINUOUS
10
0.703588
20
0.460429
11
0.705108
21
0.459799
0
LINE
8
BLACK
6
CONTINUOUS
10
0.705108
20
0.459799
11
0.705738
21
0.458279
0
LINE
8
BLACK
6
CONTINUOUS
10
0.705738
20
0.458279
11
0.705108
21
0.456758
0
LINE
8
BLACK
6
CONTINUOUS
10
0.705108
20
0.456758
11
0.704417
21
0.456067
0
LINE
8
BLACK
6
CONTINUOUS
10
0.704417
20
0.456067
11
0.703862
21
0.454957
0
LINE
8
BLACK
6
CONTINUOUS
10
0.703862
20
0.454957
11
0.703862
21
0.451281
0
LINE
8
BLACK
6
CONTINUOUS
10
0.703862
20
0.451281
11
0.704417
21
0.450171
0
LINE
8
BLACK
6
CONTINUOUS
10
0.704417
20
0.450171
11
0.704862
21
0.449727
0
LINE
8
BLACK
6
CONTINUOUS
10
0.704862
20
0.449727
11
0.705972
21
0.449171
0
LINE
8
BLACK
6
CONTINUOUS
10
0.705972
20
0.449171
11
0.706992
21
0.449171
0
LINE
8
BLACK
6
CONTINUOUS
10
0.706992
20
0.449171
11
0.708993
21
0.449839
0
LINE
8
BLACK
6
CONTINUOUS
10
0.708993
20
0.449839
11
0.719892
21
0.460737
0
LINE
8
BLACK
6
CONTINUOUS
10
0.719892
20
0.460737
11
0.721412
21
0.461367
0
LINE
8
BLACK
6
CONTINUOUS
10
0.721412
20
0.461367
11
0.722932
21
0.460737
0
LINE
8
BLACK
6
CONTINUOUS
10
0.812932
20
0.459799
11
0.813562
21
0.458279
0
LINE
8
BLACK
6
CONTINUOUS
10
0.813562
20
0.458279
11
0.813562
21
0.447021
0
LINE
8
BLACK
6
CONTINUOUS
10
0.813562
20
0.447021
11
0.812932
21
0.445501
0
LINE
8
BLACK
6
CONTINUOUS
10
0.812932
20
0.445501
11
0.811412
21
0.444871
0
LINE
8
BLACK
6
CONTINUOUS
10
0.811412
20
0.444871
11
0.809892
21
0.445501
0
LINE
8
BLACK
6
CONTINUOUS
10
0.809892
20
0.445501
11
0.809262
21
0.447021
0
LINE
8
BLACK
6
CONTINUOUS
10
0.809262
20
0.447021
11
0.809262
21
0.4505
0
LINE
8
BLACK
6
CONTINUOUS
10
0.809262
20
0.4505
11
0.791712
21
0.4505
0
LINE
8
BLACK
6
CONTINUOUS
10
0.791712
20
0.4505
11
0.791507
21
0.450585
0
LINE
8
BLACK
6
CONTINUOUS
10
0.791507
20
0.450585
11
0.79129
21
0.450542
0
LINE
8
BLACK
6
CONTINUOUS
10
0.79129
20
0.450542
11
0.79077
21
0.45089
0
LINE
8
BLACK
6
CONTINUOUS
10
0.79077
20
0.45089
11
0.790192
21
0.45113
0
LINE
8
BLACK
6
CONTINUOUS
10
0.790192
20
0.45113
11
0.790107
21
0.451334
0
LINE
8
BLACK
6
CONTINUOUS
10
0.790107
20
0.451334
11
0.789923
21
0.451457
0
LINE
8
BLACK
6
CONTINUOUS
10
0.789923
20
0.451457
11
0.789801
21
0.452071
0
LINE
8
BLACK
6
CONTINUOUS
10
0.789801
20
0.452071
11
0.789562
21
0.45265
0
LINE
8
BLACK
6
CONTINUOUS
10
0.789562
20
0.45265
11
0.789647
21
0.452855
0
LINE
8
BLACK
6
CONTINUOUS
10
0.789647
20
0.452855
11
0.789604
21
0.453072
0
LINE
8
BLACK
6
CONTINUOUS
10
0.789604
20
0.453072
11
0.789952
21
0.453592
0
LINE
8
BLACK
6
CONTINUOUS
10
0.789952
20
0.453592
11
0.790192
21
0.45417
0
LINE
8
BLACK
6
CONTINUOUS
10
0.790192
20
0.45417
11
0.790396
21
0.454255
0
LINE
8
BLACK
6
CONTINUOUS
10
0.790396
20
0.454255
11
0.790519
21
0.454439
0
LINE
8
BLACK
6
CONTINUOUS
10
0.790519
20
0.454439
11
0.793156
21
0.456197
0
LINE
8
BLACK
6
CONTINUOUS
10
0.793156
20
0.456197
11
0.794635
21
0.457676
0
LINE
8
BLACK
6
CONTINUOUS
10
0.794635
20
0.457676
11
0.795417
21
0.45924
0
LINE
8
BLACK
6
CONTINUOUS
10
0.795417
20
0.45924
11
0.796661
21
0.460318
0
LINE
8
BLACK
6
CONTINUOUS
10
0.796661
20
0.460318
11
0.798302
21
0.460202
0
LINE
8
BLACK
6
CONTINUOUS
10
0.798302
20
0.460202
11
0.79938
21
0.458958
0
LINE
8
BLACK
6
CONTINUOUS
10
0.79938
20
0.458958
11
0.799263
21
0.457317
0
LINE
8
BLACK
6
CONTINUOUS
10
0.799263
20
0.457317
11
0.798325
21
0.455441
0
LINE
8
BLACK
6
CONTINUOUS
10
0.798325
20
0.455441
11
0.798058
21
0.455209
0
LINE
8
BLACK
6
CONTINUOUS
10
0.798058
20
0.455209
11
0.797923
21
0.454882
0
LINE
8
BLACK
6
CONTINUOUS
10
0.797923
20
0.454882
11
0.797841
21
0.4548
0
LINE
8
BLACK
6
CONTINUOUS
10
0.797841
20
0.4548
11
0.809262
21
0.4548
0
LINE
8
BLACK
6
CONTINUOUS
10
0.809262
20
0.4548
11
0.809262
21
0.458279
0
LINE
8
BLACK
6
CONTINUOUS
10
0.809262
20
0.458279
11
0.809892
21
0.459799
0
LINE
8
BLACK
6
CONTINUOUS
10
0.809892
20
0.459799
11
0.811412
21
0.460429
0
LINE
8
BLACK
6
CONTINUOUS
10
0.811412
20
0.460429
11
0.812932
21
0.459799
0
LINE
8
BLACK
6
CONTINUOUS
10
0.693556
20
0.476056
11
0.694494
21
0.475118
0
LINE
8
BLACK
6
CONTINUOUS
10
0.694494
20
0.475118
11
0.694629
21
0.474791
0
LINE
8
BLACK
6
CONTINUOUS
10
0.694629
20
0.474791
11
0.694897
21
0.474559
0
LINE
8
BLACK
6
CONTINUOUS
10
0.694897
20
0.474559
11
0.695835
21
0.472683
0
LINE
8
BLACK
6
CONTINUOUS
10
0.695835
20
0.472683
11
0.69587
21
0.472184
0
LINE
8
BLACK
6
CONTINUOUS
10
0.69587
20
0.472184
11
0.696062
21
0.471721
0
LINE
8
BLACK
6
CONTINUOUS
10
0.696062
20
0.471721
11
0.696062
21
0.466093
0
LINE
8
BLACK
6
CONTINUOUS
10
0.696062
20
0.466093
11
0.69587
21
0.465631
0
LINE
8
BLACK
6
CONTINUOUS
10
0.69587
20
0.465631
11
0.695835
21
0.465131
0
LINE
8
BLACK
6
CONTINUOUS
10
0.695835
20
0.465131
11
0.694897
21
0.463255
0
LINE
8
BLACK
6
CONTINUOUS
10
0.694897
20
0.463255
11
0.694629
21
0.463023
0
LINE
8
BLACK
6
CONTINUOUS
10
0.694629
20
0.463023
11
0.694494
21
0.462696
0
LINE
8
BLACK
6
CONTINUOUS
10
0.694494
20
0.462696
11
0.693556
21
0.461758
0
LINE
8
BLACK
6
CONTINUOUS
10
0.693556
20
0.461758
11
0.693229
21
0.461623
0
LINE
8
BLACK
6
CONTINUOUS
10
0.693229
20
0.461623
11
0.692997
21
0.461356
0
LINE
8
BLACK
6
CONTINUOUS
10
0.692997
20
0.461356
11
0.691121
21
0.460417
0
LINE
8
BLACK
6
CONTINUOUS
10
0.691121
20
0.460417
11
0.690622
21
0.460382
0
LINE
8
BLACK
6
CONTINUOUS
10
0.690622
20
0.460382
11
0.690159
21
0.460191
0
LINE
8
BLACK
6
CONTINUOUS
10
0.690159
20
0.460191
11
0.685469
21
0.460191
0
LINE
8
BLACK
6
CONTINUOUS
10
0.685469
20
0.460191
11
0.685007
21
0.460382
0
LINE
8
BLACK
6
CONTINUOUS
10
0.685007
20
0.460382
11
0.684508
21
0.460417
0
LINE
8
BLACK
6
CONTINUOUS
10
0.684508
20
0.460417
11
0.682631
21
0.461356
0
LINE
8
BLACK
6
CONTINUOUS
10
0.682631
20
0.461356
11
0.682399
21
0.461623
0
LINE
8
BLACK
6
CONTINUOUS
10
0.682399
20
0.461623
11
0.682073
21
0.461758
0
LINE
8
BLACK
6
CONTINUOUS
10
0.682073
20
0.461758
11
0.681134
21
0.462696
0
LINE
8
BLACK
6
CONTINUOUS
10
0.681134
20
0.462696
11
0.680999
21
0.463023
0
LINE
8
BLACK
6
CONTINUOUS
10
0.680999
20
0.463023
11
0.680732
21
0.463255
0
LINE
8
BLACK
6
CONTINUOUS
10
0.680732
20
0.463255
11
0.680059
21
0.4646
0
LINE
8
BLACK
6
CONTINUOUS
10
0.680059
20
0.4646
11
0.675628
21
0.460722
0
LINE
8
BLACK
6
CONTINUOUS
10
0.675628
20
0.460722
11
0.674911
21
0.46048
0
LINE
8
BLACK
6
CONTINUOUS
10
0.674911
20
0.46048
11
0.674212
21
0.460191
0
LINE
8
BLACK
6
CONTINUOUS
10
0.674212
20
0.460191
11
0.674141
21
0.46022
0
LINE
8
BLACK
6
CONTINUOUS
10
0.674141
20
0.46022
11
0.674069
21
0.460195
0
LINE
8
BLACK
6
CONTINUOUS
10
0.674069
20
0.460195
11
0.673391
21
0.460531
0
LINE
8
BLACK
6
CONTINUOUS
10
0.673391
20
0.460531
11
0.672692
21
0.46082
0
LINE
8
BLACK
6
CONTINUOUS
10
0.672692
20
0.46082
11
0.672662
21
0.460891
0
LINE
8
BLACK
6
CONTINUOUS
10
0.672662
20
0.460891
11
0.672594
21
0.460925
0
LINE
8
BLACK
6
CONTINUOUS
10
0.672594
20
0.460925
11
0.672351
21
0.461641
0
LINE
8
BLACK
6
CONTINUOUS
10
0.672351
20
0.461641
11
0.672062
21
0.462341
0
LINE
8
BLACK
6
CONTINUOUS
10
0.672062
20
0.462341
11
0.672062
21
0.474536
0
LINE
8
BLACK
6
CONTINUOUS
10
0.672062
20
0.474536
11
0.672692
21
0.476056
0
LINE
8
BLACK
6
CONTINUOUS
10
0.672692
20
0.476056
11
0.674212
21
0.476686
0
LINE
8
BLACK
6
CONTINUOUS
10
0.674212
20
0.476686
11
0.675732
21
0.476056
0
LINE
8
BLACK
6
CONTINUOUS
10
0.675732
20
0.476056
11
0.676362
21
0.474536
0
LINE
8
BLACK
6
CONTINUOUS
10
0.676362
20
0.474536
11
0.676362
21
0.467079
0
LINE
8
BLACK
6
CONTINUOUS
10
0.676362
20
0.467079
11
0.680301
21
0.470525
0
LINE
8
BLACK
6
CONTINUOUS
10
0.680301
20
0.470525
11
0.681018
21
0.470768
0
LINE
8
BLACK
6
CONTINUOUS
10
0.681018
20
0.470768
11
0.681717
21
0.471057
0
LINE
8
BLACK
6
CONTINUOUS
10
0.681717
20
0.471057
11
0.681787
21
0.471028
0
LINE
8
BLACK
6
CONTINUOUS
10
0.681787
20
0.471028
11
0.68186
21
0.471052
0
LINE
8
BLACK
6
CONTINUOUS
10
0.68186
20
0.471052
11
0.682538
21
0.470717
0
LINE
8
BLACK
6
CONTINUOUS
10
0.682538
20
0.470717
11
0.683237
21
0.470427
0
LINE
8
BLACK
6
CONTINUOUS
10
0.683237
20
0.470427
11
0.683266
21
0.470357
0
LINE
8
BLACK
6
CONTINUOUS
10
0.683266
20
0.470357
11
0.683335
21
0.470323
0
LINE
8
BLACK
6
CONTINUOUS
10
0.683335
20
0.470323
11
0.683577
21
0.469606
0
LINE
8
BLACK
6
CONTINUOUS
10
0.683577
20
0.469606
11
0.683867
21
0.468907
0
LINE
8
BLACK
6
CONTINUOUS
10
0.683867
20
0.468907
11
0.683867
21
0.4666
0
LINE
8
BLACK
6
CONTINUOUS
10
0.683867
20
0.4666
11
0.684422
21
0.46549
0
LINE
8
BLACK
6
CONTINUOUS
10
0.684422
20
0.46549
11
0.684866
21
0.465046
0
LINE
8
BLACK
6
CONTINUOUS
10
0.684866
20
0.465046
11
0.685977
21
0.464491
0
LINE
8
BLACK
6
CONTINUOUS
10
0.685977
20
0.464491
11
0.689652
21
0.464491
0
LINE
8
BLACK
6
CONTINUOUS
10
0.689652
20
0.464491
11
0.690762
21
0.465046
0
LINE
8
BLACK
6
CONTINUOUS
10
0.690762
20
0.465046
11
0.691207
21
0.46549
0
LINE
8
BLACK
6
CONTINUOUS
10
0.691207
20
0.46549
11
0.691762
21
0.4666
0
LINE
8
BLACK
6
CONTINUOUS
10
0.691762
20
0.4666
11
0.691762
21
0.471214
0
LINE
8
BLACK
6
CONTINUOUS
10
0.691762
20
0.471214
11
0.691207
21
0.472324
0
LINE
8
BLACK
6
CONTINUOUS
10
0.691207
20
0.472324
11
0.690515
21
0.473016
0
LINE
8
BLACK
6
CONTINUOUS
10
0.690515
20
0.473016
11
0.689886
21
0.474536
0
LINE
8
BLACK
6
CONTINUOUS
10
0.689886
20
0.474536
11
0.690515
21
0.476056
0
LINE
8
BLACK
6
CONTINUOUS
10
0.690515
20
0.476056
11
0.692036
21
0.476686
0
LINE
8
BLACK
6
CONTINUOUS
10
0.692036
20
0.476686
11
0.693556
21
0.476056
0
LINE
8
BLACK
6
CONTINUOUS
10
0.783556
20
0.476056
11
0.784494
21
0.475118
0
LINE
8
BLACK
6
CONTINUOUS
10
0.784494
20
0.475118
11
0.784629
21
0.474791
0
LINE
8
BLACK
6
CONTINUOUS
10
0.784629
20
0.474791
11
0.784897
21
0.474559
0
LINE
8
BLACK
6
CONTINUOUS
10
0.784897
20
0.474559
11
0.785835
21
0.472683
0
LINE
8
BLACK
6
CONTINUOUS
10
0.785835
20
0.472683
11
0.78587
21
0.472184
0
LINE
8
BLACK
6
CONTINUOUS
10
0.78587
20
0.472184
11
0.786062
21
0.471721
0
LINE
8
BLACK
6
CONTINUOUS
10
0.786062
20
0.471721
11
0.786062
21
0.466093
0
LINE
8
BLACK
6
CONTINUOUS
10
0.786062
20
0.466093
11
0.78587
21
0.465631
0
LINE
8
BLACK
6
CONTINUOUS
10
0.78587
20
0.465631
11
0.785835
21
0.465131
0
LINE
8
BLACK
6
CONTINUOUS
10
0.785835
20
0.465131
11
0.784897
21
0.463255
0
LINE
8
BLACK
6
CONTINUOUS
10
0.784897
20
0.463255
11
0.784629
21
0.463023
0
LINE
8
BLACK
6
CONTINUOUS
10
0.784629
20
0.463023
11
0.784494
21
0.462696
0
LINE
8
BLACK
6
CONTINUOUS
10
0.784494
20
0.462696
11
0.783556
21
0.461758
0
LINE
8
BLACK
6
CONTINUOUS
10
0.783556
20
0.461758
11
0.783229
21
0.461623
0
LINE
8
BLACK
6
CONTINUOUS
10
0.783229
20
0.461623
11
0.782997
21
0.461356
0
LINE
8
BLACK
6
CONTINUOUS
10
0.782997
20
0.461356
11
0.781121
21
0.460417
0
LINE
8
BLACK
6
CONTINUOUS
10
0.781121
20
0.460417
11
0.780622
21
0.460382
0
LINE
8
BLACK
6
CONTINUOUS
10
0.780622
20
0.460382
11
0.780159
21
0.460191
0
LINE
8
BLACK
6
CONTINUOUS
10
0.780159
20
0.460191
11
0.775469
21
0.460191
0
LINE
8
BLACK
6
CONTINUOUS
10
0.775469
20
0.460191
11
0.775007
21
0.460382
0
LINE
8
BLACK
6
CONTINUOUS
10
0.775007
20
0.460382
11
0.774508
21
0.460417
0
LINE
8
BLACK
6
CONTINUOUS
10
0.774508
20
0.460417
11
0.772631
21
0.461356
0
LINE
8
BLACK
6
CONTINUOUS
10
0.772631
20
0.461356
11
0.772399
21
0.461623
0
LINE
8
BLACK
6
CONTINUOUS
10
0.772399
20
0.461623
11
0.772073
21
0.461758
0
LINE
8
BLACK
6
CONTINUOUS
10
0.772073
20
0.461758
11
0.771134
21
0.462696
0
LINE
8
BLACK
6
CONTINUOUS
10
0.771134
20
0.462696
11
0.770999
21
0.463023
0
LINE
8
BLACK
6
CONTINUOUS
10
0.770999
20
0.463023
11
0.770732
21
0.463255
0
LINE
8
BLACK
6
CONTINUOUS
10
0.770732
20
0.463255
11
0.770059
21
0.4646
0
LINE
8
BLACK
6
CONTINUOUS
10
0.770059
20
0.4646
11
0.765628
21
0.460722
0
LINE
8
BLACK
6
CONTINUOUS
10
0.765628
20
0.460722
11
0.764911
21
0.46048
0
LINE
8
BLACK
6
CONTINUOUS
10
0.764911
20
0.46048
11
0.764212
21
0.460191
0
LINE
8
BLACK
6
CONTINUOUS
10
0.764212
20
0.460191
11
0.764141
21
0.46022
0
LINE
8
BLACK
6
CONTINUOUS
10
0.764141
20
0.46022
11
0.764069
21
0.460195
0
LINE
8
BLACK
6
CONTINUOUS
10
0.764069
20
0.460195
11
0.763391
21
0.460531
0
LINE
8
BLACK
6
CONTINUOUS
10
0.763391
20
0.460531
11
0.762692
21
0.46082
0
LINE
8
BLACK
6
CONTINUOUS
10
0.762692
20
0.46082
11
0.762662
21
0.460891
0
LINE
8
BLACK
6
CONTINUOUS
10
0.762662
20
0.460891
11
0.762594
21
0.460925
0
LINE
8
BLACK
6
CONTINUOUS
10
0.762594
20
0.460925
11
0.762351
21
0.461641
0
LINE
8
BLACK
6
CONTINUOUS
10
0.762351
20
0.461641
11
0.762062
21
0.462341
0
LINE
8
BLACK
6
CONTINUOUS
10
0.762062
20
0.462341
11
0.762062
21
0.474536
0
LINE
8
BLACK
6
CONTINUOUS
10
0.762062
20
0.474536
11
0.762692
21
0.476056
0
LINE
8
BLACK
6
CONTINUOUS
10
0.762692
20
0.476056
11
0.764212
21
0.476686
0
LINE
8
BLACK
6
CONTINUOUS
10
0.764212
20
0.476686
11
0.765732
21
0.476056
0
LINE
8
BLACK
6
CONTINUOUS
10
0.765732
20
0.476056
11
0.766362
21
0.474536
0
LINE
8
BLACK
6
CONTINUOUS
10
0.766362
20
0.474536
11
0.766362
21
0.467079
0
LINE
8
BLACK
6
CONTINUOUS
10
0.766362
20
0.467079
11
0.770301
21
0.470525
0
LINE
8
BLACK
6
CONTINUOUS
10
0.770301
20
0.470525
11
0.771018
21
0.470768
0
LINE
8
BLACK
6
CONTINUOUS
10
0.771018
20
0.470768
11
0.771717
21
0.471057
0
LINE
8
BLACK
6
CONTINUOUS
10
0.771717
20
0.471057
11
0.771787
21
0.471028
0
LINE
8
BLACK
6
CONTINUOUS
10
0.771787
20
0.471028
11
0.77186
21
0.471052
0
LINE
8
BLACK
6
CONTINUOUS
10
0.77186
20
0.471052
11
0.772538
21
0.470717
0
LINE
8
BLACK
6
CONTINUOUS
10
0.772538
20
0.470717
11
0.773237
21
0.470427
0
LINE
8
BLACK
6
CONTINUOUS
10
0.773237
20
0.470427
11
0.773266
21
0.470357
0
LINE
8
BLACK
6
CONTINUOUS
10
0.773266
20
0.470357
11
0.773335
21
0.470323
0
LINE
8
BLACK
6
CONTINUOUS
10
0.773335
20
0.470323
11
0.773577
21
0.469606
0
LINE
8
BLACK
6
CONTINUOUS
10
0.773577
20
0.469606
11
0.773867
21
0.468907
0
LINE
8
BLACK
6
CONTINUOUS
10
0.773867
20
0.468907
11
0.773867
21
0.4666
0
LINE
8
BLACK
6
CONTINUOUS
10
0.773867
20
0.4666
11
0.774422
21
0.46549
0
LINE
8
BLACK
6
CONTINUOUS
10
0.774422
20
0.46549
11
0.774866
21
0.465046
0
LINE
8
BLACK
6
CONTINUOUS
10
0.774866
20
0.465046
11
0.775977
21
0.464491
0
LINE
8
BLACK
6
CONTINUOUS
10
0.775977
20
0.464491
11
0.779652
21
0.464491
0
LINE
8
BLACK
6
CONTINUOUS
10
0.779652
20
0.464491
11
0.780762
21
0.465046
0
LINE
8
BLACK
6
CONTINUOUS
10
0.780762
20
0.465046
11
0.781207
21
0.46549
0
LINE
8
BLACK
6
CONTINUOUS
10
0.781207
20
0.46549
11
0.781762
21
0.4666
0
LINE
8
BLACK
6
CONTINUOUS
10
0.781762
20
0.4666
11
0.781762
21
0.471214
0
LINE
8
BLACK
6
CONTINUOUS
10
0.781762
20
0.471214
11
0.781207
21
0.472324
0
LINE
8
BLACK
6
CONTINUOUS
10
0.781207
20
0.472324
11
0.780515
21
0.473016
0
LINE
8
BLACK
6
CONTINUOUS
10
0.780515
20
0.473016
11
0.779886
21
0.474536
0
LINE
8
BLACK
6
CONTINUOUS
10
0.779886
20
0.474536
11
0.780515
21
0.476056
0
LINE
8
BLACK
6
CONTINUOUS
10
0.780515
20
0.476056
11
0.782036
21
0.476686
0
LINE
8
BLACK
6
CONTINUOUS
10
0.782036
20
0.476686
11
0.783556
21
0.476056
0
LINE
8
BLACK
6
CONTINUOUS
10
0.722932
20
0.478561
11
0.723562
21
0.477041
0
LINE
8
BLACK
6
CONTINUOUS
10
0.723562
20
0.477041
11
0.722932
21
0.47552
0
LINE
8
BLACK
6
CONTINUOUS
10
0.722932
20
0.47552
11
0.721412
21
0.474891
0
LINE
8
BLACK
6
CONTINUOUS
10
0.721412
20
0.474891
11
0.714181
21
0.474891
0
LINE
8
BLACK
6
CONTINUOUS
10
0.714181
20
0.474891
11
0.714181
21
0.473469
0
LINE
8
BLACK
6
CONTINUOUS
10
0.714181
20
0.473469
11
0.722645
21
0.467545
0
LINE
8
BLACK
6
CONTINUOUS
10
0.722645
20
0.467545
11
0.723529
21
0.466157
0
LINE
8
BLACK
6
CONTINUOUS
10
0.723529
20
0.466157
11
0.723173
21
0.46455
0
LINE
8
BLACK
6
CONTINUOUS
10
0.723173
20
0.46455
11
0.721786
21
0.463666
0
LINE
8
BLACK
6
CONTINUOUS
10
0.721786
20
0.463666
11
0.720179
21
0.464022
0
LINE
8
BLACK
6
CONTINUOUS
10
0.720179
20
0.464022
11
0.713882
21
0.46843
0
LINE
8
BLACK
6
CONTINUOUS
10
0.713882
20
0.46843
11
0.713016
21
0.466698
0
LINE
8
BLACK
6
CONTINUOUS
10
0.713016
20
0.466698
11
0.712749
21
0.466466
0
LINE
8
BLACK
6
CONTINUOUS
10
0.712749
20
0.466466
11
0.712613
21
0.466139
0
LINE
8
BLACK
6
CONTINUOUS
10
0.712613
20
0.466139
11
0.711675
21
0.465201
0
LINE
8
BLACK
6
CONTINUOUS
10
0.711675
20
0.465201
11
0.711348
21
0.465066
0
LINE
8
BLACK
6
CONTINUOUS
10
0.711348
20
0.465066
11
0.711116
21
0.464798
0
LINE
8
BLACK
6
CONTINUOUS
10
0.711116
20
0.464798
11
0.70924
21
0.46386
0
LINE
8
BLACK
6
CONTINUOUS
10
0.70924
20
0.46386
11
0.708741
21
0.463825
0
LINE
8
BLACK
6
CONTINUOUS
10
0.708741
20
0.463825
11
0.708279
21
0.463633
0
LINE
8
BLACK
6
CONTINUOUS
10
0.708279
20
0.463633
11
0.705464
21
0.463633
0
LINE
8
BLACK
6
CONTINUOUS
10
0.705464
20
0.463633
11
0.705002
21
0.463825
0
LINE
8
BLACK
6
CONTINUOUS
10
0.705002
20
0.463825
11
0.704503
21
0.46386
0
LINE
8
BLACK
6
CONTINUOUS
10
0.704503
20
0.46386
11
0.702627
21
0.464798
0
LINE
8
BLACK
6
CONTINUOUS
10
0.702627
20
0.464798
11
0.702395
21
0.465066
0
LINE
8
BLACK
6
CONTINUOUS
10
0.702395
20
0.465066
11
0.702068
21
0.465201
0
LINE
8
BLACK
6
CONTINUOUS
10
0.702068
20
0.465201
11
0.70113
21
0.466139
0
LINE
8
BLACK
6
CONTINUOUS
10
0.70113
20
0.466139
11
0.700994
21
0.466466
0
LINE
8
BLACK
6
CONTINUOUS
10
0.700994
20
0.466466
11
0.700727
21
0.466698
0
LINE
8
BLACK
6
CONTINUOUS
10
0.700727
20
0.466698
11
0.699789
21
0.468574
0
LINE
8
BLACK
6
CONTINUOUS
10
0.699789
20
0.468574
11
0.699753
21
0.469073
0
LINE
8
BLACK
6
CONTINUOUS
10
0.699753
20
0.469073
11
0.699562
21
0.469536
0
LINE
8
BLACK
6
CONTINUOUS
10
0.699562
20
0.469536
11
0.699562
21
0.477041
0
LINE
8
BLACK
6
CONTINUOUS
10
0.699562
20
0.477041
11
0.700192
21
0.478561
0
LINE
8
BLACK
6
CONTINUOUS
10
0.700192
20
0.478561
11
0.701712
21
0.479191
0
LINE
8
BLACK
6
CONTINUOUS
10
0.701712
20
0.479191
11
0.721412
21
0.479191
0
LINE
8
BLACK
6
CONTINUOUS
10
0.721412
20
0.479191
11
0.722932
21
0.478561
0
LINE
8
BLACK
6
CONTINUOUS
10
0.703862
20
0.474891
11
0.703862
21
0.470043
0
LINE
8
BLACK
6
CONTINUOUS
10
0.703862
20
0.470043
11
0.704417
21
0.468933
0
LINE
8
BLACK
6
CONTINUOUS
10
0.704417
20
0.468933
11
0.704862
21
0.468488
0
LINE
8
BLACK
6
CONTINUOUS
10
0.704862
20
0.468488
11
0.705972
21
0.467933
0
LINE
8
BLACK
6
CONTINUOUS
10
0.705972
20
0.467933
11
0.707771
21
0.467933
0
LINE
8
BLACK
6
CONTINUOUS
10
0.707771
20
0.467933
11
0.708881
21
0.468488
0
LINE
8
BLACK
6
CONTINUOUS
10
0.708881
20
0.468488
11
0.709326
21
0.468933
0
LINE
8
BLACK
6
CONTINUOUS
10
0.709326
20
0.468933
11
0.709881
21
0.470043
0
LINE
8
BLACK
6
CONTINUOUS
10
0.709881
20
0.470043
11
0.709881
21
0.474891
0
LINE
8
BLACK
6
CONTINUOUS
10
0.709881
20
0.474891
11
0.703862
21
0.474891
0
LINE
8
BLACK
6
CONTINUOUS
10
0.812932
20
0.478561
11
0.813562
21
0.477041
0
LINE
8
BLACK
6
CONTINUOUS
10
0.813562
20
0.477041
11
0.812932
21
0.47552
0
LINE
8
BLACK
6
CONTINUOUS
10
0.812932
20
0.47552
11
0.811412
21
0.474891
0
LINE
8
BLACK
6
CONTINUOUS
10
0.811412
20
0.474891
11
0.804181
21
0.474891
0
LINE
8
BLACK
6
CONTINUOUS
10
0.804181
20
0.474891
11
0.804181
21
0.473469
0
LINE
8
BLACK
6
CONTINUOUS
10
0.804181
20
0.473469
11
0.812645
21
0.467545
0
LINE
8
BLACK
6
CONTINUOUS
10
0.812645
20
0.467545
11
0.813529
21
0.466157
0
LINE
8
BLACK
6
CONTINUOUS
10
0.813529
20
0.466157
11
0.813173
21
0.46455
0
LINE
8
BLACK
6
CONTINUOUS
10
0.813173
20
0.46455
11
0.811786
21
0.463666
0
LINE
8
BLACK
6
CONTINUOUS
10
0.811786
20
0.463666
11
0.810179
21
0.464022
0
LINE
8
BLACK
6
CONTINUOUS
10
0.810179
20
0.464022
11
0.803882
21
0.46843
0
LINE
8
BLACK
6
CONTINUOUS
10
0.803882
20
0.46843
11
0.803016
21
0.466698
0
LINE
8
BLACK
6
CONTINUOUS
10
0.803016
20
0.466698
11
0.802749
21
0.466466
0
LINE
8
BLACK
6
CONTINUOUS
10
0.802749
20
0.466466
11
0.802613
21
0.466139
0
LINE
8
BLACK
6
CONTINUOUS
10
0.802613
20
0.466139
11
0.801675
21
0.465201
0
LINE
8
BLACK
6
CONTINUOUS
10
0.801675
20
0.465201
11
0.801348
21
0.465066
0
LINE
8
BLACK
6
CONTINUOUS
10
0.801348
20
0.465066
11
0.801116
21
0.464798
0
LINE
8
BLACK
6
CONTINUOUS
10
0.801116
20
0.464798
11
0.79924
21
0.46386
0
LINE
8
BLACK
6
CONTINUOUS
10
0.79924
20
0.46386
11
0.798741
21
0.463825
0
LINE
8
BLACK
6
CONTINUOUS
10
0.798741
20
0.463825
11
0.798279
21
0.463633
0
LINE
8
BLACK
6
CONTINUOUS
10
0.798279
20
0.463633
11
0.795464
21
0.463633
0
LINE
8
BLACK
6
CONTINUOUS
10
0.795464
20
0.463633
11
0.795002
21
0.463825
0
LINE
8
BLACK
6
CONTINUOUS
10
0.795002
20
0.463825
11
0.794503
21
0.46386
0
LINE
8
BLACK
6
CONTINUOUS
10
0.794503
20
0.46386
11
0.792627
21
0.464798
0
LINE
8
BLACK
6
CONTINUOUS
10
0.792627
20
0.464798
11
0.792395
21
0.465066
0
LINE
8
BLACK
6
CONTINUOUS
10
0.792395
20
0.465066
11
0.792068
21
0.465201
0
LINE
8
BLACK
6
CONTINUOUS
10
0.792068
20
0.465201
11
0.79113
21
0.466139
0
LINE
8
BLACK
6
CONTINUOUS
10
0.79113
20
0.466139
11
0.790994
21
0.466466
0
LINE
8
BLACK
6
CONTINUOUS
10
0.790994
20
0.466466
11
0.790727
21
0.466698
0
LINE
8
BLACK
6
CONTINUOUS
10
0.790727
20
0.466698
11
0.789789
21
0.468574
0
LINE
8
BLACK
6
CONTINUOUS
10
0.789789
20
0.468574
11
0.789753
21
0.469073
0
LINE
8
BLACK
6
CONTINUOUS
10
0.789753
20
0.469073
11
0.789562
21
0.469536
0
LINE
8
BLACK
6
CONTINUOUS
10
0.789562
20
0.469536
11
0.789562
21
0.477041
0
LINE
8
BLACK
6
CONTINUOUS
10
0.789562
20
0.477041
11
0.790192
21
0.478561
0
LINE
8
BLACK
6
CONTINUOUS
10
0.790192
20
0.478561
11
0.791712
21
0.479191
0
LINE
8
BLACK
6
CONTINUOUS
10
0.791712
20
0.479191
11
0.811412
21
0.479191
0
LINE
8
BLACK
6
CONTINUOUS
10
0.811412
20
0.479191
11
0.812932
21
0.478561
0
LINE
8
BLACK
6
CONTINUOUS
10
0.793862
20
0.474891
11
0.793862
21
0.470043
0
LINE
8
BLACK
6
CONTINUOUS
10
0.793862
20
0.470043
11
0.794417
21
0.468933
0
LINE
8
BLACK
6
CONTINUOUS
10
0.794417
20
0.468933
11
0.794862
21
0.468488
0
LINE
8
BLACK
6
CONTINUOUS
10
0.794862
20
0.468488
11
0.795972
21
0.467933
0
LINE
8
BLACK
6
CONTINUOUS
10
0.795972
20
0.467933
11
0.797771
21
0.467933
0
LINE
8
BLACK
6
CONTINUOUS
10
0.797771
20
0.467933
11
0.798881
21
0.468488
0
LINE
8
BLACK
6
CONTINUOUS
10
0.798881
20
0.468488
11
0.799326
21
0.468933
0
LINE
8
BLACK
6
CONTINUOUS
10
0.799326
20
0.468933
11
0.799881
21
0.470043
0
LINE
8
BLACK
6
CONTINUOUS
10
0.799881
20
0.470043
11
0.799881
21
0.474891
0
LINE
8
BLACK
6
CONTINUOUS
10
0.799881
20
0.474891
11
0.793862
21
0.474891
0
LINE
8
BLACK
6
CONTINUOUS
10
0.730384
20
0.525385
11
0.730513
21
0.525408
0
LINE
8
BLACK
6
CONTINUOUS
10
0.730513
20
0.525408
11
0.730626
21
0.525342
0
LINE
8
BLACK
6
CONTINUOUS
10
0.730626
20
0.525342
11
0.73101
21
0.525275
0
LINE
8
BLACK
6
CONTINUOUS
10
0.73101
20
0.525275
11
0.731598
21
0.524782
0
LINE
8
BLACK
6
CONTINUOUS
10
0.731598
20
0.524782
11
0.732262
21
0.524398
0
LINE
8
BLACK
6
CONTINUOUS
10
0.732262
20
0.524398
11
0.732353
21
0.524148
0
LINE
8
BLACK
6
CONTINUOUS
10
0.732353
20
0.524148
11
0.732557
21
0.523976
0
LINE
8
BLACK
6
CONTINUOUS
10
0.732557
20
0.523976
11
0.73269
21
0.523221
0
LINE
8
BLACK
6
CONTINUOUS
10
0.73269
20
0.523221
11
0.732953
21
0.5225
0
LINE
8
BLACK
6
CONTINUOUS
10
0.732953
20
0.5225
11
0.732953
21
0.4825
0
LINE
8
BLACK
6
CONTINUOUS
10
0.732953
20
0.4825
11
0.732775
21
0.48149
0
LINE
8
BLACK
6
CONTINUOUS
10
0.732775
20
0.48149
11
0.731476
21
0.479943
0
LINE
8
BLACK
6
CONTINUOUS
10
0.731476
20
0.479943
11
0.729487
21
0.479592
0
LINE
8
BLACK
6
CONTINUOUS
10
0.729487
20
0.479592
11
0.727738
21
0.480602
0
LINE
8
BLACK
6
CONTINUOUS
10
0.727738
20
0.480602
11
0.727047
21
0.4825
0
LINE
8
BLACK
6
CONTINUOUS
10
0.727047
20
0.4825
11
0.727047
21
0.519547
0
LINE
8
BLACK
6
CONTINUOUS
10
0.727047
20
0.519547
11
0.672953
21
0.519547
0
LINE
8
BLACK
6
CONTINUOUS
10
0.672953
20
0.519547
11
0.672953
21
0.494926
0
LINE
8
BLACK
6
CONTINUOUS
10
0.672953
20
0.494926
11
0.674212
21
0.495448
0
LINE
8
BLACK
6
CONTINUOUS
10
0.674212
20
0.495448
11
0.675732
21
0.494818
0
LINE
8
BLACK
6
CONTINUOUS
10
0.675732
20
0.494818
11
0.676362
21
0.493298
0
LINE
8
BLACK
6
CONTINUOUS
10
0.676362
20
0.493298
11
0.676362
21
0.48584
0
LINE
8
BLACK
6
CONTINUOUS
10
0.676362
20
0.48584
11
0.680301
21
0.489287
0
LINE
8
BLACK
6
CONTINUOUS
10
0.680301
20
0.489287
11
0.681018
21
0.489529
0
LINE
8
BLACK
6
CONTINUOUS
10
0.681018
20
0.489529
11
0.681717
21
0.489819
0
LINE
8
BLACK
6
CONTINUOUS
10
0.681717
20
0.489819
11
0.681787
21
0.48979
0
LINE
8
BLACK
6
CONTINUOUS
10
0.681787
20
0.48979
11
0.68186
21
0.489814
0
LINE
8
BLACK
6
CONTINUOUS
10
0.68186
20
0.489814
11
0.682538
21
0.489479
0
LINE
8
BLACK
6
CONTINUOUS
10
0.682538
20
0.489479
11
0.683237
21
0.489189
0
LINE
8
BLACK
6
CONTINUOUS
10
0.683237
20
0.489189
11
0.683266
21
0.489119
0
LINE
8
BLACK
6
CONTINUOUS
10
0.683266
20
0.489119
11
0.683335
21
0.489085
0
LINE
8
BLACK
6
CONTINUOUS
10
0.683335
20
0.489085
11
0.683577
21
0.488368
0
LINE
8
BLACK
6
CONTINUOUS
10
0.683577
20
0.488368
11
0.683867
21
0.487669
0
LINE
8
BLACK
6
CONTINUOUS
10
0.683867
20
0.487669
11
0.683867
21
0.485362
0
LINE
8
BLACK
6
CONTINUOUS
10
0.683867
20
0.485362
11
0.684422
21
0.484252
0
LINE
8
BLACK
6
CONTINUOUS
10
0.684422
20
0.484252
11
0.684866
21
0.483807
0
LINE
8
BLACK
6
CONTINUOUS
10
0.684866
20
0.483807
11
0.685977
21
0.483252
0
LINE
8
BLACK
6
CONTINUOUS
10
0.685977
20
0.483252
11
0.689652
21
0.483252
0
LINE
8
BLACK
6
CONTINUOUS
10
0.689652
20
0.483252
11
0.690762
21
0.483808
0
LINE
8
BLACK
6
CONTINUOUS
10
0.690762
20
0.483808
11
0.691207
21
0.484252
0
LINE
8
BLACK
6
CONTINUOUS
10
0.691207
20
0.484252
11
0.691762
21
0.485362
0
LINE
8
BLACK
6
CONTINUOUS
10
0.691762
20
0.485362
11
0.691762
21
0.489976
0
LINE
8
BLACK
6
CONTINUOUS
10
0.691762
20
0.489976
11
0.691207
21
0.491086
0
LINE
8
BLACK
6
CONTINUOUS
10
0.691207
20
0.491086
11
0.690515
21
0.491777
0
LINE
8
BLACK
6
CONTINUOUS
10
0.690515
20
0.491777
11
0.689886
21
0.493298
0
LINE
8
BLACK
6
CONTINUOUS
10
0.689886
20
0.493298
11
0.690515
21
0.494818
0
LINE
8
BLACK
6
CONTINUOUS
10
0.690515
20
0.494818
11
0.692036
21
0.495448
0
LINE
8
BLACK
6
CONTINUOUS
10
0.692036
20
0.495448
11
0.693556
21
0.494818
0
LINE
8
BLACK
6
CONTINUOUS
10
0.693556
20
0.494818
11
0.694494
21
0.49388
0
LINE
8
BLACK
6
CONTINUOUS
10
0.694494
20
0.49388
11
0.694629
21
0.493553
0
LINE
8
BLACK
6
CONTINUOUS
10
0.694629
20
0.493553
11
0.694897
21
0.493321
0
LINE
8
BLACK
6
CONTINUOUS
10
0.694897
20
0.493321
11
0.695835
21
0.491445
0
LINE
8
BLACK
6
CONTINUOUS
10
0.695835
20
0.491445
11
0.69587
21
0.490946
0
LINE
8
BLACK
6
CONTINUOUS
10
0.69587
20
0.490946
11
0.696062
21
0.490483
0
LINE
8
BLACK
6
CONTINUOUS
10
0.696062
20
0.490483
11
0.696062
21
0.484855
0
LINE
8
BLACK
6
CONTINUOUS
10
0.696062
20
0.484855
11
0.69587
21
0.484392
0
LINE
8
BLACK
6
CONTINUOUS
10
0.69587
20
0.484392
11
0.695835
21
0.483893
0
LINE
8
BLACK
6
CONTINUOUS
10
0.695835
20
0.483893
11
0.694897
21
0.482017
0
LINE
8
BLACK
6
CONTINUOUS
10
0.694897
20
0.482017
11
0.694629
21
0.481785
0
LINE
8
BLACK
6
CONTINUOUS
10
0.694629
20
0.481785
11
0.694494
21
0.481458
0
LINE
8
BLACK
6
CONTINUOUS
10
0.694494
20
0.481458
11
0.693556
21
0.48052
0
LINE
8
BLACK
6
CONTINUOUS
10
0.693556
20
0.48052
11
0.693229
21
0.480385
0
LINE
8
BLACK
6
CONTINUOUS
10
0.693229
20
0.480385
11
0.692997
21
0.480117
0
LINE
8
BLACK
6
CONTINUOUS
10
0.692997
20
0.480117
11
0.691121
21
0.479179
0
LINE
8
BLACK
6
CONTINUOUS
10
0.691121
20
0.479179
11
0.690622
21
0.479144
0
LINE
8
BLACK
6
CONTINUOUS
10
0.690622
20
0.479144
11
0.690159
21
0.478952
0
LINE
8
BLACK
6
CONTINUOUS
10
0.690159
20
0.478952
11
0.685469
21
0.478952
0
LINE
8
BLACK
6
CONTINUOUS
10
0.685469
20
0.478952
11
0.685007
21
0.479144
0
LINE
8
BLACK
6
CONTINUOUS
10
0.685007
20
0.479144
11
0.684507
21
0.479179
0
LINE
8
BLACK
6
CONTINUOUS
10
0.684507
20
0.479179
11
0.682631
21
0.480118
0
LINE
8
BLACK
6
CONTINUOUS
10
0.682631
20
0.480118
11
0.682399
21
0.480385
0
LINE
8
BLACK
6
CONTINUOUS
10
0.682399
20
0.480385
11
0.682073
21
0.48052
0
LINE
8
BLACK
6
CONTINUOUS
10
0.682073
20
0.48052
11
0.681134
21
0.481458
0
LINE
8
BLACK
6
CONTINUOUS
10
0.681134
20
0.481458
11
0.680999
21
0.481785
0
LINE
8
BLACK
6
CONTINUOUS
10
0.680999
20
0.481785
11
0.680732
21
0.482017
0
LINE
8
BLACK
6
CONTINUOUS
10
0.680732
20
0.482017
11
0.680059
21
0.483362
0
LINE
8
BLACK
6
CONTINUOUS
10
0.680059
20
0.483362
11
0.675628
21
0.479484
0
LINE
8
BLACK
6
CONTINUOUS
10
0.675628
20
0.479484
11
0.674911
21
0.479242
0
LINE
8
BLACK
6
CONTINUOUS
10
0.674911
20
0.479242
11
0.674212
21
0.478952
0
LINE
8
BLACK
6
CONTINUOUS
10
0.674212
20
0.478952
11
0.674141
21
0.478982
0
LINE
8
BLACK
6
CONTINUOUS
10
0.674141
20
0.478982
11
0.674069
21
0.478957
0
LINE
8
BLACK
6
CONTINUOUS
10
0.674069
20
0.478957
11
0.673391
21
0.479293
0
LINE
8
BLACK
6
CONTINUOUS
10
0.673391
20
0.479293
11
0.672692
21
0.479582
0
LINE
8
BLACK
6
CONTINUOUS
10
0.672692
20
0.479582
11
0.672662
21
0.479653
0
LINE
8
BLACK
6
CONTINUOUS
10
0.672662
20
0.479653
11
0.672594
21
0.479687
0
LINE
8
BLACK
6
CONTINUOUS
10
0.672594
20
0.479687
11
0.672351
21
0.480403
0
LINE
8
BLACK
6
CONTINUOUS
10
0.672351
20
0.480403
11
0.67219
21
0.480793
0
LINE
8
BLACK
6
CONTINUOUS
10
0.67219
20
0.480793
11
0.671476
21
0.479943
0
LINE
8
BLACK
6
CONTINUOUS
10
0.671476
20
0.479943
11
0.669487
21
0.479592
0
LINE
8
BLACK
6
CONTINUOUS
10
0.669487
20
0.479592
11
0.667738
21
0.480602
0
LINE
8
BLACK
6
CONTINUOUS
10
0.667738
20
0.480602
11
0.667047
21
0.4825
0
LINE
8
BLACK
6
CONTINUOUS
10
0.667047
20
0.4825
11
0.667047
21
0.5225
0
LINE
8
BLACK
6
CONTINUOUS
10
0.667047
20
0.5225
11
0.667115
21
0.522884
0
LINE
8
BLACK
6
CONTINUOUS
10
0.667115
20
0.522884
11
0.667092
21
0.523013
0
LINE
8
BLACK
6
CONTINUOUS
10
0.667092
20
0.523013
11
0.667158
21
0.523126
0
LINE
8
BLACK
6
CONTINUOUS
10
0.667158
20
0.523126
11
0.667225
21
0.52351
0
LINE
8
BLACK
6
CONTINUOUS
10
0.667225
20
0.52351
11
0.667718
21
0.524098
0
LINE
8
BLACK
6
CONTINUOUS
10
0.667718
20
0.524098
11
0.668102
21
0.524762
0
LINE
8
BLACK
6
CONTINUOUS
10
0.668102
20
0.524762
11
0.668352
21
0.524853
0
LINE
8
BLACK
6
CONTINUOUS
10
0.668352
20
0.524853
11
0.668524
21
0.525057
0
LINE
8
BLACK
6
CONTINUOUS
10
0.668524
20
0.525057
11
0.669279
21
0.52519
0
LINE
8
BLACK
6
CONTINUOUS
10
0.669279
20
0.52519
11
0.67
21
0.525453
0
LINE
8
BLACK
6
CONTINUOUS
10
0.67
20
0.525453
11
0.73
21
0.525453
0
LINE
8
BLACK
6
CONTINUOUS
10
0.73
20
0.525453
11
0.730384
21
0.525385
0
LINE
8
BLACK
6
CONTINUOUS
10
0.820384
20
0.525385
11
0.820513
21
0.525408
0
LINE
8
BLACK
6
CONTINUOUS
10
0.820513
20
0.525408
11
0.820626
21
0.525342
0
LINE
8
BLACK
6
CONTINUOUS
10
0.820626
20
0.525342
11
0.82101
21
0.525275
0
LINE
8
BLACK
6
CONTINUOUS
10
0.82101
20
0.525275
11
0.821598
21
0.524782
0
LINE
8
BLACK
6
CONTINUOUS
10
0.821598
20
0.524782
11
0.822262
21
0.524398
0
LINE
8
BLACK
6
CONTINUOUS
10
0.822262
20
0.524398
11
0.822353
21
0.524148
0
LINE
8
BLACK
6
CONTINUOUS
10
0.822353
20
0.524148
11
0.822557
21
0.523976
0
LINE
8
BLACK
6
CONTINUOUS
10
0.822557
20
0.523976
11
0.82269
21
0.523221
0
LINE
8
BLACK
6
CONTINUOUS
10
0.82269
20
0.523221
11
0.822953
21
0.5225
0
LINE
8
BLACK
6
CONTINUOUS
10
0.822953
20
0.5225
11
0.822953
21
0.4825
0
LINE
8
BLACK
6
CONTINUOUS
10
0.822953
20
0.4825
11
0.822775
21
0.48149
0
LINE
8
BLACK
6
CONTINUOUS
10
0.822775
20
0.48149
11
0.821476
21
0.479943
0
LINE
8
BLACK
6
CONTINUOUS
10
0.821476
20
0.479943
11
0.819487
21
0.479592
0
LINE
8
BLACK
6
CONTINUOUS
10
0.819487
20
0.479592
11
0.817738
21
0.480602
0
LINE
8
BLACK
6
CONTINUOUS
10
0.817738
20
0.480602
11
0.817047
21
0.4825
0
LINE
8
BLACK
6
CONTINUOUS
10
0.817047
20
0.4825
11
0.817047
21
0.519547
0
LINE
8
BLACK
6
CONTINUOUS
10
0.817047
20
0.519547
11
0.762953
21
0.519547
0
LINE
8
BLACK
6
CONTINUOUS
10
0.762953
20
0.519547
11
0.762953
21
0.494926
0
LINE
8
BLACK
6
CONTINUOUS
10
0.762953
20
0.494926
11
0.764212
21
0.495448
0
LINE
8
BLACK
6
CONTINUOUS
10
0.764212
20
0.495448
11
0.765732
21
0.494818
0
LINE
8
BLACK
6
CONTINUOUS
10
0.765732
20
0.494818
11
0.766362
21
0.493298
0
LINE
8
BLACK
6
CONTINUOUS
10
0.766362
20
0.493298
11
0.766362
21
0.48584
0
LINE
8
BLACK
6
CONTINUOUS
10
0.766362
20
0.48584
11
0.770301
21
0.489287
0
LINE
8
BLACK
6
CONTINUOUS
10
0.770301
20
0.489287
11
0.771018
21
0.489529
0
LINE
8
BLACK
6
CONTINUOUS
10
0.771018
20
0.489529
11
0.771717
21
0.489819
0
LINE
8
BLACK
6
CONTINUOUS
10
0.771717
20
0.489819
11
0.771787
21
0.48979
0
LINE
8
BLACK
6
CONTINUOUS
10
0.771787
20
0.48979
11
0.77186
21
0.489814
0
LINE
8
BLACK
6
CONTINUOUS
10
0.77186
20
0.489814
11
0.772538
21
0.489479
0
LINE
8
BLACK
6
CONTINUOUS
10
0.772538
20
0.489479
11
0.773237
21
0.489189
0
LINE
8
BLACK
6
CONTINUOUS
10
0.773237
20
0.489189
11
0.773266
21
0.489119
0
LINE
8
BLACK
6
CONTINUOUS
10
0.773266
20
0.489119
11
0.773335
21
0.489085
0
LINE
8
BLACK
6
CONTINUOUS
10
0.773335
20
0.489085
11
0.773577
21
0.488368
0
LINE
8
BLACK
6
CONTINUOUS
10
0.773577
20
0.488368
11
0.773867
21
0.487669
0
LINE
8
BLACK
6
CONTINUOUS
10
0.773867
20
0.487669
11
0.773867
21
0.485362
0
LINE
8
BLACK
6
CONTINUOUS
10
0.773867
20
0.485362
11
0.774422
21
0.484252
0
LINE
8
BLACK
6
CONTINUOUS
10
0.774422
20
0.484252
11
0.774866
21
0.483807
0
LINE
8
BLACK
6
CONTINUOUS
10
0.774866
20
0.483807
11
0.775977
21
0.483252
0
LINE
8
BLACK
6
CONTINUOUS
10
0.775977
20
0.483252
11
0.779652
21
0.483252
0
LINE
8
BLACK
6
CONTINUOUS
10
0.779652
20
0.483252
11
0.780762
21
0.483808
0
LINE
8
BLACK
6
CONTINUOUS
10
0.780762
20
0.483808
11
0.781207
21
0.484252
0
LINE
8
BLACK
6
CONTINUOUS
10
0.781207
20
0.484252
11
0.781762
21
0.485362
0
LINE
8
BLACK
6
CONTINUOUS
10
0.781762
20
0.485362
11
0.781762
21
0.489976
0
LINE
8
BLACK
6
CONTINUOUS
10
0.781762
20
0.489976
11
0.781207
21
0.491086
0
LINE
8
BLACK
6
CONTINUOUS
10
0.781207
20
0.491086
11
0.780515
21
0.491777
0
LINE
8
BLACK
6
CONTINUOUS
10
0.780515
20
0.491777
11
0.779886
21
0.493298
0
LINE
8
BLACK
6
CONTINUOUS
10
0.779886
20
0.493298
11
0.780515
21
0.494818
0
LINE
8
BLACK
6
CONTINUOUS
10
0.780515
20
0.494818
11
0.782036
21
0.495448
0
LINE
8
BLACK
6
CONTINUOUS
10
0.782036
20
0.495448
11
0.783556
21
0.494818
0
LINE
8
BLACK
6
CONTINUOUS
10
0.783556
20
0.494818
11
0.784494
21
0.49388
0
LINE
8
BLACK
6
CONTINUOUS
10
0.784494
20
0.49388
11
0.784629
21
0.493553
0
LINE
8
BLACK
6
CONTINUOUS
10
0.784629
20
0.493553
11
0.784897
21
0.493321
0
LINE
8
BLACK
6
CONTINUOUS
10
0.784897
20
0.493321
11
0.785835
21
0.491445
0
LINE
8
BLACK
6
CONTINUOUS
10
0.785835
20
0.491445
11
0.78587
21
0.490946
0
LINE
8
BLACK
6
CONTINUOUS
10
0.78587
20
0.490946
11
0.786062
21
0.490483
0
LINE
8
BLACK
6
CONTINUOUS
10
0.786062
20
0.490483
11
0.786062
21
0.484855
0
LINE
8
BLACK
6
CONTINUOUS
10
0.786062
20
0.484855
11
0.78587
21
0.484392
0
LINE
8
BLACK
6
CONTINUOUS
10
0.78587
20
0.484392
11
0.785835
21
0.483893
0
LINE
8
BLACK
6
CONTINUOUS
10
0.785835
20
0.483893
11
0.784897
21
0.482017
0
LINE
8
BLACK
6
CONTINUOUS
10
0.784897
20
0.482017
11
0.784629
21
0.481785
0
LINE
8
BLACK
6
CONTINUOUS
10
0.784629
20
0.481785
11
0.784494
21
0.481458
0
LINE
8
BLACK
6
CONTINUOUS
10
0.784494
20
0.481458
11
0.783556
21
0.48052
0
LINE
8
BLACK
6
CONTINUOUS
10
0.783556
20
0.48052
11
0.783229
21
0.480385
0
LINE
8
BLACK
6
CONTINUOUS
10
0.783229
20
0.480385
11
0.782997
21
0.480117
0
LINE
8
BLACK
6
CONTINUOUS
10
0.782997
20
0.480117
11
0.781121
21
0.479179
0
LINE
8
BLACK
6
CONTINUOUS
10
0.781121
20
0.479179
11
0.780622
21
0.479144
0
LINE
8
BLACK
6
CONTINUOUS
10
0.780622
20
0.479144
11
0.780159
21
0.478952
0
LINE
8
BLACK
6
CONTINUOUS
10
0.780159
20
0.478952
11
0.775469
21
0.478952
0
LINE
8
BLACK
6
CONTINUOUS
10
0.775469
20
0.478952
11
0.775007
21
0.479144
0
LINE
8
BLACK
6
CONTINUOUS
10
0.775007
20
0.479144
11
0.774507
21
0.479179
0
LINE
8
BLACK
6
CONTINUOUS
10
0.774507
20
0.479179
11
0.772631
21
0.480118
0
LINE
8
BLACK
6
CONTINUOUS
10
0.772631
20
0.480118
11
0.772399
21
0.480385
0
LINE
8
BLACK
6
CONTINUOUS
10
0.772399
20
0.480385
11
0.772073
21
0.48052
0
LINE
8
BLACK
6
CONTINUOUS
10
0.772073
20
0.48052
11
0.771134
21
0.481458
0
LINE
8
BLACK
6
CONTINUOUS
10
0.771134
20
0.481458
11
0.770999
21
0.481785
0
LINE
8
BLACK
6
CONTINUOUS
10
0.770999
20
0.481785
11
0.770732
21
0.482017
0
LINE
8
BLACK
6
CONTINUOUS
10
0.770732
20
0.482017
11
0.770059
21
0.483362
0
LINE
8
BLACK
6
CONTINUOUS
10
0.770059
20
0.483362
11
0.765628
21
0.479484
0
LINE
8
BLACK
6
CONTINUOUS
10
0.765628
20
0.479484
11
0.764911
21
0.479242
0
LINE
8
BLACK
6
CONTINUOUS
10
0.764911
20
0.479242
11
0.764212
21
0.478952
0
LINE
8
BLACK
6
CONTINUOUS
10
0.764212
20
0.478952
11
0.764141
21
0.478982
0
LINE
8
BLACK
6
CONTINUOUS
10
0.764141
20
0.478982
11
0.764069
21
0.478957
0
LINE
8
BLACK
6
CONTINUOUS
10
0.764069
20
0.478957
11
0.763391
21
0.479293
0
LINE
8
BLACK
6
CONTINUOUS
10
0.763391
20
0.479293
11
0.762692
21
0.479582
0
LINE
8
BLACK
6
CONTINUOUS
10
0.762692
20
0.479582
11
0.762662
21
0.479653
0
LINE
8
BLACK
6
CONTINUOUS
10
0.762662
20
0.479653
11
0.762594
21
0.479687
0
LINE
8
BLACK
6
CONTINUOUS
10
0.762594
20
0.479687
11
0.762351
21
0.480403
0
LINE
8
BLACK
6
CONTINUOUS
10
0.762351
20
0.480403
11
0.76219
21
0.480793
0
LINE
8
BLACK
6
CONTINUOUS
10
0.76219
20
0.480793
11
0.761476
21
0.479943
0
LINE
8
BLACK
6
CONTINUOUS
10
0.761476
20
0.479943
11
0.759487
21
0.479592
0
LINE
8
BLACK
6
CONTINUOUS
10
0.759487
20
0.479592
11
0.757738
21
0.480602
0
LINE
8
BLACK
6
CONTINUOUS
10
0.757738
20
0.480602
11
0.757047
21
0.4825
0
LINE
8
BLACK
6
CONTINUOUS
10
0.757047
20
0.4825
11
0.757047
21
0.5225
0
LINE
8
BLACK
6
CONTINUOUS
10
0.757047
20
0.5225
11
0.757115
21
0.522884
0
LINE
8
BLACK
6
CONTINUOUS
10
0.757115
20
0.522884
11
0.757092
21
0.523013
0
LINE
8
BLACK
6
CONTINUOUS
10
0.757092
20
0.523013
11
0.757158
21
0.523126
0
LINE
8
BLACK
6
CONTINUOUS
10
0.757158
20
0.523126
11
0.757225
21
0.52351
0
LINE
8
BLACK
6
CONTINUOUS
10
0.757225
20
0.52351
11
0.757718
21
0.524098
0
LINE
8
BLACK
6
CONTINUOUS
10
0.757718
20
0.524098
11
0.758102
21
0.524762
0
LINE
8
BLACK
6
CONTINUOUS
10
0.758102
20
0.524762
11
0.758352
21
0.524853
0
LINE
8
BLACK
6
CONTINUOUS
10
0.758352
20
0.524853
11
0.758524
21
0.525057
0
LINE
8
BLACK
6
CONTINUOUS
10
0.758524
20
0.525057
11
0.759279
21
0.52519
0
LINE
8
BLACK
6
CONTINUOUS
10
0.759279
20
0.52519
11
0.76
21
0.525453
0
LINE
8
BLACK
6
CONTINUOUS
10
0.76
20
0.525453
11
0.82
21
0.525453
0
LINE
8
BLACK
6
CONTINUOUS
10
0.82
20
0.525453
11
0.820384
21
0.525385
0
LINE
8
BLACK
6
CONTINUOUS
10
0.484442
20
0.574445
11
0.484572
21
0.574468
0
LINE
8
BLACK
6
CONTINUOUS
10
0.484572
20
0.574468
11
0.484685
21
0.574402
0
LINE
8
BLACK
6
CONTINUOUS
10
0.484685
20
0.574402
11
0.485069
21
0.574335
0
LINE
8
BLACK
6
CONTINUOUS
10
0.485069
20
0.574335
11
0.485656
21
0.573841
0
LINE
8
BLACK
6
CONTINUOUS
10
0.485656
20
0.573841
11
0.486321
21
0.573458
0
LINE
8
BLACK
6
CONTINUOUS
10
0.486321
20
0.573458
11
0.486412
21
0.573207
0
LINE
8
BLACK
6
CONTINUOUS
10
0.486412
20
0.573207
11
0.486616
21
0.573036
0
LINE
8
BLACK
6
CONTINUOUS
10
0.486616
20
0.573036
11
0.486749
21
0.572281
0
LINE
8
BLACK
6
CONTINUOUS
10
0.486749
20
0.572281
11
0.487012
21
0.57156
0
LINE
8
BLACK
6
CONTINUOUS
10
0.487012
20
0.57156
11
0.487012
21
0.53219
0
LINE
8
BLACK
6
CONTINUOUS
10
0.487012
20
0.53219
11
0.486944
21
0.531806
0
LINE
8
BLACK
6
CONTINUOUS
10
0.486944
20
0.531806
11
0.486967
21
0.531677
0
LINE
8
BLACK
6
CONTINUOUS
10
0.486967
20
0.531677
11
0.486901
21
0.531563
0
LINE
8
BLACK
6
CONTINUOUS
10
0.486901
20
0.531563
11
0.486834
21
0.53118
0
LINE
8
BLACK
6
CONTINUOUS
10
0.486834
20
0.53118
11
0.48634
21
0.530592
0
LINE
8
BLACK
6
CONTINUOUS
10
0.48634
20
0.530592
11
0.485957
21
0.529928
0
LINE
8
BLACK
6
CONTINUOUS
10
0.485957
20
0.529928
11
0.485706
21
0.529837
0
LINE
8
BLACK
6
CONTINUOUS
10
0.485706
20
0.529837
11
0.485535
21
0.529633
0
LINE
8
BLACK
6
CONTINUOUS
10
0.485535
20
0.529633
11
0.48478
21
0.529499
0
LINE
8
BLACK
6
CONTINUOUS
10
0.48478
20
0.529499
11
0.484059
21
0.529237
0
LINE
8
BLACK
6
CONTINUOUS
10
0.484059
20
0.529237
11
0.474685
21
0.529237
0
LINE
8
BLACK
6
CONTINUOUS
10
0.474685
20
0.529237
11
0.473816
21
0.52939
0
LINE
8
BLACK
6
CONTINUOUS
10
0.473816
20
0.52939
11
0.473751
21
0.529389
0
LINE
8
BLACK
6
CONTINUOUS
10
0.473751
20
0.529389
11
0.468127
21
0.531263
0
LINE
8
BLACK
6
CONTINUOUS
10
0.468127
20
0.531263
11
0.467225
21
0.531752
0
LINE
8
BLACK
6
CONTINUOUS
10
0.467225
20
0.531752
11
0.467133
21
0.531902
0
LINE
8
BLACK
6
CONTINUOUS
10
0.467133
20
0.531902
11
0.466973
21
0.531977
0
LINE
8
BLACK
6
CONTINUOUS
10
0.466973
20
0.531977
11
0.463223
21
0.535726
0
LINE
8
BLACK
6
CONTINUOUS
10
0.463223
20
0.535726
11
0.462717
21
0.536449
0
LINE
8
BLACK
6
CONTINUOUS
10
0.462717
20
0.536449
11
0.46267
21
0.536494
0
LINE
8
BLACK
6
CONTINUOUS
10
0.46267
20
0.536494
11
0.460795
21
0.540243
0
LINE
8
BLACK
6
CONTINUOUS
10
0.460795
20
0.540243
11
0.46065
21
0.540731
0
LINE
8
BLACK
6
CONTINUOUS
10
0.46065
20
0.540731
11
0.460572
21
0.540847
0
LINE
8
BLACK
6
CONTINUOUS
10
0.460572
20
0.540847
11
0.458697
21
0.548346
0
LINE
8
BLACK
6
CONTINUOUS
10
0.458697
20
0.548346
11
0.458656
21
0.548934
0
LINE
8
BLACK
6
CONTINUOUS
10
0.458656
20
0.548934
11
0.458609
21
0.549063
0
LINE
8
BLACK
6
CONTINUOUS
10
0.458609
20
0.549063
11
0.458609
21
0.554687
0
LINE
8
BLACK
6
CONTINUOUS
10
0.458609
20
0.554687
11
0.458711
21
0.555267
0
LINE
8
BLACK
6
CONTINUOUS
10
0.458711
20
0.555267
11
0.458697
21
0.555403
0
LINE
8
BLACK
6
CONTINUOUS
10
0.458697
20
0.555403
11
0.460572
21
0.562902
0
LINE
8
BLACK
6
CONTINUOUS
10
0.460572
20
0.562902
11
0.460779
21
0.563368
0
LINE
8
BLACK
6
CONTINUOUS
10
0.460779
20
0.563368
11
0.460795
21
0.563506
0
LINE
8
BLACK
6
CONTINUOUS
10
0.460795
20
0.563506
11
0.46267
21
0.567256
0
LINE
8
BLACK
6
CONTINUOUS
10
0.46267
20
0.567256
11
0.463196
21
0.567965
0
LINE
8
BLACK
6
CONTINUOUS
10
0.463196
20
0.567965
11
0.463223
21
0.568023
0
LINE
8
BLACK
6
CONTINUOUS
10
0.463223
20
0.568023
11
0.466973
21
0.571773
0
LINE
8
BLACK
6
CONTINUOUS
10
0.466973
20
0.571773
11
0.467813
21
0.572361
0
LINE
8
BLACK
6
CONTINUOUS
10
0.467813
20
0.572361
11
0.467989
21
0.572377
0
LINE
8
BLACK
6
CONTINUOUS
10
0.467989
20
0.572377
11
0.468127
21
0.572486
0
LINE
8
BLACK
6
CONTINUOUS
10
0.468127
20
0.572486
11
0.473751
21
0.574361
0
LINE
8
BLACK
6
CONTINUOUS
10
0.473751
20
0.574361
11
0.474624
21
0.574491
0
LINE
8
BLACK
6
CONTINUOUS
10
0.474624
20
0.574491
11
0.474685
21
0.574513
0
LINE
8
BLACK
6
CONTINUOUS
10
0.474685
20
0.574513
11
0.484059
21
0.574513
0
LINE
8
BLACK
6
CONTINUOUS
10
0.484059
20
0.574513
11
0.484442
21
0.574445
0
LINE
8
BLACK
6
CONTINUOUS
10
0.475164
20
0.568607
11
0.470656
21
0.567104
0
LINE
8
BLACK
6
CONTINUOUS
10
0.470656
20
0.567104
11
0.467738
21
0.564186
0
LINE
8
BLACK
6
CONTINUOUS
10
0.467738
20
0.564186
11
0.466222
21
0.561155
0
LINE
8
BLACK
6
CONTINUOUS
10
0.466222
20
0.561155
11
0.464514
21
0.554323
0
LINE
8
BLACK
6
CONTINUOUS
10
0.464514
20
0.554323
11
0.464514
21
0.549426
0
LINE
8
BLACK
6
CONTINUOUS
10
0.464514
20
0.549426
11
0.466222
21
0.542594
0
LINE
8
BLACK
6
CONTINUOUS
10
0.466222
20
0.542594
11
0.467738
21
0.539563
0
LINE
8
BLACK
6
CONTINUOUS
10
0.467738
20
0.539563
11
0.470656
21
0.536645
0
LINE
8
BLACK
6
CONTINUOUS
10
0.470656
20
0.536645
11
0.475164
21
0.535143
0
LINE
8
BLACK
6
CONTINUOUS
10
0.475164
20
0.535143
11
0.481106
21
0.535143
0
LINE
8
BLACK
6
CONTINUOUS
10
0.481106
20
0.535143
11
0.481106
21
0.568607
0
LINE
8
BLACK
6
CONTINUOUS
10
0.481106
20
0.568607
11
0.475164
21
0.568607
0
LINE
8
BLACK
6
CONTINUOUS
10
0.435975
20
0.574383
11
0.436144
21
0.574394
0
LINE
8
BLACK
6
CONTINUOUS
10
0.436144
20
0.574394
11
0.436835
21
0.573886
0
LINE
8
BLACK
6
CONTINUOUS
10
0.436835
20
0.573886
11
0.437577
21
0.573458
0
LINE
8
BLACK
6
CONTINUOUS
10
0.437577
20
0.573458
11
0.437635
21
0.573298
0
LINE
8
BLACK
6
CONTINUOUS
10
0.437635
20
0.573298
11
0.437772
21
0.573198
0
LINE
8
BLACK
6
CONTINUOUS
10
0.437772
20
0.573198
11
0.441359
21
0.567817
0
LINE
8
BLACK
6
CONTINUOUS
10
0.441359
20
0.567817
11
0.444563
21
0.564613
0
LINE
8
BLACK
6
CONTINUOUS
10
0.444563
20
0.564613
11
0.447884
21
0.562952
0
LINE
8
BLACK
6
CONTINUOUS
10
0.447884
20
0.562952
11
0.448708
21
0.562341
0
LINE
8
BLACK
6
CONTINUOUS
10
0.448708
20
0.562341
11
0.449511
21
0.560488
0
LINE
8
BLACK
6
CONTINUOUS
10
0.449511
20
0.560488
11
0.448935
21
0.558552
0
LINE
8
BLACK
6
CONTINUOUS
10
0.448935
20
0.558552
11
0.44725
21
0.557439
0
LINE
8
BLACK
6
CONTINUOUS
10
0.44725
20
0.557439
11
0.445243
21
0.55767
0
LINE
8
BLACK
6
CONTINUOUS
10
0.445243
20
0.55767
11
0.441494
21
0.559545
0
LINE
8
BLACK
6
CONTINUOUS
10
0.441494
20
0.559545
11
0.440784
21
0.560071
0
LINE
8
BLACK
6
CONTINUOUS
10
0.440784
20
0.560071
11
0.440726
21
0.560098
0
LINE
8
BLACK
6
CONTINUOUS
10
0.440726
20
0.560098
11
0.438268
21
0.562556
0
LINE
8
BLACK
6
CONTINUOUS
10
0.438268
20
0.562556
11
0.438268
21
0.535143
0
LINE
8
BLACK
6
CONTINUOUS
10
0.438268
20
0.535143
11
0.446564
21
0.535143
0
LINE
8
BLACK
6
CONTINUOUS
10
0.446564
20
0.535143
11
0.447573
21
0.534964
0
LINE
8
BLACK
6
CONTINUOUS
10
0.447573
20
0.534964
11
0.449121
21
0.533666
0
LINE
8
BLACK
6
CONTINUOUS
10
0.449121
20
0.533666
11
0.449471
21
0.531677
0
LINE
8
BLACK
6
CONTINUOUS
10
0.449471
20
0.531677
11
0.448462
21
0.529928
0
LINE
8
BLACK
6
CONTINUOUS
10
0.448462
20
0.529928
11
0.446564
21
0.529237
0
LINE
8
BLACK
6
CONTINUOUS
10
0.446564
20
0.529237
11
0.424066
21
0.529237
0
LINE
8
BLACK
6
CONTINUOUS
10
0.424066
20
0.529237
11
0.423056
21
0.529415
0
LINE
8
BLACK
6
CONTINUOUS
10
0.423056
20
0.529415
11
0.421509
21
0.530713
0
LINE
8
BLACK
6
CONTINUOUS
10
0.421509
20
0.530713
11
0.421158
21
0.532703
0
LINE
8
BLACK
6
CONTINUOUS
10
0.421158
20
0.532703
11
0.422168
21
0.534452
0
LINE
8
BLACK
6
CONTINUOUS
10
0.422168
20
0.534452
11
0.424066
21
0.535143
0
LINE
8
BLACK
6
CONTINUOUS
10
0.424066
20
0.535143
11
0.432362
21
0.535143
0
LINE
8
BLACK
6
CONTINUOUS
10
0.432362
20
0.535143
11
0.432362
21
0.57156
0
LINE
8
BLACK
6
CONTINUOUS
10
0.432362
20
0.57156
11
0.43254
21
0.57257
0
LINE
8
BLACK
6
CONTINUOUS
10
0.43254
20
0.57257
11
0.432649
21
0.5727
0
LINE
8
BLACK
6
CONTINUOUS
10
0.432649
20
0.5727
11
0.432668
21
0.572869
0
LINE
8
BLACK
6
CONTINUOUS
10
0.432668
20
0.572869
11
0.433288
21
0.573461
0
LINE
8
BLACK
6
CONTINUOUS
10
0.433288
20
0.573461
11
0.433839
21
0.574117
0
LINE
8
BLACK
6
CONTINUOUS
10
0.433839
20
0.574117
11
0.434006
21
0.574146
0
LINE
8
BLACK
6
CONTINUOUS
10
0.434006
20
0.574146
11
0.434129
21
0.574264
0
LINE
8
BLACK
6
CONTINUOUS
10
0.434129
20
0.574264
11
0.434984
21
0.574319
0
LINE
8
BLACK
6
CONTINUOUS
10
0.434984
20
0.574319
11
0.435828
21
0.574468
0
LINE
8
BLACK
6
CONTINUOUS
10
0.435828
20
0.574468
11
0.435975
21
0.574383
  0
ENDSEC
  0
EOF
