  0
SECTION
  2
HEADER
  9
$ANGBASE
  50
0.0
  9
$ANGDIR
  70
1
  9
$MEASUREMENT
  70
0
  0
ENDSEC
  0
SECTION
  2
TABLES
  0
TABLE
  2
LTYPE
  70
4
  0
LTYPE
  5
40F
  2
CONTINUOUS
  70
0
  3
Solid line
  72
65
  73
0
  40
0.0
  0
LTYPE
  5
410
  2
DASHDOT
 70
0
  3
Dash Dot ____ _ ____ _
 72
65
 73
4
 40
2.0
 49
1.25
 49
-0.25
 49
0.25
 49
-0.25
  0
LTYPE
  5
411
  2
DASHED
 70
0
  3
Dashed __ __ __ __ __
 72
65
 73
2
 40
0.75
 49
0.5
 49
-0.25
  0
LTYPE
  5
43B
  2
DOTTED
 70
0
  3
Dotted .  .  .  .
 72
65
 73
2
 40
0.2
 49
0.0
 49
-0.2
  0
ENDTAB
  0
TABLE
  2
STYLE
  70
4
  0
STYLE
  2
KICAD
  70
0
  40
0
  41
1
  42
1
  50
0
  71
0
  3
isocp.shx
  0
STYLE
  2
KICADB
  70
0
  40
0
  41
1
  42
1
  50
0
  71
0
  3
isocp.shx
  0
STYLE
  2
KICADI
  70
0
  40
0
  41
1
  42
1
  50
15
  71
0
  3
isocp.shx
  0
STYLE
  2
KICADBI
  70
0
  40
0
  41
1
  42
1
  50
15
  71
0
  3
isocp.shx
  0
ENDTAB
  0
TABLE
  2
LAYER
  70
1
  0
LAYER
  2
BLACK
  70
0
  62
7
  6
CONTINUOUS
  0
ENDTAB
  0
ENDSEC
  0
SECTION
  2
ENTITIES
0
LINE
8
BLACK
6
CONTINUOUS
10
0.690513
20
0.0847746
11
0.693068
21
0.0830678
0
LINE
8
BLACK
6
CONTINUOUS
10
0.693068
20
0.0830678
11
0.694775
21
0.0805133
0
LINE
8
BLACK
6
CONTINUOUS
10
0.694775
20
0.0805133
11
0.695374
21
0.0775
0
LINE
8
BLACK
6
CONTINUOUS
10
0.695374
20
0.0775
11
0.695374
21
0.0425
0
LINE
8
BLACK
6
CONTINUOUS
10
0.695374
20
0.0425
11
0.694775
21
0.0394867
0
LINE
8
BLACK
6
CONTINUOUS
10
0.694775
20
0.0394867
11
0.693068
21
0.0369322
0
LINE
8
BLACK
6
CONTINUOUS
10
0.693068
20
0.0369322
11
0.690513
21
0.0352254
0
LINE
8
BLACK
6
CONTINUOUS
10
0.690513
20
0.0352254
11
0.6875
21
0.034626
0
LINE
8
BLACK
6
CONTINUOUS
10
0.6875
20
0.034626
11
0.6325
21
0.034626
0
LINE
8
BLACK
6
CONTINUOUS
10
0.6325
20
0.034626
11
0.629487
21
0.0352254
0
LINE
8
BLACK
6
CONTINUOUS
10
0.629487
20
0.0352254
11
0.626932
21
0.0369322
0
LINE
8
BLACK
6
CONTINUOUS
10
0.626932
20
0.0369322
11
0.625225
21
0.0394867
0
LINE
8
BLACK
6
CONTINUOUS
10
0.625225
20
0.0394867
11
0.624626
21
0.0425
0
LINE
8
BLACK
6
CONTINUOUS
10
0.624626
20
0.0425
11
0.624626
21
0.0775
0
LINE
8
BLACK
6
CONTINUOUS
10
0.624626
20
0.0775
11
0.625225
21
0.0805133
0
LINE
8
BLACK
6
CONTINUOUS
10
0.625225
20
0.0805133
11
0.626932
21
0.0830678
0
LINE
8
BLACK
6
CONTINUOUS
10
0.626932
20
0.0830678
11
0.629487
21
0.0847746
0
LINE
8
BLACK
6
CONTINUOUS
10
0.629487
20
0.0847746
11
0.6325
21
0.085374
0
LINE
8
BLACK
6
CONTINUOUS
10
0.6325
20
0.085374
11
0.6875
21
0.085374
0
LINE
8
BLACK
6
CONTINUOUS
10
0.6875
20
0.085374
11
0.690513
21
0.0847746
0
LINE
8
BLACK
6
CONTINUOUS
10
1.11343
20
0.178983
11
1.12264
21
0.177342
0
LINE
8
BLACK
6
CONTINUOUS
10
1.12264
20
0.177342
11
1.13146
21
0.174219
0
LINE
8
BLACK
6
CONTINUOUS
10
1.13146
20
0.174219
11
1.13965
21
0.169698
0
LINE
8
BLACK
6
CONTINUOUS
10
1.13965
20
0.169698
11
1.14699
21
0.1639
0
LINE
8
BLACK
6
CONTINUOUS
10
1.14699
20
0.1639
11
1.15328
21
0.156981
0
LINE
8
BLACK
6
CONTINUOUS
10
1.15328
20
0.156981
11
1.15837
21
0.149126
0
LINE
8
BLACK
6
CONTINUOUS
10
1.15837
20
0.149126
11
1.1621
21
0.140547
0
LINE
8
BLACK
6
CONTINUOUS
10
1.1621
20
0.140547
11
1.16438
21
0.131473
0
LINE
8
BLACK
6
CONTINUOUS
10
1.16438
20
0.131473
11
1.16514
21
0.12215
0
LINE
8
BLACK
6
CONTINUOUS
10
1.16514
20
0.12215
11
1.16507
21
0.119361
0
LINE
8
BLACK
6
CONTINUOUS
10
1.16507
20
0.119361
11
1.16385
21
0.110086
0
LINE
8
BLACK
6
CONTINUOUS
10
1.16385
20
0.110086
11
1.16113
21
0.101135
0
LINE
8
BLACK
6
CONTINUOUS
10
1.16113
20
0.101135
11
1.15699
21
0.0927478
0
LINE
8
BLACK
6
CONTINUOUS
10
1.15699
20
0.0927478
11
1.15153
21
0.0851506
0
LINE
8
BLACK
6
CONTINUOUS
10
1.15153
20
0.0851506
11
1.1449
21
0.0785471
0
LINE
8
BLACK
6
CONTINUOUS
10
1.1449
20
0.0785471
11
1.13729
21
0.0731145
0
LINE
8
BLACK
6
CONTINUOUS
10
1.13729
20
0.0731145
11
1.12888
21
0.0689988
0
LINE
8
BLACK
6
CONTINUOUS
10
1.12888
20
0.0689988
11
1.11992
21
0.0663105
0
LINE
8
BLACK
6
CONTINUOUS
10
1.11992
20
0.0663105
11
1.11064
21
0.0651218
0
LINE
8
BLACK
6
CONTINUOUS
10
1.11064
20
0.0651218
11
1.1013
21
0.0654646
0
LINE
8
BLACK
6
CONTINUOUS
10
1.1013
20
0.0654646
11
1.09213
21
0.0673297
0
LINE
8
BLACK
6
CONTINUOUS
10
1.09213
20
0.0673297
11
1.08339
21
0.070667
0
LINE
8
BLACK
6
CONTINUOUS
10
1.08339
20
0.070667
11
1.07531
21
0.075387
0
LINE
8
BLACK
6
CONTINUOUS
10
1.07531
20
0.075387
11
1.06811
21
0.0813628
0
LINE
8
BLACK
6
CONTINUOUS
10
1.06811
20
0.0813628
11
1.06199
21
0.0884339
0
LINE
8
BLACK
6
CONTINUOUS
10
1.06199
20
0.0884339
11
1.0571
21
0.0964106
0
LINE
8
BLACK
6
CONTINUOUS
10
1.0571
20
0.0964106
11
1.05358
21
0.105078
0
LINE
8
BLACK
6
CONTINUOUS
10
1.05358
20
0.105078
11
1.05152
21
0.114205
0
LINE
8
BLACK
6
CONTINUOUS
10
1.05152
20
0.114205
11
1.05099
21
0.123544
0
LINE
8
BLACK
6
CONTINUOUS
10
1.05099
20
0.123544
11
1.05198
21
0.132847
0
LINE
8
BLACK
6
CONTINUOUS
10
1.05198
20
0.132847
11
1.05448
21
0.141861
0
LINE
8
BLACK
6
CONTINUOUS
10
1.05448
20
0.141861
11
1.05842
21
0.150347
0
LINE
8
BLACK
6
CONTINUOUS
10
1.05842
20
0.150347
11
1.06369
21
0.158075
0
LINE
8
BLACK
6
CONTINUOUS
10
1.06369
20
0.158075
11
1.07015
21
0.164839
0
LINE
8
BLACK
6
CONTINUOUS
10
1.07015
20
0.164839
11
1.07763
21
0.170456
0
LINE
8
BLACK
6
CONTINUOUS
10
1.07763
20
0.170456
11
1.08593
21
0.174776
0
LINE
8
BLACK
6
CONTINUOUS
10
1.08593
20
0.174776
11
1.09483
21
0.177682
0
LINE
8
BLACK
6
CONTINUOUS
10
1.09483
20
0.177682
11
1.10407
21
0.179097
0
LINE
8
BLACK
6
CONTINUOUS
10
1.10407
20
0.179097
11
1.11343
21
0.178983
0
LINE
8
BLACK
6
CONTINUOUS
10
1.41492
20
0.325098
11
1.42877
21
0.322656
0
LINE
8
BLACK
6
CONTINUOUS
10
1.42877
20
0.322656
11
1.44226
21
0.318684
0
LINE
8
BLACK
6
CONTINUOUS
10
1.44226
20
0.318684
11
1.45523
21
0.313234
0
LINE
8
BLACK
6
CONTINUOUS
10
1.45523
20
0.313234
11
1.46751
21
0.306372
0
LINE
8
BLACK
6
CONTINUOUS
10
1.46751
20
0.306372
11
1.47894
21
0.298184
0
LINE
8
BLACK
6
CONTINUOUS
10
1.47894
20
0.298184
11
1.48939
21
0.288773
0
LINE
8
BLACK
6
CONTINUOUS
10
1.48939
20
0.288773
11
1.49873
21
0.278255
0
LINE
8
BLACK
6
CONTINUOUS
10
1.49873
20
0.278255
11
1.50684
21
0.266761
0
LINE
8
BLACK
6
CONTINUOUS
10
1.50684
20
0.266761
11
1.51362
21
0.254436
0
LINE
8
BLACK
6
CONTINUOUS
10
1.51362
20
0.254436
11
1.51898
21
0.241432
0
LINE
8
BLACK
6
CONTINUOUS
10
1.51898
20
0.241432
11
1.52285
21
0.227912
0
LINE
8
BLACK
6
CONTINUOUS
10
1.52285
20
0.227912
11
1.5252
21
0.214043
0
LINE
8
BLACK
6
CONTINUOUS
10
1.5252
20
0.214043
11
1.52598
21
0.2
0
LINE
8
BLACK
6
CONTINUOUS
10
1.52598
20
0.2
11
1.52594
21
0.196482
0
LINE
8
BLACK
6
CONTINUOUS
10
1.52594
20
0.196482
11
1.52476
21
0.182466
0
LINE
8
BLACK
6
CONTINUOUS
10
1.52476
20
0.182466
11
1.52203
21
0.168669
0
LINE
8
BLACK
6
CONTINUOUS
10
1.52203
20
0.168669
11
1.51777
21
0.155262
0
LINE
8
BLACK
6
CONTINUOUS
10
1.51777
20
0.155262
11
1.51205
21
0.142413
0
LINE
8
BLACK
6
CONTINUOUS
10
1.51205
20
0.142413
11
1.50493
21
0.130281
0
LINE
8
BLACK
6
CONTINUOUS
10
1.50493
20
0.130281
11
1.49651
21
0.119019
0
LINE
8
BLACK
6
CONTINUOUS
10
1.49651
20
0.119019
11
1.48688
21
0.108766
0
LINE
8
BLACK
6
CONTINUOUS
10
1.48688
20
0.108766
11
1.47617
21
0.0996498
0
LINE
8
BLACK
6
CONTINUOUS
10
1.47617
20
0.0996498
11
1.46451
21
0.0917846
0
LINE
8
BLACK
6
CONTINUOUS
10
1.46451
20
0.0917846
11
1.45204
21
0.0852682
0
LINE
8
BLACK
6
CONTINUOUS
10
1.45204
20
0.0852682
11
1.43893
21
0.0801819
0
LINE
8
BLACK
6
CONTINUOUS
10
1.43893
20
0.0801819
11
1.42533
21
0.0765889
0
LINE
8
BLACK
6
CONTINUOUS
10
1.42533
20
0.0765889
11
1.41142
21
0.0745343
0
LINE
8
BLACK
6
CONTINUOUS
10
1.41142
20
0.0745343
11
1.39736
21
0.0740434
0
LINE
8
BLACK
6
CONTINUOUS
10
1.39736
20
0.0740434
11
1.38334
21
0.0751224
0
LINE
8
BLACK
6
CONTINUOUS
10
1.38334
20
0.0751224
11
1.36952
21
0.077758
0
LINE
8
BLACK
6
CONTINUOUS
10
1.36952
20
0.077758
11
1.35609
21
0.0819172
0
LINE
8
BLACK
6
CONTINUOUS
10
1.35609
20
0.0819172
11
1.3432
21
0.0875482
0
LINE
8
BLACK
6
CONTINUOUS
10
1.3432
20
0.0875482
11
1.33102
21
0.0945809
0
LINE
8
BLACK
6
CONTINUOUS
10
1.33102
20
0.0945809
11
1.31969
21
0.102927
0
LINE
8
BLACK
6
CONTINUOUS
10
1.31969
20
0.102927
11
1.30937
21
0.112484
0
LINE
8
BLACK
6
CONTINUOUS
10
1.30937
20
0.112484
11
1.30018
21
0.123131
0
LINE
8
BLACK
6
CONTINUOUS
10
1.30018
20
0.123131
11
1.29224
21
0.134737
0
LINE
8
BLACK
6
CONTINUOUS
10
1.29224
20
0.134737
11
1.28563
21
0.147156
0
LINE
8
BLACK
6
CONTINUOUS
10
1.28563
20
0.147156
11
1.28046
21
0.160233
0
LINE
8
BLACK
6
CONTINUOUS
10
1.28046
20
0.160233
11
1.27677
21
0.173806
0
LINE
8
BLACK
6
CONTINUOUS
10
1.27677
20
0.173806
11
1.27462
21
0.187706
0
LINE
8
BLACK
6
CONTINUOUS
10
1.27462
20
0.187706
11
1.27403
21
0.201759
0
LINE
8
BLACK
6
CONTINUOUS
10
1.27403
20
0.201759
11
1.27501
21
0.21579
0
LINE
8
BLACK
6
CONTINUOUS
10
1.27501
20
0.21579
11
1.27755
21
0.229624
0
LINE
8
BLACK
6
CONTINUOUS
10
1.27755
20
0.229624
11
1.28161
21
0.243089
0
LINE
8
BLACK
6
CONTINUOUS
10
1.28161
20
0.243089
11
1.28715
21
0.256017
0
LINE
8
BLACK
6
CONTINUOUS
10
1.28715
20
0.256017
11
1.2941
21
0.268247
0
LINE
8
BLACK
6
CONTINUOUS
10
1.2941
20
0.268247
11
1.30237
21
0.279626
0
LINE
8
BLACK
6
CONTINUOUS
10
1.30237
20
0.279626
11
1.31185
21
0.290012
0
LINE
8
BLACK
6
CONTINUOUS
10
1.31185
20
0.290012
11
1.32244
21
0.299277
0
LINE
8
BLACK
6
CONTINUOUS
10
1.32244
20
0.299277
11
1.33399
21
0.307304
0
LINE
8
BLACK
6
CONTINUOUS
10
1.33399
20
0.307304
11
1.34636
21
0.313994
0
LINE
8
BLACK
6
CONTINUOUS
10
1.34636
20
0.313994
11
1.3594
21
0.319263
0
LINE
8
BLACK
6
CONTINUOUS
10
1.3594
20
0.319263
11
1.37295
21
0.323045
0
LINE
8
BLACK
6
CONTINUOUS
10
1.37295
20
0.323045
11
1.38683
21
0.325294
0
LINE
8
BLACK
6
CONTINUOUS
10
1.38683
20
0.325294
11
1.40088
21
0.325981
0
LINE
8
BLACK
6
CONTINUOUS
10
1.40088
20
0.325981
11
1.41492
21
0.325098
0
LINE
8
BLACK
6
CONTINUOUS
10
0.214917
20
0.325098
11
0.228769
21
0.322656
0
LINE
8
BLACK
6
CONTINUOUS
10
0.228769
20
0.322656
11
0.242262
21
0.318684
0
LINE
8
BLACK
6
CONTINUOUS
10
0.242262
20
0.318684
11
0.255228
21
0.313234
0
LINE
8
BLACK
6
CONTINUOUS
10
0.255228
20
0.313234
11
0.267506
21
0.306372
0
LINE
8
BLACK
6
CONTINUOUS
10
0.267506
20
0.306372
11
0.278942
21
0.298184
0
LINE
8
BLACK
6
CONTINUOUS
10
0.278942
20
0.298184
11
0.289395
21
0.288773
0
LINE
8
BLACK
6
CONTINUOUS
10
0.289395
20
0.288773
11
0.298733
21
0.278255
0
LINE
8
BLACK
6
CONTINUOUS
10
0.298733
20
0.278255
11
0.306841
21
0.266761
0
LINE
8
BLACK
6
CONTINUOUS
10
0.306841
20
0.266761
11
0.313617
21
0.254436
0
LINE
8
BLACK
6
CONTINUOUS
10
0.313617
20
0.254436
11
0.318977
21
0.241432
0
LINE
8
BLACK
6
CONTINUOUS
10
0.318977
20
0.241432
11
0.322853
21
0.227912
0
LINE
8
BLACK
6
CONTINUOUS
10
0.322853
20
0.227912
11
0.325199
21
0.214043
0
LINE
8
BLACK
6
CONTINUOUS
10
0.325199
20
0.214043
11
0.325984
21
0.2
0
LINE
8
BLACK
6
CONTINUOUS
10
0.325984
20
0.2
11
0.325935
21
0.196482
0
LINE
8
BLACK
6
CONTINUOUS
10
0.325935
20
0.196482
11
0.324758
21
0.182466
0
LINE
8
BLACK
6
CONTINUOUS
10
0.324758
20
0.182466
11
0.322026
21
0.168669
0
LINE
8
BLACK
6
CONTINUOUS
10
0.322026
20
0.168669
11
0.317773
21
0.155262
0
LINE
8
BLACK
6
CONTINUOUS
10
0.317773
20
0.155262
11
0.312052
21
0.142413
0
LINE
8
BLACK
6
CONTINUOUS
10
0.312052
20
0.142413
11
0.304935
21
0.130281
0
LINE
8
BLACK
6
CONTINUOUS
10
0.304935
20
0.130281
11
0.29651
21
0.119019
0
LINE
8
BLACK
6
CONTINUOUS
10
0.29651
20
0.119019
11
0.286881
21
0.108766
0
LINE
8
BLACK
6
CONTINUOUS
10
0.286881
20
0.108766
11
0.27617
21
0.0996498
0
LINE
8
BLACK
6
CONTINUOUS
10
0.27617
20
0.0996498
11
0.264509
21
0.0917846
0
LINE
8
BLACK
6
CONTINUOUS
10
0.264509
20
0.0917846
11
0.252045
21
0.0852682
0
LINE
8
BLACK
6
CONTINUOUS
10
0.252045
20
0.0852682
11
0.238931
21
0.0801819
0
LINE
8
BLACK
6
CONTINUOUS
10
0.238931
20
0.0801819
11
0.225333
21
0.0765889
0
LINE
8
BLACK
6
CONTINUOUS
10
0.225333
20
0.0765889
11
0.211418
21
0.0745343
0
LINE
8
BLACK
6
CONTINUOUS
10
0.211418
20
0.0745343
11
0.197362
21
0.0740434
0
LINE
8
BLACK
6
CONTINUOUS
10
0.197362
20
0.0740434
11
0.183338
21
0.0751224
0
LINE
8
BLACK
6
CONTINUOUS
10
0.183338
20
0.0751224
11
0.169522
21
0.077758
0
LINE
8
BLACK
6
CONTINUOUS
10
0.169522
20
0.077758
11
0.156085
21
0.0819172
0
LINE
8
BLACK
6
CONTINUOUS
10
0.156085
20
0.0819172
11
0.143197
21
0.0875482
0
LINE
8
BLACK
6
CONTINUOUS
10
0.143197
20
0.0875482
11
0.131016
21
0.0945809
0
LINE
8
BLACK
6
CONTINUOUS
10
0.131016
20
0.0945809
11
0.119695
21
0.102927
0
LINE
8
BLACK
6
CONTINUOUS
10
0.119695
20
0.102927
11
0.109375
21
0.112484
0
LINE
8
BLACK
6
CONTINUOUS
10
0.109375
20
0.112484
11
0.100184
21
0.123131
0
LINE
8
BLACK
6
CONTINUOUS
10
0.100184
20
0.123131
11
0.0922376
21
0.134737
0
LINE
8
BLACK
6
CONTINUOUS
10
0.0922376
20
0.134737
11
0.0856343
21
0.147156
0
LINE
8
BLACK
6
CONTINUOUS
10
0.0856343
20
0.147156
11
0.0804566
21
0.160233
0
LINE
8
BLACK
6
CONTINUOUS
10
0.0804566
20
0.160233
11
0.0767688
21
0.173806
0
LINE
8
BLACK
6
CONTINUOUS
10
0.0767688
20
0.173806
11
0.074617
21
0.187706
0
LINE
8
BLACK
6
CONTINUOUS
10
0.074617
20
0.187706
11
0.074028
21
0.201759
0
LINE
8
BLACK
6
CONTINUOUS
10
0.074028
20
0.201759
11
0.0750092
21
0.21579
0
LINE
8
BLACK
6
CONTINUOUS
10
0.0750092
20
0.21579
11
0.0775482
21
0.229624
0
LINE
8
BLACK
6
CONTINUOUS
10
0.0775482
20
0.229624
11
0.0816135
21
0.243089
0
LINE
8
BLACK
6
CONTINUOUS
10
0.0816135
20
0.243089
11
0.0871544
21
0.256017
0
LINE
8
BLACK
6
CONTINUOUS
10
0.0871544
20
0.256017
11
0.0941019
21
0.268247
0
LINE
8
BLACK
6
CONTINUOUS
10
0.0941019
20
0.268247
11
0.102369
21
0.279626
0
LINE
8
BLACK
6
CONTINUOUS
10
0.102369
20
0.279626
11
0.111853
21
0.290012
0
LINE
8
BLACK
6
CONTINUOUS
10
0.111853
20
0.290012
11
0.122436
21
0.299277
0
LINE
8
BLACK
6
CONTINUOUS
10
0.122436
20
0.299277
11
0.133986
21
0.307304
0
LINE
8
BLACK
6
CONTINUOUS
10
0.133986
20
0.307304
11
0.146359
21
0.313994
0
LINE
8
BLACK
6
CONTINUOUS
10
0.146359
20
0.313994
11
0.1594
21
0.319263
0
LINE
8
BLACK
6
CONTINUOUS
10
0.1594
20
0.319263
11
0.172947
21
0.323045
0
LINE
8
BLACK
6
CONTINUOUS
10
0.172947
20
0.323045
11
0.186831
21
0.325294
0
LINE
8
BLACK
6
CONTINUOUS
10
0.186831
20
0.325294
11
0.20088
21
0.325981
0
LINE
8
BLACK
6
CONTINUOUS
10
0.20088
20
0.325981
11
0.214917
21
0.325098
0
LINE
8
BLACK
6
CONTINUOUS
10
0.463013
20
0.157275
11
0.465568
21
0.155568
0
LINE
8
BLACK
6
CONTINUOUS
10
0.465568
20
0.155568
11
0.467275
21
0.153013
0
LINE
8
BLACK
6
CONTINUOUS
10
0.467275
20
0.153013
11
0.467874
21
0.15
0
LINE
8
BLACK
6
CONTINUOUS
10
0.467874
20
0.15
11
0.467874
21
0.09
0
LINE
8
BLACK
6
CONTINUOUS
10
0.467874
20
0.09
11
0.467275
21
0.0869867
0
LINE
8
BLACK
6
CONTINUOUS
10
0.467275
20
0.0869867
11
0.465568
21
0.0844322
0
LINE
8
BLACK
6
CONTINUOUS
10
0.465568
20
0.0844322
11
0.463013
21
0.0827254
0
LINE
8
BLACK
6
CONTINUOUS
10
0.463013
20
0.0827254
11
0.46
21
0.082126
0
LINE
8
BLACK
6
CONTINUOUS
10
0.46
20
0.082126
11
0.4
21
0.082126
0
LINE
8
BLACK
6
CONTINUOUS
10
0.4
20
0.082126
11
0.396987
21
0.0827254
0
LINE
8
BLACK
6
CONTINUOUS
10
0.396987
20
0.0827254
11
0.394432
21
0.0844322
0
LINE
8
BLACK
6
CONTINUOUS
10
0.394432
20
0.0844322
11
0.392725
21
0.0869867
0
LINE
8
BLACK
6
CONTINUOUS
10
0.392725
20
0.0869867
11
0.392126
21
0.09
0
LINE
8
BLACK
6
CONTINUOUS
10
0.392126
20
0.09
11
0.392126
21
0.15
0
LINE
8
BLACK
6
CONTINUOUS
10
0.392126
20
0.15
11
0.392725
21
0.153013
0
LINE
8
BLACK
6
CONTINUOUS
10
0.392725
20
0.153013
11
0.394432
21
0.155568
0
LINE
8
BLACK
6
CONTINUOUS
10
0.394432
20
0.155568
11
0.396987
21
0.157275
0
LINE
8
BLACK
6
CONTINUOUS
10
0.396987
20
0.157275
11
0.4
21
0.157874
0
LINE
8
BLACK
6
CONTINUOUS
10
0.4
20
0.157874
11
0.46
21
0.157874
0
LINE
8
BLACK
6
CONTINUOUS
10
0.46
20
0.157874
11
0.463013
21
0.157275
0
LINE
8
BLACK
6
CONTINUOUS
10
0.563013
20
0.157275
11
0.565568
21
0.155568
0
LINE
8
BLACK
6
CONTINUOUS
10
0.565568
20
0.155568
11
0.567275
21
0.153013
0
LINE
8
BLACK
6
CONTINUOUS
10
0.567275
20
0.153013
11
0.567874
21
0.15
0
LINE
8
BLACK
6
CONTINUOUS
10
0.567874
20
0.15
11
0.567874
21
0.09
0
LINE
8
BLACK
6
CONTINUOUS
10
0.567874
20
0.09
11
0.567275
21
0.0869867
0
LINE
8
BLACK
6
CONTINUOUS
10
0.567275
20
0.0869867
11
0.565568
21
0.0844322
0
LINE
8
BLACK
6
CONTINUOUS
10
0.565568
20
0.0844322
11
0.563013
21
0.0827254
0
LINE
8
BLACK
6
CONTINUOUS
10
0.563013
20
0.0827254
11
0.56
21
0.082126
0
LINE
8
BLACK
6
CONTINUOUS
10
0.56
20
0.082126
11
0.5
21
0.082126
0
LINE
8
BLACK
6
CONTINUOUS
10
0.5
20
0.082126
11
0.496987
21
0.0827254
0
LINE
8
BLACK
6
CONTINUOUS
10
0.496987
20
0.0827254
11
0.494432
21
0.0844322
0
LINE
8
BLACK
6
CONTINUOUS
10
0.494432
20
0.0844322
11
0.492725
21
0.0869867
0
LINE
8
BLACK
6
CONTINUOUS
10
0.492725
20
0.0869867
11
0.492126
21
0.09
0
LINE
8
BLACK
6
CONTINUOUS
10
0.492126
20
0.09
11
0.492126
21
0.15
0
LINE
8
BLACK
6
CONTINUOUS
10
0.492126
20
0.15
11
0.492725
21
0.153013
0
LINE
8
BLACK
6
CONTINUOUS
10
0.492725
20
0.153013
11
0.494432
21
0.155568
0
LINE
8
BLACK
6
CONTINUOUS
10
0.494432
20
0.155568
11
0.496987
21
0.157275
0
LINE
8
BLACK
6
CONTINUOUS
10
0.496987
20
0.157275
11
0.5
21
0.157874
0
LINE
8
BLACK
6
CONTINUOUS
10
0.5
20
0.157874
11
0.56
21
0.157874
0
LINE
8
BLACK
6
CONTINUOUS
10
0.56
20
0.157874
11
0.563013
21
0.157275
0
LINE
8
BLACK
6
CONTINUOUS
10
0.690513
20
0.159775
11
0.693068
21
0.158068
0
LINE
8
BLACK
6
CONTINUOUS
10
0.693068
20
0.158068
11
0.694775
21
0.155513
0
LINE
8
BLACK
6
CONTINUOUS
10
0.694775
20
0.155513
11
0.695374
21
0.1525
0
LINE
8
BLACK
6
CONTINUOUS
10
0.695374
20
0.1525
11
0.695374
21
0.1175
0
LINE
8
BLACK
6
CONTINUOUS
10
0.695374
20
0.1175
11
0.694775
21
0.114487
0
LINE
8
BLACK
6
CONTINUOUS
10
0.694775
20
0.114487
11
0.693068
21
0.111932
0
LINE
8
BLACK
6
CONTINUOUS
10
0.693068
20
0.111932
11
0.690513
21
0.110225
0
LINE
8
BLACK
6
CONTINUOUS
10
0.690513
20
0.110225
11
0.6875
21
0.109626
0
LINE
8
BLACK
6
CONTINUOUS
10
0.6875
20
0.109626
11
0.6325
21
0.109626
0
LINE
8
BLACK
6
CONTINUOUS
10
0.6325
20
0.109626
11
0.629487
21
0.110225
0
LINE
8
BLACK
6
CONTINUOUS
10
0.629487
20
0.110225
11
0.626932
21
0.111932
0
LINE
8
BLACK
6
CONTINUOUS
10
0.626932
20
0.111932
11
0.625225
21
0.114487
0
LINE
8
BLACK
6
CONTINUOUS
10
0.625225
20
0.114487
11
0.624626
21
0.1175
0
LINE
8
BLACK
6
CONTINUOUS
10
0.624626
20
0.1175
11
0.624626
21
0.1525
0
LINE
8
BLACK
6
CONTINUOUS
10
0.624626
20
0.1525
11
0.625225
21
0.155513
0
LINE
8
BLACK
6
CONTINUOUS
10
0.625225
20
0.155513
11
0.626932
21
0.158068
0
LINE
8
BLACK
6
CONTINUOUS
10
0.626932
20
0.158068
11
0.629487
21
0.159775
0
LINE
8
BLACK
6
CONTINUOUS
10
0.629487
20
0.159775
11
0.6325
21
0.160374
0
LINE
8
BLACK
6
CONTINUOUS
10
0.6325
20
0.160374
11
0.6875
21
0.160374
0
LINE
8
BLACK
6
CONTINUOUS
10
0.6875
20
0.160374
11
0.690513
21
0.159775
0
LINE
8
BLACK
6
CONTINUOUS
10
0.978013
20
0.217275
11
0.980568
21
0.215568
0
LINE
8
BLACK
6
CONTINUOUS
10
0.980568
20
0.215568
11
0.982275
21
0.213013
0
LINE
8
BLACK
6
CONTINUOUS
10
0.982275
20
0.213013
11
0.982874
21
0.21
0
LINE
8
BLACK
6
CONTINUOUS
10
0.982874
20
0.21
11
0.982874
21
0.175
0
LINE
8
BLACK
6
CONTINUOUS
10
0.982874
20
0.175
11
0.982275
21
0.171987
0
LINE
8
BLACK
6
CONTINUOUS
10
0.982275
20
0.171987
11
0.980568
21
0.169432
0
LINE
8
BLACK
6
CONTINUOUS
10
0.980568
20
0.169432
11
0.978013
21
0.167725
0
LINE
8
BLACK
6
CONTINUOUS
10
0.978013
20
0.167725
11
0.975
21
0.167126
0
LINE
8
BLACK
6
CONTINUOUS
10
0.975
20
0.167126
11
0.92
21
0.167126
0
LINE
8
BLACK
6
CONTINUOUS
10
0.92
20
0.167126
11
0.916987
21
0.167725
0
LINE
8
BLACK
6
CONTINUOUS
10
0.916987
20
0.167725
11
0.914432
21
0.169432
0
LINE
8
BLACK
6
CONTINUOUS
10
0.914432
20
0.169432
11
0.912725
21
0.171987
0
LINE
8
BLACK
6
CONTINUOUS
10
0.912725
20
0.171987
11
0.912126
21
0.175
0
LINE
8
BLACK
6
CONTINUOUS
10
0.912126
20
0.175
11
0.912126
21
0.21
0
LINE
8
BLACK
6
CONTINUOUS
10
0.912126
20
0.21
11
0.912725
21
0.213013
0
LINE
8
BLACK
6
CONTINUOUS
10
0.912725
20
0.213013
11
0.914432
21
0.215568
0
LINE
8
BLACK
6
CONTINUOUS
10
0.914432
20
0.215568
11
0.916987
21
0.217275
0
LINE
8
BLACK
6
CONTINUOUS
10
0.916987
20
0.217275
11
0.92
21
0.217874
0
LINE
8
BLACK
6
CONTINUOUS
10
0.92
20
0.217874
11
0.975
21
0.217874
0
LINE
8
BLACK
6
CONTINUOUS
10
0.975
20
0.217874
11
0.978013
21
0.217275
0
LINE
8
BLACK
6
CONTINUOUS
10
0.463013
20
0.257275
11
0.465568
21
0.255568
0
LINE
8
BLACK
6
CONTINUOUS
10
0.465568
20
0.255568
11
0.467275
21
0.253013
0
LINE
8
BLACK
6
CONTINUOUS
10
0.467275
20
0.253013
11
0.467874
21
0.25
0
LINE
8
BLACK
6
CONTINUOUS
10
0.467874
20
0.25
11
0.467874
21
0.19
0
LINE
8
BLACK
6
CONTINUOUS
10
0.467874
20
0.19
11
0.467275
21
0.186987
0
LINE
8
BLACK
6
CONTINUOUS
10
0.467275
20
0.186987
11
0.465568
21
0.184432
0
LINE
8
BLACK
6
CONTINUOUS
10
0.465568
20
0.184432
11
0.463013
21
0.182725
0
LINE
8
BLACK
6
CONTINUOUS
10
0.463013
20
0.182725
11
0.46
21
0.182126
0
LINE
8
BLACK
6
CONTINUOUS
10
0.46
20
0.182126
11
0.4
21
0.182126
0
LINE
8
BLACK
6
CONTINUOUS
10
0.4
20
0.182126
11
0.396987
21
0.182725
0
LINE
8
BLACK
6
CONTINUOUS
10
0.396987
20
0.182725
11
0.394432
21
0.184432
0
LINE
8
BLACK
6
CONTINUOUS
10
0.394432
20
0.184432
11
0.392725
21
0.186987
0
LINE
8
BLACK
6
CONTINUOUS
10
0.392725
20
0.186987
11
0.392126
21
0.19
0
LINE
8
BLACK
6
CONTINUOUS
10
0.392126
20
0.19
11
0.392126
21
0.25
0
LINE
8
BLACK
6
CONTINUOUS
10
0.392126
20
0.25
11
0.392725
21
0.253013
0
LINE
8
BLACK
6
CONTINUOUS
10
0.392725
20
0.253013
11
0.394432
21
0.255568
0
LINE
8
BLACK
6
CONTINUOUS
10
0.394432
20
0.255568
11
0.396987
21
0.257275
0
LINE
8
BLACK
6
CONTINUOUS
10
0.396987
20
0.257275
11
0.4
21
0.257874
0
LINE
8
BLACK
6
CONTINUOUS
10
0.4
20
0.257874
11
0.46
21
0.257874
0
LINE
8
BLACK
6
CONTINUOUS
10
0.46
20
0.257874
11
0.463013
21
0.257275
0
LINE
8
BLACK
6
CONTINUOUS
10
0.563013
20
0.257275
11
0.565568
21
0.255568
0
LINE
8
BLACK
6
CONTINUOUS
10
0.565568
20
0.255568
11
0.567275
21
0.253013
0
LINE
8
BLACK
6
CONTINUOUS
10
0.567275
20
0.253013
11
0.567874
21
0.25
0
LINE
8
BLACK
6
CONTINUOUS
10
0.567874
20
0.25
11
0.567874
21
0.19
0
LINE
8
BLACK
6
CONTINUOUS
10
0.567874
20
0.19
11
0.567275
21
0.186987
0
LINE
8
BLACK
6
CONTINUOUS
10
0.567275
20
0.186987
11
0.565568
21
0.184432
0
LINE
8
BLACK
6
CONTINUOUS
10
0.565568
20
0.184432
11
0.563013
21
0.182725
0
LINE
8
BLACK
6
CONTINUOUS
10
0.563013
20
0.182725
11
0.56
21
0.182126
0
LINE
8
BLACK
6
CONTINUOUS
10
0.56
20
0.182126
11
0.5
21
0.182126
0
LINE
8
BLACK
6
CONTINUOUS
10
0.5
20
0.182126
11
0.496987
21
0.182725
0
LINE
8
BLACK
6
CONTINUOUS
10
0.496987
20
0.182725
11
0.494432
21
0.184432
0
LINE
8
BLACK
6
CONTINUOUS
10
0.494432
20
0.184432
11
0.492725
21
0.186987
0
LINE
8
BLACK
6
CONTINUOUS
10
0.492725
20
0.186987
11
0.492126
21
0.19
0
LINE
8
BLACK
6
CONTINUOUS
10
0.492126
20
0.19
11
0.492126
21
0.25
0
LINE
8
BLACK
6
CONTINUOUS
10
0.492126
20
0.25
11
0.492725
21
0.253013
0
LINE
8
BLACK
6
CONTINUOUS
10
0.492725
20
0.253013
11
0.494432
21
0.255568
0
LINE
8
BLACK
6
CONTINUOUS
10
0.494432
20
0.255568
11
0.496987
21
0.257275
0
LINE
8
BLACK
6
CONTINUOUS
10
0.496987
20
0.257275
11
0.5
21
0.257874
0
LINE
8
BLACK
6
CONTINUOUS
10
0.5
20
0.257874
11
0.56
21
0.257874
0
LINE
8
BLACK
6
CONTINUOUS
10
0.56
20
0.257874
11
0.563013
21
0.257275
0
LINE
8
BLACK
6
CONTINUOUS
10
0.667226
20
0.224086
11
0.66978
21
0.222379
0
LINE
8
BLACK
6
CONTINUOUS
10
0.66978
20
0.222379
11
0.671487
21
0.219824
0
LINE
8
BLACK
6
CONTINUOUS
10
0.671487
20
0.219824
11
0.672087
21
0.216811
0
LINE
8
BLACK
6
CONTINUOUS
10
0.672087
20
0.216811
11
0.672087
21
0.193189
0
LINE
8
BLACK
6
CONTINUOUS
10
0.672087
20
0.193189
11
0.671487
21
0.190176
0
LINE
8
BLACK
6
CONTINUOUS
10
0.671487
20
0.190176
11
0.66978
21
0.187621
0
LINE
8
BLACK
6
CONTINUOUS
10
0.66978
20
0.187621
11
0.667226
21
0.185914
0
LINE
8
BLACK
6
CONTINUOUS
10
0.667226
20
0.185914
11
0.664213
21
0.185315
0
LINE
8
BLACK
6
CONTINUOUS
10
0.664213
20
0.185315
11
0.603189
21
0.185315
0
LINE
8
BLACK
6
CONTINUOUS
10
0.603189
20
0.185315
11
0.600176
21
0.185914
0
LINE
8
BLACK
6
CONTINUOUS
10
0.600176
20
0.185914
11
0.597621
21
0.187621
0
LINE
8
BLACK
6
CONTINUOUS
10
0.597621
20
0.187621
11
0.595914
21
0.190176
0
LINE
8
BLACK
6
CONTINUOUS
10
0.595914
20
0.190176
11
0.595315
21
0.193189
0
LINE
8
BLACK
6
CONTINUOUS
10
0.595315
20
0.193189
11
0.595315
21
0.216811
0
LINE
8
BLACK
6
CONTINUOUS
10
0.595315
20
0.216811
11
0.595914
21
0.219824
0
LINE
8
BLACK
6
CONTINUOUS
10
0.595914
20
0.219824
11
0.597621
21
0.222379
0
LINE
8
BLACK
6
CONTINUOUS
10
0.597621
20
0.222379
11
0.600176
21
0.224086
0
LINE
8
BLACK
6
CONTINUOUS
10
0.600176
20
0.224086
11
0.603189
21
0.224685
0
LINE
8
BLACK
6
CONTINUOUS
10
0.603189
20
0.224685
11
0.664213
21
0.224685
0
LINE
8
BLACK
6
CONTINUOUS
10
0.664213
20
0.224685
11
0.667226
21
0.224086
0
LINE
8
BLACK
6
CONTINUOUS
10
0.879824
20
0.224086
11
0.882379
21
0.222379
0
LINE
8
BLACK
6
CONTINUOUS
10
0.882379
20
0.222379
11
0.884086
21
0.219824
0
LINE
8
BLACK
6
CONTINUOUS
10
0.884086
20
0.219824
11
0.884685
21
0.216811
0
LINE
8
BLACK
6
CONTINUOUS
10
0.884685
20
0.216811
11
0.884685
21
0.193189
0
LINE
8
BLACK
6
CONTINUOUS
10
0.884685
20
0.193189
11
0.884086
21
0.190176
0
LINE
8
BLACK
6
CONTINUOUS
10
0.884086
20
0.190176
11
0.882379
21
0.187621
0
LINE
8
BLACK
6
CONTINUOUS
10
0.882379
20
0.187621
11
0.879824
21
0.185914
0
LINE
8
BLACK
6
CONTINUOUS
10
0.879824
20
0.185914
11
0.876811
21
0.185315
0
LINE
8
BLACK
6
CONTINUOUS
10
0.876811
20
0.185315
11
0.815787
21
0.185315
0
LINE
8
BLACK
6
CONTINUOUS
10
0.815787
20
0.185315
11
0.812774
21
0.185914
0
LINE
8
BLACK
6
CONTINUOUS
10
0.812774
20
0.185914
11
0.81022
21
0.187621
0
LINE
8
BLACK
6
CONTINUOUS
10
0.81022
20
0.187621
11
0.808513
21
0.190176
0
LINE
8
BLACK
6
CONTINUOUS
10
0.808513
20
0.190176
11
0.807913
21
0.193189
0
LINE
8
BLACK
6
CONTINUOUS
10
0.807913
20
0.193189
11
0.807913
21
0.216811
0
LINE
8
BLACK
6
CONTINUOUS
10
0.807913
20
0.216811
11
0.808513
21
0.219824
0
LINE
8
BLACK
6
CONTINUOUS
10
0.808513
20
0.219824
11
0.81022
21
0.222379
0
LINE
8
BLACK
6
CONTINUOUS
10
0.81022
20
0.222379
11
0.812774
21
0.224086
0
LINE
8
BLACK
6
CONTINUOUS
10
0.812774
20
0.224086
11
0.815787
21
0.224685
0
LINE
8
BLACK
6
CONTINUOUS
10
0.815787
20
0.224685
11
0.876811
21
0.224685
0
LINE
8
BLACK
6
CONTINUOUS
10
0.876811
20
0.224685
11
0.879824
21
0.224086
0
LINE
8
BLACK
6
CONTINUOUS
10
1.05659
20
0.248301
11
1.06323
21
0.246676
0
LINE
8
BLACK
6
CONTINUOUS
10
1.06323
20
0.246676
11
1.06932
21
0.243566
0
LINE
8
BLACK
6
CONTINUOUS
10
1.06932
20
0.243566
11
1.07453
21
0.239138
0
LINE
8
BLACK
6
CONTINUOUS
10
1.07453
20
0.239138
11
1.07859
21
0.23363
0
LINE
8
BLACK
6
CONTINUOUS
10
1.07859
20
0.23363
11
1.08126
21
0.227337
0
LINE
8
BLACK
6
CONTINUOUS
10
1.08126
20
0.227337
11
1.08242
21
0.220597
0
LINE
8
BLACK
6
CONTINUOUS
10
1.08242
20
0.220597
11
1.082
21
0.213771
0
LINE
8
BLACK
6
CONTINUOUS
10
1.082
20
0.213771
11
1.08002
21
0.207226
0
LINE
8
BLACK
6
CONTINUOUS
10
1.08002
20
0.207226
11
1.07658
21
0.201312
0
LINE
8
BLACK
6
CONTINUOUS
10
1.07658
20
0.201312
11
1.07188
21
0.196347
0
LINE
8
BLACK
6
CONTINUOUS
10
1.07188
20
0.196347
11
1.06616
21
0.192598
0
LINE
8
BLACK
6
CONTINUOUS
10
1.06616
20
0.192598
11
1.05973
21
0.190264
0
LINE
8
BLACK
6
CONTINUOUS
10
1.05973
20
0.190264
11
1.05294
21
0.189472
0
LINE
8
BLACK
6
CONTINUOUS
10
1.05294
20
0.189472
11
1.04506
21
0.189472
0
LINE
8
BLACK
6
CONTINUOUS
10
1.04506
20
0.189472
11
1.04141
21
0.189699
0
LINE
8
BLACK
6
CONTINUOUS
10
1.04141
20
0.189699
11
1.03477
21
0.191324
0
LINE
8
BLACK
6
CONTINUOUS
10
1.03477
20
0.191324
11
1.02868
21
0.194434
0
LINE
8
BLACK
6
CONTINUOUS
10
1.02868
20
0.194434
11
1.02347
21
0.198862
0
LINE
8
BLACK
6
CONTINUOUS
10
1.02347
20
0.198862
11
1.01941
21
0.20437
0
LINE
8
BLACK
6
CONTINUOUS
10
1.01941
20
0.20437
11
1.01674
21
0.210663
0
LINE
8
BLACK
6
CONTINUOUS
10
1.01674
20
0.210663
11
1.01558
21
0.217403
0
LINE
8
BLACK
6
CONTINUOUS
10
1.01558
20
0.217403
11
1.016
21
0.224229
0
LINE
8
BLACK
6
CONTINUOUS
10
1.016
20
0.224229
11
1.01798
21
0.230774
0
LINE
8
BLACK
6
CONTINUOUS
10
1.01798
20
0.230774
11
1.02142
21
0.236688
0
LINE
8
BLACK
6
CONTINUOUS
10
1.02142
20
0.236688
11
1.02612
21
0.241653
0
LINE
8
BLACK
6
CONTINUOUS
10
1.02612
20
0.241653
11
1.03184
21
0.245402
0
LINE
8
BLACK
6
CONTINUOUS
10
1.03184
20
0.245402
11
1.03827
21
0.247736
0
LINE
8
BLACK
6
CONTINUOUS
10
1.03827
20
0.247736
11
1.04506
21
0.248528
0
LINE
8
BLACK
6
CONTINUOUS
10
1.04506
20
0.248528
11
1.05294
21
0.248528
0
LINE
8
BLACK
6
CONTINUOUS
10
1.05294
20
0.248528
11
1.05659
21
0.248301
0
LINE
8
BLACK
6
CONTINUOUS
10
0.667226
20
0.274086
11
0.66978
21
0.272379
0
LINE
8
BLACK
6
CONTINUOUS
10
0.66978
20
0.272379
11
0.671487
21
0.269824
0
LINE
8
BLACK
6
CONTINUOUS
10
0.671487
20
0.269824
11
0.672087
21
0.266811
0
LINE
8
BLACK
6
CONTINUOUS
10
0.672087
20
0.266811
11
0.672087
21
0.243189
0
LINE
8
BLACK
6
CONTINUOUS
10
0.672087
20
0.243189
11
0.671487
21
0.240176
0
LINE
8
BLACK
6
CONTINUOUS
10
0.671487
20
0.240176
11
0.66978
21
0.237621
0
LINE
8
BLACK
6
CONTINUOUS
10
0.66978
20
0.237621
11
0.667226
21
0.235914
0
LINE
8
BLACK
6
CONTINUOUS
10
0.667226
20
0.235914
11
0.664213
21
0.235315
0
LINE
8
BLACK
6
CONTINUOUS
10
0.664213
20
0.235315
11
0.603189
21
0.235315
0
LINE
8
BLACK
6
CONTINUOUS
10
0.603189
20
0.235315
11
0.600176
21
0.235914
0
LINE
8
BLACK
6
CONTINUOUS
10
0.600176
20
0.235914
11
0.597621
21
0.237621
0
LINE
8
BLACK
6
CONTINUOUS
10
0.597621
20
0.237621
11
0.595914
21
0.240176
0
LINE
8
BLACK
6
CONTINUOUS
10
0.595914
20
0.240176
11
0.595315
21
0.243189
0
LINE
8
BLACK
6
CONTINUOUS
10
0.595315
20
0.243189
11
0.595315
21
0.266811
0
LINE
8
BLACK
6
CONTINUOUS
10
0.595315
20
0.266811
11
0.595914
21
0.269824
0
LINE
8
BLACK
6
CONTINUOUS
10
0.595914
20
0.269824
11
0.597621
21
0.272379
0
LINE
8
BLACK
6
CONTINUOUS
10
0.597621
20
0.272379
11
0.600176
21
0.274086
0
LINE
8
BLACK
6
CONTINUOUS
10
0.600176
20
0.274086
11
0.603189
21
0.274685
0
LINE
8
BLACK
6
CONTINUOUS
10
0.603189
20
0.274685
11
0.664213
21
0.274685
0
LINE
8
BLACK
6
CONTINUOUS
10
0.664213
20
0.274685
11
0.667226
21
0.274086
0
LINE
8
BLACK
6
CONTINUOUS
10
0.879824
20
0.274086
11
0.882379
21
0.272379
0
LINE
8
BLACK
6
CONTINUOUS
10
0.882379
20
0.272379
11
0.884086
21
0.269824
0
LINE
8
BLACK
6
CONTINUOUS
10
0.884086
20
0.269824
11
0.884685
21
0.266811
0
LINE
8
BLACK
6
CONTINUOUS
10
0.884685
20
0.266811
11
0.884685
21
0.243189
0
LINE
8
BLACK
6
CONTINUOUS
10
0.884685
20
0.243189
11
0.884086
21
0.240176
0
LINE
8
BLACK
6
CONTINUOUS
10
0.884086
20
0.240176
11
0.882379
21
0.237621
0
LINE
8
BLACK
6
CONTINUOUS
10
0.882379
20
0.237621
11
0.879824
21
0.235914
0
LINE
8
BLACK
6
CONTINUOUS
10
0.879824
20
0.235914
11
0.876811
21
0.235315
0
LINE
8
BLACK
6
CONTINUOUS
10
0.876811
20
0.235315
11
0.815787
21
0.235315
0
LINE
8
BLACK
6
CONTINUOUS
10
0.815787
20
0.235315
11
0.812774
21
0.235914
0
LINE
8
BLACK
6
CONTINUOUS
10
0.812774
20
0.235914
11
0.81022
21
0.237621
0
LINE
8
BLACK
6
CONTINUOUS
10
0.81022
20
0.237621
11
0.808513
21
0.240176
0
LINE
8
BLACK
6
CONTINUOUS
10
0.808513
20
0.240176
11
0.807913
21
0.243189
0
LINE
8
BLACK
6
CONTINUOUS
10
0.807913
20
0.243189
11
0.807913
21
0.266811
0
LINE
8
BLACK
6
CONTINUOUS
10
0.807913
20
0.266811
11
0.808513
21
0.269824
0
LINE
8
BLACK
6
CONTINUOUS
10
0.808513
20
0.269824
11
0.81022
21
0.272379
0
LINE
8
BLACK
6
CONTINUOUS
10
0.81022
20
0.272379
11
0.812774
21
0.274086
0
LINE
8
BLACK
6
CONTINUOUS
10
0.812774
20
0.274086
11
0.815787
21
0.274685
0
LINE
8
BLACK
6
CONTINUOUS
10
0.815787
20
0.274685
11
0.876811
21
0.274685
0
LINE
8
BLACK
6
CONTINUOUS
10
0.876811
20
0.274685
11
0.879824
21
0.274086
0
LINE
8
BLACK
6
CONTINUOUS
10
1.11564
20
0.348301
11
1.12228
21
0.346676
0
LINE
8
BLACK
6
CONTINUOUS
10
1.12228
20
0.346676
11
1.12838
21
0.343566
0
LINE
8
BLACK
6
CONTINUOUS
10
1.12838
20
0.343566
11
1.13359
21
0.339138
0
LINE
8
BLACK
6
CONTINUOUS
10
1.13359
20
0.339138
11
1.13764
21
0.33363
0
LINE
8
BLACK
6
CONTINUOUS
10
1.13764
20
0.33363
11
1.14032
21
0.327337
0
LINE
8
BLACK
6
CONTINUOUS
10
1.14032
20
0.327337
11
1.14148
21
0.320597
0
LINE
8
BLACK
6
CONTINUOUS
10
1.14148
20
0.320597
11
1.14105
21
0.313771
0
LINE
8
BLACK
6
CONTINUOUS
10
1.14105
20
0.313771
11
1.13907
21
0.307226
0
LINE
8
BLACK
6
CONTINUOUS
10
1.13907
20
0.307226
11
1.13564
21
0.301312
0
LINE
8
BLACK
6
CONTINUOUS
10
1.13564
20
0.301312
11
1.13093
21
0.296347
0
LINE
8
BLACK
6
CONTINUOUS
10
1.13093
20
0.296347
11
1.12743
21
0.29405
0
LINE
8
BLACK
6
CONTINUOUS
10
1.12743
20
0.29405
11
1.12838
21
0.293566
0
LINE
8
BLACK
6
CONTINUOUS
10
1.12838
20
0.293566
11
1.13359
21
0.289138
0
LINE
8
BLACK
6
CONTINUOUS
10
1.13359
20
0.289138
11
1.13764
21
0.28363
0
LINE
8
BLACK
6
CONTINUOUS
10
1.13764
20
0.28363
11
1.14032
21
0.277337
0
LINE
8
BLACK
6
CONTINUOUS
10
1.14032
20
0.277337
11
1.14148
21
0.270597
0
LINE
8
BLACK
6
CONTINUOUS
10
1.14148
20
0.270597
11
1.14105
21
0.263771
0
LINE
8
BLACK
6
CONTINUOUS
10
1.14105
20
0.263771
11
1.13907
21
0.257226
0
LINE
8
BLACK
6
CONTINUOUS
10
1.13907
20
0.257226
11
1.13564
21
0.251312
0
LINE
8
BLACK
6
CONTINUOUS
10
1.13564
20
0.251312
11
1.13093
21
0.246347
0
LINE
8
BLACK
6
CONTINUOUS
10
1.13093
20
0.246347
11
1.12521
21
0.242598
0
LINE
8
BLACK
6
CONTINUOUS
10
1.12521
20
0.242598
11
1.11878
21
0.240264
0
LINE
8
BLACK
6
CONTINUOUS
10
1.11878
20
0.240264
11
1.11199
21
0.239472
0
LINE
8
BLACK
6
CONTINUOUS
10
1.11199
20
0.239472
11
1.10412
21
0.239472
0
LINE
8
BLACK
6
CONTINUOUS
10
1.10412
20
0.239472
11
1.10047
21
0.239699
0
LINE
8
BLACK
6
CONTINUOUS
10
1.10047
20
0.239699
11
1.09383
21
0.241324
0
LINE
8
BLACK
6
CONTINUOUS
10
1.09383
20
0.241324
11
1.08773
21
0.244434
0
LINE
8
BLACK
6
CONTINUOUS
10
1.08773
20
0.244434
11
1.08252
21
0.248862
0
LINE
8
BLACK
6
CONTINUOUS
10
1.08252
20
0.248862
11
1.07847
21
0.25437
0
LINE
8
BLACK
6
CONTINUOUS
10
1.07847
20
0.25437
11
1.07579
21
0.260663
0
LINE
8
BLACK
6
CONTINUOUS
10
1.07579
20
0.260663
11
1.07463
21
0.267403
0
LINE
8
BLACK
6
CONTINUOUS
10
1.07463
20
0.267403
11
1.07506
21
0.274229
0
LINE
8
BLACK
6
CONTINUOUS
10
1.07506
20
0.274229
11
1.07704
21
0.280774
0
LINE
8
BLACK
6
CONTINUOUS
10
1.07704
20
0.280774
11
1.08047
21
0.286688
0
LINE
8
BLACK
6
CONTINUOUS
10
1.08047
20
0.286688
11
1.08518
21
0.291653
0
LINE
8
BLACK
6
CONTINUOUS
10
1.08518
20
0.291653
11
1.08868
21
0.29395
0
LINE
8
BLACK
6
CONTINUOUS
10
1.08868
20
0.29395
11
1.08773
21
0.294434
0
LINE
8
BLACK
6
CONTINUOUS
10
1.08773
20
0.294434
11
1.08252
21
0.298862
0
LINE
8
BLACK
6
CONTINUOUS
10
1.08252
20
0.298862
11
1.07847
21
0.30437
0
LINE
8
BLACK
6
CONTINUOUS
10
1.07847
20
0.30437
11
1.07579
21
0.310663
0
LINE
8
BLACK
6
CONTINUOUS
10
1.07579
20
0.310663
11
1.07463
21
0.317403
0
LINE
8
BLACK
6
CONTINUOUS
10
1.07463
20
0.317403
11
1.07506
21
0.324229
0
LINE
8
BLACK
6
CONTINUOUS
10
1.07506
20
0.324229
11
1.07704
21
0.330774
0
LINE
8
BLACK
6
CONTINUOUS
10
1.07704
20
0.330774
11
1.08047
21
0.336688
0
LINE
8
BLACK
6
CONTINUOUS
10
1.08047
20
0.336688
11
1.08518
21
0.341653
0
LINE
8
BLACK
6
CONTINUOUS
10
1.08518
20
0.341653
11
1.0909
21
0.345402
0
LINE
8
BLACK
6
CONTINUOUS
10
1.0909
20
0.345402
11
1.09733
21
0.347736
0
LINE
8
BLACK
6
CONTINUOUS
10
1.09733
20
0.347736
11
1.10412
21
0.348528
0
LINE
8
BLACK
6
CONTINUOUS
10
1.10412
20
0.348528
11
1.11199
21
0.348528
0
LINE
8
BLACK
6
CONTINUOUS
10
1.11199
20
0.348528
11
1.11564
21
0.348301
0
LINE
8
BLACK
6
CONTINUOUS
10
0.978013
20
0.292275
11
0.980568
21
0.290568
0
LINE
8
BLACK
6
CONTINUOUS
10
0.980568
20
0.290568
11
0.982275
21
0.288013
0
LINE
8
BLACK
6
CONTINUOUS
10
0.982275
20
0.288013
11
0.982874
21
0.285
0
LINE
8
BLACK
6
CONTINUOUS
10
0.982874
20
0.285
11
0.982874
21
0.25
0
LINE
8
BLACK
6
CONTINUOUS
10
0.982874
20
0.25
11
0.982275
21
0.246987
0
LINE
8
BLACK
6
CONTINUOUS
10
0.982275
20
0.246987
11
0.980568
21
0.244432
0
LINE
8
BLACK
6
CONTINUOUS
10
0.980568
20
0.244432
11
0.978013
21
0.242725
0
LINE
8
BLACK
6
CONTINUOUS
10
0.978013
20
0.242725
11
0.975
21
0.242126
0
LINE
8
BLACK
6
CONTINUOUS
10
0.975
20
0.242126
11
0.92
21
0.242126
0
LINE
8
BLACK
6
CONTINUOUS
10
0.92
20
0.242126
11
0.916987
21
0.242725
0
LINE
8
BLACK
6
CONTINUOUS
10
0.916987
20
0.242725
11
0.914432
21
0.244432
0
LINE
8
BLACK
6
CONTINUOUS
10
0.914432
20
0.244432
11
0.912725
21
0.246987
0
LINE
8
BLACK
6
CONTINUOUS
10
0.912725
20
0.246987
11
0.912126
21
0.25
0
LINE
8
BLACK
6
CONTINUOUS
10
0.912126
20
0.25
11
0.912126
21
0.285
0
LINE
8
BLACK
6
CONTINUOUS
10
0.912126
20
0.285
11
0.912725
21
0.288013
0
LINE
8
BLACK
6
CONTINUOUS
10
0.912725
20
0.288013
11
0.914432
21
0.290568
0
LINE
8
BLACK
6
CONTINUOUS
10
0.914432
20
0.290568
11
0.916987
21
0.292275
0
LINE
8
BLACK
6
CONTINUOUS
10
0.916987
20
0.292275
11
0.92
21
0.292874
0
LINE
8
BLACK
6
CONTINUOUS
10
0.92
20
0.292874
11
0.975
21
0.292874
0
LINE
8
BLACK
6
CONTINUOUS
10
0.975
20
0.292874
11
0.978013
21
0.292275
0
LINE
8
BLACK
6
CONTINUOUS
10
0.563013
20
0.357275
11
0.565568
21
0.355568
0
LINE
8
BLACK
6
CONTINUOUS
10
0.565568
20
0.355568
11
0.567275
21
0.353013
0
LINE
8
BLACK
6
CONTINUOUS
10
0.567275
20
0.353013
11
0.567874
21
0.35
0
LINE
8
BLACK
6
CONTINUOUS
10
0.567874
20
0.35
11
0.567874
21
0.29
0
LINE
8
BLACK
6
CONTINUOUS
10
0.567874
20
0.29
11
0.567275
21
0.286987
0
LINE
8
BLACK
6
CONTINUOUS
10
0.567275
20
0.286987
11
0.565568
21
0.284432
0
LINE
8
BLACK
6
CONTINUOUS
10
0.565568
20
0.284432
11
0.563013
21
0.282725
0
LINE
8
BLACK
6
CONTINUOUS
10
0.563013
20
0.282725
11
0.56
21
0.282126
0
LINE
8
BLACK
6
CONTINUOUS
10
0.56
20
0.282126
11
0.5
21
0.282126
0
LINE
8
BLACK
6
CONTINUOUS
10
0.5
20
0.282126
11
0.496987
21
0.282725
0
LINE
8
BLACK
6
CONTINUOUS
10
0.496987
20
0.282725
11
0.494432
21
0.284432
0
LINE
8
BLACK
6
CONTINUOUS
10
0.494432
20
0.284432
11
0.492725
21
0.286987
0
LINE
8
BLACK
6
CONTINUOUS
10
0.492725
20
0.286987
11
0.492126
21
0.29
0
LINE
8
BLACK
6
CONTINUOUS
10
0.492126
20
0.29
11
0.492126
21
0.35
0
LINE
8
BLACK
6
CONTINUOUS
10
0.492126
20
0.35
11
0.492725
21
0.353013
0
LINE
8
BLACK
6
CONTINUOUS
10
0.492725
20
0.353013
11
0.494432
21
0.355568
0
LINE
8
BLACK
6
CONTINUOUS
10
0.494432
20
0.355568
11
0.496987
21
0.357275
0
LINE
8
BLACK
6
CONTINUOUS
10
0.496987
20
0.357275
11
0.5
21
0.357874
0
LINE
8
BLACK
6
CONTINUOUS
10
0.5
20
0.357874
11
0.56
21
0.357874
0
LINE
8
BLACK
6
CONTINUOUS
10
0.56
20
0.357874
11
0.563013
21
0.357275
0
LINE
8
BLACK
6
CONTINUOUS
10
0.463013
20
0.357275
11
0.465568
21
0.355568
0
LINE
8
BLACK
6
CONTINUOUS
10
0.465568
20
0.355568
11
0.467275
21
0.353013
0
LINE
8
BLACK
6
CONTINUOUS
10
0.467275
20
0.353013
11
0.467874
21
0.35
0
LINE
8
BLACK
6
CONTINUOUS
10
0.467874
20
0.35
11
0.467874
21
0.29
0
LINE
8
BLACK
6
CONTINUOUS
10
0.467874
20
0.29
11
0.467275
21
0.286987
0
LINE
8
BLACK
6
CONTINUOUS
10
0.467275
20
0.286987
11
0.465568
21
0.284432
0
LINE
8
BLACK
6
CONTINUOUS
10
0.465568
20
0.284432
11
0.463013
21
0.282725
0
LINE
8
BLACK
6
CONTINUOUS
10
0.463013
20
0.282725
11
0.46
21
0.282126
0
LINE
8
BLACK
6
CONTINUOUS
10
0.46
20
0.282126
11
0.4
21
0.282126
0
LINE
8
BLACK
6
CONTINUOUS
10
0.4
20
0.282126
11
0.396987
21
0.282725
0
LINE
8
BLACK
6
CONTINUOUS
10
0.396987
20
0.282725
11
0.394432
21
0.284432
0
LINE
8
BLACK
6
CONTINUOUS
10
0.394432
20
0.284432
11
0.392725
21
0.286987
0
LINE
8
BLACK
6
CONTINUOUS
10
0.392725
20
0.286987
11
0.392126
21
0.29
0
LINE
8
BLACK
6
CONTINUOUS
10
0.392126
20
0.29
11
0.392126
21
0.35
0
LINE
8
BLACK
6
CONTINUOUS
10
0.392126
20
0.35
11
0.392725
21
0.353013
0
LINE
8
BLACK
6
CONTINUOUS
10
0.392725
20
0.353013
11
0.394432
21
0.355568
0
LINE
8
BLACK
6
CONTINUOUS
10
0.394432
20
0.355568
11
0.396987
21
0.357275
0
LINE
8
BLACK
6
CONTINUOUS
10
0.396987
20
0.357275
11
0.4
21
0.357874
0
LINE
8
BLACK
6
CONTINUOUS
10
0.4
20
0.357874
11
0.46
21
0.357874
0
LINE
8
BLACK
6
CONTINUOUS
10
0.46
20
0.357874
11
0.463013
21
0.357275
0
LINE
8
BLACK
6
CONTINUOUS
10
0.879824
20
0.324086
11
0.882379
21
0.322379
0
LINE
8
BLACK
6
CONTINUOUS
10
0.882379
20
0.322379
11
0.884086
21
0.319824
0
LINE
8
BLACK
6
CONTINUOUS
10
0.884086
20
0.319824
11
0.884685
21
0.316811
0
LINE
8
BLACK
6
CONTINUOUS
10
0.884685
20
0.316811
11
0.884685
21
0.293189
0
LINE
8
BLACK
6
CONTINUOUS
10
0.884685
20
0.293189
11
0.884086
21
0.290176
0
LINE
8
BLACK
6
CONTINUOUS
10
0.884086
20
0.290176
11
0.882379
21
0.287621
0
LINE
8
BLACK
6
CONTINUOUS
10
0.882379
20
0.287621
11
0.879824
21
0.285914
0
LINE
8
BLACK
6
CONTINUOUS
10
0.879824
20
0.285914
11
0.876811
21
0.285315
0
LINE
8
BLACK
6
CONTINUOUS
10
0.876811
20
0.285315
11
0.815787
21
0.285315
0
LINE
8
BLACK
6
CONTINUOUS
10
0.815787
20
0.285315
11
0.812774
21
0.285914
0
LINE
8
BLACK
6
CONTINUOUS
10
0.812774
20
0.285914
11
0.81022
21
0.287621
0
LINE
8
BLACK
6
CONTINUOUS
10
0.81022
20
0.287621
11
0.808513
21
0.290176
0
LINE
8
BLACK
6
CONTINUOUS
10
0.808513
20
0.290176
11
0.807913
21
0.293189
0
LINE
8
BLACK
6
CONTINUOUS
10
0.807913
20
0.293189
11
0.807913
21
0.316811
0
LINE
8
BLACK
6
CONTINUOUS
10
0.807913
20
0.316811
11
0.808513
21
0.319824
0
LINE
8
BLACK
6
CONTINUOUS
10
0.808513
20
0.319824
11
0.81022
21
0.322379
0
LINE
8
BLACK
6
CONTINUOUS
10
0.81022
20
0.322379
11
0.812774
21
0.324086
0
LINE
8
BLACK
6
CONTINUOUS
10
0.812774
20
0.324086
11
0.815787
21
0.324685
0
LINE
8
BLACK
6
CONTINUOUS
10
0.815787
20
0.324685
11
0.876811
21
0.324685
0
LINE
8
BLACK
6
CONTINUOUS
10
0.876811
20
0.324685
11
0.879824
21
0.324086
0
LINE
8
BLACK
6
CONTINUOUS
10
0.667226
20
0.324086
11
0.66978
21
0.322379
0
LINE
8
BLACK
6
CONTINUOUS
10
0.66978
20
0.322379
11
0.671487
21
0.319824
0
LINE
8
BLACK
6
CONTINUOUS
10
0.671487
20
0.319824
11
0.672087
21
0.316811
0
LINE
8
BLACK
6
CONTINUOUS
10
0.672087
20
0.316811
11
0.672087
21
0.293189
0
LINE
8
BLACK
6
CONTINUOUS
10
0.672087
20
0.293189
11
0.671487
21
0.290176
0
LINE
8
BLACK
6
CONTINUOUS
10
0.671487
20
0.290176
11
0.66978
21
0.287621
0
LINE
8
BLACK
6
CONTINUOUS
10
0.66978
20
0.287621
11
0.667226
21
0.285914
0
LINE
8
BLACK
6
CONTINUOUS
10
0.667226
20
0.285914
11
0.664213
21
0.285315
0
LINE
8
BLACK
6
CONTINUOUS
10
0.664213
20
0.285315
11
0.603189
21
0.285315
0
LINE
8
BLACK
6
CONTINUOUS
10
0.603189
20
0.285315
11
0.600176
21
0.285914
0
LINE
8
BLACK
6
CONTINUOUS
10
0.600176
20
0.285914
11
0.597621
21
0.287621
0
LINE
8
BLACK
6
CONTINUOUS
10
0.597621
20
0.287621
11
0.595914
21
0.290176
0
LINE
8
BLACK
6
CONTINUOUS
10
0.595914
20
0.290176
11
0.595315
21
0.293189
0
LINE
8
BLACK
6
CONTINUOUS
10
0.595315
20
0.293189
11
0.595315
21
0.316811
0
LINE
8
BLACK
6
CONTINUOUS
10
0.595315
20
0.316811
11
0.595914
21
0.319824
0
LINE
8
BLACK
6
CONTINUOUS
10
0.595914
20
0.319824
11
0.597621
21
0.322379
0
LINE
8
BLACK
6
CONTINUOUS
10
0.597621
20
0.322379
11
0.600176
21
0.324086
0
LINE
8
BLACK
6
CONTINUOUS
10
0.600176
20
0.324086
11
0.603189
21
0.324685
0
LINE
8
BLACK
6
CONTINUOUS
10
0.603189
20
0.324685
11
0.664213
21
0.324685
0
LINE
8
BLACK
6
CONTINUOUS
10
0.664213
20
0.324685
11
0.667226
21
0.324086
0
LINE
8
BLACK
6
CONTINUOUS
10
0.978013
20
0.357275
11
0.980568
21
0.355568
0
LINE
8
BLACK
6
CONTINUOUS
10
0.980568
20
0.355568
11
0.982275
21
0.353013
0
LINE
8
BLACK
6
CONTINUOUS
10
0.982275
20
0.353013
11
0.982874
21
0.35
0
LINE
8
BLACK
6
CONTINUOUS
10
0.982874
20
0.35
11
0.982874
21
0.315
0
LINE
8
BLACK
6
CONTINUOUS
10
0.982874
20
0.315
11
0.982275
21
0.311987
0
LINE
8
BLACK
6
CONTINUOUS
10
0.982275
20
0.311987
11
0.980568
21
0.309432
0
LINE
8
BLACK
6
CONTINUOUS
10
0.980568
20
0.309432
11
0.978013
21
0.307725
0
LINE
8
BLACK
6
CONTINUOUS
10
0.978013
20
0.307725
11
0.975
21
0.307126
0
LINE
8
BLACK
6
CONTINUOUS
10
0.975
20
0.307126
11
0.92
21
0.307126
0
LINE
8
BLACK
6
CONTINUOUS
10
0.92
20
0.307126
11
0.916987
21
0.307725
0
LINE
8
BLACK
6
CONTINUOUS
10
0.916987
20
0.307725
11
0.914432
21
0.309432
0
LINE
8
BLACK
6
CONTINUOUS
10
0.914432
20
0.309432
11
0.912725
21
0.311987
0
LINE
8
BLACK
6
CONTINUOUS
10
0.912725
20
0.311987
11
0.912126
21
0.315
0
LINE
8
BLACK
6
CONTINUOUS
10
0.912126
20
0.315
11
0.912126
21
0.35
0
LINE
8
BLACK
6
CONTINUOUS
10
0.912126
20
0.35
11
0.912725
21
0.353013
0
LINE
8
BLACK
6
CONTINUOUS
10
0.912725
20
0.353013
11
0.914432
21
0.355568
0
LINE
8
BLACK
6
CONTINUOUS
10
0.914432
20
0.355568
11
0.916987
21
0.357275
0
LINE
8
BLACK
6
CONTINUOUS
10
0.916987
20
0.357275
11
0.92
21
0.357874
0
LINE
8
BLACK
6
CONTINUOUS
10
0.92
20
0.357874
11
0.975
21
0.357874
0
LINE
8
BLACK
6
CONTINUOUS
10
0.975
20
0.357874
11
0.978013
21
0.357275
0
LINE
8
BLACK
6
CONTINUOUS
10
0.879824
20
0.374086
11
0.882379
21
0.372379
0
LINE
8
BLACK
6
CONTINUOUS
10
0.882379
20
0.372379
11
0.884086
21
0.369824
0
LINE
8
BLACK
6
CONTINUOUS
10
0.884086
20
0.369824
11
0.884685
21
0.366811
0
LINE
8
BLACK
6
CONTINUOUS
10
0.884685
20
0.366811
11
0.884685
21
0.343189
0
LINE
8
BLACK
6
CONTINUOUS
10
0.884685
20
0.343189
11
0.884086
21
0.340176
0
LINE
8
BLACK
6
CONTINUOUS
10
0.884086
20
0.340176
11
0.882379
21
0.337621
0
LINE
8
BLACK
6
CONTINUOUS
10
0.882379
20
0.337621
11
0.879824
21
0.335914
0
LINE
8
BLACK
6
CONTINUOUS
10
0.879824
20
0.335914
11
0.876811
21
0.335315
0
LINE
8
BLACK
6
CONTINUOUS
10
0.876811
20
0.335315
11
0.815787
21
0.335315
0
LINE
8
BLACK
6
CONTINUOUS
10
0.815787
20
0.335315
11
0.812774
21
0.335914
0
LINE
8
BLACK
6
CONTINUOUS
10
0.812774
20
0.335914
11
0.81022
21
0.337621
0
LINE
8
BLACK
6
CONTINUOUS
10
0.81022
20
0.337621
11
0.808513
21
0.340176
0
LINE
8
BLACK
6
CONTINUOUS
10
0.808513
20
0.340176
11
0.807913
21
0.343189
0
LINE
8
BLACK
6
CONTINUOUS
10
0.807913
20
0.343189
11
0.807913
21
0.366811
0
LINE
8
BLACK
6
CONTINUOUS
10
0.807913
20
0.366811
11
0.808513
21
0.369824
0
LINE
8
BLACK
6
CONTINUOUS
10
0.808513
20
0.369824
11
0.81022
21
0.372379
0
LINE
8
BLACK
6
CONTINUOUS
10
0.81022
20
0.372379
11
0.812774
21
0.374086
0
LINE
8
BLACK
6
CONTINUOUS
10
0.812774
20
0.374086
11
0.815787
21
0.374685
0
LINE
8
BLACK
6
CONTINUOUS
10
0.815787
20
0.374685
11
0.876811
21
0.374685
0
LINE
8
BLACK
6
CONTINUOUS
10
0.876811
20
0.374685
11
0.879824
21
0.374086
0
LINE
8
BLACK
6
CONTINUOUS
10
0.667226
20
0.374086
11
0.66978
21
0.372379
0
LINE
8
BLACK
6
CONTINUOUS
10
0.66978
20
0.372379
11
0.671487
21
0.369824
0
LINE
8
BLACK
6
CONTINUOUS
10
0.671487
20
0.369824
11
0.672087
21
0.366811
0
LINE
8
BLACK
6
CONTINUOUS
10
0.672087
20
0.366811
11
0.672087
21
0.343189
0
LINE
8
BLACK
6
CONTINUOUS
10
0.672087
20
0.343189
11
0.671487
21
0.340176
0
LINE
8
BLACK
6
CONTINUOUS
10
0.671487
20
0.340176
11
0.66978
21
0.337621
0
LINE
8
BLACK
6
CONTINUOUS
10
0.66978
20
0.337621
11
0.667226
21
0.335914
0
LINE
8
BLACK
6
CONTINUOUS
10
0.667226
20
0.335914
11
0.664213
21
0.335315
0
LINE
8
BLACK
6
CONTINUOUS
10
0.664213
20
0.335315
11
0.603189
21
0.335315
0
LINE
8
BLACK
6
CONTINUOUS
10
0.603189
20
0.335315
11
0.600176
21
0.335914
0
LINE
8
BLACK
6
CONTINUOUS
10
0.600176
20
0.335914
11
0.597621
21
0.337621
0
LINE
8
BLACK
6
CONTINUOUS
10
0.597621
20
0.337621
11
0.595914
21
0.340176
0
LINE
8
BLACK
6
CONTINUOUS
10
0.595914
20
0.340176
11
0.595315
21
0.343189
0
LINE
8
BLACK
6
CONTINUOUS
10
0.595315
20
0.343189
11
0.595315
21
0.366811
0
LINE
8
BLACK
6
CONTINUOUS
10
0.595315
20
0.366811
11
0.595914
21
0.369824
0
LINE
8
BLACK
6
CONTINUOUS
10
0.595914
20
0.369824
11
0.597621
21
0.372379
0
LINE
8
BLACK
6
CONTINUOUS
10
0.597621
20
0.372379
11
0.600176
21
0.374086
0
LINE
8
BLACK
6
CONTINUOUS
10
0.600176
20
0.374086
11
0.603189
21
0.374685
0
LINE
8
BLACK
6
CONTINUOUS
10
0.603189
20
0.374685
11
0.664213
21
0.374685
0
LINE
8
BLACK
6
CONTINUOUS
10
0.664213
20
0.374685
11
0.667226
21
0.374086
0
LINE
8
BLACK
6
CONTINUOUS
10
1.05659
20
0.398301
11
1.06323
21
0.396676
0
LINE
8
BLACK
6
CONTINUOUS
10
1.06323
20
0.396676
11
1.06932
21
0.393566
0
LINE
8
BLACK
6
CONTINUOUS
10
1.06932
20
0.393566
11
1.07453
21
0.389138
0
LINE
8
BLACK
6
CONTINUOUS
10
1.07453
20
0.389138
11
1.07859
21
0.38363
0
LINE
8
BLACK
6
CONTINUOUS
10
1.07859
20
0.38363
11
1.08126
21
0.377337
0
LINE
8
BLACK
6
CONTINUOUS
10
1.08126
20
0.377337
11
1.08242
21
0.370597
0
LINE
8
BLACK
6
CONTINUOUS
10
1.08242
20
0.370597
11
1.082
21
0.363771
0
LINE
8
BLACK
6
CONTINUOUS
10
1.082
20
0.363771
11
1.08002
21
0.357226
0
LINE
8
BLACK
6
CONTINUOUS
10
1.08002
20
0.357226
11
1.07658
21
0.351312
0
LINE
8
BLACK
6
CONTINUOUS
10
1.07658
20
0.351312
11
1.07188
21
0.346347
0
LINE
8
BLACK
6
CONTINUOUS
10
1.07188
20
0.346347
11
1.06616
21
0.342598
0
LINE
8
BLACK
6
CONTINUOUS
10
1.06616
20
0.342598
11
1.05973
21
0.340264
0
LINE
8
BLACK
6
CONTINUOUS
10
1.05973
20
0.340264
11
1.05294
21
0.339472
0
LINE
8
BLACK
6
CONTINUOUS
10
1.05294
20
0.339472
11
1.04506
21
0.339472
0
LINE
8
BLACK
6
CONTINUOUS
10
1.04506
20
0.339472
11
1.04141
21
0.339699
0
LINE
8
BLACK
6
CONTINUOUS
10
1.04141
20
0.339699
11
1.03477
21
0.341324
0
LINE
8
BLACK
6
CONTINUOUS
10
1.03477
20
0.341324
11
1.02868
21
0.344434
0
LINE
8
BLACK
6
CONTINUOUS
10
1.02868
20
0.344434
11
1.02347
21
0.348862
0
LINE
8
BLACK
6
CONTINUOUS
10
1.02347
20
0.348862
11
1.01941
21
0.35437
0
LINE
8
BLACK
6
CONTINUOUS
10
1.01941
20
0.35437
11
1.01674
21
0.360663
0
LINE
8
BLACK
6
CONTINUOUS
10
1.01674
20
0.360663
11
1.01558
21
0.367403
0
LINE
8
BLACK
6
CONTINUOUS
10
1.01558
20
0.367403
11
1.016
21
0.374229
0
LINE
8
BLACK
6
CONTINUOUS
10
1.016
20
0.374229
11
1.01798
21
0.380774
0
LINE
8
BLACK
6
CONTINUOUS
10
1.01798
20
0.380774
11
1.02142
21
0.386688
0
LINE
8
BLACK
6
CONTINUOUS
10
1.02142
20
0.386688
11
1.02612
21
0.391653
0
LINE
8
BLACK
6
CONTINUOUS
10
1.02612
20
0.391653
11
1.03184
21
0.395402
0
LINE
8
BLACK
6
CONTINUOUS
10
1.03184
20
0.395402
11
1.03827
21
0.397736
0
LINE
8
BLACK
6
CONTINUOUS
10
1.03827
20
0.397736
11
1.04506
21
0.398528
0
LINE
8
BLACK
6
CONTINUOUS
10
1.04506
20
0.398528
11
1.05294
21
0.398528
0
LINE
8
BLACK
6
CONTINUOUS
10
1.05294
20
0.398528
11
1.05659
21
0.398301
0
LINE
8
BLACK
6
CONTINUOUS
10
0.978013
20
0.432275
11
0.980568
21
0.430568
0
LINE
8
BLACK
6
CONTINUOUS
10
0.980568
20
0.430568
11
0.982275
21
0.428013
0
LINE
8
BLACK
6
CONTINUOUS
10
0.982275
20
0.428013
11
0.982874
21
0.425
0
LINE
8
BLACK
6
CONTINUOUS
10
0.982874
20
0.425
11
0.982874
21
0.39
0
LINE
8
BLACK
6
CONTINUOUS
10
0.982874
20
0.39
11
0.982275
21
0.386987
0
LINE
8
BLACK
6
CONTINUOUS
10
0.982275
20
0.386987
11
0.980568
21
0.384432
0
LINE
8
BLACK
6
CONTINUOUS
10
0.980568
20
0.384432
11
0.978013
21
0.382725
0
LINE
8
BLACK
6
CONTINUOUS
10
0.978013
20
0.382725
11
0.975
21
0.382126
0
LINE
8
BLACK
6
CONTINUOUS
10
0.975
20
0.382126
11
0.92
21
0.382126
0
LINE
8
BLACK
6
CONTINUOUS
10
0.92
20
0.382126
11
0.916987
21
0.382725
0
LINE
8
BLACK
6
CONTINUOUS
10
0.916987
20
0.382725
11
0.914432
21
0.384432
0
LINE
8
BLACK
6
CONTINUOUS
10
0.914432
20
0.384432
11
0.912725
21
0.386987
0
LINE
8
BLACK
6
CONTINUOUS
10
0.912725
20
0.386987
11
0.912126
21
0.39
0
LINE
8
BLACK
6
CONTINUOUS
10
0.912126
20
0.39
11
0.912126
21
0.425
0
LINE
8
BLACK
6
CONTINUOUS
10
0.912126
20
0.425
11
0.912725
21
0.428013
0
LINE
8
BLACK
6
CONTINUOUS
10
0.912725
20
0.428013
11
0.914432
21
0.430568
0
LINE
8
BLACK
6
CONTINUOUS
10
0.914432
20
0.430568
11
0.916987
21
0.432275
0
LINE
8
BLACK
6
CONTINUOUS
10
0.916987
20
0.432275
11
0.92
21
0.432874
0
LINE
8
BLACK
6
CONTINUOUS
10
0.92
20
0.432874
11
0.975
21
0.432874
0
LINE
8
BLACK
6
CONTINUOUS
10
0.975
20
0.432874
11
0.978013
21
0.432275
0
LINE
8
BLACK
6
CONTINUOUS
10
1.11564
20
0.498301
11
1.12228
21
0.496676
0
LINE
8
BLACK
6
CONTINUOUS
10
1.12228
20
0.496676
11
1.12838
21
0.493566
0
LINE
8
BLACK
6
CONTINUOUS
10
1.12838
20
0.493566
11
1.13359
21
0.489138
0
LINE
8
BLACK
6
CONTINUOUS
10
1.13359
20
0.489138
11
1.13764
21
0.48363
0
LINE
8
BLACK
6
CONTINUOUS
10
1.13764
20
0.48363
11
1.14032
21
0.477337
0
LINE
8
BLACK
6
CONTINUOUS
10
1.14032
20
0.477337
11
1.14148
21
0.470597
0
LINE
8
BLACK
6
CONTINUOUS
10
1.14148
20
0.470597
11
1.14105
21
0.463771
0
LINE
8
BLACK
6
CONTINUOUS
10
1.14105
20
0.463771
11
1.13907
21
0.457226
0
LINE
8
BLACK
6
CONTINUOUS
10
1.13907
20
0.457226
11
1.13564
21
0.451312
0
LINE
8
BLACK
6
CONTINUOUS
10
1.13564
20
0.451312
11
1.13093
21
0.446347
0
LINE
8
BLACK
6
CONTINUOUS
10
1.13093
20
0.446347
11
1.12743
21
0.44405
0
LINE
8
BLACK
6
CONTINUOUS
10
1.12743
20
0.44405
11
1.12838
21
0.443566
0
LINE
8
BLACK
6
CONTINUOUS
10
1.12838
20
0.443566
11
1.13359
21
0.439138
0
LINE
8
BLACK
6
CONTINUOUS
10
1.13359
20
0.439138
11
1.13764
21
0.43363
0
LINE
8
BLACK
6
CONTINUOUS
10
1.13764
20
0.43363
11
1.14032
21
0.427337
0
LINE
8
BLACK
6
CONTINUOUS
10
1.14032
20
0.427337
11
1.14148
21
0.420597
0
LINE
8
BLACK
6
CONTINUOUS
10
1.14148
20
0.420597
11
1.14105
21
0.413771
0
LINE
8
BLACK
6
CONTINUOUS
10
1.14105
20
0.413771
11
1.13907
21
0.407226
0
LINE
8
BLACK
6
CONTINUOUS
10
1.13907
20
0.407226
11
1.13564
21
0.401312
0
LINE
8
BLACK
6
CONTINUOUS
10
1.13564
20
0.401312
11
1.13093
21
0.396347
0
LINE
8
BLACK
6
CONTINUOUS
10
1.13093
20
0.396347
11
1.12521
21
0.392598
0
LINE
8
BLACK
6
CONTINUOUS
10
1.12521
20
0.392598
11
1.11878
21
0.390264
0
LINE
8
BLACK
6
CONTINUOUS
10
1.11878
20
0.390264
11
1.11199
21
0.389472
0
LINE
8
BLACK
6
CONTINUOUS
10
1.11199
20
0.389472
11
1.10412
21
0.389472
0
LINE
8
BLACK
6
CONTINUOUS
10
1.10412
20
0.389472
11
1.10047
21
0.389699
0
LINE
8
BLACK
6
CONTINUOUS
10
1.10047
20
0.389699
11
1.09383
21
0.391324
0
LINE
8
BLACK
6
CONTINUOUS
10
1.09383
20
0.391324
11
1.08773
21
0.394434
0
LINE
8
BLACK
6
CONTINUOUS
10
1.08773
20
0.394434
11
1.08252
21
0.398862
0
LINE
8
BLACK
6
CONTINUOUS
10
1.08252
20
0.398862
11
1.07847
21
0.40437
0
LINE
8
BLACK
6
CONTINUOUS
10
1.07847
20
0.40437
11
1.07579
21
0.410663
0
LINE
8
BLACK
6
CONTINUOUS
10
1.07579
20
0.410663
11
1.07463
21
0.417403
0
LINE
8
BLACK
6
CONTINUOUS
10
1.07463
20
0.417403
11
1.07506
21
0.424229
0
LINE
8
BLACK
6
CONTINUOUS
10
1.07506
20
0.424229
11
1.07704
21
0.430774
0
LINE
8
BLACK
6
CONTINUOUS
10
1.07704
20
0.430774
11
1.08047
21
0.436688
0
LINE
8
BLACK
6
CONTINUOUS
10
1.08047
20
0.436688
11
1.08518
21
0.441653
0
LINE
8
BLACK
6
CONTINUOUS
10
1.08518
20
0.441653
11
1.08868
21
0.44395
0
LINE
8
BLACK
6
CONTINUOUS
10
1.08868
20
0.44395
11
1.08773
21
0.444434
0
LINE
8
BLACK
6
CONTINUOUS
10
1.08773
20
0.444434
11
1.08252
21
0.448862
0
LINE
8
BLACK
6
CONTINUOUS
10
1.08252
20
0.448862
11
1.07847
21
0.45437
0
LINE
8
BLACK
6
CONTINUOUS
10
1.07847
20
0.45437
11
1.07579
21
0.460663
0
LINE
8
BLACK
6
CONTINUOUS
10
1.07579
20
0.460663
11
1.07463
21
0.467403
0
LINE
8
BLACK
6
CONTINUOUS
10
1.07463
20
0.467403
11
1.07506
21
0.474229
0
LINE
8
BLACK
6
CONTINUOUS
10
1.07506
20
0.474229
11
1.07704
21
0.480774
0
LINE
8
BLACK
6
CONTINUOUS
10
1.07704
20
0.480774
11
1.08047
21
0.486688
0
LINE
8
BLACK
6
CONTINUOUS
10
1.08047
20
0.486688
11
1.08518
21
0.491653
0
LINE
8
BLACK
6
CONTINUOUS
10
1.08518
20
0.491653
11
1.0909
21
0.495402
0
LINE
8
BLACK
6
CONTINUOUS
10
1.0909
20
0.495402
11
1.09733
21
0.497736
0
LINE
8
BLACK
6
CONTINUOUS
10
1.09733
20
0.497736
11
1.10412
21
0.498528
0
LINE
8
BLACK
6
CONTINUOUS
10
1.10412
20
0.498528
11
1.11199
21
0.498528
0
LINE
8
BLACK
6
CONTINUOUS
10
1.11199
20
0.498528
11
1.11564
21
0.498301
0
LINE
8
BLACK
6
CONTINUOUS
10
0.730513
20
0.449775
11
0.733068
21
0.448068
0
LINE
8
BLACK
6
CONTINUOUS
10
0.733068
20
0.448068
11
0.734775
21
0.445513
0
LINE
8
BLACK
6
CONTINUOUS
10
0.734775
20
0.445513
11
0.735374
21
0.4425
0
LINE
8
BLACK
6
CONTINUOUS
10
0.735374
20
0.4425
11
0.735374
21
0.4075
0
LINE
8
BLACK
6
CONTINUOUS
10
0.735374
20
0.4075
11
0.734775
21
0.404487
0
LINE
8
BLACK
6
CONTINUOUS
10
0.734775
20
0.404487
11
0.733068
21
0.401932
0
LINE
8
BLACK
6
CONTINUOUS
10
0.733068
20
0.401932
11
0.730513
21
0.400225
0
LINE
8
BLACK
6
CONTINUOUS
10
0.730513
20
0.400225
11
0.7275
21
0.399626
0
LINE
8
BLACK
6
CONTINUOUS
10
0.7275
20
0.399626
11
0.6725
21
0.399626
0
LINE
8
BLACK
6
CONTINUOUS
10
0.6725
20
0.399626
11
0.669487
21
0.400225
0
LINE
8
BLACK
6
CONTINUOUS
10
0.669487
20
0.400225
11
0.666932
21
0.401932
0
LINE
8
BLACK
6
CONTINUOUS
10
0.666932
20
0.401932
11
0.665225
21
0.404487
0
LINE
8
BLACK
6
CONTINUOUS
10
0.665225
20
0.404487
11
0.664626
21
0.4075
0
LINE
8
BLACK
6
CONTINUOUS
10
0.664626
20
0.4075
11
0.664626
21
0.4425
0
LINE
8
BLACK
6
CONTINUOUS
10
0.664626
20
0.4425
11
0.665225
21
0.445513
0
LINE
8
BLACK
6
CONTINUOUS
10
0.665225
20
0.445513
11
0.666932
21
0.448068
0
LINE
8
BLACK
6
CONTINUOUS
10
0.666932
20
0.448068
11
0.669487
21
0.449775
0
LINE
8
BLACK
6
CONTINUOUS
10
0.669487
20
0.449775
11
0.6725
21
0.450374
0
LINE
8
BLACK
6
CONTINUOUS
10
0.6725
20
0.450374
11
0.7275
21
0.450374
0
LINE
8
BLACK
6
CONTINUOUS
10
0.7275
20
0.450374
11
0.730513
21
0.449775
0
LINE
8
BLACK
6
CONTINUOUS
10
0.820513
20
0.449775
11
0.823068
21
0.448068
0
LINE
8
BLACK
6
CONTINUOUS
10
0.823068
20
0.448068
11
0.824775
21
0.445513
0
LINE
8
BLACK
6
CONTINUOUS
10
0.824775
20
0.445513
11
0.825374
21
0.4425
0
LINE
8
BLACK
6
CONTINUOUS
10
0.825374
20
0.4425
11
0.825374
21
0.4075
0
LINE
8
BLACK
6
CONTINUOUS
10
0.825374
20
0.4075
11
0.824775
21
0.404487
0
LINE
8
BLACK
6
CONTINUOUS
10
0.824775
20
0.404487
11
0.823068
21
0.401932
0
LINE
8
BLACK
6
CONTINUOUS
10
0.823068
20
0.401932
11
0.820513
21
0.400225
0
LINE
8
BLACK
6
CONTINUOUS
10
0.820513
20
0.400225
11
0.8175
21
0.399626
0
LINE
8
BLACK
6
CONTINUOUS
10
0.8175
20
0.399626
11
0.7625
21
0.399626
0
LINE
8
BLACK
6
CONTINUOUS
10
0.7625
20
0.399626
11
0.759487
21
0.400225
0
LINE
8
BLACK
6
CONTINUOUS
10
0.759487
20
0.400225
11
0.756932
21
0.401932
0
LINE
8
BLACK
6
CONTINUOUS
10
0.756932
20
0.401932
11
0.755225
21
0.404487
0
LINE
8
BLACK
6
CONTINUOUS
10
0.755225
20
0.404487
11
0.754626
21
0.4075
0
LINE
8
BLACK
6
CONTINUOUS
10
0.754626
20
0.4075
11
0.754626
21
0.4425
0
LINE
8
BLACK
6
CONTINUOUS
10
0.754626
20
0.4425
11
0.755225
21
0.445513
0
LINE
8
BLACK
6
CONTINUOUS
10
0.755225
20
0.445513
11
0.756932
21
0.448068
0
LINE
8
BLACK
6
CONTINUOUS
10
0.756932
20
0.448068
11
0.759487
21
0.449775
0
LINE
8
BLACK
6
CONTINUOUS
10
0.759487
20
0.449775
11
0.7625
21
0.450374
0
LINE
8
BLACK
6
CONTINUOUS
10
0.7625
20
0.450374
11
0.8175
21
0.450374
0
LINE
8
BLACK
6
CONTINUOUS
10
0.8175
20
0.450374
11
0.820513
21
0.449775
0
LINE
8
BLACK
6
CONTINUOUS
10
0.410809
20
0.500739
11
0.413363
21
0.499032
0
LINE
8
BLACK
6
CONTINUOUS
10
0.413363
20
0.499032
11
0.41507
21
0.496478
0
LINE
8
BLACK
6
CONTINUOUS
10
0.41507
20
0.496478
11
0.415669
21
0.493465
0
LINE
8
BLACK
6
CONTINUOUS
10
0.415669
20
0.493465
11
0.415669
21
0.426535
0
LINE
8
BLACK
6
CONTINUOUS
10
0.415669
20
0.426535
11
0.41507
21
0.423522
0
LINE
8
BLACK
6
CONTINUOUS
10
0.41507
20
0.423522
11
0.413363
21
0.420968
0
LINE
8
BLACK
6
CONTINUOUS
10
0.413363
20
0.420968
11
0.410809
21
0.419261
0
LINE
8
BLACK
6
CONTINUOUS
10
0.410809
20
0.419261
11
0.407795
21
0.418661
0
LINE
8
BLACK
6
CONTINUOUS
10
0.407795
20
0.418661
11
0.356614
21
0.418661
0
LINE
8
BLACK
6
CONTINUOUS
10
0.356614
20
0.418661
11
0.353601
21
0.419261
0
LINE
8
BLACK
6
CONTINUOUS
10
0.353601
20
0.419261
11
0.351046
21
0.420968
0
LINE
8
BLACK
6
CONTINUOUS
10
0.351046
20
0.420968
11
0.34934
21
0.423522
0
LINE
8
BLACK
6
CONTINUOUS
10
0.34934
20
0.423522
11
0.34874
21
0.426535
0
LINE
8
BLACK
6
CONTINUOUS
10
0.34874
20
0.426535
11
0.34874
21
0.493465
0
LINE
8
BLACK
6
CONTINUOUS
10
0.34874
20
0.493465
11
0.34934
21
0.496478
0
LINE
8
BLACK
6
CONTINUOUS
10
0.34934
20
0.496478
11
0.351046
21
0.499032
0
LINE
8
BLACK
6
CONTINUOUS
10
0.351046
20
0.499032
11
0.353601
21
0.500739
0
LINE
8
BLACK
6
CONTINUOUS
10
0.353601
20
0.500739
11
0.356614
21
0.501339
0
LINE
8
BLACK
6
CONTINUOUS
10
0.356614
20
0.501339
11
0.407795
21
0.501339
0
LINE
8
BLACK
6
CONTINUOUS
10
0.407795
20
0.501339
11
0.410809
21
0.500739
0
LINE
8
BLACK
6
CONTINUOUS
10
0.548604
20
0.500739
11
0.551158
21
0.499032
0
LINE
8
BLACK
6
CONTINUOUS
10
0.551158
20
0.499032
11
0.552865
21
0.496478
0
LINE
8
BLACK
6
CONTINUOUS
10
0.552865
20
0.496478
11
0.553465
21
0.493465
0
LINE
8
BLACK
6
CONTINUOUS
10
0.553465
20
0.493465
11
0.553465
21
0.426535
0
LINE
8
BLACK
6
CONTINUOUS
10
0.553465
20
0.426535
11
0.552865
21
0.423522
0
LINE
8
BLACK
6
CONTINUOUS
10
0.552865
20
0.423522
11
0.551158
21
0.420968
0
LINE
8
BLACK
6
CONTINUOUS
10
0.551158
20
0.420968
11
0.548604
21
0.419261
0
LINE
8
BLACK
6
CONTINUOUS
10
0.548604
20
0.419261
11
0.545591
21
0.418661
0
LINE
8
BLACK
6
CONTINUOUS
10
0.545591
20
0.418661
11
0.494409
21
0.418661
0
LINE
8
BLACK
6
CONTINUOUS
10
0.494409
20
0.418661
11
0.491396
21
0.419261
0
LINE
8
BLACK
6
CONTINUOUS
10
0.491396
20
0.419261
11
0.488842
21
0.420968
0
LINE
8
BLACK
6
CONTINUOUS
10
0.488842
20
0.420968
11
0.487135
21
0.423522
0
LINE
8
BLACK
6
CONTINUOUS
10
0.487135
20
0.423522
11
0.486535
21
0.426535
0
LINE
8
BLACK
6
CONTINUOUS
10
0.486535
20
0.426535
11
0.486535
21
0.493465
0
LINE
8
BLACK
6
CONTINUOUS
10
0.486535
20
0.493465
11
0.487135
21
0.496478
0
LINE
8
BLACK
6
CONTINUOUS
10
0.487135
20
0.496478
11
0.488842
21
0.499032
0
LINE
8
BLACK
6
CONTINUOUS
10
0.488842
20
0.499032
11
0.491396
21
0.500739
0
LINE
8
BLACK
6
CONTINUOUS
10
0.491396
20
0.500739
11
0.494409
21
0.501339
0
LINE
8
BLACK
6
CONTINUOUS
10
0.494409
20
0.501339
11
0.545591
21
0.501339
0
LINE
8
BLACK
6
CONTINUOUS
10
0.545591
20
0.501339
11
0.548604
21
0.500739
0
LINE
8
BLACK
6
CONTINUOUS
10
0.214917
20
0.725098
11
0.228769
21
0.722656
0
LINE
8
BLACK
6
CONTINUOUS
10
0.228769
20
0.722656
11
0.242262
21
0.718684
0
LINE
8
BLACK
6
CONTINUOUS
10
0.242262
20
0.718684
11
0.255228
21
0.713234
0
LINE
8
BLACK
6
CONTINUOUS
10
0.255228
20
0.713234
11
0.267506
21
0.706372
0
LINE
8
BLACK
6
CONTINUOUS
10
0.267506
20
0.706372
11
0.278942
21
0.698184
0
LINE
8
BLACK
6
CONTINUOUS
10
0.278942
20
0.698184
11
0.289395
21
0.688773
0
LINE
8
BLACK
6
CONTINUOUS
10
0.289395
20
0.688773
11
0.298733
21
0.678255
0
LINE
8
BLACK
6
CONTINUOUS
10
0.298733
20
0.678255
11
0.306841
21
0.666761
0
LINE
8
BLACK
6
CONTINUOUS
10
0.306841
20
0.666761
11
0.313617
21
0.654436
0
LINE
8
BLACK
6
CONTINUOUS
10
0.313617
20
0.654436
11
0.318977
21
0.641432
0
LINE
8
BLACK
6
CONTINUOUS
10
0.318977
20
0.641432
11
0.322853
21
0.627912
0
LINE
8
BLACK
6
CONTINUOUS
10
0.322853
20
0.627912
11
0.325199
21
0.614043
0
LINE
8
BLACK
6
CONTINUOUS
10
0.325199
20
0.614043
11
0.325984
21
0.6
0
LINE
8
BLACK
6
CONTINUOUS
10
0.325984
20
0.6
11
0.325935
21
0.596482
0
LINE
8
BLACK
6
CONTINUOUS
10
0.325935
20
0.596482
11
0.324758
21
0.582466
0
LINE
8
BLACK
6
CONTINUOUS
10
0.324758
20
0.582466
11
0.322026
21
0.568669
0
LINE
8
BLACK
6
CONTINUOUS
10
0.322026
20
0.568669
11
0.317773
21
0.555262
0
LINE
8
BLACK
6
CONTINUOUS
10
0.317773
20
0.555262
11
0.312052
21
0.542413
0
LINE
8
BLACK
6
CONTINUOUS
10
0.312052
20
0.542413
11
0.304935
21
0.530281
0
LINE
8
BLACK
6
CONTINUOUS
10
0.304935
20
0.530281
11
0.29651
21
0.519019
0
LINE
8
BLACK
6
CONTINUOUS
10
0.29651
20
0.519019
11
0.286881
21
0.508766
0
LINE
8
BLACK
6
CONTINUOUS
10
0.286881
20
0.508766
11
0.27617
21
0.49965
0
LINE
8
BLACK
6
CONTINUOUS
10
0.27617
20
0.49965
11
0.264509
21
0.491785
0
LINE
8
BLACK
6
CONTINUOUS
10
0.264509
20
0.491785
11
0.252045
21
0.485268
0
LINE
8
BLACK
6
CONTINUOUS
10
0.252045
20
0.485268
11
0.238931
21
0.480182
0
LINE
8
BLACK
6
CONTINUOUS
10
0.238931
20
0.480182
11
0.225333
21
0.476589
0
LINE
8
BLACK
6
CONTINUOUS
10
0.225333
20
0.476589
11
0.211418
21
0.474534
0
LINE
8
BLACK
6
CONTINUOUS
10
0.211418
20
0.474534
11
0.197362
21
0.474043
0
LINE
8
BLACK
6
CONTINUOUS
10
0.197362
20
0.474043
11
0.183338
21
0.475122
0
LINE
8
BLACK
6
CONTINUOUS
10
0.183338
20
0.475122
11
0.169522
21
0.477758
0
LINE
8
BLACK
6
CONTINUOUS
10
0.169522
20
0.477758
11
0.156085
21
0.481917
0
LINE
8
BLACK
6
CONTINUOUS
10
0.156085
20
0.481917
11
0.143197
21
0.487548
0
LINE
8
BLACK
6
CONTINUOUS
10
0.143197
20
0.487548
11
0.131016
21
0.494581
0
LINE
8
BLACK
6
CONTINUOUS
10
0.131016
20
0.494581
11
0.119695
21
0.502927
0
LINE
8
BLACK
6
CONTINUOUS
10
0.119695
20
0.502927
11
0.109375
21
0.512484
0
LINE
8
BLACK
6
CONTINUOUS
10
0.109375
20
0.512484
11
0.100184
21
0.523131
0
LINE
8
BLACK
6
CONTINUOUS
10
0.100184
20
0.523131
11
0.0922376
21
0.534737
0
LINE
8
BLACK
6
CONTINUOUS
10
0.0922376
20
0.534737
11
0.0856343
21
0.547156
0
LINE
8
BLACK
6
CONTINUOUS
10
0.0856343
20
0.547156
11
0.0804566
21
0.560233
0
LINE
8
BLACK
6
CONTINUOUS
10
0.0804566
20
0.560233
11
0.0767688
21
0.573806
0
LINE
8
BLACK
6
CONTINUOUS
10
0.0767688
20
0.573806
11
0.074617
21
0.587706
0
LINE
8
BLACK
6
CONTINUOUS
10
0.074617
20
0.587706
11
0.074028
21
0.601759
0
LINE
8
BLACK
6
CONTINUOUS
10
0.074028
20
0.601759
11
0.0750092
21
0.61579
0
LINE
8
BLACK
6
CONTINUOUS
10
0.0750092
20
0.61579
11
0.0775482
21
0.629624
0
LINE
8
BLACK
6
CONTINUOUS
10
0.0775482
20
0.629624
11
0.0816135
21
0.643089
0
LINE
8
BLACK
6
CONTINUOUS
10
0.0816135
20
0.643089
11
0.0871544
21
0.656017
0
LINE
8
BLACK
6
CONTINUOUS
10
0.0871544
20
0.656017
11
0.0941019
21
0.668247
0
LINE
8
BLACK
6
CONTINUOUS
10
0.0941019
20
0.668247
11
0.102369
21
0.679626
0
LINE
8
BLACK
6
CONTINUOUS
10
0.102369
20
0.679626
11
0.111853
21
0.690012
0
LINE
8
BLACK
6
CONTINUOUS
10
0.111853
20
0.690012
11
0.122436
21
0.699277
0
LINE
8
BLACK
6
CONTINUOUS
10
0.122436
20
0.699277
11
0.133986
21
0.707304
0
LINE
8
BLACK
6
CONTINUOUS
10
0.133986
20
0.707304
11
0.146359
21
0.713994
0
LINE
8
BLACK
6
CONTINUOUS
10
0.146359
20
0.713994
11
0.1594
21
0.719263
0
LINE
8
BLACK
6
CONTINUOUS
10
0.1594
20
0.719263
11
0.172947
21
0.723045
0
LINE
8
BLACK
6
CONTINUOUS
10
0.172947
20
0.723045
11
0.186831
21
0.725294
0
LINE
8
BLACK
6
CONTINUOUS
10
0.186831
20
0.725294
11
0.20088
21
0.725981
0
LINE
8
BLACK
6
CONTINUOUS
10
0.20088
20
0.725981
11
0.214917
21
0.725098
0
LINE
8
BLACK
6
CONTINUOUS
10
1.41492
20
0.725098
11
1.42877
21
0.722656
0
LINE
8
BLACK
6
CONTINUOUS
10
1.42877
20
0.722656
11
1.44226
21
0.718684
0
LINE
8
BLACK
6
CONTINUOUS
10
1.44226
20
0.718684
11
1.45523
21
0.713234
0
LINE
8
BLACK
6
CONTINUOUS
10
1.45523
20
0.713234
11
1.46751
21
0.706372
0
LINE
8
BLACK
6
CONTINUOUS
10
1.46751
20
0.706372
11
1.47894
21
0.698184
0
LINE
8
BLACK
6
CONTINUOUS
10
1.47894
20
0.698184
11
1.48939
21
0.688773
0
LINE
8
BLACK
6
CONTINUOUS
10
1.48939
20
0.688773
11
1.49873
21
0.678255
0
LINE
8
BLACK
6
CONTINUOUS
10
1.49873
20
0.678255
11
1.50684
21
0.666761
0
LINE
8
BLACK
6
CONTINUOUS
10
1.50684
20
0.666761
11
1.51362
21
0.654436
0
LINE
8
BLACK
6
CONTINUOUS
10
1.51362
20
0.654436
11
1.51898
21
0.641432
0
LINE
8
BLACK
6
CONTINUOUS
10
1.51898
20
0.641432
11
1.52285
21
0.627912
0
LINE
8
BLACK
6
CONTINUOUS
10
1.52285
20
0.627912
11
1.5252
21
0.614043
0
LINE
8
BLACK
6
CONTINUOUS
10
1.5252
20
0.614043
11
1.52598
21
0.6
0
LINE
8
BLACK
6
CONTINUOUS
10
1.52598
20
0.6
11
1.52594
21
0.596482
0
LINE
8
BLACK
6
CONTINUOUS
10
1.52594
20
0.596482
11
1.52476
21
0.582466
0
LINE
8
BLACK
6
CONTINUOUS
10
1.52476
20
0.582466
11
1.52203
21
0.568669
0
LINE
8
BLACK
6
CONTINUOUS
10
1.52203
20
0.568669
11
1.51777
21
0.555262
0
LINE
8
BLACK
6
CONTINUOUS
10
1.51777
20
0.555262
11
1.51205
21
0.542413
0
LINE
8
BLACK
6
CONTINUOUS
10
1.51205
20
0.542413
11
1.50493
21
0.530281
0
LINE
8
BLACK
6
CONTINUOUS
10
1.50493
20
0.530281
11
1.49651
21
0.519019
0
LINE
8
BLACK
6
CONTINUOUS
10
1.49651
20
0.519019
11
1.48688
21
0.508766
0
LINE
8
BLACK
6
CONTINUOUS
10
1.48688
20
0.508766
11
1.47617
21
0.49965
0
LINE
8
BLACK
6
CONTINUOUS
10
1.47617
20
0.49965
11
1.46451
21
0.491785
0
LINE
8
BLACK
6
CONTINUOUS
10
1.46451
20
0.491785
11
1.45204
21
0.485268
0
LINE
8
BLACK
6
CONTINUOUS
10
1.45204
20
0.485268
11
1.43893
21
0.480182
0
LINE
8
BLACK
6
CONTINUOUS
10
1.43893
20
0.480182
11
1.42533
21
0.476589
0
LINE
8
BLACK
6
CONTINUOUS
10
1.42533
20
0.476589
11
1.41142
21
0.474534
0
LINE
8
BLACK
6
CONTINUOUS
10
1.41142
20
0.474534
11
1.39736
21
0.474043
0
LINE
8
BLACK
6
CONTINUOUS
10
1.39736
20
0.474043
11
1.38334
21
0.475122
0
LINE
8
BLACK
6
CONTINUOUS
10
1.38334
20
0.475122
11
1.36952
21
0.477758
0
LINE
8
BLACK
6
CONTINUOUS
10
1.36952
20
0.477758
11
1.35609
21
0.481917
0
LINE
8
BLACK
6
CONTINUOUS
10
1.35609
20
0.481917
11
1.3432
21
0.487548
0
LINE
8
BLACK
6
CONTINUOUS
10
1.3432
20
0.487548
11
1.33102
21
0.494581
0
LINE
8
BLACK
6
CONTINUOUS
10
1.33102
20
0.494581
11
1.31969
21
0.502927
0
LINE
8
BLACK
6
CONTINUOUS
10
1.31969
20
0.502927
11
1.30937
21
0.512484
0
LINE
8
BLACK
6
CONTINUOUS
10
1.30937
20
0.512484
11
1.30018
21
0.523131
0
LINE
8
BLACK
6
CONTINUOUS
10
1.30018
20
0.523131
11
1.29224
21
0.534737
0
LINE
8
BLACK
6
CONTINUOUS
10
1.29224
20
0.534737
11
1.28563
21
0.547156
0
LINE
8
BLACK
6
CONTINUOUS
10
1.28563
20
0.547156
11
1.28046
21
0.560233
0
LINE
8
BLACK
6
CONTINUOUS
10
1.28046
20
0.560233
11
1.27677
21
0.573806
0
LINE
8
BLACK
6
CONTINUOUS
10
1.27677
20
0.573806
11
1.27462
21
0.587706
0
LINE
8
BLACK
6
CONTINUOUS
10
1.27462
20
0.587706
11
1.27403
21
0.601759
0
LINE
8
BLACK
6
CONTINUOUS
10
1.27403
20
0.601759
11
1.27501
21
0.61579
0
LINE
8
BLACK
6
CONTINUOUS
10
1.27501
20
0.61579
11
1.27755
21
0.629624
0
LINE
8
BLACK
6
CONTINUOUS
10
1.27755
20
0.629624
11
1.28161
21
0.643089
0
LINE
8
BLACK
6
CONTINUOUS
10
1.28161
20
0.643089
11
1.28715
21
0.656017
0
LINE
8
BLACK
6
CONTINUOUS
10
1.28715
20
0.656017
11
1.2941
21
0.668247
0
LINE
8
BLACK
6
CONTINUOUS
10
1.2941
20
0.668247
11
1.30237
21
0.679626
0
LINE
8
BLACK
6
CONTINUOUS
10
1.30237
20
0.679626
11
1.31185
21
0.690012
0
LINE
8
BLACK
6
CONTINUOUS
10
1.31185
20
0.690012
11
1.32244
21
0.699277
0
LINE
8
BLACK
6
CONTINUOUS
10
1.32244
20
0.699277
11
1.33399
21
0.707304
0
LINE
8
BLACK
6
CONTINUOUS
10
1.33399
20
0.707304
11
1.34636
21
0.713994
0
LINE
8
BLACK
6
CONTINUOUS
10
1.34636
20
0.713994
11
1.3594
21
0.719263
0
LINE
8
BLACK
6
CONTINUOUS
10
1.3594
20
0.719263
11
1.37295
21
0.723045
0
LINE
8
BLACK
6
CONTINUOUS
10
1.37295
20
0.723045
11
1.38683
21
0.725294
0
LINE
8
BLACK
6
CONTINUOUS
10
1.38683
20
0.725294
11
1.40088
21
0.725981
0
LINE
8
BLACK
6
CONTINUOUS
10
1.40088
20
0.725981
11
1.41492
21
0.725098
0
LINE
8
BLACK
6
CONTINUOUS
10
0.820513
20
0.524775
11
0.823068
21
0.523068
0
LINE
8
BLACK
6
CONTINUOUS
10
0.823068
20
0.523068
11
0.824775
21
0.520513
0
LINE
8
BLACK
6
CONTINUOUS
10
0.824775
20
0.520513
11
0.825374
21
0.5175
0
LINE
8
BLACK
6
CONTINUOUS
10
0.825374
20
0.5175
11
0.825374
21
0.4825
0
LINE
8
BLACK
6
CONTINUOUS
10
0.825374
20
0.4825
11
0.824775
21
0.479487
0
LINE
8
BLACK
6
CONTINUOUS
10
0.824775
20
0.479487
11
0.823068
21
0.476932
0
LINE
8
BLACK
6
CONTINUOUS
10
0.823068
20
0.476932
11
0.820513
21
0.475225
0
LINE
8
BLACK
6
CONTINUOUS
10
0.820513
20
0.475225
11
0.8175
21
0.474626
0
LINE
8
BLACK
6
CONTINUOUS
10
0.8175
20
0.474626
11
0.7625
21
0.474626
0
LINE
8
BLACK
6
CONTINUOUS
10
0.7625
20
0.474626
11
0.759487
21
0.475225
0
LINE
8
BLACK
6
CONTINUOUS
10
0.759487
20
0.475225
11
0.756932
21
0.476932
0
LINE
8
BLACK
6
CONTINUOUS
10
0.756932
20
0.476932
11
0.755225
21
0.479487
0
LINE
8
BLACK
6
CONTINUOUS
10
0.755225
20
0.479487
11
0.754626
21
0.4825
0
LINE
8
BLACK
6
CONTINUOUS
10
0.754626
20
0.4825
11
0.754626
21
0.5175
0
LINE
8
BLACK
6
CONTINUOUS
10
0.754626
20
0.5175
11
0.755225
21
0.520513
0
LINE
8
BLACK
6
CONTINUOUS
10
0.755225
20
0.520513
11
0.756932
21
0.523068
0
LINE
8
BLACK
6
CONTINUOUS
10
0.756932
20
0.523068
11
0.759487
21
0.524775
0
LINE
8
BLACK
6
CONTINUOUS
10
0.759487
20
0.524775
11
0.7625
21
0.525374
0
LINE
8
BLACK
6
CONTINUOUS
10
0.7625
20
0.525374
11
0.8175
21
0.525374
0
LINE
8
BLACK
6
CONTINUOUS
10
0.8175
20
0.525374
11
0.820513
21
0.524775
0
LINE
8
BLACK
6
CONTINUOUS
10
0.730513
20
0.524775
11
0.733068
21
0.523068
0
LINE
8
BLACK
6
CONTINUOUS
10
0.733068
20
0.523068
11
0.734775
21
0.520513
0
LINE
8
BLACK
6
CONTINUOUS
10
0.734775
20
0.520513
11
0.735374
21
0.5175
0
LINE
8
BLACK
6
CONTINUOUS
10
0.735374
20
0.5175
11
0.735374
21
0.4825
0
LINE
8
BLACK
6
CONTINUOUS
10
0.735374
20
0.4825
11
0.734775
21
0.479487
0
LINE
8
BLACK
6
CONTINUOUS
10
0.734775
20
0.479487
11
0.733068
21
0.476932
0
LINE
8
BLACK
6
CONTINUOUS
10
0.733068
20
0.476932
11
0.730513
21
0.475225
0
LINE
8
BLACK
6
CONTINUOUS
10
0.730513
20
0.475225
11
0.7275
21
0.474626
0
LINE
8
BLACK
6
CONTINUOUS
10
0.7275
20
0.474626
11
0.6725
21
0.474626
0
LINE
8
BLACK
6
CONTINUOUS
10
0.6725
20
0.474626
11
0.669487
21
0.475225
0
LINE
8
BLACK
6
CONTINUOUS
10
0.669487
20
0.475225
11
0.666932
21
0.476932
0
LINE
8
BLACK
6
CONTINUOUS
10
0.666932
20
0.476932
11
0.665225
21
0.479487
0
LINE
8
BLACK
6
CONTINUOUS
10
0.665225
20
0.479487
11
0.664626
21
0.4825
0
LINE
8
BLACK
6
CONTINUOUS
10
0.664626
20
0.4825
11
0.664626
21
0.5175
0
LINE
8
BLACK
6
CONTINUOUS
10
0.664626
20
0.5175
11
0.665225
21
0.520513
0
LINE
8
BLACK
6
CONTINUOUS
10
0.665225
20
0.520513
11
0.666932
21
0.523068
0
LINE
8
BLACK
6
CONTINUOUS
10
0.666932
20
0.523068
11
0.669487
21
0.524775
0
LINE
8
BLACK
6
CONTINUOUS
10
0.669487
20
0.524775
11
0.6725
21
0.525374
0
LINE
8
BLACK
6
CONTINUOUS
10
0.6725
20
0.525374
11
0.7275
21
0.525374
0
LINE
8
BLACK
6
CONTINUOUS
10
0.7275
20
0.525374
11
0.730513
21
0.524775
0
LINE
8
BLACK
6
CONTINUOUS
10
1.05659
20
0.548301
11
1.06323
21
0.546676
0
LINE
8
BLACK
6
CONTINUOUS
10
1.06323
20
0.546676
11
1.06932
21
0.543566
0
LINE
8
BLACK
6
CONTINUOUS
10
1.06932
20
0.543566
11
1.07453
21
0.539138
0
LINE
8
BLACK
6
CONTINUOUS
10
1.07453
20
0.539138
11
1.07859
21
0.53363
0
LINE
8
BLACK
6
CONTINUOUS
10
1.07859
20
0.53363
11
1.08126
21
0.527337
0
LINE
8
BLACK
6
CONTINUOUS
10
1.08126
20
0.527337
11
1.08242
21
0.520597
0
LINE
8
BLACK
6
CONTINUOUS
10
1.08242
20
0.520597
11
1.082
21
0.513771
0
LINE
8
BLACK
6
CONTINUOUS
10
1.082
20
0.513771
11
1.08002
21
0.507226
0
LINE
8
BLACK
6
CONTINUOUS
10
1.08002
20
0.507226
11
1.07658
21
0.501312
0
LINE
8
BLACK
6
CONTINUOUS
10
1.07658
20
0.501312
11
1.07188
21
0.496347
0
LINE
8
BLACK
6
CONTINUOUS
10
1.07188
20
0.496347
11
1.06616
21
0.492598
0
LINE
8
BLACK
6
CONTINUOUS
10
1.06616
20
0.492598
11
1.05973
21
0.490264
0
LINE
8
BLACK
6
CONTINUOUS
10
1.05973
20
0.490264
11
1.05294
21
0.489472
0
LINE
8
BLACK
6
CONTINUOUS
10
1.05294
20
0.489472
11
1.04506
21
0.489472
0
LINE
8
BLACK
6
CONTINUOUS
10
1.04506
20
0.489472
11
1.04141
21
0.489699
0
LINE
8
BLACK
6
CONTINUOUS
10
1.04141
20
0.489699
11
1.03477
21
0.491324
0
LINE
8
BLACK
6
CONTINUOUS
10
1.03477
20
0.491324
11
1.02868
21
0.494434
0
LINE
8
BLACK
6
CONTINUOUS
10
1.02868
20
0.494434
11
1.02347
21
0.498862
0
LINE
8
BLACK
6
CONTINUOUS
10
1.02347
20
0.498862
11
1.01941
21
0.50437
0
LINE
8
BLACK
6
CONTINUOUS
10
1.01941
20
0.50437
11
1.01674
21
0.510663
0
LINE
8
BLACK
6
CONTINUOUS
10
1.01674
20
0.510663
11
1.01558
21
0.517403
0
LINE
8
BLACK
6
CONTINUOUS
10
1.01558
20
0.517403
11
1.016
21
0.524229
0
LINE
8
BLACK
6
CONTINUOUS
10
1.016
20
0.524229
11
1.01798
21
0.530774
0
LINE
8
BLACK
6
CONTINUOUS
10
1.01798
20
0.530774
11
1.02142
21
0.536688
0
LINE
8
BLACK
6
CONTINUOUS
10
1.02142
20
0.536688
11
1.02612
21
0.541653
0
LINE
8
BLACK
6
CONTINUOUS
10
1.02612
20
0.541653
11
1.03184
21
0.545402
0
LINE
8
BLACK
6
CONTINUOUS
10
1.03184
20
0.545402
11
1.03827
21
0.547736
0
LINE
8
BLACK
6
CONTINUOUS
10
1.03827
20
0.547736
11
1.04506
21
0.548528
0
LINE
8
BLACK
6
CONTINUOUS
10
1.04506
20
0.548528
11
1.05294
21
0.548528
0
LINE
8
BLACK
6
CONTINUOUS
10
1.05294
20
0.548528
11
1.05659
21
0.548301
0
LINE
8
BLACK
6
CONTINUOUS
10
1.1528
20
0.684101
11
1.16201
21
0.68246
0
LINE
8
BLACK
6
CONTINUOUS
10
1.16201
20
0.68246
11
1.17083
21
0.679338
0
LINE
8
BLACK
6
CONTINUOUS
10
1.17083
20
0.679338
11
1.17902
21
0.674816
0
LINE
8
BLACK
6
CONTINUOUS
10
1.17902
20
0.674816
11
1.18636
21
0.669018
0
LINE
8
BLACK
6
CONTINUOUS
10
1.18636
20
0.669018
11
1.19265
21
0.662099
0
LINE
8
BLACK
6
CONTINUOUS
10
1.19265
20
0.662099
11
1.19774
21
0.654244
0
LINE
8
BLACK
6
CONTINUOUS
10
1.19774
20
0.654244
11
1.20147
21
0.645665
0
LINE
8
BLACK
6
CONTINUOUS
10
1.20147
20
0.645665
11
1.20375
21
0.636591
0
LINE
8
BLACK
6
CONTINUOUS
10
1.20375
20
0.636591
11
1.20451
21
0.627268
0
LINE
8
BLACK
6
CONTINUOUS
10
1.20451
20
0.627268
11
1.20444
21
0.624479
0
LINE
8
BLACK
6
CONTINUOUS
10
1.20444
20
0.624479
11
1.20322
21
0.615204
0
LINE
8
BLACK
6
CONTINUOUS
10
1.20322
20
0.615204
11
1.2005
21
0.606253
0
LINE
8
BLACK
6
CONTINUOUS
10
1.2005
20
0.606253
11
1.19636
21
0.597866
0
LINE
8
BLACK
6
CONTINUOUS
10
1.19636
20
0.597866
11
1.1909
21
0.590269
0
LINE
8
BLACK
6
CONTINUOUS
10
1.1909
20
0.590269
11
1.18427
21
0.583665
0
LINE
8
BLACK
6
CONTINUOUS
10
1.18427
20
0.583665
11
1.17666
21
0.578233
0
LINE
8
BLACK
6
CONTINUOUS
10
1.17666
20
0.578233
11
1.16825
21
0.574117
0
LINE
8
BLACK
6
CONTINUOUS
10
1.16825
20
0.574117
11
1.15929
21
0.571429
0
LINE
8
BLACK
6
CONTINUOUS
10
1.15929
20
0.571429
11
1.15001
21
0.57024
0
LINE
8
BLACK
6
CONTINUOUS
10
1.15001
20
0.57024
11
1.14067
21
0.570583
0
LINE
8
BLACK
6
CONTINUOUS
10
1.14067
20
0.570583
11
1.1315
21
0.572448
0
LINE
8
BLACK
6
CONTINUOUS
10
1.1315
20
0.572448
11
1.12276
21
0.575785
0
LINE
8
BLACK
6
CONTINUOUS
10
1.12276
20
0.575785
11
1.11468
21
0.580505
0
LINE
8
BLACK
6
CONTINUOUS
10
1.11468
20
0.580505
11
1.10748
21
0.586481
0
LINE
8
BLACK
6
CONTINUOUS
10
1.10748
20
0.586481
11
1.10136
21
0.593552
0
LINE
8
BLACK
6
CONTINUOUS
10
1.10136
20
0.593552
11
1.09647
21
0.601529
0
LINE
8
BLACK
6
CONTINUOUS
10
1.09647
20
0.601529
11
1.09295
21
0.610196
0
LINE
8
BLACK
6
CONTINUOUS
10
1.09295
20
0.610196
11
1.09089
21
0.619323
0
LINE
8
BLACK
6
CONTINUOUS
10
1.09089
20
0.619323
11
1.09036
21
0.628662
0
LINE
8
BLACK
6
CONTINUOUS
10
1.09036
20
0.628662
11
1.09135
21
0.637965
0
LINE
8
BLACK
6
CONTINUOUS
10
1.09135
20
0.637965
11
1.09385
21
0.64698
0
LINE
8
BLACK
6
CONTINUOUS
10
1.09385
20
0.64698
11
1.09779
21
0.655465
0
LINE
8
BLACK
6
CONTINUOUS
10
1.09779
20
0.655465
11
1.10306
21
0.663194
0
LINE
8
BLACK
6
CONTINUOUS
10
1.10306
20
0.663194
11
1.10952
21
0.669957
0
LINE
8
BLACK
6
CONTINUOUS
10
1.10952
20
0.669957
11
1.11701
21
0.675574
0
LINE
8
BLACK
6
CONTINUOUS
10
1.11701
20
0.675574
11
1.1253
21
0.679894
0
LINE
8
BLACK
6
CONTINUOUS
10
1.1253
20
0.679894
11
1.1342
21
0.6828
0
LINE
8
BLACK
6
CONTINUOUS
10
1.1342
20
0.6828
11
1.14344
21
0.684215
0
LINE
8
BLACK
6
CONTINUOUS
10
1.14344
20
0.684215
11
1.1528
21
0.684101
0
LINE
8
BLACK
6
CONTINUOUS
10
0.613013
20
0.647275
11
0.615568
21
0.645568
0
LINE
8
BLACK
6
CONTINUOUS
10
0.615568
20
0.645568
11
0.617275
21
0.643013
0
LINE
8
BLACK
6
CONTINUOUS
10
0.617275
20
0.643013
11
0.617874
21
0.64
0
LINE
8
BLACK
6
CONTINUOUS
10
0.617874
20
0.64
11
0.617874
21
0.58
0
LINE
8
BLACK
6
CONTINUOUS
10
0.617874
20
0.58
11
0.617275
21
0.576987
0
LINE
8
BLACK
6
CONTINUOUS
10
0.617275
20
0.576987
11
0.615568
21
0.574432
0
LINE
8
BLACK
6
CONTINUOUS
10
0.615568
20
0.574432
11
0.613013
21
0.572725
0
LINE
8
BLACK
6
CONTINUOUS
10
0.613013
20
0.572725
11
0.61
21
0.572126
0
LINE
8
BLACK
6
CONTINUOUS
10
0.61
20
0.572126
11
0.55
21
0.572126
0
LINE
8
BLACK
6
CONTINUOUS
10
0.55
20
0.572126
11
0.546987
21
0.572725
0
LINE
8
BLACK
6
CONTINUOUS
10
0.546987
20
0.572725
11
0.544432
21
0.574432
0
LINE
8
BLACK
6
CONTINUOUS
10
0.544432
20
0.574432
11
0.542725
21
0.576987
0
LINE
8
BLACK
6
CONTINUOUS
10
0.542725
20
0.576987
11
0.542126
21
0.58
0
LINE
8
BLACK
6
CONTINUOUS
10
0.542126
20
0.58
11
0.542126
21
0.64
0
LINE
8
BLACK
6
CONTINUOUS
10
0.542126
20
0.64
11
0.542725
21
0.643013
0
LINE
8
BLACK
6
CONTINUOUS
10
0.542725
20
0.643013
11
0.544432
21
0.645568
0
LINE
8
BLACK
6
CONTINUOUS
10
0.544432
20
0.645568
11
0.546987
21
0.647275
0
LINE
8
BLACK
6
CONTINUOUS
10
0.546987
20
0.647275
11
0.55
21
0.647874
0
LINE
8
BLACK
6
CONTINUOUS
10
0.55
20
0.647874
11
0.61
21
0.647874
0
LINE
8
BLACK
6
CONTINUOUS
10
0.61
20
0.647874
11
0.613013
21
0.647275
0
LINE
8
BLACK
6
CONTINUOUS
10
0.813013
20
0.647275
11
0.815568
21
0.645568
0
LINE
8
BLACK
6
CONTINUOUS
10
0.815568
20
0.645568
11
0.817275
21
0.643013
0
LINE
8
BLACK
6
CONTINUOUS
10
0.817275
20
0.643013
11
0.817874
21
0.64
0
LINE
8
BLACK
6
CONTINUOUS
10
0.817874
20
0.64
11
0.817874
21
0.58
0
LINE
8
BLACK
6
CONTINUOUS
10
0.817874
20
0.58
11
0.817275
21
0.576987
0
LINE
8
BLACK
6
CONTINUOUS
10
0.817275
20
0.576987
11
0.815568
21
0.574432
0
LINE
8
BLACK
6
CONTINUOUS
10
0.815568
20
0.574432
11
0.813013
21
0.572725
0
LINE
8
BLACK
6
CONTINUOUS
10
0.813013
20
0.572725
11
0.81
21
0.572126
0
LINE
8
BLACK
6
CONTINUOUS
10
0.81
20
0.572126
11
0.75
21
0.572126
0
LINE
8
BLACK
6
CONTINUOUS
10
0.75
20
0.572126
11
0.746987
21
0.572725
0
LINE
8
BLACK
6
CONTINUOUS
10
0.746987
20
0.572725
11
0.744432
21
0.574432
0
LINE
8
BLACK
6
CONTINUOUS
10
0.744432
20
0.574432
11
0.742725
21
0.576987
0
LINE
8
BLACK
6
CONTINUOUS
10
0.742725
20
0.576987
11
0.742126
21
0.58
0
LINE
8
BLACK
6
CONTINUOUS
10
0.742126
20
0.58
11
0.742126
21
0.64
0
LINE
8
BLACK
6
CONTINUOUS
10
0.742126
20
0.64
11
0.742725
21
0.643013
0
LINE
8
BLACK
6
CONTINUOUS
10
0.742725
20
0.643013
11
0.744432
21
0.645568
0
LINE
8
BLACK
6
CONTINUOUS
10
0.744432
20
0.645568
11
0.746987
21
0.647275
0
LINE
8
BLACK
6
CONTINUOUS
10
0.746987
20
0.647275
11
0.75
21
0.647874
0
LINE
8
BLACK
6
CONTINUOUS
10
0.75
20
0.647874
11
0.81
21
0.647874
0
LINE
8
BLACK
6
CONTINUOUS
10
0.81
20
0.647874
11
0.813013
21
0.647275
0
LINE
8
BLACK
6
CONTINUOUS
10
0.713013
20
0.647275
11
0.715568
21
0.645568
0
LINE
8
BLACK
6
CONTINUOUS
10
0.715568
20
0.645568
11
0.717275
21
0.643013
0
LINE
8
BLACK
6
CONTINUOUS
10
0.717275
20
0.643013
11
0.717874
21
0.64
0
LINE
8
BLACK
6
CONTINUOUS
10
0.717874
20
0.64
11
0.717874
21
0.58
0
LINE
8
BLACK
6
CONTINUOUS
10
0.717874
20
0.58
11
0.717275
21
0.576987
0
LINE
8
BLACK
6
CONTINUOUS
10
0.717275
20
0.576987
11
0.715568
21
0.574432
0
LINE
8
BLACK
6
CONTINUOUS
10
0.715568
20
0.574432
11
0.713013
21
0.572725
0
LINE
8
BLACK
6
CONTINUOUS
10
0.713013
20
0.572725
11
0.71
21
0.572126
0
LINE
8
BLACK
6
CONTINUOUS
10
0.71
20
0.572126
11
0.65
21
0.572126
0
LINE
8
BLACK
6
CONTINUOUS
10
0.65
20
0.572126
11
0.646987
21
0.572725
0
LINE
8
BLACK
6
CONTINUOUS
10
0.646987
20
0.572725
11
0.644432
21
0.574432
0
LINE
8
BLACK
6
CONTINUOUS
10
0.644432
20
0.574432
11
0.642725
21
0.576987
0
LINE
8
BLACK
6
CONTINUOUS
10
0.642725
20
0.576987
11
0.642126
21
0.58
0
LINE
8
BLACK
6
CONTINUOUS
10
0.642126
20
0.58
11
0.642126
21
0.64
0
LINE
8
BLACK
6
CONTINUOUS
10
0.642126
20
0.64
11
0.642725
21
0.643013
0
LINE
8
BLACK
6
CONTINUOUS
10
0.642725
20
0.643013
11
0.644432
21
0.645568
0
LINE
8
BLACK
6
CONTINUOUS
10
0.644432
20
0.645568
11
0.646987
21
0.647275
0
LINE
8
BLACK
6
CONTINUOUS
10
0.646987
20
0.647275
11
0.65
21
0.647874
0
LINE
8
BLACK
6
CONTINUOUS
10
0.65
20
0.647874
11
0.71
21
0.647874
0
LINE
8
BLACK
6
CONTINUOUS
10
0.71
20
0.647874
11
0.713013
21
0.647275
0
LINE
8
BLACK
6
CONTINUOUS
10
0.913013
20
0.647275
11
0.915568
21
0.645568
0
LINE
8
BLACK
6
CONTINUOUS
10
0.915568
20
0.645568
11
0.917275
21
0.643013
0
LINE
8
BLACK
6
CONTINUOUS
10
0.917275
20
0.643013
11
0.917874
21
0.64
0
LINE
8
BLACK
6
CONTINUOUS
10
0.917874
20
0.64
11
0.917874
21
0.58
0
LINE
8
BLACK
6
CONTINUOUS
10
0.917874
20
0.58
11
0.917275
21
0.576987
0
LINE
8
BLACK
6
CONTINUOUS
10
0.917275
20
0.576987
11
0.915568
21
0.574432
0
LINE
8
BLACK
6
CONTINUOUS
10
0.915568
20
0.574432
11
0.913013
21
0.572725
0
LINE
8
BLACK
6
CONTINUOUS
10
0.913013
20
0.572725
11
0.91
21
0.572126
0
LINE
8
BLACK
6
CONTINUOUS
10
0.91
20
0.572126
11
0.85
21
0.572126
0
LINE
8
BLACK
6
CONTINUOUS
10
0.85
20
0.572126
11
0.846987
21
0.572725
0
LINE
8
BLACK
6
CONTINUOUS
10
0.846987
20
0.572725
11
0.844432
21
0.574432
0
LINE
8
BLACK
6
CONTINUOUS
10
0.844432
20
0.574432
11
0.842725
21
0.576987
0
LINE
8
BLACK
6
CONTINUOUS
10
0.842725
20
0.576987
11
0.842126
21
0.58
0
LINE
8
BLACK
6
CONTINUOUS
10
0.842126
20
0.58
11
0.842126
21
0.64
0
LINE
8
BLACK
6
CONTINUOUS
10
0.842126
20
0.64
11
0.842725
21
0.643013
0
LINE
8
BLACK
6
CONTINUOUS
10
0.842725
20
0.643013
11
0.844432
21
0.645568
0
LINE
8
BLACK
6
CONTINUOUS
10
0.844432
20
0.645568
11
0.846987
21
0.647275
0
LINE
8
BLACK
6
CONTINUOUS
10
0.846987
20
0.647275
11
0.85
21
0.647874
0
LINE
8
BLACK
6
CONTINUOUS
10
0.85
20
0.647874
11
0.91
21
0.647874
0
LINE
8
BLACK
6
CONTINUOUS
10
0.91
20
0.647874
11
0.913013
21
0.647275
0
LINE
8
BLACK
6
CONTINUOUS
10
0.713013
20
0.747275
11
0.715568
21
0.745568
0
LINE
8
BLACK
6
CONTINUOUS
10
0.715568
20
0.745568
11
0.717275
21
0.743013
0
LINE
8
BLACK
6
CONTINUOUS
10
0.717275
20
0.743013
11
0.717874
21
0.74
0
LINE
8
BLACK
6
CONTINUOUS
10
0.717874
20
0.74
11
0.717874
21
0.68
0
LINE
8
BLACK
6
CONTINUOUS
10
0.717874
20
0.68
11
0.717275
21
0.676987
0
LINE
8
BLACK
6
CONTINUOUS
10
0.717275
20
0.676987
11
0.715568
21
0.674432
0
LINE
8
BLACK
6
CONTINUOUS
10
0.715568
20
0.674432
11
0.713013
21
0.672725
0
LINE
8
BLACK
6
CONTINUOUS
10
0.713013
20
0.672725
11
0.71
21
0.672126
0
LINE
8
BLACK
6
CONTINUOUS
10
0.71
20
0.672126
11
0.65
21
0.672126
0
LINE
8
BLACK
6
CONTINUOUS
10
0.65
20
0.672126
11
0.646987
21
0.672725
0
LINE
8
BLACK
6
CONTINUOUS
10
0.646987
20
0.672725
11
0.644432
21
0.674432
0
LINE
8
BLACK
6
CONTINUOUS
10
0.644432
20
0.674432
11
0.642725
21
0.676987
0
LINE
8
BLACK
6
CONTINUOUS
10
0.642725
20
0.676987
11
0.642126
21
0.68
0
LINE
8
BLACK
6
CONTINUOUS
10
0.642126
20
0.68
11
0.642126
21
0.74
0
LINE
8
BLACK
6
CONTINUOUS
10
0.642126
20
0.74
11
0.642725
21
0.743013
0
LINE
8
BLACK
6
CONTINUOUS
10
0.642725
20
0.743013
11
0.644432
21
0.745568
0
LINE
8
BLACK
6
CONTINUOUS
10
0.644432
20
0.745568
11
0.646987
21
0.747275
0
LINE
8
BLACK
6
CONTINUOUS
10
0.646987
20
0.747275
11
0.65
21
0.747874
0
LINE
8
BLACK
6
CONTINUOUS
10
0.65
20
0.747874
11
0.71
21
0.747874
0
LINE
8
BLACK
6
CONTINUOUS
10
0.71
20
0.747874
11
0.713013
21
0.747275
0
LINE
8
BLACK
6
CONTINUOUS
10
0.613013
20
0.747275
11
0.615568
21
0.745568
0
LINE
8
BLACK
6
CONTINUOUS
10
0.615568
20
0.745568
11
0.617275
21
0.743013
0
LINE
8
BLACK
6
CONTINUOUS
10
0.617275
20
0.743013
11
0.617874
21
0.74
0
LINE
8
BLACK
6
CONTINUOUS
10
0.617874
20
0.74
11
0.617874
21
0.68
0
LINE
8
BLACK
6
CONTINUOUS
10
0.617874
20
0.68
11
0.617275
21
0.676987
0
LINE
8
BLACK
6
CONTINUOUS
10
0.617275
20
0.676987
11
0.615568
21
0.674432
0
LINE
8
BLACK
6
CONTINUOUS
10
0.615568
20
0.674432
11
0.613013
21
0.672725
0
LINE
8
BLACK
6
CONTINUOUS
10
0.613013
20
0.672725
11
0.61
21
0.672126
0
LINE
8
BLACK
6
CONTINUOUS
10
0.61
20
0.672126
11
0.55
21
0.672126
0
LINE
8
BLACK
6
CONTINUOUS
10
0.55
20
0.672126
11
0.546987
21
0.672725
0
LINE
8
BLACK
6
CONTINUOUS
10
0.546987
20
0.672725
11
0.544432
21
0.674432
0
LINE
8
BLACK
6
CONTINUOUS
10
0.544432
20
0.674432
11
0.542725
21
0.676987
0
LINE
8
BLACK
6
CONTINUOUS
10
0.542725
20
0.676987
11
0.542126
21
0.68
0
LINE
8
BLACK
6
CONTINUOUS
10
0.542126
20
0.68
11
0.542126
21
0.74
0
LINE
8
BLACK
6
CONTINUOUS
10
0.542126
20
0.74
11
0.542725
21
0.743013
0
LINE
8
BLACK
6
CONTINUOUS
10
0.542725
20
0.743013
11
0.544432
21
0.745568
0
LINE
8
BLACK
6
CONTINUOUS
10
0.544432
20
0.745568
11
0.546987
21
0.747275
0
LINE
8
BLACK
6
CONTINUOUS
10
0.546987
20
0.747275
11
0.55
21
0.747874
0
LINE
8
BLACK
6
CONTINUOUS
10
0.55
20
0.747874
11
0.61
21
0.747874
0
LINE
8
BLACK
6
CONTINUOUS
10
0.61
20
0.747874
11
0.613013
21
0.747275
0
LINE
8
BLACK
6
CONTINUOUS
10
0.813013
20
0.747275
11
0.815568
21
0.745568
0
LINE
8
BLACK
6
CONTINUOUS
10
0.815568
20
0.745568
11
0.817275
21
0.743013
0
LINE
8
BLACK
6
CONTINUOUS
10
0.817275
20
0.743013
11
0.817874
21
0.74
0
LINE
8
BLACK
6
CONTINUOUS
10
0.817874
20
0.74
11
0.817874
21
0.68
0
LINE
8
BLACK
6
CONTINUOUS
10
0.817874
20
0.68
11
0.817275
21
0.676987
0
LINE
8
BLACK
6
CONTINUOUS
10
0.817275
20
0.676987
11
0.815568
21
0.674432
0
LINE
8
BLACK
6
CONTINUOUS
10
0.815568
20
0.674432
11
0.813013
21
0.672725
0
LINE
8
BLACK
6
CONTINUOUS
10
0.813013
20
0.672725
11
0.81
21
0.672126
0
LINE
8
BLACK
6
CONTINUOUS
10
0.81
20
0.672126
11
0.75
21
0.672126
0
LINE
8
BLACK
6
CONTINUOUS
10
0.75
20
0.672126
11
0.746987
21
0.672725
0
LINE
8
BLACK
6
CONTINUOUS
10
0.746987
20
0.672725
11
0.744432
21
0.674432
0
LINE
8
BLACK
6
CONTINUOUS
10
0.744432
20
0.674432
11
0.742725
21
0.676987
0
LINE
8
BLACK
6
CONTINUOUS
10
0.742725
20
0.676987
11
0.742126
21
0.68
0
LINE
8
BLACK
6
CONTINUOUS
10
0.742126
20
0.68
11
0.742126
21
0.74
0
LINE
8
BLACK
6
CONTINUOUS
10
0.742126
20
0.74
11
0.742725
21
0.743013
0
LINE
8
BLACK
6
CONTINUOUS
10
0.742725
20
0.743013
11
0.744432
21
0.745568
0
LINE
8
BLACK
6
CONTINUOUS
10
0.744432
20
0.745568
11
0.746987
21
0.747275
0
LINE
8
BLACK
6
CONTINUOUS
10
0.746987
20
0.747275
11
0.75
21
0.747874
0
LINE
8
BLACK
6
CONTINUOUS
10
0.75
20
0.747874
11
0.81
21
0.747874
0
LINE
8
BLACK
6
CONTINUOUS
10
0.81
20
0.747874
11
0.813013
21
0.747275
0
LINE
8
BLACK
6
CONTINUOUS
10
0.913013
20
0.747275
11
0.915568
21
0.745568
0
LINE
8
BLACK
6
CONTINUOUS
10
0.915568
20
0.745568
11
0.917275
21
0.743013
0
LINE
8
BLACK
6
CONTINUOUS
10
0.917275
20
0.743013
11
0.917874
21
0.74
0
LINE
8
BLACK
6
CONTINUOUS
10
0.917874
20
0.74
11
0.917874
21
0.68
0
LINE
8
BLACK
6
CONTINUOUS
10
0.917874
20
0.68
11
0.917275
21
0.676987
0
LINE
8
BLACK
6
CONTINUOUS
10
0.917275
20
0.676987
11
0.915568
21
0.674432
0
LINE
8
BLACK
6
CONTINUOUS
10
0.915568
20
0.674432
11
0.913013
21
0.672725
0
LINE
8
BLACK
6
CONTINUOUS
10
0.913013
20
0.672725
11
0.91
21
0.672126
0
LINE
8
BLACK
6
CONTINUOUS
10
0.91
20
0.672126
11
0.85
21
0.672126
0
LINE
8
BLACK
6
CONTINUOUS
10
0.85
20
0.672126
11
0.846987
21
0.672725
0
LINE
8
BLACK
6
CONTINUOUS
10
0.846987
20
0.672725
11
0.844432
21
0.674432
0
LINE
8
BLACK
6
CONTINUOUS
10
0.844432
20
0.674432
11
0.842725
21
0.676987
0
LINE
8
BLACK
6
CONTINUOUS
10
0.842725
20
0.676987
11
0.842126
21
0.68
0
LINE
8
BLACK
6
CONTINUOUS
10
0.842126
20
0.68
11
0.842126
21
0.74
0
LINE
8
BLACK
6
CONTINUOUS
10
0.842126
20
0.74
11
0.842725
21
0.743013
0
LINE
8
BLACK
6
CONTINUOUS
10
0.842725
20
0.743013
11
0.844432
21
0.745568
0
LINE
8
BLACK
6
CONTINUOUS
10
0.844432
20
0.745568
11
0.846987
21
0.747275
0
LINE
8
BLACK
6
CONTINUOUS
10
0.846987
20
0.747275
11
0.85
21
0.747874
0
LINE
8
BLACK
6
CONTINUOUS
10
0.85
20
0.747874
11
0.91
21
0.747874
0
LINE
8
BLACK
6
CONTINUOUS
10
0.91
20
0.747874
11
0.913013
21
0.747275
  0
ENDSEC
  0
EOF
