  0
SECTION
  2
HEADER
  9
$ANGBASE
  50
0.0
  9
$ANGDIR
  70
1
  9
$MEASUREMENT
  70
0
  0
ENDSEC
  0
SECTION
  2
TABLES
  0
TABLE
  2
LTYPE
  70
4
  0
LTYPE
  5
40F
  2
CONTINUOUS
  70
0
  3
Solid line
  72
65
  73
0
  40
0.0
  0
LTYPE
  5
410
  2
DASHDOT
 70
0
  3
Dash Dot ____ _ ____ _
 72
65
 73
4
 40
2.0
 49
1.25
 49
-0.25
 49
0.25
 49
-0.25
  0
LTYPE
  5
411
  2
DASHED
 70
0
  3
Dashed __ __ __ __ __
 72
65
 73
2
 40
0.75
 49
0.5
 49
-0.25
  0
LTYPE
  5
43B
  2
DOTTED
 70
0
  3
Dotted .  .  .  .
 72
65
 73
2
 40
0.2
 49
0.0
 49
-0.2
  0
ENDTAB
  0
TABLE
  2
STYLE
  70
4
  0
STYLE
  2
KICAD
  70
0
  40
0
  41
1
  42
1
  50
0
  71
0
  3
isocp.shx
  0
STYLE
  2
KICADB
  70
0
  40
0
  41
1
  42
1
  50
0
  71
0
  3
isocp.shx
  0
STYLE
  2
KICADI
  70
0
  40
0
  41
1
  42
1
  50
15
  71
0
  3
isocp.shx
  0
STYLE
  2
KICADBI
  70
0
  40
0
  41
1
  42
1
  50
15
  71
0
  3
isocp.shx
  0
ENDTAB
  0
TABLE
  2
LAYER
  70
1
  0
LAYER
  2
BLACK
  70
0
  62
7
  6
CONTINUOUS
  0
ENDTAB
  0
ENDSEC
  0
SECTION
  2
ENTITIES
0
LINE
8
BLACK
6
CONTINUOUS
10
0.692262
20
0.079398
11
0.692953
21
0.0775
0
LINE
8
BLACK
6
CONTINUOUS
10
0.692953
20
0.0775
11
0.692953
21
0.0375
0
LINE
8
BLACK
6
CONTINUOUS
10
0.692953
20
0.0375
11
0.692885
21
0.0371165
0
LINE
8
BLACK
6
CONTINUOUS
10
0.692885
20
0.0371165
11
0.692908
21
0.0369872
0
LINE
8
BLACK
6
CONTINUOUS
10
0.692908
20
0.0369872
11
0.692842
21
0.0368736
0
LINE
8
BLACK
6
CONTINUOUS
10
0.692842
20
0.0368736
11
0.692775
21
0.0364901
0
LINE
8
BLACK
6
CONTINUOUS
10
0.692775
20
0.0364901
11
0.692282
21
0.0359024
0
LINE
8
BLACK
6
CONTINUOUS
10
0.692282
20
0.0359024
11
0.691898
21
0.0352381
0
LINE
8
BLACK
6
CONTINUOUS
10
0.691898
20
0.0352381
11
0.691648
21
0.035147
0
LINE
8
BLACK
6
CONTINUOUS
10
0.691648
20
0.035147
11
0.691476
21
0.0349428
0
LINE
8
BLACK
6
CONTINUOUS
10
0.691476
20
0.0349428
11
0.690721
21
0.0348096
0
LINE
8
BLACK
6
CONTINUOUS
10
0.690721
20
0.0348096
11
0.69
21
0.0345472
0
LINE
8
BLACK
6
CONTINUOUS
10
0.69
20
0.0345472
11
0.63
21
0.0345472
0
LINE
8
BLACK
6
CONTINUOUS
10
0.63
20
0.0345472
11
0.629616
21
0.0346149
0
LINE
8
BLACK
6
CONTINUOUS
10
0.629616
20
0.0346149
11
0.629487
21
0.0345921
0
LINE
8
BLACK
6
CONTINUOUS
10
0.629487
20
0.0345921
11
0.629374
21
0.0346577
0
LINE
8
BLACK
6
CONTINUOUS
10
0.629374
20
0.0346577
11
0.62899
21
0.0347253
0
LINE
8
BLACK
6
CONTINUOUS
10
0.62899
20
0.0347253
11
0.628402
21
0.0352185
0
LINE
8
BLACK
6
CONTINUOUS
10
0.628402
20
0.0352185
11
0.627738
21
0.035602
0
LINE
8
BLACK
6
CONTINUOUS
10
0.627738
20
0.035602
11
0.627647
21
0.0358524
0
LINE
8
BLACK
6
CONTINUOUS
10
0.627647
20
0.0358524
11
0.627443
21
0.0360236
0
LINE
8
BLACK
6
CONTINUOUS
10
0.627443
20
0.0360236
11
0.62731
21
0.0367792
0
LINE
8
BLACK
6
CONTINUOUS
10
0.62731
20
0.0367792
11
0.627047
21
0.0375
0
LINE
8
BLACK
6
CONTINUOUS
10
0.627047
20
0.0375
11
0.627047
21
0.0775
0
LINE
8
BLACK
6
CONTINUOUS
10
0.627047
20
0.0775
11
0.627225
21
0.0785099
0
LINE
8
BLACK
6
CONTINUOUS
10
0.627225
20
0.0785099
11
0.628524
21
0.0800572
0
LINE
8
BLACK
6
CONTINUOUS
10
0.628524
20
0.0800572
11
0.630513
21
0.0804079
0
LINE
8
BLACK
6
CONTINUOUS
10
0.630513
20
0.0804079
11
0.632262
21
0.079398
0
LINE
8
BLACK
6
CONTINUOUS
10
0.632262
20
0.079398
11
0.632953
21
0.0775
0
LINE
8
BLACK
6
CONTINUOUS
10
0.632953
20
0.0775
11
0.632953
21
0.0404528
0
LINE
8
BLACK
6
CONTINUOUS
10
0.632953
20
0.0404528
11
0.687047
21
0.0404528
0
LINE
8
BLACK
6
CONTINUOUS
10
0.687047
20
0.0404528
11
0.687047
21
0.0775
0
LINE
8
BLACK
6
CONTINUOUS
10
0.687047
20
0.0775
11
0.687225
21
0.0785099
0
LINE
8
BLACK
6
CONTINUOUS
10
0.687225
20
0.0785099
11
0.688524
21
0.0800572
0
LINE
8
BLACK
6
CONTINUOUS
10
0.688524
20
0.0800572
11
0.690513
21
0.0804079
0
LINE
8
BLACK
6
CONTINUOUS
10
0.690513
20
0.0804079
11
0.692262
21
0.079398
0
LINE
8
BLACK
6
CONTINUOUS
10
0.823955
20
0.186229
11
0.824646
21
0.184331
0
LINE
8
BLACK
6
CONTINUOUS
10
0.824646
20
0.184331
11
0.824646
21
0.178622
0
LINE
8
BLACK
6
CONTINUOUS
10
0.824646
20
0.178622
11
0.824578
21
0.178239
0
LINE
8
BLACK
6
CONTINUOUS
10
0.824578
20
0.178239
11
0.824601
21
0.178109
0
LINE
8
BLACK
6
CONTINUOUS
10
0.824601
20
0.178109
11
0.824535
21
0.177996
0
LINE
8
BLACK
6
CONTINUOUS
10
0.824535
20
0.177996
11
0.824468
21
0.177612
0
LINE
8
BLACK
6
CONTINUOUS
10
0.824468
20
0.177612
11
0.823974
21
0.177024
0
LINE
8
BLACK
6
CONTINUOUS
10
0.823974
20
0.177024
11
0.823591
21
0.17636
0
LINE
8
BLACK
6
CONTINUOUS
10
0.823591
20
0.17636
11
0.823341
21
0.176269
0
LINE
8
BLACK
6
CONTINUOUS
10
0.823341
20
0.176269
11
0.823169
21
0.176065
0
LINE
8
BLACK
6
CONTINUOUS
10
0.823169
20
0.176065
11
0.822414
21
0.175932
0
LINE
8
BLACK
6
CONTINUOUS
10
0.822414
20
0.175932
11
0.821693
21
0.175669
0
LINE
8
BLACK
6
CONTINUOUS
10
0.821693
20
0.175669
11
0.658307
21
0.175669
0
LINE
8
BLACK
6
CONTINUOUS
10
0.658307
20
0.175669
11
0.657924
21
0.175737
0
LINE
8
BLACK
6
CONTINUOUS
10
0.657924
20
0.175737
11
0.657794
21
0.175714
0
LINE
8
BLACK
6
CONTINUOUS
10
0.657794
20
0.175714
11
0.657681
21
0.17578
0
LINE
8
BLACK
6
CONTINUOUS
10
0.657681
20
0.17578
11
0.657297
21
0.175847
0
LINE
8
BLACK
6
CONTINUOUS
10
0.657297
20
0.175847
11
0.656709
21
0.176341
0
LINE
8
BLACK
6
CONTINUOUS
10
0.656709
20
0.176341
11
0.656045
21
0.176724
0
LINE
8
BLACK
6
CONTINUOUS
10
0.656045
20
0.176724
11
0.655954
21
0.176974
0
LINE
8
BLACK
6
CONTINUOUS
10
0.655954
20
0.176974
11
0.65575
21
0.177146
0
LINE
8
BLACK
6
CONTINUOUS
10
0.65575
20
0.177146
11
0.655663
21
0.177638
0
LINE
8
BLACK
6
CONTINUOUS
10
0.655663
20
0.177638
11
0.603189
21
0.177638
0
LINE
8
BLACK
6
CONTINUOUS
10
0.603189
20
0.177638
11
0.602179
21
0.177816
0
LINE
8
BLACK
6
CONTINUOUS
10
0.602179
20
0.177816
11
0.600632
21
0.179114
0
LINE
8
BLACK
6
CONTINUOUS
10
0.600632
20
0.179114
11
0.600281
21
0.181103
0
LINE
8
BLACK
6
CONTINUOUS
10
0.600281
20
0.181103
11
0.601291
21
0.182852
0
LINE
8
BLACK
6
CONTINUOUS
10
0.601291
20
0.182852
11
0.603189
21
0.183543
0
LINE
8
BLACK
6
CONTINUOUS
10
0.603189
20
0.183543
11
0.658307
21
0.183543
0
LINE
8
BLACK
6
CONTINUOUS
10
0.658307
20
0.183543
11
0.658691
21
0.183476
0
LINE
8
BLACK
6
CONTINUOUS
10
0.658691
20
0.183476
11
0.65882
21
0.183498
0
LINE
8
BLACK
6
CONTINUOUS
10
0.65882
20
0.183498
11
0.658933
21
0.183433
0
LINE
8
BLACK
6
CONTINUOUS
10
0.658933
20
0.183433
11
0.659317
21
0.183365
0
LINE
8
BLACK
6
CONTINUOUS
10
0.659317
20
0.183365
11
0.659905
21
0.182872
0
LINE
8
BLACK
6
CONTINUOUS
10
0.659905
20
0.182872
11
0.660569
21
0.182489
0
LINE
8
BLACK
6
CONTINUOUS
10
0.660569
20
0.182489
11
0.66066
21
0.182238
0
LINE
8
BLACK
6
CONTINUOUS
10
0.66066
20
0.182238
11
0.660864
21
0.182067
0
LINE
8
BLACK
6
CONTINUOUS
10
0.660864
20
0.182067
11
0.660951
21
0.181575
0
LINE
8
BLACK
6
CONTINUOUS
10
0.660951
20
0.181575
11
0.81874
21
0.181575
0
LINE
8
BLACK
6
CONTINUOUS
10
0.81874
20
0.181575
11
0.81874
21
0.184331
0
LINE
8
BLACK
6
CONTINUOUS
10
0.81874
20
0.184331
11
0.818918
21
0.185341
0
LINE
8
BLACK
6
CONTINUOUS
10
0.818918
20
0.185341
11
0.820217
21
0.186888
0
LINE
8
BLACK
6
CONTINUOUS
10
0.820217
20
0.186888
11
0.822206
21
0.187239
0
LINE
8
BLACK
6
CONTINUOUS
10
0.822206
20
0.187239
11
0.823955
21
0.186229
0
LINE
8
BLACK
6
CONTINUOUS
10
0.977884
20
0.292885
11
0.978013
21
0.292908
0
LINE
8
BLACK
6
CONTINUOUS
10
0.978013
20
0.292908
11
0.978126
21
0.292842
0
LINE
8
BLACK
6
CONTINUOUS
10
0.978126
20
0.292842
11
0.97851
21
0.292775
0
LINE
8
BLACK
6
CONTINUOUS
10
0.97851
20
0.292775
11
0.979098
21
0.292282
0
LINE
8
BLACK
6
CONTINUOUS
10
0.979098
20
0.292282
11
0.979762
21
0.291898
0
LINE
8
BLACK
6
CONTINUOUS
10
0.979762
20
0.291898
11
0.979853
21
0.291648
0
LINE
8
BLACK
6
CONTINUOUS
10
0.979853
20
0.291648
11
0.980057
21
0.291476
0
LINE
8
BLACK
6
CONTINUOUS
10
0.980057
20
0.291476
11
0.98019
21
0.290721
0
LINE
8
BLACK
6
CONTINUOUS
10
0.98019
20
0.290721
11
0.980453
21
0.29
0
LINE
8
BLACK
6
CONTINUOUS
10
0.980453
20
0.29
11
0.980453
21
0.25
0
LINE
8
BLACK
6
CONTINUOUS
10
0.980453
20
0.25
11
0.980275
21
0.24899
0
LINE
8
BLACK
6
CONTINUOUS
10
0.980275
20
0.24899
11
0.978976
21
0.247443
0
LINE
8
BLACK
6
CONTINUOUS
10
0.978976
20
0.247443
11
0.976987
21
0.247092
0
LINE
8
BLACK
6
CONTINUOUS
10
0.976987
20
0.247092
11
0.975238
21
0.248102
0
LINE
8
BLACK
6
CONTINUOUS
10
0.975238
20
0.248102
11
0.974547
21
0.25
0
LINE
8
BLACK
6
CONTINUOUS
10
0.974547
20
0.25
11
0.974547
21
0.287047
0
LINE
8
BLACK
6
CONTINUOUS
10
0.974547
20
0.287047
11
0.920453
21
0.287047
0
LINE
8
BLACK
6
CONTINUOUS
10
0.920453
20
0.287047
11
0.920453
21
0.25
0
LINE
8
BLACK
6
CONTINUOUS
10
0.920453
20
0.25
11
0.920275
21
0.24899
0
LINE
8
BLACK
6
CONTINUOUS
10
0.920275
20
0.24899
11
0.918976
21
0.247443
0
LINE
8
BLACK
6
CONTINUOUS
10
0.918976
20
0.247443
11
0.916987
21
0.247092
0
LINE
8
BLACK
6
CONTINUOUS
10
0.916987
20
0.247092
11
0.915238
21
0.248102
0
LINE
8
BLACK
6
CONTINUOUS
10
0.915238
20
0.248102
11
0.914547
21
0.25
0
LINE
8
BLACK
6
CONTINUOUS
10
0.914547
20
0.25
11
0.914547
21
0.29
0
LINE
8
BLACK
6
CONTINUOUS
10
0.914547
20
0.29
11
0.914615
21
0.290384
0
LINE
8
BLACK
6
CONTINUOUS
10
0.914615
20
0.290384
11
0.914592
21
0.290513
0
LINE
8
BLACK
6
CONTINUOUS
10
0.914592
20
0.290513
11
0.914658
21
0.290626
0
LINE
8
BLACK
6
CONTINUOUS
10
0.914658
20
0.290626
11
0.914725
21
0.29101
0
LINE
8
BLACK
6
CONTINUOUS
10
0.914725
20
0.29101
11
0.915218
21
0.291598
0
LINE
8
BLACK
6
CONTINUOUS
10
0.915218
20
0.291598
11
0.915602
21
0.292262
0
LINE
8
BLACK
6
CONTINUOUS
10
0.915602
20
0.292262
11
0.915852
21
0.292353
0
LINE
8
BLACK
6
CONTINUOUS
10
0.915852
20
0.292353
11
0.916024
21
0.292557
0
LINE
8
BLACK
6
CONTINUOUS
10
0.916024
20
0.292557
11
0.916779
21
0.29269
0
LINE
8
BLACK
6
CONTINUOUS
10
0.916779
20
0.29269
11
0.9175
21
0.292953
0
LINE
8
BLACK
6
CONTINUOUS
10
0.9175
20
0.292953
11
0.9775
21
0.292953
0
LINE
8
BLACK
6
CONTINUOUS
10
0.9775
20
0.292953
11
0.977884
21
0.292885
0
LINE
8
BLACK
6
CONTINUOUS
10
0.720037
20
0.304383
11
0.720207
21
0.304394
0
LINE
8
BLACK
6
CONTINUOUS
10
0.720207
20
0.304394
11
0.720897
21
0.303886
0
LINE
8
BLACK
6
CONTINUOUS
10
0.720897
20
0.303886
11
0.721639
21
0.303458
0
LINE
8
BLACK
6
CONTINUOUS
10
0.721639
20
0.303458
11
0.721698
21
0.303298
0
LINE
8
BLACK
6
CONTINUOUS
10
0.721698
20
0.303298
11
0.721834
21
0.303198
0
LINE
8
BLACK
6
CONTINUOUS
10
0.721834
20
0.303198
11
0.725422
21
0.297817
0
LINE
8
BLACK
6
CONTINUOUS
10
0.725422
20
0.297817
11
0.728626
21
0.294613
0
LINE
8
BLACK
6
CONTINUOUS
10
0.728626
20
0.294613
11
0.731947
21
0.292952
0
LINE
8
BLACK
6
CONTINUOUS
10
0.731947
20
0.292952
11
0.73277
21
0.292341
0
LINE
8
BLACK
6
CONTINUOUS
10
0.73277
20
0.292341
11
0.733574
21
0.290488
0
LINE
8
BLACK
6
CONTINUOUS
10
0.733574
20
0.290488
11
0.732998
21
0.288552
0
LINE
8
BLACK
6
CONTINUOUS
10
0.732998
20
0.288552
11
0.731312
21
0.287439
0
LINE
8
BLACK
6
CONTINUOUS
10
0.731312
20
0.287439
11
0.729306
21
0.28767
0
LINE
8
BLACK
6
CONTINUOUS
10
0.729306
20
0.28767
11
0.725556
21
0.289545
0
LINE
8
BLACK
6
CONTINUOUS
10
0.725556
20
0.289545
11
0.724847
21
0.290071
0
LINE
8
BLACK
6
CONTINUOUS
10
0.724847
20
0.290071
11
0.724789
21
0.290098
0
LINE
8
BLACK
6
CONTINUOUS
10
0.724789
20
0.290098
11
0.72233
21
0.292556
0
LINE
8
BLACK
6
CONTINUOUS
10
0.72233
20
0.292556
11
0.72233
21
0.265143
0
LINE
8
BLACK
6
CONTINUOUS
10
0.72233
20
0.265143
11
0.730626
21
0.265143
0
LINE
8
BLACK
6
CONTINUOUS
10
0.730626
20
0.265143
11
0.731636
21
0.264964
0
LINE
8
BLACK
6
CONTINUOUS
10
0.731636
20
0.264964
11
0.733183
21
0.263666
0
LINE
8
BLACK
6
CONTINUOUS
10
0.733183
20
0.263666
11
0.733534
21
0.261677
0
LINE
8
BLACK
6
CONTINUOUS
10
0.733534
20
0.261677
11
0.732524
21
0.259928
0
LINE
8
BLACK
6
CONTINUOUS
10
0.732524
20
0.259928
11
0.730626
21
0.259237
0
LINE
8
BLACK
6
CONTINUOUS
10
0.730626
20
0.259237
11
0.708129
21
0.259237
0
LINE
8
BLACK
6
CONTINUOUS
10
0.708129
20
0.259237
11
0.707119
21
0.259415
0
LINE
8
BLACK
6
CONTINUOUS
10
0.707119
20
0.259415
11
0.705572
21
0.260713
0
LINE
8
BLACK
6
CONTINUOUS
10
0.705572
20
0.260713
11
0.705221
21
0.262703
0
LINE
8
BLACK
6
CONTINUOUS
10
0.705221
20
0.262703
11
0.706231
21
0.264452
0
LINE
8
BLACK
6
CONTINUOUS
10
0.706231
20
0.264452
11
0.708129
21
0.265143
0
LINE
8
BLACK
6
CONTINUOUS
10
0.708129
20
0.265143
11
0.716425
21
0.265143
0
LINE
8
BLACK
6
CONTINUOUS
10
0.716425
20
0.265143
11
0.716425
21
0.30156
0
LINE
8
BLACK
6
CONTINUOUS
10
0.716425
20
0.30156
11
0.716603
21
0.30257
0
LINE
8
BLACK
6
CONTINUOUS
10
0.716603
20
0.30257
11
0.716712
21
0.3027
0
LINE
8
BLACK
6
CONTINUOUS
10
0.716712
20
0.3027
11
0.716731
21
0.302869
0
LINE
8
BLACK
6
CONTINUOUS
10
0.716731
20
0.302869
11
0.71735
21
0.303461
0
LINE
8
BLACK
6
CONTINUOUS
10
0.71735
20
0.303461
11
0.717901
21
0.304117
0
LINE
8
BLACK
6
CONTINUOUS
10
0.717901
20
0.304117
11
0.718068
21
0.304146
0
LINE
8
BLACK
6
CONTINUOUS
10
0.718068
20
0.304146
11
0.718191
21
0.304264
0
LINE
8
BLACK
6
CONTINUOUS
10
0.718191
20
0.304264
11
0.719046
21
0.304319
0
LINE
8
BLACK
6
CONTINUOUS
10
0.719046
20
0.304319
11
0.71989
21
0.304468
0
LINE
8
BLACK
6
CONTINUOUS
10
0.71989
20
0.304468
11
0.720037
21
0.304383
0
LINE
8
BLACK
6
CONTINUOUS
10
0.772258
20
0.303458
11
0.772949
21
0.30156
0
LINE
8
BLACK
6
CONTINUOUS
10
0.772949
20
0.30156
11
0.772949
21
0.269689
0
LINE
8
BLACK
6
CONTINUOUS
10
0.772949
20
0.269689
11
0.772771
21
0.268679
0
LINE
8
BLACK
6
CONTINUOUS
10
0.772771
20
0.268679
11
0.772657
21
0.268544
0
LINE
8
BLACK
6
CONTINUOUS
10
0.772657
20
0.268544
11
0.772637
21
0.268368
0
LINE
8
BLACK
6
CONTINUOUS
10
0.772637
20
0.268368
11
0.770762
21
0.264619
0
LINE
8
BLACK
6
CONTINUOUS
10
0.770762
20
0.264619
11
0.770237
21
0.26391
0
LINE
8
BLACK
6
CONTINUOUS
10
0.770237
20
0.26391
11
0.770209
21
0.263851
0
LINE
8
BLACK
6
CONTINUOUS
10
0.770209
20
0.263851
11
0.768335
21
0.261977
0
LINE
8
BLACK
6
CONTINUOUS
10
0.768335
20
0.261977
11
0.767612
21
0.26147
0
LINE
8
BLACK
6
CONTINUOUS
10
0.767612
20
0.26147
11
0.767567
21
0.261424
0
LINE
8
BLACK
6
CONTINUOUS
10
0.767567
20
0.261424
11
0.763818
21
0.259549
0
LINE
8
BLACK
6
CONTINUOUS
10
0.763818
20
0.259549
11
0.762835
21
0.259256
0
LINE
8
BLACK
6
CONTINUOUS
10
0.762835
20
0.259256
11
0.762663
21
0.259297
0
LINE
8
BLACK
6
CONTINUOUS
10
0.762663
20
0.259297
11
0.762497
21
0.259237
0
LINE
8
BLACK
6
CONTINUOUS
10
0.762497
20
0.259237
11
0.754998
21
0.259237
0
LINE
8
BLACK
6
CONTINUOUS
10
0.754998
20
0.259237
11
0.753988
21
0.259415
0
LINE
8
BLACK
6
CONTINUOUS
10
0.753988
20
0.259415
11
0.753853
21
0.259529
0
LINE
8
BLACK
6
CONTINUOUS
10
0.753853
20
0.259529
11
0.753678
21
0.259549
0
LINE
8
BLACK
6
CONTINUOUS
10
0.753678
20
0.259549
11
0.749928
21
0.261424
0
LINE
8
BLACK
6
CONTINUOUS
10
0.749928
20
0.261424
11
0.749219
21
0.261949
0
LINE
8
BLACK
6
CONTINUOUS
10
0.749219
20
0.261949
11
0.749161
21
0.261977
0
LINE
8
BLACK
6
CONTINUOUS
10
0.749161
20
0.261977
11
0.747286
21
0.263851
0
LINE
8
BLACK
6
CONTINUOUS
10
0.747286
20
0.263851
11
0.74678
21
0.264574
0
LINE
8
BLACK
6
CONTINUOUS
10
0.74678
20
0.264574
11
0.746733
21
0.264619
0
LINE
8
BLACK
6
CONTINUOUS
10
0.746733
20
0.264619
11
0.744858
21
0.268368
0
LINE
8
BLACK
6
CONTINUOUS
10
0.744858
20
0.268368
11
0.744566
21
0.269351
0
LINE
8
BLACK
6
CONTINUOUS
10
0.744566
20
0.269351
11
0.744607
21
0.269523
0
LINE
8
BLACK
6
CONTINUOUS
10
0.744607
20
0.269523
11
0.744546
21
0.269689
0
LINE
8
BLACK
6
CONTINUOUS
10
0.744546
20
0.269689
11
0.744546
21
0.30156
0
LINE
8
BLACK
6
CONTINUOUS
10
0.744546
20
0.30156
11
0.744724
21
0.30257
0
LINE
8
BLACK
6
CONTINUOUS
10
0.744724
20
0.30257
11
0.746023
21
0.304117
0
LINE
8
BLACK
6
CONTINUOUS
10
0.746023
20
0.304117
11
0.748012
21
0.304468
0
LINE
8
BLACK
6
CONTINUOUS
10
0.748012
20
0.304468
11
0.749761
21
0.303458
0
LINE
8
BLACK
6
CONTINUOUS
10
0.749761
20
0.303458
11
0.750452
21
0.30156
0
LINE
8
BLACK
6
CONTINUOUS
10
0.750452
20
0.30156
11
0.750452
21
0.270386
0
LINE
8
BLACK
6
CONTINUOUS
10
0.750452
20
0.270386
11
0.751801
21
0.267688
0
LINE
8
BLACK
6
CONTINUOUS
10
0.751801
20
0.267688
11
0.752998
21
0.266491
0
LINE
8
BLACK
6
CONTINUOUS
10
0.752998
20
0.266491
11
0.755695
21
0.265143
0
LINE
8
BLACK
6
CONTINUOUS
10
0.755695
20
0.265143
11
0.7618
21
0.265143
0
LINE
8
BLACK
6
CONTINUOUS
10
0.7618
20
0.265143
11
0.764498
21
0.266491
0
LINE
8
BLACK
6
CONTINUOUS
10
0.764498
20
0.266491
11
0.765695
21
0.267688
0
LINE
8
BLACK
6
CONTINUOUS
10
0.765695
20
0.267688
11
0.767043
21
0.270386
0
LINE
8
BLACK
6
CONTINUOUS
10
0.767043
20
0.270386
11
0.767043
21
0.30156
0
LINE
8
BLACK
6
CONTINUOUS
10
0.767043
20
0.30156
11
0.767222
21
0.30257
0
LINE
8
BLACK
6
CONTINUOUS
10
0.767222
20
0.30257
11
0.76852
21
0.304117
0
LINE
8
BLACK
6
CONTINUOUS
10
0.76852
20
0.304117
11
0.770509
21
0.304468
0
LINE
8
BLACK
6
CONTINUOUS
10
0.770509
20
0.304468
11
0.772258
21
0.303458
0
LINE
8
BLACK
6
CONTINUOUS
10
0.822076
20
0.384263
11
0.822206
21
0.384286
0
LINE
8
BLACK
6
CONTINUOUS
10
0.822206
20
0.384286
11
0.822319
21
0.38422
0
LINE
8
BLACK
6
CONTINUOUS
10
0.822319
20
0.38422
11
0.822703
21
0.384153
0
LINE
8
BLACK
6
CONTINUOUS
10
0.822703
20
0.384153
11
0.823291
21
0.383659
0
LINE
8
BLACK
6
CONTINUOUS
10
0.823291
20
0.383659
11
0.823955
21
0.383276
0
LINE
8
BLACK
6
CONTINUOUS
10
0.823955
20
0.383276
11
0.824046
21
0.383026
0
LINE
8
BLACK
6
CONTINUOUS
10
0.824046
20
0.383026
11
0.82425
21
0.382854
0
LINE
8
BLACK
6
CONTINUOUS
10
0.82425
20
0.382854
11
0.824383
21
0.382099
0
LINE
8
BLACK
6
CONTINUOUS
10
0.824383
20
0.382099
11
0.824646
21
0.381378
0
LINE
8
BLACK
6
CONTINUOUS
10
0.824646
20
0.381378
11
0.824646
21
0.375669
0
LINE
8
BLACK
6
CONTINUOUS
10
0.824646
20
0.375669
11
0.824468
21
0.374659
0
LINE
8
BLACK
6
CONTINUOUS
10
0.824468
20
0.374659
11
0.823169
21
0.373112
0
LINE
8
BLACK
6
CONTINUOUS
10
0.823169
20
0.373112
11
0.82118
21
0.372761
0
LINE
8
BLACK
6
CONTINUOUS
10
0.82118
20
0.372761
11
0.819431
21
0.373771
0
LINE
8
BLACK
6
CONTINUOUS
10
0.819431
20
0.373771
11
0.81874
21
0.375669
0
LINE
8
BLACK
6
CONTINUOUS
10
0.81874
20
0.375669
11
0.81874
21
0.378425
0
LINE
8
BLACK
6
CONTINUOUS
10
0.81874
20
0.378425
11
0.66126
21
0.378425
0
LINE
8
BLACK
6
CONTINUOUS
10
0.66126
20
0.378425
11
0.66126
21
0.375669
0
LINE
8
BLACK
6
CONTINUOUS
10
0.66126
20
0.375669
11
0.661082
21
0.374659
0
LINE
8
BLACK
6
CONTINUOUS
10
0.661082
20
0.374659
11
0.659783
21
0.373112
0
LINE
8
BLACK
6
CONTINUOUS
10
0.659783
20
0.373112
11
0.657794
21
0.372761
0
LINE
8
BLACK
6
CONTINUOUS
10
0.657794
20
0.372761
11
0.656045
21
0.373771
0
LINE
8
BLACK
6
CONTINUOUS
10
0.656045
20
0.373771
11
0.655354
21
0.375669
0
LINE
8
BLACK
6
CONTINUOUS
10
0.655354
20
0.375669
11
0.655354
21
0.381378
0
LINE
8
BLACK
6
CONTINUOUS
10
0.655354
20
0.381378
11
0.655422
21
0.381761
0
LINE
8
BLACK
6
CONTINUOUS
10
0.655422
20
0.381761
11
0.655399
21
0.381891
0
LINE
8
BLACK
6
CONTINUOUS
10
0.655399
20
0.381891
11
0.655465
21
0.382004
0
LINE
8
BLACK
6
CONTINUOUS
10
0.655465
20
0.382004
11
0.655532
21
0.382388
0
LINE
8
BLACK
6
CONTINUOUS
10
0.655532
20
0.382388
11
0.656026
21
0.382976
0
LINE
8
BLACK
6
CONTINUOUS
10
0.656026
20
0.382976
11
0.656409
21
0.38364
0
LINE
8
BLACK
6
CONTINUOUS
10
0.656409
20
0.38364
11
0.656659
21
0.383731
0
LINE
8
BLACK
6
CONTINUOUS
10
0.656659
20
0.383731
11
0.656831
21
0.383935
0
LINE
8
BLACK
6
CONTINUOUS
10
0.656831
20
0.383935
11
0.657586
21
0.384068
0
LINE
8
BLACK
6
CONTINUOUS
10
0.657586
20
0.384068
11
0.658307
21
0.384331
0
LINE
8
BLACK
6
CONTINUOUS
10
0.658307
20
0.384331
11
0.821693
21
0.384331
0
LINE
8
BLACK
6
CONTINUOUS
10
0.821693
20
0.384331
11
0.822076
21
0.384263
0
LINE
8
BLACK
6
CONTINUOUS
10
0.977884
20
0.432885
11
0.978013
21
0.432908
0
LINE
8
BLACK
6
CONTINUOUS
10
0.978013
20
0.432908
11
0.978126
21
0.432842
0
LINE
8
BLACK
6
CONTINUOUS
10
0.978126
20
0.432842
11
0.97851
21
0.432775
0
LINE
8
BLACK
6
CONTINUOUS
10
0.97851
20
0.432775
11
0.979098
21
0.432282
0
LINE
8
BLACK
6
CONTINUOUS
10
0.979098
20
0.432282
11
0.979762
21
0.431898
0
LINE
8
BLACK
6
CONTINUOUS
10
0.979762
20
0.431898
11
0.979853
21
0.431648
0
LINE
8
BLACK
6
CONTINUOUS
10
0.979853
20
0.431648
11
0.980057
21
0.431476
0
LINE
8
BLACK
6
CONTINUOUS
10
0.980057
20
0.431476
11
0.98019
21
0.430721
0
LINE
8
BLACK
6
CONTINUOUS
10
0.98019
20
0.430721
11
0.980453
21
0.43
0
LINE
8
BLACK
6
CONTINUOUS
10
0.980453
20
0.43
11
0.980453
21
0.39
0
LINE
8
BLACK
6
CONTINUOUS
10
0.980453
20
0.39
11
0.980275
21
0.38899
0
LINE
8
BLACK
6
CONTINUOUS
10
0.980275
20
0.38899
11
0.978976
21
0.387443
0
LINE
8
BLACK
6
CONTINUOUS
10
0.978976
20
0.387443
11
0.976987
21
0.387092
0
LINE
8
BLACK
6
CONTINUOUS
10
0.976987
20
0.387092
11
0.975238
21
0.388102
0
LINE
8
BLACK
6
CONTINUOUS
10
0.975238
20
0.388102
11
0.974547
21
0.39
0
LINE
8
BLACK
6
CONTINUOUS
10
0.974547
20
0.39
11
0.974547
21
0.427047
0
LINE
8
BLACK
6
CONTINUOUS
10
0.974547
20
0.427047
11
0.920453
21
0.427047
0
LINE
8
BLACK
6
CONTINUOUS
10
0.920453
20
0.427047
11
0.920453
21
0.39
0
LINE
8
BLACK
6
CONTINUOUS
10
0.920453
20
0.39
11
0.920275
21
0.38899
0
LINE
8
BLACK
6
CONTINUOUS
10
0.920275
20
0.38899
11
0.918976
21
0.387443
0
LINE
8
BLACK
6
CONTINUOUS
10
0.918976
20
0.387443
11
0.916987
21
0.387092
0
LINE
8
BLACK
6
CONTINUOUS
10
0.916987
20
0.387092
11
0.915238
21
0.388102
0
LINE
8
BLACK
6
CONTINUOUS
10
0.915238
20
0.388102
11
0.914547
21
0.39
0
LINE
8
BLACK
6
CONTINUOUS
10
0.914547
20
0.39
11
0.914547
21
0.43
0
LINE
8
BLACK
6
CONTINUOUS
10
0.914547
20
0.43
11
0.914615
21
0.430384
0
LINE
8
BLACK
6
CONTINUOUS
10
0.914615
20
0.430384
11
0.914592
21
0.430513
0
LINE
8
BLACK
6
CONTINUOUS
10
0.914592
20
0.430513
11
0.914658
21
0.430626
0
LINE
8
BLACK
6
CONTINUOUS
10
0.914658
20
0.430626
11
0.914725
21
0.43101
0
LINE
8
BLACK
6
CONTINUOUS
10
0.914725
20
0.43101
11
0.915218
21
0.431598
0
LINE
8
BLACK
6
CONTINUOUS
10
0.915218
20
0.431598
11
0.915602
21
0.432262
0
LINE
8
BLACK
6
CONTINUOUS
10
0.915602
20
0.432262
11
0.915852
21
0.432353
0
LINE
8
BLACK
6
CONTINUOUS
10
0.915852
20
0.432353
11
0.916024
21
0.432557
0
LINE
8
BLACK
6
CONTINUOUS
10
0.916024
20
0.432557
11
0.916779
21
0.43269
0
LINE
8
BLACK
6
CONTINUOUS
10
0.916779
20
0.43269
11
0.9175
21
0.432953
0
LINE
8
BLACK
6
CONTINUOUS
10
0.9175
20
0.432953
11
0.9775
21
0.432953
0
LINE
8
BLACK
6
CONTINUOUS
10
0.9775
20
0.432953
11
0.977884
21
0.432885
0
LINE
8
BLACK
6
CONTINUOUS
10
0.52167
20
0.50104
11
0.522362
21
0.49937
0
LINE
8
BLACK
6
CONTINUOUS
10
0.522362
20
0.49937
11
0.52167
21
0.4977
0
LINE
8
BLACK
6
CONTINUOUS
10
0.52167
20
0.4977
11
0.52
21
0.497008
0
LINE
8
BLACK
6
CONTINUOUS
10
0.52
20
0.497008
11
0.353071
21
0.497008
0
LINE
8
BLACK
6
CONTINUOUS
10
0.353071
20
0.497008
11
0.353071
21
0.422992
0
LINE
8
BLACK
6
CONTINUOUS
10
0.353071
20
0.422992
11
0.52
21
0.422992
0
LINE
8
BLACK
6
CONTINUOUS
10
0.52
20
0.422992
11
0.52167
21
0.4223
0
LINE
8
BLACK
6
CONTINUOUS
10
0.52167
20
0.4223
11
0.522362
21
0.42063
0
LINE
8
BLACK
6
CONTINUOUS
10
0.522362
20
0.42063
11
0.52167
21
0.41896
0
LINE
8
BLACK
6
CONTINUOUS
10
0.52167
20
0.41896
11
0.52
21
0.418268
0
LINE
8
BLACK
6
CONTINUOUS
10
0.52
20
0.418268
11
0.350709
21
0.418268
0
LINE
8
BLACK
6
CONTINUOUS
10
0.350709
20
0.418268
11
0.349038
21
0.41896
0
LINE
8
BLACK
6
CONTINUOUS
10
0.349038
20
0.41896
11
0.348346
21
0.42063
0
LINE
8
BLACK
6
CONTINUOUS
10
0.348346
20
0.42063
11
0.348346
21
0.49937
0
LINE
8
BLACK
6
CONTINUOUS
10
0.348346
20
0.49937
11
0.349038
21
0.50104
0
LINE
8
BLACK
6
CONTINUOUS
10
0.349038
20
0.50104
11
0.350709
21
0.501732
0
LINE
8
BLACK
6
CONTINUOUS
10
0.350709
20
0.501732
11
0.52
21
0.501732
0
LINE
8
BLACK
6
CONTINUOUS
10
0.52
20
0.501732
11
0.52167
21
0.50104
0
LINE
8
BLACK
6
CONTINUOUS
10
0.730384
20
0.525385
11
0.730513
21
0.525408
0
LINE
8
BLACK
6
CONTINUOUS
10
0.730513
20
0.525408
11
0.730626
21
0.525342
0
LINE
8
BLACK
6
CONTINUOUS
10
0.730626
20
0.525342
11
0.73101
21
0.525275
0
LINE
8
BLACK
6
CONTINUOUS
10
0.73101
20
0.525275
11
0.731598
21
0.524782
0
LINE
8
BLACK
6
CONTINUOUS
10
0.731598
20
0.524782
11
0.732262
21
0.524398
0
LINE
8
BLACK
6
CONTINUOUS
10
0.732262
20
0.524398
11
0.732353
21
0.524148
0
LINE
8
BLACK
6
CONTINUOUS
10
0.732353
20
0.524148
11
0.732557
21
0.523976
0
LINE
8
BLACK
6
CONTINUOUS
10
0.732557
20
0.523976
11
0.73269
21
0.523221
0
LINE
8
BLACK
6
CONTINUOUS
10
0.73269
20
0.523221
11
0.732953
21
0.5225
0
LINE
8
BLACK
6
CONTINUOUS
10
0.732953
20
0.5225
11
0.732953
21
0.4825
0
LINE
8
BLACK
6
CONTINUOUS
10
0.732953
20
0.4825
11
0.732775
21
0.48149
0
LINE
8
BLACK
6
CONTINUOUS
10
0.732775
20
0.48149
11
0.731476
21
0.479943
0
LINE
8
BLACK
6
CONTINUOUS
10
0.731476
20
0.479943
11
0.729487
21
0.479592
0
LINE
8
BLACK
6
CONTINUOUS
10
0.729487
20
0.479592
11
0.727738
21
0.480602
0
LINE
8
BLACK
6
CONTINUOUS
10
0.727738
20
0.480602
11
0.727047
21
0.4825
0
LINE
8
BLACK
6
CONTINUOUS
10
0.727047
20
0.4825
11
0.727047
21
0.519547
0
LINE
8
BLACK
6
CONTINUOUS
10
0.727047
20
0.519547
11
0.672953
21
0.519547
0
LINE
8
BLACK
6
CONTINUOUS
10
0.672953
20
0.519547
11
0.672953
21
0.4825
0
LINE
8
BLACK
6
CONTINUOUS
10
0.672953
20
0.4825
11
0.672775
21
0.48149
0
LINE
8
BLACK
6
CONTINUOUS
10
0.672775
20
0.48149
11
0.671476
21
0.479943
0
LINE
8
BLACK
6
CONTINUOUS
10
0.671476
20
0.479943
11
0.669487
21
0.479592
0
LINE
8
BLACK
6
CONTINUOUS
10
0.669487
20
0.479592
11
0.667738
21
0.480602
0
LINE
8
BLACK
6
CONTINUOUS
10
0.667738
20
0.480602
11
0.667047
21
0.4825
0
LINE
8
BLACK
6
CONTINUOUS
10
0.667047
20
0.4825
11
0.667047
21
0.5225
0
LINE
8
BLACK
6
CONTINUOUS
10
0.667047
20
0.5225
11
0.667115
21
0.522884
0
LINE
8
BLACK
6
CONTINUOUS
10
0.667115
20
0.522884
11
0.667092
21
0.523013
0
LINE
8
BLACK
6
CONTINUOUS
10
0.667092
20
0.523013
11
0.667158
21
0.523126
0
LINE
8
BLACK
6
CONTINUOUS
10
0.667158
20
0.523126
11
0.667225
21
0.52351
0
LINE
8
BLACK
6
CONTINUOUS
10
0.667225
20
0.52351
11
0.667718
21
0.524098
0
LINE
8
BLACK
6
CONTINUOUS
10
0.667718
20
0.524098
11
0.668102
21
0.524762
0
LINE
8
BLACK
6
CONTINUOUS
10
0.668102
20
0.524762
11
0.668352
21
0.524853
0
LINE
8
BLACK
6
CONTINUOUS
10
0.668352
20
0.524853
11
0.668524
21
0.525057
0
LINE
8
BLACK
6
CONTINUOUS
10
0.668524
20
0.525057
11
0.669279
21
0.52519
0
LINE
8
BLACK
6
CONTINUOUS
10
0.669279
20
0.52519
11
0.67
21
0.525453
0
LINE
8
BLACK
6
CONTINUOUS
10
0.67
20
0.525453
11
0.73
21
0.525453
0
LINE
8
BLACK
6
CONTINUOUS
10
0.73
20
0.525453
11
0.730384
21
0.525385
0
LINE
8
BLACK
6
CONTINUOUS
10
0.820384
20
0.525385
11
0.820513
21
0.525408
0
LINE
8
BLACK
6
CONTINUOUS
10
0.820513
20
0.525408
11
0.820626
21
0.525342
0
LINE
8
BLACK
6
CONTINUOUS
10
0.820626
20
0.525342
11
0.82101
21
0.525275
0
LINE
8
BLACK
6
CONTINUOUS
10
0.82101
20
0.525275
11
0.821598
21
0.524782
0
LINE
8
BLACK
6
CONTINUOUS
10
0.821598
20
0.524782
11
0.822262
21
0.524398
0
LINE
8
BLACK
6
CONTINUOUS
10
0.822262
20
0.524398
11
0.822353
21
0.524148
0
LINE
8
BLACK
6
CONTINUOUS
10
0.822353
20
0.524148
11
0.822557
21
0.523976
0
LINE
8
BLACK
6
CONTINUOUS
10
0.822557
20
0.523976
11
0.82269
21
0.523221
0
LINE
8
BLACK
6
CONTINUOUS
10
0.82269
20
0.523221
11
0.822953
21
0.5225
0
LINE
8
BLACK
6
CONTINUOUS
10
0.822953
20
0.5225
11
0.822953
21
0.4825
0
LINE
8
BLACK
6
CONTINUOUS
10
0.822953
20
0.4825
11
0.822775
21
0.48149
0
LINE
8
BLACK
6
CONTINUOUS
10
0.822775
20
0.48149
11
0.821476
21
0.479943
0
LINE
8
BLACK
6
CONTINUOUS
10
0.821476
20
0.479943
11
0.819487
21
0.479592
0
LINE
8
BLACK
6
CONTINUOUS
10
0.819487
20
0.479592
11
0.817738
21
0.480602
0
LINE
8
BLACK
6
CONTINUOUS
10
0.817738
20
0.480602
11
0.817047
21
0.4825
0
LINE
8
BLACK
6
CONTINUOUS
10
0.817047
20
0.4825
11
0.817047
21
0.519547
0
LINE
8
BLACK
6
CONTINUOUS
10
0.817047
20
0.519547
11
0.762953
21
0.519547
0
LINE
8
BLACK
6
CONTINUOUS
10
0.762953
20
0.519547
11
0.762953
21
0.4825
0
LINE
8
BLACK
6
CONTINUOUS
10
0.762953
20
0.4825
11
0.762775
21
0.48149
0
LINE
8
BLACK
6
CONTINUOUS
10
0.762775
20
0.48149
11
0.761476
21
0.479943
0
LINE
8
BLACK
6
CONTINUOUS
10
0.761476
20
0.479943
11
0.759487
21
0.479592
0
LINE
8
BLACK
6
CONTINUOUS
10
0.759487
20
0.479592
11
0.757738
21
0.480602
0
LINE
8
BLACK
6
CONTINUOUS
10
0.757738
20
0.480602
11
0.757047
21
0.4825
0
LINE
8
BLACK
6
CONTINUOUS
10
0.757047
20
0.4825
11
0.757047
21
0.5225
0
LINE
8
BLACK
6
CONTINUOUS
10
0.757047
20
0.5225
11
0.757115
21
0.522884
0
LINE
8
BLACK
6
CONTINUOUS
10
0.757115
20
0.522884
11
0.757092
21
0.523013
0
LINE
8
BLACK
6
CONTINUOUS
10
0.757092
20
0.523013
11
0.757158
21
0.523126
0
LINE
8
BLACK
6
CONTINUOUS
10
0.757158
20
0.523126
11
0.757225
21
0.52351
0
LINE
8
BLACK
6
CONTINUOUS
10
0.757225
20
0.52351
11
0.757718
21
0.524098
0
LINE
8
BLACK
6
CONTINUOUS
10
0.757718
20
0.524098
11
0.758102
21
0.524762
0
LINE
8
BLACK
6
CONTINUOUS
10
0.758102
20
0.524762
11
0.758352
21
0.524853
0
LINE
8
BLACK
6
CONTINUOUS
10
0.758352
20
0.524853
11
0.758524
21
0.525057
0
LINE
8
BLACK
6
CONTINUOUS
10
0.758524
20
0.525057
11
0.759279
21
0.52519
0
LINE
8
BLACK
6
CONTINUOUS
10
0.759279
20
0.52519
11
0.76
21
0.525453
0
LINE
8
BLACK
6
CONTINUOUS
10
0.76
20
0.525453
11
0.82
21
0.525453
0
LINE
8
BLACK
6
CONTINUOUS
10
0.82
20
0.525453
11
0.820384
21
0.525385
0
LINE
8
BLACK
6
CONTINUOUS
10
0.435975
20
0.574383
11
0.436144
21
0.574394
0
LINE
8
BLACK
6
CONTINUOUS
10
0.436144
20
0.574394
11
0.436835
21
0.573886
0
LINE
8
BLACK
6
CONTINUOUS
10
0.436835
20
0.573886
11
0.437577
21
0.573458
0
LINE
8
BLACK
6
CONTINUOUS
10
0.437577
20
0.573458
11
0.437635
21
0.573298
0
LINE
8
BLACK
6
CONTINUOUS
10
0.437635
20
0.573298
11
0.437772
21
0.573198
0
LINE
8
BLACK
6
CONTINUOUS
10
0.437772
20
0.573198
11
0.441359
21
0.567817
0
LINE
8
BLACK
6
CONTINUOUS
10
0.441359
20
0.567817
11
0.444563
21
0.564613
0
LINE
8
BLACK
6
CONTINUOUS
10
0.444563
20
0.564613
11
0.447884
21
0.562952
0
LINE
8
BLACK
6
CONTINUOUS
10
0.447884
20
0.562952
11
0.448708
21
0.562341
0
LINE
8
BLACK
6
CONTINUOUS
10
0.448708
20
0.562341
11
0.449511
21
0.560488
0
LINE
8
BLACK
6
CONTINUOUS
10
0.449511
20
0.560488
11
0.448935
21
0.558552
0
LINE
8
BLACK
6
CONTINUOUS
10
0.448935
20
0.558552
11
0.44725
21
0.557439
0
LINE
8
BLACK
6
CONTINUOUS
10
0.44725
20
0.557439
11
0.445243
21
0.55767
0
LINE
8
BLACK
6
CONTINUOUS
10
0.445243
20
0.55767
11
0.441494
21
0.559545
0
LINE
8
BLACK
6
CONTINUOUS
10
0.441494
20
0.559545
11
0.440784
21
0.560071
0
LINE
8
BLACK
6
CONTINUOUS
10
0.440784
20
0.560071
11
0.440726
21
0.560098
0
LINE
8
BLACK
6
CONTINUOUS
10
0.440726
20
0.560098
11
0.438268
21
0.562556
0
LINE
8
BLACK
6
CONTINUOUS
10
0.438268
20
0.562556
11
0.438268
21
0.535143
0
LINE
8
BLACK
6
CONTINUOUS
10
0.438268
20
0.535143
11
0.446564
21
0.535143
0
LINE
8
BLACK
6
CONTINUOUS
10
0.446564
20
0.535143
11
0.447573
21
0.534964
0
LINE
8
BLACK
6
CONTINUOUS
10
0.447573
20
0.534964
11
0.449121
21
0.533666
0
LINE
8
BLACK
6
CONTINUOUS
10
0.449121
20
0.533666
11
0.449471
21
0.531677
0
LINE
8
BLACK
6
CONTINUOUS
10
0.449471
20
0.531677
11
0.448462
21
0.529928
0
LINE
8
BLACK
6
CONTINUOUS
10
0.448462
20
0.529928
11
0.446564
21
0.529237
0
LINE
8
BLACK
6
CONTINUOUS
10
0.446564
20
0.529237
11
0.424066
21
0.529237
0
LINE
8
BLACK
6
CONTINUOUS
10
0.424066
20
0.529237
11
0.423056
21
0.529415
0
LINE
8
BLACK
6
CONTINUOUS
10
0.423056
20
0.529415
11
0.421509
21
0.530713
0
LINE
8
BLACK
6
CONTINUOUS
10
0.421509
20
0.530713
11
0.421158
21
0.532703
0
LINE
8
BLACK
6
CONTINUOUS
10
0.421158
20
0.532703
11
0.422168
21
0.534452
0
LINE
8
BLACK
6
CONTINUOUS
10
0.422168
20
0.534452
11
0.424066
21
0.535143
0
LINE
8
BLACK
6
CONTINUOUS
10
0.424066
20
0.535143
11
0.432362
21
0.535143
0
LINE
8
BLACK
6
CONTINUOUS
10
0.432362
20
0.535143
11
0.432362
21
0.57156
0
LINE
8
BLACK
6
CONTINUOUS
10
0.432362
20
0.57156
11
0.43254
21
0.57257
0
LINE
8
BLACK
6
CONTINUOUS
10
0.43254
20
0.57257
11
0.432649
21
0.5727
0
LINE
8
BLACK
6
CONTINUOUS
10
0.432649
20
0.5727
11
0.432668
21
0.572869
0
LINE
8
BLACK
6
CONTINUOUS
10
0.432668
20
0.572869
11
0.433288
21
0.573461
0
LINE
8
BLACK
6
CONTINUOUS
10
0.433288
20
0.573461
11
0.433839
21
0.574117
0
LINE
8
BLACK
6
CONTINUOUS
10
0.433839
20
0.574117
11
0.434006
21
0.574146
0
LINE
8
BLACK
6
CONTINUOUS
10
0.434006
20
0.574146
11
0.434129
21
0.574264
0
LINE
8
BLACK
6
CONTINUOUS
10
0.434129
20
0.574264
11
0.434984
21
0.574319
0
LINE
8
BLACK
6
CONTINUOUS
10
0.434984
20
0.574319
11
0.435828
21
0.574468
0
LINE
8
BLACK
6
CONTINUOUS
10
0.435828
20
0.574468
11
0.435975
21
0.574383
0
LINE
8
BLACK
6
CONTINUOUS
10
0.484442
20
0.574445
11
0.484572
21
0.574468
0
LINE
8
BLACK
6
CONTINUOUS
10
0.484572
20
0.574468
11
0.484685
21
0.574402
0
LINE
8
BLACK
6
CONTINUOUS
10
0.484685
20
0.574402
11
0.485069
21
0.574335
0
LINE
8
BLACK
6
CONTINUOUS
10
0.485069
20
0.574335
11
0.485656
21
0.573841
0
LINE
8
BLACK
6
CONTINUOUS
10
0.485656
20
0.573841
11
0.486321
21
0.573458
0
LINE
8
BLACK
6
CONTINUOUS
10
0.486321
20
0.573458
11
0.486412
21
0.573207
0
LINE
8
BLACK
6
CONTINUOUS
10
0.486412
20
0.573207
11
0.486616
21
0.573036
0
LINE
8
BLACK
6
CONTINUOUS
10
0.486616
20
0.573036
11
0.486749
21
0.572281
0
LINE
8
BLACK
6
CONTINUOUS
10
0.486749
20
0.572281
11
0.487012
21
0.57156
0
LINE
8
BLACK
6
CONTINUOUS
10
0.487012
20
0.57156
11
0.487012
21
0.53219
0
LINE
8
BLACK
6
CONTINUOUS
10
0.487012
20
0.53219
11
0.486944
21
0.531806
0
LINE
8
BLACK
6
CONTINUOUS
10
0.486944
20
0.531806
11
0.486967
21
0.531677
0
LINE
8
BLACK
6
CONTINUOUS
10
0.486967
20
0.531677
11
0.486901
21
0.531563
0
LINE
8
BLACK
6
CONTINUOUS
10
0.486901
20
0.531563
11
0.486834
21
0.53118
0
LINE
8
BLACK
6
CONTINUOUS
10
0.486834
20
0.53118
11
0.48634
21
0.530592
0
LINE
8
BLACK
6
CONTINUOUS
10
0.48634
20
0.530592
11
0.485957
21
0.529928
0
LINE
8
BLACK
6
CONTINUOUS
10
0.485957
20
0.529928
11
0.485706
21
0.529837
0
LINE
8
BLACK
6
CONTINUOUS
10
0.485706
20
0.529837
11
0.485535
21
0.529633
0
LINE
8
BLACK
6
CONTINUOUS
10
0.485535
20
0.529633
11
0.48478
21
0.529499
0
LINE
8
BLACK
6
CONTINUOUS
10
0.48478
20
0.529499
11
0.484059
21
0.529237
0
LINE
8
BLACK
6
CONTINUOUS
10
0.484059
20
0.529237
11
0.474685
21
0.529237
0
LINE
8
BLACK
6
CONTINUOUS
10
0.474685
20
0.529237
11
0.473816
21
0.52939
0
LINE
8
BLACK
6
CONTINUOUS
10
0.473816
20
0.52939
11
0.473751
21
0.529389
0
LINE
8
BLACK
6
CONTINUOUS
10
0.473751
20
0.529389
11
0.468127
21
0.531263
0
LINE
8
BLACK
6
CONTINUOUS
10
0.468127
20
0.531263
11
0.467225
21
0.531752
0
LINE
8
BLACK
6
CONTINUOUS
10
0.467225
20
0.531752
11
0.467133
21
0.531902
0
LINE
8
BLACK
6
CONTINUOUS
10
0.467133
20
0.531902
11
0.466973
21
0.531977
0
LINE
8
BLACK
6
CONTINUOUS
10
0.466973
20
0.531977
11
0.463223
21
0.535726
0
LINE
8
BLACK
6
CONTINUOUS
10
0.463223
20
0.535726
11
0.462717
21
0.536449
0
LINE
8
BLACK
6
CONTINUOUS
10
0.462717
20
0.536449
11
0.46267
21
0.536494
0
LINE
8
BLACK
6
CONTINUOUS
10
0.46267
20
0.536494
11
0.460795
21
0.540243
0
LINE
8
BLACK
6
CONTINUOUS
10
0.460795
20
0.540243
11
0.46065
21
0.540731
0
LINE
8
BLACK
6
CONTINUOUS
10
0.46065
20
0.540731
11
0.460572
21
0.540847
0
LINE
8
BLACK
6
CONTINUOUS
10
0.460572
20
0.540847
11
0.458697
21
0.548346
0
LINE
8
BLACK
6
CONTINUOUS
10
0.458697
20
0.548346
11
0.458656
21
0.548934
0
LINE
8
BLACK
6
CONTINUOUS
10
0.458656
20
0.548934
11
0.458609
21
0.549063
0
LINE
8
BLACK
6
CONTINUOUS
10
0.458609
20
0.549063
11
0.458609
21
0.554687
0
LINE
8
BLACK
6
CONTINUOUS
10
0.458609
20
0.554687
11
0.458711
21
0.555267
0
LINE
8
BLACK
6
CONTINUOUS
10
0.458711
20
0.555267
11
0.458697
21
0.555403
0
LINE
8
BLACK
6
CONTINUOUS
10
0.458697
20
0.555403
11
0.460572
21
0.562902
0
LINE
8
BLACK
6
CONTINUOUS
10
0.460572
20
0.562902
11
0.460779
21
0.563368
0
LINE
8
BLACK
6
CONTINUOUS
10
0.460779
20
0.563368
11
0.460795
21
0.563506
0
LINE
8
BLACK
6
CONTINUOUS
10
0.460795
20
0.563506
11
0.46267
21
0.567256
0
LINE
8
BLACK
6
CONTINUOUS
10
0.46267
20
0.567256
11
0.463196
21
0.567965
0
LINE
8
BLACK
6
CONTINUOUS
10
0.463196
20
0.567965
11
0.463223
21
0.568023
0
LINE
8
BLACK
6
CONTINUOUS
10
0.463223
20
0.568023
11
0.466973
21
0.571773
0
LINE
8
BLACK
6
CONTINUOUS
10
0.466973
20
0.571773
11
0.467813
21
0.572361
0
LINE
8
BLACK
6
CONTINUOUS
10
0.467813
20
0.572361
11
0.467989
21
0.572377
0
LINE
8
BLACK
6
CONTINUOUS
10
0.467989
20
0.572377
11
0.468127
21
0.572486
0
LINE
8
BLACK
6
CONTINUOUS
10
0.468127
20
0.572486
11
0.473751
21
0.574361
0
LINE
8
BLACK
6
CONTINUOUS
10
0.473751
20
0.574361
11
0.474624
21
0.574491
0
LINE
8
BLACK
6
CONTINUOUS
10
0.474624
20
0.574491
11
0.474685
21
0.574513
0
LINE
8
BLACK
6
CONTINUOUS
10
0.474685
20
0.574513
11
0.484059
21
0.574513
0
LINE
8
BLACK
6
CONTINUOUS
10
0.484059
20
0.574513
11
0.484442
21
0.574445
0
LINE
8
BLACK
6
CONTINUOUS
10
0.475164
20
0.568607
11
0.470656
21
0.567104
0
LINE
8
BLACK
6
CONTINUOUS
10
0.470656
20
0.567104
11
0.467738
21
0.564186
0
LINE
8
BLACK
6
CONTINUOUS
10
0.467738
20
0.564186
11
0.466222
21
0.561155
0
LINE
8
BLACK
6
CONTINUOUS
10
0.466222
20
0.561155
11
0.464514
21
0.554323
0
LINE
8
BLACK
6
CONTINUOUS
10
0.464514
20
0.554323
11
0.464514
21
0.549426
0
LINE
8
BLACK
6
CONTINUOUS
10
0.464514
20
0.549426
11
0.466222
21
0.542594
0
LINE
8
BLACK
6
CONTINUOUS
10
0.466222
20
0.542594
11
0.467738
21
0.539563
0
LINE
8
BLACK
6
CONTINUOUS
10
0.467738
20
0.539563
11
0.470656
21
0.536645
0
LINE
8
BLACK
6
CONTINUOUS
10
0.470656
20
0.536645
11
0.475164
21
0.535143
0
LINE
8
BLACK
6
CONTINUOUS
10
0.475164
20
0.535143
11
0.481106
21
0.535143
0
LINE
8
BLACK
6
CONTINUOUS
10
0.481106
20
0.535143
11
0.481106
21
0.568607
0
LINE
8
BLACK
6
CONTINUOUS
10
0.481106
20
0.568607
11
0.475164
21
0.568607
0
LINE
8
BLACK
6
CONTINUOUS
10
0.68284
20
0.165961
11
0.685049
21
0.168724
0
LINE
8
BLACK
6
CONTINUOUS
10
0.685049
20
0.168724
11
0.688238
21
0.170255
0
LINE
8
BLACK
6
CONTINUOUS
10
0.688238
20
0.170255
11
0.691775
21
0.170252
0
LINE
8
BLACK
6
CONTINUOUS
10
0.691775
20
0.170252
11
0.694962
21
0.168715
0
LINE
8
BLACK
6
CONTINUOUS
10
0.694962
20
0.168715
11
0.697166
21
0.165949
0
LINE
8
BLACK
6
CONTINUOUS
10
0.697166
20
0.165949
11
0.697953
21
0.1625
0
LINE
8
BLACK
6
CONTINUOUS
10
0.697953
20
0.1625
11
0.697953
21
0.162472
0
LINE
8
BLACK
6
CONTINUOUS
10
0.697953
20
0.162472
11
0.697154
21
0.159026
0
LINE
8
BLACK
6
CONTINUOUS
10
0.697154
20
0.159026
11
0.69494
21
0.156267
0
LINE
8
BLACK
6
CONTINUOUS
10
0.69494
20
0.156267
11
0.692953
21
0.155318
0
LINE
8
BLACK
6
CONTINUOUS
10
0.692953
20
0.155318
11
0.692953
21
0.1175
0
LINE
8
BLACK
6
CONTINUOUS
10
0.692953
20
0.1175
11
0.692775
21
0.11649
0
LINE
8
BLACK
6
CONTINUOUS
10
0.692775
20
0.11649
11
0.691476
21
0.114943
0
LINE
8
BLACK
6
CONTINUOUS
10
0.691476
20
0.114943
11
0.689487
21
0.114592
0
LINE
8
BLACK
6
CONTINUOUS
10
0.689487
20
0.114592
11
0.687738
21
0.115602
0
LINE
8
BLACK
6
CONTINUOUS
10
0.687738
20
0.115602
11
0.687047
21
0.1175
0
LINE
8
BLACK
6
CONTINUOUS
10
0.687047
20
0.1175
11
0.687047
21
0.154547
0
LINE
8
BLACK
6
CONTINUOUS
10
0.687047
20
0.154547
11
0.632953
21
0.154547
0
LINE
8
BLACK
6
CONTINUOUS
10
0.632953
20
0.154547
11
0.632953
21
0.1175
0
LINE
8
BLACK
6
CONTINUOUS
10
0.632953
20
0.1175
11
0.632775
21
0.11649
0
LINE
8
BLACK
6
CONTINUOUS
10
0.632775
20
0.11649
11
0.631476
21
0.114943
0
LINE
8
BLACK
6
CONTINUOUS
10
0.631476
20
0.114943
11
0.629487
21
0.114592
0
LINE
8
BLACK
6
CONTINUOUS
10
0.629487
20
0.114592
11
0.627738
21
0.115602
0
LINE
8
BLACK
6
CONTINUOUS
10
0.627738
20
0.115602
11
0.627047
21
0.1175
0
LINE
8
BLACK
6
CONTINUOUS
10
0.627047
20
0.1175
11
0.627047
21
0.1575
0
LINE
8
BLACK
6
CONTINUOUS
10
0.627047
20
0.1575
11
0.627115
21
0.157884
0
LINE
8
BLACK
6
CONTINUOUS
10
0.627115
20
0.157884
11
0.627092
21
0.158013
0
LINE
8
BLACK
6
CONTINUOUS
10
0.627092
20
0.158013
11
0.627158
21
0.158126
0
LINE
8
BLACK
6
CONTINUOUS
10
0.627158
20
0.158126
11
0.627225
21
0.15851
0
LINE
8
BLACK
6
CONTINUOUS
10
0.627225
20
0.15851
11
0.627718
21
0.159098
0
LINE
8
BLACK
6
CONTINUOUS
10
0.627718
20
0.159098
11
0.628102
21
0.159762
0
LINE
8
BLACK
6
CONTINUOUS
10
0.628102
20
0.159762
11
0.628352
21
0.159853
0
LINE
8
BLACK
6
CONTINUOUS
10
0.628352
20
0.159853
11
0.628524
21
0.160057
0
LINE
8
BLACK
6
CONTINUOUS
10
0.628524
20
0.160057
11
0.629279
21
0.16019
0
LINE
8
BLACK
6
CONTINUOUS
10
0.629279
20
0.16019
11
0.63
21
0.160453
0
LINE
8
BLACK
6
CONTINUOUS
10
0.63
20
0.160453
11
0.682514
21
0.160453
0
LINE
8
BLACK
6
CONTINUOUS
10
0.682514
20
0.160453
11
0.68205
21
0.1625
0
LINE
8
BLACK
6
CONTINUOUS
10
0.68205
20
0.1625
11
0.682047
21
0.162514
0
LINE
8
BLACK
6
CONTINUOUS
10
0.682047
20
0.162514
11
0.68284
21
0.165961
0
LINE
8
BLACK
6
CONTINUOUS
10
0.689593
20
0.160453
11
0.69
21
0.160453
0
LINE
8
BLACK
6
CONTINUOUS
10
0.69
20
0.160453
11
0.690286
21
0.160402
0
LINE
8
BLACK
6
CONTINUOUS
10
0.690286
20
0.160402
11
0.691567
21
0.160933
0
LINE
8
BLACK
6
CONTINUOUS
10
0.691567
20
0.160933
11
0.692216
21
0.1625
0
LINE
8
BLACK
6
CONTINUOUS
10
0.692216
20
0.1625
11
0.691567
21
0.164067
0
LINE
8
BLACK
6
CONTINUOUS
10
0.691567
20
0.164067
11
0.69
21
0.164716
0
LINE
8
BLACK
6
CONTINUOUS
10
0.69
20
0.164716
11
0.688433
21
0.164067
0
LINE
8
BLACK
6
CONTINUOUS
10
0.688433
20
0.164067
11
0.687784
21
0.1625
0
LINE
8
BLACK
6
CONTINUOUS
10
0.687784
20
0.1625
11
0.688433
21
0.160933
0
LINE
8
BLACK
6
CONTINUOUS
10
0.688433
20
0.160933
11
0.689593
21
0.160453
0
LINE
8
BLACK
6
CONTINUOUS
10
0.91034
20
0.168461
11
0.912549
21
0.171224
0
LINE
8
BLACK
6
CONTINUOUS
10
0.912549
20
0.171224
11
0.914547
21
0.172183
0
LINE
8
BLACK
6
CONTINUOUS
10
0.914547
20
0.172183
11
0.914547
21
0.21
0
LINE
8
BLACK
6
CONTINUOUS
10
0.914547
20
0.21
11
0.914725
21
0.21101
0
LINE
8
BLACK
6
CONTINUOUS
10
0.914725
20
0.21101
11
0.916024
21
0.212557
0
LINE
8
BLACK
6
CONTINUOUS
10
0.916024
20
0.212557
11
0.918013
21
0.212908
0
LINE
8
BLACK
6
CONTINUOUS
10
0.918013
20
0.212908
11
0.919762
21
0.211898
0
LINE
8
BLACK
6
CONTINUOUS
10
0.919762
20
0.211898
11
0.920453
21
0.21
0
LINE
8
BLACK
6
CONTINUOUS
10
0.920453
20
0.21
11
0.920453
21
0.172953
0
LINE
8
BLACK
6
CONTINUOUS
10
0.920453
20
0.172953
11
0.974547
21
0.172953
0
LINE
8
BLACK
6
CONTINUOUS
10
0.974547
20
0.172953
11
0.974547
21
0.21
0
LINE
8
BLACK
6
CONTINUOUS
10
0.974547
20
0.21
11
0.974725
21
0.21101
0
LINE
8
BLACK
6
CONTINUOUS
10
0.974725
20
0.21101
11
0.976024
21
0.212557
0
LINE
8
BLACK
6
CONTINUOUS
10
0.976024
20
0.212557
11
0.978013
21
0.212908
0
LINE
8
BLACK
6
CONTINUOUS
10
0.978013
20
0.212908
11
0.979762
21
0.211898
0
LINE
8
BLACK
6
CONTINUOUS
10
0.979762
20
0.211898
11
0.980453
21
0.21
0
LINE
8
BLACK
6
CONTINUOUS
10
0.980453
20
0.21
11
0.980453
21
0.17
0
LINE
8
BLACK
6
CONTINUOUS
10
0.980453
20
0.17
11
0.980385
21
0.169616
0
LINE
8
BLACK
6
CONTINUOUS
10
0.980385
20
0.169616
11
0.980408
21
0.169487
0
LINE
8
BLACK
6
CONTINUOUS
10
0.980408
20
0.169487
11
0.980342
21
0.169374
0
LINE
8
BLACK
6
CONTINUOUS
10
0.980342
20
0.169374
11
0.980275
21
0.16899
0
LINE
8
BLACK
6
CONTINUOUS
10
0.980275
20
0.16899
11
0.979782
21
0.168402
0
LINE
8
BLACK
6
CONTINUOUS
10
0.979782
20
0.168402
11
0.979398
21
0.167738
0
LINE
8
BLACK
6
CONTINUOUS
10
0.979398
20
0.167738
11
0.979148
21
0.167647
0
LINE
8
BLACK
6
CONTINUOUS
10
0.979148
20
0.167647
11
0.978976
21
0.167443
0
LINE
8
BLACK
6
CONTINUOUS
10
0.978976
20
0.167443
11
0.978221
21
0.16731
0
LINE
8
BLACK
6
CONTINUOUS
10
0.978221
20
0.16731
11
0.9775
21
0.167047
0
LINE
8
BLACK
6
CONTINUOUS
10
0.9775
20
0.167047
11
0.924986
21
0.167047
0
LINE
8
BLACK
6
CONTINUOUS
10
0.924986
20
0.167047
11
0.925453
21
0.165
0
LINE
8
BLACK
6
CONTINUOUS
10
0.925453
20
0.165
11
0.925453
21
0.164972
0
LINE
8
BLACK
6
CONTINUOUS
10
0.925453
20
0.164972
11
0.924654
21
0.161526
0
LINE
8
BLACK
6
CONTINUOUS
10
0.924654
20
0.161526
11
0.92244
21
0.158767
0
LINE
8
BLACK
6
CONTINUOUS
10
0.92244
20
0.158767
11
0.919248
21
0.157242
0
LINE
8
BLACK
6
CONTINUOUS
10
0.919248
20
0.157242
11
0.915711
21
0.157251
0
LINE
8
BLACK
6
CONTINUOUS
10
0.915711
20
0.157251
11
0.912528
21
0.158793
0
LINE
8
BLACK
6
CONTINUOUS
10
0.912528
20
0.158793
11
0.910328
21
0.161564
0
LINE
8
BLACK
6
CONTINUOUS
10
0.910328
20
0.161564
11
0.90955
21
0.165
0
LINE
8
BLACK
6
CONTINUOUS
10
0.90955
20
0.165
11
0.909547
21
0.165014
0
LINE
8
BLACK
6
CONTINUOUS
10
0.909547
20
0.165014
11
0.91034
21
0.168461
0
LINE
8
BLACK
6
CONTINUOUS
10
0.9175
20
0.162784
11
0.919067
21
0.163433
0
LINE
8
BLACK
6
CONTINUOUS
10
0.919067
20
0.163433
11
0.919716
21
0.165
0
LINE
8
BLACK
6
CONTINUOUS
10
0.919716
20
0.165
11
0.919067
21
0.166567
0
LINE
8
BLACK
6
CONTINUOUS
10
0.919067
20
0.166567
11
0.917907
21
0.167047
0
LINE
8
BLACK
6
CONTINUOUS
10
0.917907
20
0.167047
11
0.9175
21
0.167047
0
LINE
8
BLACK
6
CONTINUOUS
10
0.9175
20
0.167047
11
0.917214
21
0.167098
0
LINE
8
BLACK
6
CONTINUOUS
10
0.917214
20
0.167098
11
0.915933
21
0.166567
0
LINE
8
BLACK
6
CONTINUOUS
10
0.915933
20
0.166567
11
0.915284
21
0.165
0
LINE
8
BLACK
6
CONTINUOUS
10
0.915284
20
0.165
11
0.915933
21
0.163433
0
LINE
8
BLACK
6
CONTINUOUS
10
0.915933
20
0.163433
11
0.9175
21
0.162784
0
LINE
8
BLACK
6
CONTINUOUS
10
0.91034
20
0.308461
11
0.912549
21
0.311224
0
LINE
8
BLACK
6
CONTINUOUS
10
0.912549
20
0.311224
11
0.914547
21
0.312183
0
LINE
8
BLACK
6
CONTINUOUS
10
0.914547
20
0.312183
11
0.914547
21
0.35
0
LINE
8
BLACK
6
CONTINUOUS
10
0.914547
20
0.35
11
0.914725
21
0.35101
0
LINE
8
BLACK
6
CONTINUOUS
10
0.914725
20
0.35101
11
0.916024
21
0.352557
0
LINE
8
BLACK
6
CONTINUOUS
10
0.916024
20
0.352557
11
0.918013
21
0.352908
0
LINE
8
BLACK
6
CONTINUOUS
10
0.918013
20
0.352908
11
0.919762
21
0.351898
0
LINE
8
BLACK
6
CONTINUOUS
10
0.919762
20
0.351898
11
0.920453
21
0.35
0
LINE
8
BLACK
6
CONTINUOUS
10
0.920453
20
0.35
11
0.920453
21
0.312953
0
LINE
8
BLACK
6
CONTINUOUS
10
0.920453
20
0.312953
11
0.974547
21
0.312953
0
LINE
8
BLACK
6
CONTINUOUS
10
0.974547
20
0.312953
11
0.974547
21
0.35
0
LINE
8
BLACK
6
CONTINUOUS
10
0.974547
20
0.35
11
0.974725
21
0.35101
0
LINE
8
BLACK
6
CONTINUOUS
10
0.974725
20
0.35101
11
0.976024
21
0.352557
0
LINE
8
BLACK
6
CONTINUOUS
10
0.976024
20
0.352557
11
0.978013
21
0.352908
0
LINE
8
BLACK
6
CONTINUOUS
10
0.978013
20
0.352908
11
0.979762
21
0.351898
0
LINE
8
BLACK
6
CONTINUOUS
10
0.979762
20
0.351898
11
0.980453
21
0.35
0
LINE
8
BLACK
6
CONTINUOUS
10
0.980453
20
0.35
11
0.980453
21
0.31
0
LINE
8
BLACK
6
CONTINUOUS
10
0.980453
20
0.31
11
0.980385
21
0.309616
0
LINE
8
BLACK
6
CONTINUOUS
10
0.980385
20
0.309616
11
0.980408
21
0.309487
0
LINE
8
BLACK
6
CONTINUOUS
10
0.980408
20
0.309487
11
0.980342
21
0.309374
0
LINE
8
BLACK
6
CONTINUOUS
10
0.980342
20
0.309374
11
0.980275
21
0.30899
0
LINE
8
BLACK
6
CONTINUOUS
10
0.980275
20
0.30899
11
0.979782
21
0.308402
0
LINE
8
BLACK
6
CONTINUOUS
10
0.979782
20
0.308402
11
0.979398
21
0.307738
0
LINE
8
BLACK
6
CONTINUOUS
10
0.979398
20
0.307738
11
0.979148
21
0.307647
0
LINE
8
BLACK
6
CONTINUOUS
10
0.979148
20
0.307647
11
0.978976
21
0.307443
0
LINE
8
BLACK
6
CONTINUOUS
10
0.978976
20
0.307443
11
0.978221
21
0.30731
0
LINE
8
BLACK
6
CONTINUOUS
10
0.978221
20
0.30731
11
0.9775
21
0.307047
0
LINE
8
BLACK
6
CONTINUOUS
10
0.9775
20
0.307047
11
0.924986
21
0.307047
0
LINE
8
BLACK
6
CONTINUOUS
10
0.924986
20
0.307047
11
0.925453
21
0.305
0
LINE
8
BLACK
6
CONTINUOUS
10
0.925453
20
0.305
11
0.925453
21
0.304972
0
LINE
8
BLACK
6
CONTINUOUS
10
0.925453
20
0.304972
11
0.924654
21
0.301526
0
LINE
8
BLACK
6
CONTINUOUS
10
0.924654
20
0.301526
11
0.92244
21
0.298767
0
LINE
8
BLACK
6
CONTINUOUS
10
0.92244
20
0.298767
11
0.919248
21
0.297242
0
LINE
8
BLACK
6
CONTINUOUS
10
0.919248
20
0.297242
11
0.915711
21
0.297251
0
LINE
8
BLACK
6
CONTINUOUS
10
0.915711
20
0.297251
11
0.912528
21
0.298793
0
LINE
8
BLACK
6
CONTINUOUS
10
0.912528
20
0.298793
11
0.910328
21
0.301564
0
LINE
8
BLACK
6
CONTINUOUS
10
0.910328
20
0.301564
11
0.90955
21
0.305
0
LINE
8
BLACK
6
CONTINUOUS
10
0.90955
20
0.305
11
0.909547
21
0.305014
0
LINE
8
BLACK
6
CONTINUOUS
10
0.909547
20
0.305014
11
0.91034
21
0.308461
0
LINE
8
BLACK
6
CONTINUOUS
10
0.9175
20
0.302784
11
0.919067
21
0.303433
0
LINE
8
BLACK
6
CONTINUOUS
10
0.919067
20
0.303433
11
0.919716
21
0.305
0
LINE
8
BLACK
6
CONTINUOUS
10
0.919716
20
0.305
11
0.919067
21
0.306567
0
LINE
8
BLACK
6
CONTINUOUS
10
0.919067
20
0.306567
11
0.917907
21
0.307047
0
LINE
8
BLACK
6
CONTINUOUS
10
0.917907
20
0.307047
11
0.9175
21
0.307047
0
LINE
8
BLACK
6
CONTINUOUS
10
0.9175
20
0.307047
11
0.917214
21
0.307098
0
LINE
8
BLACK
6
CONTINUOUS
10
0.917214
20
0.307098
11
0.915933
21
0.306567
0
LINE
8
BLACK
6
CONTINUOUS
10
0.915933
20
0.306567
11
0.915284
21
0.305
0
LINE
8
BLACK
6
CONTINUOUS
10
0.915284
20
0.305
11
0.915933
21
0.303433
0
LINE
8
BLACK
6
CONTINUOUS
10
0.915933
20
0.303433
11
0.9175
21
0.302784
0
LINE
8
BLACK
6
CONTINUOUS
10
0.66284
20
0.400961
11
0.665049
21
0.403724
0
LINE
8
BLACK
6
CONTINUOUS
10
0.665049
20
0.403724
11
0.667047
21
0.404683
0
LINE
8
BLACK
6
CONTINUOUS
10
0.667047
20
0.404683
11
0.667047
21
0.4425
0
LINE
8
BLACK
6
CONTINUOUS
10
0.667047
20
0.4425
11
0.667225
21
0.44351
0
LINE
8
BLACK
6
CONTINUOUS
10
0.667225
20
0.44351
11
0.668524
21
0.445057
0
LINE
8
BLACK
6
CONTINUOUS
10
0.668524
20
0.445057
11
0.670513
21
0.445408
0
LINE
8
BLACK
6
CONTINUOUS
10
0.670513
20
0.445408
11
0.672262
21
0.444398
0
LINE
8
BLACK
6
CONTINUOUS
10
0.672262
20
0.444398
11
0.672953
21
0.4425
0
LINE
8
BLACK
6
CONTINUOUS
10
0.672953
20
0.4425
11
0.672953
21
0.405453
0
LINE
8
BLACK
6
CONTINUOUS
10
0.672953
20
0.405453
11
0.727047
21
0.405453
0
LINE
8
BLACK
6
CONTINUOUS
10
0.727047
20
0.405453
11
0.727047
21
0.4425
0
LINE
8
BLACK
6
CONTINUOUS
10
0.727047
20
0.4425
11
0.727225
21
0.44351
0
LINE
8
BLACK
6
CONTINUOUS
10
0.727225
20
0.44351
11
0.728524
21
0.445057
0
LINE
8
BLACK
6
CONTINUOUS
10
0.728524
20
0.445057
11
0.730513
21
0.445408
0
LINE
8
BLACK
6
CONTINUOUS
10
0.730513
20
0.445408
11
0.732262
21
0.444398
0
LINE
8
BLACK
6
CONTINUOUS
10
0.732262
20
0.444398
11
0.732953
21
0.4425
0
LINE
8
BLACK
6
CONTINUOUS
10
0.732953
20
0.4425
11
0.732953
21
0.4025
0
LINE
8
BLACK
6
CONTINUOUS
10
0.732953
20
0.4025
11
0.732885
21
0.402116
0
LINE
8
BLACK
6
CONTINUOUS
10
0.732885
20
0.402116
11
0.732908
21
0.401987
0
LINE
8
BLACK
6
CONTINUOUS
10
0.732908
20
0.401987
11
0.732842
21
0.401874
0
LINE
8
BLACK
6
CONTINUOUS
10
0.732842
20
0.401874
11
0.732775
21
0.40149
0
LINE
8
BLACK
6
CONTINUOUS
10
0.732775
20
0.40149
11
0.732282
21
0.400902
0
LINE
8
BLACK
6
CONTINUOUS
10
0.732282
20
0.400902
11
0.731898
21
0.400238
0
LINE
8
BLACK
6
CONTINUOUS
10
0.731898
20
0.400238
11
0.731648
21
0.400147
0
LINE
8
BLACK
6
CONTINUOUS
10
0.731648
20
0.400147
11
0.731476
21
0.399943
0
LINE
8
BLACK
6
CONTINUOUS
10
0.731476
20
0.399943
11
0.730721
21
0.39981
0
LINE
8
BLACK
6
CONTINUOUS
10
0.730721
20
0.39981
11
0.73
21
0.399547
0
LINE
8
BLACK
6
CONTINUOUS
10
0.73
20
0.399547
11
0.677486
21
0.399547
0
LINE
8
BLACK
6
CONTINUOUS
10
0.677486
20
0.399547
11
0.677953
21
0.3975
0
LINE
8
BLACK
6
CONTINUOUS
10
0.677953
20
0.3975
11
0.677953
21
0.397472
0
LINE
8
BLACK
6
CONTINUOUS
10
0.677953
20
0.397472
11
0.677154
21
0.394026
0
LINE
8
BLACK
6
CONTINUOUS
10
0.677154
20
0.394026
11
0.67494
21
0.391267
0
LINE
8
BLACK
6
CONTINUOUS
10
0.67494
20
0.391267
11
0.671748
21
0.389742
0
LINE
8
BLACK
6
CONTINUOUS
10
0.671748
20
0.389742
11
0.668211
21
0.389751
0
LINE
8
BLACK
6
CONTINUOUS
10
0.668211
20
0.389751
11
0.665028
21
0.391293
0
LINE
8
BLACK
6
CONTINUOUS
10
0.665028
20
0.391293
11
0.662828
21
0.394064
0
LINE
8
BLACK
6
CONTINUOUS
10
0.662828
20
0.394064
11
0.66205
21
0.3975
0
LINE
8
BLACK
6
CONTINUOUS
10
0.66205
20
0.3975
11
0.662047
21
0.397514
0
LINE
8
BLACK
6
CONTINUOUS
10
0.662047
20
0.397514
11
0.66284
21
0.400961
0
LINE
8
BLACK
6
CONTINUOUS
10
0.67
20
0.395284
11
0.671567
21
0.395933
0
LINE
8
BLACK
6
CONTINUOUS
10
0.671567
20
0.395933
11
0.672216
21
0.3975
0
LINE
8
BLACK
6
CONTINUOUS
10
0.672216
20
0.3975
11
0.671567
21
0.399067
0
LINE
8
BLACK
6
CONTINUOUS
10
0.671567
20
0.399067
11
0.670407
21
0.399547
0
LINE
8
BLACK
6
CONTINUOUS
10
0.670407
20
0.399547
11
0.67
21
0.399547
0
LINE
8
BLACK
6
CONTINUOUS
10
0.67
20
0.399547
11
0.669714
21
0.399598
0
LINE
8
BLACK
6
CONTINUOUS
10
0.669714
20
0.399598
11
0.668433
21
0.399067
0
LINE
8
BLACK
6
CONTINUOUS
10
0.668433
20
0.399067
11
0.667784
21
0.3975
0
LINE
8
BLACK
6
CONTINUOUS
10
0.667784
20
0.3975
11
0.668433
21
0.395933
0
LINE
8
BLACK
6
CONTINUOUS
10
0.668433
20
0.395933
11
0.67
21
0.395284
0
LINE
8
BLACK
6
CONTINUOUS
10
0.75284
20
0.400961
11
0.755049
21
0.403724
0
LINE
8
BLACK
6
CONTINUOUS
10
0.755049
20
0.403724
11
0.757047
21
0.404683
0
LINE
8
BLACK
6
CONTINUOUS
10
0.757047
20
0.404683
11
0.757047
21
0.4425
0
LINE
8
BLACK
6
CONTINUOUS
10
0.757047
20
0.4425
11
0.757225
21
0.44351
0
LINE
8
BLACK
6
CONTINUOUS
10
0.757225
20
0.44351
11
0.758524
21
0.445057
0
LINE
8
BLACK
6
CONTINUOUS
10
0.758524
20
0.445057
11
0.760513
21
0.445408
0
LINE
8
BLACK
6
CONTINUOUS
10
0.760513
20
0.445408
11
0.762262
21
0.444398
0
LINE
8
BLACK
6
CONTINUOUS
10
0.762262
20
0.444398
11
0.762953
21
0.4425
0
LINE
8
BLACK
6
CONTINUOUS
10
0.762953
20
0.4425
11
0.762953
21
0.405453
0
LINE
8
BLACK
6
CONTINUOUS
10
0.762953
20
0.405453
11
0.817047
21
0.405453
0
LINE
8
BLACK
6
CONTINUOUS
10
0.817047
20
0.405453
11
0.817047
21
0.4425
0
LINE
8
BLACK
6
CONTINUOUS
10
0.817047
20
0.4425
11
0.817225
21
0.44351
0
LINE
8
BLACK
6
CONTINUOUS
10
0.817225
20
0.44351
11
0.818524
21
0.445057
0
LINE
8
BLACK
6
CONTINUOUS
10
0.818524
20
0.445057
11
0.820513
21
0.445408
0
LINE
8
BLACK
6
CONTINUOUS
10
0.820513
20
0.445408
11
0.822262
21
0.444398
0
LINE
8
BLACK
6
CONTINUOUS
10
0.822262
20
0.444398
11
0.822953
21
0.4425
0
LINE
8
BLACK
6
CONTINUOUS
10
0.822953
20
0.4425
11
0.822953
21
0.4025
0
LINE
8
BLACK
6
CONTINUOUS
10
0.822953
20
0.4025
11
0.822885
21
0.402116
0
LINE
8
BLACK
6
CONTINUOUS
10
0.822885
20
0.402116
11
0.822908
21
0.401987
0
LINE
8
BLACK
6
CONTINUOUS
10
0.822908
20
0.401987
11
0.822842
21
0.401874
0
LINE
8
BLACK
6
CONTINUOUS
10
0.822842
20
0.401874
11
0.822775
21
0.40149
0
LINE
8
BLACK
6
CONTINUOUS
10
0.822775
20
0.40149
11
0.822282
21
0.400902
0
LINE
8
BLACK
6
CONTINUOUS
10
0.822282
20
0.400902
11
0.821898
21
0.400238
0
LINE
8
BLACK
6
CONTINUOUS
10
0.821898
20
0.400238
11
0.821648
21
0.400147
0
LINE
8
BLACK
6
CONTINUOUS
10
0.821648
20
0.400147
11
0.821476
21
0.399943
0
LINE
8
BLACK
6
CONTINUOUS
10
0.821476
20
0.399943
11
0.820721
21
0.39981
0
LINE
8
BLACK
6
CONTINUOUS
10
0.820721
20
0.39981
11
0.82
21
0.399547
0
LINE
8
BLACK
6
CONTINUOUS
10
0.82
20
0.399547
11
0.767486
21
0.399547
0
LINE
8
BLACK
6
CONTINUOUS
10
0.767486
20
0.399547
11
0.767953
21
0.3975
0
LINE
8
BLACK
6
CONTINUOUS
10
0.767953
20
0.3975
11
0.767953
21
0.397472
0
LINE
8
BLACK
6
CONTINUOUS
10
0.767953
20
0.397472
11
0.767154
21
0.394026
0
LINE
8
BLACK
6
CONTINUOUS
10
0.767154
20
0.394026
11
0.76494
21
0.391267
0
LINE
8
BLACK
6
CONTINUOUS
10
0.76494
20
0.391267
11
0.761748
21
0.389742
0
LINE
8
BLACK
6
CONTINUOUS
10
0.761748
20
0.389742
11
0.758211
21
0.389751
0
LINE
8
BLACK
6
CONTINUOUS
10
0.758211
20
0.389751
11
0.755028
21
0.391293
0
LINE
8
BLACK
6
CONTINUOUS
10
0.755028
20
0.391293
11
0.752828
21
0.394064
0
LINE
8
BLACK
6
CONTINUOUS
10
0.752828
20
0.394064
11
0.75205
21
0.3975
0
LINE
8
BLACK
6
CONTINUOUS
10
0.75205
20
0.3975
11
0.752047
21
0.397514
0
LINE
8
BLACK
6
CONTINUOUS
10
0.752047
20
0.397514
11
0.75284
21
0.400961
0
LINE
8
BLACK
6
CONTINUOUS
10
0.76
20
0.395284
11
0.761567
21
0.395933
0
LINE
8
BLACK
6
CONTINUOUS
10
0.761567
20
0.395933
11
0.762216
21
0.3975
0
LINE
8
BLACK
6
CONTINUOUS
10
0.762216
20
0.3975
11
0.761567
21
0.399067
0
LINE
8
BLACK
6
CONTINUOUS
10
0.761567
20
0.399067
11
0.760407
21
0.399547
0
LINE
8
BLACK
6
CONTINUOUS
10
0.760407
20
0.399547
11
0.76
21
0.399547
0
LINE
8
BLACK
6
CONTINUOUS
10
0.76
20
0.399547
11
0.759714
21
0.399598
0
LINE
8
BLACK
6
CONTINUOUS
10
0.759714
20
0.399598
11
0.758433
21
0.399067
0
LINE
8
BLACK
6
CONTINUOUS
10
0.758433
20
0.399067
11
0.757784
21
0.3975
0
LINE
8
BLACK
6
CONTINUOUS
10
0.757784
20
0.3975
11
0.758433
21
0.395933
0
LINE
8
BLACK
6
CONTINUOUS
10
0.758433
20
0.395933
11
0.76
21
0.395284
  0
ENDSEC
  0
EOF
