  0
SECTION
  2
HEADER
  9
$ANGBASE
  50
0.0
  9
$ANGDIR
  70
1
  9
$MEASUREMENT
  70
0
  0
ENDSEC
  0
SECTION
  2
TABLES
  0
TABLE
  2
LTYPE
  70
4
  0
LTYPE
  5
40F
  2
CONTINUOUS
  70
0
  3
Solid line
  72
65
  73
0
  40
0.0
  0
LTYPE
  5
410
  2
DASHDOT
 70
0
  3
Dash Dot ____ _ ____ _
 72
65
 73
4
 40
2.0
 49
1.25
 49
-0.25
 49
0.25
 49
-0.25
  0
LTYPE
  5
411
  2
DASHED
 70
0
  3
Dashed __ __ __ __ __
 72
65
 73
2
 40
0.75
 49
0.5
 49
-0.25
  0
LTYPE
  5
43B
  2
DOTTED
 70
0
  3
Dotted .  .  .  .
 72
65
 73
2
 40
0.2
 49
0.0
 49
-0.2
  0
ENDTAB
  0
TABLE
  2
STYLE
  70
4
  0
STYLE
  2
KICAD
  70
0
  40
0
  41
1
  42
1
  50
0
  71
0
  3
isocp.shx
  0
STYLE
  2
KICADB
  70
0
  40
0
  41
1
  42
1
  50
0
  71
0
  3
isocp.shx
  0
STYLE
  2
KICADI
  70
0
  40
0
  41
1
  42
1
  50
15
  71
0
  3
isocp.shx
  0
STYLE
  2
KICADBI
  70
0
  40
0
  41
1
  42
1
  50
15
  71
0
  3
isocp.shx
  0
ENDTAB
  0
TABLE
  2
LAYER
  70
1
  0
LAYER
  2
BLACK
  70
0
  62
7
  6
CONTINUOUS
  0
ENDTAB
  0
ENDSEC
  0
SECTION
  2
ENTITIES
0
LINE
8
BLACK
6
CONTINUOUS
10
0.743781
20
0.0337205
11
0.745328
21
0.0324222
0
LINE
8
BLACK
6
CONTINUOUS
10
0.745328
20
0.0324222
11
0.745679
21
0.0304331
0
LINE
8
BLACK
6
CONTINUOUS
10
0.745679
20
0.0304331
11
0.744669
21
0.0286839
0
LINE
8
BLACK
6
CONTINUOUS
10
0.744669
20
0.0286839
11
0.742771
21
0.0279931
0
LINE
8
BLACK
6
CONTINUOUS
10
0.742771
20
0.0279931
11
0.725101
21
0.0279931
0
LINE
8
BLACK
6
CONTINUOUS
10
0.725101
20
0.0279931
11
0.725101
21
0.0178225
0
LINE
8
BLACK
6
CONTINUOUS
10
0.725101
20
0.0178225
11
0.724923
21
0.0168126
0
LINE
8
BLACK
6
CONTINUOUS
10
0.724923
20
0.0168126
11
0.723625
21
0.0152653
0
LINE
8
BLACK
6
CONTINUOUS
10
0.723625
20
0.0152653
11
0.721636
21
0.0149146
0
LINE
8
BLACK
6
CONTINUOUS
10
0.721636
20
0.0149146
11
0.719887
21
0.0159245
0
LINE
8
BLACK
6
CONTINUOUS
10
0.719887
20
0.0159245
11
0.719196
21
0.0178225
0
LINE
8
BLACK
6
CONTINUOUS
10
0.719196
20
0.0178225
11
0.719196
21
0.0279931
0
LINE
8
BLACK
6
CONTINUOUS
10
0.719196
20
0.0279931
11
0.706354
21
0.0279931
0
LINE
8
BLACK
6
CONTINUOUS
10
0.706354
20
0.0279931
11
0.706354
21
0.0121982
0
LINE
8
BLACK
6
CONTINUOUS
10
0.706354
20
0.0121982
11
0.706175
21
0.0111883
0
LINE
8
BLACK
6
CONTINUOUS
10
0.706175
20
0.0111883
11
0.704877
21
0.00964102
0
LINE
8
BLACK
6
CONTINUOUS
10
0.704877
20
0.00964102
11
0.702888
21
0.00929028
0
LINE
8
BLACK
6
CONTINUOUS
10
0.702888
20
0.00929028
11
0.701139
21
0.0103002
0
LINE
8
BLACK
6
CONTINUOUS
10
0.701139
20
0.0103002
11
0.700448
21
0.0121982
0
LINE
8
BLACK
6
CONTINUOUS
10
0.700448
20
0.0121982
11
0.700448
21
0.0309458
0
LINE
8
BLACK
6
CONTINUOUS
10
0.700448
20
0.0309458
11
0.700516
21
0.0313294
0
LINE
8
BLACK
6
CONTINUOUS
10
0.700516
20
0.0313294
11
0.700493
21
0.0314586
0
LINE
8
BLACK
6
CONTINUOUS
10
0.700493
20
0.0314586
11
0.700558
21
0.0315722
0
LINE
8
BLACK
6
CONTINUOUS
10
0.700558
20
0.0315722
11
0.700626
21
0.0319557
0
LINE
8
BLACK
6
CONTINUOUS
10
0.700626
20
0.0319557
11
0.701119
21
0.0325434
0
LINE
8
BLACK
6
CONTINUOUS
10
0.701119
20
0.0325434
11
0.701503
21
0.0332078
0
LINE
8
BLACK
6
CONTINUOUS
10
0.701503
20
0.0332078
11
0.701753
21
0.0332989
0
LINE
8
BLACK
6
CONTINUOUS
10
0.701753
20
0.0332989
11
0.701924
21
0.033503
0
LINE
8
BLACK
6
CONTINUOUS
10
0.701924
20
0.033503
11
0.70268
21
0.0336362
0
LINE
8
BLACK
6
CONTINUOUS
10
0.70268
20
0.0336362
11
0.703401
21
0.0338986
0
LINE
8
BLACK
6
CONTINUOUS
10
0.703401
20
0.0338986
11
0.742771
21
0.0338986
0
LINE
8
BLACK
6
CONTINUOUS
10
0.742771
20
0.0338986
11
0.743781
21
0.0337205
0
LINE
8
BLACK
6
CONTINUOUS
10
0.743781
20
0.0693411
11
0.745328
21
0.0680428
0
LINE
8
BLACK
6
CONTINUOUS
10
0.745328
20
0.0680428
11
0.745679
21
0.0660536
0
LINE
8
BLACK
6
CONTINUOUS
10
0.745679
20
0.0660536
11
0.744669
21
0.0643044
0
LINE
8
BLACK
6
CONTINUOUS
10
0.744669
20
0.0643044
11
0.742771
21
0.0636136
0
LINE
8
BLACK
6
CONTINUOUS
10
0.742771
20
0.0636136
11
0.721497
21
0.0636136
0
LINE
8
BLACK
6
CONTINUOUS
10
0.721497
20
0.0636136
11
0.720826
21
0.0629425
0
LINE
8
BLACK
6
CONTINUOUS
10
0.720826
20
0.0629425
11
0.719477
21
0.060245
0
LINE
8
BLACK
6
CONTINUOUS
10
0.719477
20
0.060245
11
0.719477
21
0.0560148
0
LINE
8
BLACK
6
CONTINUOUS
10
0.719477
20
0.0560148
11
0.7206
21
0.0537691
0
LINE
8
BLACK
6
CONTINUOUS
10
0.7206
20
0.0537691
11
0.722846
21
0.0526463
0
LINE
8
BLACK
6
CONTINUOUS
10
0.722846
20
0.0526463
11
0.742771
21
0.0526463
0
LINE
8
BLACK
6
CONTINUOUS
10
0.742771
20
0.0526463
11
0.743781
21
0.0524682
0
LINE
8
BLACK
6
CONTINUOUS
10
0.743781
20
0.0524682
11
0.745328
21
0.0511699
0
LINE
8
BLACK
6
CONTINUOUS
10
0.745328
20
0.0511699
11
0.745679
21
0.0491807
0
LINE
8
BLACK
6
CONTINUOUS
10
0.745679
20
0.0491807
11
0.744669
21
0.0474316
0
LINE
8
BLACK
6
CONTINUOUS
10
0.744669
20
0.0474316
11
0.742771
21
0.0467407
0
LINE
8
BLACK
6
CONTINUOUS
10
0.742771
20
0.0467407
11
0.722148
21
0.0467407
0
LINE
8
BLACK
6
CONTINUOUS
10
0.722148
20
0.0467407
11
0.721139
21
0.0469188
0
LINE
8
BLACK
6
CONTINUOUS
10
0.721139
20
0.0469188
11
0.721003
21
0.0470323
0
LINE
8
BLACK
6
CONTINUOUS
10
0.721003
20
0.0470323
11
0.720828
21
0.0470525
0
LINE
8
BLACK
6
CONTINUOUS
10
0.720828
20
0.0470525
11
0.717078
21
0.0489272
0
LINE
8
BLACK
6
CONTINUOUS
10
0.717078
20
0.0489272
11
0.716255
21
0.0495381
0
LINE
8
BLACK
6
CONTINUOUS
10
0.716255
20
0.0495381
11
0.716079
21
0.0499438
0
LINE
8
BLACK
6
CONTINUOUS
10
0.716079
20
0.0499438
11
0.715758
21
0.0502478
0
LINE
8
BLACK
6
CONTINUOUS
10
0.715758
20
0.0502478
11
0.713883
21
0.0539973
0
LINE
8
BLACK
6
CONTINUOUS
10
0.713883
20
0.0539973
11
0.713591
21
0.0549802
0
LINE
8
BLACK
6
CONTINUOUS
10
0.713591
20
0.0549802
11
0.713632
21
0.0551519
0
LINE
8
BLACK
6
CONTINUOUS
10
0.713632
20
0.0551519
11
0.713571
21
0.0553178
0
LINE
8
BLACK
6
CONTINUOUS
10
0.713571
20
0.0553178
11
0.713571
21
0.0609421
0
LINE
8
BLACK
6
CONTINUOUS
10
0.713571
20
0.0609421
11
0.713749
21
0.061952
0
LINE
8
BLACK
6
CONTINUOUS
10
0.713749
20
0.061952
11
0.713863
21
0.0620872
0
LINE
8
BLACK
6
CONTINUOUS
10
0.713863
20
0.0620872
11
0.713883
21
0.0622626
0
LINE
8
BLACK
6
CONTINUOUS
10
0.713883
20
0.0622626
11
0.714904
21
0.0643039
0
LINE
8
BLACK
6
CONTINUOUS
10
0.714904
20
0.0643039
11
0.713967
21
0.06509
0
LINE
8
BLACK
6
CONTINUOUS
10
0.713967
20
0.06509
11
0.713616
21
0.0670791
0
LINE
8
BLACK
6
CONTINUOUS
10
0.713616
20
0.0670791
11
0.714626
21
0.0688283
0
LINE
8
BLACK
6
CONTINUOUS
10
0.714626
20
0.0688283
11
0.716524
21
0.0695191
0
LINE
8
BLACK
6
CONTINUOUS
10
0.716524
20
0.0695191
11
0.742771
21
0.0695191
0
LINE
8
BLACK
6
CONTINUOUS
10
0.742771
20
0.0695191
11
0.743781
21
0.0693411
0
LINE
8
BLACK
6
CONTINUOUS
10
0.634002
20
0.056738
11
0.633425
21
0.0581299
0
LINE
8
BLACK
6
CONTINUOUS
10
0.633425
20
0.0581299
11
0.633425
21
0.13687
0
LINE
8
BLACK
6
CONTINUOUS
10
0.633425
20
0.13687
11
0.634002
21
0.138262
0
LINE
8
BLACK
6
CONTINUOUS
10
0.634002
20
0.138262
11
0.635394
21
0.138839
0
LINE
8
BLACK
6
CONTINUOUS
10
0.635394
20
0.138839
11
0.684606
21
0.138839
0
LINE
8
BLACK
6
CONTINUOUS
10
0.684606
20
0.138839
11
0.685998
21
0.138262
0
LINE
8
BLACK
6
CONTINUOUS
10
0.685998
20
0.138262
11
0.686575
21
0.13687
0
LINE
8
BLACK
6
CONTINUOUS
10
0.686575
20
0.13687
11
0.686575
21
0.0581299
0
LINE
8
BLACK
6
CONTINUOUS
10
0.686575
20
0.0581299
11
0.685998
21
0.056738
0
LINE
8
BLACK
6
CONTINUOUS
10
0.685998
20
0.056738
11
0.684606
21
0.0561614
0
LINE
8
BLACK
6
CONTINUOUS
10
0.684606
20
0.0561614
11
0.635394
21
0.0561614
0
LINE
8
BLACK
6
CONTINUOUS
10
0.635394
20
0.0561614
11
0.634002
21
0.056738
0
LINE
8
BLACK
6
CONTINUOUS
10
0.637362
20
0.134902
11
0.637362
21
0.0600984
0
LINE
8
BLACK
6
CONTINUOUS
10
0.637362
20
0.0600984
11
0.682638
21
0.0600984
0
LINE
8
BLACK
6
CONTINUOUS
10
0.682638
20
0.0600984
11
0.682638
21
0.134902
0
LINE
8
BLACK
6
CONTINUOUS
10
0.682638
20
0.134902
11
0.637362
21
0.134902
0
LINE
8
BLACK
6
CONTINUOUS
10
0.670019
20
0.0953328
11
0.67048
21
0.0942192
0
LINE
8
BLACK
6
CONTINUOUS
10
0.67048
20
0.0942192
11
0.67048
21
0.0820332
0
LINE
8
BLACK
6
CONTINUOUS
10
0.67048
20
0.0820332
11
0.670019
21
0.0809196
0
LINE
8
BLACK
6
CONTINUOUS
10
0.670019
20
0.0809196
11
0.668905
21
0.0804584
0
LINE
8
BLACK
6
CONTINUOUS
10
0.668905
20
0.0804584
11
0.667792
21
0.0809196
0
LINE
8
BLACK
6
CONTINUOUS
10
0.667792
20
0.0809196
11
0.66733
21
0.0820332
0
LINE
8
BLACK
6
CONTINUOUS
10
0.66733
20
0.0820332
11
0.66733
21
0.0904172
0
LINE
8
BLACK
6
CONTINUOUS
10
0.66733
20
0.0904172
11
0.65877
21
0.081857
0
LINE
8
BLACK
6
CONTINUOUS
10
0.65877
20
0.081857
11
0.658431
21
0.0817168
0
LINE
8
BLACK
6
CONTINUOUS
10
0.658431
20
0.0817168
11
0.658155
21
0.0814766
0
LINE
8
BLACK
6
CONTINUOUS
10
0.658155
20
0.0814766
11
0.655342
21
0.0805392
0
LINE
8
BLACK
6
CONTINUOUS
10
0.655342
20
0.0805392
11
0.655084
21
0.0805576
0
LINE
8
BLACK
6
CONTINUOUS
10
0.655084
20
0.0805576
11
0.654844
21
0.0804584
0
LINE
8
BLACK
6
CONTINUOUS
10
0.654844
20
0.0804584
11
0.65297
21
0.0804584
0
LINE
8
BLACK
6
CONTINUOUS
10
0.65297
20
0.0804584
11
0.652631
21
0.0805987
0
LINE
8
BLACK
6
CONTINUOUS
10
0.652631
20
0.0805987
11
0.652265
21
0.0806246
0
LINE
8
BLACK
6
CONTINUOUS
10
0.652265
20
0.0806246
11
0.650391
21
0.081562
0
LINE
8
BLACK
6
CONTINUOUS
10
0.650391
20
0.081562
11
0.650221
21
0.0817579
0
LINE
8
BLACK
6
CONTINUOUS
10
0.650221
20
0.0817579
11
0.649981
21
0.081857
0
LINE
8
BLACK
6
CONTINUOUS
10
0.649981
20
0.081857
11
0.649044
21
0.0827944
0
LINE
8
BLACK
6
CONTINUOUS
10
0.649044
20
0.0827944
11
0.648945
21
0.0830338
0
LINE
8
BLACK
6
CONTINUOUS
10
0.648945
20
0.0830338
11
0.648749
21
0.0832037
0
LINE
8
BLACK
6
CONTINUOUS
10
0.648749
20
0.0832037
11
0.647812
21
0.0850784
0
LINE
8
BLACK
6
CONTINUOUS
10
0.647812
20
0.0850784
11
0.647786
21
0.0854441
0
LINE
8
BLACK
6
CONTINUOUS
10
0.647786
20
0.0854441
11
0.647645
21
0.0857827
0
LINE
8
BLACK
6
CONTINUOUS
10
0.647645
20
0.0857827
11
0.647645
21
0.0904696
0
LINE
8
BLACK
6
CONTINUOUS
10
0.647645
20
0.0904696
11
0.647786
21
0.0908083
0
LINE
8
BLACK
6
CONTINUOUS
10
0.647786
20
0.0908083
11
0.647812
21
0.0911739
0
LINE
8
BLACK
6
CONTINUOUS
10
0.647812
20
0.0911739
11
0.648749
21
0.0930487
0
LINE
8
BLACK
6
CONTINUOUS
10
0.648749
20
0.0930487
11
0.648945
21
0.0932185
0
LINE
8
BLACK
6
CONTINUOUS
10
0.648945
20
0.0932185
11
0.649044
21
0.093458
0
LINE
8
BLACK
6
CONTINUOUS
10
0.649044
20
0.093458
11
0.649981
21
0.0943954
0
LINE
8
BLACK
6
CONTINUOUS
10
0.649981
20
0.0943954
11
0.651095
21
0.0948566
0
LINE
8
BLACK
6
CONTINUOUS
10
0.651095
20
0.0948566
11
0.652208
21
0.0943954
0
LINE
8
BLACK
6
CONTINUOUS
10
0.652208
20
0.0943954
11
0.65267
21
0.0932819
0
LINE
8
BLACK
6
CONTINUOUS
10
0.65267
20
0.0932819
11
0.652208
21
0.0921683
0
LINE
8
BLACK
6
CONTINUOUS
10
0.652208
20
0.0921683
11
0.651452
21
0.0914116
0
LINE
8
BLACK
6
CONTINUOUS
10
0.651452
20
0.0914116
11
0.650795
21
0.0900979
0
LINE
8
BLACK
6
CONTINUOUS
10
0.650795
20
0.0900979
11
0.650795
21
0.0861545
0
LINE
8
BLACK
6
CONTINUOUS
10
0.650795
20
0.0861545
11
0.651452
21
0.0848407
0
LINE
8
BLACK
6
CONTINUOUS
10
0.651452
20
0.0848407
11
0.652028
21
0.0842649
0
LINE
8
BLACK
6
CONTINUOUS
10
0.652028
20
0.0842649
11
0.653341
21
0.083608
0
LINE
8
BLACK
6
CONTINUOUS
10
0.653341
20
0.083608
11
0.654589
21
0.083608
0
LINE
8
BLACK
6
CONTINUOUS
10
0.654589
20
0.083608
11
0.656806
21
0.084347
0
LINE
8
BLACK
6
CONTINUOUS
10
0.656806
20
0.084347
11
0.667792
21
0.0953328
0
LINE
8
BLACK
6
CONTINUOUS
10
0.667792
20
0.0953328
11
0.668905
21
0.095794
0
LINE
8
BLACK
6
CONTINUOUS
10
0.668905
20
0.095794
11
0.670019
21
0.0953328
0
LINE
8
BLACK
6
CONTINUOUS
10
0.660653
20
0.114465
11
0.660851
21
0.114495
0
LINE
8
BLACK
6
CONTINUOUS
10
0.660851
20
0.114495
11
0.6646
21
0.113557
0
LINE
8
BLACK
6
CONTINUOUS
10
0.6646
20
0.113557
11
0.664744
21
0.113451
0
LINE
8
BLACK
6
CONTINUOUS
10
0.664744
20
0.113451
11
0.664922
21
0.113438
0
LINE
8
BLACK
6
CONTINUOUS
10
0.664922
20
0.113438
11
0.666797
21
0.112501
0
LINE
8
BLACK
6
CONTINUOUS
10
0.666797
20
0.112501
11
0.666967
21
0.112305
0
LINE
8
BLACK
6
CONTINUOUS
10
0.666967
20
0.112305
11
0.667206
21
0.112206
0
LINE
8
BLACK
6
CONTINUOUS
10
0.667206
20
0.112206
11
0.669081
21
0.110331
0
LINE
8
BLACK
6
CONTINUOUS
10
0.669081
20
0.110331
11
0.669222
21
0.109992
0
LINE
8
BLACK
6
CONTINUOUS
10
0.669222
20
0.109992
11
0.669462
21
0.109715
0
LINE
8
BLACK
6
CONTINUOUS
10
0.669462
20
0.109715
11
0.670399
21
0.106903
0
LINE
8
BLACK
6
CONTINUOUS
10
0.670399
20
0.106903
11
0.670381
21
0.106645
0
LINE
8
BLACK
6
CONTINUOUS
10
0.670381
20
0.106645
11
0.67048
21
0.106405
0
LINE
8
BLACK
6
CONTINUOUS
10
0.67048
20
0.106405
11
0.67048
21
0.10453
0
LINE
8
BLACK
6
CONTINUOUS
10
0.67048
20
0.10453
11
0.670381
21
0.104291
0
LINE
8
BLACK
6
CONTINUOUS
10
0.670381
20
0.104291
11
0.670399
21
0.104032
0
LINE
8
BLACK
6
CONTINUOUS
10
0.670399
20
0.104032
11
0.669462
21
0.10122
0
LINE
8
BLACK
6
CONTINUOUS
10
0.669462
20
0.10122
11
0.669222
21
0.100943
0
LINE
8
BLACK
6
CONTINUOUS
10
0.669222
20
0.100943
11
0.669081
21
0.100605
0
LINE
8
BLACK
6
CONTINUOUS
10
0.669081
20
0.100605
11
0.668144
21
0.0996673
0
LINE
8
BLACK
6
CONTINUOUS
10
0.668144
20
0.0996673
11
0.66703
21
0.0992061
0
LINE
8
BLACK
6
CONTINUOUS
10
0.66703
20
0.0992061
11
0.665917
21
0.0996673
0
LINE
8
BLACK
6
CONTINUOUS
10
0.665917
20
0.0996673
11
0.665456
21
0.100781
0
LINE
8
BLACK
6
CONTINUOUS
10
0.665456
20
0.100781
11
0.665917
21
0.101894
0
LINE
8
BLACK
6
CONTINUOUS
10
0.665917
20
0.101894
11
0.666591
21
0.102569
0
LINE
8
BLACK
6
CONTINUOUS
10
0.666591
20
0.102569
11
0.66733
21
0.104786
0
LINE
8
BLACK
6
CONTINUOUS
10
0.66733
20
0.104786
11
0.66733
21
0.10615
0
LINE
8
BLACK
6
CONTINUOUS
10
0.66733
20
0.10615
11
0.666591
21
0.108367
0
LINE
8
BLACK
6
CONTINUOUS
10
0.666591
20
0.108367
11
0.66516
21
0.109798
0
LINE
8
BLACK
6
CONTINUOUS
10
0.66516
20
0.109798
11
0.663669
21
0.110544
0
LINE
8
BLACK
6
CONTINUOUS
10
0.663669
20
0.110544
11
0.660275
21
0.111392
0
LINE
8
BLACK
6
CONTINUOUS
10
0.660275
20
0.111392
11
0.65785
21
0.111392
0
LINE
8
BLACK
6
CONTINUOUS
10
0.65785
20
0.111392
11
0.654457
21
0.110544
0
LINE
8
BLACK
6
CONTINUOUS
10
0.654457
20
0.110544
11
0.652965
21
0.109798
0
LINE
8
BLACK
6
CONTINUOUS
10
0.652965
20
0.109798
11
0.651534
21
0.108367
0
LINE
8
BLACK
6
CONTINUOUS
10
0.651534
20
0.108367
11
0.650795
21
0.10615
0
LINE
8
BLACK
6
CONTINUOUS
10
0.650795
20
0.10615
11
0.650795
21
0.104786
0
LINE
8
BLACK
6
CONTINUOUS
10
0.650795
20
0.104786
11
0.651534
21
0.102569
0
LINE
8
BLACK
6
CONTINUOUS
10
0.651534
20
0.102569
11
0.652208
21
0.101894
0
LINE
8
BLACK
6
CONTINUOUS
10
0.652208
20
0.101894
11
0.65267
21
0.100781
0
LINE
8
BLACK
6
CONTINUOUS
10
0.65267
20
0.100781
11
0.652208
21
0.0996673
0
LINE
8
BLACK
6
CONTINUOUS
10
0.652208
20
0.0996673
11
0.651095
21
0.0992061
0
LINE
8
BLACK
6
CONTINUOUS
10
0.651095
20
0.0992061
11
0.649981
21
0.0996673
0
LINE
8
BLACK
6
CONTINUOUS
10
0.649981
20
0.0996673
11
0.649044
21
0.100605
0
LINE
8
BLACK
6
CONTINUOUS
10
0.649044
20
0.100605
11
0.648904
21
0.100943
0
LINE
8
BLACK
6
CONTINUOUS
10
0.648904
20
0.100943
11
0.648664
21
0.10122
0
LINE
8
BLACK
6
CONTINUOUS
10
0.648664
20
0.10122
11
0.647726
21
0.104032
0
LINE
8
BLACK
6
CONTINUOUS
10
0.647726
20
0.104032
11
0.647744
21
0.104291
0
LINE
8
BLACK
6
CONTINUOUS
10
0.647744
20
0.104291
11
0.647645
21
0.10453
0
LINE
8
BLACK
6
CONTINUOUS
10
0.647645
20
0.10453
11
0.647645
21
0.106405
0
LINE
8
BLACK
6
CONTINUOUS
10
0.647645
20
0.106405
11
0.647744
21
0.106645
0
LINE
8
BLACK
6
CONTINUOUS
10
0.647744
20
0.106645
11
0.647726
21
0.106903
0
LINE
8
BLACK
6
CONTINUOUS
10
0.647726
20
0.106903
11
0.648664
21
0.109715
0
LINE
8
BLACK
6
CONTINUOUS
10
0.648664
20
0.109715
11
0.648904
21
0.109992
0
LINE
8
BLACK
6
CONTINUOUS
10
0.648904
20
0.109992
11
0.649044
21
0.110331
0
LINE
8
BLACK
6
CONTINUOUS
10
0.649044
20
0.110331
11
0.650919
21
0.112206
0
LINE
8
BLACK
6
CONTINUOUS
10
0.650919
20
0.112206
11
0.651158
21
0.112305
0
LINE
8
BLACK
6
CONTINUOUS
10
0.651158
20
0.112305
11
0.651328
21
0.112501
0
LINE
8
BLACK
6
CONTINUOUS
10
0.651328
20
0.112501
11
0.653203
21
0.113438
0
LINE
8
BLACK
6
CONTINUOUS
10
0.653203
20
0.113438
11
0.653381
21
0.113451
0
LINE
8
BLACK
6
CONTINUOUS
10
0.653381
20
0.113451
11
0.653525
21
0.113557
0
LINE
8
BLACK
6
CONTINUOUS
10
0.653525
20
0.113557
11
0.657275
21
0.114495
0
LINE
8
BLACK
6
CONTINUOUS
10
0.657275
20
0.114495
11
0.657472
21
0.114465
0
LINE
8
BLACK
6
CONTINUOUS
10
0.657472
20
0.114465
11
0.657657
21
0.114542
0
LINE
8
BLACK
6
CONTINUOUS
10
0.657657
20
0.114542
11
0.660469
21
0.114542
0
LINE
8
BLACK
6
CONTINUOUS
10
0.660469
20
0.114542
11
0.660653
21
0.114465
0
LINE
8
BLACK
6
CONTINUOUS
10
0.728353
20
0.108787
11
0.728489
21
0.108801
0
LINE
8
BLACK
6
CONTINUOUS
10
0.728489
20
0.108801
11
0.735988
21
0.106926
0
LINE
8
BLACK
6
CONTINUOUS
10
0.735988
20
0.106926
11
0.736453
21
0.106719
0
LINE
8
BLACK
6
CONTINUOUS
10
0.736453
20
0.106719
11
0.736592
21
0.106703
0
LINE
8
BLACK
6
CONTINUOUS
10
0.736592
20
0.106703
11
0.740342
21
0.104828
0
LINE
8
BLACK
6
CONTINUOUS
10
0.740342
20
0.104828
11
0.741051
21
0.104302
0
LINE
8
BLACK
6
CONTINUOUS
10
0.741051
20
0.104302
11
0.741109
21
0.104275
0
LINE
8
BLACK
6
CONTINUOUS
10
0.741109
20
0.104275
11
0.742984
21
0.1024
0
LINE
8
BLACK
6
CONTINUOUS
10
0.742984
20
0.1024
11
0.74349
21
0.101677
0
LINE
8
BLACK
6
CONTINUOUS
10
0.74349
20
0.101677
11
0.743537
21
0.101633
0
LINE
8
BLACK
6
CONTINUOUS
10
0.743537
20
0.101633
11
0.745412
21
0.0978831
0
LINE
8
BLACK
6
CONTINUOUS
10
0.745412
20
0.0978831
11
0.745704
21
0.0969002
0
LINE
8
BLACK
6
CONTINUOUS
10
0.745704
20
0.0969002
11
0.745663
21
0.0967285
0
LINE
8
BLACK
6
CONTINUOUS
10
0.745663
20
0.0967285
11
0.745724
21
0.0965626
0
LINE
8
BLACK
6
CONTINUOUS
10
0.745724
20
0.0965626
11
0.745724
21
0.0928131
0
LINE
8
BLACK
6
CONTINUOUS
10
0.745724
20
0.0928131
11
0.745546
21
0.0918032
0
LINE
8
BLACK
6
CONTINUOUS
10
0.745546
20
0.0918032
11
0.745432
21
0.091668
0
LINE
8
BLACK
6
CONTINUOUS
10
0.745432
20
0.091668
11
0.745412
21
0.0914926
0
LINE
8
BLACK
6
CONTINUOUS
10
0.745412
20
0.0914926
11
0.743537
21
0.0877431
0
LINE
8
BLACK
6
CONTINUOUS
10
0.743537
20
0.0877431
11
0.743011
21
0.087034
0
LINE
8
BLACK
6
CONTINUOUS
10
0.743011
20
0.087034
11
0.742984
21
0.0869757
0
LINE
8
BLACK
6
CONTINUOUS
10
0.742984
20
0.0869757
11
0.741109
21
0.0851009
0
LINE
8
BLACK
6
CONTINUOUS
10
0.741109
20
0.0851009
11
0.740386
21
0.0845946
0
LINE
8
BLACK
6
CONTINUOUS
10
0.740386
20
0.0845946
11
0.740342
21
0.0845478
0
LINE
8
BLACK
6
CONTINUOUS
10
0.740342
20
0.0845478
11
0.736592
21
0.082673
0
LINE
8
BLACK
6
CONTINUOUS
10
0.736592
20
0.082673
11
0.736104
21
0.0825278
0
LINE
8
BLACK
6
CONTINUOUS
10
0.736104
20
0.0825278
11
0.735988
21
0.0824494
0
LINE
8
BLACK
6
CONTINUOUS
10
0.735988
20
0.0824494
11
0.728489
21
0.0805747
0
LINE
8
BLACK
6
CONTINUOUS
10
0.728489
20
0.0805747
11
0.727901
21
0.0805332
0
LINE
8
BLACK
6
CONTINUOUS
10
0.727901
20
0.0805332
11
0.727773
21
0.0804865
0
LINE
8
BLACK
6
CONTINUOUS
10
0.727773
20
0.0804865
11
0.718399
21
0.0804865
0
LINE
8
BLACK
6
CONTINUOUS
10
0.718399
20
0.0804865
11
0.717819
21
0.0805889
0
LINE
8
BLACK
6
CONTINUOUS
10
0.717819
20
0.0805889
11
0.717683
21
0.0805747
0
LINE
8
BLACK
6
CONTINUOUS
10
0.717683
20
0.0805747
11
0.710184
21
0.0824494
0
LINE
8
BLACK
6
CONTINUOUS
10
0.710184
20
0.0824494
11
0.709718
21
0.082657
0
LINE
8
BLACK
6
CONTINUOUS
10
0.709718
20
0.082657
11
0.709579
21
0.082673
0
LINE
8
BLACK
6
CONTINUOUS
10
0.709579
20
0.082673
11
0.70583
21
0.0845478
0
LINE
8
BLACK
6
CONTINUOUS
10
0.70583
20
0.0845478
11
0.705121
21
0.0850737
0
LINE
8
BLACK
6
CONTINUOUS
10
0.705121
20
0.0850737
11
0.705062
21
0.0851009
0
LINE
8
BLACK
6
CONTINUOUS
10
0.705062
20
0.0851009
11
0.703188
21
0.0869757
0
LINE
8
BLACK
6
CONTINUOUS
10
0.703188
20
0.0869757
11
0.702681
21
0.0876986
0
LINE
8
BLACK
6
CONTINUOUS
10
0.702681
20
0.0876986
11
0.702635
21
0.087743
0
LINE
8
BLACK
6
CONTINUOUS
10
0.702635
20
0.087743
11
0.70076
21
0.0914926
0
LINE
8
BLACK
6
CONTINUOUS
10
0.70076
20
0.0914926
11
0.700467
21
0.0924755
0
LINE
8
BLACK
6
CONTINUOUS
10
0.700467
20
0.0924755
11
0.700508
21
0.0926472
0
LINE
8
BLACK
6
CONTINUOUS
10
0.700508
20
0.0926472
11
0.700448
21
0.0928131
0
LINE
8
BLACK
6
CONTINUOUS
10
0.700448
20
0.0928131
11
0.700448
21
0.0965626
0
LINE
8
BLACK
6
CONTINUOUS
10
0.700448
20
0.0965626
11
0.700626
21
0.0975726
0
LINE
8
BLACK
6
CONTINUOUS
10
0.700626
20
0.0975726
11
0.70074
21
0.0977078
0
LINE
8
BLACK
6
CONTINUOUS
10
0.70074
20
0.0977078
11
0.70076
21
0.0978832
0
LINE
8
BLACK
6
CONTINUOUS
10
0.70076
20
0.0978832
11
0.702635
21
0.101633
0
LINE
8
BLACK
6
CONTINUOUS
10
0.702635
20
0.101633
11
0.70316
21
0.102342
0
LINE
8
BLACK
6
CONTINUOUS
10
0.70316
20
0.102342
11
0.703188
21
0.1024
0
LINE
8
BLACK
6
CONTINUOUS
10
0.703188
20
0.1024
11
0.705062
21
0.104275
0
LINE
8
BLACK
6
CONTINUOUS
10
0.705062
20
0.104275
11
0.705786
21
0.104781
0
LINE
8
BLACK
6
CONTINUOUS
10
0.705786
20
0.104781
11
0.70583
21
0.104828
0
LINE
8
BLACK
6
CONTINUOUS
10
0.70583
20
0.104828
11
0.709579
21
0.106703
0
LINE
8
BLACK
6
CONTINUOUS
10
0.709579
20
0.106703
11
0.710068
21
0.106848
0
LINE
8
BLACK
6
CONTINUOUS
10
0.710068
20
0.106848
11
0.710184
21
0.106926
0
LINE
8
BLACK
6
CONTINUOUS
10
0.710184
20
0.106926
11
0.717683
21
0.108801
0
LINE
8
BLACK
6
CONTINUOUS
10
0.717683
20
0.108801
11
0.718271
21
0.108843
0
LINE
8
BLACK
6
CONTINUOUS
10
0.718271
20
0.108843
11
0.718399
21
0.108889
0
LINE
8
BLACK
6
CONTINUOUS
10
0.718399
20
0.108889
11
0.727773
21
0.108889
0
LINE
8
BLACK
6
CONTINUOUS
10
0.727773
20
0.108889
11
0.728353
21
0.108787
0
LINE
8
BLACK
6
CONTINUOUS
10
0.718762
20
0.102984
11
0.71193
21
0.101276
0
LINE
8
BLACK
6
CONTINUOUS
10
0.71193
20
0.101276
11
0.708899
21
0.0997602
0
LINE
8
BLACK
6
CONTINUOUS
10
0.708899
20
0.0997602
11
0.707702
21
0.0985631
0
LINE
8
BLACK
6
CONTINUOUS
10
0.707702
20
0.0985631
11
0.706354
21
0.0958656
0
LINE
8
BLACK
6
CONTINUOUS
10
0.706354
20
0.0958656
11
0.706354
21
0.0935102
0
LINE
8
BLACK
6
CONTINUOUS
10
0.706354
20
0.0935102
11
0.707702
21
0.0908127
0
LINE
8
BLACK
6
CONTINUOUS
10
0.707702
20
0.0908127
11
0.708899
21
0.0896156
0
LINE
8
BLACK
6
CONTINUOUS
10
0.708899
20
0.0896156
11
0.71193
21
0.0881
0
LINE
8
BLACK
6
CONTINUOUS
10
0.71193
20
0.0881
11
0.718762
21
0.086392
0
LINE
8
BLACK
6
CONTINUOUS
10
0.718762
20
0.086392
11
0.727409
21
0.086392
0
LINE
8
BLACK
6
CONTINUOUS
10
0.727409
20
0.086392
11
0.734241
21
0.0881
0
LINE
8
BLACK
6
CONTINUOUS
10
0.734241
20
0.0881
11
0.737272
21
0.0896156
0
LINE
8
BLACK
6
CONTINUOUS
10
0.737272
20
0.0896156
11
0.738469
21
0.0908127
0
LINE
8
BLACK
6
CONTINUOUS
10
0.738469
20
0.0908127
11
0.739818
21
0.0935102
0
LINE
8
BLACK
6
CONTINUOUS
10
0.739818
20
0.0935102
11
0.739818
21
0.0958656
0
LINE
8
BLACK
6
CONTINUOUS
10
0.739818
20
0.0958656
11
0.738469
21
0.0985631
0
LINE
8
BLACK
6
CONTINUOUS
10
0.738469
20
0.0985631
11
0.737272
21
0.0997602
0
LINE
8
BLACK
6
CONTINUOUS
10
0.737272
20
0.0997602
11
0.734241
21
0.101276
0
LINE
8
BLACK
6
CONTINUOUS
10
0.734241
20
0.101276
11
0.727409
21
0.102984
0
LINE
8
BLACK
6
CONTINUOUS
10
0.727409
20
0.102984
11
0.718762
21
0.102984
0
LINE
8
BLACK
6
CONTINUOUS
10
0.728353
20
0.146282
11
0.728489
21
0.146296
0
LINE
8
BLACK
6
CONTINUOUS
10
0.728489
20
0.146296
11
0.735988
21
0.144422
0
LINE
8
BLACK
6
CONTINUOUS
10
0.735988
20
0.144422
11
0.736453
21
0.144214
0
LINE
8
BLACK
6
CONTINUOUS
10
0.736453
20
0.144214
11
0.736592
21
0.144198
0
LINE
8
BLACK
6
CONTINUOUS
10
0.736592
20
0.144198
11
0.740342
21
0.142323
0
LINE
8
BLACK
6
CONTINUOUS
10
0.740342
20
0.142323
11
0.741051
21
0.141797
0
LINE
8
BLACK
6
CONTINUOUS
10
0.741051
20
0.141797
11
0.741109
21
0.14177
0
LINE
8
BLACK
6
CONTINUOUS
10
0.741109
20
0.14177
11
0.742984
21
0.139895
0
LINE
8
BLACK
6
CONTINUOUS
10
0.742984
20
0.139895
11
0.74349
21
0.139172
0
LINE
8
BLACK
6
CONTINUOUS
10
0.74349
20
0.139172
11
0.743537
21
0.139128
0
LINE
8
BLACK
6
CONTINUOUS
10
0.743537
20
0.139128
11
0.745412
21
0.135378
0
LINE
8
BLACK
6
CONTINUOUS
10
0.745412
20
0.135378
11
0.745704
21
0.134396
0
LINE
8
BLACK
6
CONTINUOUS
10
0.745704
20
0.134396
11
0.745663
21
0.134224
0
LINE
8
BLACK
6
CONTINUOUS
10
0.745663
20
0.134224
11
0.745724
21
0.134058
0
LINE
8
BLACK
6
CONTINUOUS
10
0.745724
20
0.134058
11
0.745724
21
0.130308
0
LINE
8
BLACK
6
CONTINUOUS
10
0.745724
20
0.130308
11
0.745546
21
0.129299
0
LINE
8
BLACK
6
CONTINUOUS
10
0.745546
20
0.129299
11
0.745432
21
0.129163
0
LINE
8
BLACK
6
CONTINUOUS
10
0.745432
20
0.129163
11
0.745412
21
0.128988
0
LINE
8
BLACK
6
CONTINUOUS
10
0.745412
20
0.128988
11
0.743537
21
0.125238
0
LINE
8
BLACK
6
CONTINUOUS
10
0.743537
20
0.125238
11
0.743011
21
0.124529
0
LINE
8
BLACK
6
CONTINUOUS
10
0.743011
20
0.124529
11
0.742984
21
0.124471
0
LINE
8
BLACK
6
CONTINUOUS
10
0.742984
20
0.124471
11
0.741109
21
0.122596
0
LINE
8
BLACK
6
CONTINUOUS
10
0.741109
20
0.122596
11
0.740386
21
0.12209
0
LINE
8
BLACK
6
CONTINUOUS
10
0.740386
20
0.12209
11
0.740342
21
0.122043
0
LINE
8
BLACK
6
CONTINUOUS
10
0.740342
20
0.122043
11
0.736592
21
0.120168
0
LINE
8
BLACK
6
CONTINUOUS
10
0.736592
20
0.120168
11
0.736104
21
0.120023
0
LINE
8
BLACK
6
CONTINUOUS
10
0.736104
20
0.120023
11
0.735988
21
0.119945
0
LINE
8
BLACK
6
CONTINUOUS
10
0.735988
20
0.119945
11
0.728489
21
0.11807
0
LINE
8
BLACK
6
CONTINUOUS
10
0.728489
20
0.11807
11
0.727901
21
0.118029
0
LINE
8
BLACK
6
CONTINUOUS
10
0.727901
20
0.118029
11
0.727773
21
0.117982
0
LINE
8
BLACK
6
CONTINUOUS
10
0.727773
20
0.117982
11
0.718399
21
0.117982
0
LINE
8
BLACK
6
CONTINUOUS
10
0.718399
20
0.117982
11
0.717819
21
0.118084
0
LINE
8
BLACK
6
CONTINUOUS
10
0.717819
20
0.118084
11
0.717683
21
0.11807
0
LINE
8
BLACK
6
CONTINUOUS
10
0.717683
20
0.11807
11
0.710184
21
0.119945
0
LINE
8
BLACK
6
CONTINUOUS
10
0.710184
20
0.119945
11
0.709718
21
0.120152
0
LINE
8
BLACK
6
CONTINUOUS
10
0.709718
20
0.120152
11
0.709579
21
0.120168
0
LINE
8
BLACK
6
CONTINUOUS
10
0.709579
20
0.120168
11
0.70583
21
0.122043
0
LINE
8
BLACK
6
CONTINUOUS
10
0.70583
20
0.122043
11
0.705121
21
0.122569
0
LINE
8
BLACK
6
CONTINUOUS
10
0.705121
20
0.122569
11
0.705062
21
0.122596
0
LINE
8
BLACK
6
CONTINUOUS
10
0.705062
20
0.122596
11
0.703188
21
0.124471
0
LINE
8
BLACK
6
CONTINUOUS
10
0.703188
20
0.124471
11
0.702681
21
0.125194
0
LINE
8
BLACK
6
CONTINUOUS
10
0.702681
20
0.125194
11
0.702635
21
0.125238
0
LINE
8
BLACK
6
CONTINUOUS
10
0.702635
20
0.125238
11
0.70076
21
0.128988
0
LINE
8
BLACK
6
CONTINUOUS
10
0.70076
20
0.128988
11
0.700467
21
0.129971
0
LINE
8
BLACK
6
CONTINUOUS
10
0.700467
20
0.129971
11
0.700508
21
0.130143
0
LINE
8
BLACK
6
CONTINUOUS
10
0.700508
20
0.130143
11
0.700448
21
0.130308
0
LINE
8
BLACK
6
CONTINUOUS
10
0.700448
20
0.130308
11
0.700448
21
0.134058
0
LINE
8
BLACK
6
CONTINUOUS
10
0.700448
20
0.134058
11
0.700626
21
0.135068
0
LINE
8
BLACK
6
CONTINUOUS
10
0.700626
20
0.135068
11
0.70074
21
0.135203
0
LINE
8
BLACK
6
CONTINUOUS
10
0.70074
20
0.135203
11
0.70076
21
0.135379
0
LINE
8
BLACK
6
CONTINUOUS
10
0.70076
20
0.135379
11
0.702635
21
0.139128
0
LINE
8
BLACK
6
CONTINUOUS
10
0.702635
20
0.139128
11
0.70316
21
0.139837
0
LINE
8
BLACK
6
CONTINUOUS
10
0.70316
20
0.139837
11
0.703188
21
0.139895
0
LINE
8
BLACK
6
CONTINUOUS
10
0.703188
20
0.139895
11
0.705062
21
0.14177
0
LINE
8
BLACK
6
CONTINUOUS
10
0.705062
20
0.14177
11
0.705786
21
0.142276
0
LINE
8
BLACK
6
CONTINUOUS
10
0.705786
20
0.142276
11
0.70583
21
0.142323
0
LINE
8
BLACK
6
CONTINUOUS
10
0.70583
20
0.142323
11
0.709579
21
0.144198
0
LINE
8
BLACK
6
CONTINUOUS
10
0.709579
20
0.144198
11
0.710068
21
0.144343
0
LINE
8
BLACK
6
CONTINUOUS
10
0.710068
20
0.144343
11
0.710184
21
0.144422
0
LINE
8
BLACK
6
CONTINUOUS
10
0.710184
20
0.144422
11
0.717683
21
0.146296
0
LINE
8
BLACK
6
CONTINUOUS
10
0.717683
20
0.146296
11
0.718271
21
0.146338
0
LINE
8
BLACK
6
CONTINUOUS
10
0.718271
20
0.146338
11
0.718399
21
0.146385
0
LINE
8
BLACK
6
CONTINUOUS
10
0.718399
20
0.146385
11
0.727773
21
0.146385
0
LINE
8
BLACK
6
CONTINUOUS
10
0.727773
20
0.146385
11
0.728353
21
0.146282
0
LINE
8
BLACK
6
CONTINUOUS
10
0.718762
20
0.140479
11
0.71193
21
0.138771
0
LINE
8
BLACK
6
CONTINUOUS
10
0.71193
20
0.138771
11
0.708899
21
0.137256
0
LINE
8
BLACK
6
CONTINUOUS
10
0.708899
20
0.137256
11
0.707702
21
0.136058
0
LINE
8
BLACK
6
CONTINUOUS
10
0.707702
20
0.136058
11
0.706354
21
0.133361
0
LINE
8
BLACK
6
CONTINUOUS
10
0.706354
20
0.133361
11
0.706354
21
0.131006
0
LINE
8
BLACK
6
CONTINUOUS
10
0.706354
20
0.131006
11
0.707702
21
0.128308
0
LINE
8
BLACK
6
CONTINUOUS
10
0.707702
20
0.128308
11
0.708899
21
0.127111
0
LINE
8
BLACK
6
CONTINUOUS
10
0.708899
20
0.127111
11
0.71193
21
0.125595
0
LINE
8
BLACK
6
CONTINUOUS
10
0.71193
20
0.125595
11
0.718762
21
0.123887
0
LINE
8
BLACK
6
CONTINUOUS
10
0.718762
20
0.123887
11
0.727409
21
0.123887
0
LINE
8
BLACK
6
CONTINUOUS
10
0.727409
20
0.123887
11
0.734241
21
0.125595
0
LINE
8
BLACK
6
CONTINUOUS
10
0.734241
20
0.125595
11
0.737272
21
0.127111
0
LINE
8
BLACK
6
CONTINUOUS
10
0.737272
20
0.127111
11
0.738469
21
0.128308
0
LINE
8
BLACK
6
CONTINUOUS
10
0.738469
20
0.128308
11
0.739818
21
0.131005
0
LINE
8
BLACK
6
CONTINUOUS
10
0.739818
20
0.131005
11
0.739818
21
0.133361
0
LINE
8
BLACK
6
CONTINUOUS
10
0.739818
20
0.133361
11
0.738469
21
0.136058
0
LINE
8
BLACK
6
CONTINUOUS
10
0.738469
20
0.136058
11
0.737272
21
0.137256
0
LINE
8
BLACK
6
CONTINUOUS
10
0.737272
20
0.137256
11
0.734241
21
0.138771
0
LINE
8
BLACK
6
CONTINUOUS
10
0.734241
20
0.138771
11
0.727409
21
0.140479
0
LINE
8
BLACK
6
CONTINUOUS
10
0.727409
20
0.140479
11
0.718762
21
0.140479
0
LINE
8
BLACK
6
CONTINUOUS
10
0.745724
20
0.180927
11
0.745724
21
0.15843
0
LINE
8
BLACK
6
CONTINUOUS
10
0.745724
20
0.15843
11
0.745546
21
0.15742
0
LINE
8
BLACK
6
CONTINUOUS
10
0.745546
20
0.15742
11
0.744247
21
0.155873
0
LINE
8
BLACK
6
CONTINUOUS
10
0.744247
20
0.155873
11
0.742258
21
0.155522
0
LINE
8
BLACK
6
CONTINUOUS
10
0.742258
20
0.155522
11
0.740509
21
0.156532
0
LINE
8
BLACK
6
CONTINUOUS
10
0.740509
20
0.156532
11
0.739818
21
0.15843
0
LINE
8
BLACK
6
CONTINUOUS
10
0.739818
20
0.15843
11
0.739818
21
0.166726
0
LINE
8
BLACK
6
CONTINUOUS
10
0.739818
20
0.166726
11
0.703401
21
0.166726
0
LINE
8
BLACK
6
CONTINUOUS
10
0.703401
20
0.166726
11
0.702391
21
0.166904
0
LINE
8
BLACK
6
CONTINUOUS
10
0.702391
20
0.166904
11
0.702261
21
0.167013
0
LINE
8
BLACK
6
CONTINUOUS
10
0.702261
20
0.167013
11
0.702092
21
0.167032
0
LINE
8
BLACK
6
CONTINUOUS
10
0.702092
20
0.167032
11
0.7015
21
0.167651
0
LINE
8
BLACK
6
CONTINUOUS
10
0.7015
20
0.167651
11
0.700844
21
0.168202
0
LINE
8
BLACK
6
CONTINUOUS
10
0.700844
20
0.168202
11
0.700814
21
0.168369
0
LINE
8
BLACK
6
CONTINUOUS
10
0.700814
20
0.168369
11
0.700697
21
0.168492
0
LINE
8
BLACK
6
CONTINUOUS
10
0.700697
20
0.168492
11
0.700642
21
0.169347
0
LINE
8
BLACK
6
CONTINUOUS
10
0.700642
20
0.169347
11
0.700493
21
0.170191
0
LINE
8
BLACK
6
CONTINUOUS
10
0.700493
20
0.170191
11
0.700578
21
0.170338
0
LINE
8
BLACK
6
CONTINUOUS
10
0.700578
20
0.170338
11
0.700567
21
0.170508
0
LINE
8
BLACK
6
CONTINUOUS
10
0.700567
20
0.170508
11
0.701074
21
0.171198
0
LINE
8
BLACK
6
CONTINUOUS
10
0.701074
20
0.171198
11
0.701503
21
0.17194
0
LINE
8
BLACK
6
CONTINUOUS
10
0.701503
20
0.17194
11
0.701662
21
0.171999
0
LINE
8
BLACK
6
CONTINUOUS
10
0.701662
20
0.171999
11
0.701763
21
0.172135
0
LINE
8
BLACK
6
CONTINUOUS
10
0.701763
20
0.172135
11
0.707144
21
0.175723
0
LINE
8
BLACK
6
CONTINUOUS
10
0.707144
20
0.175723
11
0.710348
21
0.178927
0
LINE
8
BLACK
6
CONTINUOUS
10
0.710348
20
0.178927
11
0.711672
21
0.181575
0
LINE
8
BLACK
6
CONTINUOUS
10
0.711672
20
0.181575
11
0.701614
21
0.181575
0
LINE
8
BLACK
6
CONTINUOUS
10
0.701614
20
0.181575
11
0.700222
21
0.182151
0
LINE
8
BLACK
6
CONTINUOUS
10
0.700222
20
0.182151
11
0.661836
21
0.220537
0
LINE
8
BLACK
6
CONTINUOUS
10
0.661836
20
0.220537
11
0.66126
21
0.221929
0
LINE
8
BLACK
6
CONTINUOUS
10
0.66126
20
0.221929
11
0.66126
21
0.376457
0
LINE
8
BLACK
6
CONTINUOUS
10
0.66126
20
0.376457
11
0.661836
21
0.377849
0
LINE
8
BLACK
6
CONTINUOUS
10
0.661836
20
0.377849
11
0.663228
21
0.378425
0
LINE
8
BLACK
6
CONTINUOUS
10
0.663228
20
0.378425
11
0.816772
21
0.378425
0
LINE
8
BLACK
6
CONTINUOUS
10
0.816772
20
0.378425
11
0.818164
21
0.377849
0
LINE
8
BLACK
6
CONTINUOUS
10
0.818164
20
0.377849
11
0.81874
21
0.376457
0
LINE
8
BLACK
6
CONTINUOUS
10
0.81874
20
0.376457
11
0.81874
21
0.183543
0
LINE
8
BLACK
6
CONTINUOUS
10
0.81874
20
0.183543
11
0.818164
21
0.182151
0
LINE
8
BLACK
6
CONTINUOUS
10
0.818164
20
0.182151
11
0.816772
21
0.181575
0
LINE
8
BLACK
6
CONTINUOUS
10
0.816772
20
0.181575
11
0.745488
21
0.181575
0
LINE
8
BLACK
6
CONTINUOUS
10
0.745488
20
0.181575
11
0.745724
21
0.180927
0
LINE
8
BLACK
6
CONTINUOUS
10
0.717517
20
0.181575
11
0.71729
21
0.179607
0
LINE
8
BLACK
6
CONTINUOUS
10
0.71729
20
0.179607
11
0.715416
21
0.175857
0
LINE
8
BLACK
6
CONTINUOUS
10
0.715416
20
0.175857
11
0.71489
21
0.175148
0
LINE
8
BLACK
6
CONTINUOUS
10
0.71489
20
0.175148
11
0.714863
21
0.17509
0
LINE
8
BLACK
6
CONTINUOUS
10
0.714863
20
0.17509
11
0.712404
21
0.172631
0
LINE
8
BLACK
6
CONTINUOUS
10
0.712404
20
0.172631
11
0.739818
21
0.172631
0
LINE
8
BLACK
6
CONTINUOUS
10
0.739818
20
0.172631
11
0.739818
21
0.180927
0
LINE
8
BLACK
6
CONTINUOUS
10
0.739818
20
0.180927
11
0.739932
21
0.181575
0
LINE
8
BLACK
6
CONTINUOUS
10
0.739932
20
0.181575
11
0.717517
21
0.181575
0
LINE
8
BLACK
6
CONTINUOUS
10
0.665197
20
0.374488
11
0.665197
21
0.222744
0
LINE
8
BLACK
6
CONTINUOUS
10
0.665197
20
0.222744
11
0.70243
21
0.185512
0
LINE
8
BLACK
6
CONTINUOUS
10
0.70243
20
0.185512
11
0.814803
21
0.185512
0
LINE
8
BLACK
6
CONTINUOUS
10
0.814803
20
0.185512
11
0.814803
21
0.374488
0
LINE
8
BLACK
6
CONTINUOUS
10
0.814803
20
0.374488
11
0.665197
21
0.374488
0
LINE
8
BLACK
6
CONTINUOUS
10
0.772258
20
0.303458
11
0.772949
21
0.30156
0
LINE
8
BLACK
6
CONTINUOUS
10
0.772949
20
0.30156
11
0.772949
21
0.269689
0
LINE
8
BLACK
6
CONTINUOUS
10
0.772949
20
0.269689
11
0.772771
21
0.268679
0
LINE
8
BLACK
6
CONTINUOUS
10
0.772771
20
0.268679
11
0.772657
21
0.268544
0
LINE
8
BLACK
6
CONTINUOUS
10
0.772657
20
0.268544
11
0.772637
21
0.268368
0
LINE
8
BLACK
6
CONTINUOUS
10
0.772637
20
0.268368
11
0.770762
21
0.264619
0
LINE
8
BLACK
6
CONTINUOUS
10
0.770762
20
0.264619
11
0.770237
21
0.26391
0
LINE
8
BLACK
6
CONTINUOUS
10
0.770237
20
0.26391
11
0.770209
21
0.263851
0
LINE
8
BLACK
6
CONTINUOUS
10
0.770209
20
0.263851
11
0.768335
21
0.261977
0
LINE
8
BLACK
6
CONTINUOUS
10
0.768335
20
0.261977
11
0.767612
21
0.26147
0
LINE
8
BLACK
6
CONTINUOUS
10
0.767612
20
0.26147
11
0.767567
21
0.261424
0
LINE
8
BLACK
6
CONTINUOUS
10
0.767567
20
0.261424
11
0.763818
21
0.259549
0
LINE
8
BLACK
6
CONTINUOUS
10
0.763818
20
0.259549
11
0.762835
21
0.259256
0
LINE
8
BLACK
6
CONTINUOUS
10
0.762835
20
0.259256
11
0.762663
21
0.259297
0
LINE
8
BLACK
6
CONTINUOUS
10
0.762663
20
0.259297
11
0.762497
21
0.259237
0
LINE
8
BLACK
6
CONTINUOUS
10
0.762497
20
0.259237
11
0.754998
21
0.259237
0
LINE
8
BLACK
6
CONTINUOUS
10
0.754998
20
0.259237
11
0.753988
21
0.259415
0
LINE
8
BLACK
6
CONTINUOUS
10
0.753988
20
0.259415
11
0.753853
21
0.259529
0
LINE
8
BLACK
6
CONTINUOUS
10
0.753853
20
0.259529
11
0.753678
21
0.259549
0
LINE
8
BLACK
6
CONTINUOUS
10
0.753678
20
0.259549
11
0.749928
21
0.261424
0
LINE
8
BLACK
6
CONTINUOUS
10
0.749928
20
0.261424
11
0.749219
21
0.261949
0
LINE
8
BLACK
6
CONTINUOUS
10
0.749219
20
0.261949
11
0.749161
21
0.261977
0
LINE
8
BLACK
6
CONTINUOUS
10
0.749161
20
0.261977
11
0.747286
21
0.263851
0
LINE
8
BLACK
6
CONTINUOUS
10
0.747286
20
0.263851
11
0.74678
21
0.264574
0
LINE
8
BLACK
6
CONTINUOUS
10
0.74678
20
0.264574
11
0.746733
21
0.264619
0
LINE
8
BLACK
6
CONTINUOUS
10
0.746733
20
0.264619
11
0.744858
21
0.268368
0
LINE
8
BLACK
6
CONTINUOUS
10
0.744858
20
0.268368
11
0.744566
21
0.269351
0
LINE
8
BLACK
6
CONTINUOUS
10
0.744566
20
0.269351
11
0.744607
21
0.269523
0
LINE
8
BLACK
6
CONTINUOUS
10
0.744607
20
0.269523
11
0.744546
21
0.269689
0
LINE
8
BLACK
6
CONTINUOUS
10
0.744546
20
0.269689
11
0.744546
21
0.30156
0
LINE
8
BLACK
6
CONTINUOUS
10
0.744546
20
0.30156
11
0.744724
21
0.30257
0
LINE
8
BLACK
6
CONTINUOUS
10
0.744724
20
0.30257
11
0.746023
21
0.304117
0
LINE
8
BLACK
6
CONTINUOUS
10
0.746023
20
0.304117
11
0.748012
21
0.304468
0
LINE
8
BLACK
6
CONTINUOUS
10
0.748012
20
0.304468
11
0.749761
21
0.303458
0
LINE
8
BLACK
6
CONTINUOUS
10
0.749761
20
0.303458
11
0.750452
21
0.30156
0
LINE
8
BLACK
6
CONTINUOUS
10
0.750452
20
0.30156
11
0.750452
21
0.270386
0
LINE
8
BLACK
6
CONTINUOUS
10
0.750452
20
0.270386
11
0.751801
21
0.267688
0
LINE
8
BLACK
6
CONTINUOUS
10
0.751801
20
0.267688
11
0.752998
21
0.266491
0
LINE
8
BLACK
6
CONTINUOUS
10
0.752998
20
0.266491
11
0.755695
21
0.265143
0
LINE
8
BLACK
6
CONTINUOUS
10
0.755695
20
0.265143
11
0.7618
21
0.265143
0
LINE
8
BLACK
6
CONTINUOUS
10
0.7618
20
0.265143
11
0.764498
21
0.266491
0
LINE
8
BLACK
6
CONTINUOUS
10
0.764498
20
0.266491
11
0.765695
21
0.267688
0
LINE
8
BLACK
6
CONTINUOUS
10
0.765695
20
0.267688
11
0.767043
21
0.270386
0
LINE
8
BLACK
6
CONTINUOUS
10
0.767043
20
0.270386
11
0.767043
21
0.30156
0
LINE
8
BLACK
6
CONTINUOUS
10
0.767043
20
0.30156
11
0.767222
21
0.30257
0
LINE
8
BLACK
6
CONTINUOUS
10
0.767222
20
0.30257
11
0.76852
21
0.304117
0
LINE
8
BLACK
6
CONTINUOUS
10
0.76852
20
0.304117
11
0.770509
21
0.304468
0
LINE
8
BLACK
6
CONTINUOUS
10
0.770509
20
0.304468
11
0.772258
21
0.303458
0
LINE
8
BLACK
6
CONTINUOUS
10
0.720037
20
0.304383
11
0.720207
21
0.304394
0
LINE
8
BLACK
6
CONTINUOUS
10
0.720207
20
0.304394
11
0.720897
21
0.303886
0
LINE
8
BLACK
6
CONTINUOUS
10
0.720897
20
0.303886
11
0.721639
21
0.303458
0
LINE
8
BLACK
6
CONTINUOUS
10
0.721639
20
0.303458
11
0.721698
21
0.303298
0
LINE
8
BLACK
6
CONTINUOUS
10
0.721698
20
0.303298
11
0.721834
21
0.303198
0
LINE
8
BLACK
6
CONTINUOUS
10
0.721834
20
0.303198
11
0.725422
21
0.297817
0
LINE
8
BLACK
6
CONTINUOUS
10
0.725422
20
0.297817
11
0.728626
21
0.294613
0
LINE
8
BLACK
6
CONTINUOUS
10
0.728626
20
0.294613
11
0.731947
21
0.292952
0
LINE
8
BLACK
6
CONTINUOUS
10
0.731947
20
0.292952
11
0.73277
21
0.292341
0
LINE
8
BLACK
6
CONTINUOUS
10
0.73277
20
0.292341
11
0.733574
21
0.290488
0
LINE
8
BLACK
6
CONTINUOUS
10
0.733574
20
0.290488
11
0.732998
21
0.288552
0
LINE
8
BLACK
6
CONTINUOUS
10
0.732998
20
0.288552
11
0.731312
21
0.287439
0
LINE
8
BLACK
6
CONTINUOUS
10
0.731312
20
0.287439
11
0.729306
21
0.28767
0
LINE
8
BLACK
6
CONTINUOUS
10
0.729306
20
0.28767
11
0.725556
21
0.289545
0
LINE
8
BLACK
6
CONTINUOUS
10
0.725556
20
0.289545
11
0.724847
21
0.290071
0
LINE
8
BLACK
6
CONTINUOUS
10
0.724847
20
0.290071
11
0.724789
21
0.290098
0
LINE
8
BLACK
6
CONTINUOUS
10
0.724789
20
0.290098
11
0.72233
21
0.292556
0
LINE
8
BLACK
6
CONTINUOUS
10
0.72233
20
0.292556
11
0.72233
21
0.265143
0
LINE
8
BLACK
6
CONTINUOUS
10
0.72233
20
0.265143
11
0.730626
21
0.265143
0
LINE
8
BLACK
6
CONTINUOUS
10
0.730626
20
0.265143
11
0.731636
21
0.264964
0
LINE
8
BLACK
6
CONTINUOUS
10
0.731636
20
0.264964
11
0.733183
21
0.263666
0
LINE
8
BLACK
6
CONTINUOUS
10
0.733183
20
0.263666
11
0.733534
21
0.261677
0
LINE
8
BLACK
6
CONTINUOUS
10
0.733534
20
0.261677
11
0.732524
21
0.259928
0
LINE
8
BLACK
6
CONTINUOUS
10
0.732524
20
0.259928
11
0.730626
21
0.259237
0
LINE
8
BLACK
6
CONTINUOUS
10
0.730626
20
0.259237
11
0.708129
21
0.259237
0
LINE
8
BLACK
6
CONTINUOUS
10
0.708129
20
0.259237
11
0.707119
21
0.259415
0
LINE
8
BLACK
6
CONTINUOUS
10
0.707119
20
0.259415
11
0.705572
21
0.260713
0
LINE
8
BLACK
6
CONTINUOUS
10
0.705572
20
0.260713
11
0.705221
21
0.262703
0
LINE
8
BLACK
6
CONTINUOUS
10
0.705221
20
0.262703
11
0.706231
21
0.264452
0
LINE
8
BLACK
6
CONTINUOUS
10
0.706231
20
0.264452
11
0.708129
21
0.265143
0
LINE
8
BLACK
6
CONTINUOUS
10
0.708129
20
0.265143
11
0.716425
21
0.265143
0
LINE
8
BLACK
6
CONTINUOUS
10
0.716425
20
0.265143
11
0.716425
21
0.30156
0
LINE
8
BLACK
6
CONTINUOUS
10
0.716425
20
0.30156
11
0.716603
21
0.30257
0
LINE
8
BLACK
6
CONTINUOUS
10
0.716603
20
0.30257
11
0.716712
21
0.3027
0
LINE
8
BLACK
6
CONTINUOUS
10
0.716712
20
0.3027
11
0.716731
21
0.302869
0
LINE
8
BLACK
6
CONTINUOUS
10
0.716731
20
0.302869
11
0.71735
21
0.303461
0
LINE
8
BLACK
6
CONTINUOUS
10
0.71735
20
0.303461
11
0.717901
21
0.304117
0
LINE
8
BLACK
6
CONTINUOUS
10
0.717901
20
0.304117
11
0.718068
21
0.304146
0
LINE
8
BLACK
6
CONTINUOUS
10
0.718068
20
0.304146
11
0.718191
21
0.304264
0
LINE
8
BLACK
6
CONTINUOUS
10
0.718191
20
0.304264
11
0.719046
21
0.304319
0
LINE
8
BLACK
6
CONTINUOUS
10
0.719046
20
0.304319
11
0.71989
21
0.304468
0
LINE
8
BLACK
6
CONTINUOUS
10
0.71989
20
0.304468
11
0.720037
21
0.304383
0
LINE
8
BLACK
6
CONTINUOUS
10
0.885932
20
0.206604
11
0.886068
21
0.206618
0
LINE
8
BLACK
6
CONTINUOUS
10
0.886068
20
0.206618
11
0.893567
21
0.204743
0
LINE
8
BLACK
6
CONTINUOUS
10
0.893567
20
0.204743
11
0.894032
21
0.204536
0
LINE
8
BLACK
6
CONTINUOUS
10
0.894032
20
0.204536
11
0.894171
21
0.20452
0
LINE
8
BLACK
6
CONTINUOUS
10
0.894171
20
0.20452
11
0.897921
21
0.202645
0
LINE
8
BLACK
6
CONTINUOUS
10
0.897921
20
0.202645
11
0.89863
21
0.202119
0
LINE
8
BLACK
6
CONTINUOUS
10
0.89863
20
0.202119
11
0.898688
21
0.202092
0
LINE
8
BLACK
6
CONTINUOUS
10
0.898688
20
0.202092
11
0.900563
21
0.200217
0
LINE
8
BLACK
6
CONTINUOUS
10
0.900563
20
0.200217
11
0.901069
21
0.199494
0
LINE
8
BLACK
6
CONTINUOUS
10
0.901069
20
0.199494
11
0.901116
21
0.19945
0
LINE
8
BLACK
6
CONTINUOUS
10
0.901116
20
0.19945
11
0.902991
21
0.1957
0
LINE
8
BLACK
6
CONTINUOUS
10
0.902991
20
0.1957
11
0.903283
21
0.194717
0
LINE
8
BLACK
6
CONTINUOUS
10
0.903283
20
0.194717
11
0.903242
21
0.194545
0
LINE
8
BLACK
6
CONTINUOUS
10
0.903242
20
0.194545
11
0.903302
21
0.194379
0
LINE
8
BLACK
6
CONTINUOUS
10
0.903302
20
0.194379
11
0.903302
21
0.19063
0
LINE
8
BLACK
6
CONTINUOUS
10
0.903302
20
0.19063
11
0.903124
21
0.18962
0
LINE
8
BLACK
6
CONTINUOUS
10
0.903124
20
0.18962
11
0.903011
21
0.189485
0
LINE
8
BLACK
6
CONTINUOUS
10
0.903011
20
0.189485
11
0.902991
21
0.189309
0
LINE
8
BLACK
6
CONTINUOUS
10
0.902991
20
0.189309
11
0.901116
21
0.18556
0
LINE
8
BLACK
6
CONTINUOUS
10
0.901116
20
0.18556
11
0.90059
21
0.184851
0
LINE
8
BLACK
6
CONTINUOUS
10
0.90059
20
0.184851
11
0.900563
21
0.184792
0
LINE
8
BLACK
6
CONTINUOUS
10
0.900563
20
0.184792
11
0.898688
21
0.182918
0
LINE
8
BLACK
6
CONTINUOUS
10
0.898688
20
0.182918
11
0.897965
21
0.182411
0
LINE
8
BLACK
6
CONTINUOUS
10
0.897965
20
0.182411
11
0.897921
21
0.182365
0
LINE
8
BLACK
6
CONTINUOUS
10
0.897921
20
0.182365
11
0.894171
21
0.18049
0
LINE
8
BLACK
6
CONTINUOUS
10
0.894171
20
0.18049
11
0.893683
21
0.180345
0
LINE
8
BLACK
6
CONTINUOUS
10
0.893683
20
0.180345
11
0.893567
21
0.180266
0
LINE
8
BLACK
6
CONTINUOUS
10
0.893567
20
0.180266
11
0.886068
21
0.178391
0
LINE
8
BLACK
6
CONTINUOUS
10
0.886068
20
0.178391
11
0.88548
21
0.17835
0
LINE
8
BLACK
6
CONTINUOUS
10
0.88548
20
0.17835
11
0.885351
21
0.178303
0
LINE
8
BLACK
6
CONTINUOUS
10
0.885351
20
0.178303
11
0.875978
21
0.178303
0
LINE
8
BLACK
6
CONTINUOUS
10
0.875978
20
0.178303
11
0.875397
21
0.178406
0
LINE
8
BLACK
6
CONTINUOUS
10
0.875397
20
0.178406
11
0.875262
21
0.178391
0
LINE
8
BLACK
6
CONTINUOUS
10
0.875262
20
0.178391
11
0.867762
21
0.180266
0
LINE
8
BLACK
6
CONTINUOUS
10
0.867762
20
0.180266
11
0.867297
21
0.180474
0
LINE
8
BLACK
6
CONTINUOUS
10
0.867297
20
0.180474
11
0.867158
21
0.18049
0
LINE
8
BLACK
6
CONTINUOUS
10
0.867158
20
0.18049
11
0.863409
21
0.182365
0
LINE
8
BLACK
6
CONTINUOUS
10
0.863409
20
0.182365
11
0.8627
21
0.182891
0
LINE
8
BLACK
6
CONTINUOUS
10
0.8627
20
0.182891
11
0.862641
21
0.182918
0
LINE
8
BLACK
6
CONTINUOUS
10
0.862641
20
0.182918
11
0.860766
21
0.184792
0
LINE
8
BLACK
6
CONTINUOUS
10
0.860766
20
0.184792
11
0.86026
21
0.185515
0
LINE
8
BLACK
6
CONTINUOUS
10
0.86026
20
0.185515
11
0.860213
21
0.18556
0
LINE
8
BLACK
6
CONTINUOUS
10
0.860213
20
0.18556
11
0.858339
21
0.189309
0
LINE
8
BLACK
6
CONTINUOUS
10
0.858339
20
0.189309
11
0.858046
21
0.190292
0
LINE
8
BLACK
6
CONTINUOUS
10
0.858046
20
0.190292
11
0.858087
21
0.190464
0
LINE
8
BLACK
6
CONTINUOUS
10
0.858087
20
0.190464
11
0.858027
21
0.19063
0
LINE
8
BLACK
6
CONTINUOUS
10
0.858027
20
0.19063
11
0.858027
21
0.194379
0
LINE
8
BLACK
6
CONTINUOUS
10
0.858027
20
0.194379
11
0.858205
21
0.195389
0
LINE
8
BLACK
6
CONTINUOUS
10
0.858205
20
0.195389
11
0.858318
21
0.195525
0
LINE
8
BLACK
6
CONTINUOUS
10
0.858318
20
0.195525
11
0.858339
21
0.1957
0
LINE
8
BLACK
6
CONTINUOUS
10
0.858339
20
0.1957
11
0.860213
21
0.19945
0
LINE
8
BLACK
6
CONTINUOUS
10
0.860213
20
0.19945
11
0.860739
21
0.200159
0
LINE
8
BLACK
6
CONTINUOUS
10
0.860739
20
0.200159
11
0.860766
21
0.200217
0
LINE
8
BLACK
6
CONTINUOUS
10
0.860766
20
0.200217
11
0.862641
21
0.202092
0
LINE
8
BLACK
6
CONTINUOUS
10
0.862641
20
0.202092
11
0.863364
21
0.202598
0
LINE
8
BLACK
6
CONTINUOUS
10
0.863364
20
0.202598
11
0.863409
21
0.202645
0
LINE
8
BLACK
6
CONTINUOUS
10
0.863409
20
0.202645
11
0.867158
21
0.20452
0
LINE
8
BLACK
6
CONTINUOUS
10
0.867158
20
0.20452
11
0.867647
21
0.204665
0
LINE
8
BLACK
6
CONTINUOUS
10
0.867647
20
0.204665
11
0.867762
21
0.204743
0
LINE
8
BLACK
6
CONTINUOUS
10
0.867762
20
0.204743
11
0.875262
21
0.206618
0
LINE
8
BLACK
6
CONTINUOUS
10
0.875262
20
0.206618
11
0.875849
21
0.206659
0
LINE
8
BLACK
6
CONTINUOUS
10
0.875849
20
0.206659
11
0.875978
21
0.206706
0
LINE
8
BLACK
6
CONTINUOUS
10
0.875978
20
0.206706
11
0.885351
21
0.206706
0
LINE
8
BLACK
6
CONTINUOUS
10
0.885351
20
0.206706
11
0.885932
21
0.206604
0
LINE
8
BLACK
6
CONTINUOUS
10
0.876341
20
0.200801
11
0.869509
21
0.199093
0
LINE
8
BLACK
6
CONTINUOUS
10
0.869509
20
0.199093
11
0.866478
21
0.197577
0
LINE
8
BLACK
6
CONTINUOUS
10
0.866478
20
0.197577
11
0.865281
21
0.19638
0
LINE
8
BLACK
6
CONTINUOUS
10
0.865281
20
0.19638
11
0.863932
21
0.193682
0
LINE
8
BLACK
6
CONTINUOUS
10
0.863932
20
0.193682
11
0.863932
21
0.191327
0
LINE
8
BLACK
6
CONTINUOUS
10
0.863932
20
0.191327
11
0.865281
21
0.188629
0
LINE
8
BLACK
6
CONTINUOUS
10
0.865281
20
0.188629
11
0.866478
21
0.187432
0
LINE
8
BLACK
6
CONTINUOUS
10
0.866478
20
0.187432
11
0.869509
21
0.185917
0
LINE
8
BLACK
6
CONTINUOUS
10
0.869509
20
0.185917
11
0.876341
21
0.184209
0
LINE
8
BLACK
6
CONTINUOUS
10
0.876341
20
0.184209
11
0.884988
21
0.184209
0
LINE
8
BLACK
6
CONTINUOUS
10
0.884988
20
0.184209
11
0.89182
21
0.185917
0
LINE
8
BLACK
6
CONTINUOUS
10
0.89182
20
0.185917
11
0.894851
21
0.187432
0
LINE
8
BLACK
6
CONTINUOUS
10
0.894851
20
0.187432
11
0.896048
21
0.188629
0
LINE
8
BLACK
6
CONTINUOUS
10
0.896048
20
0.188629
11
0.897397
21
0.191327
0
LINE
8
BLACK
6
CONTINUOUS
10
0.897397
20
0.191327
11
0.897397
21
0.193682
0
LINE
8
BLACK
6
CONTINUOUS
10
0.897397
20
0.193682
11
0.896048
21
0.19638
0
LINE
8
BLACK
6
CONTINUOUS
10
0.896048
20
0.19638
11
0.894851
21
0.197577
0
LINE
8
BLACK
6
CONTINUOUS
10
0.894851
20
0.197577
11
0.89182
21
0.199093
0
LINE
8
BLACK
6
CONTINUOUS
10
0.89182
20
0.199093
11
0.884988
21
0.200801
0
LINE
8
BLACK
6
CONTINUOUS
10
0.884988
20
0.200801
11
0.876341
21
0.200801
0
LINE
8
BLACK
6
CONTINUOUS
10
0.921502
20
0.189238
11
0.920925
21
0.19063
0
LINE
8
BLACK
6
CONTINUOUS
10
0.920925
20
0.19063
11
0.920925
21
0.26937
0
LINE
8
BLACK
6
CONTINUOUS
10
0.920925
20
0.26937
11
0.921502
21
0.270762
0
LINE
8
BLACK
6
CONTINUOUS
10
0.921502
20
0.270762
11
0.922894
21
0.271339
0
LINE
8
BLACK
6
CONTINUOUS
10
0.922894
20
0.271339
11
0.972106
21
0.271339
0
LINE
8
BLACK
6
CONTINUOUS
10
0.972106
20
0.271339
11
0.973498
21
0.270762
0
LINE
8
BLACK
6
CONTINUOUS
10
0.973498
20
0.270762
11
0.974075
21
0.26937
0
LINE
8
BLACK
6
CONTINUOUS
10
0.974075
20
0.26937
11
0.974075
21
0.19063
0
LINE
8
BLACK
6
CONTINUOUS
10
0.974075
20
0.19063
11
0.973498
21
0.189238
0
LINE
8
BLACK
6
CONTINUOUS
10
0.973498
20
0.189238
11
0.972106
21
0.188661
0
LINE
8
BLACK
6
CONTINUOUS
10
0.972106
20
0.188661
11
0.922894
21
0.188661
0
LINE
8
BLACK
6
CONTINUOUS
10
0.922894
20
0.188661
11
0.921502
21
0.189238
0
LINE
8
BLACK
6
CONTINUOUS
10
0.924862
20
0.267402
11
0.924862
21
0.192598
0
LINE
8
BLACK
6
CONTINUOUS
10
0.924862
20
0.192598
11
0.970138
21
0.192598
0
LINE
8
BLACK
6
CONTINUOUS
10
0.970138
20
0.192598
11
0.970138
21
0.267402
0
LINE
8
BLACK
6
CONTINUOUS
10
0.970138
20
0.267402
11
0.924862
21
0.267402
0
LINE
8
BLACK
6
CONTINUOUS
10
0.955644
20
0.227833
11
0.956581
21
0.226895
0
LINE
8
BLACK
6
CONTINUOUS
10
0.956581
20
0.226895
11
0.95668
21
0.226656
0
LINE
8
BLACK
6
CONTINUOUS
10
0.95668
20
0.226656
11
0.956876
21
0.226486
0
LINE
8
BLACK
6
CONTINUOUS
10
0.956876
20
0.226486
11
0.957814
21
0.224611
0
LINE
8
BLACK
6
CONTINUOUS
10
0.957814
20
0.224611
11
0.95784
21
0.224246
0
LINE
8
BLACK
6
CONTINUOUS
10
0.95784
20
0.224246
11
0.95798
21
0.223907
0
LINE
8
BLACK
6
CONTINUOUS
10
0.95798
20
0.223907
11
0.95798
21
0.218283
0
LINE
8
BLACK
6
CONTINUOUS
10
0.95798
20
0.218283
11
0.95784
21
0.217944
0
LINE
8
BLACK
6
CONTINUOUS
10
0.95784
20
0.217944
11
0.957814
21
0.217578
0
LINE
8
BLACK
6
CONTINUOUS
10
0.957814
20
0.217578
11
0.956876
21
0.215704
0
LINE
8
BLACK
6
CONTINUOUS
10
0.956876
20
0.215704
11
0.95668
21
0.215534
0
LINE
8
BLACK
6
CONTINUOUS
10
0.95668
20
0.215534
11
0.956581
21
0.215294
0
LINE
8
BLACK
6
CONTINUOUS
10
0.956581
20
0.215294
11
0.955644
21
0.214357
0
LINE
8
BLACK
6
CONTINUOUS
10
0.955644
20
0.214357
11
0.955404
21
0.214258
0
LINE
8
BLACK
6
CONTINUOUS
10
0.955404
20
0.214258
11
0.955235
21
0.214062
0
LINE
8
BLACK
6
CONTINUOUS
10
0.955235
20
0.214062
11
0.95336
21
0.213125
0
LINE
8
BLACK
6
CONTINUOUS
10
0.95336
20
0.213125
11
0.952994
21
0.213099
0
LINE
8
BLACK
6
CONTINUOUS
10
0.952994
20
0.213099
11
0.952656
21
0.212958
0
LINE
8
BLACK
6
CONTINUOUS
10
0.952656
20
0.212958
11
0.947969
21
0.212958
0
LINE
8
BLACK
6
CONTINUOUS
10
0.947969
20
0.212958
11
0.94763
21
0.213099
0
LINE
8
BLACK
6
CONTINUOUS
10
0.94763
20
0.213099
11
0.947264
21
0.213125
0
LINE
8
BLACK
6
CONTINUOUS
10
0.947264
20
0.213125
11
0.94539
21
0.214062
0
LINE
8
BLACK
6
CONTINUOUS
10
0.94539
20
0.214062
11
0.94522
21
0.214258
0
LINE
8
BLACK
6
CONTINUOUS
10
0.94522
20
0.214258
11
0.94498
21
0.214357
0
LINE
8
BLACK
6
CONTINUOUS
10
0.94498
20
0.214357
11
0.944043
21
0.215294
0
LINE
8
BLACK
6
CONTINUOUS
10
0.944043
20
0.215294
11
0.943944
21
0.215534
0
LINE
8
BLACK
6
CONTINUOUS
10
0.943944
20
0.215534
11
0.943748
21
0.215704
0
LINE
8
BLACK
6
CONTINUOUS
10
0.943748
20
0.215704
11
0.942811
21
0.217578
0
LINE
8
BLACK
6
CONTINUOUS
10
0.942811
20
0.217578
11
0.942798
21
0.217759
0
LINE
8
BLACK
6
CONTINUOUS
10
0.942798
20
0.217759
11
0.937757
21
0.213348
0
LINE
8
BLACK
6
CONTINUOUS
10
0.937757
20
0.213348
11
0.937232
21
0.213171
0
LINE
8
BLACK
6
CONTINUOUS
10
0.937232
20
0.213171
11
0.93672
21
0.212958
0
LINE
8
BLACK
6
CONTINUOUS
10
0.93672
20
0.212958
11
0.936668
21
0.21298
0
LINE
8
BLACK
6
CONTINUOUS
10
0.936668
20
0.21298
11
0.936615
21
0.212962
0
LINE
8
BLACK
6
CONTINUOUS
10
0.936615
20
0.212962
11
0.936119
21
0.213208
0
LINE
8
BLACK
6
CONTINUOUS
10
0.936119
20
0.213208
11
0.935607
21
0.21342
0
LINE
8
BLACK
6
CONTINUOUS
10
0.935607
20
0.21342
11
0.935585
21
0.213471
0
LINE
8
BLACK
6
CONTINUOUS
10
0.935585
20
0.213471
11
0.935535
21
0.213496
0
LINE
8
BLACK
6
CONTINUOUS
10
0.935535
20
0.213496
11
0.935357
21
0.214021
0
LINE
8
BLACK
6
CONTINUOUS
10
0.935357
20
0.214021
11
0.935145
21
0.214533
0
LINE
8
BLACK
6
CONTINUOUS
10
0.935145
20
0.214533
11
0.935145
21
0.226719
0
LINE
8
BLACK
6
CONTINUOUS
10
0.935145
20
0.226719
11
0.935607
21
0.227833
0
LINE
8
BLACK
6
CONTINUOUS
10
0.935607
20
0.227833
11
0.93672
21
0.228294
0
LINE
8
BLACK
6
CONTINUOUS
10
0.93672
20
0.228294
11
0.937834
21
0.227833
0
LINE
8
BLACK
6
CONTINUOUS
10
0.937834
20
0.227833
11
0.938295
21
0.226719
0
LINE
8
BLACK
6
CONTINUOUS
10
0.938295
20
0.226719
11
0.938295
21
0.218004
0
LINE
8
BLACK
6
CONTINUOUS
10
0.938295
20
0.218004
11
0.943182
21
0.22228
0
LINE
8
BLACK
6
CONTINUOUS
10
0.943182
20
0.22228
11
0.943707
21
0.222458
0
LINE
8
BLACK
6
CONTINUOUS
10
0.943707
20
0.222458
11
0.944219
21
0.22267
0
LINE
8
BLACK
6
CONTINUOUS
10
0.944219
20
0.22267
11
0.944271
21
0.222648
0
LINE
8
BLACK
6
CONTINUOUS
10
0.944271
20
0.222648
11
0.944324
21
0.222666
0
LINE
8
BLACK
6
CONTINUOUS
10
0.944324
20
0.222666
11
0.944821
21
0.222421
0
LINE
8
BLACK
6
CONTINUOUS
10
0.944821
20
0.222421
11
0.945333
21
0.222208
0
LINE
8
BLACK
6
CONTINUOUS
10
0.945333
20
0.222208
11
0.945354
21
0.222157
0
LINE
8
BLACK
6
CONTINUOUS
10
0.945354
20
0.222157
11
0.945404
21
0.222132
0
LINE
8
BLACK
6
CONTINUOUS
10
0.945404
20
0.222132
11
0.945582
21
0.221607
0
LINE
8
BLACK
6
CONTINUOUS
10
0.945582
20
0.221607
11
0.945794
21
0.221095
0
LINE
8
BLACK
6
CONTINUOUS
10
0.945794
20
0.221095
11
0.945794
21
0.218654
0
LINE
8
BLACK
6
CONTINUOUS
10
0.945794
20
0.218654
11
0.946451
21
0.217341
0
LINE
8
BLACK
6
CONTINUOUS
10
0.946451
20
0.217341
11
0.947027
21
0.216765
0
LINE
8
BLACK
6
CONTINUOUS
10
0.947027
20
0.216765
11
0.94834
21
0.216108
0
LINE
8
BLACK
6
CONTINUOUS
10
0.94834
20
0.216108
11
0.952284
21
0.216108
0
LINE
8
BLACK
6
CONTINUOUS
10
0.952284
20
0.216108
11
0.953598
21
0.216765
0
LINE
8
BLACK
6
CONTINUOUS
10
0.953598
20
0.216765
11
0.954173
21
0.217341
0
LINE
8
BLACK
6
CONTINUOUS
10
0.954173
20
0.217341
11
0.95483
21
0.218654
0
LINE
8
BLACK
6
CONTINUOUS
10
0.95483
20
0.218654
11
0.95483
21
0.223535
0
LINE
8
BLACK
6
CONTINUOUS
10
0.95483
20
0.223535
11
0.954173
21
0.224849
0
LINE
8
BLACK
6
CONTINUOUS
10
0.954173
20
0.224849
11
0.953417
21
0.225606
0
LINE
8
BLACK
6
CONTINUOUS
10
0.953417
20
0.225606
11
0.952956
21
0.226719
0
LINE
8
BLACK
6
CONTINUOUS
10
0.952956
20
0.226719
11
0.953417
21
0.227833
0
LINE
8
BLACK
6
CONTINUOUS
10
0.953417
20
0.227833
11
0.95453
21
0.228294
0
LINE
8
BLACK
6
CONTINUOUS
10
0.95453
20
0.228294
11
0.955644
21
0.227833
0
LINE
8
BLACK
6
CONTINUOUS
10
0.957519
20
0.245643
11
0.95798
21
0.244529
0
LINE
8
BLACK
6
CONTINUOUS
10
0.95798
20
0.244529
11
0.957519
21
0.243416
0
LINE
8
BLACK
6
CONTINUOUS
10
0.957519
20
0.243416
11
0.956405
21
0.242955
0
LINE
8
BLACK
6
CONTINUOUS
10
0.956405
20
0.242955
11
0.948606
21
0.242955
0
LINE
8
BLACK
6
CONTINUOUS
10
0.948606
20
0.242955
11
0.948606
21
0.240662
0
LINE
8
BLACK
6
CONTINUOUS
10
0.948606
20
0.240662
11
0.957308
21
0.234571
0
LINE
8
BLACK
6
CONTINUOUS
10
0.957308
20
0.234571
11
0.957956
21
0.233555
0
LINE
8
BLACK
6
CONTINUOUS
10
0.957956
20
0.233555
11
0.957695
21
0.232378
0
LINE
8
BLACK
6
CONTINUOUS
10
0.957695
20
0.232378
11
0.956679
21
0.23173
0
LINE
8
BLACK
6
CONTINUOUS
10
0.956679
20
0.23173
11
0.955502
21
0.231991
0
LINE
8
BLACK
6
CONTINUOUS
10
0.955502
20
0.231991
11
0.948538
21
0.236866
0
LINE
8
BLACK
6
CONTINUOUS
10
0.948538
20
0.236866
11
0.948466
21
0.236692
0
LINE
8
BLACK
6
CONTINUOUS
10
0.948466
20
0.236692
11
0.94844
21
0.236326
0
LINE
8
BLACK
6
CONTINUOUS
10
0.94844
20
0.236326
11
0.947502
21
0.234451
0
LINE
8
BLACK
6
CONTINUOUS
10
0.947502
20
0.234451
11
0.947307
21
0.234282
0
LINE
8
BLACK
6
CONTINUOUS
10
0.947307
20
0.234282
11
0.947207
21
0.234042
0
LINE
8
BLACK
6
CONTINUOUS
10
0.947207
20
0.234042
11
0.94627
21
0.233105
0
LINE
8
BLACK
6
CONTINUOUS
10
0.94627
20
0.233105
11
0.946031
21
0.233005
0
LINE
8
BLACK
6
CONTINUOUS
10
0.946031
20
0.233005
11
0.945861
21
0.23281
0
LINE
8
BLACK
6
CONTINUOUS
10
0.945861
20
0.23281
11
0.943986
21
0.231872
0
LINE
8
BLACK
6
CONTINUOUS
10
0.943986
20
0.231872
11
0.94362
21
0.231846
0
LINE
8
BLACK
6
CONTINUOUS
10
0.94362
20
0.231846
11
0.943282
21
0.231706
0
LINE
8
BLACK
6
CONTINUOUS
10
0.943282
20
0.231706
11
0.94047
21
0.231706
0
LINE
8
BLACK
6
CONTINUOUS
10
0.94047
20
0.231706
11
0.940131
21
0.231846
0
LINE
8
BLACK
6
CONTINUOUS
10
0.940131
20
0.231846
11
0.939765
21
0.231872
0
LINE
8
BLACK
6
CONTINUOUS
10
0.939765
20
0.231872
11
0.937891
21
0.23281
0
LINE
8
BLACK
6
CONTINUOUS
10
0.937891
20
0.23281
11
0.937721
21
0.233005
0
LINE
8
BLACK
6
CONTINUOUS
10
0.937721
20
0.233005
11
0.937481
21
0.233105
0
LINE
8
BLACK
6
CONTINUOUS
10
0.937481
20
0.233105
11
0.936544
21
0.234042
0
LINE
8
BLACK
6
CONTINUOUS
10
0.936544
20
0.234042
11
0.936445
21
0.234282
0
LINE
8
BLACK
6
CONTINUOUS
10
0.936445
20
0.234282
11
0.936249
21
0.234451
0
LINE
8
BLACK
6
CONTINUOUS
10
0.936249
20
0.234451
11
0.935312
21
0.236326
0
LINE
8
BLACK
6
CONTINUOUS
10
0.935312
20
0.236326
11
0.935286
21
0.236692
0
LINE
8
BLACK
6
CONTINUOUS
10
0.935286
20
0.236692
11
0.935145
21
0.23703
0
LINE
8
BLACK
6
CONTINUOUS
10
0.935145
20
0.23703
11
0.935145
21
0.244529
0
LINE
8
BLACK
6
CONTINUOUS
10
0.935145
20
0.244529
11
0.935607
21
0.245643
0
LINE
8
BLACK
6
CONTINUOUS
10
0.935607
20
0.245643
11
0.93672
21
0.246104
0
LINE
8
BLACK
6
CONTINUOUS
10
0.93672
20
0.246104
11
0.956405
21
0.246104
0
LINE
8
BLACK
6
CONTINUOUS
10
0.956405
20
0.246104
11
0.957519
21
0.245643
0
LINE
8
BLACK
6
CONTINUOUS
10
0.938295
20
0.242955
11
0.938295
21
0.237402
0
LINE
8
BLACK
6
CONTINUOUS
10
0.938295
20
0.237402
11
0.938952
21
0.236088
0
LINE
8
BLACK
6
CONTINUOUS
10
0.938952
20
0.236088
11
0.939528
21
0.235512
0
LINE
8
BLACK
6
CONTINUOUS
10
0.939528
20
0.235512
11
0.940841
21
0.234856
0
LINE
8
BLACK
6
CONTINUOUS
10
0.940841
20
0.234856
11
0.94291
21
0.234856
0
LINE
8
BLACK
6
CONTINUOUS
10
0.94291
20
0.234856
11
0.944224
21
0.235512
0
LINE
8
BLACK
6
CONTINUOUS
10
0.944224
20
0.235512
11
0.9448
21
0.236089
0
LINE
8
BLACK
6
CONTINUOUS
10
0.9448
20
0.236089
11
0.945456
21
0.237402
0
LINE
8
BLACK
6
CONTINUOUS
10
0.945456
20
0.237402
11
0.945456
21
0.242955
0
LINE
8
BLACK
6
CONTINUOUS
10
0.945456
20
0.242955
11
0.938295
21
0.242955
0
LINE
8
BLACK
6
CONTINUOUS
10
0.885932
20
0.244099
11
0.886068
21
0.244113
0
LINE
8
BLACK
6
CONTINUOUS
10
0.886068
20
0.244113
11
0.893567
21
0.242238
0
LINE
8
BLACK
6
CONTINUOUS
10
0.893567
20
0.242238
11
0.894032
21
0.242031
0
LINE
8
BLACK
6
CONTINUOUS
10
0.894032
20
0.242031
11
0.894171
21
0.242015
0
LINE
8
BLACK
6
CONTINUOUS
10
0.894171
20
0.242015
11
0.897921
21
0.24014
0
LINE
8
BLACK
6
CONTINUOUS
10
0.897921
20
0.24014
11
0.89863
21
0.239614
0
LINE
8
BLACK
6
CONTINUOUS
10
0.89863
20
0.239614
11
0.898688
21
0.239587
0
LINE
8
BLACK
6
CONTINUOUS
10
0.898688
20
0.239587
11
0.900563
21
0.237712
0
LINE
8
BLACK
6
CONTINUOUS
10
0.900563
20
0.237712
11
0.901069
21
0.236989
0
LINE
8
BLACK
6
CONTINUOUS
10
0.901069
20
0.236989
11
0.901116
21
0.236945
0
LINE
8
BLACK
6
CONTINUOUS
10
0.901116
20
0.236945
11
0.902991
21
0.233195
0
LINE
8
BLACK
6
CONTINUOUS
10
0.902991
20
0.233195
11
0.903283
21
0.232212
0
LINE
8
BLACK
6
CONTINUOUS
10
0.903283
20
0.232212
11
0.903242
21
0.232041
0
LINE
8
BLACK
6
CONTINUOUS
10
0.903242
20
0.232041
11
0.903302
21
0.231875
0
LINE
8
BLACK
6
CONTINUOUS
10
0.903302
20
0.231875
11
0.903302
21
0.228125
0
LINE
8
BLACK
6
CONTINUOUS
10
0.903302
20
0.228125
11
0.903124
21
0.227115
0
LINE
8
BLACK
6
CONTINUOUS
10
0.903124
20
0.227115
11
0.903011
21
0.22698
0
LINE
8
BLACK
6
CONTINUOUS
10
0.903011
20
0.22698
11
0.902991
21
0.226805
0
LINE
8
BLACK
6
CONTINUOUS
10
0.902991
20
0.226805
11
0.901116
21
0.223055
0
LINE
8
BLACK
6
CONTINUOUS
10
0.901116
20
0.223055
11
0.90059
21
0.222346
0
LINE
8
BLACK
6
CONTINUOUS
10
0.90059
20
0.222346
11
0.900563
21
0.222288
0
LINE
8
BLACK
6
CONTINUOUS
10
0.900563
20
0.222288
11
0.898688
21
0.220413
0
LINE
8
BLACK
6
CONTINUOUS
10
0.898688
20
0.220413
11
0.897965
21
0.219907
0
LINE
8
BLACK
6
CONTINUOUS
10
0.897965
20
0.219907
11
0.897921
21
0.21986
0
LINE
8
BLACK
6
CONTINUOUS
10
0.897921
20
0.21986
11
0.894171
21
0.217985
0
LINE
8
BLACK
6
CONTINUOUS
10
0.894171
20
0.217985
11
0.893683
21
0.21784
0
LINE
8
BLACK
6
CONTINUOUS
10
0.893683
20
0.21784
11
0.893567
21
0.217762
0
LINE
8
BLACK
6
CONTINUOUS
10
0.893567
20
0.217762
11
0.886068
21
0.215887
0
LINE
8
BLACK
6
CONTINUOUS
10
0.886068
20
0.215887
11
0.88548
21
0.215845
0
LINE
8
BLACK
6
CONTINUOUS
10
0.88548
20
0.215845
11
0.885351
21
0.215799
0
LINE
8
BLACK
6
CONTINUOUS
10
0.885351
20
0.215799
11
0.875978
21
0.215799
0
LINE
8
BLACK
6
CONTINUOUS
10
0.875978
20
0.215799
11
0.875397
21
0.215901
0
LINE
8
BLACK
6
CONTINUOUS
10
0.875397
20
0.215901
11
0.875262
21
0.215887
0
LINE
8
BLACK
6
CONTINUOUS
10
0.875262
20
0.215887
11
0.867762
21
0.217762
0
LINE
8
BLACK
6
CONTINUOUS
10
0.867762
20
0.217762
11
0.867297
21
0.217969
0
LINE
8
BLACK
6
CONTINUOUS
10
0.867297
20
0.217969
11
0.867158
21
0.217985
0
LINE
8
BLACK
6
CONTINUOUS
10
0.867158
20
0.217985
11
0.863409
21
0.21986
0
LINE
8
BLACK
6
CONTINUOUS
10
0.863409
20
0.21986
11
0.8627
21
0.220386
0
LINE
8
BLACK
6
CONTINUOUS
10
0.8627
20
0.220386
11
0.862641
21
0.220413
0
LINE
8
BLACK
6
CONTINUOUS
10
0.862641
20
0.220413
11
0.860766
21
0.222288
0
LINE
8
BLACK
6
CONTINUOUS
10
0.860766
20
0.222288
11
0.86026
21
0.223011
0
LINE
8
BLACK
6
CONTINUOUS
10
0.86026
20
0.223011
11
0.860213
21
0.223055
0
LINE
8
BLACK
6
CONTINUOUS
10
0.860213
20
0.223055
11
0.858339
21
0.226805
0
LINE
8
BLACK
6
CONTINUOUS
10
0.858339
20
0.226805
11
0.858046
21
0.227788
0
LINE
8
BLACK
6
CONTINUOUS
10
0.858046
20
0.227788
11
0.858087
21
0.227959
0
LINE
8
BLACK
6
CONTINUOUS
10
0.858087
20
0.227959
11
0.858027
21
0.228125
0
LINE
8
BLACK
6
CONTINUOUS
10
0.858027
20
0.228125
11
0.858027
21
0.231875
0
LINE
8
BLACK
6
CONTINUOUS
10
0.858027
20
0.231875
11
0.858205
21
0.232885
0
LINE
8
BLACK
6
CONTINUOUS
10
0.858205
20
0.232885
11
0.858318
21
0.23302
0
LINE
8
BLACK
6
CONTINUOUS
10
0.858318
20
0.23302
11
0.858339
21
0.233195
0
LINE
8
BLACK
6
CONTINUOUS
10
0.858339
20
0.233195
11
0.860213
21
0.236945
0
LINE
8
BLACK
6
CONTINUOUS
10
0.860213
20
0.236945
11
0.860739
21
0.237654
0
LINE
8
BLACK
6
CONTINUOUS
10
0.860739
20
0.237654
11
0.860766
21
0.237712
0
LINE
8
BLACK
6
CONTINUOUS
10
0.860766
20
0.237712
11
0.862641
21
0.239587
0
LINE
8
BLACK
6
CONTINUOUS
10
0.862641
20
0.239587
11
0.863364
21
0.240093
0
LINE
8
BLACK
6
CONTINUOUS
10
0.863364
20
0.240093
11
0.863409
21
0.24014
0
LINE
8
BLACK
6
CONTINUOUS
10
0.863409
20
0.24014
11
0.867158
21
0.242015
0
LINE
8
BLACK
6
CONTINUOUS
10
0.867158
20
0.242015
11
0.867647
21
0.24216
0
LINE
8
BLACK
6
CONTINUOUS
10
0.867647
20
0.24216
11
0.867762
21
0.242238
0
LINE
8
BLACK
6
CONTINUOUS
10
0.867762
20
0.242238
11
0.875262
21
0.244113
0
LINE
8
BLACK
6
CONTINUOUS
10
0.875262
20
0.244113
11
0.875849
21
0.244155
0
LINE
8
BLACK
6
CONTINUOUS
10
0.875849
20
0.244155
11
0.875978
21
0.244201
0
LINE
8
BLACK
6
CONTINUOUS
10
0.875978
20
0.244201
11
0.885351
21
0.244201
0
LINE
8
BLACK
6
CONTINUOUS
10
0.885351
20
0.244201
11
0.885932
21
0.244099
0
LINE
8
BLACK
6
CONTINUOUS
10
0.876341
20
0.238296
11
0.869509
21
0.236588
0
LINE
8
BLACK
6
CONTINUOUS
10
0.869509
20
0.236588
11
0.866478
21
0.235072
0
LINE
8
BLACK
6
CONTINUOUS
10
0.866478
20
0.235072
11
0.865281
21
0.233875
0
LINE
8
BLACK
6
CONTINUOUS
10
0.865281
20
0.233875
11
0.863932
21
0.231178
0
LINE
8
BLACK
6
CONTINUOUS
10
0.863932
20
0.231178
11
0.863932
21
0.228822
0
LINE
8
BLACK
6
CONTINUOUS
10
0.863932
20
0.228822
11
0.865281
21
0.226125
0
LINE
8
BLACK
6
CONTINUOUS
10
0.865281
20
0.226125
11
0.866478
21
0.224928
0
LINE
8
BLACK
6
CONTINUOUS
10
0.866478
20
0.224928
11
0.869509
21
0.223412
0
LINE
8
BLACK
6
CONTINUOUS
10
0.869509
20
0.223412
11
0.876341
21
0.221704
0
LINE
8
BLACK
6
CONTINUOUS
10
0.876341
20
0.221704
11
0.884988
21
0.221704
0
LINE
8
BLACK
6
CONTINUOUS
10
0.884988
20
0.221704
11
0.89182
21
0.223412
0
LINE
8
BLACK
6
CONTINUOUS
10
0.89182
20
0.223412
11
0.894851
21
0.224928
0
LINE
8
BLACK
6
CONTINUOUS
10
0.894851
20
0.224928
11
0.896048
21
0.226125
0
LINE
8
BLACK
6
CONTINUOUS
10
0.896048
20
0.226125
11
0.897397
21
0.228822
0
LINE
8
BLACK
6
CONTINUOUS
10
0.897397
20
0.228822
11
0.897397
21
0.231178
0
LINE
8
BLACK
6
CONTINUOUS
10
0.897397
20
0.231178
11
0.896048
21
0.233875
0
LINE
8
BLACK
6
CONTINUOUS
10
0.896048
20
0.233875
11
0.894851
21
0.235072
0
LINE
8
BLACK
6
CONTINUOUS
10
0.894851
20
0.235072
11
0.89182
21
0.236588
0
LINE
8
BLACK
6
CONTINUOUS
10
0.89182
20
0.236588
11
0.884988
21
0.238296
0
LINE
8
BLACK
6
CONTINUOUS
10
0.884988
20
0.238296
11
0.876341
21
0.238296
0
LINE
8
BLACK
6
CONTINUOUS
10
0.873987
20
0.281116
11
0.8751
21
0.27943
0
LINE
8
BLACK
6
CONTINUOUS
10
0.8751
20
0.27943
11
0.874869
21
0.277423
0
LINE
8
BLACK
6
CONTINUOUS
10
0.874869
20
0.277423
11
0.872994
21
0.273674
0
LINE
8
BLACK
6
CONTINUOUS
10
0.872994
20
0.273674
11
0.872469
21
0.272965
0
LINE
8
BLACK
6
CONTINUOUS
10
0.872469
20
0.272965
11
0.872441
21
0.272906
0
LINE
8
BLACK
6
CONTINUOUS
10
0.872441
20
0.272906
11
0.869983
21
0.270448
0
LINE
8
BLACK
6
CONTINUOUS
10
0.869983
20
0.270448
11
0.897397
21
0.270448
0
LINE
8
BLACK
6
CONTINUOUS
10
0.897397
20
0.270448
11
0.897397
21
0.278744
0
LINE
8
BLACK
6
CONTINUOUS
10
0.897397
20
0.278744
11
0.897575
21
0.279754
0
LINE
8
BLACK
6
CONTINUOUS
10
0.897575
20
0.279754
11
0.898873
21
0.281301
0
LINE
8
BLACK
6
CONTINUOUS
10
0.898873
20
0.281301
11
0.900862
21
0.281652
0
LINE
8
BLACK
6
CONTINUOUS
10
0.900862
20
0.281652
11
0.902612
21
0.280642
0
LINE
8
BLACK
6
CONTINUOUS
10
0.902612
20
0.280642
11
0.903302
21
0.278744
0
LINE
8
BLACK
6
CONTINUOUS
10
0.903302
20
0.278744
11
0.903302
21
0.256247
0
LINE
8
BLACK
6
CONTINUOUS
10
0.903302
20
0.256247
11
0.903124
21
0.255237
0
LINE
8
BLACK
6
CONTINUOUS
10
0.903124
20
0.255237
11
0.901826
21
0.25369
0
LINE
8
BLACK
6
CONTINUOUS
10
0.901826
20
0.25369
11
0.899837
21
0.253339
0
LINE
8
BLACK
6
CONTINUOUS
10
0.899837
20
0.253339
11
0.898088
21
0.254349
0
LINE
8
BLACK
6
CONTINUOUS
10
0.898088
20
0.254349
11
0.897397
21
0.256247
0
LINE
8
BLACK
6
CONTINUOUS
10
0.897397
20
0.256247
11
0.897397
21
0.264543
0
LINE
8
BLACK
6
CONTINUOUS
10
0.897397
20
0.264543
11
0.86098
21
0.264543
0
LINE
8
BLACK
6
CONTINUOUS
10
0.86098
20
0.264543
11
0.85997
21
0.264721
0
LINE
8
BLACK
6
CONTINUOUS
10
0.85997
20
0.264721
11
0.85984
21
0.26483
0
LINE
8
BLACK
6
CONTINUOUS
10
0.85984
20
0.26483
11
0.859671
21
0.264848
0
LINE
8
BLACK
6
CONTINUOUS
10
0.859671
20
0.264848
11
0.859079
21
0.265468
0
LINE
8
BLACK
6
CONTINUOUS
10
0.859079
20
0.265468
11
0.858422
21
0.266019
0
LINE
8
BLACK
6
CONTINUOUS
10
0.858422
20
0.266019
11
0.858393
21
0.266186
0
LINE
8
BLACK
6
CONTINUOUS
10
0.858393
20
0.266186
11
0.858276
21
0.266309
0
LINE
8
BLACK
6
CONTINUOUS
10
0.858276
20
0.266309
11
0.85822
21
0.267164
0
LINE
8
BLACK
6
CONTINUOUS
10
0.85822
20
0.267164
11
0.858072
21
0.268008
0
LINE
8
BLACK
6
CONTINUOUS
10
0.858072
20
0.268008
11
0.858157
21
0.268155
0
LINE
8
BLACK
6
CONTINUOUS
10
0.858157
20
0.268155
11
0.858146
21
0.268325
0
LINE
8
BLACK
6
CONTINUOUS
10
0.858146
20
0.268325
11
0.858653
21
0.269015
0
LINE
8
BLACK
6
CONTINUOUS
10
0.858653
20
0.269015
11
0.859082
21
0.269757
0
LINE
8
BLACK
6
CONTINUOUS
10
0.859082
20
0.269757
11
0.859241
21
0.269815
0
LINE
8
BLACK
6
CONTINUOUS
10
0.859241
20
0.269815
11
0.859342
21
0.269952
0
LINE
8
BLACK
6
CONTINUOUS
10
0.859342
20
0.269952
11
0.864723
21
0.27354
0
LINE
8
BLACK
6
CONTINUOUS
10
0.864723
20
0.27354
11
0.867927
21
0.276744
0
LINE
8
BLACK
6
CONTINUOUS
10
0.867927
20
0.276744
11
0.869587
21
0.280064
0
LINE
8
BLACK
6
CONTINUOUS
10
0.869587
20
0.280064
11
0.870198
21
0.280888
0
LINE
8
BLACK
6
CONTINUOUS
10
0.870198
20
0.280888
11
0.872051
21
0.281691
0
LINE
8
BLACK
6
CONTINUOUS
10
0.872051
20
0.281691
11
0.873987
21
0.281116
0
LINE
8
BLACK
6
CONTINUOUS
10
0.885932
20
0.346604
11
0.886068
21
0.346618
0
LINE
8
BLACK
6
CONTINUOUS
10
0.886068
20
0.346618
11
0.893567
21
0.344743
0
LINE
8
BLACK
6
CONTINUOUS
10
0.893567
20
0.344743
11
0.894032
21
0.344536
0
LINE
8
BLACK
6
CONTINUOUS
10
0.894032
20
0.344536
11
0.894171
21
0.34452
0
LINE
8
BLACK
6
CONTINUOUS
10
0.894171
20
0.34452
11
0.897921
21
0.342645
0
LINE
8
BLACK
6
CONTINUOUS
10
0.897921
20
0.342645
11
0.89863
21
0.342119
0
LINE
8
BLACK
6
CONTINUOUS
10
0.89863
20
0.342119
11
0.898688
21
0.342092
0
LINE
8
BLACK
6
CONTINUOUS
10
0.898688
20
0.342092
11
0.900563
21
0.340217
0
LINE
8
BLACK
6
CONTINUOUS
10
0.900563
20
0.340217
11
0.901069
21
0.339494
0
LINE
8
BLACK
6
CONTINUOUS
10
0.901069
20
0.339494
11
0.901116
21
0.33945
0
LINE
8
BLACK
6
CONTINUOUS
10
0.901116
20
0.33945
11
0.902991
21
0.3357
0
LINE
8
BLACK
6
CONTINUOUS
10
0.902991
20
0.3357
11
0.903283
21
0.334717
0
LINE
8
BLACK
6
CONTINUOUS
10
0.903283
20
0.334717
11
0.903242
21
0.334545
0
LINE
8
BLACK
6
CONTINUOUS
10
0.903242
20
0.334545
11
0.903302
21
0.334379
0
LINE
8
BLACK
6
CONTINUOUS
10
0.903302
20
0.334379
11
0.903302
21
0.33063
0
LINE
8
BLACK
6
CONTINUOUS
10
0.903302
20
0.33063
11
0.903124
21
0.32962
0
LINE
8
BLACK
6
CONTINUOUS
10
0.903124
20
0.32962
11
0.903011
21
0.329485
0
LINE
8
BLACK
6
CONTINUOUS
10
0.903011
20
0.329485
11
0.902991
21
0.329309
0
LINE
8
BLACK
6
CONTINUOUS
10
0.902991
20
0.329309
11
0.901116
21
0.32556
0
LINE
8
BLACK
6
CONTINUOUS
10
0.901116
20
0.32556
11
0.90059
21
0.324851
0
LINE
8
BLACK
6
CONTINUOUS
10
0.90059
20
0.324851
11
0.900563
21
0.324792
0
LINE
8
BLACK
6
CONTINUOUS
10
0.900563
20
0.324792
11
0.898688
21
0.322918
0
LINE
8
BLACK
6
CONTINUOUS
10
0.898688
20
0.322918
11
0.897965
21
0.322411
0
LINE
8
BLACK
6
CONTINUOUS
10
0.897965
20
0.322411
11
0.897921
21
0.322365
0
LINE
8
BLACK
6
CONTINUOUS
10
0.897921
20
0.322365
11
0.894171
21
0.32049
0
LINE
8
BLACK
6
CONTINUOUS
10
0.894171
20
0.32049
11
0.893683
21
0.320345
0
LINE
8
BLACK
6
CONTINUOUS
10
0.893683
20
0.320345
11
0.893567
21
0.320266
0
LINE
8
BLACK
6
CONTINUOUS
10
0.893567
20
0.320266
11
0.886068
21
0.318391
0
LINE
8
BLACK
6
CONTINUOUS
10
0.886068
20
0.318391
11
0.88548
21
0.31835
0
LINE
8
BLACK
6
CONTINUOUS
10
0.88548
20
0.31835
11
0.885351
21
0.318303
0
LINE
8
BLACK
6
CONTINUOUS
10
0.885351
20
0.318303
11
0.875978
21
0.318303
0
LINE
8
BLACK
6
CONTINUOUS
10
0.875978
20
0.318303
11
0.875397
21
0.318406
0
LINE
8
BLACK
6
CONTINUOUS
10
0.875397
20
0.318406
11
0.875262
21
0.318391
0
LINE
8
BLACK
6
CONTINUOUS
10
0.875262
20
0.318391
11
0.867762
21
0.320266
0
LINE
8
BLACK
6
CONTINUOUS
10
0.867762
20
0.320266
11
0.867297
21
0.320474
0
LINE
8
BLACK
6
CONTINUOUS
10
0.867297
20
0.320474
11
0.867158
21
0.32049
0
LINE
8
BLACK
6
CONTINUOUS
10
0.867158
20
0.32049
11
0.863409
21
0.322365
0
LINE
8
BLACK
6
CONTINUOUS
10
0.863409
20
0.322365
11
0.8627
21
0.322891
0
LINE
8
BLACK
6
CONTINUOUS
10
0.8627
20
0.322891
11
0.862641
21
0.322918
0
LINE
8
BLACK
6
CONTINUOUS
10
0.862641
20
0.322918
11
0.860766
21
0.324792
0
LINE
8
BLACK
6
CONTINUOUS
10
0.860766
20
0.324792
11
0.86026
21
0.325515
0
LINE
8
BLACK
6
CONTINUOUS
10
0.86026
20
0.325515
11
0.860213
21
0.32556
0
LINE
8
BLACK
6
CONTINUOUS
10
0.860213
20
0.32556
11
0.858339
21
0.329309
0
LINE
8
BLACK
6
CONTINUOUS
10
0.858339
20
0.329309
11
0.858046
21
0.330292
0
LINE
8
BLACK
6
CONTINUOUS
10
0.858046
20
0.330292
11
0.858087
21
0.330464
0
LINE
8
BLACK
6
CONTINUOUS
10
0.858087
20
0.330464
11
0.858027
21
0.33063
0
LINE
8
BLACK
6
CONTINUOUS
10
0.858027
20
0.33063
11
0.858027
21
0.334379
0
LINE
8
BLACK
6
CONTINUOUS
10
0.858027
20
0.334379
11
0.858205
21
0.335389
0
LINE
8
BLACK
6
CONTINUOUS
10
0.858205
20
0.335389
11
0.858318
21
0.335525
0
LINE
8
BLACK
6
CONTINUOUS
10
0.858318
20
0.335525
11
0.858339
21
0.3357
0
LINE
8
BLACK
6
CONTINUOUS
10
0.858339
20
0.3357
11
0.860213
21
0.33945
0
LINE
8
BLACK
6
CONTINUOUS
10
0.860213
20
0.33945
11
0.860739
21
0.340159
0
LINE
8
BLACK
6
CONTINUOUS
10
0.860739
20
0.340159
11
0.860766
21
0.340217
0
LINE
8
BLACK
6
CONTINUOUS
10
0.860766
20
0.340217
11
0.862641
21
0.342092
0
LINE
8
BLACK
6
CONTINUOUS
10
0.862641
20
0.342092
11
0.863364
21
0.342598
0
LINE
8
BLACK
6
CONTINUOUS
10
0.863364
20
0.342598
11
0.863409
21
0.342645
0
LINE
8
BLACK
6
CONTINUOUS
10
0.863409
20
0.342645
11
0.867158
21
0.34452
0
LINE
8
BLACK
6
CONTINUOUS
10
0.867158
20
0.34452
11
0.867647
21
0.344665
0
LINE
8
BLACK
6
CONTINUOUS
10
0.867647
20
0.344665
11
0.867762
21
0.344743
0
LINE
8
BLACK
6
CONTINUOUS
10
0.867762
20
0.344743
11
0.875262
21
0.346618
0
LINE
8
BLACK
6
CONTINUOUS
10
0.875262
20
0.346618
11
0.875849
21
0.346659
0
LINE
8
BLACK
6
CONTINUOUS
10
0.875849
20
0.346659
11
0.875978
21
0.346706
0
LINE
8
BLACK
6
CONTINUOUS
10
0.875978
20
0.346706
11
0.885351
21
0.346706
0
LINE
8
BLACK
6
CONTINUOUS
10
0.885351
20
0.346706
11
0.885932
21
0.346604
0
LINE
8
BLACK
6
CONTINUOUS
10
0.876341
20
0.340801
11
0.869509
21
0.339093
0
LINE
8
BLACK
6
CONTINUOUS
10
0.869509
20
0.339093
11
0.866478
21
0.337577
0
LINE
8
BLACK
6
CONTINUOUS
10
0.866478
20
0.337577
11
0.865281
21
0.33638
0
LINE
8
BLACK
6
CONTINUOUS
10
0.865281
20
0.33638
11
0.863932
21
0.333682
0
LINE
8
BLACK
6
CONTINUOUS
10
0.863932
20
0.333682
11
0.863932
21
0.331327
0
LINE
8
BLACK
6
CONTINUOUS
10
0.863932
20
0.331327
11
0.865281
21
0.328629
0
LINE
8
BLACK
6
CONTINUOUS
10
0.865281
20
0.328629
11
0.866478
21
0.327432
0
LINE
8
BLACK
6
CONTINUOUS
10
0.866478
20
0.327432
11
0.869509
21
0.325917
0
LINE
8
BLACK
6
CONTINUOUS
10
0.869509
20
0.325917
11
0.876341
21
0.324209
0
LINE
8
BLACK
6
CONTINUOUS
10
0.876341
20
0.324209
11
0.884988
21
0.324209
0
LINE
8
BLACK
6
CONTINUOUS
10
0.884988
20
0.324209
11
0.89182
21
0.325917
0
LINE
8
BLACK
6
CONTINUOUS
10
0.89182
20
0.325917
11
0.894851
21
0.327432
0
LINE
8
BLACK
6
CONTINUOUS
10
0.894851
20
0.327432
11
0.896048
21
0.328629
0
LINE
8
BLACK
6
CONTINUOUS
10
0.896048
20
0.328629
11
0.897397
21
0.331327
0
LINE
8
BLACK
6
CONTINUOUS
10
0.897397
20
0.331327
11
0.897397
21
0.333682
0
LINE
8
BLACK
6
CONTINUOUS
10
0.897397
20
0.333682
11
0.896048
21
0.33638
0
LINE
8
BLACK
6
CONTINUOUS
10
0.896048
20
0.33638
11
0.894851
21
0.337577
0
LINE
8
BLACK
6
CONTINUOUS
10
0.894851
20
0.337577
11
0.89182
21
0.339093
0
LINE
8
BLACK
6
CONTINUOUS
10
0.89182
20
0.339093
11
0.884988
21
0.340801
0
LINE
8
BLACK
6
CONTINUOUS
10
0.884988
20
0.340801
11
0.876341
21
0.340801
0
LINE
8
BLACK
6
CONTINUOUS
10
0.921502
20
0.329238
11
0.920925
21
0.33063
0
LINE
8
BLACK
6
CONTINUOUS
10
0.920925
20
0.33063
11
0.920925
21
0.40937
0
LINE
8
BLACK
6
CONTINUOUS
10
0.920925
20
0.40937
11
0.921502
21
0.410762
0
LINE
8
BLACK
6
CONTINUOUS
10
0.921502
20
0.410762
11
0.922894
21
0.411339
0
LINE
8
BLACK
6
CONTINUOUS
10
0.922894
20
0.411339
11
0.972106
21
0.411339
0
LINE
8
BLACK
6
CONTINUOUS
10
0.972106
20
0.411339
11
0.973498
21
0.410762
0
LINE
8
BLACK
6
CONTINUOUS
10
0.973498
20
0.410762
11
0.974075
21
0.40937
0
LINE
8
BLACK
6
CONTINUOUS
10
0.974075
20
0.40937
11
0.974075
21
0.33063
0
LINE
8
BLACK
6
CONTINUOUS
10
0.974075
20
0.33063
11
0.973498
21
0.329238
0
LINE
8
BLACK
6
CONTINUOUS
10
0.973498
20
0.329238
11
0.972106
21
0.328661
0
LINE
8
BLACK
6
CONTINUOUS
10
0.972106
20
0.328661
11
0.922894
21
0.328661
0
LINE
8
BLACK
6
CONTINUOUS
10
0.922894
20
0.328661
11
0.921502
21
0.329238
0
LINE
8
BLACK
6
CONTINUOUS
10
0.924862
20
0.407402
11
0.924862
21
0.332598
0
LINE
8
BLACK
6
CONTINUOUS
10
0.924862
20
0.332598
11
0.970138
21
0.332598
0
LINE
8
BLACK
6
CONTINUOUS
10
0.970138
20
0.332598
11
0.970138
21
0.407402
0
LINE
8
BLACK
6
CONTINUOUS
10
0.970138
20
0.407402
11
0.924862
21
0.407402
0
LINE
8
BLACK
6
CONTINUOUS
10
0.950182
20
0.367216
11
0.950548
21
0.36719
0
LINE
8
BLACK
6
CONTINUOUS
10
0.950548
20
0.36719
11
0.950718
21
0.366995
0
LINE
8
BLACK
6
CONTINUOUS
10
0.950718
20
0.366995
11
0.950957
21
0.366895
0
LINE
8
BLACK
6
CONTINUOUS
10
0.950957
20
0.366895
11
0.951097
21
0.366557
0
LINE
8
BLACK
6
CONTINUOUS
10
0.951097
20
0.366557
11
0.951337
21
0.36628
0
LINE
8
BLACK
6
CONTINUOUS
10
0.951337
20
0.36628
11
0.951319
21
0.366021
0
LINE
8
BLACK
6
CONTINUOUS
10
0.951319
20
0.366021
11
0.951418
21
0.365782
0
LINE
8
BLACK
6
CONTINUOUS
10
0.951418
20
0.365782
11
0.951418
21
0.357983
0
LINE
8
BLACK
6
CONTINUOUS
10
0.951418
20
0.357983
11
0.956405
21
0.357983
0
LINE
8
BLACK
6
CONTINUOUS
10
0.956405
20
0.357983
11
0.957519
21
0.357521
0
LINE
8
BLACK
6
CONTINUOUS
10
0.957519
20
0.357521
11
0.95798
21
0.356408
0
LINE
8
BLACK
6
CONTINUOUS
10
0.95798
20
0.356408
11
0.957519
21
0.355294
0
LINE
8
BLACK
6
CONTINUOUS
10
0.957519
20
0.355294
11
0.956405
21
0.354833
0
LINE
8
BLACK
6
CONTINUOUS
10
0.956405
20
0.354833
11
0.951418
21
0.354833
0
LINE
8
BLACK
6
CONTINUOUS
10
0.951418
20
0.354833
11
0.951418
21
0.353596
0
LINE
8
BLACK
6
CONTINUOUS
10
0.951418
20
0.353596
11
0.950957
21
0.352482
0
LINE
8
BLACK
6
CONTINUOUS
10
0.950957
20
0.352482
11
0.949843
21
0.352021
0
LINE
8
BLACK
6
CONTINUOUS
10
0.949843
20
0.352021
11
0.94873
21
0.352482
0
LINE
8
BLACK
6
CONTINUOUS
10
0.94873
20
0.352482
11
0.948269
21
0.353596
0
LINE
8
BLACK
6
CONTINUOUS
10
0.948269
20
0.353596
11
0.948269
21
0.354833
0
LINE
8
BLACK
6
CONTINUOUS
10
0.948269
20
0.354833
11
0.943282
21
0.354833
0
LINE
8
BLACK
6
CONTINUOUS
10
0.943282
20
0.354833
11
0.942168
21
0.355294
0
LINE
8
BLACK
6
CONTINUOUS
10
0.942168
20
0.355294
11
0.941707
21
0.356408
0
LINE
8
BLACK
6
CONTINUOUS
10
0.941707
20
0.356408
11
0.942168
21
0.357521
0
LINE
8
BLACK
6
CONTINUOUS
10
0.942168
20
0.357521
11
0.943282
21
0.357983
0
LINE
8
BLACK
6
CONTINUOUS
10
0.943282
20
0.357983
11
0.948269
21
0.357983
0
LINE
8
BLACK
6
CONTINUOUS
10
0.948269
20
0.357983
11
0.948269
21
0.363597
0
LINE
8
BLACK
6
CONTINUOUS
10
0.948269
20
0.363597
11
0.936281
21
0.359601
0
LINE
8
BLACK
6
CONTINUOUS
10
0.936281
20
0.359601
11
0.935078
21
0.359686
0
LINE
8
BLACK
6
CONTINUOUS
10
0.935078
20
0.359686
11
0.934289
21
0.360597
0
LINE
8
BLACK
6
CONTINUOUS
10
0.934289
20
0.360597
11
0.934374
21
0.361799
0
LINE
8
BLACK
6
CONTINUOUS
10
0.934374
20
0.361799
11
0.935285
21
0.362589
0
LINE
8
BLACK
6
CONTINUOUS
10
0.935285
20
0.362589
11
0.949345
21
0.367276
0
LINE
8
BLACK
6
CONTINUOUS
10
0.949345
20
0.367276
11
0.949604
21
0.367257
0
LINE
8
BLACK
6
CONTINUOUS
10
0.949604
20
0.367257
11
0.949843
21
0.367357
0
LINE
8
BLACK
6
CONTINUOUS
10
0.949843
20
0.367357
11
0.950182
21
0.367216
0
LINE
8
BLACK
6
CONTINUOUS
10
0.957519
20
0.385643
11
0.95798
21
0.384529
0
LINE
8
BLACK
6
CONTINUOUS
10
0.95798
20
0.384529
11
0.957519
21
0.383416
0
LINE
8
BLACK
6
CONTINUOUS
10
0.957519
20
0.383416
11
0.956405
21
0.382955
0
LINE
8
BLACK
6
CONTINUOUS
10
0.956405
20
0.382955
11
0.948606
21
0.382955
0
LINE
8
BLACK
6
CONTINUOUS
10
0.948606
20
0.382955
11
0.948606
21
0.380662
0
LINE
8
BLACK
6
CONTINUOUS
10
0.948606
20
0.380662
11
0.957308
21
0.374571
0
LINE
8
BLACK
6
CONTINUOUS
10
0.957308
20
0.374571
11
0.957956
21
0.373555
0
LINE
8
BLACK
6
CONTINUOUS
10
0.957956
20
0.373555
11
0.957695
21
0.372378
0
LINE
8
BLACK
6
CONTINUOUS
10
0.957695
20
0.372378
11
0.956679
21
0.37173
0
LINE
8
BLACK
6
CONTINUOUS
10
0.956679
20
0.37173
11
0.955502
21
0.371991
0
LINE
8
BLACK
6
CONTINUOUS
10
0.955502
20
0.371991
11
0.948538
21
0.376866
0
LINE
8
BLACK
6
CONTINUOUS
10
0.948538
20
0.376866
11
0.948466
21
0.376692
0
LINE
8
BLACK
6
CONTINUOUS
10
0.948466
20
0.376692
11
0.94844
21
0.376326
0
LINE
8
BLACK
6
CONTINUOUS
10
0.94844
20
0.376326
11
0.947502
21
0.374451
0
LINE
8
BLACK
6
CONTINUOUS
10
0.947502
20
0.374451
11
0.947307
21
0.374282
0
LINE
8
BLACK
6
CONTINUOUS
10
0.947307
20
0.374282
11
0.947207
21
0.374042
0
LINE
8
BLACK
6
CONTINUOUS
10
0.947207
20
0.374042
11
0.94627
21
0.373105
0
LINE
8
BLACK
6
CONTINUOUS
10
0.94627
20
0.373105
11
0.946031
21
0.373005
0
LINE
8
BLACK
6
CONTINUOUS
10
0.946031
20
0.373005
11
0.945861
21
0.37281
0
LINE
8
BLACK
6
CONTINUOUS
10
0.945861
20
0.37281
11
0.943986
21
0.371872
0
LINE
8
BLACK
6
CONTINUOUS
10
0.943986
20
0.371872
11
0.94362
21
0.371846
0
LINE
8
BLACK
6
CONTINUOUS
10
0.94362
20
0.371846
11
0.943282
21
0.371706
0
LINE
8
BLACK
6
CONTINUOUS
10
0.943282
20
0.371706
11
0.94047
21
0.371706
0
LINE
8
BLACK
6
CONTINUOUS
10
0.94047
20
0.371706
11
0.940131
21
0.371846
0
LINE
8
BLACK
6
CONTINUOUS
10
0.940131
20
0.371846
11
0.939765
21
0.371872
0
LINE
8
BLACK
6
CONTINUOUS
10
0.939765
20
0.371872
11
0.937891
21
0.37281
0
LINE
8
BLACK
6
CONTINUOUS
10
0.937891
20
0.37281
11
0.937721
21
0.373005
0
LINE
8
BLACK
6
CONTINUOUS
10
0.937721
20
0.373005
11
0.937481
21
0.373105
0
LINE
8
BLACK
6
CONTINUOUS
10
0.937481
20
0.373105
11
0.936544
21
0.374042
0
LINE
8
BLACK
6
CONTINUOUS
10
0.936544
20
0.374042
11
0.936445
21
0.374282
0
LINE
8
BLACK
6
CONTINUOUS
10
0.936445
20
0.374282
11
0.936249
21
0.374451
0
LINE
8
BLACK
6
CONTINUOUS
10
0.936249
20
0.374451
11
0.935312
21
0.376326
0
LINE
8
BLACK
6
CONTINUOUS
10
0.935312
20
0.376326
11
0.935286
21
0.376692
0
LINE
8
BLACK
6
CONTINUOUS
10
0.935286
20
0.376692
11
0.935145
21
0.37703
0
LINE
8
BLACK
6
CONTINUOUS
10
0.935145
20
0.37703
11
0.935145
21
0.384529
0
LINE
8
BLACK
6
CONTINUOUS
10
0.935145
20
0.384529
11
0.935607
21
0.385643
0
LINE
8
BLACK
6
CONTINUOUS
10
0.935607
20
0.385643
11
0.93672
21
0.386104
0
LINE
8
BLACK
6
CONTINUOUS
10
0.93672
20
0.386104
11
0.956405
21
0.386104
0
LINE
8
BLACK
6
CONTINUOUS
10
0.956405
20
0.386104
11
0.957519
21
0.385643
0
LINE
8
BLACK
6
CONTINUOUS
10
0.938295
20
0.382955
11
0.938295
21
0.377402
0
LINE
8
BLACK
6
CONTINUOUS
10
0.938295
20
0.377402
11
0.938952
21
0.376088
0
LINE
8
BLACK
6
CONTINUOUS
10
0.938952
20
0.376088
11
0.939528
21
0.375512
0
LINE
8
BLACK
6
CONTINUOUS
10
0.939528
20
0.375512
11
0.940841
21
0.374856
0
LINE
8
BLACK
6
CONTINUOUS
10
0.940841
20
0.374856
11
0.94291
21
0.374856
0
LINE
8
BLACK
6
CONTINUOUS
10
0.94291
20
0.374856
11
0.944224
21
0.375512
0
LINE
8
BLACK
6
CONTINUOUS
10
0.944224
20
0.375512
11
0.9448
21
0.376089
0
LINE
8
BLACK
6
CONTINUOUS
10
0.9448
20
0.376089
11
0.945456
21
0.377402
0
LINE
8
BLACK
6
CONTINUOUS
10
0.945456
20
0.377402
11
0.945456
21
0.382955
0
LINE
8
BLACK
6
CONTINUOUS
10
0.945456
20
0.382955
11
0.938295
21
0.382955
0
LINE
8
BLACK
6
CONTINUOUS
10
0.885932
20
0.384099
11
0.886068
21
0.384113
0
LINE
8
BLACK
6
CONTINUOUS
10
0.886068
20
0.384113
11
0.893567
21
0.382238
0
LINE
8
BLACK
6
CONTINUOUS
10
0.893567
20
0.382238
11
0.894032
21
0.382031
0
LINE
8
BLACK
6
CONTINUOUS
10
0.894032
20
0.382031
11
0.894171
21
0.382015
0
LINE
8
BLACK
6
CONTINUOUS
10
0.894171
20
0.382015
11
0.897921
21
0.38014
0
LINE
8
BLACK
6
CONTINUOUS
10
0.897921
20
0.38014
11
0.89863
21
0.379614
0
LINE
8
BLACK
6
CONTINUOUS
10
0.89863
20
0.379614
11
0.898688
21
0.379587
0
LINE
8
BLACK
6
CONTINUOUS
10
0.898688
20
0.379587
11
0.900563
21
0.377712
0
LINE
8
BLACK
6
CONTINUOUS
10
0.900563
20
0.377712
11
0.901069
21
0.376989
0
LINE
8
BLACK
6
CONTINUOUS
10
0.901069
20
0.376989
11
0.901116
21
0.376945
0
LINE
8
BLACK
6
CONTINUOUS
10
0.901116
20
0.376945
11
0.902991
21
0.373195
0
LINE
8
BLACK
6
CONTINUOUS
10
0.902991
20
0.373195
11
0.903283
21
0.372212
0
LINE
8
BLACK
6
CONTINUOUS
10
0.903283
20
0.372212
11
0.903242
21
0.372041
0
LINE
8
BLACK
6
CONTINUOUS
10
0.903242
20
0.372041
11
0.903302
21
0.371875
0
LINE
8
BLACK
6
CONTINUOUS
10
0.903302
20
0.371875
11
0.903302
21
0.368125
0
LINE
8
BLACK
6
CONTINUOUS
10
0.903302
20
0.368125
11
0.903124
21
0.367115
0
LINE
8
BLACK
6
CONTINUOUS
10
0.903124
20
0.367115
11
0.903011
21
0.36698
0
LINE
8
BLACK
6
CONTINUOUS
10
0.903011
20
0.36698
11
0.902991
21
0.366805
0
LINE
8
BLACK
6
CONTINUOUS
10
0.902991
20
0.366805
11
0.901116
21
0.363055
0
LINE
8
BLACK
6
CONTINUOUS
10
0.901116
20
0.363055
11
0.90059
21
0.362346
0
LINE
8
BLACK
6
CONTINUOUS
10
0.90059
20
0.362346
11
0.900563
21
0.362288
0
LINE
8
BLACK
6
CONTINUOUS
10
0.900563
20
0.362288
11
0.898688
21
0.360413
0
LINE
8
BLACK
6
CONTINUOUS
10
0.898688
20
0.360413
11
0.897965
21
0.359907
0
LINE
8
BLACK
6
CONTINUOUS
10
0.897965
20
0.359907
11
0.897921
21
0.35986
0
LINE
8
BLACK
6
CONTINUOUS
10
0.897921
20
0.35986
11
0.894171
21
0.357985
0
LINE
8
BLACK
6
CONTINUOUS
10
0.894171
20
0.357985
11
0.893683
21
0.35784
0
LINE
8
BLACK
6
CONTINUOUS
10
0.893683
20
0.35784
11
0.893567
21
0.357762
0
LINE
8
BLACK
6
CONTINUOUS
10
0.893567
20
0.357762
11
0.886068
21
0.355887
0
LINE
8
BLACK
6
CONTINUOUS
10
0.886068
20
0.355887
11
0.88548
21
0.355845
0
LINE
8
BLACK
6
CONTINUOUS
10
0.88548
20
0.355845
11
0.885351
21
0.355799
0
LINE
8
BLACK
6
CONTINUOUS
10
0.885351
20
0.355799
11
0.875978
21
0.355799
0
LINE
8
BLACK
6
CONTINUOUS
10
0.875978
20
0.355799
11
0.875397
21
0.355901
0
LINE
8
BLACK
6
CONTINUOUS
10
0.875397
20
0.355901
11
0.875262
21
0.355887
0
LINE
8
BLACK
6
CONTINUOUS
10
0.875262
20
0.355887
11
0.867762
21
0.357762
0
LINE
8
BLACK
6
CONTINUOUS
10
0.867762
20
0.357762
11
0.867297
21
0.357969
0
LINE
8
BLACK
6
CONTINUOUS
10
0.867297
20
0.357969
11
0.867158
21
0.357985
0
LINE
8
BLACK
6
CONTINUOUS
10
0.867158
20
0.357985
11
0.863409
21
0.35986
0
LINE
8
BLACK
6
CONTINUOUS
10
0.863409
20
0.35986
11
0.8627
21
0.360386
0
LINE
8
BLACK
6
CONTINUOUS
10
0.8627
20
0.360386
11
0.862641
21
0.360413
0
LINE
8
BLACK
6
CONTINUOUS
10
0.862641
20
0.360413
11
0.860766
21
0.362288
0
LINE
8
BLACK
6
CONTINUOUS
10
0.860766
20
0.362288
11
0.86026
21
0.363011
0
LINE
8
BLACK
6
CONTINUOUS
10
0.86026
20
0.363011
11
0.860213
21
0.363055
0
LINE
8
BLACK
6
CONTINUOUS
10
0.860213
20
0.363055
11
0.858339
21
0.366805
0
LINE
8
BLACK
6
CONTINUOUS
10
0.858339
20
0.366805
11
0.858046
21
0.367788
0
LINE
8
BLACK
6
CONTINUOUS
10
0.858046
20
0.367788
11
0.858087
21
0.367959
0
LINE
8
BLACK
6
CONTINUOUS
10
0.858087
20
0.367959
11
0.858027
21
0.368125
0
LINE
8
BLACK
6
CONTINUOUS
10
0.858027
20
0.368125
11
0.858027
21
0.371875
0
LINE
8
BLACK
6
CONTINUOUS
10
0.858027
20
0.371875
11
0.858205
21
0.372885
0
LINE
8
BLACK
6
CONTINUOUS
10
0.858205
20
0.372885
11
0.858318
21
0.37302
0
LINE
8
BLACK
6
CONTINUOUS
10
0.858318
20
0.37302
11
0.858339
21
0.373195
0
LINE
8
BLACK
6
CONTINUOUS
10
0.858339
20
0.373195
11
0.860213
21
0.376945
0
LINE
8
BLACK
6
CONTINUOUS
10
0.860213
20
0.376945
11
0.860739
21
0.377654
0
LINE
8
BLACK
6
CONTINUOUS
10
0.860739
20
0.377654
11
0.860766
21
0.377712
0
LINE
8
BLACK
6
CONTINUOUS
10
0.860766
20
0.377712
11
0.862641
21
0.379587
0
LINE
8
BLACK
6
CONTINUOUS
10
0.862641
20
0.379587
11
0.863364
21
0.380093
0
LINE
8
BLACK
6
CONTINUOUS
10
0.863364
20
0.380093
11
0.863409
21
0.38014
0
LINE
8
BLACK
6
CONTINUOUS
10
0.863409
20
0.38014
11
0.867158
21
0.382015
0
LINE
8
BLACK
6
CONTINUOUS
10
0.867158
20
0.382015
11
0.867647
21
0.38216
0
LINE
8
BLACK
6
CONTINUOUS
10
0.867647
20
0.38216
11
0.867762
21
0.382238
0
LINE
8
BLACK
6
CONTINUOUS
10
0.867762
20
0.382238
11
0.875262
21
0.384113
0
LINE
8
BLACK
6
CONTINUOUS
10
0.875262
20
0.384113
11
0.875849
21
0.384155
0
LINE
8
BLACK
6
CONTINUOUS
10
0.875849
20
0.384155
11
0.875978
21
0.384201
0
LINE
8
BLACK
6
CONTINUOUS
10
0.875978
20
0.384201
11
0.885351
21
0.384201
0
LINE
8
BLACK
6
CONTINUOUS
10
0.885351
20
0.384201
11
0.885932
21
0.384099
0
LINE
8
BLACK
6
CONTINUOUS
10
0.876341
20
0.378296
11
0.869509
21
0.376588
0
LINE
8
BLACK
6
CONTINUOUS
10
0.869509
20
0.376588
11
0.866478
21
0.375072
0
LINE
8
BLACK
6
CONTINUOUS
10
0.866478
20
0.375072
11
0.865281
21
0.373875
0
LINE
8
BLACK
6
CONTINUOUS
10
0.865281
20
0.373875
11
0.863932
21
0.371178
0
LINE
8
BLACK
6
CONTINUOUS
10
0.863932
20
0.371178
11
0.863932
21
0.368822
0
LINE
8
BLACK
6
CONTINUOUS
10
0.863932
20
0.368822
11
0.865281
21
0.366125
0
LINE
8
BLACK
6
CONTINUOUS
10
0.865281
20
0.366125
11
0.866478
21
0.364928
0
LINE
8
BLACK
6
CONTINUOUS
10
0.866478
20
0.364928
11
0.869509
21
0.363412
0
LINE
8
BLACK
6
CONTINUOUS
10
0.869509
20
0.363412
11
0.876341
21
0.361704
0
LINE
8
BLACK
6
CONTINUOUS
10
0.876341
20
0.361704
11
0.884988
21
0.361704
0
LINE
8
BLACK
6
CONTINUOUS
10
0.884988
20
0.361704
11
0.89182
21
0.363412
0
LINE
8
BLACK
6
CONTINUOUS
10
0.89182
20
0.363412
11
0.894851
21
0.364928
0
LINE
8
BLACK
6
CONTINUOUS
10
0.894851
20
0.364928
11
0.896048
21
0.366125
0
LINE
8
BLACK
6
CONTINUOUS
10
0.896048
20
0.366125
11
0.897397
21
0.368822
0
LINE
8
BLACK
6
CONTINUOUS
10
0.897397
20
0.368822
11
0.897397
21
0.371178
0
LINE
8
BLACK
6
CONTINUOUS
10
0.897397
20
0.371178
11
0.896048
21
0.373875
0
LINE
8
BLACK
6
CONTINUOUS
10
0.896048
20
0.373875
11
0.894851
21
0.375072
0
LINE
8
BLACK
6
CONTINUOUS
10
0.894851
20
0.375072
11
0.89182
21
0.376588
0
LINE
8
BLACK
6
CONTINUOUS
10
0.89182
20
0.376588
11
0.884988
21
0.378296
0
LINE
8
BLACK
6
CONTINUOUS
10
0.884988
20
0.378296
11
0.876341
21
0.378296
0
LINE
8
BLACK
6
CONTINUOUS
10
0.873987
20
0.421116
11
0.8751
21
0.41943
0
LINE
8
BLACK
6
CONTINUOUS
10
0.8751
20
0.41943
11
0.874869
21
0.417423
0
LINE
8
BLACK
6
CONTINUOUS
10
0.874869
20
0.417423
11
0.872994
21
0.413674
0
LINE
8
BLACK
6
CONTINUOUS
10
0.872994
20
0.413674
11
0.872469
21
0.412965
0
LINE
8
BLACK
6
CONTINUOUS
10
0.872469
20
0.412965
11
0.872441
21
0.412906
0
LINE
8
BLACK
6
CONTINUOUS
10
0.872441
20
0.412906
11
0.869983
21
0.410448
0
LINE
8
BLACK
6
CONTINUOUS
10
0.869983
20
0.410448
11
0.897397
21
0.410448
0
LINE
8
BLACK
6
CONTINUOUS
10
0.897397
20
0.410448
11
0.897397
21
0.418744
0
LINE
8
BLACK
6
CONTINUOUS
10
0.897397
20
0.418744
11
0.897575
21
0.419754
0
LINE
8
BLACK
6
CONTINUOUS
10
0.897575
20
0.419754
11
0.898873
21
0.421301
0
LINE
8
BLACK
6
CONTINUOUS
10
0.898873
20
0.421301
11
0.900862
21
0.421652
0
LINE
8
BLACK
6
CONTINUOUS
10
0.900862
20
0.421652
11
0.902612
21
0.420642
0
LINE
8
BLACK
6
CONTINUOUS
10
0.902612
20
0.420642
11
0.903302
21
0.418744
0
LINE
8
BLACK
6
CONTINUOUS
10
0.903302
20
0.418744
11
0.903302
21
0.396247
0
LINE
8
BLACK
6
CONTINUOUS
10
0.903302
20
0.396247
11
0.903124
21
0.395237
0
LINE
8
BLACK
6
CONTINUOUS
10
0.903124
20
0.395237
11
0.901826
21
0.39369
0
LINE
8
BLACK
6
CONTINUOUS
10
0.901826
20
0.39369
11
0.899837
21
0.393339
0
LINE
8
BLACK
6
CONTINUOUS
10
0.899837
20
0.393339
11
0.898088
21
0.394349
0
LINE
8
BLACK
6
CONTINUOUS
10
0.898088
20
0.394349
11
0.897397
21
0.396247
0
LINE
8
BLACK
6
CONTINUOUS
10
0.897397
20
0.396247
11
0.897397
21
0.404543
0
LINE
8
BLACK
6
CONTINUOUS
10
0.897397
20
0.404543
11
0.86098
21
0.404543
0
LINE
8
BLACK
6
CONTINUOUS
10
0.86098
20
0.404543
11
0.85997
21
0.404721
0
LINE
8
BLACK
6
CONTINUOUS
10
0.85997
20
0.404721
11
0.85984
21
0.40483
0
LINE
8
BLACK
6
CONTINUOUS
10
0.85984
20
0.40483
11
0.859671
21
0.404848
0
LINE
8
BLACK
6
CONTINUOUS
10
0.859671
20
0.404848
11
0.859079
21
0.405468
0
LINE
8
BLACK
6
CONTINUOUS
10
0.859079
20
0.405468
11
0.858422
21
0.406019
0
LINE
8
BLACK
6
CONTINUOUS
10
0.858422
20
0.406019
11
0.858393
21
0.406186
0
LINE
8
BLACK
6
CONTINUOUS
10
0.858393
20
0.406186
11
0.858276
21
0.406309
0
LINE
8
BLACK
6
CONTINUOUS
10
0.858276
20
0.406309
11
0.85822
21
0.407164
0
LINE
8
BLACK
6
CONTINUOUS
10
0.85822
20
0.407164
11
0.858072
21
0.408008
0
LINE
8
BLACK
6
CONTINUOUS
10
0.858072
20
0.408008
11
0.858157
21
0.408155
0
LINE
8
BLACK
6
CONTINUOUS
10
0.858157
20
0.408155
11
0.858146
21
0.408325
0
LINE
8
BLACK
6
CONTINUOUS
10
0.858146
20
0.408325
11
0.858653
21
0.409015
0
LINE
8
BLACK
6
CONTINUOUS
10
0.858653
20
0.409015
11
0.859082
21
0.409757
0
LINE
8
BLACK
6
CONTINUOUS
10
0.859082
20
0.409757
11
0.859241
21
0.409815
0
LINE
8
BLACK
6
CONTINUOUS
10
0.859241
20
0.409815
11
0.859342
21
0.409952
0
LINE
8
BLACK
6
CONTINUOUS
10
0.859342
20
0.409952
11
0.864723
21
0.41354
0
LINE
8
BLACK
6
CONTINUOUS
10
0.864723
20
0.41354
11
0.867927
21
0.416744
0
LINE
8
BLACK
6
CONTINUOUS
10
0.867927
20
0.416744
11
0.869587
21
0.420064
0
LINE
8
BLACK
6
CONTINUOUS
10
0.869587
20
0.420064
11
0.870198
21
0.420888
0
LINE
8
BLACK
6
CONTINUOUS
10
0.870198
20
0.420888
11
0.872051
21
0.421691
0
LINE
8
BLACK
6
CONTINUOUS
10
0.872051
20
0.421691
11
0.873987
21
0.421116
0
LINE
8
BLACK
6
CONTINUOUS
10
0.726575
20
0.50187
11
0.726575
21
0.492686
0
LINE
8
BLACK
6
CONTINUOUS
10
0.726575
20
0.492686
11
0.726674
21
0.492637
0
LINE
8
BLACK
6
CONTINUOUS
10
0.726674
20
0.492637
11
0.734654
21
0.492637
0
LINE
8
BLACK
6
CONTINUOUS
10
0.734654
20
0.492637
11
0.737351
21
0.493986
0
LINE
8
BLACK
6
CONTINUOUS
10
0.737351
20
0.493986
11
0.738548
21
0.495183
0
LINE
8
BLACK
6
CONTINUOUS
10
0.738548
20
0.495183
11
0.739897
21
0.49788
0
LINE
8
BLACK
6
CONTINUOUS
10
0.739897
20
0.49788
11
0.739897
21
0.507735
0
LINE
8
BLACK
6
CONTINUOUS
10
0.739897
20
0.507735
11
0.738548
21
0.510432
0
LINE
8
BLACK
6
CONTINUOUS
10
0.738548
20
0.510432
11
0.737012
21
0.511968
0
LINE
8
BLACK
6
CONTINUOUS
10
0.737012
20
0.511968
11
0.736424
21
0.512808
0
LINE
8
BLACK
6
CONTINUOUS
10
0.736424
20
0.512808
11
0.736248
21
0.51482
0
LINE
8
BLACK
6
CONTINUOUS
10
0.736248
20
0.51482
11
0.737406
21
0.516475
0
LINE
8
BLACK
6
CONTINUOUS
10
0.737406
20
0.516475
11
0.739357
21
0.516998
0
LINE
8
BLACK
6
CONTINUOUS
10
0.739357
20
0.516998
11
0.741188
21
0.516144
0
LINE
8
BLACK
6
CONTINUOUS
10
0.741188
20
0.516144
11
0.743063
21
0.514269
0
LINE
8
BLACK
6
CONTINUOUS
10
0.743063
20
0.514269
11
0.743569
21
0.513546
0
LINE
8
BLACK
6
CONTINUOUS
10
0.743569
20
0.513546
11
0.743616
21
0.513502
0
LINE
8
BLACK
6
CONTINUOUS
10
0.743616
20
0.513502
11
0.745491
21
0.509752
0
LINE
8
BLACK
6
CONTINUOUS
10
0.745491
20
0.509752
11
0.745783
21
0.508769
0
LINE
8
BLACK
6
CONTINUOUS
10
0.745783
20
0.508769
11
0.745742
21
0.508598
0
LINE
8
BLACK
6
CONTINUOUS
10
0.745742
20
0.508598
11
0.745802
21
0.508432
0
LINE
8
BLACK
6
CONTINUOUS
10
0.745802
20
0.508432
11
0.745802
21
0.497183
0
LINE
8
BLACK
6
CONTINUOUS
10
0.745802
20
0.497183
11
0.745624
21
0.496173
0
LINE
8
BLACK
6
CONTINUOUS
10
0.745624
20
0.496173
11
0.745511
21
0.496038
0
LINE
8
BLACK
6
CONTINUOUS
10
0.745511
20
0.496038
11
0.745491
21
0.495863
0
LINE
8
BLACK
6
CONTINUOUS
10
0.745491
20
0.495863
11
0.743616
21
0.492113
0
LINE
8
BLACK
6
CONTINUOUS
10
0.743616
20
0.492113
11
0.74309
21
0.491404
0
LINE
8
BLACK
6
CONTINUOUS
10
0.74309
20
0.491404
11
0.743063
21
0.491346
0
LINE
8
BLACK
6
CONTINUOUS
10
0.743063
20
0.491346
11
0.741188
21
0.489471
0
LINE
8
BLACK
6
CONTINUOUS
10
0.741188
20
0.489471
11
0.740465
21
0.488965
0
LINE
8
BLACK
6
CONTINUOUS
10
0.740465
20
0.488965
11
0.740421
21
0.488918
0
LINE
8
BLACK
6
CONTINUOUS
10
0.740421
20
0.488918
11
0.736671
21
0.487043
0
LINE
8
BLACK
6
CONTINUOUS
10
0.736671
20
0.487043
11
0.735688
21
0.486751
0
LINE
8
BLACK
6
CONTINUOUS
10
0.735688
20
0.486751
11
0.735516
21
0.486792
0
LINE
8
BLACK
6
CONTINUOUS
10
0.735516
20
0.486792
11
0.735351
21
0.486731
0
LINE
8
BLACK
6
CONTINUOUS
10
0.735351
20
0.486731
11
0.726575
21
0.486731
0
LINE
8
BLACK
6
CONTINUOUS
10
0.726575
20
0.486731
11
0.726575
21
0.455191
0
LINE
8
BLACK
6
CONTINUOUS
10
0.726575
20
0.455191
11
0.726674
21
0.455142
0
LINE
8
BLACK
6
CONTINUOUS
10
0.726674
20
0.455142
11
0.734654
21
0.455142
0
LINE
8
BLACK
6
CONTINUOUS
10
0.734654
20
0.455142
11
0.737351
21
0.45649
0
LINE
8
BLACK
6
CONTINUOUS
10
0.737351
20
0.45649
11
0.738548
21
0.457687
0
LINE
8
BLACK
6
CONTINUOUS
10
0.738548
20
0.457687
11
0.739897
21
0.460385
0
LINE
8
BLACK
6
CONTINUOUS
10
0.739897
20
0.460385
11
0.739897
21
0.470239
0
LINE
8
BLACK
6
CONTINUOUS
10
0.739897
20
0.470239
11
0.738548
21
0.472937
0
LINE
8
BLACK
6
CONTINUOUS
10
0.738548
20
0.472937
11
0.737012
21
0.474473
0
LINE
8
BLACK
6
CONTINUOUS
10
0.737012
20
0.474473
11
0.736424
21
0.475313
0
LINE
8
BLACK
6
CONTINUOUS
10
0.736424
20
0.475313
11
0.736248
21
0.477325
0
LINE
8
BLACK
6
CONTINUOUS
10
0.736248
20
0.477325
11
0.737406
21
0.47898
0
LINE
8
BLACK
6
CONTINUOUS
10
0.737406
20
0.47898
11
0.739357
21
0.479502
0
LINE
8
BLACK
6
CONTINUOUS
10
0.739357
20
0.479502
11
0.741188
21
0.478649
0
LINE
8
BLACK
6
CONTINUOUS
10
0.741188
20
0.478649
11
0.743063
21
0.476774
0
LINE
8
BLACK
6
CONTINUOUS
10
0.743063
20
0.476774
11
0.743569
21
0.476051
0
LINE
8
BLACK
6
CONTINUOUS
10
0.743569
20
0.476051
11
0.743616
21
0.476006
0
LINE
8
BLACK
6
CONTINUOUS
10
0.743616
20
0.476006
11
0.745491
21
0.472257
0
LINE
8
BLACK
6
CONTINUOUS
10
0.745491
20
0.472257
11
0.745783
21
0.471274
0
LINE
8
BLACK
6
CONTINUOUS
10
0.745783
20
0.471274
11
0.745742
21
0.471102
0
LINE
8
BLACK
6
CONTINUOUS
10
0.745742
20
0.471102
11
0.745802
21
0.470936
0
LINE
8
BLACK
6
CONTINUOUS
10
0.745802
20
0.470936
11
0.745802
21
0.459688
0
LINE
8
BLACK
6
CONTINUOUS
10
0.745802
20
0.459688
11
0.745624
21
0.458678
0
LINE
8
BLACK
6
CONTINUOUS
10
0.745624
20
0.458678
11
0.745511
21
0.458543
0
LINE
8
BLACK
6
CONTINUOUS
10
0.745511
20
0.458543
11
0.745491
21
0.458367
0
LINE
8
BLACK
6
CONTINUOUS
10
0.745491
20
0.458367
11
0.743616
21
0.454618
0
LINE
8
BLACK
6
CONTINUOUS
10
0.743616
20
0.454618
11
0.74309
21
0.453909
0
LINE
8
BLACK
6
CONTINUOUS
10
0.74309
20
0.453909
11
0.743063
21
0.45385
0
LINE
8
BLACK
6
CONTINUOUS
10
0.743063
20
0.45385
11
0.741188
21
0.451976
0
LINE
8
BLACK
6
CONTINUOUS
10
0.741188
20
0.451976
11
0.740465
21
0.451469
0
LINE
8
BLACK
6
CONTINUOUS
10
0.740465
20
0.451469
11
0.740421
21
0.451423
0
LINE
8
BLACK
6
CONTINUOUS
10
0.740421
20
0.451423
11
0.736671
21
0.449548
0
LINE
8
BLACK
6
CONTINUOUS
10
0.736671
20
0.449548
11
0.735688
21
0.449255
0
LINE
8
BLACK
6
CONTINUOUS
10
0.735688
20
0.449255
11
0.735516
21
0.449296
0
LINE
8
BLACK
6
CONTINUOUS
10
0.735516
20
0.449296
11
0.735351
21
0.449236
0
LINE
8
BLACK
6
CONTINUOUS
10
0.735351
20
0.449236
11
0.726575
21
0.449236
0
LINE
8
BLACK
6
CONTINUOUS
10
0.726575
20
0.449236
11
0.726575
21
0.438269
0
LINE
8
BLACK
6
CONTINUOUS
10
0.726575
20
0.438269
11
0.74285
21
0.438269
0
LINE
8
BLACK
6
CONTINUOUS
10
0.74285
20
0.438269
11
0.74386
21
0.438091
0
LINE
8
BLACK
6
CONTINUOUS
10
0.74386
20
0.438091
11
0.745407
21
0.436792
0
LINE
8
BLACK
6
CONTINUOUS
10
0.745407
20
0.436792
11
0.745758
21
0.434803
0
LINE
8
BLACK
6
CONTINUOUS
10
0.745758
20
0.434803
11
0.744748
21
0.433054
0
LINE
8
BLACK
6
CONTINUOUS
10
0.744748
20
0.433054
11
0.74285
21
0.432363
0
LINE
8
BLACK
6
CONTINUOUS
10
0.74285
20
0.432363
11
0.727055
21
0.432363
0
LINE
8
BLACK
6
CONTINUOUS
10
0.727055
20
0.432363
11
0.727055
21
0.427479
0
LINE
8
BLACK
6
CONTINUOUS
10
0.727055
20
0.427479
11
0.744543
21
0.415238
0
LINE
8
BLACK
6
CONTINUOUS
10
0.744543
20
0.415238
11
0.745268
21
0.414513
0
LINE
8
BLACK
6
CONTINUOUS
10
0.745268
20
0.414513
11
0.745791
21
0.412562
0
LINE
8
BLACK
6
CONTINUOUS
10
0.745791
20
0.412562
11
0.744938
21
0.410731
0
LINE
8
BLACK
6
CONTINUOUS
10
0.744938
20
0.410731
11
0.743107
21
0.409877
0
LINE
8
BLACK
6
CONTINUOUS
10
0.743107
20
0.409877
11
0.741156
21
0.4104
0
LINE
8
BLACK
6
CONTINUOUS
10
0.741156
20
0.4104
11
0.727047
21
0.420276
0
LINE
8
BLACK
6
CONTINUOUS
10
0.727047
20
0.420276
11
0.726877
21
0.419308
0
LINE
8
BLACK
6
CONTINUOUS
10
0.726877
20
0.419308
11
0.726763
21
0.419173
0
LINE
8
BLACK
6
CONTINUOUS
10
0.726763
20
0.419173
11
0.726743
21
0.418997
0
LINE
8
BLACK
6
CONTINUOUS
10
0.726743
20
0.418997
11
0.724868
21
0.415248
0
LINE
8
BLACK
6
CONTINUOUS
10
0.724868
20
0.415248
11
0.724342
21
0.414539
0
LINE
8
BLACK
6
CONTINUOUS
10
0.724342
20
0.414539
11
0.724315
21
0.41448
0
LINE
8
BLACK
6
CONTINUOUS
10
0.724315
20
0.41448
11
0.72244
21
0.412606
0
LINE
8
BLACK
6
CONTINUOUS
10
0.72244
20
0.412606
11
0.721717
21
0.412099
0
LINE
8
BLACK
6
CONTINUOUS
10
0.721717
20
0.412099
11
0.721673
21
0.412052
0
LINE
8
BLACK
6
CONTINUOUS
10
0.721673
20
0.412052
11
0.717923
21
0.410178
0
LINE
8
BLACK
6
CONTINUOUS
10
0.717923
20
0.410178
11
0.71694
21
0.409885
0
LINE
8
BLACK
6
CONTINUOUS
10
0.71694
20
0.409885
11
0.716769
21
0.409926
0
LINE
8
BLACK
6
CONTINUOUS
10
0.716769
20
0.409926
11
0.716603
21
0.409866
0
LINE
8
BLACK
6
CONTINUOUS
10
0.716603
20
0.409866
11
0.710979
21
0.409866
0
LINE
8
BLACK
6
CONTINUOUS
10
0.710979
20
0.409866
11
0.709969
21
0.410044
0
LINE
8
BLACK
6
CONTINUOUS
10
0.709969
20
0.410044
11
0.709833
21
0.410158
0
LINE
8
BLACK
6
CONTINUOUS
10
0.709833
20
0.410158
11
0.709658
21
0.410178
0
LINE
8
BLACK
6
CONTINUOUS
10
0.709658
20
0.410178
11
0.705909
21
0.412052
0
LINE
8
BLACK
6
CONTINUOUS
10
0.705909
20
0.412052
11
0.7052
21
0.412578
0
LINE
8
BLACK
6
CONTINUOUS
10
0.7052
20
0.412578
11
0.705141
21
0.412606
0
LINE
8
BLACK
6
CONTINUOUS
10
0.705141
20
0.412606
11
0.703266
21
0.41448
0
LINE
8
BLACK
6
CONTINUOUS
10
0.703266
20
0.41448
11
0.70276
21
0.415203
0
LINE
8
BLACK
6
CONTINUOUS
10
0.70276
20
0.415203
11
0.702713
21
0.415248
0
LINE
8
BLACK
6
CONTINUOUS
10
0.702713
20
0.415248
11
0.700839
21
0.418997
0
LINE
8
BLACK
6
CONTINUOUS
10
0.700839
20
0.418997
11
0.700546
21
0.41998
0
LINE
8
BLACK
6
CONTINUOUS
10
0.700546
20
0.41998
11
0.700587
21
0.420152
0
LINE
8
BLACK
6
CONTINUOUS
10
0.700587
20
0.420152
11
0.700527
21
0.420318
0
LINE
8
BLACK
6
CONTINUOUS
10
0.700527
20
0.420318
11
0.700527
21
0.421161
0
LINE
8
BLACK
6
CONTINUOUS
10
0.700527
20
0.421161
11
0.675394
21
0.421161
0
LINE
8
BLACK
6
CONTINUOUS
10
0.675394
20
0.421161
11
0.674002
21
0.421738
0
LINE
8
BLACK
6
CONTINUOUS
10
0.674002
20
0.421738
11
0.673425
21
0.42313
0
LINE
8
BLACK
6
CONTINUOUS
10
0.673425
20
0.42313
11
0.673425
21
0.50187
0
LINE
8
BLACK
6
CONTINUOUS
10
0.673425
20
0.50187
11
0.674002
21
0.503262
0
LINE
8
BLACK
6
CONTINUOUS
10
0.674002
20
0.503262
11
0.675394
21
0.503839
0
LINE
8
BLACK
6
CONTINUOUS
10
0.675394
20
0.503839
11
0.700527
21
0.503839
0
LINE
8
BLACK
6
CONTINUOUS
10
0.700527
20
0.503839
11
0.700527
21
0.514056
0
LINE
8
BLACK
6
CONTINUOUS
10
0.700527
20
0.514056
11
0.700705
21
0.515066
0
LINE
8
BLACK
6
CONTINUOUS
10
0.700705
20
0.515066
11
0.702003
21
0.516613
0
LINE
8
BLACK
6
CONTINUOUS
10
0.702003
20
0.516613
11
0.703992
21
0.516964
0
LINE
8
BLACK
6
CONTINUOUS
10
0.703992
20
0.516964
11
0.705741
21
0.515954
0
LINE
8
BLACK
6
CONTINUOUS
10
0.705741
20
0.515954
11
0.706432
21
0.514056
0
LINE
8
BLACK
6
CONTINUOUS
10
0.706432
20
0.514056
11
0.706432
21
0.503839
0
LINE
8
BLACK
6
CONTINUOUS
10
0.706432
20
0.503839
11
0.715172
21
0.503839
0
LINE
8
BLACK
6
CONTINUOUS
10
0.715172
20
0.503839
11
0.716533
21
0.50503
0
LINE
8
BLACK
6
CONTINUOUS
10
0.716533
20
0.50503
11
0.716913
21
0.50526
0
LINE
8
BLACK
6
CONTINUOUS
10
0.716913
20
0.50526
11
0.717001
21
0.505365
0
LINE
8
BLACK
6
CONTINUOUS
10
0.717001
20
0.505365
11
0.717122
21
0.505386
0
LINE
8
BLACK
6
CONTINUOUS
10
0.717122
20
0.505386
11
0.717411
21
0.505561
0
LINE
8
BLACK
6
CONTINUOUS
10
0.717411
20
0.505561
11
0.718207
21
0.505577
0
LINE
8
BLACK
6
CONTINUOUS
10
0.718207
20
0.505577
11
0.71899
21
0.505715
0
LINE
8
BLACK
6
CONTINUOUS
10
0.71899
20
0.505715
11
0.719194
21
0.505598
0
LINE
8
BLACK
6
CONTINUOUS
10
0.719194
20
0.505598
11
0.71943
21
0.505602
0
LINE
8
BLACK
6
CONTINUOUS
10
0.71943
20
0.505602
11
0.72005
21
0.505103
0
LINE
8
BLACK
6
CONTINUOUS
10
0.72005
20
0.505103
11
0.72074
21
0.504705
0
LINE
8
BLACK
6
CONTINUOUS
10
0.72074
20
0.504705
11
0.72082
21
0.504484
0
LINE
8
BLACK
6
CONTINUOUS
10
0.72082
20
0.504484
11
0.721004
21
0.504336
0
LINE
8
BLACK
6
CONTINUOUS
10
0.721004
20
0.504336
11
0.721102
21
0.503839
0
LINE
8
BLACK
6
CONTINUOUS
10
0.721102
20
0.503839
11
0.724606
21
0.503839
0
LINE
8
BLACK
6
CONTINUOUS
10
0.724606
20
0.503839
11
0.725998
21
0.503262
0
LINE
8
BLACK
6
CONTINUOUS
10
0.725998
20
0.503262
11
0.726575
21
0.50187
0
LINE
8
BLACK
6
CONTINUOUS
10
0.706432
20
0.421161
11
0.706432
21
0.421015
0
LINE
8
BLACK
6
CONTINUOUS
10
0.706432
20
0.421015
11
0.707781
21
0.418317
0
LINE
8
BLACK
6
CONTINUOUS
10
0.707781
20
0.418317
11
0.708978
21
0.41712
0
LINE
8
BLACK
6
CONTINUOUS
10
0.708978
20
0.41712
11
0.711676
21
0.415771
0
LINE
8
BLACK
6
CONTINUOUS
10
0.711676
20
0.415771
11
0.715906
21
0.415771
0
LINE
8
BLACK
6
CONTINUOUS
10
0.715906
20
0.415771
11
0.718603
21
0.41712
0
LINE
8
BLACK
6
CONTINUOUS
10
0.718603
20
0.41712
11
0.7198
21
0.418317
0
LINE
8
BLACK
6
CONTINUOUS
10
0.7198
20
0.418317
11
0.721149
21
0.421015
0
LINE
8
BLACK
6
CONTINUOUS
10
0.721149
20
0.421015
11
0.721149
21
0.421161
0
LINE
8
BLACK
6
CONTINUOUS
10
0.721149
20
0.421161
11
0.706432
21
0.421161
0
LINE
8
BLACK
6
CONTINUOUS
10
0.677362
20
0.499902
11
0.677362
21
0.425098
0
LINE
8
BLACK
6
CONTINUOUS
10
0.677362
20
0.425098
11
0.700527
21
0.425098
0
LINE
8
BLACK
6
CONTINUOUS
10
0.700527
20
0.425098
11
0.700527
21
0.435316
0
LINE
8
BLACK
6
CONTINUOUS
10
0.700527
20
0.435316
11
0.700594
21
0.435699
0
LINE
8
BLACK
6
CONTINUOUS
10
0.700594
20
0.435699
11
0.700572
21
0.435829
0
LINE
8
BLACK
6
CONTINUOUS
10
0.700572
20
0.435829
11
0.700637
21
0.435942
0
LINE
8
BLACK
6
CONTINUOUS
10
0.700637
20
0.435942
11
0.700705
21
0.436326
0
LINE
8
BLACK
6
CONTINUOUS
10
0.700705
20
0.436326
11
0.701198
21
0.436914
0
LINE
8
BLACK
6
CONTINUOUS
10
0.701198
20
0.436914
11
0.701582
21
0.437578
0
LINE
8
BLACK
6
CONTINUOUS
10
0.701582
20
0.437578
11
0.701832
21
0.437669
0
LINE
8
BLACK
6
CONTINUOUS
10
0.701832
20
0.437669
11
0.702003
21
0.437873
0
LINE
8
BLACK
6
CONTINUOUS
10
0.702003
20
0.437873
11
0.702759
21
0.438006
0
LINE
8
BLACK
6
CONTINUOUS
10
0.702759
20
0.438006
11
0.70348
21
0.438269
0
LINE
8
BLACK
6
CONTINUOUS
10
0.70348
20
0.438269
11
0.722638
21
0.438269
0
LINE
8
BLACK
6
CONTINUOUS
10
0.722638
20
0.438269
11
0.722638
21
0.450557
0
LINE
8
BLACK
6
CONTINUOUS
10
0.722638
20
0.450557
11
0.720907
21
0.451423
0
LINE
8
BLACK
6
CONTINUOUS
10
0.720907
20
0.451423
11
0.720198
21
0.451948
0
LINE
8
BLACK
6
CONTINUOUS
10
0.720198
20
0.451948
11
0.720139
21
0.451976
0
LINE
8
BLACK
6
CONTINUOUS
10
0.720139
20
0.451976
11
0.718265
21
0.45385
0
LINE
8
BLACK
6
CONTINUOUS
10
0.718265
20
0.45385
11
0.717758
21
0.454574
0
LINE
8
BLACK
6
CONTINUOUS
10
0.717758
20
0.454574
11
0.717711
21
0.454618
0
LINE
8
BLACK
6
CONTINUOUS
10
0.717711
20
0.454618
11
0.715837
21
0.458367
0
LINE
8
BLACK
6
CONTINUOUS
10
0.715837
20
0.458367
11
0.715669
21
0.458931
0
LINE
8
BLACK
6
CONTINUOUS
10
0.715669
20
0.458931
11
0.71048
21
0.454391
0
LINE
8
BLACK
6
CONTINUOUS
10
0.71048
20
0.454391
11
0.71048
21
0.447033
0
LINE
8
BLACK
6
CONTINUOUS
10
0.71048
20
0.447033
11
0.710019
21
0.44592
0
LINE
8
BLACK
6
CONTINUOUS
10
0.710019
20
0.44592
11
0.708905
21
0.445458
0
LINE
8
BLACK
6
CONTINUOUS
10
0.708905
20
0.445458
11
0.707792
21
0.44592
0
LINE
8
BLACK
6
CONTINUOUS
10
0.707792
20
0.44592
11
0.70733
21
0.447033
0
LINE
8
BLACK
6
CONTINUOUS
10
0.70733
20
0.447033
11
0.70733
21
0.451635
0
LINE
8
BLACK
6
CONTINUOUS
10
0.70733
20
0.451635
11
0.705424
21
0.449967
0
LINE
8
BLACK
6
CONTINUOUS
10
0.705424
20
0.449967
11
0.705044
21
0.449737
0
LINE
8
BLACK
6
CONTINUOUS
10
0.705044
20
0.449737
11
0.704956
21
0.449632
0
LINE
8
BLACK
6
CONTINUOUS
10
0.704956
20
0.449632
11
0.704835
21
0.44961
0
LINE
8
BLACK
6
CONTINUOUS
10
0.704835
20
0.44961
11
0.704547
21
0.449436
0
LINE
8
BLACK
6
CONTINUOUS
10
0.704547
20
0.449436
11
0.703751
21
0.449419
0
LINE
8
BLACK
6
CONTINUOUS
10
0.703751
20
0.449419
11
0.702967
21
0.449281
0
LINE
8
BLACK
6
CONTINUOUS
10
0.702967
20
0.449281
11
0.702763
21
0.449399
0
LINE
8
BLACK
6
CONTINUOUS
10
0.702763
20
0.449399
11
0.702527
21
0.449394
0
LINE
8
BLACK
6
CONTINUOUS
10
0.702527
20
0.449394
11
0.701907
21
0.449893
0
LINE
8
BLACK
6
CONTINUOUS
10
0.701907
20
0.449893
11
0.701843
21
0.44993
0
LINE
8
BLACK
6
CONTINUOUS
10
0.701843
20
0.44993
11
0.69877
21
0.446857
0
LINE
8
BLACK
6
CONTINUOUS
10
0.69877
20
0.446857
11
0.698431
21
0.446717
0
LINE
8
BLACK
6
CONTINUOUS
10
0.698431
20
0.446717
11
0.698155
21
0.446477
0
LINE
8
BLACK
6
CONTINUOUS
10
0.698155
20
0.446477
11
0.695342
21
0.445539
0
LINE
8
BLACK
6
CONTINUOUS
10
0.695342
20
0.445539
11
0.695084
21
0.445558
0
LINE
8
BLACK
6
CONTINUOUS
10
0.695084
20
0.445558
11
0.694844
21
0.445458
0
LINE
8
BLACK
6
CONTINUOUS
10
0.694844
20
0.445458
11
0.69297
21
0.445458
0
LINE
8
BLACK
6
CONTINUOUS
10
0.69297
20
0.445458
11
0.692631
21
0.445599
0
LINE
8
BLACK
6
CONTINUOUS
10
0.692631
20
0.445599
11
0.692265
21
0.445625
0
LINE
8
BLACK
6
CONTINUOUS
10
0.692265
20
0.445625
11
0.690391
21
0.446562
0
LINE
8
BLACK
6
CONTINUOUS
10
0.690391
20
0.446562
11
0.690221
21
0.446758
0
LINE
8
BLACK
6
CONTINUOUS
10
0.690221
20
0.446758
11
0.689981
21
0.446857
0
LINE
8
BLACK
6
CONTINUOUS
10
0.689981
20
0.446857
11
0.689044
21
0.447794
0
LINE
8
BLACK
6
CONTINUOUS
10
0.689044
20
0.447794
11
0.688945
21
0.448034
0
LINE
8
BLACK
6
CONTINUOUS
10
0.688945
20
0.448034
11
0.688749
21
0.448204
0
LINE
8
BLACK
6
CONTINUOUS
10
0.688749
20
0.448204
11
0.687812
21
0.450078
0
LINE
8
BLACK
6
CONTINUOUS
10
0.687812
20
0.450078
11
0.687786
21
0.450444
0
LINE
8
BLACK
6
CONTINUOUS
10
0.687786
20
0.450444
11
0.687645
21
0.450783
0
LINE
8
BLACK
6
CONTINUOUS
10
0.687645
20
0.450783
11
0.687645
21
0.45547
0
LINE
8
BLACK
6
CONTINUOUS
10
0.687645
20
0.45547
11
0.687786
21
0.455808
0
LINE
8
BLACK
6
CONTINUOUS
10
0.687786
20
0.455808
11
0.687812
21
0.456174
0
LINE
8
BLACK
6
CONTINUOUS
10
0.687812
20
0.456174
11
0.688749
21
0.458049
0
LINE
8
BLACK
6
CONTINUOUS
10
0.688749
20
0.458049
11
0.688945
21
0.458219
0
LINE
8
BLACK
6
CONTINUOUS
10
0.688945
20
0.458219
11
0.689044
21
0.458458
0
LINE
8
BLACK
6
CONTINUOUS
10
0.689044
20
0.458458
11
0.689981
21
0.459395
0
LINE
8
BLACK
6
CONTINUOUS
10
0.689981
20
0.459395
11
0.691095
21
0.459857
0
LINE
8
BLACK
6
CONTINUOUS
10
0.691095
20
0.459857
11
0.692208
21
0.459395
0
LINE
8
BLACK
6
CONTINUOUS
10
0.692208
20
0.459395
11
0.69267
21
0.458282
0
LINE
8
BLACK
6
CONTINUOUS
10
0.69267
20
0.458282
11
0.692208
21
0.457168
0
LINE
8
BLACK
6
CONTINUOUS
10
0.692208
20
0.457168
11
0.691452
21
0.456412
0
LINE
8
BLACK
6
CONTINUOUS
10
0.691452
20
0.456412
11
0.690795
21
0.455098
0
LINE
8
BLACK
6
CONTINUOUS
10
0.690795
20
0.455098
11
0.690795
21
0.451154
0
LINE
8
BLACK
6
CONTINUOUS
10
0.690795
20
0.451154
11
0.691452
21
0.449841
0
LINE
8
BLACK
6
CONTINUOUS
10
0.691452
20
0.449841
11
0.692028
21
0.449265
0
LINE
8
BLACK
6
CONTINUOUS
10
0.692028
20
0.449265
11
0.693341
21
0.448608
0
LINE
8
BLACK
6
CONTINUOUS
10
0.693341
20
0.448608
11
0.694589
21
0.448608
0
LINE
8
BLACK
6
CONTINUOUS
10
0.694589
20
0.448608
11
0.696806
21
0.449347
0
LINE
8
BLACK
6
CONTINUOUS
10
0.696806
20
0.449347
11
0.700527
21
0.453068
0
LINE
8
BLACK
6
CONTINUOUS
10
0.700527
20
0.453068
11
0.700527
21
0.468
0
LINE
8
BLACK
6
CONTINUOUS
10
0.700527
20
0.468
11
0.700002
21
0.466951
0
LINE
8
BLACK
6
CONTINUOUS
10
0.700002
20
0.466951
11
0.699807
21
0.466782
0
LINE
8
BLACK
6
CONTINUOUS
10
0.699807
20
0.466782
11
0.699707
21
0.466542
0
LINE
8
BLACK
6
CONTINUOUS
10
0.699707
20
0.466542
11
0.69877
21
0.465605
0
LINE
8
BLACK
6
CONTINUOUS
10
0.69877
20
0.465605
11
0.698531
21
0.465505
0
LINE
8
BLACK
6
CONTINUOUS
10
0.698531
20
0.465505
11
0.698361
21
0.46531
0
LINE
8
BLACK
6
CONTINUOUS
10
0.698361
20
0.46531
11
0.696486
21
0.464372
0
LINE
8
BLACK
6
CONTINUOUS
10
0.696486
20
0.464372
11
0.69612
21
0.464346
0
LINE
8
BLACK
6
CONTINUOUS
10
0.69612
20
0.464346
11
0.695782
21
0.464206
0
LINE
8
BLACK
6
CONTINUOUS
10
0.695782
20
0.464206
11
0.69297
21
0.464206
0
LINE
8
BLACK
6
CONTINUOUS
10
0.69297
20
0.464206
11
0.692631
21
0.464346
0
LINE
8
BLACK
6
CONTINUOUS
10
0.692631
20
0.464346
11
0.692265
21
0.464372
0
LINE
8
BLACK
6
CONTINUOUS
10
0.692265
20
0.464372
11
0.690391
21
0.46531
0
LINE
8
BLACK
6
CONTINUOUS
10
0.690391
20
0.46531
11
0.690221
21
0.465505
0
LINE
8
BLACK
6
CONTINUOUS
10
0.690221
20
0.465505
11
0.689981
21
0.465605
0
LINE
8
BLACK
6
CONTINUOUS
10
0.689981
20
0.465605
11
0.689044
21
0.466542
0
LINE
8
BLACK
6
CONTINUOUS
10
0.689044
20
0.466542
11
0.688945
21
0.466782
0
LINE
8
BLACK
6
CONTINUOUS
10
0.688945
20
0.466782
11
0.688749
21
0.466951
0
LINE
8
BLACK
6
CONTINUOUS
10
0.688749
20
0.466951
11
0.687812
21
0.468826
0
LINE
8
BLACK
6
CONTINUOUS
10
0.687812
20
0.468826
11
0.687786
21
0.469192
0
LINE
8
BLACK
6
CONTINUOUS
10
0.687786
20
0.469192
11
0.687645
21
0.46953
0
LINE
8
BLACK
6
CONTINUOUS
10
0.687645
20
0.46953
11
0.687645
21
0.477029
0
LINE
8
BLACK
6
CONTINUOUS
10
0.687645
20
0.477029
11
0.688107
21
0.478143
0
LINE
8
BLACK
6
CONTINUOUS
10
0.688107
20
0.478143
11
0.68922
21
0.478604
0
LINE
8
BLACK
6
CONTINUOUS
10
0.68922
20
0.478604
11
0.701572
21
0.478604
0
LINE
8
BLACK
6
CONTINUOUS
10
0.701572
20
0.478604
11
0.702003
21
0.479118
0
LINE
8
BLACK
6
CONTINUOUS
10
0.702003
20
0.479118
11
0.703992
21
0.479469
0
LINE
8
BLACK
6
CONTINUOUS
10
0.703992
20
0.479469
11
0.705489
21
0.478604
0
LINE
8
BLACK
6
CONTINUOUS
10
0.705489
20
0.478604
11
0.708905
21
0.478604
0
LINE
8
BLACK
6
CONTINUOUS
10
0.708905
20
0.478604
11
0.710019
21
0.478143
0
LINE
8
BLACK
6
CONTINUOUS
10
0.710019
20
0.478143
11
0.71048
21
0.477029
0
LINE
8
BLACK
6
CONTINUOUS
10
0.71048
20
0.477029
11
0.710019
21
0.475916
0
LINE
8
BLACK
6
CONTINUOUS
10
0.710019
20
0.475916
11
0.708905
21
0.475455
0
LINE
8
BLACK
6
CONTINUOUS
10
0.708905
20
0.475455
11
0.706432
21
0.475455
0
LINE
8
BLACK
6
CONTINUOUS
10
0.706432
20
0.475455
11
0.706432
21
0.469434
0
LINE
8
BLACK
6
CONTINUOUS
10
0.706432
20
0.469434
11
0.709808
21
0.467071
0
LINE
8
BLACK
6
CONTINUOUS
10
0.709808
20
0.467071
11
0.710456
21
0.466055
0
LINE
8
BLACK
6
CONTINUOUS
10
0.710456
20
0.466055
11
0.710195
21
0.464878
0
LINE
8
BLACK
6
CONTINUOUS
10
0.710195
20
0.464878
11
0.709179
21
0.46423
0
LINE
8
BLACK
6
CONTINUOUS
10
0.709179
20
0.46423
11
0.708002
21
0.464491
0
LINE
8
BLACK
6
CONTINUOUS
10
0.708002
20
0.464491
11
0.706432
21
0.46559
0
LINE
8
BLACK
6
CONTINUOUS
10
0.706432
20
0.46559
11
0.706432
21
0.458973
0
LINE
8
BLACK
6
CONTINUOUS
10
0.706432
20
0.458973
11
0.707792
21
0.460333
0
LINE
8
BLACK
6
CONTINUOUS
10
0.707792
20
0.460333
11
0.708762
21
0.460735
0
LINE
8
BLACK
6
CONTINUOUS
10
0.708762
20
0.460735
11
0.716533
21
0.467534
0
LINE
8
BLACK
6
CONTINUOUS
10
0.716533
20
0.467534
11
0.716913
21
0.467764
0
LINE
8
BLACK
6
CONTINUOUS
10
0.716913
20
0.467764
11
0.717001
21
0.467869
0
LINE
8
BLACK
6
CONTINUOUS
10
0.717001
20
0.467869
11
0.717122
21
0.467891
0
LINE
8
BLACK
6
CONTINUOUS
10
0.717122
20
0.467891
11
0.717411
21
0.468065
0
LINE
8
BLACK
6
CONTINUOUS
10
0.717411
20
0.468065
11
0.718207
21
0.468082
0
LINE
8
BLACK
6
CONTINUOUS
10
0.718207
20
0.468082
11
0.71899
21
0.46822
0
LINE
8
BLACK
6
CONTINUOUS
10
0.71899
20
0.46822
11
0.719194
21
0.468102
0
LINE
8
BLACK
6
CONTINUOUS
10
0.719194
20
0.468102
11
0.71943
21
0.468107
0
LINE
8
BLACK
6
CONTINUOUS
10
0.71943
20
0.468107
11
0.72005
21
0.467608
0
LINE
8
BLACK
6
CONTINUOUS
10
0.72005
20
0.467608
11
0.72074
21
0.46721
0
LINE
8
BLACK
6
CONTINUOUS
10
0.72074
20
0.46721
11
0.72082
21
0.466989
0
LINE
8
BLACK
6
CONTINUOUS
10
0.72082
20
0.466989
11
0.721004
21
0.466841
0
LINE
8
BLACK
6
CONTINUOUS
10
0.721004
20
0.466841
11
0.721158
21
0.46606
0
LINE
8
BLACK
6
CONTINUOUS
10
0.721158
20
0.46606
11
0.72143
21
0.465312
0
LINE
8
BLACK
6
CONTINUOUS
10
0.72143
20
0.465312
11
0.72143
21
0.460385
0
LINE
8
BLACK
6
CONTINUOUS
10
0.72143
20
0.460385
11
0.722638
21
0.45797
0
LINE
8
BLACK
6
CONTINUOUS
10
0.722638
20
0.45797
11
0.722638
21
0.488052
0
LINE
8
BLACK
6
CONTINUOUS
10
0.722638
20
0.488052
11
0.720907
21
0.488918
0
LINE
8
BLACK
6
CONTINUOUS
10
0.720907
20
0.488918
11
0.720198
21
0.489444
0
LINE
8
BLACK
6
CONTINUOUS
10
0.720198
20
0.489444
11
0.720139
21
0.489471
0
LINE
8
BLACK
6
CONTINUOUS
10
0.720139
20
0.489471
11
0.718265
21
0.491346
0
LINE
8
BLACK
6
CONTINUOUS
10
0.718265
20
0.491346
11
0.717758
21
0.492069
0
LINE
8
BLACK
6
CONTINUOUS
10
0.717758
20
0.492069
11
0.717711
21
0.492113
0
LINE
8
BLACK
6
CONTINUOUS
10
0.717711
20
0.492113
11
0.715837
21
0.495863
0
LINE
8
BLACK
6
CONTINUOUS
10
0.715837
20
0.495863
11
0.715669
21
0.496426
0
LINE
8
BLACK
6
CONTINUOUS
10
0.715669
20
0.496426
11
0.705424
21
0.487462
0
LINE
8
BLACK
6
CONTINUOUS
10
0.705424
20
0.487462
11
0.705044
21
0.487232
0
LINE
8
BLACK
6
CONTINUOUS
10
0.705044
20
0.487232
11
0.704956
21
0.487127
0
LINE
8
BLACK
6
CONTINUOUS
10
0.704956
20
0.487127
11
0.704835
21
0.487106
0
LINE
8
BLACK
6
CONTINUOUS
10
0.704835
20
0.487106
11
0.704547
21
0.486931
0
LINE
8
BLACK
6
CONTINUOUS
10
0.704547
20
0.486931
11
0.703751
21
0.486914
0
LINE
8
BLACK
6
CONTINUOUS
10
0.703751
20
0.486914
11
0.702967
21
0.486776
0
LINE
8
BLACK
6
CONTINUOUS
10
0.702967
20
0.486776
11
0.702763
21
0.486894
0
LINE
8
BLACK
6
CONTINUOUS
10
0.702763
20
0.486894
11
0.702527
21
0.486889
0
LINE
8
BLACK
6
CONTINUOUS
10
0.702527
20
0.486889
11
0.701907
21
0.487388
0
LINE
8
BLACK
6
CONTINUOUS
10
0.701907
20
0.487388
11
0.701218
21
0.487786
0
LINE
8
BLACK
6
CONTINUOUS
10
0.701218
20
0.487786
11
0.701137
21
0.488007
0
LINE
8
BLACK
6
CONTINUOUS
10
0.701137
20
0.488007
11
0.700953
21
0.488155
0
LINE
8
BLACK
6
CONTINUOUS
10
0.700953
20
0.488155
11
0.700799
21
0.488936
0
LINE
8
BLACK
6
CONTINUOUS
10
0.700799
20
0.488936
11
0.700527
21
0.489684
0
LINE
8
BLACK
6
CONTINUOUS
10
0.700527
20
0.489684
11
0.700527
21
0.499902
0
LINE
8
BLACK
6
CONTINUOUS
10
0.700527
20
0.499902
11
0.677362
21
0.499902
0
LINE
8
BLACK
6
CONTINUOUS
10
0.706432
20
0.432363
11
0.706432
21
0.425098
0
LINE
8
BLACK
6
CONTINUOUS
10
0.706432
20
0.425098
11
0.721149
21
0.425098
0
LINE
8
BLACK
6
CONTINUOUS
10
0.721149
20
0.425098
11
0.721149
21
0.432363
0
LINE
8
BLACK
6
CONTINUOUS
10
0.721149
20
0.432363
11
0.706432
21
0.432363
0
LINE
8
BLACK
6
CONTINUOUS
10
0.690795
20
0.475455
11
0.690795
21
0.469902
0
LINE
8
BLACK
6
CONTINUOUS
10
0.690795
20
0.469902
11
0.691452
21
0.468588
0
LINE
8
BLACK
6
CONTINUOUS
10
0.691452
20
0.468588
11
0.692028
21
0.468012
0
LINE
8
BLACK
6
CONTINUOUS
10
0.692028
20
0.468012
11
0.693341
21
0.467356
0
LINE
8
BLACK
6
CONTINUOUS
10
0.693341
20
0.467356
11
0.69541
21
0.467356
0
LINE
8
BLACK
6
CONTINUOUS
10
0.69541
20
0.467356
11
0.696724
21
0.468012
0
LINE
8
BLACK
6
CONTINUOUS
10
0.696724
20
0.468012
11
0.6973
21
0.468589
0
LINE
8
BLACK
6
CONTINUOUS
10
0.6973
20
0.468589
11
0.697956
21
0.469902
0
LINE
8
BLACK
6
CONTINUOUS
10
0.697956
20
0.469902
11
0.697956
21
0.475455
0
LINE
8
BLACK
6
CONTINUOUS
10
0.697956
20
0.475455
11
0.690795
21
0.475455
0
LINE
8
BLACK
6
CONTINUOUS
10
0.72143
20
0.499902
11
0.72143
21
0.49788
0
LINE
8
BLACK
6
CONTINUOUS
10
0.72143
20
0.49788
11
0.722638
21
0.495466
0
LINE
8
BLACK
6
CONTINUOUS
10
0.722638
20
0.495466
11
0.722638
21
0.499902
0
LINE
8
BLACK
6
CONTINUOUS
10
0.722638
20
0.499902
11
0.72143
21
0.499902
0
LINE
8
BLACK
6
CONTINUOUS
10
0.706432
20
0.499902
11
0.706432
21
0.496191
0
LINE
8
BLACK
6
CONTINUOUS
10
0.706432
20
0.496191
11
0.710673
21
0.499902
0
LINE
8
BLACK
6
CONTINUOUS
10
0.710673
20
0.499902
11
0.706432
21
0.499902
0
LINE
8
BLACK
6
CONTINUOUS
10
0.65386
20
0.438091
11
0.655407
21
0.436792
0
LINE
8
BLACK
6
CONTINUOUS
10
0.655407
20
0.436792
11
0.655758
21
0.434803
0
LINE
8
BLACK
6
CONTINUOUS
10
0.655758
20
0.434803
11
0.654748
21
0.433054
0
LINE
8
BLACK
6
CONTINUOUS
10
0.654748
20
0.433054
11
0.65285
21
0.432363
0
LINE
8
BLACK
6
CONTINUOUS
10
0.65285
20
0.432363
11
0.637055
21
0.432363
0
LINE
8
BLACK
6
CONTINUOUS
10
0.637055
20
0.432363
11
0.637055
21
0.427479
0
LINE
8
BLACK
6
CONTINUOUS
10
0.637055
20
0.427479
11
0.654543
21
0.415238
0
LINE
8
BLACK
6
CONTINUOUS
10
0.654543
20
0.415238
11
0.655268
21
0.414513
0
LINE
8
BLACK
6
CONTINUOUS
10
0.655268
20
0.414513
11
0.655791
21
0.412562
0
LINE
8
BLACK
6
CONTINUOUS
10
0.655791
20
0.412562
11
0.654938
21
0.410731
0
LINE
8
BLACK
6
CONTINUOUS
10
0.654938
20
0.410731
11
0.653107
21
0.409877
0
LINE
8
BLACK
6
CONTINUOUS
10
0.653107
20
0.409877
11
0.651156
21
0.4104
0
LINE
8
BLACK
6
CONTINUOUS
10
0.651156
20
0.4104
11
0.637047
21
0.420276
0
LINE
8
BLACK
6
CONTINUOUS
10
0.637047
20
0.420276
11
0.636877
21
0.419308
0
LINE
8
BLACK
6
CONTINUOUS
10
0.636877
20
0.419308
11
0.636763
21
0.419173
0
LINE
8
BLACK
6
CONTINUOUS
10
0.636763
20
0.419173
11
0.636743
21
0.418997
0
LINE
8
BLACK
6
CONTINUOUS
10
0.636743
20
0.418997
11
0.634868
21
0.415248
0
LINE
8
BLACK
6
CONTINUOUS
10
0.634868
20
0.415248
11
0.634342
21
0.414539
0
LINE
8
BLACK
6
CONTINUOUS
10
0.634342
20
0.414539
11
0.634315
21
0.41448
0
LINE
8
BLACK
6
CONTINUOUS
10
0.634315
20
0.41448
11
0.63244
21
0.412606
0
LINE
8
BLACK
6
CONTINUOUS
10
0.63244
20
0.412606
11
0.631717
21
0.412099
0
LINE
8
BLACK
6
CONTINUOUS
10
0.631717
20
0.412099
11
0.631673
21
0.412052
0
LINE
8
BLACK
6
CONTINUOUS
10
0.631673
20
0.412052
11
0.627923
21
0.410178
0
LINE
8
BLACK
6
CONTINUOUS
10
0.627923
20
0.410178
11
0.62694
21
0.409885
0
LINE
8
BLACK
6
CONTINUOUS
10
0.62694
20
0.409885
11
0.626769
21
0.409926
0
LINE
8
BLACK
6
CONTINUOUS
10
0.626769
20
0.409926
11
0.626603
21
0.409866
0
LINE
8
BLACK
6
CONTINUOUS
10
0.626603
20
0.409866
11
0.620979
21
0.409866
0
LINE
8
BLACK
6
CONTINUOUS
10
0.620979
20
0.409866
11
0.619969
21
0.410044
0
LINE
8
BLACK
6
CONTINUOUS
10
0.619969
20
0.410044
11
0.619833
21
0.410158
0
LINE
8
BLACK
6
CONTINUOUS
10
0.619833
20
0.410158
11
0.619658
21
0.410178
0
LINE
8
BLACK
6
CONTINUOUS
10
0.619658
20
0.410178
11
0.615909
21
0.412052
0
LINE
8
BLACK
6
CONTINUOUS
10
0.615909
20
0.412052
11
0.6152
21
0.412578
0
LINE
8
BLACK
6
CONTINUOUS
10
0.6152
20
0.412578
11
0.615141
21
0.412606
0
LINE
8
BLACK
6
CONTINUOUS
10
0.615141
20
0.412606
11
0.613266
21
0.41448
0
LINE
8
BLACK
6
CONTINUOUS
10
0.613266
20
0.41448
11
0.61276
21
0.415203
0
LINE
8
BLACK
6
CONTINUOUS
10
0.61276
20
0.415203
11
0.612713
21
0.415248
0
LINE
8
BLACK
6
CONTINUOUS
10
0.612713
20
0.415248
11
0.610839
21
0.418997
0
LINE
8
BLACK
6
CONTINUOUS
10
0.610839
20
0.418997
11
0.610546
21
0.41998
0
LINE
8
BLACK
6
CONTINUOUS
10
0.610546
20
0.41998
11
0.610587
21
0.420152
0
LINE
8
BLACK
6
CONTINUOUS
10
0.610587
20
0.420152
11
0.610527
21
0.420318
0
LINE
8
BLACK
6
CONTINUOUS
10
0.610527
20
0.420318
11
0.610527
21
0.435316
0
LINE
8
BLACK
6
CONTINUOUS
10
0.610527
20
0.435316
11
0.610594
21
0.435699
0
LINE
8
BLACK
6
CONTINUOUS
10
0.610594
20
0.435699
11
0.610572
21
0.435829
0
LINE
8
BLACK
6
CONTINUOUS
10
0.610572
20
0.435829
11
0.610637
21
0.435942
0
LINE
8
BLACK
6
CONTINUOUS
10
0.610637
20
0.435942
11
0.610705
21
0.436326
0
LINE
8
BLACK
6
CONTINUOUS
10
0.610705
20
0.436326
11
0.611198
21
0.436914
0
LINE
8
BLACK
6
CONTINUOUS
10
0.611198
20
0.436914
11
0.611582
21
0.437578
0
LINE
8
BLACK
6
CONTINUOUS
10
0.611582
20
0.437578
11
0.611832
21
0.437669
0
LINE
8
BLACK
6
CONTINUOUS
10
0.611832
20
0.437669
11
0.612003
21
0.437873
0
LINE
8
BLACK
6
CONTINUOUS
10
0.612003
20
0.437873
11
0.612759
21
0.438006
0
LINE
8
BLACK
6
CONTINUOUS
10
0.612759
20
0.438006
11
0.61348
21
0.438269
0
LINE
8
BLACK
6
CONTINUOUS
10
0.61348
20
0.438269
11
0.65285
21
0.438269
0
LINE
8
BLACK
6
CONTINUOUS
10
0.65285
20
0.438269
11
0.65386
21
0.438091
0
LINE
8
BLACK
6
CONTINUOUS
10
0.616432
20
0.432363
11
0.616432
21
0.421015
0
LINE
8
BLACK
6
CONTINUOUS
10
0.616432
20
0.421015
11
0.617781
21
0.418317
0
LINE
8
BLACK
6
CONTINUOUS
10
0.617781
20
0.418317
11
0.618978
21
0.41712
0
LINE
8
BLACK
6
CONTINUOUS
10
0.618978
20
0.41712
11
0.621676
21
0.415771
0
LINE
8
BLACK
6
CONTINUOUS
10
0.621676
20
0.415771
11
0.625906
21
0.415771
0
LINE
8
BLACK
6
CONTINUOUS
10
0.625906
20
0.415771
11
0.628603
21
0.41712
0
LINE
8
BLACK
6
CONTINUOUS
10
0.628603
20
0.41712
11
0.6298
21
0.418317
0
LINE
8
BLACK
6
CONTINUOUS
10
0.6298
20
0.418317
11
0.631149
21
0.421015
0
LINE
8
BLACK
6
CONTINUOUS
10
0.631149
20
0.421015
11
0.631149
21
0.432363
0
LINE
8
BLACK
6
CONTINUOUS
10
0.631149
20
0.432363
11
0.616432
21
0.432363
0
LINE
8
BLACK
6
CONTINUOUS
10
0.764002
20
0.421738
11
0.763425
21
0.42313
0
LINE
8
BLACK
6
CONTINUOUS
10
0.763425
20
0.42313
11
0.763425
21
0.50187
0
LINE
8
BLACK
6
CONTINUOUS
10
0.763425
20
0.50187
11
0.764002
21
0.503262
0
LINE
8
BLACK
6
CONTINUOUS
10
0.764002
20
0.503262
11
0.765394
21
0.503839
0
LINE
8
BLACK
6
CONTINUOUS
10
0.765394
20
0.503839
11
0.814606
21
0.503839
0
LINE
8
BLACK
6
CONTINUOUS
10
0.814606
20
0.503839
11
0.815998
21
0.503262
0
LINE
8
BLACK
6
CONTINUOUS
10
0.815998
20
0.503262
11
0.816575
21
0.50187
0
LINE
8
BLACK
6
CONTINUOUS
10
0.816575
20
0.50187
11
0.816575
21
0.42313
0
LINE
8
BLACK
6
CONTINUOUS
10
0.816575
20
0.42313
11
0.815998
21
0.421738
0
LINE
8
BLACK
6
CONTINUOUS
10
0.815998
20
0.421738
11
0.814606
21
0.421161
0
LINE
8
BLACK
6
CONTINUOUS
10
0.814606
20
0.421161
11
0.765394
21
0.421161
0
LINE
8
BLACK
6
CONTINUOUS
10
0.765394
20
0.421161
11
0.764002
21
0.421738
0
LINE
8
BLACK
6
CONTINUOUS
10
0.767362
20
0.499902
11
0.767362
21
0.425098
0
LINE
8
BLACK
6
CONTINUOUS
10
0.767362
20
0.425098
11
0.812638
21
0.425098
0
LINE
8
BLACK
6
CONTINUOUS
10
0.812638
20
0.425098
11
0.812638
21
0.499902
0
LINE
8
BLACK
6
CONTINUOUS
10
0.812638
20
0.499902
11
0.767362
21
0.499902
0
LINE
8
BLACK
6
CONTINUOUS
10
0.800019
20
0.459395
11
0.80048
21
0.458282
0
LINE
8
BLACK
6
CONTINUOUS
10
0.80048
20
0.458282
11
0.80048
21
0.447033
0
LINE
8
BLACK
6
CONTINUOUS
10
0.80048
20
0.447033
11
0.800019
21
0.44592
0
LINE
8
BLACK
6
CONTINUOUS
10
0.800019
20
0.44592
11
0.798905
21
0.445458
0
LINE
8
BLACK
6
CONTINUOUS
10
0.798905
20
0.445458
11
0.797792
21
0.44592
0
LINE
8
BLACK
6
CONTINUOUS
10
0.797792
20
0.44592
11
0.79733
21
0.447033
0
LINE
8
BLACK
6
CONTINUOUS
10
0.79733
20
0.447033
11
0.79733
21
0.451083
0
LINE
8
BLACK
6
CONTINUOUS
10
0.79733
20
0.451083
11
0.77922
21
0.451083
0
LINE
8
BLACK
6
CONTINUOUS
10
0.77922
20
0.451083
11
0.77907
21
0.451145
0
LINE
8
BLACK
6
CONTINUOUS
10
0.77907
20
0.451145
11
0.778911
21
0.451113
0
LINE
8
BLACK
6
CONTINUOUS
10
0.778911
20
0.451113
11
0.77853
21
0.451368
0
LINE
8
BLACK
6
CONTINUOUS
10
0.77853
20
0.451368
11
0.778107
21
0.451544
0
LINE
8
BLACK
6
CONTINUOUS
10
0.778107
20
0.451544
11
0.778044
21
0.451694
0
LINE
8
BLACK
6
CONTINUOUS
10
0.778044
20
0.451694
11
0.77791
21
0.451784
0
LINE
8
BLACK
6
CONTINUOUS
10
0.77791
20
0.451784
11
0.777821
21
0.452234
0
LINE
8
BLACK
6
CONTINUOUS
10
0.777821
20
0.452234
11
0.777645
21
0.452657
0
LINE
8
BLACK
6
CONTINUOUS
10
0.777645
20
0.452657
11
0.777707
21
0.452807
0
LINE
8
BLACK
6
CONTINUOUS
10
0.777707
20
0.452807
11
0.777676
21
0.452966
0
LINE
8
BLACK
6
CONTINUOUS
10
0.777676
20
0.452966
11
0.777931
21
0.453347
0
LINE
8
BLACK
6
CONTINUOUS
10
0.777931
20
0.453347
11
0.778107
21
0.453771
0
LINE
8
BLACK
6
CONTINUOUS
10
0.778107
20
0.453771
11
0.778256
21
0.453833
0
LINE
8
BLACK
6
CONTINUOUS
10
0.778256
20
0.453833
11
0.778347
21
0.453968
0
LINE
8
BLACK
6
CONTINUOUS
10
0.778347
20
0.453968
11
0.781029
21
0.455756
0
LINE
8
BLACK
6
CONTINUOUS
10
0.781029
20
0.455756
11
0.782613
21
0.45734
0
LINE
8
BLACK
6
CONTINUOUS
10
0.782613
20
0.45734
11
0.783436
21
0.458986
0
LINE
8
BLACK
6
CONTINUOUS
10
0.783436
20
0.458986
11
0.784346
21
0.459776
0
LINE
8
BLACK
6
CONTINUOUS
10
0.784346
20
0.459776
11
0.785549
21
0.45969
0
LINE
8
BLACK
6
CONTINUOUS
10
0.785549
20
0.45969
11
0.786338
21
0.45878
0
LINE
8
BLACK
6
CONTINUOUS
10
0.786338
20
0.45878
11
0.786253
21
0.457578
0
LINE
8
BLACK
6
CONTINUOUS
10
0.786253
20
0.457578
11
0.785316
21
0.455703
0
LINE
8
BLACK
6
CONTINUOUS
10
0.785316
20
0.455703
11
0.78512
21
0.455533
0
LINE
8
BLACK
6
CONTINUOUS
10
0.78512
20
0.455533
11
0.785021
21
0.455293
0
LINE
8
BLACK
6
CONTINUOUS
10
0.785021
20
0.455293
11
0.783959
21
0.454232
0
LINE
8
BLACK
6
CONTINUOUS
10
0.783959
20
0.454232
11
0.79733
21
0.454232
0
LINE
8
BLACK
6
CONTINUOUS
10
0.79733
20
0.454232
11
0.79733
21
0.458282
0
LINE
8
BLACK
6
CONTINUOUS
10
0.79733
20
0.458282
11
0.797792
21
0.459395
0
LINE
8
BLACK
6
CONTINUOUS
10
0.797792
20
0.459395
11
0.798905
21
0.459857
0
LINE
8
BLACK
6
CONTINUOUS
10
0.798905
20
0.459857
11
0.800019
21
0.459395
0
LINE
8
BLACK
6
CONTINUOUS
10
0.800019
20
0.478143
11
0.80048
21
0.477029
0
LINE
8
BLACK
6
CONTINUOUS
10
0.80048
20
0.477029
11
0.800019
21
0.475916
0
LINE
8
BLACK
6
CONTINUOUS
10
0.800019
20
0.475916
11
0.798905
21
0.475455
0
LINE
8
BLACK
6
CONTINUOUS
10
0.798905
20
0.475455
11
0.791106
21
0.475455
0
LINE
8
BLACK
6
CONTINUOUS
10
0.791106
20
0.475455
11
0.791106
21
0.473162
0
LINE
8
BLACK
6
CONTINUOUS
10
0.791106
20
0.473162
11
0.799808
21
0.467071
0
LINE
8
BLACK
6
CONTINUOUS
10
0.799808
20
0.467071
11
0.800456
21
0.466055
0
LINE
8
BLACK
6
CONTINUOUS
10
0.800456
20
0.466055
11
0.800195
21
0.464878
0
LINE
8
BLACK
6
CONTINUOUS
10
0.800195
20
0.464878
11
0.799179
21
0.46423
0
LINE
8
BLACK
6
CONTINUOUS
10
0.799179
20
0.46423
11
0.798002
21
0.464491
0
LINE
8
BLACK
6
CONTINUOUS
10
0.798002
20
0.464491
11
0.791038
21
0.469366
0
LINE
8
BLACK
6
CONTINUOUS
10
0.791038
20
0.469366
11
0.790966
21
0.469192
0
LINE
8
BLACK
6
CONTINUOUS
10
0.790966
20
0.469192
11
0.79094
21
0.468826
0
LINE
8
BLACK
6
CONTINUOUS
10
0.79094
20
0.468826
11
0.790002
21
0.466951
0
LINE
8
BLACK
6
CONTINUOUS
10
0.790002
20
0.466951
11
0.789807
21
0.466782
0
LINE
8
BLACK
6
CONTINUOUS
10
0.789807
20
0.466782
11
0.789707
21
0.466542
0
LINE
8
BLACK
6
CONTINUOUS
10
0.789707
20
0.466542
11
0.78877
21
0.465605
0
LINE
8
BLACK
6
CONTINUOUS
10
0.78877
20
0.465605
11
0.788531
21
0.465505
0
LINE
8
BLACK
6
CONTINUOUS
10
0.788531
20
0.465505
11
0.788361
21
0.46531
0
LINE
8
BLACK
6
CONTINUOUS
10
0.788361
20
0.46531
11
0.786486
21
0.464372
0
LINE
8
BLACK
6
CONTINUOUS
10
0.786486
20
0.464372
11
0.78612
21
0.464346
0
LINE
8
BLACK
6
CONTINUOUS
10
0.78612
20
0.464346
11
0.785782
21
0.464206
0
LINE
8
BLACK
6
CONTINUOUS
10
0.785782
20
0.464206
11
0.78297
21
0.464206
0
LINE
8
BLACK
6
CONTINUOUS
10
0.78297
20
0.464206
11
0.782631
21
0.464346
0
LINE
8
BLACK
6
CONTINUOUS
10
0.782631
20
0.464346
11
0.782265
21
0.464372
0
LINE
8
BLACK
6
CONTINUOUS
10
0.782265
20
0.464372
11
0.780391
21
0.46531
0
LINE
8
BLACK
6
CONTINUOUS
10
0.780391
20
0.46531
11
0.780221
21
0.465505
0
LINE
8
BLACK
6
CONTINUOUS
10
0.780221
20
0.465505
11
0.779981
21
0.465605
0
LINE
8
BLACK
6
CONTINUOUS
10
0.779981
20
0.465605
11
0.779044
21
0.466542
0
LINE
8
BLACK
6
CONTINUOUS
10
0.779044
20
0.466542
11
0.778945
21
0.466782
0
LINE
8
BLACK
6
CONTINUOUS
10
0.778945
20
0.466782
11
0.778749
21
0.466951
0
LINE
8
BLACK
6
CONTINUOUS
10
0.778749
20
0.466951
11
0.777812
21
0.468826
0
LINE
8
BLACK
6
CONTINUOUS
10
0.777812
20
0.468826
11
0.777786
21
0.469192
0
LINE
8
BLACK
6
CONTINUOUS
10
0.777786
20
0.469192
11
0.777645
21
0.46953
0
LINE
8
BLACK
6
CONTINUOUS
10
0.777645
20
0.46953
11
0.777645
21
0.477029
0
LINE
8
BLACK
6
CONTINUOUS
10
0.777645
20
0.477029
11
0.778107
21
0.478143
0
LINE
8
BLACK
6
CONTINUOUS
10
0.778107
20
0.478143
11
0.77922
21
0.478604
0
LINE
8
BLACK
6
CONTINUOUS
10
0.77922
20
0.478604
11
0.798905
21
0.478604
0
LINE
8
BLACK
6
CONTINUOUS
10
0.798905
20
0.478604
11
0.800019
21
0.478143
0
LINE
8
BLACK
6
CONTINUOUS
10
0.780795
20
0.475455
11
0.780795
21
0.469902
0
LINE
8
BLACK
6
CONTINUOUS
10
0.780795
20
0.469902
11
0.781452
21
0.468588
0
LINE
8
BLACK
6
CONTINUOUS
10
0.781452
20
0.468588
11
0.782028
21
0.468012
0
LINE
8
BLACK
6
CONTINUOUS
10
0.782028
20
0.468012
11
0.783341
21
0.467356
0
LINE
8
BLACK
6
CONTINUOUS
10
0.783341
20
0.467356
11
0.78541
21
0.467356
0
LINE
8
BLACK
6
CONTINUOUS
10
0.78541
20
0.467356
11
0.786724
21
0.468012
0
LINE
8
BLACK
6
CONTINUOUS
10
0.786724
20
0.468012
11
0.7873
21
0.468589
0
LINE
8
BLACK
6
CONTINUOUS
10
0.7873
20
0.468589
11
0.787956
21
0.469902
0
LINE
8
BLACK
6
CONTINUOUS
10
0.787956
20
0.469902
11
0.787956
21
0.475455
0
LINE
8
BLACK
6
CONTINUOUS
10
0.787956
20
0.475455
11
0.780795
21
0.475455
0
LINE
8
BLACK
6
CONTINUOUS
10
0.38475
20
0.427112
11
0.384173
21
0.428504
0
LINE
8
BLACK
6
CONTINUOUS
10
0.384173
20
0.428504
11
0.384173
21
0.491496
0
LINE
8
BLACK
6
CONTINUOUS
10
0.384173
20
0.491496
11
0.38475
21
0.492888
0
LINE
8
BLACK
6
CONTINUOUS
10
0.38475
20
0.492888
11
0.386142
21
0.493465
0
LINE
8
BLACK
6
CONTINUOUS
10
0.386142
20
0.493465
11
0.516063
21
0.493465
0
LINE
8
BLACK
6
CONTINUOUS
10
0.516063
20
0.493465
11
0.517455
21
0.492888
0
LINE
8
BLACK
6
CONTINUOUS
10
0.517455
20
0.492888
11
0.518031
21
0.491496
0
LINE
8
BLACK
6
CONTINUOUS
10
0.518031
20
0.491496
11
0.518031
21
0.428504
0
LINE
8
BLACK
6
CONTINUOUS
10
0.518031
20
0.428504
11
0.517455
21
0.427112
0
LINE
8
BLACK
6
CONTINUOUS
10
0.517455
20
0.427112
11
0.516063
21
0.426535
0
LINE
8
BLACK
6
CONTINUOUS
10
0.516063
20
0.426535
11
0.386142
21
0.426535
0
LINE
8
BLACK
6
CONTINUOUS
10
0.386142
20
0.426535
11
0.38475
21
0.427112
0
LINE
8
BLACK
6
CONTINUOUS
10
0.38811
20
0.489528
11
0.38811
21
0.430472
0
LINE
8
BLACK
6
CONTINUOUS
10
0.38811
20
0.430472
11
0.514094
21
0.430472
0
LINE
8
BLACK
6
CONTINUOUS
10
0.514094
20
0.430472
11
0.514094
21
0.489528
0
LINE
8
BLACK
6
CONTINUOUS
10
0.514094
20
0.489528
11
0.38811
21
0.489528
0
LINE
8
BLACK
6
CONTINUOUS
10
0.438715
20
0.483045
11
0.439291
21
0.481654
0
LINE
8
BLACK
6
CONTINUOUS
10
0.439291
20
0.481654
11
0.439291
21
0.463678
0
LINE
8
BLACK
6
CONTINUOUS
10
0.439291
20
0.463678
11
0.459853
21
0.477386
0
LINE
8
BLACK
6
CONTINUOUS
10
0.459853
20
0.477386
11
0.460415
21
0.477497
0
LINE
8
BLACK
6
CONTINUOUS
10
0.460415
20
0.477497
11
0.460945
21
0.477717
0
LINE
8
BLACK
6
CONTINUOUS
10
0.460945
20
0.477717
11
0.461132
21
0.477639
0
LINE
8
BLACK
6
CONTINUOUS
10
0.461132
20
0.477639
11
0.461331
21
0.477678
0
LINE
8
BLACK
6
CONTINUOUS
10
0.461331
20
0.477678
11
0.461807
21
0.477359
0
LINE
8
BLACK
6
CONTINUOUS
10
0.461807
20
0.477359
11
0.462337
21
0.47714
0
LINE
8
BLACK
6
CONTINUOUS
10
0.462337
20
0.47714
11
0.462414
21
0.476953
0
LINE
8
BLACK
6
CONTINUOUS
10
0.462414
20
0.476953
11
0.462583
21
0.47684
0
LINE
8
BLACK
6
CONTINUOUS
10
0.462583
20
0.47684
11
0.462694
21
0.476278
0
LINE
8
BLACK
6
CONTINUOUS
10
0.462694
20
0.476278
11
0.462913
21
0.475748
0
LINE
8
BLACK
6
CONTINUOUS
10
0.462913
20
0.475748
11
0.462913
21
0.461969
0
LINE
8
BLACK
6
CONTINUOUS
10
0.462913
20
0.461969
11
0.48063
21
0.461969
0
LINE
8
BLACK
6
CONTINUOUS
10
0.48063
20
0.461969
11
0.482022
21
0.461392
0
LINE
8
BLACK
6
CONTINUOUS
10
0.482022
20
0.461392
11
0.482598
21
0.46
0
LINE
8
BLACK
6
CONTINUOUS
10
0.482598
20
0.46
11
0.482022
21
0.458608
0
LINE
8
BLACK
6
CONTINUOUS
10
0.482022
20
0.458608
11
0.48063
21
0.458031
0
LINE
8
BLACK
6
CONTINUOUS
10
0.48063
20
0.458031
11
0.462913
21
0.458031
0
LINE
8
BLACK
6
CONTINUOUS
10
0.462913
20
0.458031
11
0.462913
21
0.444252
0
LINE
8
BLACK
6
CONTINUOUS
10
0.462913
20
0.444252
11
0.462694
21
0.443722
0
LINE
8
BLACK
6
CONTINUOUS
10
0.462694
20
0.443722
11
0.462583
21
0.44316
0
LINE
8
BLACK
6
CONTINUOUS
10
0.462583
20
0.44316
11
0.462414
21
0.443047
0
LINE
8
BLACK
6
CONTINUOUS
10
0.462414
20
0.443047
11
0.462337
21
0.44286
0
LINE
8
BLACK
6
CONTINUOUS
10
0.462337
20
0.44286
11
0.461807
21
0.442641
0
LINE
8
BLACK
6
CONTINUOUS
10
0.461807
20
0.442641
11
0.461331
21
0.442322
0
LINE
8
BLACK
6
CONTINUOUS
10
0.461331
20
0.442322
11
0.461132
21
0.442361
0
LINE
8
BLACK
6
CONTINUOUS
10
0.461132
20
0.442361
11
0.460945
21
0.442283
0
LINE
8
BLACK
6
CONTINUOUS
10
0.460945
20
0.442283
11
0.460415
21
0.442503
0
LINE
8
BLACK
6
CONTINUOUS
10
0.460415
20
0.442503
11
0.459853
21
0.442614
0
LINE
8
BLACK
6
CONTINUOUS
10
0.459853
20
0.442614
11
0.439291
21
0.456322
0
LINE
8
BLACK
6
CONTINUOUS
10
0.439291
20
0.456322
11
0.439291
21
0.438346
0
LINE
8
BLACK
6
CONTINUOUS
10
0.439291
20
0.438346
11
0.438715
21
0.436955
0
LINE
8
BLACK
6
CONTINUOUS
10
0.438715
20
0.436955
11
0.437323
21
0.436378
0
LINE
8
BLACK
6
CONTINUOUS
10
0.437323
20
0.436378
11
0.435931
21
0.436955
0
LINE
8
BLACK
6
CONTINUOUS
10
0.435931
20
0.436955
11
0.435354
21
0.438346
0
LINE
8
BLACK
6
CONTINUOUS
10
0.435354
20
0.438346
11
0.435354
21
0.458031
0
LINE
8
BLACK
6
CONTINUOUS
10
0.435354
20
0.458031
11
0.421575
21
0.458031
0
LINE
8
BLACK
6
CONTINUOUS
10
0.421575
20
0.458031
11
0.420183
21
0.458608
0
LINE
8
BLACK
6
CONTINUOUS
10
0.420183
20
0.458608
11
0.419606
21
0.46
0
LINE
8
BLACK
6
CONTINUOUS
10
0.419606
20
0.46
11
0.420183
21
0.461392
0
LINE
8
BLACK
6
CONTINUOUS
10
0.420183
20
0.461392
11
0.421575
21
0.461969
0
LINE
8
BLACK
6
CONTINUOUS
10
0.421575
20
0.461969
11
0.435354
21
0.461969
0
LINE
8
BLACK
6
CONTINUOUS
10
0.435354
20
0.461969
11
0.435354
21
0.481654
0
LINE
8
BLACK
6
CONTINUOUS
10
0.435354
20
0.481654
11
0.435931
21
0.483045
0
LINE
8
BLACK
6
CONTINUOUS
10
0.435931
20
0.483045
11
0.437323
21
0.483622
0
LINE
8
BLACK
6
CONTINUOUS
10
0.437323
20
0.483622
11
0.438715
21
0.483045
0
LINE
8
BLACK
6
CONTINUOUS
10
0.440872
20
0.46
11
0.458976
21
0.44793
0
LINE
8
BLACK
6
CONTINUOUS
10
0.458976
20
0.44793
11
0.458976
21
0.47207
0
LINE
8
BLACK
6
CONTINUOUS
10
0.458976
20
0.47207
11
0.440872
21
0.46
0
LINE
8
BLACK
6
CONTINUOUS
10
0.651188
20
0.478649
11
0.653063
21
0.476774
0
LINE
8
BLACK
6
CONTINUOUS
10
0.653063
20
0.476774
11
0.653569
21
0.476051
0
LINE
8
BLACK
6
CONTINUOUS
10
0.653569
20
0.476051
11
0.653616
21
0.476006
0
LINE
8
BLACK
6
CONTINUOUS
10
0.653616
20
0.476006
11
0.655491
21
0.472257
0
LINE
8
BLACK
6
CONTINUOUS
10
0.655491
20
0.472257
11
0.655783
21
0.471274
0
LINE
8
BLACK
6
CONTINUOUS
10
0.655783
20
0.471274
11
0.655742
21
0.471102
0
LINE
8
BLACK
6
CONTINUOUS
10
0.655742
20
0.471102
11
0.655802
21
0.470936
0
LINE
8
BLACK
6
CONTINUOUS
10
0.655802
20
0.470936
11
0.655802
21
0.459688
0
LINE
8
BLACK
6
CONTINUOUS
10
0.655802
20
0.459688
11
0.655624
21
0.458678
0
LINE
8
BLACK
6
CONTINUOUS
10
0.655624
20
0.458678
11
0.655511
21
0.458543
0
LINE
8
BLACK
6
CONTINUOUS
10
0.655511
20
0.458543
11
0.655491
21
0.458367
0
LINE
8
BLACK
6
CONTINUOUS
10
0.655491
20
0.458367
11
0.653616
21
0.454618
0
LINE
8
BLACK
6
CONTINUOUS
10
0.653616
20
0.454618
11
0.65309
21
0.453909
0
LINE
8
BLACK
6
CONTINUOUS
10
0.65309
20
0.453909
11
0.653063
21
0.45385
0
LINE
8
BLACK
6
CONTINUOUS
10
0.653063
20
0.45385
11
0.651188
21
0.451976
0
LINE
8
BLACK
6
CONTINUOUS
10
0.651188
20
0.451976
11
0.650465
21
0.451469
0
LINE
8
BLACK
6
CONTINUOUS
10
0.650465
20
0.451469
11
0.650421
21
0.451423
0
LINE
8
BLACK
6
CONTINUOUS
10
0.650421
20
0.451423
11
0.646671
21
0.449548
0
LINE
8
BLACK
6
CONTINUOUS
10
0.646671
20
0.449548
11
0.645688
21
0.449255
0
LINE
8
BLACK
6
CONTINUOUS
10
0.645688
20
0.449255
11
0.645516
21
0.449296
0
LINE
8
BLACK
6
CONTINUOUS
10
0.645516
20
0.449296
11
0.645351
21
0.449236
0
LINE
8
BLACK
6
CONTINUOUS
10
0.645351
20
0.449236
11
0.635977
21
0.449236
0
LINE
8
BLACK
6
CONTINUOUS
10
0.635977
20
0.449236
11
0.634967
21
0.449414
0
LINE
8
BLACK
6
CONTINUOUS
10
0.634967
20
0.449414
11
0.634832
21
0.449528
0
LINE
8
BLACK
6
CONTINUOUS
10
0.634832
20
0.449528
11
0.634656
21
0.449548
0
LINE
8
BLACK
6
CONTINUOUS
10
0.634656
20
0.449548
11
0.630907
21
0.451423
0
LINE
8
BLACK
6
CONTINUOUS
10
0.630907
20
0.451423
11
0.630198
21
0.451948
0
LINE
8
BLACK
6
CONTINUOUS
10
0.630198
20
0.451948
11
0.630139
21
0.451976
0
LINE
8
BLACK
6
CONTINUOUS
10
0.630139
20
0.451976
11
0.628265
21
0.45385
0
LINE
8
BLACK
6
CONTINUOUS
10
0.628265
20
0.45385
11
0.627758
21
0.454574
0
LINE
8
BLACK
6
CONTINUOUS
10
0.627758
20
0.454574
11
0.627711
21
0.454618
0
LINE
8
BLACK
6
CONTINUOUS
10
0.627711
20
0.454618
11
0.625837
21
0.458367
0
LINE
8
BLACK
6
CONTINUOUS
10
0.625837
20
0.458367
11
0.625669
21
0.458931
0
LINE
8
BLACK
6
CONTINUOUS
10
0.625669
20
0.458931
11
0.615424
21
0.449967
0
LINE
8
BLACK
6
CONTINUOUS
10
0.615424
20
0.449967
11
0.615044
21
0.449737
0
LINE
8
BLACK
6
CONTINUOUS
10
0.615044
20
0.449737
11
0.614956
21
0.449632
0
LINE
8
BLACK
6
CONTINUOUS
10
0.614956
20
0.449632
11
0.614835
21
0.44961
0
LINE
8
BLACK
6
CONTINUOUS
10
0.614835
20
0.44961
11
0.614547
21
0.449436
0
LINE
8
BLACK
6
CONTINUOUS
10
0.614547
20
0.449436
11
0.613751
21
0.449419
0
LINE
8
BLACK
6
CONTINUOUS
10
0.613751
20
0.449419
11
0.612967
21
0.449281
0
LINE
8
BLACK
6
CONTINUOUS
10
0.612967
20
0.449281
11
0.612763
21
0.449399
0
LINE
8
BLACK
6
CONTINUOUS
10
0.612763
20
0.449399
11
0.612527
21
0.449394
0
LINE
8
BLACK
6
CONTINUOUS
10
0.612527
20
0.449394
11
0.611907
21
0.449893
0
LINE
8
BLACK
6
CONTINUOUS
10
0.611907
20
0.449893
11
0.611218
21
0.450291
0
LINE
8
BLACK
6
CONTINUOUS
10
0.611218
20
0.450291
11
0.611137
21
0.450512
0
LINE
8
BLACK
6
CONTINUOUS
10
0.611137
20
0.450512
11
0.610953
21
0.45066
0
LINE
8
BLACK
6
CONTINUOUS
10
0.610953
20
0.45066
11
0.610799
21
0.451441
0
LINE
8
BLACK
6
CONTINUOUS
10
0.610799
20
0.451441
11
0.610527
21
0.452189
0
LINE
8
BLACK
6
CONTINUOUS
10
0.610527
20
0.452189
11
0.610527
21
0.476561
0
LINE
8
BLACK
6
CONTINUOUS
10
0.610527
20
0.476561
11
0.610705
21
0.477571
0
LINE
8
BLACK
6
CONTINUOUS
10
0.610705
20
0.477571
11
0.612003
21
0.479118
0
LINE
8
BLACK
6
CONTINUOUS
10
0.612003
20
0.479118
11
0.613992
21
0.479469
0
LINE
8
BLACK
6
CONTINUOUS
10
0.613992
20
0.479469
11
0.615741
21
0.478459
0
LINE
8
BLACK
6
CONTINUOUS
10
0.615741
20
0.478459
11
0.616432
21
0.476561
0
LINE
8
BLACK
6
CONTINUOUS
10
0.616432
20
0.476561
11
0.616432
21
0.458696
0
LINE
8
BLACK
6
CONTINUOUS
10
0.616432
20
0.458696
11
0.626533
21
0.467534
0
LINE
8
BLACK
6
CONTINUOUS
10
0.626533
20
0.467534
11
0.626913
21
0.467764
0
LINE
8
BLACK
6
CONTINUOUS
10
0.626913
20
0.467764
11
0.627001
21
0.467869
0
LINE
8
BLACK
6
CONTINUOUS
10
0.627001
20
0.467869
11
0.627122
21
0.467891
0
LINE
8
BLACK
6
CONTINUOUS
10
0.627122
20
0.467891
11
0.627411
21
0.468065
0
LINE
8
BLACK
6
CONTINUOUS
10
0.627411
20
0.468065
11
0.628207
21
0.468082
0
LINE
8
BLACK
6
CONTINUOUS
10
0.628207
20
0.468082
11
0.62899
21
0.46822
0
LINE
8
BLACK
6
CONTINUOUS
10
0.62899
20
0.46822
11
0.629194
21
0.468102
0
LINE
8
BLACK
6
CONTINUOUS
10
0.629194
20
0.468102
11
0.62943
21
0.468107
0
LINE
8
BLACK
6
CONTINUOUS
10
0.62943
20
0.468107
11
0.63005
21
0.467608
0
LINE
8
BLACK
6
CONTINUOUS
10
0.63005
20
0.467608
11
0.63074
21
0.46721
0
LINE
8
BLACK
6
CONTINUOUS
10
0.63074
20
0.46721
11
0.63082
21
0.466989
0
LINE
8
BLACK
6
CONTINUOUS
10
0.63082
20
0.466989
11
0.631004
21
0.466841
0
LINE
8
BLACK
6
CONTINUOUS
10
0.631004
20
0.466841
11
0.631158
21
0.46606
0
LINE
8
BLACK
6
CONTINUOUS
10
0.631158
20
0.46606
11
0.63143
21
0.465312
0
LINE
8
BLACK
6
CONTINUOUS
10
0.63143
20
0.465312
11
0.63143
21
0.460385
0
LINE
8
BLACK
6
CONTINUOUS
10
0.63143
20
0.460385
11
0.632779
21
0.457687
0
LINE
8
BLACK
6
CONTINUOUS
10
0.632779
20
0.457687
11
0.633976
21
0.45649
0
LINE
8
BLACK
6
CONTINUOUS
10
0.633976
20
0.45649
11
0.636674
21
0.455142
0
LINE
8
BLACK
6
CONTINUOUS
10
0.636674
20
0.455142
11
0.644654
21
0.455142
0
LINE
8
BLACK
6
CONTINUOUS
10
0.644654
20
0.455142
11
0.647351
21
0.45649
0
LINE
8
BLACK
6
CONTINUOUS
10
0.647351
20
0.45649
11
0.648548
21
0.457687
0
LINE
8
BLACK
6
CONTINUOUS
10
0.648548
20
0.457687
11
0.649897
21
0.460385
0
LINE
8
BLACK
6
CONTINUOUS
10
0.649897
20
0.460385
11
0.649897
21
0.470239
0
LINE
8
BLACK
6
CONTINUOUS
10
0.649897
20
0.470239
11
0.648548
21
0.472937
0
LINE
8
BLACK
6
CONTINUOUS
10
0.648548
20
0.472937
11
0.647012
21
0.474473
0
LINE
8
BLACK
6
CONTINUOUS
10
0.647012
20
0.474473
11
0.646424
21
0.475313
0
LINE
8
BLACK
6
CONTINUOUS
10
0.646424
20
0.475313
11
0.646248
21
0.477325
0
LINE
8
BLACK
6
CONTINUOUS
10
0.646248
20
0.477325
11
0.647406
21
0.47898
0
LINE
8
BLACK
6
CONTINUOUS
10
0.647406
20
0.47898
11
0.649357
21
0.479502
0
LINE
8
BLACK
6
CONTINUOUS
10
0.649357
20
0.479502
11
0.651188
21
0.478649
0
LINE
8
BLACK
6
CONTINUOUS
10
0.651188
20
0.516144
11
0.653063
21
0.514269
0
LINE
8
BLACK
6
CONTINUOUS
10
0.653063
20
0.514269
11
0.653569
21
0.513546
0
LINE
8
BLACK
6
CONTINUOUS
10
0.653569
20
0.513546
11
0.653616
21
0.513502
0
LINE
8
BLACK
6
CONTINUOUS
10
0.653616
20
0.513502
11
0.655491
21
0.509752
0
LINE
8
BLACK
6
CONTINUOUS
10
0.655491
20
0.509752
11
0.655783
21
0.508769
0
LINE
8
BLACK
6
CONTINUOUS
10
0.655783
20
0.508769
11
0.655742
21
0.508598
0
LINE
8
BLACK
6
CONTINUOUS
10
0.655742
20
0.508598
11
0.655802
21
0.508432
0
LINE
8
BLACK
6
CONTINUOUS
10
0.655802
20
0.508432
11
0.655802
21
0.497183
0
LINE
8
BLACK
6
CONTINUOUS
10
0.655802
20
0.497183
11
0.655624
21
0.496173
0
LINE
8
BLACK
6
CONTINUOUS
10
0.655624
20
0.496173
11
0.655511
21
0.496038
0
LINE
8
BLACK
6
CONTINUOUS
10
0.655511
20
0.496038
11
0.655491
21
0.495863
0
LINE
8
BLACK
6
CONTINUOUS
10
0.655491
20
0.495863
11
0.653616
21
0.492113
0
LINE
8
BLACK
6
CONTINUOUS
10
0.653616
20
0.492113
11
0.65309
21
0.491404
0
LINE
8
BLACK
6
CONTINUOUS
10
0.65309
20
0.491404
11
0.653063
21
0.491346
0
LINE
8
BLACK
6
CONTINUOUS
10
0.653063
20
0.491346
11
0.651188
21
0.489471
0
LINE
8
BLACK
6
CONTINUOUS
10
0.651188
20
0.489471
11
0.650465
21
0.488965
0
LINE
8
BLACK
6
CONTINUOUS
10
0.650465
20
0.488965
11
0.650421
21
0.488918
0
LINE
8
BLACK
6
CONTINUOUS
10
0.650421
20
0.488918
11
0.646671
21
0.487043
0
LINE
8
BLACK
6
CONTINUOUS
10
0.646671
20
0.487043
11
0.645688
21
0.486751
0
LINE
8
BLACK
6
CONTINUOUS
10
0.645688
20
0.486751
11
0.645516
21
0.486792
0
LINE
8
BLACK
6
CONTINUOUS
10
0.645516
20
0.486792
11
0.645351
21
0.486731
0
LINE
8
BLACK
6
CONTINUOUS
10
0.645351
20
0.486731
11
0.635977
21
0.486731
0
LINE
8
BLACK
6
CONTINUOUS
10
0.635977
20
0.486731
11
0.634967
21
0.486909
0
LINE
8
BLACK
6
CONTINUOUS
10
0.634967
20
0.486909
11
0.634832
21
0.487023
0
LINE
8
BLACK
6
CONTINUOUS
10
0.634832
20
0.487023
11
0.634656
21
0.487043
0
LINE
8
BLACK
6
CONTINUOUS
10
0.634656
20
0.487043
11
0.630907
21
0.488918
0
LINE
8
BLACK
6
CONTINUOUS
10
0.630907
20
0.488918
11
0.630198
21
0.489444
0
LINE
8
BLACK
6
CONTINUOUS
10
0.630198
20
0.489444
11
0.630139
21
0.489471
0
LINE
8
BLACK
6
CONTINUOUS
10
0.630139
20
0.489471
11
0.628265
21
0.491346
0
LINE
8
BLACK
6
CONTINUOUS
10
0.628265
20
0.491346
11
0.627758
21
0.492069
0
LINE
8
BLACK
6
CONTINUOUS
10
0.627758
20
0.492069
11
0.627711
21
0.492113
0
LINE
8
BLACK
6
CONTINUOUS
10
0.627711
20
0.492113
11
0.625837
21
0.495863
0
LINE
8
BLACK
6
CONTINUOUS
10
0.625837
20
0.495863
11
0.625669
21
0.496426
0
LINE
8
BLACK
6
CONTINUOUS
10
0.625669
20
0.496426
11
0.615424
21
0.487462
0
LINE
8
BLACK
6
CONTINUOUS
10
0.615424
20
0.487462
11
0.615044
21
0.487232
0
LINE
8
BLACK
6
CONTINUOUS
10
0.615044
20
0.487232
11
0.614956
21
0.487127
0
LINE
8
BLACK
6
CONTINUOUS
10
0.614956
20
0.487127
11
0.614835
21
0.487106
0
LINE
8
BLACK
6
CONTINUOUS
10
0.614835
20
0.487106
11
0.614547
21
0.486931
0
LINE
8
BLACK
6
CONTINUOUS
10
0.614547
20
0.486931
11
0.613751
21
0.486914
0
LINE
8
BLACK
6
CONTINUOUS
10
0.613751
20
0.486914
11
0.612967
21
0.486776
0
LINE
8
BLACK
6
CONTINUOUS
10
0.612967
20
0.486776
11
0.612763
21
0.486894
0
LINE
8
BLACK
6
CONTINUOUS
10
0.612763
20
0.486894
11
0.612527
21
0.486889
0
LINE
8
BLACK
6
CONTINUOUS
10
0.612527
20
0.486889
11
0.611907
21
0.487388
0
LINE
8
BLACK
6
CONTINUOUS
10
0.611907
20
0.487388
11
0.611218
21
0.487786
0
LINE
8
BLACK
6
CONTINUOUS
10
0.611218
20
0.487786
11
0.611137
21
0.488007
0
LINE
8
BLACK
6
CONTINUOUS
10
0.611137
20
0.488007
11
0.610953
21
0.488155
0
LINE
8
BLACK
6
CONTINUOUS
10
0.610953
20
0.488155
11
0.610799
21
0.488936
0
LINE
8
BLACK
6
CONTINUOUS
10
0.610799
20
0.488936
11
0.610527
21
0.489684
0
LINE
8
BLACK
6
CONTINUOUS
10
0.610527
20
0.489684
11
0.610527
21
0.514056
0
LINE
8
BLACK
6
CONTINUOUS
10
0.610527
20
0.514056
11
0.610705
21
0.515066
0
LINE
8
BLACK
6
CONTINUOUS
10
0.610705
20
0.515066
11
0.612003
21
0.516613
0
LINE
8
BLACK
6
CONTINUOUS
10
0.612003
20
0.516613
11
0.613992
21
0.516964
0
LINE
8
BLACK
6
CONTINUOUS
10
0.613992
20
0.516964
11
0.615741
21
0.515954
0
LINE
8
BLACK
6
CONTINUOUS
10
0.615741
20
0.515954
11
0.616432
21
0.514056
0
LINE
8
BLACK
6
CONTINUOUS
10
0.616432
20
0.514056
11
0.616432
21
0.496191
0
LINE
8
BLACK
6
CONTINUOUS
10
0.616432
20
0.496191
11
0.626533
21
0.50503
0
LINE
8
BLACK
6
CONTINUOUS
10
0.626533
20
0.50503
11
0.626913
21
0.50526
0
LINE
8
BLACK
6
CONTINUOUS
10
0.626913
20
0.50526
11
0.627001
21
0.505365
0
LINE
8
BLACK
6
CONTINUOUS
10
0.627001
20
0.505365
11
0.627122
21
0.505386
0
LINE
8
BLACK
6
CONTINUOUS
10
0.627122
20
0.505386
11
0.627411
21
0.505561
0
LINE
8
BLACK
6
CONTINUOUS
10
0.627411
20
0.505561
11
0.628207
21
0.505577
0
LINE
8
BLACK
6
CONTINUOUS
10
0.628207
20
0.505577
11
0.62899
21
0.505715
0
LINE
8
BLACK
6
CONTINUOUS
10
0.62899
20
0.505715
11
0.629194
21
0.505598
0
LINE
8
BLACK
6
CONTINUOUS
10
0.629194
20
0.505598
11
0.62943
21
0.505602
0
LINE
8
BLACK
6
CONTINUOUS
10
0.62943
20
0.505602
11
0.63005
21
0.505103
0
LINE
8
BLACK
6
CONTINUOUS
10
0.63005
20
0.505103
11
0.63074
21
0.504705
0
LINE
8
BLACK
6
CONTINUOUS
10
0.63074
20
0.504705
11
0.63082
21
0.504484
0
LINE
8
BLACK
6
CONTINUOUS
10
0.63082
20
0.504484
11
0.631004
21
0.504336
0
LINE
8
BLACK
6
CONTINUOUS
10
0.631004
20
0.504336
11
0.631158
21
0.503555
0
LINE
8
BLACK
6
CONTINUOUS
10
0.631158
20
0.503555
11
0.63143
21
0.502807
0
LINE
8
BLACK
6
CONTINUOUS
10
0.63143
20
0.502807
11
0.63143
21
0.49788
0
LINE
8
BLACK
6
CONTINUOUS
10
0.63143
20
0.49788
11
0.632779
21
0.495183
0
LINE
8
BLACK
6
CONTINUOUS
10
0.632779
20
0.495183
11
0.633976
21
0.493986
0
LINE
8
BLACK
6
CONTINUOUS
10
0.633976
20
0.493986
11
0.636674
21
0.492637
0
LINE
8
BLACK
6
CONTINUOUS
10
0.636674
20
0.492637
11
0.644654
21
0.492637
0
LINE
8
BLACK
6
CONTINUOUS
10
0.644654
20
0.492637
11
0.647351
21
0.493986
0
LINE
8
BLACK
6
CONTINUOUS
10
0.647351
20
0.493986
11
0.648548
21
0.495183
0
LINE
8
BLACK
6
CONTINUOUS
10
0.648548
20
0.495183
11
0.649897
21
0.49788
0
LINE
8
BLACK
6
CONTINUOUS
10
0.649897
20
0.49788
11
0.649897
21
0.507735
0
LINE
8
BLACK
6
CONTINUOUS
10
0.649897
20
0.507735
11
0.648548
21
0.510432
0
LINE
8
BLACK
6
CONTINUOUS
10
0.648548
20
0.510432
11
0.647012
21
0.511968
0
LINE
8
BLACK
6
CONTINUOUS
10
0.647012
20
0.511968
11
0.646424
21
0.512808
0
LINE
8
BLACK
6
CONTINUOUS
10
0.646424
20
0.512808
11
0.646248
21
0.51482
0
LINE
8
BLACK
6
CONTINUOUS
10
0.646248
20
0.51482
11
0.647406
21
0.516475
0
LINE
8
BLACK
6
CONTINUOUS
10
0.647406
20
0.516475
11
0.649357
21
0.516998
0
LINE
8
BLACK
6
CONTINUOUS
10
0.649357
20
0.516998
11
0.651188
21
0.516144
0
LINE
8
BLACK
6
CONTINUOUS
10
0.484442
20
0.574445
11
0.484572
21
0.574468
0
LINE
8
BLACK
6
CONTINUOUS
10
0.484572
20
0.574468
11
0.484685
21
0.574402
0
LINE
8
BLACK
6
CONTINUOUS
10
0.484685
20
0.574402
11
0.485069
21
0.574335
0
LINE
8
BLACK
6
CONTINUOUS
10
0.485069
20
0.574335
11
0.485656
21
0.573841
0
LINE
8
BLACK
6
CONTINUOUS
10
0.485656
20
0.573841
11
0.486321
21
0.573458
0
LINE
8
BLACK
6
CONTINUOUS
10
0.486321
20
0.573458
11
0.486412
21
0.573207
0
LINE
8
BLACK
6
CONTINUOUS
10
0.486412
20
0.573207
11
0.486616
21
0.573036
0
LINE
8
BLACK
6
CONTINUOUS
10
0.486616
20
0.573036
11
0.486749
21
0.572281
0
LINE
8
BLACK
6
CONTINUOUS
10
0.486749
20
0.572281
11
0.487012
21
0.57156
0
LINE
8
BLACK
6
CONTINUOUS
10
0.487012
20
0.57156
11
0.487012
21
0.53219
0
LINE
8
BLACK
6
CONTINUOUS
10
0.487012
20
0.53219
11
0.486944
21
0.531806
0
LINE
8
BLACK
6
CONTINUOUS
10
0.486944
20
0.531806
11
0.486967
21
0.531677
0
LINE
8
BLACK
6
CONTINUOUS
10
0.486967
20
0.531677
11
0.486901
21
0.531563
0
LINE
8
BLACK
6
CONTINUOUS
10
0.486901
20
0.531563
11
0.486834
21
0.53118
0
LINE
8
BLACK
6
CONTINUOUS
10
0.486834
20
0.53118
11
0.48634
21
0.530592
0
LINE
8
BLACK
6
CONTINUOUS
10
0.48634
20
0.530592
11
0.485957
21
0.529928
0
LINE
8
BLACK
6
CONTINUOUS
10
0.485957
20
0.529928
11
0.485706
21
0.529837
0
LINE
8
BLACK
6
CONTINUOUS
10
0.485706
20
0.529837
11
0.485535
21
0.529633
0
LINE
8
BLACK
6
CONTINUOUS
10
0.485535
20
0.529633
11
0.48478
21
0.529499
0
LINE
8
BLACK
6
CONTINUOUS
10
0.48478
20
0.529499
11
0.484059
21
0.529237
0
LINE
8
BLACK
6
CONTINUOUS
10
0.484059
20
0.529237
11
0.474685
21
0.529237
0
LINE
8
BLACK
6
CONTINUOUS
10
0.474685
20
0.529237
11
0.473816
21
0.52939
0
LINE
8
BLACK
6
CONTINUOUS
10
0.473816
20
0.52939
11
0.473751
21
0.529389
0
LINE
8
BLACK
6
CONTINUOUS
10
0.473751
20
0.529389
11
0.468127
21
0.531263
0
LINE
8
BLACK
6
CONTINUOUS
10
0.468127
20
0.531263
11
0.467225
21
0.531752
0
LINE
8
BLACK
6
CONTINUOUS
10
0.467225
20
0.531752
11
0.467133
21
0.531902
0
LINE
8
BLACK
6
CONTINUOUS
10
0.467133
20
0.531902
11
0.466973
21
0.531977
0
LINE
8
BLACK
6
CONTINUOUS
10
0.466973
20
0.531977
11
0.463223
21
0.535726
0
LINE
8
BLACK
6
CONTINUOUS
10
0.463223
20
0.535726
11
0.462717
21
0.536449
0
LINE
8
BLACK
6
CONTINUOUS
10
0.462717
20
0.536449
11
0.46267
21
0.536494
0
LINE
8
BLACK
6
CONTINUOUS
10
0.46267
20
0.536494
11
0.460795
21
0.540243
0
LINE
8
BLACK
6
CONTINUOUS
10
0.460795
20
0.540243
11
0.46065
21
0.540731
0
LINE
8
BLACK
6
CONTINUOUS
10
0.46065
20
0.540731
11
0.460572
21
0.540847
0
LINE
8
BLACK
6
CONTINUOUS
10
0.460572
20
0.540847
11
0.458697
21
0.548346
0
LINE
8
BLACK
6
CONTINUOUS
10
0.458697
20
0.548346
11
0.458656
21
0.548934
0
LINE
8
BLACK
6
CONTINUOUS
10
0.458656
20
0.548934
11
0.458609
21
0.549063
0
LINE
8
BLACK
6
CONTINUOUS
10
0.458609
20
0.549063
11
0.458609
21
0.554687
0
LINE
8
BLACK
6
CONTINUOUS
10
0.458609
20
0.554687
11
0.458711
21
0.555267
0
LINE
8
BLACK
6
CONTINUOUS
10
0.458711
20
0.555267
11
0.458697
21
0.555403
0
LINE
8
BLACK
6
CONTINUOUS
10
0.458697
20
0.555403
11
0.460572
21
0.562902
0
LINE
8
BLACK
6
CONTINUOUS
10
0.460572
20
0.562902
11
0.460779
21
0.563368
0
LINE
8
BLACK
6
CONTINUOUS
10
0.460779
20
0.563368
11
0.460795
21
0.563506
0
LINE
8
BLACK
6
CONTINUOUS
10
0.460795
20
0.563506
11
0.46267
21
0.567256
0
LINE
8
BLACK
6
CONTINUOUS
10
0.46267
20
0.567256
11
0.463196
21
0.567965
0
LINE
8
BLACK
6
CONTINUOUS
10
0.463196
20
0.567965
11
0.463223
21
0.568023
0
LINE
8
BLACK
6
CONTINUOUS
10
0.463223
20
0.568023
11
0.466973
21
0.571773
0
LINE
8
BLACK
6
CONTINUOUS
10
0.466973
20
0.571773
11
0.467813
21
0.572361
0
LINE
8
BLACK
6
CONTINUOUS
10
0.467813
20
0.572361
11
0.467989
21
0.572377
0
LINE
8
BLACK
6
CONTINUOUS
10
0.467989
20
0.572377
11
0.468127
21
0.572486
0
LINE
8
BLACK
6
CONTINUOUS
10
0.468127
20
0.572486
11
0.473751
21
0.574361
0
LINE
8
BLACK
6
CONTINUOUS
10
0.473751
20
0.574361
11
0.474624
21
0.574491
0
LINE
8
BLACK
6
CONTINUOUS
10
0.474624
20
0.574491
11
0.474685
21
0.574513
0
LINE
8
BLACK
6
CONTINUOUS
10
0.474685
20
0.574513
11
0.484059
21
0.574513
0
LINE
8
BLACK
6
CONTINUOUS
10
0.484059
20
0.574513
11
0.484442
21
0.574445
0
LINE
8
BLACK
6
CONTINUOUS
10
0.475164
20
0.568607
11
0.470656
21
0.567104
0
LINE
8
BLACK
6
CONTINUOUS
10
0.470656
20
0.567104
11
0.467738
21
0.564186
0
LINE
8
BLACK
6
CONTINUOUS
10
0.467738
20
0.564186
11
0.466222
21
0.561155
0
LINE
8
BLACK
6
CONTINUOUS
10
0.466222
20
0.561155
11
0.464514
21
0.554323
0
LINE
8
BLACK
6
CONTINUOUS
10
0.464514
20
0.554323
11
0.464514
21
0.549426
0
LINE
8
BLACK
6
CONTINUOUS
10
0.464514
20
0.549426
11
0.466222
21
0.542594
0
LINE
8
BLACK
6
CONTINUOUS
10
0.466222
20
0.542594
11
0.467738
21
0.539563
0
LINE
8
BLACK
6
CONTINUOUS
10
0.467738
20
0.539563
11
0.470656
21
0.536645
0
LINE
8
BLACK
6
CONTINUOUS
10
0.470656
20
0.536645
11
0.475164
21
0.535143
0
LINE
8
BLACK
6
CONTINUOUS
10
0.475164
20
0.535143
11
0.481106
21
0.535143
0
LINE
8
BLACK
6
CONTINUOUS
10
0.481106
20
0.535143
11
0.481106
21
0.568607
0
LINE
8
BLACK
6
CONTINUOUS
10
0.481106
20
0.568607
11
0.475164
21
0.568607
0
LINE
8
BLACK
6
CONTINUOUS
10
0.435975
20
0.574383
11
0.436144
21
0.574394
0
LINE
8
BLACK
6
CONTINUOUS
10
0.436144
20
0.574394
11
0.436835
21
0.573886
0
LINE
8
BLACK
6
CONTINUOUS
10
0.436835
20
0.573886
11
0.437577
21
0.573458
0
LINE
8
BLACK
6
CONTINUOUS
10
0.437577
20
0.573458
11
0.437635
21
0.573298
0
LINE
8
BLACK
6
CONTINUOUS
10
0.437635
20
0.573298
11
0.437772
21
0.573198
0
LINE
8
BLACK
6
CONTINUOUS
10
0.437772
20
0.573198
11
0.441359
21
0.567817
0
LINE
8
BLACK
6
CONTINUOUS
10
0.441359
20
0.567817
11
0.444563
21
0.564613
0
LINE
8
BLACK
6
CONTINUOUS
10
0.444563
20
0.564613
11
0.447884
21
0.562952
0
LINE
8
BLACK
6
CONTINUOUS
10
0.447884
20
0.562952
11
0.448708
21
0.562341
0
LINE
8
BLACK
6
CONTINUOUS
10
0.448708
20
0.562341
11
0.449511
21
0.560488
0
LINE
8
BLACK
6
CONTINUOUS
10
0.449511
20
0.560488
11
0.448935
21
0.558552
0
LINE
8
BLACK
6
CONTINUOUS
10
0.448935
20
0.558552
11
0.44725
21
0.557439
0
LINE
8
BLACK
6
CONTINUOUS
10
0.44725
20
0.557439
11
0.445243
21
0.55767
0
LINE
8
BLACK
6
CONTINUOUS
10
0.445243
20
0.55767
11
0.441494
21
0.559545
0
LINE
8
BLACK
6
CONTINUOUS
10
0.441494
20
0.559545
11
0.440784
21
0.560071
0
LINE
8
BLACK
6
CONTINUOUS
10
0.440784
20
0.560071
11
0.440726
21
0.560098
0
LINE
8
BLACK
6
CONTINUOUS
10
0.440726
20
0.560098
11
0.438268
21
0.562556
0
LINE
8
BLACK
6
CONTINUOUS
10
0.438268
20
0.562556
11
0.438268
21
0.535143
0
LINE
8
BLACK
6
CONTINUOUS
10
0.438268
20
0.535143
11
0.446564
21
0.535143
0
LINE
8
BLACK
6
CONTINUOUS
10
0.446564
20
0.535143
11
0.447573
21
0.534964
0
LINE
8
BLACK
6
CONTINUOUS
10
0.447573
20
0.534964
11
0.449121
21
0.533666
0
LINE
8
BLACK
6
CONTINUOUS
10
0.449121
20
0.533666
11
0.449471
21
0.531677
0
LINE
8
BLACK
6
CONTINUOUS
10
0.449471
20
0.531677
11
0.448462
21
0.529928
0
LINE
8
BLACK
6
CONTINUOUS
10
0.448462
20
0.529928
11
0.446564
21
0.529237
0
LINE
8
BLACK
6
CONTINUOUS
10
0.446564
20
0.529237
11
0.424066
21
0.529237
0
LINE
8
BLACK
6
CONTINUOUS
10
0.424066
20
0.529237
11
0.423056
21
0.529415
0
LINE
8
BLACK
6
CONTINUOUS
10
0.423056
20
0.529415
11
0.421509
21
0.530713
0
LINE
8
BLACK
6
CONTINUOUS
10
0.421509
20
0.530713
11
0.421158
21
0.532703
0
LINE
8
BLACK
6
CONTINUOUS
10
0.421158
20
0.532703
11
0.422168
21
0.534452
0
LINE
8
BLACK
6
CONTINUOUS
10
0.422168
20
0.534452
11
0.424066
21
0.535143
0
LINE
8
BLACK
6
CONTINUOUS
10
0.424066
20
0.535143
11
0.432362
21
0.535143
0
LINE
8
BLACK
6
CONTINUOUS
10
0.432362
20
0.535143
11
0.432362
21
0.57156
0
LINE
8
BLACK
6
CONTINUOUS
10
0.432362
20
0.57156
11
0.43254
21
0.57257
0
LINE
8
BLACK
6
CONTINUOUS
10
0.43254
20
0.57257
11
0.432649
21
0.5727
0
LINE
8
BLACK
6
CONTINUOUS
10
0.432649
20
0.5727
11
0.432668
21
0.572869
0
LINE
8
BLACK
6
CONTINUOUS
10
0.432668
20
0.572869
11
0.433288
21
0.573461
0
LINE
8
BLACK
6
CONTINUOUS
10
0.433288
20
0.573461
11
0.433839
21
0.574117
0
LINE
8
BLACK
6
CONTINUOUS
10
0.433839
20
0.574117
11
0.434006
21
0.574146
0
LINE
8
BLACK
6
CONTINUOUS
10
0.434006
20
0.574146
11
0.434129
21
0.574264
0
LINE
8
BLACK
6
CONTINUOUS
10
0.434129
20
0.574264
11
0.434984
21
0.574319
0
LINE
8
BLACK
6
CONTINUOUS
10
0.434984
20
0.574319
11
0.435828
21
0.574468
0
LINE
8
BLACK
6
CONTINUOUS
10
0.435828
20
0.574468
11
0.435975
21
0.574383
  0
ENDSEC
  0
EOF
