  0
SECTION
  2
HEADER
  9
$ANGBASE
  50
0.0
  9
$ANGDIR
  70
1
  9
$MEASUREMENT
  70
0
  0
ENDSEC
  0
SECTION
  2
TABLES
  0
TABLE
  2
LTYPE
  70
4
  0
LTYPE
  5
40F
  2
CONTINUOUS
  70
0
  3
Solid line
  72
65
  73
0
  40
0.0
  0
LTYPE
  5
410
  2
DASHDOT
 70
0
  3
Dash Dot ____ _ ____ _
 72
65
 73
4
 40
2.0
 49
1.25
 49
-0.25
 49
0.25
 49
-0.25
  0
LTYPE
  5
411
  2
DASHED
 70
0
  3
Dashed __ __ __ __ __
 72
65
 73
2
 40
0.75
 49
0.5
 49
-0.25
  0
LTYPE
  5
43B
  2
DOTTED
 70
0
  3
Dotted .  .  .  .
 72
65
 73
2
 40
0.2
 49
0.0
 49
-0.2
  0
ENDTAB
  0
TABLE
  2
STYLE
  70
4
  0
STYLE
  2
KICAD
  70
0
  40
0
  41
1
  42
1
  50
0
  71
0
  3
isocp.shx
  0
STYLE
  2
KICADB
  70
0
  40
0
  41
1
  42
1
  50
0
  71
0
  3
isocp.shx
  0
STYLE
  2
KICADI
  70
0
  40
0
  41
1
  42
1
  50
15
  71
0
  3
isocp.shx
  0
STYLE
  2
KICADBI
  70
0
  40
0
  41
1
  42
1
  50
15
  71
0
  3
isocp.shx
  0
ENDTAB
  0
TABLE
  2
LAYER
  70
1
  0
LAYER
  2
BLACK
  70
0
  62
7
  6
CONTINUOUS
  0
ENDTAB
  0
ENDSEC
  0
SECTION
  2
ENTITIES
0
LINE
8
BLACK
6
CONTINUOUS
10
0.75844
20
0.0922787
11
0.758574
21
0.0922905
0
LINE
8
BLACK
6
CONTINUOUS
10
0.758574
20
0.0922905
11
0.759303
21
0.0917807
0
LINE
8
BLACK
6
CONTINUOUS
10
0.759303
20
0.0917807
11
0.760072
21
0.0913363
0
LINE
8
BLACK
6
CONTINUOUS
10
0.760072
20
0.0913363
11
0.760118
21
0.0912094
0
LINE
8
BLACK
6
CONTINUOUS
10
0.760118
20
0.0912094
11
0.760229
21
0.091132
0
LINE
8
BLACK
6
CONTINUOUS
10
0.760229
20
0.091132
11
0.760459
21
0.0902734
0
LINE
8
BLACK
6
CONTINUOUS
10
0.760459
20
0.0902734
11
0.760763
21
0.0894383
0
LINE
8
BLACK
6
CONTINUOUS
10
0.760763
20
0.0894383
11
0.760763
21
0.0650664
0
LINE
8
BLACK
6
CONTINUOUS
10
0.760763
20
0.0650664
11
0.760585
21
0.0640565
0
LINE
8
BLACK
6
CONTINUOUS
10
0.760585
20
0.0640565
11
0.759287
21
0.0625092
0
LINE
8
BLACK
6
CONTINUOUS
10
0.759287
20
0.0625092
11
0.757297
21
0.0621585
0
LINE
8
BLACK
6
CONTINUOUS
10
0.757297
20
0.0621585
11
0.755548
21
0.0631684
0
LINE
8
BLACK
6
CONTINUOUS
10
0.755548
20
0.0631684
11
0.754857
21
0.0650664
0
LINE
8
BLACK
6
CONTINUOUS
10
0.754857
20
0.0650664
11
0.754857
21
0.0823098
0
LINE
8
BLACK
6
CONTINUOUS
10
0.754857
20
0.0823098
11
0.737401
21
0.0648532
0
LINE
8
BLACK
6
CONTINUOUS
10
0.737401
20
0.0648532
11
0.736561
21
0.064265
0
LINE
8
BLACK
6
CONTINUOUS
10
0.736561
20
0.064265
11
0.736385
21
0.0642496
0
LINE
8
BLACK
6
CONTINUOUS
10
0.736385
20
0.0642496
11
0.736247
21
0.0641399
0
LINE
8
BLACK
6
CONTINUOUS
10
0.736247
20
0.0641399
11
0.730623
21
0.0622652
0
LINE
8
BLACK
6
CONTINUOUS
10
0.730623
20
0.0622652
11
0.729749
21
0.0621357
0
LINE
8
BLACK
6
CONTINUOUS
10
0.729749
20
0.0621357
11
0.729689
21
0.0621136
0
LINE
8
BLACK
6
CONTINUOUS
10
0.729689
20
0.0621136
11
0.725939
21
0.0621136
0
LINE
8
BLACK
6
CONTINUOUS
10
0.725939
20
0.0621136
11
0.724929
21
0.0622917
0
LINE
8
BLACK
6
CONTINUOUS
10
0.724929
20
0.0622917
11
0.724794
21
0.0624052
0
LINE
8
BLACK
6
CONTINUOUS
10
0.724794
20
0.0624052
11
0.724619
21
0.0624254
0
LINE
8
BLACK
6
CONTINUOUS
10
0.724619
20
0.0624254
11
0.720869
21
0.0643001
0
LINE
8
BLACK
6
CONTINUOUS
10
0.720869
20
0.0643001
11
0.72016
21
0.064826
0
LINE
8
BLACK
6
CONTINUOUS
10
0.72016
20
0.064826
11
0.720102
21
0.0648532
0
LINE
8
BLACK
6
CONTINUOUS
10
0.720102
20
0.0648532
11
0.718227
21
0.066728
0
LINE
8
BLACK
6
CONTINUOUS
10
0.718227
20
0.066728
11
0.717721
21
0.0674509
0
LINE
8
BLACK
6
CONTINUOUS
10
0.717721
20
0.0674509
11
0.717674
21
0.0674954
0
LINE
8
BLACK
6
CONTINUOUS
10
0.717674
20
0.0674954
11
0.715799
21
0.0712449
0
LINE
8
BLACK
6
CONTINUOUS
10
0.715799
20
0.0712449
11
0.715507
21
0.0722278
0
LINE
8
BLACK
6
CONTINUOUS
10
0.715507
20
0.0722278
11
0.715548
21
0.0723995
0
LINE
8
BLACK
6
CONTINUOUS
10
0.715548
20
0.0723995
11
0.715487
21
0.0725654
0
LINE
8
BLACK
6
CONTINUOUS
10
0.715487
20
0.0725654
11
0.715487
21
0.0819393
0
LINE
8
BLACK
6
CONTINUOUS
10
0.715487
20
0.0819393
11
0.715665
21
0.0829492
0
LINE
8
BLACK
6
CONTINUOUS
10
0.715665
20
0.0829492
11
0.715779
21
0.0830844
0
LINE
8
BLACK
6
CONTINUOUS
10
0.715779
20
0.0830844
11
0.715799
21
0.0832598
0
LINE
8
BLACK
6
CONTINUOUS
10
0.715799
20
0.0832598
11
0.717674
21
0.0870094
0
LINE
8
BLACK
6
CONTINUOUS
10
0.717674
20
0.0870094
11
0.7182
21
0.0877184
0
LINE
8
BLACK
6
CONTINUOUS
10
0.7182
20
0.0877184
11
0.718227
21
0.0877767
0
LINE
8
BLACK
6
CONTINUOUS
10
0.718227
20
0.0877767
11
0.720102
21
0.0896515
0
LINE
8
BLACK
6
CONTINUOUS
10
0.720102
20
0.0896515
11
0.720942
21
0.0902397
0
LINE
8
BLACK
6
CONTINUOUS
10
0.720942
20
0.0902397
11
0.722954
21
0.0904157
0
LINE
8
BLACK
6
CONTINUOUS
10
0.722954
20
0.0904157
11
0.724609
21
0.0892572
0
LINE
8
BLACK
6
CONTINUOUS
10
0.724609
20
0.0892572
11
0.725131
21
0.0873062
0
LINE
8
BLACK
6
CONTINUOUS
10
0.725131
20
0.0873062
11
0.724278
21
0.0854757
0
LINE
8
BLACK
6
CONTINUOUS
10
0.724278
20
0.0854757
11
0.722742
21
0.0839397
0
LINE
8
BLACK
6
CONTINUOUS
10
0.722742
20
0.0839397
11
0.721393
21
0.0812422
0
LINE
8
BLACK
6
CONTINUOUS
10
0.721393
20
0.0812422
11
0.721393
21
0.0732625
0
LINE
8
BLACK
6
CONTINUOUS
10
0.721393
20
0.0732625
11
0.722742
21
0.070565
0
LINE
8
BLACK
6
CONTINUOUS
10
0.722742
20
0.070565
11
0.723939
21
0.0693679
0
LINE
8
BLACK
6
CONTINUOUS
10
0.723939
20
0.0693679
11
0.726636
21
0.0680191
0
LINE
8
BLACK
6
CONTINUOUS
10
0.726636
20
0.0680191
11
0.72921
21
0.0680191
0
LINE
8
BLACK
6
CONTINUOUS
10
0.72921
20
0.0680191
11
0.733718
21
0.0695219
0
LINE
8
BLACK
6
CONTINUOUS
10
0.733718
20
0.0695219
11
0.755722
21
0.0915263
0
LINE
8
BLACK
6
CONTINUOUS
10
0.755722
20
0.0915263
11
0.75625
21
0.0918959
0
LINE
8
BLACK
6
CONTINUOUS
10
0.75625
20
0.0918959
11
0.756334
21
0.0919955
0
LINE
8
BLACK
6
CONTINUOUS
10
0.756334
20
0.0919955
11
0.756412
21
0.0920093
0
LINE
8
BLACK
6
CONTINUOUS
10
0.756412
20
0.0920093
11
0.756562
21
0.0921144
0
LINE
8
BLACK
6
CONTINUOUS
10
0.756562
20
0.0921144
11
0.757448
21
0.0921919
0
LINE
8
BLACK
6
CONTINUOUS
10
0.757448
20
0.0921919
11
0.758323
21
0.0923463
0
LINE
8
BLACK
6
CONTINUOUS
10
0.758323
20
0.0923463
11
0.75844
21
0.0922787
0
LINE
8
BLACK
6
CONTINUOUS
10
0.966149
20
0.115526
11
0.968023
21
0.113651
0
LINE
8
BLACK
6
CONTINUOUS
10
0.968023
20
0.113651
11
0.96853
21
0.112928
0
LINE
8
BLACK
6
CONTINUOUS
10
0.96853
20
0.112928
11
0.968576
21
0.112884
0
LINE
8
BLACK
6
CONTINUOUS
10
0.968576
20
0.112884
11
0.970451
21
0.109135
0
LINE
8
BLACK
6
CONTINUOUS
10
0.970451
20
0.109135
11
0.970744
21
0.108152
0
LINE
8
BLACK
6
CONTINUOUS
10
0.970744
20
0.108152
11
0.970703
21
0.10798
0
LINE
8
BLACK
6
CONTINUOUS
10
0.970703
20
0.10798
11
0.970763
21
0.107814
0
LINE
8
BLACK
6
CONTINUOUS
10
0.970763
20
0.107814
11
0.970763
21
0.0965654
0
LINE
8
BLACK
6
CONTINUOUS
10
0.970763
20
0.0965654
11
0.970585
21
0.0955555
0
LINE
8
BLACK
6
CONTINUOUS
10
0.970585
20
0.0955555
11
0.970471
21
0.0954203
0
LINE
8
BLACK
6
CONTINUOUS
10
0.970471
20
0.0954203
11
0.970451
21
0.0952449
0
LINE
8
BLACK
6
CONTINUOUS
10
0.970451
20
0.0952449
11
0.968576
21
0.0914954
0
LINE
8
BLACK
6
CONTINUOUS
10
0.968576
20
0.0914954
11
0.968051
21
0.0907863
0
LINE
8
BLACK
6
CONTINUOUS
10
0.968051
20
0.0907863
11
0.968023
21
0.090728
0
LINE
8
BLACK
6
CONTINUOUS
10
0.968023
20
0.090728
11
0.966149
21
0.0888532
0
LINE
8
BLACK
6
CONTINUOUS
10
0.966149
20
0.0888532
11
0.965426
21
0.0883469
0
LINE
8
BLACK
6
CONTINUOUS
10
0.965426
20
0.0883469
11
0.965381
21
0.0883001
0
LINE
8
BLACK
6
CONTINUOUS
10
0.965381
20
0.0883001
11
0.961632
21
0.0864254
0
LINE
8
BLACK
6
CONTINUOUS
10
0.961632
20
0.0864254
11
0.960649
21
0.086133
0
LINE
8
BLACK
6
CONTINUOUS
10
0.960649
20
0.086133
11
0.960477
21
0.086174
0
LINE
8
BLACK
6
CONTINUOUS
10
0.960477
20
0.086174
11
0.960311
21
0.0861136
0
LINE
8
BLACK
6
CONTINUOUS
10
0.960311
20
0.0861136
11
0.950937
21
0.0861136
0
LINE
8
BLACK
6
CONTINUOUS
10
0.950937
20
0.0861136
11
0.949927
21
0.0862917
0
LINE
8
BLACK
6
CONTINUOUS
10
0.949927
20
0.0862917
11
0.949792
21
0.0864052
0
LINE
8
BLACK
6
CONTINUOUS
10
0.949792
20
0.0864052
11
0.949617
21
0.0864254
0
LINE
8
BLACK
6
CONTINUOUS
10
0.949617
20
0.0864254
11
0.945867
21
0.0883001
0
LINE
8
BLACK
6
CONTINUOUS
10
0.945867
20
0.0883001
11
0.945158
21
0.088826
0
LINE
8
BLACK
6
CONTINUOUS
10
0.945158
20
0.088826
11
0.9451
21
0.0888532
0
LINE
8
BLACK
6
CONTINUOUS
10
0.9451
20
0.0888532
11
0.943225
21
0.090728
0
LINE
8
BLACK
6
CONTINUOUS
10
0.943225
20
0.090728
11
0.942719
21
0.0914511
0
LINE
8
BLACK
6
CONTINUOUS
10
0.942719
20
0.0914511
11
0.942672
21
0.0914954
0
LINE
8
BLACK
6
CONTINUOUS
10
0.942672
20
0.0914954
11
0.940797
21
0.0952449
0
LINE
8
BLACK
6
CONTINUOUS
10
0.940797
20
0.0952449
11
0.94063
21
0.0958086
0
LINE
8
BLACK
6
CONTINUOUS
10
0.94063
20
0.0958086
11
0.930385
21
0.0868442
0
LINE
8
BLACK
6
CONTINUOUS
10
0.930385
20
0.0868442
11
0.930005
21
0.0866143
0
LINE
8
BLACK
6
CONTINUOUS
10
0.930005
20
0.0866143
11
0.929917
21
0.0865092
0
LINE
8
BLACK
6
CONTINUOUS
10
0.929917
20
0.0865092
11
0.929796
21
0.086488
0
LINE
8
BLACK
6
CONTINUOUS
10
0.929796
20
0.086488
11
0.929507
21
0.0863132
0
LINE
8
BLACK
6
CONTINUOUS
10
0.929507
20
0.0863132
11
0.928711
21
0.0862967
0
LINE
8
BLACK
6
CONTINUOUS
10
0.928711
20
0.0862967
11
0.927927
21
0.0861585
0
LINE
8
BLACK
6
CONTINUOUS
10
0.927927
20
0.0861585
11
0.927723
21
0.0862763
0
LINE
8
BLACK
6
CONTINUOUS
10
0.927723
20
0.0862763
11
0.927488
21
0.0862714
0
LINE
8
BLACK
6
CONTINUOUS
10
0.927488
20
0.0862714
11
0.926868
21
0.0867703
0
LINE
8
BLACK
6
CONTINUOUS
10
0.926868
20
0.0867703
11
0.926178
21
0.0871684
0
LINE
8
BLACK
6
CONTINUOUS
10
0.926178
20
0.0871684
11
0.926098
21
0.0873897
0
LINE
8
BLACK
6
CONTINUOUS
10
0.926098
20
0.0873897
11
0.925914
21
0.0875374
0
LINE
8
BLACK
6
CONTINUOUS
10
0.925914
20
0.0875374
11
0.92576
21
0.0883183
0
LINE
8
BLACK
6
CONTINUOUS
10
0.92576
20
0.0883183
11
0.925487
21
0.0890664
0
LINE
8
BLACK
6
CONTINUOUS
10
0.925487
20
0.0890664
11
0.925487
21
0.113438
0
LINE
8
BLACK
6
CONTINUOUS
10
0.925487
20
0.113438
11
0.925665
21
0.114448
0
LINE
8
BLACK
6
CONTINUOUS
10
0.925665
20
0.114448
11
0.926964
21
0.115996
0
LINE
8
BLACK
6
CONTINUOUS
10
0.926964
20
0.115996
11
0.928953
21
0.116346
0
LINE
8
BLACK
6
CONTINUOUS
10
0.928953
20
0.116346
11
0.930702
21
0.115336
0
LINE
8
BLACK
6
CONTINUOUS
10
0.930702
20
0.115336
11
0.931393
21
0.113438
0
LINE
8
BLACK
6
CONTINUOUS
10
0.931393
20
0.113438
11
0.931393
21
0.0955736
0
LINE
8
BLACK
6
CONTINUOUS
10
0.931393
20
0.0955736
11
0.941494
21
0.104412
0
LINE
8
BLACK
6
CONTINUOUS
10
0.941494
20
0.104412
11
0.941874
21
0.104642
0
LINE
8
BLACK
6
CONTINUOUS
10
0.941874
20
0.104642
11
0.941962
21
0.104747
0
LINE
8
BLACK
6
CONTINUOUS
10
0.941962
20
0.104747
11
0.942082
21
0.104768
0
LINE
8
BLACK
6
CONTINUOUS
10
0.942082
20
0.104768
11
0.942371
21
0.104943
0
LINE
8
BLACK
6
CONTINUOUS
10
0.942371
20
0.104943
11
0.943167
21
0.104959
0
LINE
8
BLACK
6
CONTINUOUS
10
0.943167
20
0.104959
11
0.943951
21
0.105098
0
LINE
8
BLACK
6
CONTINUOUS
10
0.943951
20
0.105098
11
0.944155
21
0.10498
0
LINE
8
BLACK
6
CONTINUOUS
10
0.944155
20
0.10498
11
0.944391
21
0.104985
0
LINE
8
BLACK
6
CONTINUOUS
10
0.944391
20
0.104985
11
0.945011
21
0.104486
0
LINE
8
BLACK
6
CONTINUOUS
10
0.945011
20
0.104486
11
0.9457
21
0.104088
0
LINE
8
BLACK
6
CONTINUOUS
10
0.9457
20
0.104088
11
0.945781
21
0.103866
0
LINE
8
BLACK
6
CONTINUOUS
10
0.945781
20
0.103866
11
0.945964
21
0.103719
0
LINE
8
BLACK
6
CONTINUOUS
10
0.945964
20
0.103719
11
0.946119
21
0.102938
0
LINE
8
BLACK
6
CONTINUOUS
10
0.946119
20
0.102938
11
0.946391
21
0.10219
0
LINE
8
BLACK
6
CONTINUOUS
10
0.946391
20
0.10219
11
0.946391
21
0.0972625
0
LINE
8
BLACK
6
CONTINUOUS
10
0.946391
20
0.0972625
11
0.94774
21
0.094565
0
LINE
8
BLACK
6
CONTINUOUS
10
0.94774
20
0.094565
11
0.948937
21
0.0933679
0
LINE
8
BLACK
6
CONTINUOUS
10
0.948937
20
0.0933679
11
0.951634
21
0.0920191
0
LINE
8
BLACK
6
CONTINUOUS
10
0.951634
20
0.0920191
11
0.959614
21
0.0920191
0
LINE
8
BLACK
6
CONTINUOUS
10
0.959614
20
0.0920191
11
0.962312
21
0.0933679
0
LINE
8
BLACK
6
CONTINUOUS
10
0.962312
20
0.0933679
11
0.963509
21
0.094565
0
LINE
8
BLACK
6
CONTINUOUS
10
0.963509
20
0.094565
11
0.964857
21
0.0972625
0
LINE
8
BLACK
6
CONTINUOUS
10
0.964857
20
0.0972625
11
0.964857
21
0.107117
0
LINE
8
BLACK
6
CONTINUOUS
10
0.964857
20
0.107117
11
0.963509
21
0.109814
0
LINE
8
BLACK
6
CONTINUOUS
10
0.963509
20
0.109814
11
0.961973
21
0.11135
0
LINE
8
BLACK
6
CONTINUOUS
10
0.961973
20
0.11135
11
0.961385
21
0.11219
0
LINE
8
BLACK
6
CONTINUOUS
10
0.961385
20
0.11219
11
0.961209
21
0.114203
0
LINE
8
BLACK
6
CONTINUOUS
10
0.961209
20
0.114203
11
0.962367
21
0.115857
0
LINE
8
BLACK
6
CONTINUOUS
10
0.962367
20
0.115857
11
0.964318
21
0.11638
0
LINE
8
BLACK
6
CONTINUOUS
10
0.964318
20
0.11638
11
0.966149
21
0.115526
0
LINE
8
BLACK
6
CONTINUOUS
10
0.690607
20
0.10811
11
0.691299
21
0.10644
0
LINE
8
BLACK
6
CONTINUOUS
10
0.691299
20
0.10644
11
0.691299
21
0.0885605
0
LINE
8
BLACK
6
CONTINUOUS
10
0.691299
20
0.0885605
11
0.690607
21
0.0868902
0
LINE
8
BLACK
6
CONTINUOUS
10
0.690607
20
0.0868902
11
0.688937
21
0.0861983
0
LINE
8
BLACK
6
CONTINUOUS
10
0.688937
20
0.0861983
11
0.687267
21
0.0868902
0
LINE
8
BLACK
6
CONTINUOUS
10
0.687267
20
0.0868902
11
0.686575
21
0.0885605
0
LINE
8
BLACK
6
CONTINUOUS
10
0.686575
20
0.0885605
11
0.686575
21
0.10644
0
LINE
8
BLACK
6
CONTINUOUS
10
0.686575
20
0.10644
11
0.687267
21
0.10811
0
LINE
8
BLACK
6
CONTINUOUS
10
0.687267
20
0.10811
11
0.688937
21
0.108802
0
LINE
8
BLACK
6
CONTINUOUS
10
0.688937
20
0.108802
11
0.690607
21
0.10811
0
LINE
8
BLACK
6
CONTINUOUS
10
0.632733
20
0.10811
11
0.633425
21
0.10644
0
LINE
8
BLACK
6
CONTINUOUS
10
0.633425
20
0.10644
11
0.633425
21
0.0885605
0
LINE
8
BLACK
6
CONTINUOUS
10
0.633425
20
0.0885605
11
0.632733
21
0.0868902
0
LINE
8
BLACK
6
CONTINUOUS
10
0.632733
20
0.0868902
11
0.631063
21
0.0861983
0
LINE
8
BLACK
6
CONTINUOUS
10
0.631063
20
0.0861983
11
0.629393
21
0.0868902
0
LINE
8
BLACK
6
CONTINUOUS
10
0.629393
20
0.0868902
11
0.628701
21
0.0885605
0
LINE
8
BLACK
6
CONTINUOUS
10
0.628701
20
0.0885605
11
0.628701
21
0.10644
0
LINE
8
BLACK
6
CONTINUOUS
10
0.628701
20
0.10644
11
0.629393
21
0.10811
0
LINE
8
BLACK
6
CONTINUOUS
10
0.629393
20
0.10811
11
0.631063
21
0.108802
0
LINE
8
BLACK
6
CONTINUOUS
10
0.631063
20
0.108802
11
0.632733
21
0.10811
0
LINE
8
BLACK
6
CONTINUOUS
10
0.741518
20
0.129784
11
0.741654
21
0.129798
0
LINE
8
BLACK
6
CONTINUOUS
10
0.741654
20
0.129798
11
0.749153
21
0.127924
0
LINE
8
BLACK
6
CONTINUOUS
10
0.749153
20
0.127924
11
0.749618
21
0.127716
0
LINE
8
BLACK
6
CONTINUOUS
10
0.749618
20
0.127716
11
0.749757
21
0.1277
0
LINE
8
BLACK
6
CONTINUOUS
10
0.749757
20
0.1277
11
0.753506
21
0.125825
0
LINE
8
BLACK
6
CONTINUOUS
10
0.753506
20
0.125825
11
0.754216
21
0.125299
0
LINE
8
BLACK
6
CONTINUOUS
10
0.754216
20
0.125299
11
0.754274
21
0.125272
0
LINE
8
BLACK
6
CONTINUOUS
10
0.754274
20
0.125272
11
0.758023
21
0.121523
0
LINE
8
BLACK
6
CONTINUOUS
10
0.758023
20
0.121523
11
0.758612
21
0.120682
0
LINE
8
BLACK
6
CONTINUOUS
10
0.758612
20
0.120682
11
0.758627
21
0.120507
0
LINE
8
BLACK
6
CONTINUOUS
10
0.758627
20
0.120507
11
0.758737
21
0.120368
0
LINE
8
BLACK
6
CONTINUOUS
10
0.758737
20
0.120368
11
0.760611
21
0.114744
0
LINE
8
BLACK
6
CONTINUOUS
10
0.760611
20
0.114744
11
0.760741
21
0.113871
0
LINE
8
BLACK
6
CONTINUOUS
10
0.760741
20
0.113871
11
0.760763
21
0.11381
0
LINE
8
BLACK
6
CONTINUOUS
10
0.760763
20
0.11381
11
0.760763
21
0.110061
0
LINE
8
BLACK
6
CONTINUOUS
10
0.760763
20
0.110061
11
0.76061
21
0.109191
0
LINE
8
BLACK
6
CONTINUOUS
10
0.76061
20
0.109191
11
0.760611
21
0.109127
0
LINE
8
BLACK
6
CONTINUOUS
10
0.760611
20
0.109127
11
0.758737
21
0.103503
0
LINE
8
BLACK
6
CONTINUOUS
10
0.758737
20
0.103503
11
0.758248
21
0.102601
0
LINE
8
BLACK
6
CONTINUOUS
10
0.758248
20
0.102601
11
0.758098
21
0.102509
0
LINE
8
BLACK
6
CONTINUOUS
10
0.758098
20
0.102509
11
0.758023
21
0.102349
0
LINE
8
BLACK
6
CONTINUOUS
10
0.758023
20
0.102349
11
0.756149
21
0.100474
0
LINE
8
BLACK
6
CONTINUOUS
10
0.756149
20
0.100474
11
0.755309
21
0.0998856
0
LINE
8
BLACK
6
CONTINUOUS
10
0.755309
20
0.0998856
11
0.753296
21
0.0997095
0
LINE
8
BLACK
6
CONTINUOUS
10
0.753296
20
0.0997095
11
0.751642
21
0.100868
0
LINE
8
BLACK
6
CONTINUOUS
10
0.751642
20
0.100868
11
0.751119
21
0.102819
0
LINE
8
BLACK
6
CONTINUOUS
10
0.751119
20
0.102819
11
0.751973
21
0.10465
0
LINE
8
BLACK
6
CONTINUOUS
10
0.751973
20
0.10465
11
0.753355
21
0.106031
0
LINE
8
BLACK
6
CONTINUOUS
10
0.753355
20
0.106031
11
0.754857
21
0.11054
0
LINE
8
BLACK
6
CONTINUOUS
10
0.754857
20
0.11054
11
0.754857
21
0.113331
0
LINE
8
BLACK
6
CONTINUOUS
10
0.754857
20
0.113331
11
0.753355
21
0.11784
0
LINE
8
BLACK
6
CONTINUOUS
10
0.753355
20
0.11784
11
0.750437
21
0.120757
0
LINE
8
BLACK
6
CONTINUOUS
10
0.750437
20
0.120757
11
0.747406
21
0.122273
0
LINE
8
BLACK
6
CONTINUOUS
10
0.747406
20
0.122273
11
0.740574
21
0.123981
0
LINE
8
BLACK
6
CONTINUOUS
10
0.740574
20
0.123981
11
0.735677
21
0.123981
0
LINE
8
BLACK
6
CONTINUOUS
10
0.735677
20
0.123981
11
0.728845
21
0.122273
0
LINE
8
BLACK
6
CONTINUOUS
10
0.728845
20
0.122273
11
0.725814
21
0.120757
0
LINE
8
BLACK
6
CONTINUOUS
10
0.725814
20
0.120757
11
0.722896
21
0.11784
0
LINE
8
BLACK
6
CONTINUOUS
10
0.722896
20
0.11784
11
0.721393
21
0.113331
0
LINE
8
BLACK
6
CONTINUOUS
10
0.721393
20
0.113331
11
0.721393
21
0.11054
0
LINE
8
BLACK
6
CONTINUOUS
10
0.721393
20
0.11054
11
0.722896
21
0.106031
0
LINE
8
BLACK
6
CONTINUOUS
10
0.722896
20
0.106031
11
0.724278
21
0.10465
0
LINE
8
BLACK
6
CONTINUOUS
10
0.724278
20
0.10465
11
0.724866
21
0.10381
0
LINE
8
BLACK
6
CONTINUOUS
10
0.724866
20
0.10381
11
0.725042
21
0.101797
0
LINE
8
BLACK
6
CONTINUOUS
10
0.725042
20
0.101797
11
0.723883
21
0.100143
0
LINE
8
BLACK
6
CONTINUOUS
10
0.723883
20
0.100143
11
0.721932
21
0.0996202
0
LINE
8
BLACK
6
CONTINUOUS
10
0.721932
20
0.0996202
11
0.720102
21
0.100474
0
LINE
8
BLACK
6
CONTINUOUS
10
0.720102
20
0.100474
11
0.718227
21
0.102349
0
LINE
8
BLACK
6
CONTINUOUS
10
0.718227
20
0.102349
11
0.717639
21
0.103189
0
LINE
8
BLACK
6
CONTINUOUS
10
0.717639
20
0.103189
11
0.717623
21
0.103364
0
LINE
8
BLACK
6
CONTINUOUS
10
0.717623
20
0.103364
11
0.717514
21
0.103503
0
LINE
8
BLACK
6
CONTINUOUS
10
0.717514
20
0.103503
11
0.715639
21
0.109127
0
LINE
8
BLACK
6
CONTINUOUS
10
0.715639
20
0.109127
11
0.715509
21
0.11
0
LINE
8
BLACK
6
CONTINUOUS
10
0.715509
20
0.11
11
0.715487
21
0.110061
0
LINE
8
BLACK
6
CONTINUOUS
10
0.715487
20
0.110061
11
0.715487
21
0.11381
0
LINE
8
BLACK
6
CONTINUOUS
10
0.715487
20
0.11381
11
0.715641
21
0.11468
0
LINE
8
BLACK
6
CONTINUOUS
10
0.715641
20
0.11468
11
0.715639
21
0.114744
0
LINE
8
BLACK
6
CONTINUOUS
10
0.715639
20
0.114744
11
0.717514
21
0.120368
0
LINE
8
BLACK
6
CONTINUOUS
10
0.717514
20
0.120368
11
0.718002
21
0.12127
0
LINE
8
BLACK
6
CONTINUOUS
10
0.718002
20
0.12127
11
0.718152
21
0.121363
0
LINE
8
BLACK
6
CONTINUOUS
10
0.718152
20
0.121363
11
0.718227
21
0.121523
0
LINE
8
BLACK
6
CONTINUOUS
10
0.718227
20
0.121523
11
0.721977
21
0.125272
0
LINE
8
BLACK
6
CONTINUOUS
10
0.721977
20
0.125272
11
0.7227
21
0.125778
0
LINE
8
BLACK
6
CONTINUOUS
10
0.7227
20
0.125778
11
0.722744
21
0.125825
0
LINE
8
BLACK
6
CONTINUOUS
10
0.722744
20
0.125825
11
0.726494
21
0.1277
0
LINE
8
BLACK
6
CONTINUOUS
10
0.726494
20
0.1277
11
0.726982
21
0.127845
0
LINE
8
BLACK
6
CONTINUOUS
10
0.726982
20
0.127845
11
0.727098
21
0.127924
0
LINE
8
BLACK
6
CONTINUOUS
10
0.727098
20
0.127924
11
0.734597
21
0.129798
0
LINE
8
BLACK
6
CONTINUOUS
10
0.734597
20
0.129798
11
0.735185
21
0.12984
0
LINE
8
BLACK
6
CONTINUOUS
10
0.735185
20
0.12984
11
0.735313
21
0.129886
0
LINE
8
BLACK
6
CONTINUOUS
10
0.735313
20
0.129886
11
0.740937
21
0.129886
0
LINE
8
BLACK
6
CONTINUOUS
10
0.740937
20
0.129886
11
0.741518
21
0.129784
0
LINE
8
BLACK
6
CONTINUOUS
10
0.96882
20
0.151834
11
0.970367
21
0.150535
0
LINE
8
BLACK
6
CONTINUOUS
10
0.970367
20
0.150535
11
0.970718
21
0.148546
0
LINE
8
BLACK
6
CONTINUOUS
10
0.970718
20
0.148546
11
0.969708
21
0.146797
0
LINE
8
BLACK
6
CONTINUOUS
10
0.969708
20
0.146797
11
0.96781
21
0.146106
0
LINE
8
BLACK
6
CONTINUOUS
10
0.96781
20
0.146106
11
0.952015
21
0.146106
0
LINE
8
BLACK
6
CONTINUOUS
10
0.952015
20
0.146106
11
0.952015
21
0.141222
0
LINE
8
BLACK
6
CONTINUOUS
10
0.952015
20
0.141222
11
0.969504
21
0.128981
0
LINE
8
BLACK
6
CONTINUOUS
10
0.969504
20
0.128981
11
0.970229
21
0.128256
0
LINE
8
BLACK
6
CONTINUOUS
10
0.970229
20
0.128256
11
0.970752
21
0.126305
0
LINE
8
BLACK
6
CONTINUOUS
10
0.970752
20
0.126305
11
0.969898
21
0.124474
0
LINE
8
BLACK
6
CONTINUOUS
10
0.969898
20
0.124474
11
0.968068
21
0.12362
0
LINE
8
BLACK
6
CONTINUOUS
10
0.968068
20
0.12362
11
0.966117
21
0.124143
0
LINE
8
BLACK
6
CONTINUOUS
10
0.966117
20
0.124143
11
0.952008
21
0.134019
0
LINE
8
BLACK
6
CONTINUOUS
10
0.952008
20
0.134019
11
0.951837
21
0.133051
0
LINE
8
BLACK
6
CONTINUOUS
10
0.951837
20
0.133051
11
0.951724
21
0.132916
0
LINE
8
BLACK
6
CONTINUOUS
10
0.951724
20
0.132916
11
0.951704
21
0.13274
0
LINE
8
BLACK
6
CONTINUOUS
10
0.951704
20
0.13274
11
0.949829
21
0.128991
0
LINE
8
BLACK
6
CONTINUOUS
10
0.949829
20
0.128991
11
0.949303
21
0.128282
0
LINE
8
BLACK
6
CONTINUOUS
10
0.949303
20
0.128282
11
0.949276
21
0.128223
0
LINE
8
BLACK
6
CONTINUOUS
10
0.949276
20
0.128223
11
0.947401
21
0.126349
0
LINE
8
BLACK
6
CONTINUOUS
10
0.947401
20
0.126349
11
0.946678
21
0.125842
0
LINE
8
BLACK
6
CONTINUOUS
10
0.946678
20
0.125842
11
0.946634
21
0.125795
0
LINE
8
BLACK
6
CONTINUOUS
10
0.946634
20
0.125795
11
0.942884
21
0.123921
0
LINE
8
BLACK
6
CONTINUOUS
10
0.942884
20
0.123921
11
0.941901
21
0.123628
0
LINE
8
BLACK
6
CONTINUOUS
10
0.941901
20
0.123628
11
0.941729
21
0.123669
0
LINE
8
BLACK
6
CONTINUOUS
10
0.941729
20
0.123669
11
0.941564
21
0.123609
0
LINE
8
BLACK
6
CONTINUOUS
10
0.941564
20
0.123609
11
0.935939
21
0.123609
0
LINE
8
BLACK
6
CONTINUOUS
10
0.935939
20
0.123609
11
0.934929
21
0.123787
0
LINE
8
BLACK
6
CONTINUOUS
10
0.934929
20
0.123787
11
0.934794
21
0.1239
0
LINE
8
BLACK
6
CONTINUOUS
10
0.934794
20
0.1239
11
0.934619
21
0.123921
0
LINE
8
BLACK
6
CONTINUOUS
10
0.934619
20
0.123921
11
0.930869
21
0.125795
0
LINE
8
BLACK
6
CONTINUOUS
10
0.930869
20
0.125795
11
0.93016
21
0.126321
0
LINE
8
BLACK
6
CONTINUOUS
10
0.93016
20
0.126321
11
0.930102
21
0.126349
0
LINE
8
BLACK
6
CONTINUOUS
10
0.930102
20
0.126349
11
0.928227
21
0.128223
0
LINE
8
BLACK
6
CONTINUOUS
10
0.928227
20
0.128223
11
0.927721
21
0.128946
0
LINE
8
BLACK
6
CONTINUOUS
10
0.927721
20
0.128946
11
0.927674
21
0.128991
0
LINE
8
BLACK
6
CONTINUOUS
10
0.927674
20
0.128991
11
0.925799
21
0.13274
0
LINE
8
BLACK
6
CONTINUOUS
10
0.925799
20
0.13274
11
0.925507
21
0.133723
0
LINE
8
BLACK
6
CONTINUOUS
10
0.925507
20
0.133723
11
0.925548
21
0.133895
0
LINE
8
BLACK
6
CONTINUOUS
10
0.925548
20
0.133895
11
0.925487
21
0.134061
0
LINE
8
BLACK
6
CONTINUOUS
10
0.925487
20
0.134061
11
0.925487
21
0.149059
0
LINE
8
BLACK
6
CONTINUOUS
10
0.925487
20
0.149059
11
0.925555
21
0.149442
0
LINE
8
BLACK
6
CONTINUOUS
10
0.925555
20
0.149442
11
0.925532
21
0.149572
0
LINE
8
BLACK
6
CONTINUOUS
10
0.925532
20
0.149572
11
0.925598
21
0.149685
0
LINE
8
BLACK
6
CONTINUOUS
10
0.925598
20
0.149685
11
0.925665
21
0.150069
0
LINE
8
BLACK
6
CONTINUOUS
10
0.925665
20
0.150069
11
0.926159
21
0.150656
0
LINE
8
BLACK
6
CONTINUOUS
10
0.926159
20
0.150656
11
0.926542
21
0.151321
0
LINE
8
BLACK
6
CONTINUOUS
10
0.926542
20
0.151321
11
0.926793
21
0.151412
0
LINE
8
BLACK
6
CONTINUOUS
10
0.926793
20
0.151412
11
0.926964
21
0.151616
0
LINE
8
BLACK
6
CONTINUOUS
10
0.926964
20
0.151616
11
0.927719
21
0.151749
0
LINE
8
BLACK
6
CONTINUOUS
10
0.927719
20
0.151749
11
0.92844
21
0.152012
0
LINE
8
BLACK
6
CONTINUOUS
10
0.92844
20
0.152012
11
0.96781
21
0.152012
0
LINE
8
BLACK
6
CONTINUOUS
10
0.96781
20
0.152012
11
0.96882
21
0.151834
0
LINE
8
BLACK
6
CONTINUOUS
10
0.931393
20
0.146106
11
0.931393
21
0.134758
0
LINE
8
BLACK
6
CONTINUOUS
10
0.931393
20
0.134758
11
0.932742
21
0.13206
0
LINE
8
BLACK
6
CONTINUOUS
10
0.932742
20
0.13206
11
0.933939
21
0.130863
0
LINE
8
BLACK
6
CONTINUOUS
10
0.933939
20
0.130863
11
0.936636
21
0.129514
0
LINE
8
BLACK
6
CONTINUOUS
10
0.936636
20
0.129514
11
0.940866
21
0.129514
0
LINE
8
BLACK
6
CONTINUOUS
10
0.940866
20
0.129514
11
0.943564
21
0.130863
0
LINE
8
BLACK
6
CONTINUOUS
10
0.943564
20
0.130863
11
0.944761
21
0.13206
0
LINE
8
BLACK
6
CONTINUOUS
10
0.944761
20
0.13206
11
0.94611
21
0.134758
0
LINE
8
BLACK
6
CONTINUOUS
10
0.94611
20
0.134758
11
0.94611
21
0.146106
0
LINE
8
BLACK
6
CONTINUOUS
10
0.94611
20
0.146106
11
0.931393
21
0.146106
0
LINE
8
BLACK
6
CONTINUOUS
10
0.602503
20
0.177542
11
0.601811
21
0.179213
0
LINE
8
BLACK
6
CONTINUOUS
10
0.601811
20
0.179213
11
0.602503
21
0.180883
0
LINE
8
BLACK
6
CONTINUOUS
10
0.602503
20
0.180883
11
0.604173
21
0.181575
0
LINE
8
BLACK
6
CONTINUOUS
10
0.604173
20
0.181575
11
0.816772
21
0.181575
0
LINE
8
BLACK
6
CONTINUOUS
10
0.816772
20
0.181575
11
0.818442
21
0.180883
0
LINE
8
BLACK
6
CONTINUOUS
10
0.818442
20
0.180883
11
0.819134
21
0.179213
0
LINE
8
BLACK
6
CONTINUOUS
10
0.819134
20
0.179213
11
0.818442
21
0.177542
0
LINE
8
BLACK
6
CONTINUOUS
10
0.818442
20
0.177542
11
0.816772
21
0.17685
0
LINE
8
BLACK
6
CONTINUOUS
10
0.816772
20
0.17685
11
0.604173
21
0.17685
0
LINE
8
BLACK
6
CONTINUOUS
10
0.604173
20
0.17685
11
0.602503
21
0.177542
0
LINE
8
BLACK
6
CONTINUOUS
10
0.920233
20
0.24061
11
0.920925
21
0.23894
0
LINE
8
BLACK
6
CONTINUOUS
10
0.920925
20
0.23894
11
0.920925
21
0.22106
0
LINE
8
BLACK
6
CONTINUOUS
10
0.920925
20
0.22106
11
0.920233
21
0.21939
0
LINE
8
BLACK
6
CONTINUOUS
10
0.920233
20
0.21939
11
0.918563
21
0.218698
0
LINE
8
BLACK
6
CONTINUOUS
10
0.918563
20
0.218698
11
0.916893
21
0.21939
0
LINE
8
BLACK
6
CONTINUOUS
10
0.916893
20
0.21939
11
0.916201
21
0.22106
0
LINE
8
BLACK
6
CONTINUOUS
10
0.916201
20
0.22106
11
0.916201
21
0.23894
0
LINE
8
BLACK
6
CONTINUOUS
10
0.916201
20
0.23894
11
0.916893
21
0.24061
0
LINE
8
BLACK
6
CONTINUOUS
10
0.916893
20
0.24061
11
0.918563
21
0.241302
0
LINE
8
BLACK
6
CONTINUOUS
10
0.918563
20
0.241302
11
0.920233
21
0.24061
0
LINE
8
BLACK
6
CONTINUOUS
10
0.978107
20
0.24061
11
0.978799
21
0.23894
0
LINE
8
BLACK
6
CONTINUOUS
10
0.978799
20
0.23894
11
0.978799
21
0.22106
0
LINE
8
BLACK
6
CONTINUOUS
10
0.978799
20
0.22106
11
0.978107
21
0.21939
0
LINE
8
BLACK
6
CONTINUOUS
10
0.978107
20
0.21939
11
0.976437
21
0.218698
0
LINE
8
BLACK
6
CONTINUOUS
10
0.976437
20
0.218698
11
0.974767
21
0.21939
0
LINE
8
BLACK
6
CONTINUOUS
10
0.974767
20
0.21939
11
0.974075
21
0.22106
0
LINE
8
BLACK
6
CONTINUOUS
10
0.974075
20
0.22106
11
0.974075
21
0.23894
0
LINE
8
BLACK
6
CONTINUOUS
10
0.974075
20
0.23894
11
0.974767
21
0.24061
0
LINE
8
BLACK
6
CONTINUOUS
10
0.974767
20
0.24061
11
0.976437
21
0.241302
0
LINE
8
BLACK
6
CONTINUOUS
10
0.976437
20
0.241302
11
0.978107
21
0.24061
0
LINE
8
BLACK
6
CONTINUOUS
10
0.720037
20
0.304383
11
0.720207
21
0.304394
0
LINE
8
BLACK
6
CONTINUOUS
10
0.720207
20
0.304394
11
0.720897
21
0.303886
0
LINE
8
BLACK
6
CONTINUOUS
10
0.720897
20
0.303886
11
0.721639
21
0.303458
0
LINE
8
BLACK
6
CONTINUOUS
10
0.721639
20
0.303458
11
0.721698
21
0.303298
0
LINE
8
BLACK
6
CONTINUOUS
10
0.721698
20
0.303298
11
0.721834
21
0.303198
0
LINE
8
BLACK
6
CONTINUOUS
10
0.721834
20
0.303198
11
0.725422
21
0.297817
0
LINE
8
BLACK
6
CONTINUOUS
10
0.725422
20
0.297817
11
0.728626
21
0.294613
0
LINE
8
BLACK
6
CONTINUOUS
10
0.728626
20
0.294613
11
0.731947
21
0.292952
0
LINE
8
BLACK
6
CONTINUOUS
10
0.731947
20
0.292952
11
0.73277
21
0.292341
0
LINE
8
BLACK
6
CONTINUOUS
10
0.73277
20
0.292341
11
0.733574
21
0.290488
0
LINE
8
BLACK
6
CONTINUOUS
10
0.733574
20
0.290488
11
0.732998
21
0.288552
0
LINE
8
BLACK
6
CONTINUOUS
10
0.732998
20
0.288552
11
0.731312
21
0.287439
0
LINE
8
BLACK
6
CONTINUOUS
10
0.731312
20
0.287439
11
0.729306
21
0.28767
0
LINE
8
BLACK
6
CONTINUOUS
10
0.729306
20
0.28767
11
0.725556
21
0.289545
0
LINE
8
BLACK
6
CONTINUOUS
10
0.725556
20
0.289545
11
0.724847
21
0.290071
0
LINE
8
BLACK
6
CONTINUOUS
10
0.724847
20
0.290071
11
0.724789
21
0.290098
0
LINE
8
BLACK
6
CONTINUOUS
10
0.724789
20
0.290098
11
0.72233
21
0.292556
0
LINE
8
BLACK
6
CONTINUOUS
10
0.72233
20
0.292556
11
0.72233
21
0.265143
0
LINE
8
BLACK
6
CONTINUOUS
10
0.72233
20
0.265143
11
0.730626
21
0.265143
0
LINE
8
BLACK
6
CONTINUOUS
10
0.730626
20
0.265143
11
0.731636
21
0.264964
0
LINE
8
BLACK
6
CONTINUOUS
10
0.731636
20
0.264964
11
0.733183
21
0.263666
0
LINE
8
BLACK
6
CONTINUOUS
10
0.733183
20
0.263666
11
0.733534
21
0.261677
0
LINE
8
BLACK
6
CONTINUOUS
10
0.733534
20
0.261677
11
0.732524
21
0.259928
0
LINE
8
BLACK
6
CONTINUOUS
10
0.732524
20
0.259928
11
0.730626
21
0.259237
0
LINE
8
BLACK
6
CONTINUOUS
10
0.730626
20
0.259237
11
0.708129
21
0.259237
0
LINE
8
BLACK
6
CONTINUOUS
10
0.708129
20
0.259237
11
0.707119
21
0.259415
0
LINE
8
BLACK
6
CONTINUOUS
10
0.707119
20
0.259415
11
0.705572
21
0.260713
0
LINE
8
BLACK
6
CONTINUOUS
10
0.705572
20
0.260713
11
0.705221
21
0.262703
0
LINE
8
BLACK
6
CONTINUOUS
10
0.705221
20
0.262703
11
0.706231
21
0.264452
0
LINE
8
BLACK
6
CONTINUOUS
10
0.706231
20
0.264452
11
0.708129
21
0.265143
0
LINE
8
BLACK
6
CONTINUOUS
10
0.708129
20
0.265143
11
0.716425
21
0.265143
0
LINE
8
BLACK
6
CONTINUOUS
10
0.716425
20
0.265143
11
0.716425
21
0.30156
0
LINE
8
BLACK
6
CONTINUOUS
10
0.716425
20
0.30156
11
0.716603
21
0.30257
0
LINE
8
BLACK
6
CONTINUOUS
10
0.716603
20
0.30257
11
0.716712
21
0.3027
0
LINE
8
BLACK
6
CONTINUOUS
10
0.716712
20
0.3027
11
0.716731
21
0.302869
0
LINE
8
BLACK
6
CONTINUOUS
10
0.716731
20
0.302869
11
0.71735
21
0.303461
0
LINE
8
BLACK
6
CONTINUOUS
10
0.71735
20
0.303461
11
0.717901
21
0.304117
0
LINE
8
BLACK
6
CONTINUOUS
10
0.717901
20
0.304117
11
0.718068
21
0.304146
0
LINE
8
BLACK
6
CONTINUOUS
10
0.718068
20
0.304146
11
0.718191
21
0.304264
0
LINE
8
BLACK
6
CONTINUOUS
10
0.718191
20
0.304264
11
0.719046
21
0.304319
0
LINE
8
BLACK
6
CONTINUOUS
10
0.719046
20
0.304319
11
0.71989
21
0.304468
0
LINE
8
BLACK
6
CONTINUOUS
10
0.71989
20
0.304468
11
0.720037
21
0.304383
0
LINE
8
BLACK
6
CONTINUOUS
10
0.772258
20
0.303458
11
0.772949
21
0.30156
0
LINE
8
BLACK
6
CONTINUOUS
10
0.772949
20
0.30156
11
0.772949
21
0.269689
0
LINE
8
BLACK
6
CONTINUOUS
10
0.772949
20
0.269689
11
0.772771
21
0.268679
0
LINE
8
BLACK
6
CONTINUOUS
10
0.772771
20
0.268679
11
0.772657
21
0.268544
0
LINE
8
BLACK
6
CONTINUOUS
10
0.772657
20
0.268544
11
0.772637
21
0.268368
0
LINE
8
BLACK
6
CONTINUOUS
10
0.772637
20
0.268368
11
0.770762
21
0.264619
0
LINE
8
BLACK
6
CONTINUOUS
10
0.770762
20
0.264619
11
0.770237
21
0.26391
0
LINE
8
BLACK
6
CONTINUOUS
10
0.770237
20
0.26391
11
0.770209
21
0.263851
0
LINE
8
BLACK
6
CONTINUOUS
10
0.770209
20
0.263851
11
0.768335
21
0.261977
0
LINE
8
BLACK
6
CONTINUOUS
10
0.768335
20
0.261977
11
0.767612
21
0.26147
0
LINE
8
BLACK
6
CONTINUOUS
10
0.767612
20
0.26147
11
0.767567
21
0.261424
0
LINE
8
BLACK
6
CONTINUOUS
10
0.767567
20
0.261424
11
0.763818
21
0.259549
0
LINE
8
BLACK
6
CONTINUOUS
10
0.763818
20
0.259549
11
0.762835
21
0.259256
0
LINE
8
BLACK
6
CONTINUOUS
10
0.762835
20
0.259256
11
0.762663
21
0.259297
0
LINE
8
BLACK
6
CONTINUOUS
10
0.762663
20
0.259297
11
0.762497
21
0.259237
0
LINE
8
BLACK
6
CONTINUOUS
10
0.762497
20
0.259237
11
0.754998
21
0.259237
0
LINE
8
BLACK
6
CONTINUOUS
10
0.754998
20
0.259237
11
0.753988
21
0.259415
0
LINE
8
BLACK
6
CONTINUOUS
10
0.753988
20
0.259415
11
0.753853
21
0.259529
0
LINE
8
BLACK
6
CONTINUOUS
10
0.753853
20
0.259529
11
0.753678
21
0.259549
0
LINE
8
BLACK
6
CONTINUOUS
10
0.753678
20
0.259549
11
0.749928
21
0.261424
0
LINE
8
BLACK
6
CONTINUOUS
10
0.749928
20
0.261424
11
0.749219
21
0.261949
0
LINE
8
BLACK
6
CONTINUOUS
10
0.749219
20
0.261949
11
0.749161
21
0.261977
0
LINE
8
BLACK
6
CONTINUOUS
10
0.749161
20
0.261977
11
0.747286
21
0.263851
0
LINE
8
BLACK
6
CONTINUOUS
10
0.747286
20
0.263851
11
0.74678
21
0.264574
0
LINE
8
BLACK
6
CONTINUOUS
10
0.74678
20
0.264574
11
0.746733
21
0.264619
0
LINE
8
BLACK
6
CONTINUOUS
10
0.746733
20
0.264619
11
0.744858
21
0.268368
0
LINE
8
BLACK
6
CONTINUOUS
10
0.744858
20
0.268368
11
0.744566
21
0.269351
0
LINE
8
BLACK
6
CONTINUOUS
10
0.744566
20
0.269351
11
0.744607
21
0.269523
0
LINE
8
BLACK
6
CONTINUOUS
10
0.744607
20
0.269523
11
0.744546
21
0.269689
0
LINE
8
BLACK
6
CONTINUOUS
10
0.744546
20
0.269689
11
0.744546
21
0.30156
0
LINE
8
BLACK
6
CONTINUOUS
10
0.744546
20
0.30156
11
0.744724
21
0.30257
0
LINE
8
BLACK
6
CONTINUOUS
10
0.744724
20
0.30257
11
0.746023
21
0.304117
0
LINE
8
BLACK
6
CONTINUOUS
10
0.746023
20
0.304117
11
0.748012
21
0.304468
0
LINE
8
BLACK
6
CONTINUOUS
10
0.748012
20
0.304468
11
0.749761
21
0.303458
0
LINE
8
BLACK
6
CONTINUOUS
10
0.749761
20
0.303458
11
0.750452
21
0.30156
0
LINE
8
BLACK
6
CONTINUOUS
10
0.750452
20
0.30156
11
0.750452
21
0.270386
0
LINE
8
BLACK
6
CONTINUOUS
10
0.750452
20
0.270386
11
0.751801
21
0.267688
0
LINE
8
BLACK
6
CONTINUOUS
10
0.751801
20
0.267688
11
0.752998
21
0.266491
0
LINE
8
BLACK
6
CONTINUOUS
10
0.752998
20
0.266491
11
0.755695
21
0.265143
0
LINE
8
BLACK
6
CONTINUOUS
10
0.755695
20
0.265143
11
0.7618
21
0.265143
0
LINE
8
BLACK
6
CONTINUOUS
10
0.7618
20
0.265143
11
0.764498
21
0.266491
0
LINE
8
BLACK
6
CONTINUOUS
10
0.764498
20
0.266491
11
0.765695
21
0.267688
0
LINE
8
BLACK
6
CONTINUOUS
10
0.765695
20
0.267688
11
0.767043
21
0.270386
0
LINE
8
BLACK
6
CONTINUOUS
10
0.767043
20
0.270386
11
0.767043
21
0.30156
0
LINE
8
BLACK
6
CONTINUOUS
10
0.767043
20
0.30156
11
0.767222
21
0.30257
0
LINE
8
BLACK
6
CONTINUOUS
10
0.767222
20
0.30257
11
0.76852
21
0.304117
0
LINE
8
BLACK
6
CONTINUOUS
10
0.76852
20
0.304117
11
0.770509
21
0.304468
0
LINE
8
BLACK
6
CONTINUOUS
10
0.770509
20
0.304468
11
0.772258
21
0.303458
0
LINE
8
BLACK
6
CONTINUOUS
10
0.978107
20
0.38061
11
0.978799
21
0.37894
0
LINE
8
BLACK
6
CONTINUOUS
10
0.978799
20
0.37894
11
0.978799
21
0.36106
0
LINE
8
BLACK
6
CONTINUOUS
10
0.978799
20
0.36106
11
0.978107
21
0.35939
0
LINE
8
BLACK
6
CONTINUOUS
10
0.978107
20
0.35939
11
0.976437
21
0.358698
0
LINE
8
BLACK
6
CONTINUOUS
10
0.976437
20
0.358698
11
0.974767
21
0.35939
0
LINE
8
BLACK
6
CONTINUOUS
10
0.974767
20
0.35939
11
0.974075
21
0.36106
0
LINE
8
BLACK
6
CONTINUOUS
10
0.974075
20
0.36106
11
0.974075
21
0.37894
0
LINE
8
BLACK
6
CONTINUOUS
10
0.974075
20
0.37894
11
0.974767
21
0.38061
0
LINE
8
BLACK
6
CONTINUOUS
10
0.974767
20
0.38061
11
0.976437
21
0.381302
0
LINE
8
BLACK
6
CONTINUOUS
10
0.976437
20
0.381302
11
0.978107
21
0.38061
0
LINE
8
BLACK
6
CONTINUOUS
10
0.920233
20
0.38061
11
0.920925
21
0.37894
0
LINE
8
BLACK
6
CONTINUOUS
10
0.920925
20
0.37894
11
0.920925
21
0.36106
0
LINE
8
BLACK
6
CONTINUOUS
10
0.920925
20
0.36106
11
0.920233
21
0.35939
0
LINE
8
BLACK
6
CONTINUOUS
10
0.920233
20
0.35939
11
0.918563
21
0.358698
0
LINE
8
BLACK
6
CONTINUOUS
10
0.918563
20
0.358698
11
0.916893
21
0.35939
0
LINE
8
BLACK
6
CONTINUOUS
10
0.916893
20
0.35939
11
0.916201
21
0.36106
0
LINE
8
BLACK
6
CONTINUOUS
10
0.916201
20
0.36106
11
0.916201
21
0.37894
0
LINE
8
BLACK
6
CONTINUOUS
10
0.916201
20
0.37894
11
0.916893
21
0.38061
0
LINE
8
BLACK
6
CONTINUOUS
10
0.916893
20
0.38061
11
0.918563
21
0.381302
0
LINE
8
BLACK
6
CONTINUOUS
10
0.918563
20
0.381302
11
0.920233
21
0.38061
0
LINE
8
BLACK
6
CONTINUOUS
10
0.661558
20
0.379117
11
0.660866
21
0.380787
0
LINE
8
BLACK
6
CONTINUOUS
10
0.660866
20
0.380787
11
0.661558
21
0.382458
0
LINE
8
BLACK
6
CONTINUOUS
10
0.661558
20
0.382458
11
0.663228
21
0.38315
0
LINE
8
BLACK
6
CONTINUOUS
10
0.663228
20
0.38315
11
0.816772
21
0.38315
0
LINE
8
BLACK
6
CONTINUOUS
10
0.816772
20
0.38315
11
0.818442
21
0.382458
0
LINE
8
BLACK
6
CONTINUOUS
10
0.818442
20
0.382458
11
0.819134
21
0.380787
0
LINE
8
BLACK
6
CONTINUOUS
10
0.819134
20
0.380787
11
0.818442
21
0.379117
0
LINE
8
BLACK
6
CONTINUOUS
10
0.818442
20
0.379117
11
0.816772
21
0.378425
0
LINE
8
BLACK
6
CONTINUOUS
10
0.816772
20
0.378425
11
0.663228
21
0.378425
0
LINE
8
BLACK
6
CONTINUOUS
10
0.663228
20
0.378425
11
0.661558
21
0.379117
0
LINE
8
BLACK
6
CONTINUOUS
10
0.52167
20
0.50104
11
0.522362
21
0.49937
0
LINE
8
BLACK
6
CONTINUOUS
10
0.522362
20
0.49937
11
0.52167
21
0.4977
0
LINE
8
BLACK
6
CONTINUOUS
10
0.52167
20
0.4977
11
0.52
21
0.497008
0
LINE
8
BLACK
6
CONTINUOUS
10
0.52
20
0.497008
11
0.353071
21
0.497008
0
LINE
8
BLACK
6
CONTINUOUS
10
0.353071
20
0.497008
11
0.353071
21
0.422992
0
LINE
8
BLACK
6
CONTINUOUS
10
0.353071
20
0.422992
11
0.52
21
0.422992
0
LINE
8
BLACK
6
CONTINUOUS
10
0.52
20
0.422992
11
0.52167
21
0.4223
0
LINE
8
BLACK
6
CONTINUOUS
10
0.52167
20
0.4223
11
0.522362
21
0.42063
0
LINE
8
BLACK
6
CONTINUOUS
10
0.522362
20
0.42063
11
0.52167
21
0.41896
0
LINE
8
BLACK
6
CONTINUOUS
10
0.52167
20
0.41896
11
0.52
21
0.418268
0
LINE
8
BLACK
6
CONTINUOUS
10
0.52
20
0.418268
11
0.350709
21
0.418268
0
LINE
8
BLACK
6
CONTINUOUS
10
0.350709
20
0.418268
11
0.349038
21
0.41896
0
LINE
8
BLACK
6
CONTINUOUS
10
0.349038
20
0.41896
11
0.348346
21
0.42063
0
LINE
8
BLACK
6
CONTINUOUS
10
0.348346
20
0.42063
11
0.348346
21
0.49937
0
LINE
8
BLACK
6
CONTINUOUS
10
0.348346
20
0.49937
11
0.349038
21
0.50104
0
LINE
8
BLACK
6
CONTINUOUS
10
0.349038
20
0.50104
11
0.350709
21
0.501732
0
LINE
8
BLACK
6
CONTINUOUS
10
0.350709
20
0.501732
11
0.52
21
0.501732
0
LINE
8
BLACK
6
CONTINUOUS
10
0.52
20
0.501732
11
0.52167
21
0.50104
0
LINE
8
BLACK
6
CONTINUOUS
10
0.65244
20
0.458779
11
0.652574
21
0.458791
0
LINE
8
BLACK
6
CONTINUOUS
10
0.652574
20
0.458791
11
0.653303
21
0.458281
0
LINE
8
BLACK
6
CONTINUOUS
10
0.653303
20
0.458281
11
0.654072
21
0.457836
0
LINE
8
BLACK
6
CONTINUOUS
10
0.654072
20
0.457836
11
0.654118
21
0.457709
0
LINE
8
BLACK
6
CONTINUOUS
10
0.654118
20
0.457709
11
0.654229
21
0.457632
0
LINE
8
BLACK
6
CONTINUOUS
10
0.654229
20
0.457632
11
0.654459
21
0.456773
0
LINE
8
BLACK
6
CONTINUOUS
10
0.654459
20
0.456773
11
0.654763
21
0.455938
0
LINE
8
BLACK
6
CONTINUOUS
10
0.654763
20
0.455938
11
0.654763
21
0.431566
0
LINE
8
BLACK
6
CONTINUOUS
10
0.654763
20
0.431566
11
0.654585
21
0.430556
0
LINE
8
BLACK
6
CONTINUOUS
10
0.654585
20
0.430556
11
0.653287
21
0.429009
0
LINE
8
BLACK
6
CONTINUOUS
10
0.653287
20
0.429009
11
0.651297
21
0.428658
0
LINE
8
BLACK
6
CONTINUOUS
10
0.651297
20
0.428658
11
0.649548
21
0.429668
0
LINE
8
BLACK
6
CONTINUOUS
10
0.649548
20
0.429668
11
0.648857
21
0.431566
0
LINE
8
BLACK
6
CONTINUOUS
10
0.648857
20
0.431566
11
0.648857
21
0.44881
0
LINE
8
BLACK
6
CONTINUOUS
10
0.648857
20
0.44881
11
0.631401
21
0.431353
0
LINE
8
BLACK
6
CONTINUOUS
10
0.631401
20
0.431353
11
0.630561
21
0.430765
0
LINE
8
BLACK
6
CONTINUOUS
10
0.630561
20
0.430765
11
0.630385
21
0.43075
0
LINE
8
BLACK
6
CONTINUOUS
10
0.630385
20
0.43075
11
0.630247
21
0.43064
0
LINE
8
BLACK
6
CONTINUOUS
10
0.630247
20
0.43064
11
0.624623
21
0.428765
0
LINE
8
BLACK
6
CONTINUOUS
10
0.624623
20
0.428765
11
0.623749
21
0.428636
0
LINE
8
BLACK
6
CONTINUOUS
10
0.623749
20
0.428636
11
0.623689
21
0.428614
0
LINE
8
BLACK
6
CONTINUOUS
10
0.623689
20
0.428614
11
0.619939
21
0.428614
0
LINE
8
BLACK
6
CONTINUOUS
10
0.619939
20
0.428614
11
0.618929
21
0.428792
0
LINE
8
BLACK
6
CONTINUOUS
10
0.618929
20
0.428792
11
0.618794
21
0.428905
0
LINE
8
BLACK
6
CONTINUOUS
10
0.618794
20
0.428905
11
0.618619
21
0.428925
0
LINE
8
BLACK
6
CONTINUOUS
10
0.618619
20
0.428925
11
0.614869
21
0.4308
0
LINE
8
BLACK
6
CONTINUOUS
10
0.614869
20
0.4308
11
0.61416
21
0.431326
0
LINE
8
BLACK
6
CONTINUOUS
10
0.61416
20
0.431326
11
0.614102
21
0.431353
0
LINE
8
BLACK
6
CONTINUOUS
10
0.614102
20
0.431353
11
0.612227
21
0.433228
0
LINE
8
BLACK
6
CONTINUOUS
10
0.612227
20
0.433228
11
0.611721
21
0.433951
0
LINE
8
BLACK
6
CONTINUOUS
10
0.611721
20
0.433951
11
0.611674
21
0.433995
0
LINE
8
BLACK
6
CONTINUOUS
10
0.611674
20
0.433995
11
0.609799
21
0.437745
0
LINE
8
BLACK
6
CONTINUOUS
10
0.609799
20
0.437745
11
0.609507
21
0.438728
0
LINE
8
BLACK
6
CONTINUOUS
10
0.609507
20
0.438728
11
0.609548
21
0.4389
0
LINE
8
BLACK
6
CONTINUOUS
10
0.609548
20
0.4389
11
0.609487
21
0.439065
0
LINE
8
BLACK
6
CONTINUOUS
10
0.609487
20
0.439065
11
0.609487
21
0.448439
0
LINE
8
BLACK
6
CONTINUOUS
10
0.609487
20
0.448439
11
0.609665
21
0.449449
0
LINE
8
BLACK
6
CONTINUOUS
10
0.609665
20
0.449449
11
0.609779
21
0.449584
0
LINE
8
BLACK
6
CONTINUOUS
10
0.609779
20
0.449584
11
0.609799
21
0.44976
0
LINE
8
BLACK
6
CONTINUOUS
10
0.609799
20
0.44976
11
0.611674
21
0.453509
0
LINE
8
BLACK
6
CONTINUOUS
10
0.611674
20
0.453509
11
0.6122
21
0.454218
0
LINE
8
BLACK
6
CONTINUOUS
10
0.6122
20
0.454218
11
0.612227
21
0.454277
0
LINE
8
BLACK
6
CONTINUOUS
10
0.612227
20
0.454277
11
0.614102
21
0.456151
0
LINE
8
BLACK
6
CONTINUOUS
10
0.614102
20
0.456151
11
0.614942
21
0.45674
0
LINE
8
BLACK
6
CONTINUOUS
10
0.614942
20
0.45674
11
0.616954
21
0.456916
0
LINE
8
BLACK
6
CONTINUOUS
10
0.616954
20
0.456916
11
0.618609
21
0.455757
0
LINE
8
BLACK
6
CONTINUOUS
10
0.618609
20
0.455757
11
0.619131
21
0.453806
0
LINE
8
BLACK
6
CONTINUOUS
10
0.619131
20
0.453806
11
0.618278
21
0.451976
0
LINE
8
BLACK
6
CONTINUOUS
10
0.618278
20
0.451976
11
0.616742
21
0.45044
0
LINE
8
BLACK
6
CONTINUOUS
10
0.616742
20
0.45044
11
0.615393
21
0.447742
0
LINE
8
BLACK
6
CONTINUOUS
10
0.615393
20
0.447742
11
0.615393
21
0.439763
0
LINE
8
BLACK
6
CONTINUOUS
10
0.615393
20
0.439763
11
0.616742
21
0.437065
0
LINE
8
BLACK
6
CONTINUOUS
10
0.616742
20
0.437065
11
0.617939
21
0.435868
0
LINE
8
BLACK
6
CONTINUOUS
10
0.617939
20
0.435868
11
0.620636
21
0.434519
0
LINE
8
BLACK
6
CONTINUOUS
10
0.620636
20
0.434519
11
0.62321
21
0.434519
0
LINE
8
BLACK
6
CONTINUOUS
10
0.62321
20
0.434519
11
0.627718
21
0.436022
0
LINE
8
BLACK
6
CONTINUOUS
10
0.627718
20
0.436022
11
0.649722
21
0.458026
0
LINE
8
BLACK
6
CONTINUOUS
10
0.649722
20
0.458026
11
0.65025
21
0.458396
0
LINE
8
BLACK
6
CONTINUOUS
10
0.65025
20
0.458396
11
0.650334
21
0.458496
0
LINE
8
BLACK
6
CONTINUOUS
10
0.650334
20
0.458496
11
0.650412
21
0.458509
0
LINE
8
BLACK
6
CONTINUOUS
10
0.650412
20
0.458509
11
0.650562
21
0.458614
0
LINE
8
BLACK
6
CONTINUOUS
10
0.650562
20
0.458614
11
0.651448
21
0.458692
0
LINE
8
BLACK
6
CONTINUOUS
10
0.651448
20
0.458692
11
0.652323
21
0.458846
0
LINE
8
BLACK
6
CONTINUOUS
10
0.652323
20
0.458846
11
0.65244
21
0.458779
0
LINE
8
BLACK
6
CONTINUOUS
10
0.846409
20
0.456435
11
0.847521
21
0.45475
0
LINE
8
BLACK
6
CONTINUOUS
10
0.847521
20
0.45475
11
0.84729
21
0.452743
0
LINE
8
BLACK
6
CONTINUOUS
10
0.84729
20
0.452743
11
0.845416
21
0.448994
0
LINE
8
BLACK
6
CONTINUOUS
10
0.845416
20
0.448994
11
0.84489
21
0.448284
0
LINE
8
BLACK
6
CONTINUOUS
10
0.84489
20
0.448284
11
0.844863
21
0.448226
0
LINE
8
BLACK
6
CONTINUOUS
10
0.844863
20
0.448226
11
0.842404
21
0.445768
0
LINE
8
BLACK
6
CONTINUOUS
10
0.842404
20
0.445768
11
0.869818
21
0.445768
0
LINE
8
BLACK
6
CONTINUOUS
10
0.869818
20
0.445768
11
0.869818
21
0.454064
0
LINE
8
BLACK
6
CONTINUOUS
10
0.869818
20
0.454064
11
0.869996
21
0.455074
0
LINE
8
BLACK
6
CONTINUOUS
10
0.869996
20
0.455074
11
0.871294
21
0.456621
0
LINE
8
BLACK
6
CONTINUOUS
10
0.871294
20
0.456621
11
0.873284
21
0.456971
0
LINE
8
BLACK
6
CONTINUOUS
10
0.873284
20
0.456971
11
0.875033
21
0.455962
0
LINE
8
BLACK
6
CONTINUOUS
10
0.875033
20
0.455962
11
0.875724
21
0.454064
0
LINE
8
BLACK
6
CONTINUOUS
10
0.875724
20
0.454064
11
0.875724
21
0.431566
0
LINE
8
BLACK
6
CONTINUOUS
10
0.875724
20
0.431566
11
0.875546
21
0.430556
0
LINE
8
BLACK
6
CONTINUOUS
10
0.875546
20
0.430556
11
0.874247
21
0.429009
0
LINE
8
BLACK
6
CONTINUOUS
10
0.874247
20
0.429009
11
0.872258
21
0.428658
0
LINE
8
BLACK
6
CONTINUOUS
10
0.872258
20
0.428658
11
0.870509
21
0.429668
0
LINE
8
BLACK
6
CONTINUOUS
10
0.870509
20
0.429668
11
0.869818
21
0.431566
0
LINE
8
BLACK
6
CONTINUOUS
10
0.869818
20
0.431566
11
0.869818
21
0.439862
0
LINE
8
BLACK
6
CONTINUOUS
10
0.869818
20
0.439862
11
0.833401
21
0.439862
0
LINE
8
BLACK
6
CONTINUOUS
10
0.833401
20
0.439862
11
0.832391
21
0.44004
0
LINE
8
BLACK
6
CONTINUOUS
10
0.832391
20
0.44004
11
0.832261
21
0.440149
0
LINE
8
BLACK
6
CONTINUOUS
10
0.832261
20
0.440149
11
0.832092
21
0.440168
0
LINE
8
BLACK
6
CONTINUOUS
10
0.832092
20
0.440168
11
0.8315
21
0.440788
0
LINE
8
BLACK
6
CONTINUOUS
10
0.8315
20
0.440788
11
0.830844
21
0.441339
0
LINE
8
BLACK
6
CONTINUOUS
10
0.830844
20
0.441339
11
0.830814
21
0.441506
0
LINE
8
BLACK
6
CONTINUOUS
10
0.830814
20
0.441506
11
0.830697
21
0.441629
0
LINE
8
BLACK
6
CONTINUOUS
10
0.830697
20
0.441629
11
0.830642
21
0.442484
0
LINE
8
BLACK
6
CONTINUOUS
10
0.830642
20
0.442484
11
0.830493
21
0.443328
0
LINE
8
BLACK
6
CONTINUOUS
10
0.830493
20
0.443328
11
0.830578
21
0.443475
0
LINE
8
BLACK
6
CONTINUOUS
10
0.830578
20
0.443475
11
0.830567
21
0.443644
0
LINE
8
BLACK
6
CONTINUOUS
10
0.830567
20
0.443644
11
0.831074
21
0.444335
0
LINE
8
BLACK
6
CONTINUOUS
10
0.831074
20
0.444335
11
0.831503
21
0.445077
0
LINE
8
BLACK
6
CONTINUOUS
10
0.831503
20
0.445077
11
0.831662
21
0.445135
0
LINE
8
BLACK
6
CONTINUOUS
10
0.831662
20
0.445135
11
0.831763
21
0.445272
0
LINE
8
BLACK
6
CONTINUOUS
10
0.831763
20
0.445272
11
0.837144
21
0.448859
0
LINE
8
BLACK
6
CONTINUOUS
10
0.837144
20
0.448859
11
0.840348
21
0.452063
0
LINE
8
BLACK
6
CONTINUOUS
10
0.840348
20
0.452063
11
0.842008
21
0.455384
0
LINE
8
BLACK
6
CONTINUOUS
10
0.842008
20
0.455384
11
0.842619
21
0.456208
0
LINE
8
BLACK
6
CONTINUOUS
10
0.842619
20
0.456208
11
0.844472
21
0.457011
0
LINE
8
BLACK
6
CONTINUOUS
10
0.844472
20
0.457011
11
0.846409
21
0.456435
0
LINE
8
BLACK
6
CONTINUOUS
10
0.950977
20
0.474432
11
0.9512
21
0.474471
0
LINE
8
BLACK
6
CONTINUOUS
10
0.9512
20
0.474471
11
0.951897
21
0.474069
0
LINE
8
BLACK
6
CONTINUOUS
10
0.951897
20
0.474069
11
0.952646
21
0.473773
0
LINE
8
BLACK
6
CONTINUOUS
10
0.952646
20
0.473773
11
0.952753
21
0.473574
0
LINE
8
BLACK
6
CONTINUOUS
10
0.952753
20
0.473574
11
0.952949
21
0.473462
0
LINE
8
BLACK
6
CONTINUOUS
10
0.952949
20
0.473462
11
0.953224
21
0.472705
0
LINE
8
BLACK
6
CONTINUOUS
10
0.953224
20
0.472705
11
0.953608
21
0.471997
0
LINE
8
BLACK
6
CONTINUOUS
10
0.953608
20
0.471997
11
0.953562
21
0.471776
0
LINE
8
BLACK
6
CONTINUOUS
10
0.953562
20
0.471776
11
0.95364
21
0.471564
0
LINE
8
BLACK
6
CONTINUOUS
10
0.95364
20
0.471564
11
0.95364
21
0.455769
0
LINE
8
BLACK
6
CONTINUOUS
10
0.95364
20
0.455769
11
0.96381
21
0.455769
0
LINE
8
BLACK
6
CONTINUOUS
10
0.96381
20
0.455769
11
0.96482
21
0.455591
0
LINE
8
BLACK
6
CONTINUOUS
10
0.96482
20
0.455591
11
0.966367
21
0.454292
0
LINE
8
BLACK
6
CONTINUOUS
10
0.966367
20
0.454292
11
0.966718
21
0.452303
0
LINE
8
BLACK
6
CONTINUOUS
10
0.966718
20
0.452303
11
0.965708
21
0.450554
0
LINE
8
BLACK
6
CONTINUOUS
10
0.965708
20
0.450554
11
0.96381
21
0.449863
0
LINE
8
BLACK
6
CONTINUOUS
10
0.96381
20
0.449863
11
0.95364
21
0.449863
0
LINE
8
BLACK
6
CONTINUOUS
10
0.95364
20
0.449863
11
0.95364
21
0.447192
0
LINE
8
BLACK
6
CONTINUOUS
10
0.95364
20
0.447192
11
0.953462
21
0.446182
0
LINE
8
BLACK
6
CONTINUOUS
10
0.953462
20
0.446182
11
0.952163
21
0.444634
0
LINE
8
BLACK
6
CONTINUOUS
10
0.952163
20
0.444634
11
0.950174
21
0.444284
0
LINE
8
BLACK
6
CONTINUOUS
10
0.950174
20
0.444284
11
0.948425
21
0.445294
0
LINE
8
BLACK
6
CONTINUOUS
10
0.948425
20
0.445294
11
0.947734
21
0.447192
0
LINE
8
BLACK
6
CONTINUOUS
10
0.947734
20
0.447192
11
0.947734
21
0.449863
0
LINE
8
BLACK
6
CONTINUOUS
10
0.947734
20
0.449863
11
0.937564
21
0.449863
0
LINE
8
BLACK
6
CONTINUOUS
10
0.937564
20
0.449863
11
0.936554
21
0.450041
0
LINE
8
BLACK
6
CONTINUOUS
10
0.936554
20
0.450041
11
0.935006
21
0.45134
0
LINE
8
BLACK
6
CONTINUOUS
10
0.935006
20
0.45134
11
0.934656
21
0.453329
0
LINE
8
BLACK
6
CONTINUOUS
10
0.934656
20
0.453329
11
0.935666
21
0.455078
0
LINE
8
BLACK
6
CONTINUOUS
10
0.935666
20
0.455078
11
0.937564
21
0.455769
0
LINE
8
BLACK
6
CONTINUOUS
10
0.937564
20
0.455769
11
0.947734
21
0.455769
0
LINE
8
BLACK
6
CONTINUOUS
10
0.947734
20
0.455769
11
0.947734
21
0.467467
0
LINE
8
BLACK
6
CONTINUOUS
10
0.947734
20
0.467467
11
0.923499
21
0.459389
0
LINE
8
BLACK
6
CONTINUOUS
10
0.923499
20
0.459389
11
0.922485
21
0.459238
0
LINE
8
BLACK
6
CONTINUOUS
10
0.922485
20
0.459238
11
0.920606
21
0.459981
0
LINE
8
BLACK
6
CONTINUOUS
10
0.920606
20
0.459981
11
0.919645
21
0.461757
0
LINE
8
BLACK
6
CONTINUOUS
10
0.919645
20
0.461757
11
0.92005
21
0.463735
0
LINE
8
BLACK
6
CONTINUOUS
10
0.92005
20
0.463735
11
0.921632
21
0.464991
0
LINE
8
BLACK
6
CONTINUOUS
10
0.921632
20
0.464991
11
0.949753
21
0.474365
0
LINE
8
BLACK
6
CONTINUOUS
10
0.949753
20
0.474365
11
0.950768
21
0.474515
0
LINE
8
BLACK
6
CONTINUOUS
10
0.950768
20
0.474515
11
0.950977
21
0.474432
0
LINE
8
BLACK
6
CONTINUOUS
10
0.820607
20
0.47311
11
0.821299
21
0.47144
0
LINE
8
BLACK
6
CONTINUOUS
10
0.821299
20
0.47144
11
0.821299
21
0.45356
0
LINE
8
BLACK
6
CONTINUOUS
10
0.821299
20
0.45356
11
0.820607
21
0.45189
0
LINE
8
BLACK
6
CONTINUOUS
10
0.820607
20
0.45189
11
0.818937
21
0.451198
0
LINE
8
BLACK
6
CONTINUOUS
10
0.818937
20
0.451198
11
0.817267
21
0.45189
0
LINE
8
BLACK
6
CONTINUOUS
10
0.817267
20
0.45189
11
0.816575
21
0.45356
0
LINE
8
BLACK
6
CONTINUOUS
10
0.816575
20
0.45356
11
0.816575
21
0.47144
0
LINE
8
BLACK
6
CONTINUOUS
10
0.816575
20
0.47144
11
0.817267
21
0.47311
0
LINE
8
BLACK
6
CONTINUOUS
10
0.817267
20
0.47311
11
0.818937
21
0.473802
0
LINE
8
BLACK
6
CONTINUOUS
10
0.818937
20
0.473802
11
0.820607
21
0.47311
0
LINE
8
BLACK
6
CONTINUOUS
10
0.762733
20
0.47311
11
0.763425
21
0.47144
0
LINE
8
BLACK
6
CONTINUOUS
10
0.763425
20
0.47144
11
0.763425
21
0.45356
0
LINE
8
BLACK
6
CONTINUOUS
10
0.763425
20
0.45356
11
0.762733
21
0.45189
0
LINE
8
BLACK
6
CONTINUOUS
10
0.762733
20
0.45189
11
0.761063
21
0.451198
0
LINE
8
BLACK
6
CONTINUOUS
10
0.761063
20
0.451198
11
0.759393
21
0.45189
0
LINE
8
BLACK
6
CONTINUOUS
10
0.759393
20
0.45189
11
0.758701
21
0.45356
0
LINE
8
BLACK
6
CONTINUOUS
10
0.758701
20
0.45356
11
0.758701
21
0.47144
0
LINE
8
BLACK
6
CONTINUOUS
10
0.758701
20
0.47144
11
0.759393
21
0.47311
0
LINE
8
BLACK
6
CONTINUOUS
10
0.759393
20
0.47311
11
0.761063
21
0.473802
0
LINE
8
BLACK
6
CONTINUOUS
10
0.761063
20
0.473802
11
0.762733
21
0.47311
0
LINE
8
BLACK
6
CONTINUOUS
10
0.672733
20
0.47311
11
0.673425
21
0.47144
0
LINE
8
BLACK
6
CONTINUOUS
10
0.673425
20
0.47144
11
0.673425
21
0.45356
0
LINE
8
BLACK
6
CONTINUOUS
10
0.673425
20
0.45356
11
0.672733
21
0.45189
0
LINE
8
BLACK
6
CONTINUOUS
10
0.672733
20
0.45189
11
0.671063
21
0.451198
0
LINE
8
BLACK
6
CONTINUOUS
10
0.671063
20
0.451198
11
0.669393
21
0.45189
0
LINE
8
BLACK
6
CONTINUOUS
10
0.669393
20
0.45189
11
0.668701
21
0.45356
0
LINE
8
BLACK
6
CONTINUOUS
10
0.668701
20
0.45356
11
0.668701
21
0.47144
0
LINE
8
BLACK
6
CONTINUOUS
10
0.668701
20
0.47144
11
0.669393
21
0.47311
0
LINE
8
BLACK
6
CONTINUOUS
10
0.669393
20
0.47311
11
0.671063
21
0.473802
0
LINE
8
BLACK
6
CONTINUOUS
10
0.671063
20
0.473802
11
0.672733
21
0.47311
0
LINE
8
BLACK
6
CONTINUOUS
10
0.730607
20
0.47311
11
0.731299
21
0.47144
0
LINE
8
BLACK
6
CONTINUOUS
10
0.731299
20
0.47144
11
0.731299
21
0.45356
0
LINE
8
BLACK
6
CONTINUOUS
10
0.731299
20
0.45356
11
0.730607
21
0.45189
0
LINE
8
BLACK
6
CONTINUOUS
10
0.730607
20
0.45189
11
0.728937
21
0.451198
0
LINE
8
BLACK
6
CONTINUOUS
10
0.728937
20
0.451198
11
0.727267
21
0.45189
0
LINE
8
BLACK
6
CONTINUOUS
10
0.727267
20
0.45189
11
0.726575
21
0.45356
0
LINE
8
BLACK
6
CONTINUOUS
10
0.726575
20
0.45356
11
0.726575
21
0.47144
0
LINE
8
BLACK
6
CONTINUOUS
10
0.726575
20
0.47144
11
0.727267
21
0.47311
0
LINE
8
BLACK
6
CONTINUOUS
10
0.727267
20
0.47311
11
0.728937
21
0.473802
0
LINE
8
BLACK
6
CONTINUOUS
10
0.728937
20
0.473802
11
0.730607
21
0.47311
0
LINE
8
BLACK
6
CONTINUOUS
10
0.65282
20
0.494334
11
0.654367
21
0.493035
0
LINE
8
BLACK
6
CONTINUOUS
10
0.654367
20
0.493035
11
0.654718
21
0.491046
0
LINE
8
BLACK
6
CONTINUOUS
10
0.654718
20
0.491046
11
0.653708
21
0.489297
0
LINE
8
BLACK
6
CONTINUOUS
10
0.653708
20
0.489297
11
0.65181
21
0.488606
0
LINE
8
BLACK
6
CONTINUOUS
10
0.65181
20
0.488606
11
0.636015
21
0.488606
0
LINE
8
BLACK
6
CONTINUOUS
10
0.636015
20
0.488606
11
0.636015
21
0.483722
0
LINE
8
BLACK
6
CONTINUOUS
10
0.636015
20
0.483722
11
0.653504
21
0.471481
0
LINE
8
BLACK
6
CONTINUOUS
10
0.653504
20
0.471481
11
0.654229
21
0.470756
0
LINE
8
BLACK
6
CONTINUOUS
10
0.654229
20
0.470756
11
0.654752
21
0.468805
0
LINE
8
BLACK
6
CONTINUOUS
10
0.654752
20
0.468805
11
0.653898
21
0.466974
0
LINE
8
BLACK
6
CONTINUOUS
10
0.653898
20
0.466974
11
0.652068
21
0.46612
0
LINE
8
BLACK
6
CONTINUOUS
10
0.652068
20
0.46612
11
0.650117
21
0.466643
0
LINE
8
BLACK
6
CONTINUOUS
10
0.650117
20
0.466643
11
0.636008
21
0.476519
0
LINE
8
BLACK
6
CONTINUOUS
10
0.636008
20
0.476519
11
0.635837
21
0.475551
0
LINE
8
BLACK
6
CONTINUOUS
10
0.635837
20
0.475551
11
0.635724
21
0.475416
0
LINE
8
BLACK
6
CONTINUOUS
10
0.635724
20
0.475416
11
0.635704
21
0.47524
0
LINE
8
BLACK
6
CONTINUOUS
10
0.635704
20
0.47524
11
0.633829
21
0.471491
0
LINE
8
BLACK
6
CONTINUOUS
10
0.633829
20
0.471491
11
0.633303
21
0.470782
0
LINE
8
BLACK
6
CONTINUOUS
10
0.633303
20
0.470782
11
0.633276
21
0.470723
0
LINE
8
BLACK
6
CONTINUOUS
10
0.633276
20
0.470723
11
0.631401
21
0.468849
0
LINE
8
BLACK
6
CONTINUOUS
10
0.631401
20
0.468849
11
0.630678
21
0.468342
0
LINE
8
BLACK
6
CONTINUOUS
10
0.630678
20
0.468342
11
0.630634
21
0.468295
0
LINE
8
BLACK
6
CONTINUOUS
10
0.630634
20
0.468295
11
0.626884
21
0.466421
0
LINE
8
BLACK
6
CONTINUOUS
10
0.626884
20
0.466421
11
0.625901
21
0.466128
0
LINE
8
BLACK
6
CONTINUOUS
10
0.625901
20
0.466128
11
0.625729
21
0.466169
0
LINE
8
BLACK
6
CONTINUOUS
10
0.625729
20
0.466169
11
0.625564
21
0.466109
0
LINE
8
BLACK
6
CONTINUOUS
10
0.625564
20
0.466109
11
0.619939
21
0.466109
0
LINE
8
BLACK
6
CONTINUOUS
10
0.619939
20
0.466109
11
0.618929
21
0.466287
0
LINE
8
BLACK
6
CONTINUOUS
10
0.618929
20
0.466287
11
0.618794
21
0.4664
0
LINE
8
BLACK
6
CONTINUOUS
10
0.618794
20
0.4664
11
0.618619
21
0.466421
0
LINE
8
BLACK
6
CONTINUOUS
10
0.618619
20
0.466421
11
0.614869
21
0.468295
0
LINE
8
BLACK
6
CONTINUOUS
10
0.614869
20
0.468295
11
0.61416
21
0.468821
0
LINE
8
BLACK
6
CONTINUOUS
10
0.61416
20
0.468821
11
0.614102
21
0.468849
0
LINE
8
BLACK
6
CONTINUOUS
10
0.614102
20
0.468849
11
0.612227
21
0.470723
0
LINE
8
BLACK
6
CONTINUOUS
10
0.612227
20
0.470723
11
0.611721
21
0.471446
0
LINE
8
BLACK
6
CONTINUOUS
10
0.611721
20
0.471446
11
0.611674
21
0.471491
0
LINE
8
BLACK
6
CONTINUOUS
10
0.611674
20
0.471491
11
0.609799
21
0.47524
0
LINE
8
BLACK
6
CONTINUOUS
10
0.609799
20
0.47524
11
0.609507
21
0.476223
0
LINE
8
BLACK
6
CONTINUOUS
10
0.609507
20
0.476223
11
0.609548
21
0.476395
0
LINE
8
BLACK
6
CONTINUOUS
10
0.609548
20
0.476395
11
0.609487
21
0.476561
0
LINE
8
BLACK
6
CONTINUOUS
10
0.609487
20
0.476561
11
0.609487
21
0.491559
0
LINE
8
BLACK
6
CONTINUOUS
10
0.609487
20
0.491559
11
0.609555
21
0.491942
0
LINE
8
BLACK
6
CONTINUOUS
10
0.609555
20
0.491942
11
0.609532
21
0.492072
0
LINE
8
BLACK
6
CONTINUOUS
10
0.609532
20
0.492072
11
0.609598
21
0.492185
0
LINE
8
BLACK
6
CONTINUOUS
10
0.609598
20
0.492185
11
0.609665
21
0.492569
0
LINE
8
BLACK
6
CONTINUOUS
10
0.609665
20
0.492569
11
0.610159
21
0.493156
0
LINE
8
BLACK
6
CONTINUOUS
10
0.610159
20
0.493156
11
0.610542
21
0.493821
0
LINE
8
BLACK
6
CONTINUOUS
10
0.610542
20
0.493821
11
0.610793
21
0.493912
0
LINE
8
BLACK
6
CONTINUOUS
10
0.610793
20
0.493912
11
0.610964
21
0.494116
0
LINE
8
BLACK
6
CONTINUOUS
10
0.610964
20
0.494116
11
0.611719
21
0.494249
0
LINE
8
BLACK
6
CONTINUOUS
10
0.611719
20
0.494249
11
0.61244
21
0.494512
0
LINE
8
BLACK
6
CONTINUOUS
10
0.61244
20
0.494512
11
0.65181
21
0.494512
0
LINE
8
BLACK
6
CONTINUOUS
10
0.65181
20
0.494512
11
0.65282
21
0.494334
0
LINE
8
BLACK
6
CONTINUOUS
10
0.615393
20
0.488606
11
0.615393
21
0.477258
0
LINE
8
BLACK
6
CONTINUOUS
10
0.615393
20
0.477258
11
0.616742
21
0.47456
0
LINE
8
BLACK
6
CONTINUOUS
10
0.616742
20
0.47456
11
0.617939
21
0.473363
0
LINE
8
BLACK
6
CONTINUOUS
10
0.617939
20
0.473363
11
0.620636
21
0.472014
0
LINE
8
BLACK
6
CONTINUOUS
10
0.620636
20
0.472014
11
0.624866
21
0.472014
0
LINE
8
BLACK
6
CONTINUOUS
10
0.624866
20
0.472014
11
0.627564
21
0.473363
0
LINE
8
BLACK
6
CONTINUOUS
10
0.627564
20
0.473363
11
0.628761
21
0.47456
0
LINE
8
BLACK
6
CONTINUOUS
10
0.628761
20
0.47456
11
0.63011
21
0.477258
0
LINE
8
BLACK
6
CONTINUOUS
10
0.63011
20
0.477258
11
0.63011
21
0.488606
0
LINE
8
BLACK
6
CONTINUOUS
10
0.63011
20
0.488606
11
0.615393
21
0.488606
0
LINE
8
BLACK
6
CONTINUOUS
10
0.873781
20
0.494334
11
0.875328
21
0.493035
0
LINE
8
BLACK
6
CONTINUOUS
10
0.875328
20
0.493035
11
0.875679
21
0.491046
0
LINE
8
BLACK
6
CONTINUOUS
10
0.875679
20
0.491046
11
0.874669
21
0.489297
0
LINE
8
BLACK
6
CONTINUOUS
10
0.874669
20
0.489297
11
0.872771
21
0.488606
0
LINE
8
BLACK
6
CONTINUOUS
10
0.872771
20
0.488606
11
0.856976
21
0.488606
0
LINE
8
BLACK
6
CONTINUOUS
10
0.856976
20
0.488606
11
0.856976
21
0.483722
0
LINE
8
BLACK
6
CONTINUOUS
10
0.856976
20
0.483722
11
0.874464
21
0.471481
0
LINE
8
BLACK
6
CONTINUOUS
10
0.874464
20
0.471481
11
0.875189
21
0.470756
0
LINE
8
BLACK
6
CONTINUOUS
10
0.875189
20
0.470756
11
0.875712
21
0.468805
0
LINE
8
BLACK
6
CONTINUOUS
10
0.875712
20
0.468805
11
0.874859
21
0.466974
0
LINE
8
BLACK
6
CONTINUOUS
10
0.874859
20
0.466974
11
0.873029
21
0.46612
0
LINE
8
BLACK
6
CONTINUOUS
10
0.873029
20
0.46612
11
0.871078
21
0.466643
0
LINE
8
BLACK
6
CONTINUOUS
10
0.871078
20
0.466643
11
0.856969
21
0.476519
0
LINE
8
BLACK
6
CONTINUOUS
10
0.856969
20
0.476519
11
0.856798
21
0.475551
0
LINE
8
BLACK
6
CONTINUOUS
10
0.856798
20
0.475551
11
0.856684
21
0.475416
0
LINE
8
BLACK
6
CONTINUOUS
10
0.856684
20
0.475416
11
0.856664
21
0.47524
0
LINE
8
BLACK
6
CONTINUOUS
10
0.856664
20
0.47524
11
0.854789
21
0.471491
0
LINE
8
BLACK
6
CONTINUOUS
10
0.854789
20
0.471491
11
0.854264
21
0.470782
0
LINE
8
BLACK
6
CONTINUOUS
10
0.854264
20
0.470782
11
0.854236
21
0.470723
0
LINE
8
BLACK
6
CONTINUOUS
10
0.854236
20
0.470723
11
0.852362
21
0.468849
0
LINE
8
BLACK
6
CONTINUOUS
10
0.852362
20
0.468849
11
0.851639
21
0.468342
0
LINE
8
BLACK
6
CONTINUOUS
10
0.851639
20
0.468342
11
0.851594
21
0.468295
0
LINE
8
BLACK
6
CONTINUOUS
10
0.851594
20
0.468295
11
0.847845
21
0.466421
0
LINE
8
BLACK
6
CONTINUOUS
10
0.847845
20
0.466421
11
0.846862
21
0.466128
0
LINE
8
BLACK
6
CONTINUOUS
10
0.846862
20
0.466128
11
0.84669
21
0.466169
0
LINE
8
BLACK
6
CONTINUOUS
10
0.84669
20
0.466169
11
0.846524
21
0.466109
0
LINE
8
BLACK
6
CONTINUOUS
10
0.846524
20
0.466109
11
0.8409
21
0.466109
0
LINE
8
BLACK
6
CONTINUOUS
10
0.8409
20
0.466109
11
0.83989
21
0.466287
0
LINE
8
BLACK
6
CONTINUOUS
10
0.83989
20
0.466287
11
0.839755
21
0.4664
0
LINE
8
BLACK
6
CONTINUOUS
10
0.839755
20
0.4664
11
0.839579
21
0.466421
0
LINE
8
BLACK
6
CONTINUOUS
10
0.839579
20
0.466421
11
0.83583
21
0.468295
0
LINE
8
BLACK
6
CONTINUOUS
10
0.83583
20
0.468295
11
0.835121
21
0.468821
0
LINE
8
BLACK
6
CONTINUOUS
10
0.835121
20
0.468821
11
0.835062
21
0.468849
0
LINE
8
BLACK
6
CONTINUOUS
10
0.835062
20
0.468849
11
0.833188
21
0.470723
0
LINE
8
BLACK
6
CONTINUOUS
10
0.833188
20
0.470723
11
0.832681
21
0.471446
0
LINE
8
BLACK
6
CONTINUOUS
10
0.832681
20
0.471446
11
0.832635
21
0.471491
0
LINE
8
BLACK
6
CONTINUOUS
10
0.832635
20
0.471491
11
0.83076
21
0.47524
0
LINE
8
BLACK
6
CONTINUOUS
10
0.83076
20
0.47524
11
0.830467
21
0.476223
0
LINE
8
BLACK
6
CONTINUOUS
10
0.830467
20
0.476223
11
0.830508
21
0.476395
0
LINE
8
BLACK
6
CONTINUOUS
10
0.830508
20
0.476395
11
0.830448
21
0.476561
0
LINE
8
BLACK
6
CONTINUOUS
10
0.830448
20
0.476561
11
0.830448
21
0.491559
0
LINE
8
BLACK
6
CONTINUOUS
10
0.830448
20
0.491559
11
0.830516
21
0.491942
0
LINE
8
BLACK
6
CONTINUOUS
10
0.830516
20
0.491942
11
0.830493
21
0.492072
0
LINE
8
BLACK
6
CONTINUOUS
10
0.830493
20
0.492072
11
0.830558
21
0.492185
0
LINE
8
BLACK
6
CONTINUOUS
10
0.830558
20
0.492185
11
0.830626
21
0.492569
0
LINE
8
BLACK
6
CONTINUOUS
10
0.830626
20
0.492569
11
0.831119
21
0.493156
0
LINE
8
BLACK
6
CONTINUOUS
10
0.831119
20
0.493156
11
0.831503
21
0.493821
0
LINE
8
BLACK
6
CONTINUOUS
10
0.831503
20
0.493821
11
0.831753
21
0.493912
0
LINE
8
BLACK
6
CONTINUOUS
10
0.831753
20
0.493912
11
0.831924
21
0.494116
0
LINE
8
BLACK
6
CONTINUOUS
10
0.831924
20
0.494116
11
0.83268
21
0.494249
0
LINE
8
BLACK
6
CONTINUOUS
10
0.83268
20
0.494249
11
0.833401
21
0.494512
0
LINE
8
BLACK
6
CONTINUOUS
10
0.833401
20
0.494512
11
0.872771
21
0.494512
0
LINE
8
BLACK
6
CONTINUOUS
10
0.872771
20
0.494512
11
0.873781
21
0.494334
0
LINE
8
BLACK
6
CONTINUOUS
10
0.836354
20
0.488606
11
0.836354
21
0.477258
0
LINE
8
BLACK
6
CONTINUOUS
10
0.836354
20
0.477258
11
0.837702
21
0.47456
0
LINE
8
BLACK
6
CONTINUOUS
10
0.837702
20
0.47456
11
0.838899
21
0.473363
0
LINE
8
BLACK
6
CONTINUOUS
10
0.838899
20
0.473363
11
0.841597
21
0.472014
0
LINE
8
BLACK
6
CONTINUOUS
10
0.841597
20
0.472014
11
0.845827
21
0.472014
0
LINE
8
BLACK
6
CONTINUOUS
10
0.845827
20
0.472014
11
0.848525
21
0.473363
0
LINE
8
BLACK
6
CONTINUOUS
10
0.848525
20
0.473363
11
0.849722
21
0.47456
0
LINE
8
BLACK
6
CONTINUOUS
10
0.849722
20
0.47456
11
0.85107
21
0.477258
0
LINE
8
BLACK
6
CONTINUOUS
10
0.85107
20
0.477258
11
0.85107
21
0.488606
0
LINE
8
BLACK
6
CONTINUOUS
10
0.85107
20
0.488606
11
0.836354
21
0.488606
0
LINE
8
BLACK
6
CONTINUOUS
10
0.96482
20
0.511834
11
0.966367
21
0.510535
0
LINE
8
BLACK
6
CONTINUOUS
10
0.966367
20
0.510535
11
0.966718
21
0.508546
0
LINE
8
BLACK
6
CONTINUOUS
10
0.966718
20
0.508546
11
0.965708
21
0.506797
0
LINE
8
BLACK
6
CONTINUOUS
10
0.965708
20
0.506797
11
0.96381
21
0.506106
0
LINE
8
BLACK
6
CONTINUOUS
10
0.96381
20
0.506106
11
0.948015
21
0.506106
0
LINE
8
BLACK
6
CONTINUOUS
10
0.948015
20
0.506106
11
0.948015
21
0.501222
0
LINE
8
BLACK
6
CONTINUOUS
10
0.948015
20
0.501222
11
0.965504
21
0.488981
0
LINE
8
BLACK
6
CONTINUOUS
10
0.965504
20
0.488981
11
0.966229
21
0.488256
0
LINE
8
BLACK
6
CONTINUOUS
10
0.966229
20
0.488256
11
0.966752
21
0.486305
0
LINE
8
BLACK
6
CONTINUOUS
10
0.966752
20
0.486305
11
0.965898
21
0.484474
0
LINE
8
BLACK
6
CONTINUOUS
10
0.965898
20
0.484474
11
0.964068
21
0.48362
0
LINE
8
BLACK
6
CONTINUOUS
10
0.964068
20
0.48362
11
0.962117
21
0.484143
0
LINE
8
BLACK
6
CONTINUOUS
10
0.962117
20
0.484143
11
0.948008
21
0.494019
0
LINE
8
BLACK
6
CONTINUOUS
10
0.948008
20
0.494019
11
0.947837
21
0.493051
0
LINE
8
BLACK
6
CONTINUOUS
10
0.947837
20
0.493051
11
0.947724
21
0.492916
0
LINE
8
BLACK
6
CONTINUOUS
10
0.947724
20
0.492916
11
0.947704
21
0.49274
0
LINE
8
BLACK
6
CONTINUOUS
10
0.947704
20
0.49274
11
0.945829
21
0.488991
0
LINE
8
BLACK
6
CONTINUOUS
10
0.945829
20
0.488991
11
0.945303
21
0.488282
0
LINE
8
BLACK
6
CONTINUOUS
10
0.945303
20
0.488282
11
0.945276
21
0.488223
0
LINE
8
BLACK
6
CONTINUOUS
10
0.945276
20
0.488223
11
0.943401
21
0.486349
0
LINE
8
BLACK
6
CONTINUOUS
10
0.943401
20
0.486349
11
0.942678
21
0.485842
0
LINE
8
BLACK
6
CONTINUOUS
10
0.942678
20
0.485842
11
0.942634
21
0.485795
0
LINE
8
BLACK
6
CONTINUOUS
10
0.942634
20
0.485795
11
0.938884
21
0.483921
0
LINE
8
BLACK
6
CONTINUOUS
10
0.938884
20
0.483921
11
0.937901
21
0.483628
0
LINE
8
BLACK
6
CONTINUOUS
10
0.937901
20
0.483628
11
0.937729
21
0.483669
0
LINE
8
BLACK
6
CONTINUOUS
10
0.937729
20
0.483669
11
0.937564
21
0.483609
0
LINE
8
BLACK
6
CONTINUOUS
10
0.937564
20
0.483609
11
0.931939
21
0.483609
0
LINE
8
BLACK
6
CONTINUOUS
10
0.931939
20
0.483609
11
0.930929
21
0.483787
0
LINE
8
BLACK
6
CONTINUOUS
10
0.930929
20
0.483787
11
0.930794
21
0.4839
0
LINE
8
BLACK
6
CONTINUOUS
10
0.930794
20
0.4839
11
0.930619
21
0.483921
0
LINE
8
BLACK
6
CONTINUOUS
10
0.930619
20
0.483921
11
0.926869
21
0.485795
0
LINE
8
BLACK
6
CONTINUOUS
10
0.926869
20
0.485795
11
0.92616
21
0.486321
0
LINE
8
BLACK
6
CONTINUOUS
10
0.92616
20
0.486321
11
0.926102
21
0.486349
0
LINE
8
BLACK
6
CONTINUOUS
10
0.926102
20
0.486349
11
0.924227
21
0.488223
0
LINE
8
BLACK
6
CONTINUOUS
10
0.924227
20
0.488223
11
0.923721
21
0.488946
0
LINE
8
BLACK
6
CONTINUOUS
10
0.923721
20
0.488946
11
0.923674
21
0.488991
0
LINE
8
BLACK
6
CONTINUOUS
10
0.923674
20
0.488991
11
0.921799
21
0.49274
0
LINE
8
BLACK
6
CONTINUOUS
10
0.921799
20
0.49274
11
0.921507
21
0.493723
0
LINE
8
BLACK
6
CONTINUOUS
10
0.921507
20
0.493723
11
0.921548
21
0.493895
0
LINE
8
BLACK
6
CONTINUOUS
10
0.921548
20
0.493895
11
0.921487
21
0.494061
0
LINE
8
BLACK
6
CONTINUOUS
10
0.921487
20
0.494061
11
0.921487
21
0.509059
0
LINE
8
BLACK
6
CONTINUOUS
10
0.921487
20
0.509059
11
0.921555
21
0.509442
0
LINE
8
BLACK
6
CONTINUOUS
10
0.921555
20
0.509442
11
0.921532
21
0.509572
0
LINE
8
BLACK
6
CONTINUOUS
10
0.921532
20
0.509572
11
0.921598
21
0.509685
0
LINE
8
BLACK
6
CONTINUOUS
10
0.921598
20
0.509685
11
0.921665
21
0.510069
0
LINE
8
BLACK
6
CONTINUOUS
10
0.921665
20
0.510069
11
0.922159
21
0.510656
0
LINE
8
BLACK
6
CONTINUOUS
10
0.922159
20
0.510656
11
0.922542
21
0.511321
0
LINE
8
BLACK
6
CONTINUOUS
10
0.922542
20
0.511321
11
0.922793
21
0.511412
0
LINE
8
BLACK
6
CONTINUOUS
10
0.922793
20
0.511412
11
0.922964
21
0.511616
0
LINE
8
BLACK
6
CONTINUOUS
10
0.922964
20
0.511616
11
0.923719
21
0.511749
0
LINE
8
BLACK
6
CONTINUOUS
10
0.923719
20
0.511749
11
0.92444
21
0.512012
0
LINE
8
BLACK
6
CONTINUOUS
10
0.92444
20
0.512012
11
0.96381
21
0.512012
0
LINE
8
BLACK
6
CONTINUOUS
10
0.96381
20
0.512012
11
0.96482
21
0.511834
0
LINE
8
BLACK
6
CONTINUOUS
10
0.927393
20
0.506106
11
0.927393
21
0.494758
0
LINE
8
BLACK
6
CONTINUOUS
10
0.927393
20
0.494758
11
0.928742
21
0.49206
0
LINE
8
BLACK
6
CONTINUOUS
10
0.928742
20
0.49206
11
0.929939
21
0.490863
0
LINE
8
BLACK
6
CONTINUOUS
10
0.929939
20
0.490863
11
0.932636
21
0.489514
0
LINE
8
BLACK
6
CONTINUOUS
10
0.932636
20
0.489514
11
0.936866
21
0.489514
0
LINE
8
BLACK
6
CONTINUOUS
10
0.936866
20
0.489514
11
0.939564
21
0.490863
0
LINE
8
BLACK
6
CONTINUOUS
10
0.939564
20
0.490863
11
0.940761
21
0.49206
0
LINE
8
BLACK
6
CONTINUOUS
10
0.940761
20
0.49206
11
0.94211
21
0.494758
0
LINE
8
BLACK
6
CONTINUOUS
10
0.94211
20
0.494758
11
0.94211
21
0.506106
0
LINE
8
BLACK
6
CONTINUOUS
10
0.94211
20
0.506106
11
0.927393
21
0.506106
0
LINE
8
BLACK
6
CONTINUOUS
10
0.435975
20
0.574383
11
0.436144
21
0.574394
0
LINE
8
BLACK
6
CONTINUOUS
10
0.436144
20
0.574394
11
0.436835
21
0.573886
0
LINE
8
BLACK
6
CONTINUOUS
10
0.436835
20
0.573886
11
0.437577
21
0.573458
0
LINE
8
BLACK
6
CONTINUOUS
10
0.437577
20
0.573458
11
0.437635
21
0.573298
0
LINE
8
BLACK
6
CONTINUOUS
10
0.437635
20
0.573298
11
0.437772
21
0.573198
0
LINE
8
BLACK
6
CONTINUOUS
10
0.437772
20
0.573198
11
0.441359
21
0.567817
0
LINE
8
BLACK
6
CONTINUOUS
10
0.441359
20
0.567817
11
0.444563
21
0.564613
0
LINE
8
BLACK
6
CONTINUOUS
10
0.444563
20
0.564613
11
0.447884
21
0.562952
0
LINE
8
BLACK
6
CONTINUOUS
10
0.447884
20
0.562952
11
0.448708
21
0.562341
0
LINE
8
BLACK
6
CONTINUOUS
10
0.448708
20
0.562341
11
0.449511
21
0.560488
0
LINE
8
BLACK
6
CONTINUOUS
10
0.449511
20
0.560488
11
0.448935
21
0.558552
0
LINE
8
BLACK
6
CONTINUOUS
10
0.448935
20
0.558552
11
0.44725
21
0.557439
0
LINE
8
BLACK
6
CONTINUOUS
10
0.44725
20
0.557439
11
0.445243
21
0.55767
0
LINE
8
BLACK
6
CONTINUOUS
10
0.445243
20
0.55767
11
0.441494
21
0.559545
0
LINE
8
BLACK
6
CONTINUOUS
10
0.441494
20
0.559545
11
0.440784
21
0.560071
0
LINE
8
BLACK
6
CONTINUOUS
10
0.440784
20
0.560071
11
0.440726
21
0.560098
0
LINE
8
BLACK
6
CONTINUOUS
10
0.440726
20
0.560098
11
0.438268
21
0.562556
0
LINE
8
BLACK
6
CONTINUOUS
10
0.438268
20
0.562556
11
0.438268
21
0.535143
0
LINE
8
BLACK
6
CONTINUOUS
10
0.438268
20
0.535143
11
0.446564
21
0.535143
0
LINE
8
BLACK
6
CONTINUOUS
10
0.446564
20
0.535143
11
0.447573
21
0.534964
0
LINE
8
BLACK
6
CONTINUOUS
10
0.447573
20
0.534964
11
0.449121
21
0.533666
0
LINE
8
BLACK
6
CONTINUOUS
10
0.449121
20
0.533666
11
0.449471
21
0.531677
0
LINE
8
BLACK
6
CONTINUOUS
10
0.449471
20
0.531677
11
0.448462
21
0.529928
0
LINE
8
BLACK
6
CONTINUOUS
10
0.448462
20
0.529928
11
0.446564
21
0.529237
0
LINE
8
BLACK
6
CONTINUOUS
10
0.446564
20
0.529237
11
0.424066
21
0.529237
0
LINE
8
BLACK
6
CONTINUOUS
10
0.424066
20
0.529237
11
0.423056
21
0.529415
0
LINE
8
BLACK
6
CONTINUOUS
10
0.423056
20
0.529415
11
0.421509
21
0.530713
0
LINE
8
BLACK
6
CONTINUOUS
10
0.421509
20
0.530713
11
0.421158
21
0.532703
0
LINE
8
BLACK
6
CONTINUOUS
10
0.421158
20
0.532703
11
0.422168
21
0.534452
0
LINE
8
BLACK
6
CONTINUOUS
10
0.422168
20
0.534452
11
0.424066
21
0.535143
0
LINE
8
BLACK
6
CONTINUOUS
10
0.424066
20
0.535143
11
0.432362
21
0.535143
0
LINE
8
BLACK
6
CONTINUOUS
10
0.432362
20
0.535143
11
0.432362
21
0.57156
0
LINE
8
BLACK
6
CONTINUOUS
10
0.432362
20
0.57156
11
0.43254
21
0.57257
0
LINE
8
BLACK
6
CONTINUOUS
10
0.43254
20
0.57257
11
0.432649
21
0.5727
0
LINE
8
BLACK
6
CONTINUOUS
10
0.432649
20
0.5727
11
0.432668
21
0.572869
0
LINE
8
BLACK
6
CONTINUOUS
10
0.432668
20
0.572869
11
0.433288
21
0.573461
0
LINE
8
BLACK
6
CONTINUOUS
10
0.433288
20
0.573461
11
0.433839
21
0.574117
0
LINE
8
BLACK
6
CONTINUOUS
10
0.433839
20
0.574117
11
0.434006
21
0.574146
0
LINE
8
BLACK
6
CONTINUOUS
10
0.434006
20
0.574146
11
0.434129
21
0.574264
0
LINE
8
BLACK
6
CONTINUOUS
10
0.434129
20
0.574264
11
0.434984
21
0.574319
0
LINE
8
BLACK
6
CONTINUOUS
10
0.434984
20
0.574319
11
0.435828
21
0.574468
0
LINE
8
BLACK
6
CONTINUOUS
10
0.435828
20
0.574468
11
0.435975
21
0.574383
0
LINE
8
BLACK
6
CONTINUOUS
10
0.484442
20
0.574445
11
0.484572
21
0.574468
0
LINE
8
BLACK
6
CONTINUOUS
10
0.484572
20
0.574468
11
0.484685
21
0.574402
0
LINE
8
BLACK
6
CONTINUOUS
10
0.484685
20
0.574402
11
0.485069
21
0.574335
0
LINE
8
BLACK
6
CONTINUOUS
10
0.485069
20
0.574335
11
0.485656
21
0.573841
0
LINE
8
BLACK
6
CONTINUOUS
10
0.485656
20
0.573841
11
0.486321
21
0.573458
0
LINE
8
BLACK
6
CONTINUOUS
10
0.486321
20
0.573458
11
0.486412
21
0.573207
0
LINE
8
BLACK
6
CONTINUOUS
10
0.486412
20
0.573207
11
0.486616
21
0.573036
0
LINE
8
BLACK
6
CONTINUOUS
10
0.486616
20
0.573036
11
0.486749
21
0.572281
0
LINE
8
BLACK
6
CONTINUOUS
10
0.486749
20
0.572281
11
0.487012
21
0.57156
0
LINE
8
BLACK
6
CONTINUOUS
10
0.487012
20
0.57156
11
0.487012
21
0.53219
0
LINE
8
BLACK
6
CONTINUOUS
10
0.487012
20
0.53219
11
0.486944
21
0.531806
0
LINE
8
BLACK
6
CONTINUOUS
10
0.486944
20
0.531806
11
0.486967
21
0.531677
0
LINE
8
BLACK
6
CONTINUOUS
10
0.486967
20
0.531677
11
0.486901
21
0.531563
0
LINE
8
BLACK
6
CONTINUOUS
10
0.486901
20
0.531563
11
0.486834
21
0.53118
0
LINE
8
BLACK
6
CONTINUOUS
10
0.486834
20
0.53118
11
0.48634
21
0.530592
0
LINE
8
BLACK
6
CONTINUOUS
10
0.48634
20
0.530592
11
0.485957
21
0.529928
0
LINE
8
BLACK
6
CONTINUOUS
10
0.485957
20
0.529928
11
0.485706
21
0.529837
0
LINE
8
BLACK
6
CONTINUOUS
10
0.485706
20
0.529837
11
0.485535
21
0.529633
0
LINE
8
BLACK
6
CONTINUOUS
10
0.485535
20
0.529633
11
0.48478
21
0.529499
0
LINE
8
BLACK
6
CONTINUOUS
10
0.48478
20
0.529499
11
0.484059
21
0.529237
0
LINE
8
BLACK
6
CONTINUOUS
10
0.484059
20
0.529237
11
0.474685
21
0.529237
0
LINE
8
BLACK
6
CONTINUOUS
10
0.474685
20
0.529237
11
0.473816
21
0.52939
0
LINE
8
BLACK
6
CONTINUOUS
10
0.473816
20
0.52939
11
0.473751
21
0.529389
0
LINE
8
BLACK
6
CONTINUOUS
10
0.473751
20
0.529389
11
0.468127
21
0.531263
0
LINE
8
BLACK
6
CONTINUOUS
10
0.468127
20
0.531263
11
0.467225
21
0.531752
0
LINE
8
BLACK
6
CONTINUOUS
10
0.467225
20
0.531752
11
0.467133
21
0.531902
0
LINE
8
BLACK
6
CONTINUOUS
10
0.467133
20
0.531902
11
0.466973
21
0.531977
0
LINE
8
BLACK
6
CONTINUOUS
10
0.466973
20
0.531977
11
0.463223
21
0.535726
0
LINE
8
BLACK
6
CONTINUOUS
10
0.463223
20
0.535726
11
0.462717
21
0.536449
0
LINE
8
BLACK
6
CONTINUOUS
10
0.462717
20
0.536449
11
0.46267
21
0.536494
0
LINE
8
BLACK
6
CONTINUOUS
10
0.46267
20
0.536494
11
0.460795
21
0.540243
0
LINE
8
BLACK
6
CONTINUOUS
10
0.460795
20
0.540243
11
0.46065
21
0.540731
0
LINE
8
BLACK
6
CONTINUOUS
10
0.46065
20
0.540731
11
0.460572
21
0.540847
0
LINE
8
BLACK
6
CONTINUOUS
10
0.460572
20
0.540847
11
0.458697
21
0.548346
0
LINE
8
BLACK
6
CONTINUOUS
10
0.458697
20
0.548346
11
0.458656
21
0.548934
0
LINE
8
BLACK
6
CONTINUOUS
10
0.458656
20
0.548934
11
0.458609
21
0.549063
0
LINE
8
BLACK
6
CONTINUOUS
10
0.458609
20
0.549063
11
0.458609
21
0.554687
0
LINE
8
BLACK
6
CONTINUOUS
10
0.458609
20
0.554687
11
0.458711
21
0.555267
0
LINE
8
BLACK
6
CONTINUOUS
10
0.458711
20
0.555267
11
0.458697
21
0.555403
0
LINE
8
BLACK
6
CONTINUOUS
10
0.458697
20
0.555403
11
0.460572
21
0.562902
0
LINE
8
BLACK
6
CONTINUOUS
10
0.460572
20
0.562902
11
0.460779
21
0.563368
0
LINE
8
BLACK
6
CONTINUOUS
10
0.460779
20
0.563368
11
0.460795
21
0.563506
0
LINE
8
BLACK
6
CONTINUOUS
10
0.460795
20
0.563506
11
0.46267
21
0.567256
0
LINE
8
BLACK
6
CONTINUOUS
10
0.46267
20
0.567256
11
0.463196
21
0.567965
0
LINE
8
BLACK
6
CONTINUOUS
10
0.463196
20
0.567965
11
0.463223
21
0.568023
0
LINE
8
BLACK
6
CONTINUOUS
10
0.463223
20
0.568023
11
0.466973
21
0.571773
0
LINE
8
BLACK
6
CONTINUOUS
10
0.466973
20
0.571773
11
0.467813
21
0.572361
0
LINE
8
BLACK
6
CONTINUOUS
10
0.467813
20
0.572361
11
0.467989
21
0.572377
0
LINE
8
BLACK
6
CONTINUOUS
10
0.467989
20
0.572377
11
0.468127
21
0.572486
0
LINE
8
BLACK
6
CONTINUOUS
10
0.468127
20
0.572486
11
0.473751
21
0.574361
0
LINE
8
BLACK
6
CONTINUOUS
10
0.473751
20
0.574361
11
0.474624
21
0.574491
0
LINE
8
BLACK
6
CONTINUOUS
10
0.474624
20
0.574491
11
0.474685
21
0.574513
0
LINE
8
BLACK
6
CONTINUOUS
10
0.474685
20
0.574513
11
0.484059
21
0.574513
0
LINE
8
BLACK
6
CONTINUOUS
10
0.484059
20
0.574513
11
0.484442
21
0.574445
0
LINE
8
BLACK
6
CONTINUOUS
10
0.475164
20
0.568607
11
0.470656
21
0.567104
0
LINE
8
BLACK
6
CONTINUOUS
10
0.470656
20
0.567104
11
0.467738
21
0.564186
0
LINE
8
BLACK
6
CONTINUOUS
10
0.467738
20
0.564186
11
0.466222
21
0.561155
0
LINE
8
BLACK
6
CONTINUOUS
10
0.466222
20
0.561155
11
0.464514
21
0.554323
0
LINE
8
BLACK
6
CONTINUOUS
10
0.464514
20
0.554323
11
0.464514
21
0.549426
0
LINE
8
BLACK
6
CONTINUOUS
10
0.464514
20
0.549426
11
0.466222
21
0.542594
0
LINE
8
BLACK
6
CONTINUOUS
10
0.466222
20
0.542594
11
0.467738
21
0.539563
0
LINE
8
BLACK
6
CONTINUOUS
10
0.467738
20
0.539563
11
0.470656
21
0.536645
0
LINE
8
BLACK
6
CONTINUOUS
10
0.470656
20
0.536645
11
0.475164
21
0.535143
0
LINE
8
BLACK
6
CONTINUOUS
10
0.475164
20
0.535143
11
0.481106
21
0.535143
0
LINE
8
BLACK
6
CONTINUOUS
10
0.481106
20
0.535143
11
0.481106
21
0.568607
0
LINE
8
BLACK
6
CONTINUOUS
10
0.481106
20
0.568607
11
0.475164
21
0.568607
  0
ENDSEC
  0
EOF
